<svg width="48" height="48" viewBox="0 0 48 48" fill="none" xmlns="http://www.w3.org/2000/svg">
<path d="M7.43994 28.78C6.61994 28.78 5.93994 29.46 5.93994 30.28C5.93994 31.1 6.61994 31.78 7.43994 31.78H8.57994V28.78H7.43994Z" fill="#1F2024"/>
<path d="M7.43994 22.5C6.61994 22.5 5.93994 23.18 5.93994 24C5.93994 24.82 6.61994 25.5 7.43994 25.5H8.57994V22.5H7.43994Z" fill="#1F2024"/>
<path d="M7.43994 16.2C6.61994 16.2 5.93994 16.88 5.93994 17.7C5.93994 18.52 6.61994 19.2 7.43994 19.2H8.57994V16.2H7.43994Z" fill="#1F2024"/>
<path d="M38.5799 4.73999H12.0799C10.1599 4.73999 8.57994 6.31999 8.57994 8.23999V16.2H10.8799C11.6999 16.2 12.3799 16.88 12.3799 17.7C12.3799 18.52 11.6999 19.2 10.8799 19.2H8.57994V22.5H10.8799C11.6999 22.5 12.3799 23.18 12.3799 24C12.3799 24.82 11.6999 25.5 10.8799 25.5H8.57994V28.8H10.8799C11.6999 28.8 12.3799 29.48 12.3799 30.3C12.3799 31.12 11.6999 31.8 10.8799 31.8H8.57994V39.76C8.57994 41.68 10.1599 43.26 12.0799 43.26H38.5599C40.4799 43.26 42.0599 41.68 42.0599 39.76V8.23999C42.0599 6.31999 40.4799 4.73999 38.5599 4.73999H38.5799ZM22.6199 15.44C23.3999 14.6 24.4999 14.14 25.7399 14.14C26.9799 14.14 28.0799 14.6 28.8599 15.44C29.6399 16.28 30.0199 17.44 29.9399 18.72C29.7399 21.42 27.6799 22.84 25.7399 22.84C23.7999 22.84 21.7399 21.42 21.5399 18.72C21.4399 17.46 21.8399 16.3 22.6199 15.44ZM34.3199 31.9C34.1399 32.14 33.8399 32.28 33.5399 32.28H17.9399C17.6199 32.28 17.3399 32.14 17.1599 31.9C16.9599 31.64 16.8799 31.28 16.9599 30.92C17.8399 27.36 21.2799 25.06 25.7399 25.06C30.1999 25.06 33.6199 27.36 34.5199 30.92C34.5999 31.26 34.5199 31.62 34.3199 31.9Z" fill="#1F2024"/>
</svg>
