<svg width="48" height="48" viewBox="0 0 48 48" fill="none" xmlns="http://www.w3.org/2000/svg">
<path d="M38.1499 43.5H11.6499C9.58988 43.5 7.88988 41.82 7.88988 39.74V36.58C7.88988 35.76 8.56988 35.08 9.38988 35.08C10.2099 35.08 10.8899 35.76 10.8899 36.58V39.74C10.8899 40.16 11.2299 40.5 11.6499 40.5H38.1299C38.5499 40.5 38.8899 40.16 38.8899 39.74V8.26C38.8899 7.84 38.5499 7.5 38.1299 7.5H11.6499C11.2299 7.5 10.8899 7.84 10.8899 8.26V11.42C10.8899 12.24 10.2099 12.92 9.38988 12.92C8.56988 12.92 7.88988 12.24 7.88988 11.42V8.26C7.90988 6.18 9.58988 4.5 11.6499 4.5H38.1299C40.1899 4.5 41.8899 6.18 41.8899 8.26V39.76C41.8899 41.82 40.2099 43.52 38.1299 43.52L38.1499 43.5Z" fill="#1F2024"/>
<path d="M11.2101 31.7995H7.61011C6.79011 31.7995 6.11011 31.1195 6.11011 30.2995C6.11011 29.4795 6.79011 28.7995 7.61011 28.7995H11.2101C12.0301 28.7995 12.7101 29.4795 12.7101 30.2995C12.7101 31.1195 12.0301 31.7995 11.2101 31.7995Z" fill="#1F2024"/>
<path d="M11.2101 25.5H7.61011C6.79011 25.5 6.11011 24.82 6.11011 24C6.11011 23.18 6.79011 22.5 7.61011 22.5H11.2101C12.0301 22.5 12.7101 23.18 12.7101 24C12.7101 24.82 12.0301 25.5 11.2101 25.5Z" fill="#1F2024"/>
<path d="M11.2101 19.1999H7.61011C6.79011 19.1999 6.11011 18.5199 6.11011 17.6999C6.11011 16.8799 6.79011 16.1999 7.61011 16.1999H11.2101C12.0301 16.1999 12.7101 16.8799 12.7101 17.6999C12.7101 18.5199 12.0301 19.1999 11.2101 19.1999Z" fill="#1F2024"/>
<path d="M25.29 23.8399C22.49 23.8399 20.31 21.7199 20.09 18.7999C19.97 17.2599 20.45 15.8199 21.43 14.7799C23.39 12.6799 27.19 12.6999 29.13 14.7799C30.11 15.8199 30.59 17.2599 30.47 18.8199C30.27 21.7399 28.07 23.8599 25.27 23.8599L25.29 23.8399ZM25.29 15.7399C24.51 15.7399 23.83 16.0199 23.35 16.5399C22.87 17.0599 22.63 17.7999 22.69 18.5999C22.81 20.4199 24.13 21.2399 25.29 21.2399C26.45 21.2399 27.77 20.4199 27.89 18.5999C27.95 17.7599 27.73 17.0399 27.23 16.5199C26.75 16.0199 26.07 15.7399 25.27 15.7399H25.29Z" fill="#1F2024"/>
<path d="M33.0897 33.2991H17.5097C16.8897 33.2991 16.3097 33.0191 15.9297 32.5391C15.5297 32.0391 15.3897 31.3591 15.5497 30.7191C16.5297 26.6991 20.3697 24.0991 25.2897 24.0991C30.2097 24.0991 34.0497 26.7591 35.0297 30.7191C35.1897 31.3591 35.0297 32.0391 34.6497 32.5391C34.2697 33.0191 33.6897 33.2991 33.0697 33.2991H33.0897ZM18.2697 30.6991H32.3097C31.1897 27.7591 27.9097 26.6791 25.2897 26.6791C22.6697 26.6791 19.3697 27.7391 18.2697 30.6991Z" fill="#1F2024"/>
</svg>
