<svg width="48" height="48" viewBox="0 0 48 48" fill="none" xmlns="http://www.w3.org/2000/svg">
<path d="M42.4748 21.3546C42.0829 17.9776 40.0677 14.743 37.1431 12.8435C34.8516 11.3661 32.3189 10.9439 30.0877 11.6374C29.8163 11.6977 29.5148 11.8183 29.1832 11.9088C29.3641 11.6073 29.6053 11.3359 29.756 11.0043C31.746 6.93385 31.9872 4.3107 30.4797 3.04435C29.9068 2.53178 29.153 2.65239 28.8816 2.68254C27.4645 2.8936 22.6102 4.46146 20.4695 7.68763C19.7459 8.92382 19.6252 10.4012 20.1077 11.7279C20.1981 11.9389 20.3187 12.15 20.4393 12.3611C19.4443 11.9088 18.4192 11.5168 17.8463 11.3058C14.982 10.6424 12.1779 11.3058 9.94674 13.145C7.92661 14.8636 6.44921 17.3661 5.78588 20.2606C5.69543 20.6225 3.58485 29.2758 12.3588 39.9493C13.7759 41.8489 16.3689 44.1403 18.9318 44.3213C20.168 44.4117 21.2836 43.9896 22.1579 43.1454C23.3941 41.9393 24.8414 41.9393 26.0474 43.1454C26.8314 43.9293 27.8264 44.3514 28.942 44.3514C29.0626 44.3514 29.153 44.3514 29.2736 44.3514C31.8365 44.1705 34.4295 41.879 35.8164 40.0398C43.0527 31.2357 42.51 21.8888 42.4798 21.4064L42.4748 21.3546ZM16.5498 20.0194C15.5548 20.2003 14.982 21.0446 14.7106 21.7381C14.0171 23.3964 14.198 25.6879 15.1327 27.0145C15.6152 27.708 15.4342 28.6427 14.7709 29.1251C14.4996 29.306 14.198 29.3964 13.8965 29.3964C13.4141 29.3964 12.9619 29.1854 12.6603 28.7633C11.1226 26.5622 10.8211 23.2155 11.9367 20.5923C12.7508 18.6325 14.2282 17.3963 16.0674 17.0646C16.8815 16.9139 17.6654 17.4867 17.8162 18.3008C17.9669 19.1149 17.3941 19.8988 16.58 20.0496L16.5498 20.0194Z" fill="#1F2024"/>
</svg>
