<svg width="48" height="48" viewBox="0 0 48 48" fill="none" xmlns="http://www.w3.org/2000/svg">
<path d="M42.4655 21.3788C42.074 18.0059 40.0262 14.7535 37.105 12.8562C34.8163 11.3806 32.2866 10.959 30.0581 11.6516C29.7871 11.7119 29.486 11.8323 29.1547 11.9227C29.3354 11.6215 29.5763 11.3505 29.7269 11.0192C31.7145 6.95372 31.9554 4.33373 30.4496 3.0689C29.8774 2.55695 29.1246 2.67741 28.8535 2.70752C27.4381 2.91833 22.5896 4.4843 20.4515 7.70659C19.7287 8.9413 19.6083 10.4169 20.0901 11.742C20.1805 11.9528 20.3009 12.1636 20.4214 12.3744C19.4276 11.9227 18.4037 11.5312 17.8315 11.3204C14.9706 10.6579 12.1699 11.3204 9.94139 13.1574C7.92369 14.8739 6.44806 17.3735 5.78554 20.2645C5.69519 20.6259 3.58715 29.2689 12.3506 39.9295C13.766 41.8268 16.3559 44.1155 18.9156 44.2962C20.1503 44.3865 21.2646 43.9649 22.1379 43.1217C23.3726 41.9171 24.8181 41.9171 26.0227 43.1217C26.8057 43.9047 27.7995 44.3263 28.9138 44.3263C29.0342 44.3263 29.1246 44.3263 29.245 44.3263C31.8048 44.1456 34.3947 41.8569 35.78 40.0199C43.0075 31.2263 42.5126 22.0207 42.4825 21.5388L42.4655 21.3788ZM22.9811 9.3328C24.0954 7.67648 26.8057 6.44177 28.3416 5.95993C28.2211 6.65257 27.8899 7.88728 26.9864 9.75441C26.3239 11.1999 25.0591 11.9528 23.9448 11.7119C23.463 11.5613 23.1016 11.1999 22.9209 10.7181C22.7402 10.2362 22.7703 9.69418 23.0113 9.3328H22.9811ZM33.431 38.1226C32.1361 39.8392 30.2689 41.1943 29.0643 41.2847C28.703 41.2847 28.4319 41.2245 28.191 40.9835C26.9864 39.7789 25.5409 39.1766 24.1255 39.1766C22.7101 39.1766 21.2345 39.7789 20.06 40.9835C19.8191 41.2245 19.548 41.3148 19.1867 41.2847C17.9821 41.1943 16.0848 39.8392 14.7598 38.0624C6.9299 28.6063 8.61634 21.3185 8.70668 20.9873C9.24875 18.6985 10.363 16.7411 11.8386 15.5064C13.3745 14.2415 15.1814 13.8199 16.9883 14.2415C17.8014 14.5126 20.4214 15.687 21.5959 16.2592L21.7163 16.3195C23.5834 17.0723 24.2761 17.0723 26.2637 16.2592C27.3478 15.7172 29.6666 14.8438 30.8712 14.5427C32.7082 13.9705 34.3947 14.6631 35.4788 15.3558C37.617 16.7411 39.1829 19.2406 39.4841 21.6197C39.529 21.9746 39.9358 30.2024 33.4611 38.0925L33.431 38.1226Z" fill="#1F2024"/>
<path d="M16.024 17.0721C14.187 17.3732 12.7114 18.638 11.8983 20.5955C10.7841 23.2155 11.1153 26.5884 12.6211 28.7566C12.9222 29.1783 13.3739 29.3891 13.8558 29.3891C14.1569 29.3891 14.4581 29.2987 14.7291 29.118C15.4217 28.6362 15.5723 27.7026 15.0905 27.01C14.1569 25.6548 13.9762 23.3962 14.6689 21.7399C14.97 21.0472 15.5121 20.204 16.5059 20.0233C17.319 19.8728 17.8912 19.1199 17.7406 18.2767C17.6201 17.4636 16.8371 16.8914 15.9939 17.042L16.024 17.0721Z" fill="#1F2024"/>
</svg>
