<svg width="48" height="48" viewBox="0 0 48 48" fill="none" xmlns="http://www.w3.org/2000/svg">
<path d="M5 35.45C5 40.17 8.83 44 13.55 44H23.25V25.75H5V35.45ZM10.82 31.8H10.83C10.83 31.26 11.28 30.81 11.83 30.81C12.38 30.81 12.83 31.26 12.83 31.81V35.08L18.09 29.53C18.47 29.13 19.1 29.11 19.5 29.49L19.52 29.51C19.9 29.89 19.91 30.51 19.54 30.9L14.18 36.55H17.57C17.85 36.55 18.1 36.66 18.28 36.84C18.46 37.02 18.57 37.27 18.57 37.55C18.57 38.1 18.12 38.55 17.57 38.55H11.82C11.27 38.55 10.82 38.1 10.82 37.55V31.8Z" fill="#1F2024"/>
<path d="M35.45 5H25.75V23.25H44V13.55C44 8.83 40.17 5 35.45 5ZM38.78 16.96H38.77C38.77 17.5 38.32 17.95 37.77 17.95C37.22 17.95 36.77 17.5 36.77 16.95V13.68L31.51 19.23C31.13 19.63 30.5 19.65 30.1 19.27C30.1 19.26 30.08 19.25 30.08 19.25C29.7 18.87 29.69 18.25 30.06 17.86L35.42 12.21H32.03C31.75 12.21 31.5 12.1 31.32 11.92C31.14 11.74 31.03 11.49 31.03 11.21C31.03 10.66 31.48 10.21 32.03 10.21H37.78C38.33 10.21 38.78 10.66 38.78 11.21V16.96Z" fill="#1F2024"/>
<path d="M5 13.55V23.25H23.25V5H13.55C8.83 5 5 8.83 5 13.55Z" fill="#1F2024"/>
<path d="M25.75 44H35.45C40.17 44 44 40.17 44 35.45V25.75H25.75V44Z" fill="#1F2024"/>
</svg>
