<svg width="48" height="48" viewBox="0 0 48 48" fill="none" xmlns="http://www.w3.org/2000/svg">
<path d="M34.93 4.5H13.07C8.33 4.5 4.5 8.33 4.5 13.07V34.93C4.5 39.66 8.33 43.5 13.07 43.5H34.93C39.66 43.5 43.5 39.67 43.5 34.93V13.07C43.5 8.34 39.67 4.5 34.93 4.5ZM40.5 13.07V22.5H25.5V7.5H34.93C38 7.5 40.5 10 40.5 13.07ZM13.07 7.5H22.5V22.5H7.5V13.07C7.5 10 10 7.5 13.07 7.5ZM7.5 34.93V25.5H22.5V40.5H13.07C10 40.5 7.5 38 7.5 34.93ZM34.93 40.5H25.5V25.5H40.5V34.93C40.5 38 38 40.5 34.93 40.5Z" fill="#1F2024"/>
<path d="M37.14 17.56V11.81C37.14 11.26 36.69 10.81 36.14 10.81H30.39C29.84 10.81 29.39 11.26 29.39 11.81C29.39 12.09 29.5 12.34 29.68 12.52C29.86 12.7 30.11 12.81 30.39 12.81H33.78L28.42 18.46C28.05 18.85 28.06 19.47 28.44 19.85C28.44 19.85 28.45 19.86 28.46 19.87C28.86 20.25 29.49 20.23 29.87 19.83L35.13 14.28V17.55C35.13 18.1 35.58 18.55 36.13 18.55C36.68 18.55 37.13 18.1 37.13 17.55L37.14 17.56Z" fill="#1F2024"/>
<path d="M10.54 30.66V36.41C10.54 36.96 10.99 37.41 11.54 37.41H17.29C17.84 37.41 18.29 36.96 18.29 36.41C18.29 36.13 18.18 35.88 18 35.7C17.82 35.52 17.57 35.41 17.29 35.41H13.9L19.26 29.76C19.63 29.37 19.62 28.75 19.24 28.37C19.24 28.37 19.23 28.36 19.22 28.35C18.82 27.97 18.19 27.99 17.81 28.39L12.55 33.94V30.67C12.55 30.12 12.1 29.67 11.55 29.67C11 29.67 10.55 30.12 10.55 30.67L10.54 30.66Z" fill="#1F2024"/>
</svg>
