<svg width="48" height="48" viewBox="0 0 48 48" fill="none" xmlns="http://www.w3.org/2000/svg">
<path d="M22.8763 38.6998C22.5563 38.6998 22.2563 38.5798 22.0263 38.3498L8.52633 24.8498C8.05633 24.3798 8.05633 23.6198 8.52633 23.1498L22.0263 9.6498C22.2563 9.4198 22.5563 9.2998 22.8763 9.2998C23.1963 9.2998 23.4963 9.4198 23.7263 9.6498C24.1963 10.1198 24.1963 10.8798 23.7263 11.3498L12.2763 22.7998H38.6263C39.2863 22.7998 39.8263 23.3398 39.8263 23.9998C39.8263 24.6598 39.2863 25.1998 38.6263 25.1998H12.2763L23.7263 36.6498C24.1963 37.1198 24.1963 37.8798 23.7263 38.3498C23.4963 38.5798 23.1963 38.6998 22.8763 38.6998Z" fill="#1F2024"/>
</svg>
