<svg width="48" height="48" viewBox="0 0 48 48" fill="none" xmlns="http://www.w3.org/2000/svg">
<path d="M37.0915 32.79H10.8915C9.98148 32.79 9.16148 32.23 8.80148 31.36C8.47148 30.57 8.62148 29.68 9.17148 29.09L22.3315 13.73C22.4815 13.58 22.6315 13.48 22.7415 13.42L23.0715 13.1H23.4215C23.5715 13.05 23.7615 13 23.9915 13C24.1515 13 24.5415 13 24.9615 13.24C25.3015 13.39 25.5315 13.62 25.6515 13.74L25.7315 13.82L38.8615 29.16C39.4115 29.85 39.5315 30.76 39.1515 31.54C38.7815 32.32 37.9915 32.8 37.0915 32.8V32.79ZM12.5215 29.79H35.4615L23.9915 16.4L12.5215 29.79Z" fill="#1F2024"/>
</svg>
