<svg width="48" height="48" viewBox="0 0 48 48" fill="none" xmlns="http://www.w3.org/2000/svg">
<path d="M37.0853 32.2H10.8853C10.0953 32.2 9.38531 31.71 9.07531 30.95C8.77531 30.23 8.91531 29.47 9.43531 28.95L22.4753 13.72C22.6653 13.52 22.8253 13.42 22.9253 13.37L23.1953 13.1H23.4753C23.6053 13.05 23.7853 13 23.9953 13C24.1253 13 24.4653 13 24.8253 13.21C25.1253 13.33 25.3253 13.54 25.4453 13.66L38.6353 29.06C39.1153 29.66 39.2153 30.45 38.8953 31.12C38.5753 31.79 37.8853 32.21 37.1053 32.21L37.0853 32.2ZM11.2353 30.53L11.1953 30.58C11.1953 30.58 11.2253 30.55 11.2353 30.53ZM11.8653 29.8H36.1053L23.9853 15.64L11.8653 29.8V29.8Z" fill="#1F2024"/>
</svg>
