<svg width="48" height="48" viewBox="0 0 48 48" fill="none" xmlns="http://www.w3.org/2000/svg">
<path d="M38.8587 29.17L25.7287 13.83L25.6587 13.75C25.5387 13.63 25.3087 13.39 24.9587 13.24C24.5387 13 24.1487 13 23.9887 13C23.7587 13 23.5687 13.05 23.4187 13.1H23.0687L22.7387 13.42C22.6287 13.48 22.4687 13.59 22.3187 13.74L9.17869 29.1C8.62869 29.7 8.47869 30.58 8.80869 31.37C9.16869 32.24 9.98869 32.8 10.8987 32.8H37.0887C37.9887 32.8 38.7787 32.32 39.1487 31.54C39.5187 30.76 39.4087 29.85 38.8587 29.16V29.17Z" fill="#1F2024"/>
</svg>
