<svg width="48" height="48" viewBox="0 0 48 48" fill="none" xmlns="http://www.w3.org/2000/svg">
<path d="M24.0001 40.32C23.5501 40.32 23.1201 40.14 22.8001 39.82L9.30005 26.32C8.64005 25.66 8.64005 24.58 9.30005 23.91C9.62005 23.59 10.0501 23.41 10.5001 23.41C10.9501 23.41 11.3801 23.59 11.7001 23.91L22.3001 34.51V9.37004C22.3001 8.43004 23.0601 7.67004 24.0001 7.67004C24.9401 7.67004 25.7001 8.43004 25.7001 9.37004V34.52L36.3001 23.92C36.6201 23.6 37.0501 23.42 37.5001 23.42C37.9501 23.42 38.3801 23.6 38.7001 23.92C39.3601 24.58 39.3601 25.66 38.7001 26.33L25.2001 39.83C24.8801 40.15 24.4501 40.33 24.0001 40.33V40.32Z" fill="#1F2024"/>
</svg>
