<svg width="48" height="48" viewBox="0 0 48 48" fill="none" xmlns="http://www.w3.org/2000/svg">
<path d="M24.0085 35C23.8485 35 23.4585 35 23.0385 34.76C22.7085 34.61 22.4785 34.39 22.3585 34.27L22.2785 34.18L9.13853 18.84C8.58853 18.15 8.46853 17.24 8.84853 16.46C9.21853 15.68 10.0085 15.2 10.9085 15.2H37.1085C38.0185 15.2 38.8385 15.76 39.1985 16.63C39.5285 17.42 39.3785 18.31 38.8285 18.9L25.6785 34.25C25.5285 34.4 25.3785 34.5 25.2585 34.57L24.9385 34.9H24.5885C24.4385 34.95 24.2485 35 24.0185 35H24.0085ZM12.5385 18.2L24.0085 31.59L35.4785 18.2H12.5385Z" fill="#1F2024"/>
</svg>
