<svg width="48" height="48" viewBox="0 0 48 48" fill="none" xmlns="http://www.w3.org/2000/svg">
<path d="M22.8727 39.1949C22.4227 39.1949 21.9927 39.0149 21.6727 38.6949L8.17273 25.1949C7.51273 24.5349 7.51273 23.4549 8.17273 22.7849L21.6727 9.29492C21.9927 8.97492 22.4227 8.79492 22.8727 8.79492C23.3227 8.79492 23.7527 8.97492 24.0727 9.29492C24.7327 9.95492 24.7327 11.0349 24.0727 11.7049L13.4727 22.2949H38.6227C39.5627 22.2949 40.3227 23.0549 40.3227 23.9949C40.3227 24.9349 39.5627 25.6949 38.6227 25.6949H13.4727L24.0727 36.2949C24.7327 36.9549 24.7327 38.0349 24.0727 38.7049C23.7527 39.0249 23.3227 39.2049 22.8727 39.2049V39.1949Z" fill="#1F2024"/>
</svg>
