<svg width="48" height="48" viewBox="0 0 48 48" fill="none" xmlns="http://www.w3.org/2000/svg">
<path d="M23.9999 40.3251C23.0599 40.3251 22.2999 39.565 22.2999 38.625V13.475L11.6999 24.075C11.3799 24.395 10.9499 24.575 10.4999 24.575C10.0499 24.575 9.61993 24.395 9.29993 24.075C8.63993 23.415 8.63993 22.335 9.29993 21.665L22.7999 8.17505C23.1199 7.85505 23.5499 7.67505 23.9999 7.67505C24.4499 7.67505 24.8799 7.85505 25.1999 8.17505L38.6999 21.675C39.3599 22.335 39.3599 23.415 38.6999 24.085C38.3799 24.405 37.9499 24.585 37.4999 24.585C37.0499 24.585 36.6199 24.405 36.2999 24.085L25.6999 13.475V38.625C25.6999 39.565 24.9399 40.3251 23.9999 40.3251Z" fill="#1F2024"/>
</svg>
