<svg width="49" height="48" viewBox="0 0 49 48" fill="none" xmlns="http://www.w3.org/2000/svg">
<path d="M24.3806 34.8C24.2206 34.8 23.8206 34.8 23.4006 34.56C23.0606 34.41 22.8406 34.18 22.7206 34.06L22.6406 33.98L9.5106 18.64C8.9606 17.95 8.8406 17.04 9.2206 16.26C9.5906 15.48 10.3806 15 11.2806 15H37.4806C38.3906 15 39.2106 15.56 39.5706 16.43C39.9006 17.22 39.7506 18.11 39.2006 18.7L26.0506 34.05C25.9006 34.2 25.7406 34.31 25.6306 34.37L25.3106 34.69H24.9606C24.8106 34.74 24.6206 34.79 24.3906 34.79L24.3806 34.8ZM12.9106 18L24.3806 31.39L35.8506 18H12.9106Z" fill="#1F2024"/>
</svg>
