<svg width="48" height="48" viewBox="0 0 48 48" fill="none" xmlns="http://www.w3.org/2000/svg">
<path d="M25.125 38.7C24.805 38.7 24.505 38.58 24.275 38.35C24.045 38.12 23.925 37.82 23.925 37.5C23.925 37.18 24.045 36.88 24.275 36.65L35.725 25.2H9.37505C8.71505 25.2 8.17505 24.66 8.17505 24C8.17505 23.34 8.71505 22.8 9.37505 22.8H35.725L24.275 11.35C24.045 11.12 23.925 10.82 23.925 10.5C23.925 10.18 24.045 9.87999 24.275 9.64999C24.505 9.41999 24.805 9.29999 25.125 9.29999C25.445 9.29999 25.745 9.41999 25.975 9.64999L39.475 23.15C39.705 23.38 39.825 23.68 39.825 24C39.825 24.32 39.705 24.62 39.475 24.85L25.975 38.35C25.745 38.58 25.445 38.7 25.125 38.7V38.7Z" fill="#1F2024"/>
</svg>
