<svg width="48" height="48" viewBox="0 0 48 48" fill="none" xmlns="http://www.w3.org/2000/svg">
<path d="M24.0086 34.9456C23.851 34.9456 23.4571 34.9456 23.0435 34.7046C22.7087 34.554 22.4921 34.323 22.3739 34.2025L22.2952 34.1222L9.3656 18.718C8.824 18.0251 8.70583 17.1113 9.08003 16.328C9.44438 15.5448 10.2223 15.0627 11.1086 15.0627H36.9086C37.8047 15.0627 38.6122 15.6251 38.9667 16.4987C39.2916 17.292 39.1439 18.1858 38.6023 18.7782L25.6531 34.1925C25.5054 34.3431 25.3478 34.4535 25.2395 34.5138L24.9244 34.8351H24.5797C24.432 34.8853 24.2449 34.9355 24.0184 34.9355L24.0086 34.9456ZM12.7137 18.0753L24.0086 31.5213L35.3035 18.0753H12.7137Z" fill="#1F2024"/>
</svg>
