<svg width="48" height="48" viewBox="0 0 48 48" fill="none" xmlns="http://www.w3.org/2000/svg">
<path d="M37.0964 32.89H10.8964C9.98637 32.89 9.16637 32.33 8.80637 31.46C8.47637 30.67 8.62637 29.78 9.17637 29.19L22.3264 13.84C22.4764 13.69 22.6364 13.58 22.7464 13.52L23.0664 13.2H23.4164C23.5664 13.15 23.7564 13.1 23.9864 13.1C24.1464 13.1 24.5464 13.1 24.9664 13.34C25.3064 13.49 25.5264 13.72 25.6464 13.84L25.7264 13.92L38.8564 29.26C39.4064 29.95 39.5264 30.86 39.1464 31.64C38.7764 32.42 37.9864 32.9 37.0864 32.9L37.0964 32.89ZM12.5264 29.89H35.4664L23.9964 16.5L12.5264 29.89Z" fill="#1F2024"/>
</svg>
