<svg width="48" height="48" viewBox="0 0 48 48" fill="none" xmlns="http://www.w3.org/2000/svg">
<path d="M24.0001 40.3251C23.0601 40.3251 22.3001 39.565 22.3001 38.625V13.475L11.7001 24.075C11.3801 24.395 10.9501 24.575 10.5001 24.575C10.0501 24.575 9.62005 24.395 9.30005 24.075C8.64005 23.415 8.64005 22.335 9.30005 21.665L22.8001 8.17505C23.1201 7.85505 23.5501 7.67505 24.0001 7.67505C24.4501 7.67505 24.8801 7.85505 25.2001 8.17505L38.7001 21.675C39.3601 22.335 39.3601 23.415 38.7001 24.085C38.3801 24.405 37.9501 24.585 37.5001 24.585C37.0501 24.585 36.6201 24.405 36.3001 24.085L25.7001 13.475V38.625C25.7001 39.565 24.9401 40.3251 24.0001 40.3251Z" fill="#1F2024"/>
</svg>
