<svg width="48" height="48" viewBox="0 0 48 48" fill="none" xmlns="http://www.w3.org/2000/svg">
<path d="M12.811 33.5996C12.5847 33.3733 12.4574 33.0763 12.4574 32.7511L12.4574 13.6592C12.4574 12.9945 12.9948 12.4571 13.6595 12.4571L32.7514 12.4571C33.0767 12.4571 33.3736 12.5844 33.5999 12.8107C33.8262 13.0369 33.9535 13.3339 33.9535 13.6592C33.9535 14.3239 33.4161 14.8613 32.7514 14.8613L16.5586 14.8613L35.1909 33.4935C35.6576 33.9602 35.6576 34.7239 35.1909 35.1906C34.7242 35.6573 33.9605 35.6573 33.4938 35.1906L14.8616 16.5583L14.8616 32.7511C14.8616 33.4158 14.3242 33.9532 13.6595 33.9532C13.3342 33.9532 13.0372 33.8259 12.811 33.5996Z" fill="#1F2024"/>
</svg>
