<svg width="48" height="48" viewBox="0 0 48 48" fill="none" xmlns="http://www.w3.org/2000/svg">
<path d="M37.0854 32.2H10.8854C10.0954 32.2 9.38543 31.71 9.07543 30.95C8.77543 30.23 8.91543 29.47 9.43543 28.95L22.4754 13.72C22.6654 13.52 22.8254 13.42 22.9254 13.37L23.1954 13.1H23.4754C23.6054 13.05 23.7854 13 23.9954 13C24.1254 13 24.4654 13 24.8254 13.21C25.1254 13.33 25.3254 13.54 25.4454 13.66L38.6354 29.06C39.1154 29.66 39.2154 30.45 38.8954 31.12C38.5754 31.79 37.8854 32.21 37.1054 32.21L37.0854 32.2ZM11.2354 30.53L11.1954 30.58C11.1954 30.58 11.2254 30.55 11.2354 30.53ZM11.8654 29.8H36.1054L23.9854 15.64L11.8654 29.8V29.8Z" fill="#1F2024"/>
</svg>
