<svg width="48" height="48" viewBox="0 0 48 48" fill="none" xmlns="http://www.w3.org/2000/svg">
<path d="M24.0064 35C23.8764 35 23.5364 35 23.1764 34.79C22.8864 34.67 22.6864 34.47 22.5664 34.35L22.4964 34.27L9.36638 18.95C8.88638 18.35 8.79638 17.56 9.11638 16.89C9.43638 16.22 10.1264 15.8 10.9064 15.8H37.1064C37.8964 15.8 38.6064 16.29 38.9164 17.05C39.2164 17.77 39.0764 18.53 38.5564 19.05L25.5164 34.28C25.3264 34.48 25.1764 34.58 25.0664 34.63L24.7964 34.9H24.5164C24.3864 34.95 24.2064 35 23.9964 35H24.0064ZM11.8864 18.2L24.0064 32.36L36.1264 18.2H11.8864ZM36.7964 17.42C36.7964 17.42 36.7664 17.45 36.7564 17.47L36.7964 17.42Z" fill="#1F2024"/>
</svg>
