<svg width="48" height="48" viewBox="0 0 48 48" fill="none" xmlns="http://www.w3.org/2000/svg">
<path d="M37.0884 33.2H10.8884C9.8984 33.2 9.0084 32.59 8.6184 31.64C8.2584 30.78 8.4184 29.81 9.0284 29.16L22.1884 13.79C22.3484 13.63 22.4984 13.53 22.6184 13.46L22.9784 13.1H23.3784C23.5384 13.05 23.7484 13 23.9784 13C24.3784 13 24.7384 13.09 25.0484 13.26C25.4184 13.43 25.6684 13.68 25.7884 13.8L25.8784 13.89L39.0184 29.23C39.6184 29.98 39.7384 30.97 39.3384 31.82C38.9284 32.67 38.0684 33.19 37.0984 33.19L37.0884 33.2ZM12.9584 29.8H35.0184L23.9884 16.91L12.9584 29.8V29.8Z" fill="#1F2024"/>
</svg>
