<svg width="48" height="48" viewBox="0 0 48 48" fill="none" xmlns="http://www.w3.org/2000/svg">
<path d="M23.9999 39.8248C23.3399 39.8248 22.7999 39.2848 22.7999 38.6248V12.2748L11.3499 23.7248C11.1199 23.9548 10.8199 24.0748 10.4999 24.0748C10.1799 24.0748 9.87986 23.9548 9.64986 23.7248C9.17986 23.2548 9.17986 22.4948 9.64986 22.0248L23.1499 8.5248C23.3799 8.2948 23.6799 8.1748 23.9999 8.1748C24.3199 8.1748 24.6199 8.2948 24.8499 8.5248L38.3499 22.0248C38.8199 22.4948 38.8199 23.2548 38.3499 23.7248C38.1199 23.9548 37.8199 24.0748 37.4999 24.0748C37.1799 24.0748 36.8799 23.9548 36.6499 23.7248L25.1999 12.2748V38.6248C25.1999 39.2848 24.6599 39.8248 23.9999 39.8248V39.8248Z" fill="#1F2024"/>
</svg>
