<svg width="48" height="48" viewBox="0 0 48 48" fill="none" xmlns="http://www.w3.org/2000/svg">
<path d="M24 39.825C23.68 39.825 23.38 39.705 23.15 39.475L9.64999 25.975C9.17999 25.505 9.17999 24.745 9.64999 24.275C9.87999 24.045 10.18 23.925 10.5 23.925C10.82 23.925 11.12 24.045 11.35 24.275L22.8 35.725V9.37499C22.8 8.71499 23.34 8.17499 24 8.17499C24.66 8.17499 25.2 8.71499 25.2 9.37499V35.725L36.65 24.275C36.88 24.045 37.18 23.925 37.5 23.925C37.82 23.925 38.12 24.045 38.35 24.275C38.82 24.745 38.82 25.505 38.35 25.975L24.85 39.475C24.62 39.705 24.32 39.825 24 39.825V39.825Z" fill="#1F2024"/>
</svg>
