<svg width="48" height="48" viewBox="0 0 48 48" fill="none" xmlns="http://www.w3.org/2000/svg">
<path d="M23.9999 40.32C23.5499 40.32 23.1199 40.14 22.7999 39.82L9.29993 26.32C8.63993 25.66 8.63993 24.58 9.29993 23.91C9.61993 23.59 10.0499 23.41 10.4999 23.41C10.9499 23.41 11.3799 23.59 11.6999 23.91L22.2999 34.51V9.37004C22.2999 8.43004 23.0599 7.67004 23.9999 7.67004C24.9399 7.67004 25.6999 8.43004 25.6999 9.37004V34.52L36.2999 23.92C36.6199 23.6 37.0499 23.42 37.4999 23.42C37.9499 23.42 38.3799 23.6 38.6999 23.92C39.3599 24.58 39.3599 25.66 38.6999 26.33L25.1999 39.83C24.8799 40.15 24.4499 40.33 23.9999 40.33V40.32Z" fill="#1F2024"/>
</svg>
