<svg width="48" height="48" viewBox="0 0 48 48" fill="none" xmlns="http://www.w3.org/2000/svg">
<path d="M22.8763 38.7C22.5563 38.7 22.2563 38.58 22.0263 38.35L8.52627 24.85C8.05627 24.38 8.05627 23.62 8.52627 23.15L22.0263 9.64999C22.2563 9.41999 22.5563 9.29999 22.8763 9.29999C23.1963 9.29999 23.4963 9.41999 23.7263 9.64999C24.1963 10.12 24.1963 10.88 23.7263 11.35L12.2763 22.8H38.6263C39.2863 22.8 39.8263 23.34 39.8263 24C39.8263 24.66 39.2863 25.2 38.6263 25.2H12.2763L23.7263 36.65C24.1963 37.12 24.1963 37.88 23.7263 38.35C23.4963 38.58 23.1963 38.7 22.8763 38.7Z" fill="#1F2024"/>
</svg>
