<svg width="48" height="48" viewBox="0 0 48 48" fill="none" xmlns="http://www.w3.org/2000/svg">
<path d="M25.1248 38.6998C24.8048 38.6998 24.5048 38.5798 24.2748 38.3498C24.0448 38.1198 23.9248 37.8198 23.9248 37.4998C23.9248 37.1798 24.0448 36.8798 24.2748 36.6498L35.7248 25.1998H9.3748C8.7148 25.1998 8.1748 24.6598 8.1748 23.9998C8.1748 23.3398 8.7148 22.7998 9.3748 22.7998H35.7248L24.2748 11.3498C24.0448 11.1198 23.9248 10.8198 23.9248 10.4998C23.9248 10.1798 24.0448 9.8798 24.2748 9.6498C24.5048 9.4198 24.8048 9.2998 25.1248 9.2998C25.4448 9.2998 25.7448 9.4198 25.9748 9.6498L39.4748 23.1498C39.7048 23.3798 39.8248 23.6798 39.8248 23.9998C39.8248 24.3198 39.7048 24.6198 39.4748 24.8498L25.9748 38.3498C25.7448 38.5798 25.4448 38.6998 25.1248 38.6998V38.6998Z" fill="#1F2024"/>
</svg>
