<svg width="48" height="48" viewBox="0 0 48 48" fill="none" xmlns="http://www.w3.org/2000/svg">
<path d="M12.4583 33.9472C12.1401 33.629 11.9633 33.1977 11.9633 32.7451L11.9633 13.6532C11.9633 12.7199 12.727 11.9562 13.6674 11.9491L32.7522 11.9562C33.2048 11.9562 33.6361 12.133 33.9543 12.4512C34.2725 12.7694 34.4493 13.2007 34.4493 13.6532C34.4493 14.5866 33.6856 15.3503 32.7452 15.3574L17.7616 15.3503L35.5453 33.134C36.21 33.7987 36.21 34.8735 35.5453 35.5382C34.8806 36.2029 33.8058 36.2029 33.1412 35.5382L15.3574 17.7545V32.7451C15.3574 33.6785 14.5937 34.4422 13.6533 34.4492C13.2007 34.4492 12.7694 34.2725 12.4512 33.9543L12.4583 33.9472Z" fill="#1F2024"/>
</svg>
