<svg width="48" height="48" viewBox="0 0 48 48" fill="none" xmlns="http://www.w3.org/2000/svg">
<path d="M22.8725 39.195C22.4225 39.195 21.9925 39.015 21.6725 38.695L8.17249 25.195C7.51249 24.535 7.51249 23.455 8.17249 22.785L21.6725 9.29504C21.9925 8.97504 22.4225 8.79504 22.8725 8.79504C23.3225 8.79504 23.7525 8.97504 24.0725 9.29504C24.7325 9.95504 24.7325 11.035 24.0725 11.705L13.4725 22.295H38.6225C39.5625 22.295 40.3225 23.055 40.3225 23.995C40.3225 24.935 39.5625 25.695 38.6225 25.695H13.4725L24.0725 36.295C24.7325 36.955 24.7325 38.035 24.0725 38.705C23.7525 39.025 23.3225 39.205 22.8725 39.205V39.195Z" fill="#1F2024"/>
</svg>
