<svg width="48" height="48" viewBox="0 0 48 48" fill="none" xmlns="http://www.w3.org/2000/svg">
<path d="M24.0105 35C23.6105 35 23.2505 34.91 22.9405 34.73C22.5805 34.57 22.3405 34.33 22.2205 34.21L22.1205 34.1L8.98054 18.76C8.38054 18.01 8.26054 17.02 8.67054 16.17C9.07054 15.33 9.93054 14.8 10.9105 14.8H37.1105C38.1005 14.8 38.9905 15.41 39.3805 16.36C39.7405 17.22 39.5805 18.19 38.9705 18.84L25.8105 34.2C25.6505 34.36 25.5005 34.46 25.3805 34.53L25.0205 34.9H24.6205C24.4605 34.95 24.2505 35 24.0205 35H24.0105ZM12.9805 18.2L24.0105 31.09L35.0405 18.2H12.9805Z" fill="#1F2024"/>
</svg>
