<svg width="48" height="48" viewBox="0 0 48 48" fill="none" xmlns="http://www.w3.org/2000/svg">
<path d="M24.0002 40.3199C23.5502 40.3199 23.1202 40.1399 22.8002 39.8199L9.30018 26.3199C8.64018 25.6599 8.64018 24.5799 9.30018 23.9099C9.62018 23.5899 10.0502 23.4099 10.5002 23.4099C10.9502 23.4099 11.3802 23.5899 11.7002 23.9099L22.3002 34.5099V9.36992C22.3002 8.42992 23.0602 7.66992 24.0002 7.66992C24.9402 7.66992 25.7002 8.42992 25.7002 9.36992V34.5199L36.3002 23.9199C36.6202 23.5999 37.0502 23.4199 37.5002 23.4199C37.9502 23.4199 38.3802 23.5999 38.7002 23.9199C39.3602 24.5799 39.3602 25.6599 38.7002 26.3299L25.2002 39.8299C24.8802 40.1499 24.4502 40.3299 24.0002 40.3299V40.3199Z" fill="#1F2024"/>
</svg>
