<svg width="48" height="48" viewBox="0 0 48 48" fill="none" xmlns="http://www.w3.org/2000/svg">
<path d="M24 39.825C23.34 39.825 22.8 39.285 22.8 38.625V12.275L11.35 23.725C11.12 23.955 10.82 24.075 10.5 24.075C10.18 24.075 9.87999 23.955 9.64999 23.725C9.17999 23.255 9.17999 22.495 9.64999 22.025L23.15 8.52499C23.38 8.29499 23.68 8.17499 24 8.17499C24.32 8.17499 24.62 8.29499 24.85 8.52499L38.35 22.025C38.82 22.495 38.82 23.255 38.35 23.725C38.12 23.955 37.82 24.075 37.5 24.075C37.18 24.075 36.88 23.955 36.65 23.725L25.2 12.275V38.625C25.2 39.285 24.66 39.825 24 39.825V39.825Z" fill="#1F2024"/>
</svg>
