<svg width="48" height="48" viewBox="0 0 48 48" fill="none" xmlns="http://www.w3.org/2000/svg">
<path d="M24.0002 40.3248C23.0602 40.3248 22.3002 39.5648 22.3002 38.6248V13.4748L11.7002 24.0748C11.3802 24.3948 10.9502 24.5748 10.5002 24.5748C10.0502 24.5748 9.62018 24.3948 9.30018 24.0748C8.64018 23.4148 8.64018 22.3348 9.30018 21.6648L22.8002 8.1748C23.1202 7.8548 23.5502 7.6748 24.0002 7.6748C24.4502 7.6748 24.8802 7.8548 25.2002 8.1748L38.7002 21.6748C39.3602 22.3348 39.3602 23.4148 38.7002 24.0848C38.3802 24.4048 37.9502 24.5848 37.5002 24.5848C37.0502 24.5848 36.6202 24.4048 36.3002 24.0848L25.7002 13.4748V38.6248C25.7002 39.5648 24.9402 40.3248 24.0002 40.3248Z" fill="#1F2024"/>
</svg>
