<svg width="48" height="48" viewBox="0 0 48 48" fill="none" xmlns="http://www.w3.org/2000/svg">
<path d="M24.0104 35C23.6104 35 23.2504 34.91 22.9404 34.73C22.5804 34.57 22.3404 34.33 22.2204 34.21L22.1204 34.1L8.98042 18.76C8.38042 18.01 8.26042 17.02 8.67042 16.17C9.07042 15.33 9.93042 14.8 10.9104 14.8H37.1104C38.1004 14.8 38.9904 15.41 39.3804 16.36C39.7404 17.22 39.5804 18.19 38.9704 18.84L25.8104 34.2C25.6504 34.36 25.5004 34.46 25.3804 34.53L25.0204 34.9H24.6204C24.4604 34.95 24.2504 35 24.0204 35H24.0104ZM12.9804 18.2L24.0104 31.09L35.0404 18.2H12.9804Z" fill="#1F2024"/>
</svg>
