<svg width="48" height="48" viewBox="0 0 48 48" fill="none" xmlns="http://www.w3.org/2000/svg">
<path d="M25.1248 39.1998C24.6748 39.1998 24.2448 39.0198 23.9248 38.6998C23.6048 38.3798 23.4248 37.9498 23.4248 37.4998C23.4248 37.0498 23.6048 36.6198 23.9248 36.2998L34.5248 25.6998H9.3748C8.4348 25.6998 7.6748 24.9398 7.6748 23.9998C7.6748 23.0598 8.4348 22.2998 9.3748 22.2998H34.5248L23.9248 11.6998C23.6048 11.3798 23.4248 10.9498 23.4248 10.4998C23.4248 10.0498 23.6048 9.6198 23.9248 9.2998C24.2448 8.9798 24.6748 8.7998 25.1248 8.7998C25.5748 8.7998 26.0048 8.9798 26.3248 9.2998L39.8248 22.7998C40.1448 23.1198 40.3248 23.5498 40.3248 23.9998C40.3248 24.4498 40.1448 24.8798 39.8248 25.1998L26.3248 38.6998C26.0048 39.0198 25.5748 39.1998 25.1248 39.1998Z" fill="#1F2024"/>
</svg>
