<svg width="49" height="48" viewBox="0 0 49 48" fill="none" xmlns="http://www.w3.org/2000/svg">
<path d="M37.8337 32.9001H11.6337C10.7237 32.9001 9.90367 32.3401 9.54367 31.4701C9.21367 30.6801 9.36367 29.7901 9.91367 29.2001L23.0737 13.8401C23.2237 13.6901 23.3837 13.5801 23.4937 13.5201L23.8237 13.2001H24.1737C24.3237 13.1501 24.5137 13.1001 24.7437 13.1001C24.9037 13.1001 25.2937 13.1001 25.7137 13.3401C26.0437 13.4901 26.2737 13.7101 26.3937 13.8301L26.4737 13.9201L39.6037 29.2601C40.1537 29.9501 40.2637 30.8601 39.8937 31.6401C39.5237 32.4201 38.7337 32.9001 37.8337 32.9001V32.9001ZM13.2637 29.9001H36.2037L24.7337 16.5101L13.2637 29.9001Z" fill="#1F2024"/>
</svg>
