<svg width="48" height="48" viewBox="0 0 48 48" fill="none" xmlns="http://www.w3.org/2000/svg">
<path d="M22.8762 38.7C22.5562 38.7 22.2562 38.58 22.0262 38.35L8.52621 24.85C8.05621 24.38 8.05621 23.62 8.52621 23.15L22.0262 9.64999C22.2562 9.41999 22.5562 9.29999 22.8762 9.29999C23.1962 9.29999 23.4962 9.41999 23.7262 9.64999C24.1962 10.12 24.1962 10.88 23.7262 11.35L12.2762 22.8H38.6262C39.2862 22.8 39.8262 23.34 39.8262 24C39.8262 24.66 39.2862 25.2 38.6262 25.2H12.2762L23.7262 36.65C24.1962 37.12 24.1962 37.88 23.7262 38.35C23.4962 38.58 23.1962 38.7 22.8762 38.7Z" fill="#1F2024"/>
</svg>
