<svg width="49" height="48" viewBox="0 0 49 48" fill="none" xmlns="http://www.w3.org/2000/svg">
<path d="M37.8405 32.8901H11.6405C10.7305 32.8901 9.91051 32.3301 9.55051 31.4601C9.22051 30.6701 9.37051 29.7801 9.92051 29.1901L23.0705 13.8401C23.2205 13.6901 23.3805 13.5801 23.4905 13.5201L23.8105 13.2001H24.1605C24.3105 13.1501 24.5005 13.1001 24.7305 13.1001C24.8905 13.1001 25.2905 13.1001 25.7105 13.3401C26.0505 13.4901 26.2705 13.7201 26.3905 13.8401L26.4705 13.9201L39.6005 29.2601C40.1505 29.9501 40.2705 30.8601 39.8905 31.6401C39.5205 32.4201 38.7305 32.9001 37.8305 32.9001L37.8405 32.8901ZM13.2705 29.8901H36.2105L24.7405 16.5001L13.2705 29.8901Z" fill="#1F2024"/>
</svg>
