<svg width="48" height="49" viewBox="0 0 48 49" fill="none" xmlns="http://www.w3.org/2000/svg">
<path d="M24.0061 35.7001C23.8461 35.7001 23.4561 35.7001 23.0361 35.4601C22.7061 35.3101 22.4761 35.0901 22.3561 34.9701L22.2761 34.8801L9.13614 19.5401C8.58614 18.8401 8.47614 17.9301 8.84614 17.1601C9.21614 16.3901 10.0061 15.9001 10.9061 15.9001H37.1061C38.0161 15.9001 38.8361 16.4601 39.1961 17.3301C39.5261 18.1201 39.3761 19.0101 38.8261 19.6001L25.6761 34.9501C25.5261 35.1001 25.3661 35.2101 25.2561 35.2701L24.9261 35.5901H24.5761C24.4261 35.6401 24.2361 35.6901 24.0061 35.6901V35.7001ZM12.5361 18.9001L24.0061 32.2901L35.4761 18.9001H12.5361Z" fill="#1F2024"/>
</svg>
