<svg width="48" height="48" viewBox="0 0 48 48" fill="none" xmlns="http://www.w3.org/2000/svg">
<path d="M24.0001 39.825C23.3401 39.825 22.8001 39.285 22.8001 38.625V12.275L11.3501 23.725C11.1201 23.955 10.8201 24.075 10.5001 24.075C10.1801 24.075 9.88011 23.955 9.65011 23.725C9.18011 23.255 9.18011 22.495 9.65011 22.025L23.1501 8.52499C23.3801 8.29499 23.6801 8.17499 24.0001 8.17499C24.3201 8.17499 24.6201 8.29499 24.8501 8.52499L38.3501 22.025C38.8201 22.495 38.8201 23.255 38.3501 23.725C38.1201 23.955 37.8201 24.075 37.5001 24.075C37.1801 24.075 36.8801 23.955 36.6501 23.725L25.2001 12.275V38.625C25.2001 39.285 24.6601 39.825 24.0001 39.825V39.825Z" fill="#1F2024"/>
</svg>
