<svg width="48" height="48" viewBox="0 0 48 48" fill="none" xmlns="http://www.w3.org/2000/svg">
<path d="M25.125 39.2C24.675 39.2 24.245 39.02 23.925 38.7C23.605 38.38 23.425 37.95 23.425 37.5C23.425 37.05 23.605 36.62 23.925 36.3L34.525 25.7H9.37505C8.43505 25.7 7.67505 24.94 7.67505 24C7.67505 23.06 8.43505 22.3 9.37505 22.3H34.525L23.925 11.7C23.605 11.38 23.425 10.95 23.425 10.5C23.425 10.05 23.605 9.62005 23.925 9.30005C24.245 8.98005 24.675 8.80005 25.125 8.80005C25.575 8.80005 26.005 8.98005 26.325 9.30005L39.8251 22.8C40.1451 23.12 40.3251 23.55 40.3251 24C40.3251 24.45 40.1451 24.88 39.8251 25.2L26.325 38.7C26.005 39.02 25.575 39.2 25.125 39.2Z" fill="#1F2024"/>
</svg>
