<svg width="48" height="48" viewBox="0 0 48 48" fill="none" xmlns="http://www.w3.org/2000/svg">
<path d="M23.9999 39.8248C23.6799 39.8248 23.3799 39.7048 23.1499 39.4748L9.64986 25.9748C9.17986 25.5048 9.17986 24.7448 9.64986 24.2748C9.87986 24.0448 10.1799 23.9248 10.4999 23.9248C10.8199 23.9248 11.1199 24.0448 11.3499 24.2748L22.7999 35.7248V9.3748C22.7999 8.7148 23.3399 8.1748 23.9999 8.1748C24.6599 8.1748 25.1999 8.7148 25.1999 9.3748V35.7248L36.6499 24.2748C36.8799 24.0448 37.1799 23.9248 37.4999 23.9248C37.8199 23.9248 38.1199 24.0448 38.3499 24.2748C38.8199 24.7448 38.8199 25.5048 38.3499 25.9748L24.8499 39.4748C24.6199 39.7048 24.3199 39.8248 23.9999 39.8248V39.8248Z" fill="#1F2024"/>
</svg>
