<svg width="48" height="48" viewBox="0 0 48 48" fill="none" xmlns="http://www.w3.org/2000/svg">
<path d="M36.3098 6.08995C35.2798 5.05995 33.7998 4.44995 32.3498 4.44995H15.6498C14.0398 4.44995 12.5698 5.06995 11.6898 6.08995C10.6198 7.15995 10.0498 8.52995 10.0498 10.05V42.0499C10.0498 42.6399 10.3998 43.18 10.9398 43.42C11.4798 43.66 12.1098 43.57 12.5498 43.17L23.9998 32.98L35.4498 43.17C35.7298 43.42 36.0898 43.5499 36.4498 43.5499C36.6598 43.5499 36.8698 43.51 37.0598 43.42C37.5998 43.18 37.9498 42.6399 37.9498 42.0499V10.05C37.9498 8.43995 37.3298 6.96995 36.3098 6.08995V6.08995ZM34.9498 38.7099L25.6498 30.43C25.6498 30.43 25.5898 30.38 25.5498 30.35C24.6198 29.65 23.3798 29.66 22.4498 30.35C22.4198 30.38 22.3798 30.4 22.3498 30.43L13.0498 38.7099V10.05C13.0498 9.32995 13.3098 8.71995 13.8798 8.13995C14.2598 7.70995 14.9198 7.44995 15.6498 7.44995H32.3498C32.9998 7.44995 33.7298 7.75995 34.2598 8.27995C34.6898 8.65995 34.9498 9.31995 34.9498 10.05V38.7099Z" fill="#1F2024"/>
</svg>
