<svg width="48" height="48" viewBox="0 0 48 48" fill="none" xmlns="http://www.w3.org/2000/svg">
<path d="M36.5 43.5499C36.14 43.5499 35.78 43.4199 35.5 43.1699L24 32.9399L12.5 43.1699C12.06 43.5599 11.43 43.6599 10.89 43.4199C10.35 43.1799 10 42.6399 10 42.0499V10.1099C10 8.61994 10.6 7.15994 11.66 6.09994C12.73 5.02994 14.15 4.43994 15.67 4.43994H32.33C33.84 4.43994 35.27 5.02994 36.34 6.09994C37.39 7.15994 38 8.61994 38 10.1099V42.0599C38 42.6499 37.65 43.1899 37.11 43.4299C36.91 43.5199 36.7 43.5599 36.5 43.5599V43.5499ZM15.67 7.43994C14.97 7.43994 14.28 7.72994 13.78 8.21994C13.28 8.71994 13 9.39994 13 10.1099V38.7099L22.34 30.4099C23.29 29.5699 24.71 29.5699 25.66 30.4099L35 38.7099V10.1099C35 9.40994 34.72 8.71994 34.22 8.21994C33.72 7.71994 33.04 7.43994 32.33 7.43994H15.67Z" fill="#1F2024"/>
</svg>
