<svg width="48" height="48" viewBox="0 0 48 48" fill="none" xmlns="http://www.w3.org/2000/svg">
<path d="M36.31 6.08995C35.28 5.05995 33.8 4.44995 32.35 4.44995H15.65C14.04 4.44995 12.57 5.06995 11.69 6.08995C10.62 7.15995 10.05 8.52995 10.05 10.05V42.0499C10.05 42.6399 10.4 43.18 10.94 43.42C11.48 43.66 12.11 43.57 12.55 43.17L24 32.98L35.45 43.17C35.73 43.42 36.09 43.5499 36.45 43.5499C36.66 43.5499 36.87 43.51 37.06 43.42C37.6 43.18 37.95 42.6399 37.95 42.0499V10.05C37.95 8.43995 37.33 6.96995 36.31 6.08995V6.08995ZM34.95 38.7099L25.65 30.43C25.65 30.43 25.59 30.38 25.55 30.35C24.62 29.65 23.38 29.66 22.45 30.35C22.42 30.38 22.38 30.4 22.35 30.43L13.05 38.7099V10.05C13.05 9.32995 13.31 8.71995 13.88 8.13995C14.26 7.70995 14.92 7.44995 15.65 7.44995H32.35C33 7.44995 33.73 7.75995 34.26 8.27995C34.69 8.65995 34.95 9.31995 34.95 10.05V38.7099Z" fill="#1F2024"/>
</svg>
