<svg width="48" height="48" viewBox="0 0 48 48" fill="none" xmlns="http://www.w3.org/2000/svg">
<path d="M11.0601 43.14C11.4901 43.33 12.0001 43.26 12.3501 42.94L24.0001 32.57L35.6601 42.94C35.8801 43.14 36.1701 43.24 36.4601 43.24C36.6301 43.24 36.7901 43.2 36.9501 43.13C37.3801 42.94 37.6601 42.51 37.6601 42.04V10.05C37.6601 8.53 37.0701 7.14 36.1101 6.3C35.1501 5.34 33.7201 4.75 32.3601 4.75H15.6501C14.1301 4.75 12.7401 5.34 11.9001 6.3C10.8901 7.32 10.3501 8.61 10.3501 10.05V42.05C10.3501 42.52 10.6301 42.95 11.0601 43.14ZM12.7501 10.05C12.7501 9.25 13.0401 8.56 13.6501 7.94C14.0801 7.45 14.8301 7.15 15.6501 7.15H32.3501C33.0801 7.15 33.8901 7.48 34.4601 8.05C34.9501 8.48 35.2501 9.23 35.2501 10.05V39.38L25.4501 30.66C25.4501 30.66 25.4001 30.62 25.3701 30.6C24.9501 30.29 24.4801 30.13 24.0001 30.13C23.5201 30.13 23.0501 30.29 22.6301 30.6C22.6001 30.62 22.5801 30.64 22.5501 30.66L12.7501 39.38V10.05Z" fill="#1F2024"/>
</svg>
