<svg width="48" height="48" viewBox="0 0 48 48" fill="none" xmlns="http://www.w3.org/2000/svg">
<path d="M36.5 43.55C36.14 43.55 35.78 43.42 35.5 43.17L24 32.94L12.5 43.17C12.06 43.56 11.43 43.66 10.89 43.42C10.35 43.18 10 42.64 10 42.05V10.11C10 8.62 10.6 7.16 11.66 6.1C12.73 5.03 14.15 4.44 15.67 4.44H32.33C33.84 4.44 35.27 5.03 36.34 6.1C37.39 7.16 38 8.62 38 10.11V42.06C38 42.65 37.65 43.19 37.11 43.43C36.91 43.52 36.7 43.56 36.5 43.56V43.55ZM15.67 7.44C14.97 7.44 14.28 7.73 13.78 8.22C13.28 8.72 13 9.4 13 10.11V38.71L22.34 30.41C23.29 29.57 24.71 29.57 25.66 30.41L35 38.71V10.11C35 9.41 34.72 8.72 34.22 8.22C33.72 7.72 33.04 7.44 32.33 7.44H15.67Z" fill="#1F2024"/>
</svg>
