<svg width="48" height="48" viewBox="0 0 48 48" fill="none" xmlns="http://www.w3.org/2000/svg">
<path d="M22.2049 33.405C21.8849 33.405 21.5749 33.275 21.3449 33.045L16.3449 28.045C15.8749 27.575 15.8749 26.795 16.3449 26.325C16.5749 26.095 16.8849 25.965 17.2049 25.965C17.5249 25.965 17.8349 26.095 18.0649 26.325L22.1849 30.445L30.9249 21.345C31.1549 21.105 31.4649 20.975 31.8049 20.975C32.1249 20.975 32.4149 21.095 32.6449 21.315C32.8749 21.545 33.0149 21.845 33.0149 22.165C33.0149 22.485 32.9049 22.795 32.6749 23.035L23.0749 33.035C22.8549 33.265 22.5349 33.405 22.2149 33.405H22.2049Z" fill="#1F2024"/>
<path d="M13.0949 44.715C8.51491 44.715 4.78491 40.985 4.78491 36.405V14.595C4.78491 10.325 7.98491 6.76503 12.2349 6.32503L12.4849 6.29503V4.50503C12.4849 3.83503 13.0349 3.28503 13.7049 3.28503C14.3749 3.28503 14.9249 3.83503 14.9249 4.50503V6.28503H33.7449V4.50503C33.7449 3.83503 34.2949 3.28503 34.9649 3.28503C35.6349 3.28503 36.1849 3.83503 36.1849 4.50503V6.38503L36.4149 6.42503C40.3549 7.14503 43.2149 10.585 43.2149 14.585V36.405C43.2149 40.985 39.4849 44.715 34.9049 44.715H13.0949ZM7.22491 36.405C7.22491 39.645 9.85491 42.275 13.0949 42.275H34.9149C38.1549 42.275 40.7849 39.645 40.7849 36.405V17.805H7.21491V36.415L7.22491 36.405ZM13.0949 8.71503C9.85491 8.71503 7.22491 11.345 7.22491 14.585V15.365H40.7849V14.585C40.7849 11.345 38.1549 8.71503 34.9149 8.71503H13.0949Z" fill="#1F2024"/>
</svg>
