<svg width="48" height="48" viewBox="0 0 48 48" fill="none" xmlns="http://www.w3.org/2000/svg">
<path d="M36.46 6.15V4.5C36.46 3.67 35.79 3 34.96 3C34.13 3 33.46 3.67 33.46 4.5V6H15.2V4.5C15.2 3.67 14.53 3 13.7 3C12.87 3 12.2 3.67 12.2 4.5V6.05C7.88 6.49 4.5 10.15 4.5 14.59V15.09H43.5V14.59C43.5 10.38 40.46 6.88 36.46 6.15Z" fill="#1F2024"/>
<path d="M4.5 36.41C4.5 41.15 8.35 45 13.09 45H34.91C39.65 45 43.5 41.15 43.5 36.41V17.77H4.5V36.41ZM16.14 26.12C16.73 25.53 17.68 25.53 18.26 26.12L22.18 30.04L30.72 21.14C31.29 20.54 32.24 20.52 32.84 21.1C33.44 21.67 33.46 22.62 32.88 23.22L23.28 33.22C23 33.51 22.62 33.68 22.21 33.68H22.19C21.79 33.68 21.41 33.52 21.13 33.24L16.13 28.24C15.54 27.65 15.54 26.7 16.13 26.12H16.14Z" fill="#1F2024"/>
</svg>
