<svg width="48" height="48" viewBox="0 0 48 48" fill="none" xmlns="http://www.w3.org/2000/svg">
<g clip-path="url(#clip0_167_33681)">
<path d="M22.1949 33.965C21.7249 33.965 21.2649 33.775 20.9349 33.445L15.9349 28.445C15.2349 27.745 15.2349 26.615 15.9349 25.925C16.2749 25.585 16.7149 25.405 17.1949 25.405C17.6749 25.405 18.1149 25.595 18.4549 25.925L22.1649 29.635L30.5049 20.945C30.8449 20.595 31.3049 20.395 31.7949 20.395C32.2549 20.395 32.6949 20.575 33.0349 20.895C33.3749 21.225 33.5749 21.665 33.5849 22.145C33.5949 22.625 33.4149 23.075 33.0849 23.415L23.4849 33.415C23.1549 33.755 22.6949 33.955 22.2149 33.965H22.1949V33.965Z" fill="#1F2024"/>
<path d="M13.085 45.285C8.19497 45.285 4.21497 41.305 4.21497 36.415V14.585C4.21497 10.115 7.50497 6.37497 11.915 5.79497V4.49497C11.915 3.51497 12.715 2.71497 13.695 2.71497C14.675 2.71497 15.475 3.51497 15.475 4.49497V5.71497H33.175V4.49497C33.175 3.51497 33.975 2.71497 34.955 2.71497C35.935 2.71497 36.735 3.51497 36.735 4.49497V5.91497C40.825 6.77497 43.775 10.395 43.775 14.585V36.405C43.775 41.295 39.795 45.275 34.905 45.275H13.085V45.285ZM7.77497 36.415C7.77497 39.345 10.155 41.725 13.085 41.725H34.905C37.835 41.725 40.215 39.345 40.215 36.415V18.365H7.78497V36.405L7.77497 36.415ZM40.215 14.805V14.595C40.215 11.665 37.835 9.28497 34.905 9.28497H13.085C10.155 9.28497 7.77497 11.665 7.77497 14.595V14.805H40.215Z" fill="#1F2024"/>
</g>
<defs>
<clipPath id="clip0_167_33681">
<rect width="39.57" height="42.57" fill="white" transform="translate(4.21497 2.71497)"/>
</clipPath>
</defs>
</svg>
