<svg width="48" height="48" viewBox="0 0 48 48" fill="none" xmlns="http://www.w3.org/2000/svg">
<path d="M9.3998 44.7001H38.5998C41.6998 44.7001 44.1998 42.1 44.1998 39V12C44.1998 8.90005 41.6998 6.30005 38.5998 6.30005H35.6998V4.50005C35.6998 3.80005 35.1998 3.30005 34.4998 3.30005C33.7998 3.30005 33.2998 3.80005 33.2998 4.50005V6.30005H13.6998V4.50005C13.6998 3.80005 13.1998 3.30005 12.4998 3.30005C11.7998 3.30005 11.2998 3.80005 11.2998 4.50005V6.30005H9.3998C6.2998 6.30005 3.7998 8.90005 3.7998 12V39C3.7998 42.1 6.2998 44.7001 9.3998 44.7001ZM38.5998 42.3H9.3998C7.5998 42.3 6.1998 40.8 6.1998 39V16.2H41.7998V39C41.7998 40.8 40.3998 42.3 38.5998 42.3ZM9.3998 8.70005H38.5998C40.3998 8.70005 41.7998 10.2 41.7998 12V13.8H6.1998V12C6.1998 10.2 7.5998 8.70005 9.3998 8.70005Z" fill="#1F2024"/>
<path d="M31.0998 21.1L22.4998 30.1L18.4998 26.1C17.9998 25.6 17.0998 25.6 16.5998 26.1C16.0998 26.6 16.0998 27.5 16.5998 28L21.5998 33C21.8998 33.3 22.1998 33.4 22.5998 33.4C22.9998 33.4 23.2998 33.2 23.5998 33L33.1998 23C33.6998 22.5 33.6998 21.6 33.1998 21.1C32.4998 20.5 31.5998 20.5 31.0998 21.1Z" fill="#1F2024"/>
</svg>
