<svg width="48" height="48" viewBox="0 0 48 48" fill="none" xmlns="http://www.w3.org/2000/svg">
<path d="M38.5998 5.80005H36.1998V4.50005C36.1998 3.60005 35.3998 2.80005 34.4998 2.80005C33.5998 2.80005 32.7998 3.60005 32.7998 4.50005V5.80005H14.1998V4.50005C14.1998 3.60005 13.3998 2.80005 12.4998 2.80005C11.5998 2.80005 10.7998 3.60005 10.7998 4.50005V5.80005H9.3998C5.9998 5.80005 3.2998 8.60005 3.2998 12V39C3.2998 42.4 5.9998 45.2001 9.3998 45.2001H38.5998C41.9998 45.2001 44.6998 42.4 44.6998 39V12C44.6998 8.60005 41.9998 5.80005 38.5998 5.80005ZM9.3998 9.20005H38.5998C40.0998 9.20005 41.2998 10.5 41.2998 12V13.3H6.6998V12C6.6998 10.5 7.8998 9.20005 9.3998 9.20005ZM38.5998 41.8H9.3998C7.8998 41.8 6.6998 40.5 6.6998 39V16.7H41.2998V39C41.2998 40.5 40.0998 41.8 38.5998 41.8Z" fill="#1F2024"/>
<path d="M30.8998 20.9L22.3998 29.7001L18.5998 25.9001C17.9998 25.3001 16.9998 25.3001 16.2998 25.9001C15.6998 26.5001 15.6998 27.5001 16.2998 28.2001L21.2998 33.2001C21.5998 33.5001 21.9998 33.7001 22.3998 33.7001C22.7998 33.7001 23.1998 33.5001 23.4998 33.2001L33.0998 23.2C33.6998 22.6 33.6998 21.5 33.0998 20.9C32.5998 20.2 31.5998 20.3 30.8998 20.9Z" fill="#1F2024"/>
</svg>
