<svg width="48" height="48" viewBox="0 0 48 48" fill="none" xmlns="http://www.w3.org/2000/svg">
<path d="M30.72 21.14L22.18 30.04L18.26 26.12C17.67 25.53 16.72 25.53 16.14 26.12C15.56 26.71 15.55 27.66 16.14 28.24L21.14 33.24C21.42 33.52 21.8 33.68 22.2 33.68H22.22C22.62 33.68 23.01 33.51 23.29 33.22L32.89 23.22C33.46 22.62 33.44 21.67 32.85 21.1C32.25 20.53 31.3 20.54 30.73 21.14H30.72Z" fill="#1F2024"/>
<path d="M36.46 6.15V4.5C36.46 3.67 35.79 3 34.96 3C34.13 3 33.46 3.67 33.46 4.5V6H15.2V4.5C15.2 3.67 14.53 3 13.7 3C12.87 3 12.2 3.67 12.2 4.5V6.05C7.88 6.49 4.5 10.15 4.5 14.59V36.41C4.5 41.15 8.35 45 13.09 45H34.91C39.65 45 43.5 41.15 43.5 36.41V14.59C43.5 10.38 40.46 6.88 36.46 6.15ZM13.09 9H34.91C37.99 9 40.5 11.51 40.5 14.59V15.09H7.5V14.59C7.5 11.51 10.01 9 13.09 9ZM34.91 42H13.09C10.01 42 7.5 39.49 7.5 36.41V18.09H40.5V36.41C40.5 39.49 37.99 42 34.91 42Z" fill="#1F2024"/>
</svg>
