<svg width="48" height="48" viewBox="0 0 48 48" fill="none" xmlns="http://www.w3.org/2000/svg">
<path d="M38.6249 6H36.0049V4.5C36.0049 3.67 35.3349 3 34.5049 3C33.6749 3 33.0049 3.67 33.0049 4.5V6H14.0049V4.5C14.0049 3.67 13.3349 3 12.5049 3C11.6749 3 11.0049 3.67 11.0049 4.5V6H9.38488C6.14488 6 3.50488 8.69 3.50488 12V39C3.50488 42.31 6.14488 45 9.38488 45H38.6149C41.8649 45 44.4949 42.31 44.4949 39V12C44.4949 8.69 41.8549 6 38.6149 6H38.6249ZM9.38488 9H38.6149C40.2049 9 41.4949 10.35 41.4949 12V13.5H6.50488V12C6.50488 10.35 7.79488 9 9.38488 9ZM9.38488 42C7.79488 42 6.50488 40.65 6.50488 39V16.5H41.5049V39C41.5049 40.65 40.2149 42 38.6249 42H9.38488Z" fill="#1F2024"/>
<path d="M31.0249 20.96L22.4849 29.8601L18.5649 25.9401C17.9749 25.35 17.0249 25.35 16.4449 25.9401C15.8549 26.5301 15.8549 27.48 16.4449 28.06L21.4449 33.06C21.7249 33.34 22.1049 33.5 22.5049 33.5H22.5249C22.9249 33.5 23.3149 33.3301 23.5949 33.0401L33.1949 23.0401C33.7649 22.4401 33.7449 21.49 33.1549 20.92C32.5549 20.35 31.6149 20.36 31.0349 20.96H31.0249Z" fill="#1F2024"/>
</svg>
