<svg width="48" height="48" viewBox="0 0 48 48" fill="none" xmlns="http://www.w3.org/2000/svg">
<path d="M41.36 7.53C40.31 6.46 38.9 5.85 37.42 5.85H36.03V4.47C36.03 3.7 35.45 3.05 34.71 3.01C34.52 3.01 34.33 3.03 34.16 3.1C33.98 3.17 33.82 3.28 33.68 3.4C33.55 3.54 33.43 3.69 33.36 3.87C33.28 4.05 33.25 4.24 33.25 4.44V5.86H13.75V4.47C13.75 3.7 13.17 3.04 12.43 3C12.24 3 12.05 3.02 11.88 3.09C11.7 3.16 11.54 3.27 11.4 3.39C11.27 3.53 11.15 3.68 11.08 3.86C11 4.04 10.97 4.23 10.97 4.43V5.85H9.58C8.11 5.85 6.69 6.45 5.64 7.53C4.59 8.6 4 11.06 4 12.57V13.17C4 13.27 4.04 13.36 4.1 13.42C4.16 13.48 4.25 13.53 4.35 13.53H42.65C42.75 13.53 42.83 13.49 42.9 13.42C42.97 13.35 43 13.26 43 13.17V12.57C43 11.06 42.41 8.6 41.36 7.53Z" fill="#1F2024"/>
<path d="M4.35 16.21C4.25 16.21 4.17 16.25 4.1 16.32C4.03 16.39 4 16.48 4 16.57V38.31C4 39.82 4.59 41.26 5.64 42.33C6.69 43.4 8.1 44 9.58 44H37.43C38.9 44 40.32 43.4 41.37 42.33C42.42 41.26 43.01 39.81 43.01 38.31V16.57C43.01 16.47 42.97 16.39 42.91 16.32C42.84 16.25 42.76 16.21 42.66 16.21H4.35ZM32.68 23.04L23.08 33.04C22.8 33.33 22.42 33.5 22.01 33.5H21.99C21.59 33.5 21.21 33.34 20.93 33.06L15.93 28.06C15.34 27.47 15.34 26.52 15.93 25.94C16.52 25.36 17.47 25.35 18.05 25.94L21.97 29.86L30.51 20.96C31.09 20.36 32.03 20.34 32.63 20.92C33.23 21.49 33.25 22.44 32.67 23.04H32.68Z" fill="#1F2024"/>
</svg>
