<svg width="48" height="48" viewBox="0 0 48 48" fill="none" xmlns="http://www.w3.org/2000/svg">
<path d="M22.1951 33.965C21.7251 33.965 21.2651 33.775 20.9351 33.445L15.9351 28.445C15.2351 27.745 15.2351 26.615 15.9351 25.925C16.2751 25.585 16.7151 25.405 17.1951 25.405C17.6751 25.405 18.1151 25.595 18.4551 25.925L22.1651 29.635L30.5051 20.945C30.8451 20.595 31.3051 20.395 31.7951 20.395C32.2551 20.395 32.6951 20.575 33.0351 20.895C33.3751 21.225 33.5751 21.665 33.5851 22.145C33.5951 22.625 33.4151 23.075 33.0851 23.415L23.4851 33.415C23.1551 33.755 22.6951 33.955 22.2151 33.965H22.1951Z" fill="#1F2024"/>
<path d="M13.0851 45.285C8.19509 45.285 4.21509 41.305 4.21509 36.415V14.585C4.21509 10.115 7.50509 6.37497 11.9151 5.79497V4.49497C11.9151 3.51497 12.7151 2.71497 13.6951 2.71497C14.6751 2.71497 15.4751 3.51497 15.4751 4.49497V5.71497H33.1751V4.49497C33.1751 3.51497 33.9751 2.71497 34.9551 2.71497C35.9351 2.71497 36.7351 3.51497 36.7351 4.49497V5.91497C40.8251 6.77497 43.7751 10.395 43.7751 14.585V36.405C43.7751 41.295 39.7951 45.275 34.9051 45.275H13.0851V45.285ZM7.77509 36.415C7.77509 39.345 10.1551 41.725 13.0851 41.725H34.9051C37.8351 41.725 40.2151 39.345 40.2151 36.415V18.365H7.78509V36.405L7.77509 36.415ZM40.2151 14.805V14.595C40.2151 11.665 37.8351 9.28497 34.9051 9.28497H13.0851C10.1551 9.28497 7.77509 11.665 7.77509 14.595V14.805H40.2151Z" fill="#1F2024"/>
</svg>
