<svg width="48" height="48" viewBox="0 0 48 48" fill="none" xmlns="http://www.w3.org/2000/svg">
<path d="M22.205 33.405C21.885 33.405 21.575 33.275 21.345 33.045L16.345 28.045C15.875 27.575 15.875 26.795 16.345 26.325C16.575 26.095 16.885 25.965 17.205 25.965C17.525 25.965 17.835 26.095 18.065 26.325L22.185 30.445L30.925 21.345C31.155 21.105 31.465 20.975 31.805 20.975C32.125 20.975 32.415 21.095 32.645 21.315C32.875 21.545 33.015 21.845 33.015 22.165C33.015 22.485 32.905 22.795 32.675 23.035L23.075 33.035C22.855 33.265 22.535 33.405 22.215 33.405H22.205Z" fill="#1F2024"/>
<path d="M13.095 44.715C8.51503 44.715 4.78503 40.985 4.78503 36.405V14.595C4.78503 10.325 7.98503 6.76503 12.235 6.32503L12.485 6.29503V4.50503C12.485 3.83503 13.035 3.28503 13.705 3.28503C14.375 3.28503 14.925 3.83503 14.925 4.50503V6.28503H33.745V4.50503C33.745 3.83503 34.295 3.28503 34.965 3.28503C35.635 3.28503 36.185 3.83503 36.185 4.50503V6.38503L36.415 6.42503C40.355 7.14503 43.215 10.585 43.215 14.585V36.405C43.215 40.985 39.485 44.715 34.905 44.715H13.095ZM7.22503 36.405C7.22503 39.645 9.85503 42.275 13.095 42.275H34.915C38.155 42.275 40.785 39.645 40.785 36.405V17.805H7.21503V36.415L7.22503 36.405ZM13.095 8.71503C9.85503 8.71503 7.22503 11.345 7.22503 14.585V15.365H40.785V14.585C40.785 11.345 38.155 8.71503 34.915 8.71503H13.095Z" fill="#1F2024"/>
</svg>
