<svg width="48" height="48" viewBox="0 0 48 48" fill="none" xmlns="http://www.w3.org/2000/svg">
<path d="M40.4998 13.05H34.9998C34.8198 13.05 34.6298 12.95 34.5098 12.79L32.0498 8.94004C32.0098 8.87004 31.9598 8.81004 31.9098 8.74004C30.9898 7.64004 29.7198 7.04004 28.3098 7.04004H19.7098C18.8398 7.04004 17.5298 7.31004 16.2298 8.61004C16.1298 8.71004 16.0398 8.82004 15.9698 8.94004L13.5498 12.72C13.3198 12.97 13.1498 13.04 13.1198 13.04H7.4998C6.0998 13.04 4.8098 13.6 3.9598 14.57C3.0398 15.52 2.5498 16.7 2.5498 17.99V36C2.5498 37.4 3.1098 38.69 4.0798 39.54C5.0298 40.46 6.2098 40.95 7.4998 40.95H40.4998C41.8998 40.95 43.1898 40.39 44.0398 39.42C44.9598 38.47 45.4498 37.29 45.4498 36V18C45.4498 16.6 44.8898 15.31 43.9198 14.46C42.9698 13.54 41.7898 13.05 40.4998 13.05ZM41.5498 36C41.5498 36.2 41.5098 36.43 41.2198 36.72C41.1798 36.76 41.1398 36.81 41.0998 36.85C41.0198 36.95 40.7998 37.05 40.4998 37.05H7.4998C7.2998 37.05 7.0698 37.01 6.7798 36.72C6.7398 36.68 6.6898 36.64 6.6498 36.6C6.5498 36.52 6.4498 36.3 6.4498 36V18C6.4498 17.8 6.4898 17.57 6.7798 17.28C6.8198 17.24 6.8598 17.19 6.8998 17.15C6.9798 17.05 7.1998 16.95 7.4998 16.95H13.0998C14.3898 16.95 15.6298 16.31 16.5998 15.15C16.6498 15.09 16.6998 15.02 16.7398 14.95L19.1098 11.25C19.2798 11.1 19.4998 10.95 19.6998 10.95H28.2998C28.4698 10.95 28.6498 10.98 28.8398 11.18L31.2598 14.95C31.2598 14.95 31.2998 15 31.3198 15.03C32.1798 16.23 33.5598 16.95 35.0098 16.95H40.5098C40.7098 16.95 40.9398 16.99 41.2298 17.28C41.2698 17.32 41.3198 17.36 41.3598 17.4C41.4598 17.48 41.5598 17.7 41.5598 18V36H41.5498Z" fill="#1F2024"/>
<path d="M23.9998 16.05C18.7898 16.05 14.5498 20.29 14.5498 25.5C14.5498 30.71 18.7898 34.95 23.9998 34.95C29.2098 34.95 33.4498 30.71 33.4498 25.5C33.4498 20.29 29.2098 16.05 23.9998 16.05ZM23.9998 31.05C20.9898 31.05 18.4498 28.51 18.4498 25.5C18.4498 22.49 20.9898 19.95 23.9998 19.95C27.0098 19.95 29.5498 22.49 29.5498 25.5C29.5498 28.51 27.0098 31.05 23.9998 31.05Z" fill="#1F2024"/>
</svg>
