<svg width="48" height="48" viewBox="0 0 48 48" fill="none" xmlns="http://www.w3.org/2000/svg">
<path d="M40.75 40.5H7.75C6.48 40.5 5.29 40.01 4.39 39.11C3.49 38.21 3 37.02 3 35.75V17.75C3 16.48 3.49 15.29 4.39 14.39C5.29 13.49 6.48 13 7.75 13H13.37C13.59 13 13.83 12.8 13.98 12.63L16.4 8.81C16.44 8.74 16.49 8.67 16.55 8.61C17.44 7.57 18.64 7 19.93 7H28.55C29.84 7 31.04 7.57 31.93 8.61C31.98 8.67 32.04 8.74 32.08 8.81L34.5 12.63C34.72 12.86 35 13 35.21 13H40.74C42.01 13 43.2 13.49 44.1 14.39C45 15.29 45.49 16.48 45.49 17.75V35.75C45.49 37.02 45 38.21 44.1 39.11C43.2 40.01 42.01 40.5 40.74 40.5H40.75ZM7.75 16.5C7.42 16.5 7.1 16.63 6.87 16.87C6.64 17.11 6.5 17.42 6.5 17.75V35.75C6.5 36.08 6.63 36.4 6.87 36.63C7.11 36.86 7.42 37 7.75 37H40.75C41.08 37 41.4 36.87 41.63 36.63C41.86 36.39 42 36.08 42 35.75V17.75C42 17.42 41.87 17.1 41.63 16.87C41.39 16.64 41.08 16.5 40.75 16.5H35.22C33.95 16.5 32.7 15.89 31.79 14.83C31.74 14.77 31.69 14.7 31.64 14.63L29.23 10.81C29.08 10.65 28.85 10.5 28.57 10.5H19.95C19.67 10.5 19.45 10.65 19.29 10.81L16.87 14.63C16.83 14.7 16.78 14.77 16.72 14.83C15.78 15.92 14.63 16.5 13.38 16.5H7.75Z" fill="#1F2024"/>
<path d="M24.2499 34.6C19.0899 34.6 14.8999 30.41 14.8999 25.25C14.8999 20.09 19.0899 15.9 24.2499 15.9C29.4099 15.9 33.5999 20.09 33.5999 25.25C33.5999 30.41 29.4099 34.6 24.2499 34.6ZM24.2499 19.6C21.1299 19.6 18.5999 22.14 18.5999 25.25C18.5999 28.36 21.1399 30.9 24.2499 30.9C27.3599 30.9 29.8999 28.36 29.8999 25.25C29.8999 22.14 27.3599 19.6 24.2499 19.6Z" fill="#1F2024"/>
</svg>
