<svg width="48" height="48" viewBox="0 0 48 48" fill="none" xmlns="http://www.w3.org/2000/svg">
<path d="M7.4998 40.4498H40.4998C41.7598 40.4498 42.9198 39.9498 43.6698 39.0798C44.5098 38.2198 44.9498 37.1598 44.9498 35.9998V17.9998C44.9498 16.7398 44.4498 15.5798 43.5798 14.8298C42.7198 13.9898 41.6598 13.5498 40.4998 13.5498H34.9998C34.6598 13.5498 34.3198 13.3698 34.0998 13.0798L31.6198 9.2198C31.5898 9.1698 31.5498 9.1198 31.5098 9.0698C30.6898 8.0898 29.5498 7.5498 28.2998 7.5498H19.6998C18.5698 7.5498 17.5198 8.0298 16.5798 8.9698C16.5098 9.0398 16.4398 9.1298 16.3798 9.2098L13.9298 13.0298C13.6498 13.3498 13.3298 13.5498 13.0998 13.5498H7.4998C6.2398 13.5498 5.0798 14.0498 4.3298 14.9198C3.4898 15.7798 3.0498 16.8398 3.0498 17.9998V35.9998C3.0498 37.2598 3.5498 38.4198 4.4198 39.1698C5.2798 40.0098 6.3398 40.4498 7.4998 40.4498ZM5.9498 17.9998C5.9498 17.5898 6.0998 17.2498 6.4198 16.9298C6.4498 16.8998 6.4798 16.8698 6.5098 16.8298C6.6998 16.5998 7.0798 16.4498 7.4998 16.4498H13.0998C14.2398 16.4498 15.3398 15.8698 16.2098 14.8298C16.2498 14.7798 16.2898 14.7298 16.3198 14.6798L18.7298 10.9198C19.0698 10.5998 19.3998 10.4398 19.6998 10.4398H28.2998C28.6798 10.4398 28.9798 10.5698 29.2398 10.8598L31.6798 14.6698L31.7198 14.7298C32.4798 15.7998 33.7098 16.4398 34.9998 16.4398H40.4998C40.9098 16.4398 41.2498 16.5898 41.5698 16.9098C41.5998 16.9398 41.6298 16.9698 41.6698 16.9998C41.8998 17.1898 42.0498 17.5698 42.0498 17.9898V35.9998C42.0498 36.4098 41.8998 36.7498 41.5798 37.0698C41.5498 37.0998 41.5198 37.1298 41.4898 37.1698C41.2998 37.3998 40.9198 37.5498 40.4998 37.5498H7.4998C7.0898 37.5498 6.7498 37.3998 6.4298 37.0798C6.3998 37.0498 6.3698 37.0198 6.3298 36.9898C6.0998 36.7998 5.9498 36.4198 5.9498 35.9998V17.9998Z" fill="#1F2024"/>
<path d="M23.9998 34.5498C28.9898 34.5498 33.0498 30.4898 33.0498 25.4998C33.0498 20.5098 28.9898 16.4498 23.9998 16.4498C19.0098 16.4498 14.9498 20.5098 14.9498 25.4998C14.9498 30.4898 19.0098 34.5498 23.9998 34.5498ZM23.9998 19.5498C27.2298 19.5498 29.9498 22.2698 29.9498 25.4998C29.9498 28.7298 27.2298 31.4498 23.9998 31.4498C20.7698 31.4498 18.0498 28.7298 18.0498 25.4998C18.0498 22.2698 20.7698 19.5498 23.9998 19.5498Z" fill="#1F2024"/>
</svg>
