<svg width="48" height="48" viewBox="0 0 48 48" fill="none" xmlns="http://www.w3.org/2000/svg">
<path d="M40.5 13.05H35C34.82 13.05 34.63 12.95 34.51 12.79L32.05 8.94004C32.01 8.87004 31.96 8.81004 31.91 8.74004C30.99 7.64004 29.72 7.04004 28.31 7.04004H19.71C18.84 7.04004 17.53 7.31004 16.23 8.61004C16.13 8.71004 16.04 8.82004 15.97 8.94004L13.55 12.72C13.32 12.97 13.15 13.04 13.12 13.04H7.50005C6.10005 13.04 4.81005 13.6 3.96005 14.57C3.04005 15.52 2.55005 16.7 2.55005 17.99V36C2.55005 37.4 3.11005 38.69 4.08005 39.54C5.03005 40.46 6.21005 40.95 7.50005 40.95H40.5C41.9 40.95 43.1901 40.39 44.0401 39.42C44.9601 38.47 45.4501 37.29 45.4501 36V18C45.4501 16.6 44.89 15.31 43.92 14.46C42.97 13.54 41.79 13.05 40.5 13.05ZM41.55 36C41.55 36.2 41.51 36.43 41.22 36.72C41.18 36.76 41.14 36.81 41.1 36.85C41.02 36.95 40.8 37.05 40.5 37.05H7.50005C7.30005 37.05 7.07005 37.01 6.78005 36.72C6.74005 36.68 6.69005 36.64 6.65005 36.6C6.55005 36.52 6.45005 36.3 6.45005 36V18C6.45005 17.8 6.49005 17.57 6.78005 17.28C6.82005 17.24 6.86005 17.19 6.90005 17.15C6.98005 17.05 7.20005 16.95 7.50005 16.95H13.1C14.39 16.95 15.63 16.31 16.6 15.15C16.65 15.09 16.7 15.02 16.74 14.95L19.11 11.25C19.28 11.1 19.5 10.95 19.7 10.95H28.3C28.47 10.95 28.65 10.98 28.84 11.18L31.26 14.95C31.26 14.95 31.3 15 31.32 15.03C32.18 16.23 33.56 16.95 35.01 16.95H40.51C40.71 16.95 40.94 16.99 41.23 17.28C41.27 17.32 41.3201 17.36 41.3601 17.4C41.4601 17.48 41.56 17.7 41.56 18V36H41.55Z" fill="#1F2024"/>
<path d="M24 16.05C18.79 16.05 14.55 20.29 14.55 25.5C14.55 30.71 18.79 34.95 24 34.95C29.21 34.95 33.45 30.71 33.45 25.5C33.45 20.29 29.21 16.05 24 16.05ZM24 31.05C20.99 31.05 18.45 28.51 18.45 25.5C18.45 22.49 20.99 19.95 24 19.95C27.01 19.95 29.55 22.49 29.55 25.5C29.55 28.51 27.01 31.05 24 31.05Z" fill="#1F2024"/>
</svg>
