<svg width="48" height="48" viewBox="0 0 48 48" fill="none" xmlns="http://www.w3.org/2000/svg">
<path d="M44.11 14.39C43.21 13.49 42.02 13 40.75 13H35.22C35.01 13 34.73 12.85 34.51 12.63L32.09 8.81C32.05 8.74 31.99 8.67 31.94 8.61C31.05 7.57 29.85 7 28.56 7H19.94C18.65 7 17.44 7.57 16.56 8.61C16.51 8.67 16.46 8.74 16.41 8.81L13.99 12.63C13.84 12.79 13.6 13 13.38 13H7.75C6.48 13 5.29 13.49 4.39 14.39C3.49 15.29 3 16.48 3 17.75V35.75C3 37.02 3.49 38.21 4.39 39.11C5.29 40.01 6.48 40.5 7.75 40.5H40.75C42.02 40.5 43.21 40.01 44.11 39.11C45.01 38.21 45.5 37.02 45.5 35.75V17.75C45.5 16.48 45.01 15.29 44.11 14.39ZM24.25 33.93C19.28 33.93 15.25 30.02 15.25 25.2C15.25 20.38 19.28 16.47 24.25 16.47C29.22 16.47 33.25 20.38 33.25 25.2C33.25 30.02 29.22 33.93 24.25 33.93Z" fill="#1F2024"/>
<path d="M24.25 31.25C27.5637 31.25 30.25 28.5637 30.25 25.25C30.25 21.9363 27.5637 19.25 24.25 19.25C20.9363 19.25 18.25 21.9363 18.25 25.25C18.25 28.5637 20.9363 31.25 24.25 31.25Z" fill="#1F2024"/>
</svg>
