<svg width="48" height="48" viewBox="0 0 48 48" fill="none" xmlns="http://www.w3.org/2000/svg">
<path d="M7.50005 40.4498H40.5C41.76 40.4498 42.92 39.9498 43.67 39.0798C44.51 38.2198 44.9501 37.1598 44.9501 35.9998V17.9998C44.9501 16.7398 44.45 15.5798 43.58 14.8298C42.72 13.9898 41.66 13.5498 40.5 13.5498H35C34.66 13.5498 34.32 13.3698 34.1 13.0798L31.62 9.2198C31.59 9.1698 31.55 9.1198 31.51 9.0698C30.69 8.0898 29.55 7.5498 28.3 7.5498H19.7C18.57 7.5498 17.52 8.0298 16.58 8.9698C16.51 9.0398 16.44 9.1298 16.38 9.2098L13.93 13.0298C13.65 13.3498 13.33 13.5498 13.1 13.5498H7.50005C6.24005 13.5498 5.08005 14.0498 4.33005 14.9198C3.49005 15.7798 3.05005 16.8398 3.05005 17.9998V35.9998C3.05005 37.2598 3.55005 38.4198 4.42005 39.1698C5.28005 40.0098 6.34005 40.4498 7.50005 40.4498ZM5.95005 17.9998C5.95005 17.5898 6.10005 17.2498 6.42005 16.9298C6.45005 16.8998 6.48005 16.8698 6.51005 16.8298C6.70005 16.5998 7.08005 16.4498 7.50005 16.4498H13.1C14.24 16.4498 15.34 15.8698 16.21 14.8298C16.25 14.7798 16.29 14.7298 16.32 14.6798L18.73 10.9198C19.07 10.5998 19.4 10.4398 19.7 10.4398H28.3C28.68 10.4398 28.98 10.5698 29.24 10.8598L31.68 14.6698L31.72 14.7298C32.48 15.7998 33.71 16.4398 35 16.4398H40.5C40.91 16.4398 41.25 16.5898 41.57 16.9098C41.6 16.9398 41.63 16.9698 41.67 16.9998C41.9 17.1898 42.05 17.5698 42.05 17.9898V35.9998C42.05 36.4098 41.9 36.7498 41.58 37.0698C41.55 37.0998 41.52 37.1298 41.49 37.1698C41.3 37.3998 40.92 37.5498 40.5 37.5498H7.50005C7.09005 37.5498 6.75005 37.3998 6.43005 37.0798C6.40005 37.0498 6.37005 37.0198 6.33005 36.9898C6.10005 36.7998 5.95005 36.4198 5.95005 35.9998V17.9998Z" fill="#1F2024"/>
<path d="M24 34.5498C28.99 34.5498 33.05 30.4898 33.05 25.4998C33.05 20.5098 28.99 16.4498 24 16.4498C19.01 16.4498 14.95 20.5098 14.95 25.4998C14.95 30.4898 19.01 34.5498 24 34.5498ZM24 19.5498C27.23 19.5498 29.95 22.2698 29.95 25.4998C29.95 28.7298 27.23 31.4498 24 31.4498C20.77 31.4498 18.05 28.7298 18.05 25.4998C18.05 22.2698 20.77 19.5498 24 19.5498Z" fill="#1F2024"/>
</svg>
