<svg width="48" height="48" viewBox="0 0 48 48" fill="none" xmlns="http://www.w3.org/2000/svg">
<path d="M16.5 42C18.1569 42 19.5 40.6569 19.5 39C19.5 37.3431 18.1569 36 16.5 36C14.8431 36 13.5 37.3431 13.5 39C13.5 40.6569 14.8431 42 16.5 42Z" fill="black"/>
<path d="M36.5 42C38.1569 42 39.5 40.6569 39.5 39C39.5 37.3431 38.1569 36 36.5 36C34.8431 36 33.5 37.3431 33.5 39C33.5 40.6569 34.8431 42 36.5 42Z" fill="black"/>
<path d="M41.825 11.3231C41.6143 11.0654 41.3488 10.8578 41.0478 10.7154C40.7468 10.573 40.4179 10.4994 40.085 10.5H12.5522L11.9775 7.23938C11.9162 6.89206 11.7345 6.57744 11.4643 6.35078C11.1941 6.12413 10.8527 5.99993 10.5 6H4.5C4.10218 6 3.72064 6.15804 3.43934 6.43934C3.15804 6.72064 3 7.10218 3 7.5C3 7.89782 3.15804 8.27936 3.43934 8.56066C3.72064 8.84196 4.10218 9 4.5 9H9.24188L13.5225 33.2606C13.5838 33.6079 13.7655 33.9226 14.0357 34.1492C14.3059 34.3759 14.6473 34.5001 15 34.5H39C39.3978 34.5 39.7794 34.342 40.0607 34.0607C40.342 33.7794 40.5 33.3978 40.5 33C40.5 32.6022 40.342 32.2206 40.0607 31.9393C39.7794 31.658 39.3978 31.5 39 31.5H16.2581L15.7294 28.5H37.385C37.9052 28.4993 38.4092 28.319 38.8117 27.9894C39.2142 27.6599 39.4904 27.2014 39.5938 26.6916L42.2937 13.1916C42.3588 12.8648 42.3505 12.5278 42.2694 12.2046C42.1884 11.8815 42.0366 11.5804 41.825 11.3231Z" fill="black"/>
</svg>
