<svg width="48" height="48" viewBox="0 0 48 48" fill="none" xmlns="http://www.w3.org/2000/svg">
<path d="M17.0001 33.8499C14.5001 33.8499 12.5001 35.8499 12.5001 38.3499C12.5001 40.8499 14.5001 42.8499 17.0001 42.8499C19.5001 42.8499 21.5001 40.8499 21.5001 38.3499C21.5001 35.8499 19.5001 33.8499 17.0001 33.8499ZM17.0001 39.8499C16.1001 39.8499 15.5001 39.2499 15.5001 38.3499C15.5001 37.4499 16.1001 36.8499 17.0001 36.8499C17.9001 36.8499 18.5001 37.4499 18.5001 38.3499C18.5001 39.2499 17.9001 39.8499 17.0001 39.8499Z" fill="#1F2024"/>
<path d="M37.0001 33.8499C34.5001 33.8499 32.5001 35.8499 32.5001 38.3499C32.5001 40.8499 34.5001 42.8499 37.0001 42.8499C39.5001 42.8499 41.5001 40.8499 41.5001 38.3499C41.5001 35.8499 39.5001 33.8499 37.0001 33.8499ZM37.0001 39.8499C36.1001 39.8499 35.5001 39.2499 35.5001 38.3499C35.5001 37.4499 36.1001 36.8499 37.0001 36.8499C37.9001 36.8499 38.5001 37.4499 38.5001 38.3499C38.5001 39.2499 37.9001 39.8499 37.0001 39.8499Z" fill="#1F2024"/>
<path d="M42.5001 10.4499C42.3001 10.2499 42.0001 9.9499 41.4001 9.8499C41.2001 9.7499 41.0001 9.6499 40.6001 9.6499H13.1001L12.5001 6.5499C12.4001 5.7499 11.6001 5.1499 10.8001 5.1499H4.8001C3.9001 5.1499 3.1001 5.9499 3.1001 6.8499C3.1001 7.7499 3.9001 8.5499 4.8001 8.5499H9.4001L13.6001 32.1499C13.7001 32.9499 14.5001 33.5499 15.3001 33.5499H39.3001C40.2001 33.5499 41.0001 32.7499 41.0001 31.8499C41.0001 30.9499 40.2001 30.1499 39.3001 30.1499H16.7001L16.3001 28.0499H37.7001C38.3001 28.0499 38.7001 27.8499 39.0001 27.6499C39.2001 27.5499 39.3001 27.4499 39.4001 27.3499C39.5001 27.2499 39.6001 27.0499 39.8001 26.8499C40.0001 26.6499 40.1001 26.3499 40.2001 26.0499L42.9001 12.5499V11.9499C42.9001 11.6499 42.8001 11.3499 42.7001 11.1499C42.8001 10.8499 42.7001 10.6499 42.5001 10.4499ZM37.2001 24.6499H15.9001L13.8001 13.0499H26.6501H39.5001L37.2001 24.6499Z" fill="#1F2024"/>
</svg>
