<svg width="48" height="48" viewBox="0 0 48 48" fill="none" xmlns="http://www.w3.org/2000/svg">
<path d="M13.2 38.4C13.2 40.4 14.9 42.1 16.9 42.1C18.9 42.1 20.6 40.4 20.6 38.4C20.6 36.4 18.9 34.7 16.9 34.7C14.9 34.7 13.2 36.4 13.2 38.4ZM18.4 38.4C18.4 39.2 17.7 39.9 16.9 39.9C16.1 39.9 15.4 39.2 15.4 38.4C15.4 37.6 16.1 36.9 16.9 36.9C17.7 36.9 18.4 37.6 18.4 38.4Z" fill="#1F2024"/>
<path d="M36.9 34.7C34.9 34.7 33.2 36.4 33.2 38.4C33.2 40.4 34.9 42.1 36.9 42.1C38.9 42.1 40.6 40.4 40.6 38.4C40.6 36.4 38.9 34.7 36.9 34.7ZM36.9 39.9C36.1 39.9 35.4 39.2 35.4 38.4C35.4 37.6 36.1 36.9 36.9 36.9C37.7 36.9 38.4 37.6 38.4 38.4C38.4 39.2 37.7 39.9 36.9 39.9Z" fill="#1F2024"/>
<path d="M4.89998 8.10002H9.89998L14.2 32.6C14.3 33.2 14.8 33.6 15.4 33.6H39.4C40.1 33.6 40.6 33.1 40.6 32.4C40.6 31.7 40.1 31.2 39.4 31.2H16.4L15.8 27.6H37.8C38.3 27.6 38.6 27.4 38.8 27.3C38.9 27.2 39 27.2 39.1 27.1C39.2 27 39.3 26.9 39.4 26.7C39.6 26.5 39.7 26.3 39.7 26.1L42.4 12.6V12.1C42.4 11.8 42.3 11.6 42.3 11.5C42.2 11.3 42.1 11.1 42 11C41.9 10.9 41.6 10.6 41.1 10.5C41 10.4 40.8 10.4 40.5 10.4H12.6L12 6.90002C11.9 6.30002 11.4 5.90002 10.8 5.90002H4.79998C4.09998 5.90002 3.59998 6.40002 3.59998 7.10002C3.59998 7.80002 4.19998 8.10002 4.89998 8.10002ZM40 12.6L37.5 25.2H15.3L13.1 12.6H40Z" fill="#1F2024"/>
</svg>
