<svg width="48" height="48" viewBox="0 0 48 48" fill="none" xmlns="http://www.w3.org/2000/svg">
<path d="M17 33.85C14.5 33.85 12.5 35.85 12.5 38.35C12.5 40.85 14.5 42.85 17 42.85C19.5 42.85 21.5 40.85 21.5 38.35C21.5 35.85 19.5 33.85 17 33.85ZM17 39.85C16.1 39.85 15.5 39.25 15.5 38.35C15.5 37.45 16.1 36.85 17 36.85C17.9 36.85 18.5 37.45 18.5 38.35C18.5 39.25 17.9 39.85 17 39.85Z" fill="#1F2024"/>
<path d="M37 33.85C34.5 33.85 32.5 35.85 32.5 38.35C32.5 40.85 34.5 42.85 37 42.85C39.5 42.85 41.5 40.85 41.5 38.35C41.5 35.85 39.5 33.85 37 33.85ZM37 39.85C36.1 39.85 35.5 39.25 35.5 38.35C35.5 37.45 36.1 36.85 37 36.85C37.9 36.85 38.5 37.45 38.5 38.35C38.5 39.25 37.9 39.85 37 39.85Z" fill="#1F2024"/>
<path d="M42.5 10.45C42.3 10.25 42 9.95002 41.4 9.85002C41.2 9.75002 41 9.65002 40.6 9.65002H13.1L12.5 6.55002C12.4 5.75002 11.6 5.15002 10.8 5.15002H4.79998C3.89998 5.15002 3.09998 5.95002 3.09998 6.85002C3.09998 7.75002 3.89998 8.55002 4.79998 8.55002H9.39998L13.6 32.15C13.7 32.95 14.5 33.55 15.3 33.55H39.3C40.2 33.55 41 32.75 41 31.85C41 30.95 40.2 30.15 39.3 30.15H16.7L16.3 28.05H37.7C38.3 28.05 38.7 27.85 39 27.65C39.2 27.55 39.3 27.45 39.4 27.35C39.5 27.25 39.6 27.05 39.8 26.85C40 26.65 40.1 26.35 40.2 26.05L42.9 12.55V11.95C42.9 11.65 42.8 11.35 42.7 11.15C42.8 10.85 42.7 10.65 42.5 10.45ZM37.2 24.65H15.9L13.8 13.05H26.65H39.5L37.2 24.65Z" fill="#1F2024"/>
</svg>
