<svg width="48" height="48" viewBox="0 0 48 48" fill="none" xmlns="http://www.w3.org/2000/svg">
<path d="M16.5 43.2001C14.18 43.2001 12.3 41.32 12.3 39C12.3 36.68 14.18 34.8 16.5 34.8C18.82 34.8 20.7001 36.68 20.7001 39C20.7001 41.32 18.82 43.2001 16.5 43.2001ZM16.5 37.5C15.67 37.5 15 38.1701 15 39C15 39.83 15.67 40.5 16.5 40.5C17.33 40.5 18 39.83 18 39C18 38.1701 17.33 37.5 16.5 37.5Z" fill="#1F2024"/>
<path d="M36.5 43.2001C34.18 43.2001 32.3 41.32 32.3 39C32.3 36.68 34.18 34.8 36.5 34.8C38.82 34.8 40.7001 36.68 40.7001 39C40.7001 41.32 38.82 43.2001 36.5 43.2001ZM36.5 37.5C35.6701 37.5 35 38.1701 35 39C35 39.83 35.6701 40.5 36.5 40.5C37.33 40.5 38 39.83 38 39C38 38.1701 37.33 37.5 36.5 37.5Z" fill="#1F2024"/>
<path d="M38.81 27.99C39.21 27.66 39.49 27.2 39.59 26.69L42.29 13.19C42.36 12.87 42.35 12.52 42.27 12.2C42.19 11.88 42.04 11.57 41.83 11.32C41.62 11.07 41.35 10.86 41.06 10.72C40.76 10.58 40.43 10.5 40.09 10.5H12.55L11.97 7.24C11.84 6.52 11.22 6 10.49 6H4.5C3.67 6 3 6.67 3 7.5C3 8.33 3.67 9 4.5 9H9.24L13.52 33.26C13.65 33.98 14.27 34.5 15 34.5H39C39.83 34.5 40.5 33.83 40.5 33C40.5 32.17 39.83 31.5 39 31.5H16.26L15.73 28.5H37.39C37.91 28.5 38.42 28.32 38.82 27.99H38.81ZM15.2 25.5L13.08 13.5H39.17L36.77 25.5H15.2Z" fill="#1F2024"/>
</svg>
