<svg width="48" height="48" viewBox="0 0 48 48" fill="none" xmlns="http://www.w3.org/2000/svg">
<path d="M17.0001 33.85C14.5001 33.85 12.5001 35.85 12.5001 38.35C12.5001 40.85 14.5001 42.85 17.0001 42.85C19.5001 42.85 21.5001 40.85 21.5001 38.35C21.5001 35.85 19.5001 33.85 17.0001 33.85ZM17.0001 39.85C16.1001 39.85 15.5001 39.25 15.5001 38.35C15.5001 37.45 16.1001 36.85 17.0001 36.85C17.9001 36.85 18.5001 37.45 18.5001 38.35C18.5001 39.25 17.9001 39.85 17.0001 39.85Z" fill="#1F2024"/>
<path d="M37.0001 33.85C34.5001 33.85 32.5001 35.85 32.5001 38.35C32.5001 40.85 34.5001 42.85 37.0001 42.85C39.5001 42.85 41.5001 40.85 41.5001 38.35C41.5001 35.85 39.5001 33.85 37.0001 33.85ZM37.0001 39.85C36.1001 39.85 35.5001 39.25 35.5001 38.35C35.5001 37.45 36.1001 36.85 37.0001 36.85C37.9001 36.85 38.5001 37.45 38.5001 38.35C38.5001 39.25 37.9001 39.85 37.0001 39.85Z" fill="#1F2024"/>
<path d="M42.5001 10.45C42.3001 10.25 42.0001 9.95002 41.4001 9.85002C41.2001 9.75002 41.0001 9.65002 40.6001 9.65002H13.1001L12.5001 6.55002C12.4001 5.75002 11.6001 5.15002 10.8001 5.15002H4.8001C3.9001 5.15002 3.1001 5.95002 3.1001 6.85002C3.1001 7.75002 3.9001 8.55002 4.8001 8.55002H9.4001L13.6001 32.15C13.7001 32.95 14.5001 33.55 15.3001 33.55H39.3001C40.2001 33.55 41.0001 32.75 41.0001 31.85C41.0001 30.95 40.2001 30.15 39.3001 30.15H16.7001L16.3001 28.05H37.7001C38.3001 28.05 38.7001 27.85 39.0001 27.65C39.2001 27.55 39.3001 27.45 39.4001 27.35C39.5001 27.25 39.6001 27.05 39.8001 26.85C40.0001 26.65 40.1001 26.35 40.2001 26.05L42.9001 12.55V11.95C42.9001 11.65 42.8001 11.35 42.7001 11.15C42.8001 10.85 42.7001 10.65 42.5001 10.45ZM37.2001 24.65H15.9001L13.8001 13.05H26.6501H39.5001L37.2001 24.65Z" fill="#1F2024"/>
</svg>
