<svg width="48" height="48" viewBox="0 0 48 48" fill="none" xmlns="http://www.w3.org/2000/svg">
<path d="M13.2001 38.3999C13.2001 40.3999 14.9001 42.0999 16.9001 42.0999C18.9001 42.0999 20.6001 40.3999 20.6001 38.3999C20.6001 36.3999 18.9001 34.6999 16.9001 34.6999C14.9001 34.6999 13.2001 36.3999 13.2001 38.3999ZM18.4001 38.3999C18.4001 39.1999 17.7001 39.8999 16.9001 39.8999C16.1001 39.8999 15.4001 39.1999 15.4001 38.3999C15.4001 37.5999 16.1001 36.8999 16.9001 36.8999C17.7001 36.8999 18.4001 37.5999 18.4001 38.3999Z" fill="#1F2024"/>
<path d="M36.9001 34.6999C34.9001 34.6999 33.2001 36.3999 33.2001 38.3999C33.2001 40.3999 34.9001 42.0999 36.9001 42.0999C38.9001 42.0999 40.6001 40.3999 40.6001 38.3999C40.6001 36.3999 38.9001 34.6999 36.9001 34.6999ZM36.9001 39.8999C36.1001 39.8999 35.4001 39.1999 35.4001 38.3999C35.4001 37.5999 36.1001 36.8999 36.9001 36.8999C37.7001 36.8999 38.4001 37.5999 38.4001 38.3999C38.4001 39.1999 37.7001 39.8999 36.9001 39.8999Z" fill="#1F2024"/>
<path d="M4.9001 8.0999H9.9001L14.2001 32.5999C14.3001 33.1999 14.8001 33.5999 15.4001 33.5999H39.4001C40.1001 33.5999 40.6001 33.0999 40.6001 32.3999C40.6001 31.6999 40.1001 31.1999 39.4001 31.1999H16.4001L15.8001 27.5999H37.8001C38.3001 27.5999 38.6001 27.3999 38.8001 27.2999C38.9001 27.1999 39.0001 27.1999 39.1001 27.0999C39.2001 26.9999 39.3001 26.8999 39.4001 26.6999C39.6001 26.4999 39.7001 26.2999 39.7001 26.0999L42.4001 12.5999V12.0999C42.4001 11.7999 42.3001 11.5999 42.3001 11.4999C42.2001 11.2999 42.1001 11.0999 42.0001 10.9999C41.9001 10.8999 41.6001 10.5999 41.1001 10.4999C41.0001 10.3999 40.8001 10.3999 40.5001 10.3999H12.6001L12.0001 6.8999C11.9001 6.2999 11.4001 5.8999 10.8001 5.8999H4.8001C4.1001 5.8999 3.6001 6.3999 3.6001 7.0999C3.6001 7.7999 4.2001 8.0999 4.9001 8.0999ZM40.0001 12.5999L37.5001 25.1999H15.3001L13.1001 12.5999H40.0001Z" fill="#1F2024"/>
</svg>
