<svg width="48" height="48" viewBox="0 0 48 48" fill="none" xmlns="http://www.w3.org/2000/svg">
<path d="M20.6349 30.0389L15.6349 25.0389C15.0449 24.4489 15.0449 23.4989 15.6349 22.9189C16.2249 22.3289 17.1749 22.3289 17.7549 22.9189L21.6749 26.8389L30.2149 17.9389C30.7849 17.3389 31.7349 17.3189 32.3349 17.8989C32.9349 18.4689 32.9549 19.4189 32.3749 20.0189L22.7749 30.0189C22.2114 30.6025 21.2194 30.6234 20.6349 30.0389Z" fill="#1F2024"/>
<path d="M41.6449 23.9989L43.8849 20.2789C44.5149 19.2289 44.1549 17.8689 43.0749 17.2689L39.2749 15.1689L39.3549 10.8289C39.3749 9.60893 38.3749 8.60892 37.1549 8.62892L32.8149 8.70892L30.7149 4.90892C30.1249 3.83892 28.7549 3.46892 27.7049 4.09892L23.9849 6.33892L20.2749 4.10892C19.2249 3.47892 17.8649 3.83892 17.2649 4.91892L15.1649 8.71892L10.8249 8.63893C9.6049 8.61893 8.6049 9.61892 8.6249 10.8389L8.7049 15.1789L4.9049 17.2789C3.8349 17.8689 3.4649 19.2389 4.0949 20.2889L6.3349 24.0089L4.1049 27.7189C3.4749 28.7689 3.8349 30.1289 4.9149 30.7289L8.7149 32.8289L8.6349 37.1689C8.6149 38.3889 9.6149 39.3889 10.8349 39.3689L15.1749 39.2889L17.2749 43.0889C17.8649 44.1589 19.2349 44.5289 20.2849 43.8989L24.0049 41.6589L27.7249 43.8989C28.7749 44.5289 30.1349 44.1689 30.7349 43.0889L32.8349 39.2889L37.1749 39.3689C38.3949 39.3889 39.3949 38.3889 39.3749 37.1689L39.2949 32.8289L43.0949 30.7289C44.1649 30.1389 44.5349 28.7689 43.9049 27.7189L41.6649 23.9989H41.6449ZM40.5349 28.4289L36.0049 30.9289L36.1049 36.0989L30.9349 35.9989L28.4349 40.5289L24.0049 37.8589L19.5749 40.5289L17.0749 35.9989L11.9049 36.0989L12.0049 30.9289L7.4749 28.4289L10.1449 23.9989L7.4749 19.5689L12.0049 17.0689L11.9049 11.8989L17.0749 11.9989L19.5749 7.46892L24.0049 10.1389L28.4349 7.46892L30.9349 11.9989L36.1049 11.8989L36.0049 17.0689L40.5349 19.5689L37.8649 23.9989L40.5349 28.4289Z" fill="#1F2024"/>
</svg>
