<svg width="48" height="48" viewBox="0 0 48 48" fill="none" xmlns="http://www.w3.org/2000/svg">
<path d="M21.6848 30.68C21.2348 30.68 20.8148 30.5 20.4948 30.18L15.4948 25.18C15.1748 24.85 14.9948 24.42 14.9948 23.97C14.9948 23.52 15.1748 23.09 15.4948 22.78C15.8148 22.46 16.2448 22.28 16.6948 22.28C17.1448 22.28 17.5748 22.46 17.8948 22.78L21.6648 26.55L30.0648 17.8C30.3848 17.46 30.8248 17.28 31.2848 17.28C31.7248 17.28 32.1448 17.45 32.4648 17.76C32.7948 18.07 32.9748 18.49 32.9848 18.94C32.9848 19.4 32.8248 19.83 32.5048 20.16L22.9048 30.16C22.5848 30.5 22.1448 30.68 21.6948 30.68H21.6748H21.6848Z" fill="#1F2024"/>
<path d="M28.8348 44.4C28.4048 44.4 27.9848 44.28 27.6148 44.06L23.9948 41.88L20.3748 44.06C20.0048 44.28 19.5848 44.4 19.1548 44.4C18.2948 44.4 17.5048 43.93 17.0848 43.18L15.0448 39.49L10.8248 39.57C10.1448 39.57 9.54477 39.32 9.09477 38.86C8.64477 38.4 8.40477 37.8 8.41477 37.16L8.49477 32.94L4.80477 30.9C4.23477 30.59 3.83477 30.07 3.66477 29.44C3.49477 28.81 3.58477 28.17 3.92477 27.61L6.10477 23.99L3.93477 20.39C3.60477 19.83 3.50477 19.18 3.67477 18.56C3.84477 17.94 4.24477 17.42 4.81477 17.11L8.50477 15.07L8.42477 10.85C8.41477 10.21 8.65477 9.60998 9.10477 9.14998C9.55477 8.68998 10.1548 8.43998 10.7848 8.43998L15.0548 8.51998L17.0948 4.82998C17.5148 4.07998 18.3048 3.60998 19.1648 3.60998C19.5948 3.60998 20.0148 3.72998 20.3848 3.94998L24.0048 6.12998L27.6148 3.93998C27.9848 3.71998 28.4048 3.59998 28.8348 3.59998C29.6948 3.59998 30.4848 4.06998 30.9048 4.81998L32.9448 8.50998L37.1648 8.42998C37.8448 8.42998 38.4448 8.67998 38.8948 9.13998C39.3448 9.59998 39.5848 10.2 39.5748 10.84L39.4948 15.06L43.1848 17.1C43.7548 17.41 44.1548 17.93 44.3248 18.56C44.4948 19.19 44.4048 19.84 44.0648 20.39L41.8848 24.01L44.0648 27.63C44.3948 28.18 44.4948 28.83 44.3248 29.46C44.1548 30.08 43.7548 30.6 43.1848 30.92L39.4948 32.96L39.5748 37.18C39.5848 37.82 39.3448 38.42 38.8948 38.88C38.4448 39.34 37.8448 39.59 37.2148 39.59L32.9448 39.51L30.9048 43.2C30.4848 43.95 29.6948 44.42 28.8348 44.42V44.4ZM19.6448 40.26L24.0048 37.64L28.3648 40.26L30.8248 35.81L35.9148 35.9L35.8248 30.81L40.2748 28.35L37.6548 23.99L40.2748 19.63L35.8248 17.17L35.9148 12.08L30.8248 12.17L28.3648 7.71998L24.0048 10.34L19.6448 7.71998L17.1848 12.17L12.0948 12.07L12.1848 17.16L7.73477 19.62L10.3548 23.98L7.73477 28.34L12.1848 30.8L12.0948 35.89L17.1848 35.8L19.6448 40.25V40.26Z" fill="#1F2024"/>
</svg>
