<svg width="48" height="48" viewBox="0 0 48 48" fill="none" xmlns="http://www.w3.org/2000/svg">
<path d="M28.7899 43.95C28.6199 43.95 28.4399 43.93 28.2799 43.88H27.9299L27.6299 43.58L23.9799 41.47L20.1699 43.6699C19.7099 43.9399 19.1599 44.0099 18.6399 43.8699C18.1299 43.7399 17.6999 43.41 17.4299 42.95L15.2199 39.13H10.8199C10.2799 39.13 9.77989 38.92 9.39989 38.54C9.02989 38.17 8.81989 37.66 8.81989 37.13V32.7299L4.99989 30.52C4.75989 30.38 4.56989 30.21 4.40989 30.01C4.24989 29.8 4.12989 29.5599 4.06989 29.3099C3.92989 28.7899 3.99989 28.26 4.26989 27.79L6.47989 23.9699L4.26989 20.16C3.99989 19.6899 3.92989 19.16 4.06989 18.64C4.20989 18.12 4.53989 17.69 4.99989 17.42L8.81989 15.21V10.82C8.81989 10.29 9.02989 9.78995 9.39989 9.40995C9.78989 9.02995 10.2899 8.81995 10.8199 8.81995H15.2199L17.4299 4.99995C17.5599 4.76995 17.7399 4.56995 17.9499 4.39995C18.1399 4.24995 18.3699 4.12995 18.6299 4.05995C18.8799 3.98995 19.1399 3.96995 19.3999 3.99995C19.6899 4.03995 19.9299 4.11995 20.1499 4.24995L23.9799 6.45995L27.7999 4.26995C28.0199 4.13995 28.2799 4.04995 28.5399 4.01995C28.8099 3.98995 29.0699 3.99995 29.3199 4.06995C29.8299 4.20995 30.2599 4.53995 30.5299 4.98995L32.7399 8.81995H37.1399C37.6699 8.81995 38.1699 9.02995 38.5499 9.39995C38.9299 9.78995 39.1399 10.29 39.1399 10.82V15.22L42.9599 17.43C43.4199 17.7 43.7499 18.13 43.8899 18.64C44.0299 19.16 43.9599 19.6899 43.6899 20.15L41.4799 23.9699L43.6899 27.79C43.8299 28.03 43.9099 28.28 43.9399 28.54C43.9699 28.79 43.9599 29.0599 43.8899 29.3099C43.8299 29.5499 43.7099 29.7899 43.5599 29.99C43.3899 30.2099 43.1899 30.39 42.9699 30.52L39.1499 32.7299V37.13C39.1499 37.66 38.9399 38.1699 38.5599 38.5499C38.1899 38.9199 37.6799 39.13 37.1499 39.13H32.7499L30.5499 42.95C30.2799 43.41 29.8499 43.74 29.3299 43.88C29.1599 43.93 28.9799 43.95 28.8099 43.95H28.7899ZM23.9699 38.0099L28.4299 40.59L30.9999 36.1399H36.1299V31.01L40.5799 28.43L38.0099 23.9699L40.5799 19.52L36.1299 16.95V11.82H30.9999L28.4299 7.36995L23.9699 9.93995L19.5199 7.36995L16.9399 11.82H11.8199V16.95L7.36989 19.53L9.93989 23.99L7.36989 28.44L11.8199 31.02V36.15H16.9499L19.5299 40.5999L23.9799 38.0299L23.9699 38.0099ZM29.3099 6.85995H29.2999C29.2999 6.85995 29.2999 6.85995 29.3099 6.85995Z" fill="#1F2024"/>
<path d="M21.47 30.48C21.07 30.48 20.69 30.32 20.41 30.04L15.41 25.04C14.82 24.45 14.82 23.5 15.41 22.92C16 22.33 16.95 22.33 17.53 22.92L21.45 26.84L29.99 17.94C30.56 17.34 31.51 17.32 32.11 17.9C32.71 18.47 32.73 19.42 32.15 20.02L22.55 30.02C22.27 30.31 21.89 30.48 21.48 30.48H21.46H21.47Z" fill="#1F2024"/>
</svg>
