<svg width="48" height="48" viewBox="0 0 48 48" fill="none" xmlns="http://www.w3.org/2000/svg">
<path d="M41.6449 23.9949L43.8849 20.2749C44.5149 19.2249 44.1549 17.8649 43.0749 17.2649L39.2749 15.1649L39.3549 10.8249C39.3749 9.6049 38.3749 8.6049 37.1549 8.6249L32.8149 8.7049L30.7149 4.9049C30.1249 3.8349 28.7549 3.4649 27.7049 4.0949L23.9849 6.3349L20.2749 4.1049C19.2249 3.4749 17.8649 3.8349 17.2649 4.9149L15.1649 8.7149L10.8249 8.6349C9.6049 8.6149 8.6049 9.6149 8.6249 10.8349L8.7049 15.1749L4.9049 17.2749C3.8349 17.8649 3.4649 19.2349 4.0949 20.2849L6.3349 24.0049L4.1049 27.7149C3.4749 28.7649 3.8349 30.1249 4.9149 30.7249L8.7149 32.8249L8.6349 37.1649C8.6149 38.3849 9.6149 39.3849 10.8349 39.3649L15.1749 39.2849L17.2749 43.0849C17.8649 44.1549 19.2349 44.5249 20.2849 43.8949L24.0049 41.6549L27.7249 43.8949C28.7749 44.5249 30.1349 44.1649 30.7349 43.0849L32.8349 39.2849L37.1749 39.3649C38.3949 39.3849 39.3949 38.3849 39.3749 37.1649L39.2949 32.8249L43.0949 30.7249C44.1649 30.1349 44.5349 28.7649 43.9049 27.7149L41.6649 23.9949H41.6449ZM32.3749 20.0149L22.7749 30.0149C22.4949 30.3049 22.1149 30.4749 21.7049 30.4749H21.6949C21.2949 30.4749 20.9149 30.3149 20.6349 30.0349L15.6349 25.0349C15.0449 24.4449 15.0449 23.4949 15.6349 22.9149C16.2249 22.3249 17.1749 22.3249 17.7549 22.9149L21.6749 26.8349L30.2149 17.9349C30.7849 17.3349 31.7349 17.3149 32.3349 17.8949C32.9349 18.4649 32.9549 19.4149 32.3749 20.0149Z" fill="#1F2024"/>
</svg>
