<svg width="48" height="48" viewBox="0 0 48 48" fill="none" xmlns="http://www.w3.org/2000/svg">
<path d="M21.685 30.68C21.235 30.68 20.815 30.5 20.495 30.18L15.495 25.18C15.175 24.85 14.995 24.42 14.995 23.97C14.995 23.52 15.175 23.09 15.495 22.78C15.815 22.46 16.245 22.28 16.695 22.28C17.145 22.28 17.575 22.46 17.895 22.78L21.665 26.55L30.065 17.8C30.385 17.46 30.825 17.28 31.285 17.28C31.725 17.28 32.145 17.45 32.465 17.76C32.795 18.07 32.975 18.49 32.985 18.94C32.985 19.4 32.825 19.83 32.505 20.16L22.905 30.16C22.585 30.5 22.145 30.68 21.695 30.68H21.675H21.685Z" fill="#1F2024"/>
<path d="M28.835 44.4C28.405 44.4 27.985 44.28 27.615 44.06L23.995 41.88L20.375 44.06C20.005 44.28 19.585 44.4 19.155 44.4C18.295 44.4 17.505 43.93 17.085 43.18L15.045 39.49L10.825 39.57C10.145 39.57 9.54502 39.32 9.09502 38.86C8.64502 38.4 8.40502 37.8 8.41502 37.16L8.49502 32.94L4.80502 30.9C4.23502 30.59 3.83502 30.07 3.66502 29.44C3.49502 28.81 3.58502 28.17 3.92502 27.61L6.10502 23.99L3.93502 20.39C3.60502 19.83 3.50502 19.18 3.67502 18.56C3.84502 17.94 4.24502 17.42 4.81502 17.11L8.50502 15.07L8.42502 10.85C8.41502 10.21 8.65502 9.60998 9.10502 9.14998C9.55502 8.68998 10.155 8.43998 10.785 8.43998L15.055 8.51998L17.095 4.82998C17.515 4.07998 18.305 3.60998 19.165 3.60998C19.595 3.60998 20.015 3.72998 20.385 3.94998L24.005 6.12998L27.615 3.93998C27.985 3.71998 28.405 3.59998 28.835 3.59998C29.695 3.59998 30.485 4.06998 30.905 4.81998L32.945 8.50998L37.165 8.42998C37.845 8.42998 38.445 8.67998 38.895 9.13998C39.345 9.59998 39.585 10.2 39.575 10.84L39.495 15.06L43.185 17.1C43.755 17.41 44.155 17.93 44.325 18.56C44.495 19.19 44.405 19.84 44.065 20.39L41.885 24.01L44.065 27.63C44.395 28.18 44.495 28.83 44.325 29.46C44.155 30.08 43.755 30.6 43.185 30.92L39.495 32.96L39.575 37.18C39.585 37.82 39.345 38.42 38.895 38.88C38.445 39.34 37.845 39.59 37.215 39.59L32.945 39.51L30.905 43.2C30.485 43.95 29.695 44.42 28.835 44.42V44.4ZM19.645 40.26L24.005 37.64L28.365 40.26L30.825 35.81L35.915 35.9L35.825 30.81L40.275 28.35L37.655 23.99L40.275 19.63L35.825 17.17L35.915 12.08L30.825 12.17L28.365 7.71998L24.005 10.34L19.645 7.71998L17.185 12.17L12.095 12.07L12.185 17.16L7.73502 19.62L10.355 23.98L7.73502 28.34L12.185 30.8L12.095 35.89L17.185 35.8L19.645 40.25V40.26Z" fill="#1F2024"/>
</svg>
