<svg width="48" height="48" viewBox="0 0 48 48" fill="none" xmlns="http://www.w3.org/2000/svg">
<path d="M21.69 30.17C21.37 30.17 21.07 30.05 20.84 29.82L15.84 24.82C15.61 24.59 15.48 24.29 15.49 23.96C15.49 23.64 15.62 23.35 15.84 23.12C16.07 22.89 16.37 22.76 16.69 22.76C17.01 22.76 17.31 22.89 17.53 23.11L21.67 27.25L30.42 18.13C30.65 17.89 30.95 17.76 31.28 17.76C31.59 17.76 31.89 17.88 32.11 18.1C32.34 18.32 32.47 18.62 32.48 18.94C32.48 19.26 32.37 19.57 32.14 19.8L22.54 29.8C22.31 30.04 22.01 30.17 21.69 30.17Z" fill="#1F2024"/>
<path d="M28.83 43.9C28.49 43.9 28.16 43.81 27.87 43.63L24 41.3L20.13 43.63C19.84 43.8 19.51 43.9 19.17 43.9C18.49 43.9 17.87 43.53 17.54 42.94L15.35 38.98L10.83 39.06C10.29 39.06 9.81996 38.86 9.46996 38.5C9.11996 38.14 8.92996 37.67 8.93996 37.16L9.01996 32.64L5.05996 30.45C4.60996 30.2 4.28996 29.8 4.15996 29.3C4.02996 28.81 4.09996 28.3 4.35996 27.86L6.68996 23.99L4.35996 20.12C4.09996 19.68 4.01996 19.17 4.15996 18.68C4.29996 18.19 4.60996 17.78 5.05996 17.53L9.01996 15.34L8.93996 10.82C8.93996 10.32 9.11996 9.83997 9.46996 9.47997C9.81996 9.11997 10.29 8.91997 10.8 8.91997L15.36 8.99997L17.53 5.04997C17.86 4.45997 18.48 4.08997 19.16 4.08997C19.5 4.08997 19.83 4.17997 20.12 4.35997L23.99 6.68997L27.87 4.35997C28.16 4.18997 28.49 4.08997 28.83 4.08997C29.51 4.08997 30.13 4.45997 30.46 5.04997L32.65 9.00997L37.17 8.92997C37.71 8.92997 38.18 9.12997 38.53 9.48997C38.88 9.84997 39.07 10.32 39.06 10.83L38.98 15.35L42.94 17.54C43.39 17.79 43.7 18.19 43.84 18.69C43.97 19.18 43.9 19.69 43.64 20.13L41.31 24L43.64 27.87C43.9 28.31 43.98 28.82 43.84 29.31C43.71 29.8 43.39 30.21 42.94 30.46L38.98 32.65L39.06 37.17C39.06 37.67 38.88 38.15 38.53 38.51C38.18 38.87 37.71 39.07 37.2 39.07L32.64 38.99L30.45 42.95C30.12 43.54 29.5 43.91 28.82 43.91L28.83 43.9ZM19.45 40.95L23.99 38.21L28.53 40.95L31.1 36.31L36.4 36.41L36.3 31.11L40.94 28.54L38.2 24L40.94 19.46L36.3 16.89L36.4 11.59L31.1 11.69L28.53 7.04997L23.99 9.78997L19.45 7.04997L16.88 11.69L11.58 11.59L11.68 16.89L7.03996 19.46L9.77996 24L7.03996 28.54L11.68 31.11L11.58 36.41L16.88 36.31L19.45 40.95Z" fill="#1F2024"/>
<path d="M21.69 30.17C21.37 30.17 21.07 30.05 20.84 29.82L15.84 24.82C15.61 24.59 15.48 24.29 15.49 23.96C15.49 23.64 15.62 23.35 15.84 23.12C16.07 22.89 16.37 22.76 16.69 22.76C17.01 22.76 17.31 22.89 17.53 23.11L21.67 27.25L30.42 18.13C30.65 17.89 30.95 17.76 31.28 17.76C31.59 17.76 31.89 17.88 32.11 18.1C32.34 18.32 32.47 18.62 32.48 18.94C32.48 19.26 32.37 19.57 32.14 19.8L22.54 29.8C22.31 30.04 22.01 30.17 21.69 30.17Z" fill="#1F2024"/>
</svg>
