<svg width="48" height="48" viewBox="0 0 48 48" fill="none" xmlns="http://www.w3.org/2000/svg">
<path fill-rule="evenodd" clip-rule="evenodd" d="M4.41012 30.01C4.25012 29.8 4.13012 29.56 4.07012 29.31C3.93012 28.8 4.01012 28.25 4.27012 27.79L6.48012 23.97L4.27012 20.16C4.01012 19.7 3.93012 19.15 4.07012 18.64C4.21012 18.13 4.54012 17.69 5.00012 17.43L8.82012 15.22V10.82C8.82012 10.29 9.03012 9.77996 9.41012 9.40996C9.79012 9.03996 10.2901 8.81996 10.8201 8.81996H15.2201L17.4301 4.99996C17.5601 4.76996 17.7401 4.56996 17.9401 4.40996C18.1501 4.24996 18.3901 4.12996 18.6401 4.05996C18.8901 3.98996 19.1601 3.97996 19.4201 4.00996C19.6801 4.04996 19.9301 4.12996 20.1601 4.25996L23.9801 6.46996L27.8001 4.26996C28.0301 4.13996 28.2801 4.04996 28.5401 4.01996C28.8001 3.98996 29.0601 3.99996 29.3201 4.06996C29.8301 4.20996 30.2701 4.53996 30.5301 4.99996L32.7401 8.81996H37.1401C37.6701 8.81996 38.1801 9.02996 38.5501 9.40996C38.9201 9.78996 39.1401 10.29 39.1401 10.82V15.22L42.9601 17.43C43.4201 17.69 43.7501 18.13 43.8901 18.64C44.0301 19.15 43.9601 19.7 43.6901 20.16L41.4801 23.98L43.6901 27.8C43.8201 28.03 43.9101 28.28 43.9401 28.54C43.9801 28.8 43.9601 29.07 43.8901 29.32C43.8201 29.57 43.7001 29.81 43.5401 30.02C43.3801 30.23 43.1801 30.4 42.9501 30.53L39.1301 32.74V37.14C39.1301 37.67 38.9201 38.18 38.5401 38.55C38.1601 38.92 37.6601 39.14 37.1301 39.14H32.7301L30.5201 42.96C30.2501 43.42 29.8201 43.75 29.3101 43.89C28.8001 44.03 28.2501 43.96 27.7901 43.69L23.9701 41.48L20.1501 43.69C19.6901 43.95 19.1401 44.02 18.6301 43.89C18.1201 43.76 17.6801 43.42 17.4201 42.96L15.2101 39.14H10.8201C10.2901 39.14 9.78012 38.93 9.41012 38.55C9.04012 38.17 8.82012 37.67 8.82012 37.14V32.74L5.00012 30.53C4.77012 30.4 4.57012 30.23 4.41012 30.02V30.01ZM32.1501 20.02C32.7201 19.42 32.7001 18.47 32.1101 17.9C31.5101 17.33 30.5601 17.35 29.9901 17.94L21.4501 26.84L17.5301 22.92C16.9401 22.34 15.9901 22.34 15.4101 22.92C14.8301 23.51 14.8301 24.46 15.4101 25.04L20.4101 30.04C20.7001 30.33 21.0801 30.48 21.4901 30.48C21.8901 30.48 22.2801 30.31 22.5601 30.02L32.1601 20.02H32.1501Z" fill="#1F2024"/>
</svg>
