<svg width="48" height="48" viewBox="0 0 48 48" fill="none" xmlns="http://www.w3.org/2000/svg">
<path d="M38.1451 15.9999H38.0451C35.8451 9.0999 28.8451 4.3999 20.7451 4.3999C10.8451 4.3999 2.74512 11.5999 2.74512 20.4999C2.74512 23.6999 3.74512 26.6999 5.64512 29.2999C5.64512 29.3999 5.74512 29.3999 5.74512 29.4999L4.44512 33.5999C4.24512 33.8999 4.14512 34.1999 4.14512 34.6999C4.14512 35.2999 4.44512 35.9999 4.84512 36.3999C5.24512 36.7999 5.94512 37.0999 6.54512 37.0999C6.84512 37.0999 7.14512 36.9999 7.34512 36.9999L12.8451 35.1999C13.0451 35.0999 13.2451 35.0999 13.3451 35.0999H13.7451C13.9451 35.1999 14.6451 35.3999 15.3451 35.5999C15.3451 35.6999 15.4451 35.7999 15.4451 35.8999C16.1451 37.0999 18.7451 39.5999 20.4451 40.5999H20.5451C23.2451 41.9999 26.1451 42.6999 28.8451 42.5999C30.8451 42.5999 32.8451 42.2999 35.0451 41.4999H35.1451L40.5451 43.3999C40.7451 43.4999 40.9451 43.5999 41.3451 43.5999C41.9451 43.5999 42.3451 43.3999 42.6451 43.1999L42.8451 43.0999L43.0451 42.8999C43.2451 42.6999 43.6451 42.2999 43.7451 41.6999C43.8451 41.2999 43.8451 40.8999 43.7451 40.4999C43.4451 38.9999 42.9451 36.7999 42.7451 35.8999C44.2451 33.7999 45.1451 31.1999 45.2451 28.5999C45.3451 25.9999 44.6451 23.3999 43.3451 21.0999C42.5451 19.9999 40.7451 17.2999 38.1451 15.9999V15.9999ZM13.2451 31.5999C12.6451 31.5999 12.1451 31.7999 11.7451 31.8999L8.14512 32.9999L9.04512 29.9999C9.24512 29.1999 9.14512 28.3999 8.54512 27.4999V27.3999C8.44512 27.2999 8.44512 27.1999 8.34512 26.9999C6.84512 24.9999 6.14512 22.6999 6.14512 20.2999C6.14512 13.2999 12.6451 7.5999 20.7451 7.5999C27.6451 7.5999 33.6451 11.7999 35.0451 17.5999C35.2451 18.4999 35.3451 19.3999 35.3451 20.1999C35.3451 27.2999 28.9451 32.9999 21.0451 32.9999C19.8451 32.9999 18.0451 32.5999 17.0451 32.3999C15.9451 32.0999 14.9451 31.7999 14.7451 31.6999C14.1451 31.5999 13.6451 31.5999 13.2451 31.5999V31.5999ZM39.6451 34.0999C39.4451 34.3999 39.0451 35.0999 39.0451 35.6999C39.0451 35.8999 39.0451 35.9999 39.8451 39.5999L36.1451 38.2999C35.5451 38.0999 34.8451 38.0999 34.0451 38.2999H33.9451C32.1451 38.8999 30.4451 39.1999 28.7451 39.1999C26.5451 39.2999 24.3451 38.6999 22.1451 37.5999C21.7451 37.2999 21.1451 36.8999 20.6451 36.4999H21.0451C30.6451 36.4999 38.5451 29.3999 38.7451 20.5999C39.5451 21.4999 40.0451 22.2999 40.3451 22.6999C41.3451 24.3999 41.8451 26.3999 41.8451 28.3999C41.5451 30.3999 40.8451 32.3999 39.6451 34.0999V34.0999Z" fill="#1F2024"/>
</svg>
