<svg width="48" height="48" viewBox="0 0 48 48" fill="none" xmlns="http://www.w3.org/2000/svg">
<path d="M6.19443 28.9501C6.19443 29.0501 6.29443 29.1501 6.39443 29.2501C6.39443 29.2501 6.39443 29.3501 6.49443 29.3501L5.09443 33.7501C4.99443 33.9501 4.89443 34.2501 4.89443 34.6501C4.89443 35.1501 5.09443 35.6501 5.49443 35.9501C5.79443 36.2501 6.39443 36.5501 6.79443 36.5501C6.99443 36.5501 7.19443 36.4501 7.39443 36.4501L12.8944 34.6501C13.1944 34.5501 13.3944 34.5501 13.4944 34.5501H13.9944C14.2944 34.6501 14.9944 34.8501 15.8944 35.1501C15.8944 35.3501 15.9944 35.4501 15.9944 35.6501C16.5944 36.8501 19.1944 39.2501 20.8944 40.2501C23.4944 41.6501 26.2944 42.2501 28.9944 42.1501C30.8944 42.1501 32.8944 41.8501 34.9944 41.1501C35.1944 41.0501 35.3944 41.1501 35.3944 41.1501L40.7944 43.0501C40.8944 43.1501 41.0944 43.1501 41.3944 43.1501C41.8944 43.1501 42.1944 42.9501 42.3944 42.8501L42.5944 42.7501L42.6944 42.6501C42.7944 42.5501 43.1944 42.1501 43.1944 41.6501C43.1944 41.4501 43.2944 41.1501 43.1944 40.7501C42.8944 39.1501 42.2944 36.6501 42.1944 35.8501V35.7501C43.6944 33.6501 44.5944 31.1501 44.6944 28.5501C44.7944 26.0501 44.1944 23.5501 42.7944 21.3501C42.1944 20.3501 40.4944 17.7501 37.9944 16.4501C37.8944 16.4501 37.7944 16.3501 37.6944 16.3501C35.5944 9.5501 28.7944 4.8501 20.7944 4.8501C11.1944 4.8501 3.29443 11.8501 3.29443 20.4501C3.29443 23.5501 4.29443 26.4501 6.19443 28.9501ZM40.7944 22.5501C41.8944 24.3501 42.3944 26.4501 42.2944 28.4501C42.1944 30.5501 41.4944 32.6501 40.1944 34.3501C40.0944 34.5501 39.6944 35.1501 39.6944 35.7501C39.6944 35.8834 39.9944 37.4501 40.5944 40.4501L35.9944 38.8501C35.4944 38.6501 34.8944 38.6501 34.0944 38.8501C32.1944 39.4501 30.4944 39.7501 28.6944 39.7501C26.3944 39.8501 24.0944 39.2501 21.8944 38.1501C21.0944 37.6501 19.9944 36.7501 19.1944 35.9501C19.7944 36.0501 20.3944 36.0501 20.9944 36.0501C30.4944 36.0501 38.1944 29.0501 38.1944 20.3501V19.4501C39.5944 20.5501 40.4944 22.0501 40.7944 22.5501V22.5501ZM20.7944 7.2501C27.8944 7.2501 34.0944 11.6501 35.5944 17.6501C35.7944 18.5501 35.8944 19.4501 35.8944 20.3501C35.8944 27.6501 29.2944 33.6501 21.0944 33.6501C19.7944 33.6501 17.8944 33.2501 16.9944 32.9501C15.9944 32.6501 14.9944 32.3501 14.6944 32.2501C14.1944 32.0501 13.7944 32.0501 13.3944 32.0501C12.8944 32.0501 12.2944 32.2501 11.9944 32.3501L7.49443 33.7501L8.69443 29.8501C8.89443 29.2501 8.69443 28.5501 8.29443 27.8501L8.19443 27.7501C8.19443 27.6501 8.09443 27.5501 7.99443 27.4501C6.49443 25.3501 5.69443 22.9501 5.69443 20.4501C5.69443 13.1501 12.4944 7.2501 20.7944 7.2501V7.2501Z" fill="#1F2024"/>
</svg>
