<svg width="48" height="48" viewBox="0 0 48 48" fill="none" xmlns="http://www.w3.org/2000/svg">
<path d="M42.3252 35.4828C42.3252 35.4828 42.3252 35.4828 42.3252 35.5074C42.3252 35.5074 42.3252 35.5074 42.3252 35.4828ZM7.04881 36.887C7.34278 36.887 7.66125 36.8131 7.93072 36.7145L13.1977 34.9901H13.2467C13.2467 34.9901 13.4917 34.9162 13.6141 34.9162C13.7366 34.9162 13.8346 34.9162 13.9571 34.9655C14.0796 35.0148 15.231 35.4089 16.4559 35.7292C17.1173 35.9016 19.3955 36.4435 21.2329 36.4435C25.9364 36.4435 30.3214 34.793 33.5796 31.763C35.1719 30.3096 36.4458 28.5606 37.3032 26.6391C38.1606 24.7176 38.6016 22.673 38.6016 20.579C38.6016 19.4951 38.4791 18.4112 38.2341 17.3519C37.4257 13.8785 35.2454 10.7007 32.1342 8.43431C28.9496 6.14331 25.03 4.88696 20.9634 4.88696C16.1129 4.88696 11.5808 6.61137 8.22469 9.69066C5.04002 12.6468 3.3252 16.4897 3.3252 20.579C3.3252 23.6091 4.30509 26.5652 6.14241 29.0779L6.2159 29.1764C6.2159 29.1764 6.2404 29.2257 6.26489 29.2257C6.26489 29.2257 6.33839 29.3735 6.36288 29.4228L4.89303 34.2265C4.81954 34.4235 4.79504 34.6206 4.79504 34.8423C4.79504 35.1133 4.84404 35.3843 4.96653 35.6306C5.08901 35.877 5.236 36.0987 5.45648 36.2957C5.65246 36.4928 5.92193 36.6406 6.1914 36.7392C6.46087 36.8377 6.75484 36.887 7.04881 36.887Z" fill="#1F2024"/>
<path d="M36.6033 41.337L41.3313 42.993C41.4304 43.033 41.6749 43.113 41.8593 43.113C42.1953 43.113 42.5073 42.993 42.7953 42.801C42.9873 42.657 43.1313 42.465 43.2033 42.273C43.2753 42.081 43.2993 41.865 43.2513 41.673L42.3633 37.473C42.2913 36.969 42.3153 36.633 42.6513 36.105C43.8033 34.425 44.4753 32.505 44.6433 30.537C44.7873 28.569 44.4273 26.577 43.5633 24.777C43.3473 24.321 42.8673 23.769 42.6753 23.601C42.6033 23.505 42.4593 23.433 42.1473 23.385C42.0513 23.385 41.9793 23.409 41.8833 23.433C41.7633 23.481 41.6433 23.553 41.5713 23.649C41.5233 23.721 41.4753 23.841 41.4753 23.937C41.4753 23.937 41.4993 24.153 41.3553 25.017C40.7793 28.569 38.9313 31.929 36.1233 34.473C32.9793 37.353 28.7793 39.105 24.3393 39.393H23.9073C23.5473 39.393 23.1873 39.417 22.8753 39.489C22.7793 39.513 22.6833 39.561 22.6113 39.609C22.5393 39.657 22.4673 39.705 22.4433 39.777C22.3953 39.849 22.3953 39.945 22.3953 40.017C22.4193 40.113 22.4673 40.185 22.5153 40.257C22.7553 40.521 23.2353 40.713 23.6193 40.857L23.9553 40.977C25.8993 41.817 28.0833 42.249 30.2673 42.249C31.9953 42.249 33.8673 41.937 35.6433 41.337C35.7873 41.289 35.9553 41.265 36.1233 41.265C36.2913 41.265 36.4353 41.289 36.6033 41.337Z" fill="#1F2024"/>
</svg>
