<svg width="48" height="48" viewBox="0 0 48 48" fill="none" xmlns="http://www.w3.org/2000/svg">
<path d="M43.06 21.55C41.63 19.13 39.98 17.44 38.17 16.53C38.07 16.48 37.98 16.45 37.88 16.42C35.69 9.74 28.71 5 20.78 5C15.69 5 10.84 6.94 7.46005 10.33C4.57005 13.23 2.99005 16.97 3.00005 20.85C3.00005 23.95 4.00005 26.94 5.93005 29.56C5.97005 29.6 6.00005 29.65 6.02005 29.68C6.04005 29.71 6.06005 29.74 6.07005 29.77L4.63005 34.47C4.57005 34.66 4.53005 34.85 4.51005 35.05V35.17C4.51005 35.77 4.76005 36.35 5.21005 36.76C5.63005 37.14 6.18005 37.36 6.75005 37.36H6.89005C7.15005 37.33 7.41005 37.27 7.58005 37.2L12.97 35.45C13.1 35.4 13.24 35.38 13.38 35.38C13.5 35.41 13.64 35.4 13.77 35.44C13.94 35.5 14.72 35.76 15.62 36.02C15.64 36.06 15.65 36.1 15.67 36.14C16.37 37.47 19.1 39.94 20.67 40.84C23.16 42.16 25.99 42.86 28.87 42.86H28.88C30.89 42.86 33.04 42.47 35.09 41.74L35.2 41.72L40.42 43.59C40.69 43.7 40.98 43.75 41.25 43.75C41.74 43.75 42.23 43.59 42.64 43.29C42.96 43.04 43.21 42.72 43.35 42.34C43.5 41.95 43.53 41.53 43.45 41.13C43.13 39.61 42.64 37.26 42.43 36.25C43.98 34.1 44.87 31.6 44.99 29.02C45.11 26.4 44.44 23.82 43.06 21.55V21.55ZM13.39 32.37C12.86 32.38 12.38 32.46 11.97 32.62L7.93005 33.94L9.03005 30.37C9.24005 29.67 9.08005 28.91 8.54005 28.06C8.45005 27.92 8.35005 27.79 8.30005 27.73C6.80005 25.69 6.01005 23.31 6.00005 20.85C5.99005 17.77 7.26005 14.78 9.59005 12.45C12.4 9.63 16.48 8.01 20.79 8.01C27.79 8.01 33.89 12.33 35.3 18.28C35.5 19.13 35.61 20 35.61 20.87C35.61 28.06 29.09 33.9 21.08 33.9C19.89 33.9 18.15 33.57 17.02 33.28C15.95 33.01 14.88 32.65 14.76 32.61C14.32 32.46 13.86 32.38 13.4 32.38L13.39 32.37ZM41.99 28.88C41.9 30.9 41.2 32.86 39.95 34.56C39.73 34.87 39.2 35.6 39.41 36.47C39.45 36.66 39.91 38.84 40.22 40.34L36.21 38.9C35.5 38.65 34.72 38.66 34.07 38.92C32.34 39.54 30.54 39.86 28.87 39.86H28.86C26.48 39.86 24.13 39.28 22.12 38.21C21.61 37.92 20.97 37.41 20.35 36.87C20.59 36.89 20.83 36.89 21.06 36.89C30.73 36.89 38.59 29.7 38.59 20.86C38.59 20.76 38.57 20.65 38.57 20.55C39.23 21.22 39.87 22.07 40.48 23.09C41.56 24.86 42.07 26.86 41.98 28.88H41.99Z" fill="#1F2024"/>
</svg>
