<svg width="48" height="48" viewBox="0 0 48 48" fill="none" xmlns="http://www.w3.org/2000/svg">
<path d="M38.1454 16H38.0454C35.8454 9.09999 28.8454 4.39999 20.7454 4.39999C10.8454 4.39999 2.74536 11.6 2.74536 20.5C2.74536 23.7 3.74536 26.7 5.64536 29.3C5.64536 29.4 5.74536 29.4 5.74536 29.5L4.44536 33.6C4.24536 33.9 4.14536 34.2 4.14536 34.7C4.14536 35.3 4.44536 36 4.84536 36.4C5.24536 36.8 5.94536 37.1 6.54536 37.1C6.84536 37.1 7.14536 37 7.34536 37L12.8454 35.2C13.0454 35.1 13.2454 35.1 13.3454 35.1H13.7454C13.9454 35.2 14.6454 35.4 15.3454 35.6C15.3454 35.7 15.4454 35.8 15.4454 35.9C16.1454 37.1 18.7454 39.6 20.4454 40.6H20.5454C23.2454 42 26.1454 42.7 28.8454 42.6C30.8454 42.6 32.8454 42.3 35.0454 41.5H35.1454L40.5454 43.4C40.7454 43.5 40.9454 43.6 41.3454 43.6C41.9454 43.6 42.3454 43.4 42.6454 43.2L42.8454 43.1L43.0454 42.9C43.2454 42.7 43.6454 42.3 43.7454 41.7C43.8454 41.3 43.8454 40.9 43.7454 40.5C43.4454 39 42.9454 36.8 42.7454 35.9C44.2454 33.8 45.1454 31.2 45.2454 28.6C45.3454 26 44.6454 23.4 43.3454 21.1C42.5454 20 40.7454 17.3 38.1454 16V16ZM13.2454 31.6C12.6454 31.6 12.1454 31.8 11.7454 31.9L8.14536 33L9.04536 30C9.24536 29.2 9.14536 28.4 8.54536 27.5V27.4C8.44536 27.3 8.44536 27.2 8.34536 27C6.84536 25 6.14536 22.7 6.14536 20.3C6.14536 13.3 12.6454 7.59999 20.7454 7.59999C27.6454 7.59999 33.6454 11.8 35.0454 17.6C35.2454 18.5 35.3454 19.4 35.3454 20.2C35.3454 27.3 28.9454 33 21.0454 33C19.8454 33 18.0454 32.6 17.0454 32.4C15.9454 32.1 14.9454 31.8 14.7454 31.7C14.1454 31.6 13.6454 31.6 13.2454 31.6V31.6ZM39.6454 34.1C39.4454 34.4 39.0454 35.1 39.0454 35.7C39.0454 35.9 39.0454 36 39.8454 39.6L36.1454 38.3C35.5454 38.1 34.8454 38.1 34.0454 38.3H33.9454C32.1454 38.9 30.4454 39.2 28.7454 39.2C26.5454 39.3 24.3454 38.7 22.1454 37.6C21.7454 37.3 21.1454 36.9 20.6454 36.5H21.0454C30.6454 36.5 38.5454 29.4 38.7454 20.6C39.5454 21.5 40.0454 22.3 40.3454 22.7C41.3454 24.4 41.8454 26.4 41.8454 28.4C41.5454 30.4 40.8454 32.4 39.6454 34.1V34.1Z" fill="#1F2024"/>
</svg>
