<svg width="48" height="48" viewBox="0 0 48 48" fill="none" xmlns="http://www.w3.org/2000/svg">
<path d="M6.19468 28.95C6.19468 29.05 6.29468 29.15 6.39468 29.25C6.39468 29.25 6.39468 29.35 6.49468 29.35L5.09468 33.75C4.99468 33.95 4.89468 34.25 4.89468 34.65C4.89468 35.15 5.09468 35.65 5.49468 35.95C5.79468 36.25 6.39468 36.55 6.79468 36.55C6.99468 36.55 7.19468 36.45 7.39468 36.45L12.8947 34.65C13.1947 34.55 13.3947 34.55 13.4947 34.55H13.9947C14.2947 34.65 14.9947 34.85 15.8947 35.15C15.8947 35.35 15.9947 35.45 15.9947 35.65C16.5947 36.85 19.1947 39.25 20.8947 40.25C23.4947 41.65 26.2947 42.25 28.9947 42.15C30.8947 42.15 32.8947 41.85 34.9947 41.15C35.1947 41.05 35.3947 41.15 35.3947 41.15L40.7947 43.05C40.8947 43.15 41.0947 43.15 41.3947 43.15C41.8947 43.15 42.1947 42.95 42.3947 42.85L42.5947 42.75L42.6947 42.65C42.7947 42.55 43.1947 42.15 43.1947 41.65C43.1947 41.45 43.2947 41.15 43.1947 40.75C42.8947 39.15 42.2947 36.65 42.1947 35.85V35.75C43.6947 33.65 44.5947 31.15 44.6947 28.55C44.7947 26.05 44.1947 23.55 42.7947 21.35C42.1947 20.35 40.4947 17.75 37.9947 16.45C37.8947 16.45 37.7947 16.35 37.6947 16.35C35.5947 9.54998 28.7947 4.84998 20.7947 4.84998C11.1947 4.84998 3.29468 11.85 3.29468 20.45C3.29468 23.55 4.29468 26.45 6.19468 28.95ZM40.7947 22.55C41.8947 24.35 42.3947 26.45 42.2947 28.45C42.1947 30.55 41.4947 32.65 40.1947 34.35C40.0947 34.55 39.6947 35.15 39.6947 35.75C39.6947 35.8833 39.9947 37.45 40.5947 40.45L35.9947 38.85C35.4947 38.65 34.8947 38.65 34.0947 38.85C32.1947 39.45 30.4947 39.75 28.6947 39.75C26.3947 39.85 24.0947 39.25 21.8947 38.15C21.0947 37.65 19.9947 36.75 19.1947 35.95C19.7947 36.05 20.3947 36.05 20.9947 36.05C30.4947 36.05 38.1947 29.05 38.1947 20.35V19.45C39.5947 20.55 40.4947 22.05 40.7947 22.55V22.55ZM20.7947 7.24998C27.8947 7.24998 34.0947 11.65 35.5947 17.65C35.7947 18.55 35.8947 19.45 35.8947 20.35C35.8947 27.65 29.2947 33.65 21.0947 33.65C19.7947 33.65 17.8947 33.25 16.9947 32.95C15.9947 32.65 14.9947 32.35 14.6947 32.25C14.1947 32.05 13.7947 32.05 13.3947 32.05C12.8947 32.05 12.2947 32.25 11.9947 32.35L7.49468 33.75L8.69468 29.85C8.89468 29.25 8.69468 28.55 8.29468 27.85L8.19468 27.75C8.19468 27.65 8.09468 27.55 7.99468 27.45C6.49468 25.35 5.69468 22.95 5.69468 20.45C5.69468 13.15 12.4947 7.24998 20.7947 7.24998V7.24998Z" fill="#1F2024"/>
</svg>
