<svg width="48" height="48" viewBox="0 0 48 48" fill="none" xmlns="http://www.w3.org/2000/svg">
<path d="M42.3254 35.4828C42.3254 35.4828 42.3254 35.4828 42.3254 35.5074C42.3254 35.5074 42.3254 35.5074 42.3254 35.4828ZM7.04906 36.887C7.34303 36.887 7.6615 36.8131 7.93097 36.7145L13.1979 34.9901H13.2469C13.2469 34.9901 13.4919 34.9162 13.6144 34.9162C13.7369 34.9162 13.8349 34.9162 13.9573 34.9655C14.0798 35.0148 15.2312 35.4089 16.4561 35.7292C17.1175 35.9016 19.3958 36.4435 21.2331 36.4435C25.9366 36.4435 30.3217 34.793 33.5798 31.763C35.1722 30.3096 36.446 28.5606 37.3035 26.6391C38.1609 24.7176 38.6018 22.673 38.6018 20.579C38.6018 19.4951 38.4793 18.4112 38.2344 17.3519C37.4259 13.8785 35.2457 10.7007 32.1345 8.43431C28.9498 6.14331 25.0302 4.88696 20.9636 4.88696C16.1131 4.88696 11.5811 6.61137 8.22494 9.69066C5.04026 12.6468 3.32544 16.4897 3.32544 20.579C3.32544 23.6091 4.30534 26.5652 6.14265 29.0779L6.21614 29.1764C6.21614 29.1764 6.24064 29.2257 6.26514 29.2257C6.26514 29.2257 6.33863 29.3735 6.36313 29.4228L4.89328 34.2265C4.81979 34.4235 4.79529 34.6206 4.79529 34.8423C4.79529 35.1133 4.84428 35.3843 4.96677 35.6306C5.08926 35.877 5.23624 36.0987 5.45672 36.2957C5.6527 36.4928 5.92217 36.6406 6.19165 36.7392C6.46112 36.8377 6.75509 36.887 7.04906 36.887Z" fill="#1F2024"/>
<path d="M36.6035 41.337L41.3315 42.993C41.4307 43.033 41.6751 43.113 41.8595 43.113C42.1955 43.113 42.5075 42.993 42.7955 42.801C42.9875 42.657 43.1315 42.465 43.2035 42.273C43.2755 42.081 43.2995 41.865 43.2515 41.673L42.3635 37.473C42.2915 36.969 42.3155 36.633 42.6515 36.105C43.8035 34.425 44.4755 32.505 44.6435 30.537C44.7875 28.569 44.4275 26.577 43.5635 24.777C43.3475 24.321 42.8675 23.769 42.6755 23.601C42.6035 23.505 42.4595 23.433 42.1475 23.385C42.0515 23.385 41.9795 23.409 41.8835 23.433C41.7635 23.481 41.6435 23.553 41.5715 23.649C41.5235 23.721 41.4755 23.841 41.4755 23.937C41.4755 23.937 41.4995 24.153 41.3555 25.017C40.7795 28.569 38.9315 31.929 36.1235 34.473C32.9795 37.353 28.7795 39.105 24.3395 39.393H23.9075C23.5475 39.393 23.1875 39.417 22.8755 39.489C22.7795 39.513 22.6835 39.561 22.6115 39.609C22.5395 39.657 22.4675 39.705 22.4435 39.777C22.3955 39.849 22.3955 39.945 22.3955 40.017C22.4195 40.113 22.4675 40.185 22.5155 40.257C22.7555 40.521 23.2355 40.713 23.6195 40.857L23.9555 40.977C25.8995 41.817 28.0835 42.249 30.2675 42.249C31.9955 42.249 33.8675 41.937 35.6435 41.337C35.7875 41.289 35.9555 41.265 36.1235 41.265C36.2915 41.265 36.4355 41.289 36.6035 41.337Z" fill="#1F2024"/>
</svg>
