<svg width="48" height="48" viewBox="0 0 48 48" fill="none" xmlns="http://www.w3.org/2000/svg">
<path d="M38.1452 16H38.0452C35.8452 9.09999 28.8452 4.39999 20.7452 4.39999C10.8452 4.39999 2.74524 11.6 2.74524 20.5C2.74524 23.7 3.74524 26.7 5.64524 29.3C5.64524 29.4 5.74524 29.4 5.74524 29.5L4.44524 33.6C4.24524 33.9 4.14524 34.2 4.14524 34.7C4.14524 35.3 4.44524 36 4.84524 36.4C5.24524 36.8 5.94524 37.1 6.54524 37.1C6.84524 37.1 7.14524 37 7.34524 37L12.8452 35.2C13.0452 35.1 13.2452 35.1 13.3452 35.1H13.7452C13.9452 35.2 14.6452 35.4 15.3452 35.6C15.3452 35.7 15.4452 35.8 15.4452 35.9C16.1452 37.1 18.7452 39.6 20.4452 40.6H20.5452C23.2452 42 26.1452 42.7 28.8452 42.6C30.8452 42.6 32.8452 42.3 35.0452 41.5H35.1452L40.5452 43.4C40.7452 43.5 40.9452 43.6 41.3452 43.6C41.9452 43.6 42.3452 43.4 42.6452 43.2L42.8452 43.1L43.0452 42.9C43.2452 42.7 43.6452 42.3 43.7452 41.7C43.8452 41.3 43.8452 40.9 43.7452 40.5C43.4452 39 42.9452 36.8 42.7452 35.9C44.2452 33.8 45.1452 31.2 45.2452 28.6C45.3452 26 44.6452 23.4 43.3452 21.1C42.5452 20 40.7452 17.3 38.1452 16V16ZM13.2452 31.6C12.6452 31.6 12.1452 31.8 11.7452 31.9L8.14524 33L9.04524 30C9.24524 29.2 9.14524 28.4 8.54524 27.5V27.4C8.44524 27.3 8.44524 27.2 8.34524 27C6.84524 25 6.14524 22.7 6.14524 20.3C6.14524 13.3 12.6452 7.59999 20.7452 7.59999C27.6452 7.59999 33.6452 11.8 35.0452 17.6C35.2452 18.5 35.3452 19.4 35.3452 20.2C35.3452 27.3 28.9452 33 21.0452 33C19.8452 33 18.0452 32.6 17.0452 32.4C15.9452 32.1 14.9452 31.8 14.7452 31.7C14.1452 31.6 13.6452 31.6 13.2452 31.6V31.6ZM39.6452 34.1C39.4452 34.4 39.0452 35.1 39.0452 35.7C39.0452 35.9 39.0452 36 39.8452 39.6L36.1452 38.3C35.5452 38.1 34.8452 38.1 34.0452 38.3H33.9452C32.1452 38.9 30.4452 39.2 28.7452 39.2C26.5452 39.3 24.3452 38.7 22.1452 37.6C21.7452 37.3 21.1452 36.9 20.6452 36.5H21.0452C30.6452 36.5 38.5452 29.4 38.7452 20.6C39.5452 21.5 40.0452 22.3 40.3452 22.7C41.3452 24.4 41.8452 26.4 41.8452 28.4C41.5452 30.4 40.8452 32.4 39.6452 34.1V34.1Z" fill="#1F2024"/>
</svg>
