<svg width="48" height="48" viewBox="0 0 48 48" fill="none" xmlns="http://www.w3.org/2000/svg">
<path d="M42.8927 42.9468L42.8926 42.9466C42.5843 43.1521 42.239 43.288 41.8595 43.288C41.6431 43.288 41.377 43.1996 41.27 43.1569L36.5506 41.5039C36.3972 41.4604 36.2707 41.44 36.1235 41.44C35.9711 41.44 35.8223 41.4619 35.6992 41.5029C35.6991 41.503 35.699 41.503 35.6988 41.503L35.6435 41.337L42.8927 42.9468ZM42.8927 42.9468L42.9005 42.941M42.8927 42.9468L42.9005 42.941M42.9005 42.941C43.117 42.7786 43.2827 42.5602 43.3674 42.3345C43.4486 42.1177 43.4794 41.8664 43.4221 41.6339L42.5359 37.4425C42.5016 37.2005 42.4929 37.0138 42.5266 36.8295C42.5603 36.6455 42.6388 36.4514 42.7976 36.2015C43.9658 34.4969 44.6474 32.5487 44.8179 30.5519L44.818 30.5498L42.9005 42.941ZM42.1609 23.21L42.1741 23.212C42.4815 23.2593 42.685 23.3354 42.8034 23.4805C42.9114 23.5777 43.0801 23.7607 43.2477 23.9724C43.4222 24.1928 43.6053 24.4565 43.7215 24.7017C43.7215 24.7018 43.7216 24.702 43.7217 24.7021L43.5635 24.777L42.1609 23.21ZM42.1609 23.21H42.1475M42.1609 23.21H42.1475M42.1475 23.21C42.0434 23.21 41.9558 23.2331 41.8815 23.2527C41.8676 23.2564 41.8541 23.26 41.8411 23.2632L41.8295 23.2661M42.1475 23.21L41.8295 23.2661M41.8295 23.2661L41.8185 23.2705M41.8295 23.2661L41.8185 23.2705M41.8185 23.2705C41.6853 23.3238 41.5312 23.4111 41.4315 23.544L41.4313 23.5438M41.8185 23.2705L41.4313 23.5438M41.4313 23.5438L41.4259 23.5519M41.4313 23.5438L41.4259 23.5519M41.4259 23.5519C41.3653 23.6428 41.3005 23.7962 41.3005 23.937V23.9467M41.4259 23.5519L41.3005 23.9467M41.3005 23.9467L41.3013 23.9533M41.3005 23.9467L41.3013 23.9533M41.3013 23.9533L41.3013 23.954M41.3013 23.9533L41.3013 23.954M41.3013 23.954L41.3013 23.9541M41.3013 23.954L41.3013 23.9541M41.3013 23.9541L41.3015 23.9566C41.3017 23.961 41.302 23.97 41.302 23.9843C41.302 24.0129 41.3007 24.0626 41.295 24.1401C41.2835 24.2953 41.2543 24.5598 41.1829 24.9882L41.1828 24.989M41.3013 23.9541L41.1828 24.989M41.1828 24.989C40.6134 28.5001 38.7859 31.8248 36.006 34.3433L36.0053 34.344M41.1828 24.989L36.0053 34.344M36.0053 34.344C32.8934 37.1945 28.7339 38.9313 24.3338 39.218H23.9075C23.5415 39.218 23.1666 39.2422 22.8362 39.3185L22.8361 39.3185M36.0053 34.344L22.8361 39.3185M22.8361 39.3185L22.8331 39.3192M22.8361 39.3185L22.8331 39.3192M22.8331 39.3192C22.7132 39.3492 22.5989 39.4071 22.5144 39.4634L22.5105 39.466C22.4772 39.4882 22.432 39.5183 22.3924 39.5539C22.3544 39.5881 22.3123 39.6354 22.2858 39.6993C22.2197 39.8127 22.2202 39.9446 22.2205 40.007C22.2205 40.0106 22.2205 40.0139 22.2205 40.017V40.0386M22.8331 39.3192L22.2205 40.0386M22.2205 40.0386L22.2257 40.0595M22.2205 40.0386L22.2257 40.0595M22.2257 40.0595C22.2571 40.1851 22.3196 40.2787 22.366 40.3482L22.3699 40.3541L22.3772 40.365M22.2257 40.0595L22.3772 40.365M22.3772 40.365L22.386 40.3747M22.3772 40.365L22.386 40.3747M22.386 40.3747C22.5278 40.5307 22.7308 40.6563 22.9352 40.7585C23.1421 40.862 23.3656 40.9487 23.5581 41.0209L23.5606 41.0218M22.386 40.3747L23.5606 41.0218M23.5606 41.0218L23.8913 41.1399L23.5606 41.0218ZM13.2469 35.1651H13.2727L13.2974 35.1577L13.2974 35.1577L13.2975 35.1577L13.2978 35.1576L13.2995 35.1571L13.3066 35.155L13.3341 35.1472C13.3576 35.1406 13.39 35.1319 13.4258 35.1233C13.5035 35.1045 13.5766 35.0912 13.6144 35.0912C13.7374 35.0912 13.8043 35.0925 13.892 35.1278C14.0237 35.1808 15.1828 35.5771 16.4118 35.8985L16.4119 35.8985C17.0746 36.0713 19.3716 36.6185 21.2331 36.6185C25.9773 36.6185 30.4056 34.9537 33.6984 31.8917C35.3077 30.4227 36.5958 28.6543 37.4633 26.7104C38.3305 24.7668 38.7768 22.6979 38.7768 20.579C38.7768 19.482 38.6529 18.3848 38.4049 17.3125L38.4048 17.3123C37.586 13.7943 35.3795 10.5817 32.2375 8.29286L32.2367 8.29225C29.0215 5.97932 25.066 4.71196 20.9636 4.71196C16.0718 4.71196 11.4969 6.45116 8.10663 9.56171L8.10588 9.5624C4.88756 12.5498 3.15044 16.4384 3.15044 20.579C3.15044 23.6473 4.1428 26.6394 6.00138 29.1812L6.00237 29.1825L6.06873 29.2715L6.06898 29.2719C6.07384 29.2803 6.08135 29.2925 6.09117 29.3057C6.0993 29.3166 6.11258 29.333 6.13098 29.3489L6.13101 29.349L6.13123 29.3494L6.13145 29.3499L6.13166 29.3503L6.13188 29.3507L6.1321 29.3512L6.13232 29.3516L6.13254 29.3521L6.13276 29.3525L6.13299 29.353L6.13321 29.3534L6.13343 29.3539L6.13365 29.3543L6.13388 29.3548L6.1341 29.3552L6.13433 29.3557L6.13455 29.3561L6.13478 29.3566L6.13501 29.357L6.13524 29.3575L6.13546 29.358L6.13569 29.3584L6.13592 29.3589L6.13615 29.3593L6.13638 29.3598L6.13661 29.3603L6.13685 29.3607L6.13708 29.3612L6.13731 29.3617L6.13754 29.3621L6.13778 29.3626L6.13801 29.3631L6.13825 29.3636L6.13848 29.364L6.13872 29.3645L6.13896 29.365L6.13919 29.3654L6.13943 29.3659L6.13967 29.3664L6.13991 29.3669L6.14014 29.3674L6.14038 29.3678L6.14062 29.3683L6.14086 29.3688L6.1411 29.3693L6.14134 29.3698L6.14159 29.3703L6.14183 29.3708L6.14207 29.3712L6.14231 29.3717L6.14256 29.3722L6.1428 29.3727L6.14304 29.3732L6.14329 29.3737L6.14353 29.3742L6.14378 29.3747L6.14402 29.3752L6.14427 29.3757L6.14451 29.3762L6.14476 29.3766L6.14501 29.3771L6.14526 29.3776L6.1455 29.3781L6.14575 29.3786L6.146 29.3791L6.14625 29.3796L6.1465 29.3801L6.14675 29.3806L6.147 29.3811L6.14725 29.3816L6.1475 29.3821L6.14775 29.3827L6.148 29.3832L6.14825 29.3837L6.1485 29.3842L6.14875 29.3847L6.149 29.3852L6.14926 29.3857L6.14951 29.3862L6.14976 29.3867L6.15001 29.3872L6.15027 29.3877L6.15052 29.3882L6.15077 29.3887L6.15103 29.3893L6.15128 29.3898L6.15154 29.3903L6.15179 29.3908L6.15204 29.3913L6.1523 29.3918L6.15255 29.3923L6.15281 29.3928L6.15307 29.3934L6.15332 29.3939L6.15358 29.3944L6.15383 29.3949L6.15409 29.3954L6.15435 29.3959L6.1546 29.3964L6.15486 29.397L6.15511 29.3975L6.15537 29.398L6.15563 29.3985L6.15589 29.399L6.15614 29.3995L6.1564 29.4001L6.15666 29.4006L6.15691 29.4011L6.15717 29.4016L6.15743 29.4021L6.15769 29.4026L6.15795 29.4032L6.1582 29.4037L6.15846 29.4042L6.15872 29.4047L6.15898 29.4052L6.15924 29.4058L6.15949 29.4063L6.15975 29.4068L6.16001 29.4073L6.16027 29.4078L6.16053 29.4084L6.16079 29.4089L6.16104 29.4094L6.1613 29.4099L6.16156 29.4104L6.16182 29.411L6.16208 29.4115L6.16234 29.412L6.16259 29.4125L6.16285 29.413L6.16311 29.4136L6.16337 29.4141L6.16363 29.4146L6.16389 29.4151L6.16414 29.4156L6.1644 29.4161L6.16466 29.4167L6.16492 29.4172L6.16518 29.4177L6.16543 29.4182L6.16569 29.4187L6.16595 29.4193L6.16621 29.4198L6.16646 29.4203L6.16672 29.4208L6.16698 29.4213L6.16723 29.4218L6.16749 29.4224L6.16775 29.4229L6.168 29.4234L6.16826 29.4239L6.16852 29.4244L6.16877 29.4249L6.16903 29.4255L6.16929 29.426L6.16954 29.4265L6.1698 29.427L6.17005 29.4275L6.17031 29.428L6.17056 29.4285L6.17082 29.4291L6.17107 29.4296L6.17133 29.4301L6.17158 29.4306L6.17183 29.4311L6.17209 29.4316L6.17234 29.4321L6.17259 29.4326L6.17285 29.4331L6.1731 29.4336L6.17335 29.4342L6.1736 29.4347L6.17386 29.4352L6.17411 29.4357L6.17436 29.4362L6.17461 29.4367L6.17486 29.4372L6.17511 29.4377L6.17536 29.4382L6.17538 29.4382L4.72743 34.1704C4.64593 34.3912 4.62029 34.6089 4.62029 34.8423C4.62029 35.1339 4.67297 35.4328 4.81007 35.7085C4.93854 35.9669 5.09669 36.2076 5.3363 36.4228C5.55572 36.642 5.84867 36.8001 6.13155 36.9035C6.42154 37.0096 6.73597 37.062 7.04906 37.062C7.36839 37.062 7.70656 36.9826 7.98822 36.8799L13.2258 35.1651H13.2469Z" fill="#1F2024" stroke="#1F2024" stroke-width="0.35"/>
</svg>
