<svg width="48" height="48" viewBox="0 0 48 48" fill="none" xmlns="http://www.w3.org/2000/svg">
<path d="M24 43.2C34.6 43.2 43.2 34.6 43.2 24C43.2 13.4 34.6 4.8 24 4.8C13.4 4.8 4.79999 13.4 4.79999 24C4.79999 34.6 13.4 43.2 24 43.2ZM24 7.2C33.3 7.2 40.8 14.7 40.8 24C40.8 33.3 33.3 40.8 24 40.8C14.7 40.8 7.19999 33.3 7.19999 24C7.19999 14.7 14.7 7.2 24 7.2Z" fill="#1F2024"/>
<path d="M19.4 32.4C19.7 32.7 20 32.8 20.4 32.8C20.8 32.8 21.2 32.6 21.4 32.3L34 17.3C34.5 16.7 34.4 15.9 33.8 15.4C33.2 14.9 32.4 15 31.9 15.6L20.3 29.4L15.9 24.6C15.4 24 14.5 24 14 24.5C13.4 25 13.4 25.9 13.9 26.4L19.4 32.4Z" fill="#1F2024"/>
</svg>
