<svg width="48" height="48" viewBox="0 0 48 48" fill="none" xmlns="http://www.w3.org/2000/svg">
<path d="M24.5 44C13.75 44 5 35.25 5 24.5C5 13.75 13.75 5 24.5 5C35.25 5 44 13.75 44 24.5C44 35.25 35.25 44 24.5 44ZM24.5 8C15.4 8 8 15.4 8 24.5C8 33.6 15.4 41 24.5 41C33.6 41 41 33.6 41 24.5C41 15.4 33.6 8 24.5 8Z" fill="#1F2024"/>
<path d="M20.9 33.5C20.48 33.5 20.07 33.32 19.79 33L14.39 27C13.84 26.38 13.89 25.44 14.5 24.88C15.12 24.33 16.06 24.38 16.62 24.99L20.87 29.71L32.36 16.03C32.89 15.4 33.84 15.31 34.47 15.85C35.1 16.38 35.19 17.33 34.65 17.96L22.05 32.96C21.77 33.29 21.36 33.49 20.93 33.5H20.9Z" fill="#1F2024"/>
</svg>
