<svg width="48" height="48" viewBox="0 0 48 48" fill="none" xmlns="http://www.w3.org/2000/svg">
<path d="M23.9998 43.2001C34.5998 43.2001 43.1998 34.6 43.1998 24C43.1998 13.4 34.5998 4.80005 23.9998 4.80005C13.3998 4.80005 4.7998 13.4 4.7998 24C4.7998 34.6 13.3998 43.2001 23.9998 43.2001ZM23.9998 7.20005C33.2998 7.20005 40.7998 14.7 40.7998 24C40.7998 33.3 33.2998 40.8 23.9998 40.8C14.6998 40.8 7.1998 33.3 7.1998 24C7.1998 14.7 14.6998 7.20005 23.9998 7.20005Z" fill="#1F2024"/>
<path d="M19.3998 32.4C19.6998 32.7 19.9998 32.8 20.3998 32.8C20.7998 32.8 21.1998 32.6 21.3998 32.3L33.9998 17.3C34.4998 16.7 34.3998 15.9 33.7998 15.4C33.1998 14.9 32.3998 15 31.8998 15.6L20.2998 29.4L15.8998 24.6C15.3998 24 14.4998 24 13.9998 24.5C13.3998 25 13.3998 25.9 13.8998 26.4L19.3998 32.4Z" fill="#1F2024"/>
</svg>
