<svg width="48" height="48" viewBox="0 0 48 48" fill="none" xmlns="http://www.w3.org/2000/svg">
<path d="M23.5 4C12.75 4 4 12.75 4 23.5C4 34.25 12.75 43 23.5 43C34.25 43 43 34.25 43 23.5C43 12.75 34.25 4 23.5 4ZM33.65 16.96L21.05 31.96C20.91 32.12 20.74 32.26 20.55 32.35C20.36 32.44 20.14 32.49 19.93 32.49H19.9C19.69 32.49 19.48 32.45 19.29 32.36C19.1 32.27 18.93 32.15 18.79 31.99L13.39 25.99C13.25 25.85 13.15 25.67 13.08 25.49C13.01 25.3 12.98 25.1 12.99 24.9C12.99 24.7 13.05 24.5 13.13 24.32C13.21 24.14 13.34 23.98 13.48 23.84C13.63 23.71 13.8 23.6 13.99 23.54C14.18 23.47 14.38 23.45 14.58 23.46C14.78 23.47 14.98 23.53 15.15 23.61C15.33 23.7 15.49 23.82 15.62 23.98L19.87 28.7L31.36 15.02C31.62 14.72 31.98 14.54 32.37 14.51C32.76 14.48 33.15 14.6 33.45 14.86C33.75 15.11 33.94 15.48 33.98 15.87C34.02 16.26 33.9 16.65 33.65 16.96Z" fill="#1F2024"/>
</svg>
