<svg width="48" height="48" viewBox="0 0 48 48" fill="none" xmlns="http://www.w3.org/2000/svg">
<path d="M24 4.29999C13.1 4.29999 4.30005 13.1 4.30005 24C4.30005 34.9 13.1 43.7 24 43.7C34.9 43.7 43.7001 34.9 43.7001 24C43.7001 13.1 34.9 4.29999 24 4.29999ZM24 40.3C15 40.3 7.70005 33 7.70005 24C7.70005 15 15 7.69999 24 7.69999C33 7.69999 40.3 15 40.3 24C40.3 33 33 40.3 24 40.3Z" fill="#1F2024"/>
<path d="M31.8 15.5L20.4 29.1L16.2 24.5C15.6 23.8 14.6 23.8 13.9 24.4C13.2 25 13.2 26 13.8 26.7L19.2 32.7C19.5 33 19.9 33.2 20.4 33.2C20.9 33.2 21.3 33 21.6 32.6L34.2 17.6C34.8 16.9 34.7 15.9 34 15.3C33.4 14.7 32.3 14.8 31.8 15.5Z" fill="#1F2024"/>
</svg>
