<svg width="48" height="48" viewBox="0 0 48 48" fill="none" xmlns="http://www.w3.org/2000/svg">
<path d="M23.9998 4.30005C13.0998 4.30005 4.2998 13.1 4.2998 24C4.2998 34.9 13.0998 43.7001 23.9998 43.7001C34.8998 43.7001 43.6998 34.9 43.6998 24C43.6998 13.1 34.8998 4.30005 23.9998 4.30005ZM23.9998 40.3C14.9998 40.3 7.6998 33 7.6998 24C7.6998 15 14.9998 7.70005 23.9998 7.70005C32.9998 7.70005 40.2998 15 40.2998 24C40.2998 33 32.9998 40.3 23.9998 40.3Z" fill="#1F2024"/>
<path d="M31.7998 15.5L20.3998 29.1L16.1998 24.5C15.5998 23.8 14.5998 23.8 13.8998 24.4C13.1998 25 13.1998 26 13.7998 26.7L19.1998 32.7C19.4998 33 19.8998 33.2 20.3998 33.2C20.8998 33.2 21.2998 33 21.5998 32.6L34.1998 17.6C34.7998 16.9 34.6998 15.9 33.9998 15.3C33.3998 14.7 32.2998 14.8 31.7998 15.5Z" fill="#1F2024"/>
</svg>
