<svg width="48" height="48" viewBox="0 0 48 48" fill="none" xmlns="http://www.w3.org/2000/svg">
<path d="M24 3.99988C12.96 3.99988 4 12.9599 4 23.9999C4 35.0399 12.96 43.9999 24 43.9999C35.04 43.9999 44 35.0399 44 23.9999C44 12.9599 35.04 3.99988 24 3.99988ZM31.26 31.2799C30.92 31.5999 30.46 31.7799 30.02 31.7799C29.54 31.7799 29.06 31.5999 28.72 31.2199L22.7 24.8399C22.38 24.4999 22.2 24.0599 22.2 23.5999V13.9999C22.2 12.9999 23 12.1999 24 12.1999C25 12.1999 25.8 12.9999 25.8 13.9999V22.8799L31.34 28.7399C32.02 29.4599 32 30.5999 31.26 31.2799Z" fill="#1F2024"/>
</svg>
