<svg width="48" height="48" viewBox="0 0 48 48" fill="none" xmlns="http://www.w3.org/2000/svg">
<path d="M23.9998 4.30005C13.0998 4.30005 4.2998 13.1 4.2998 24C4.2998 34.9 13.0998 43.7001 23.9998 43.7001C34.8998 43.7001 43.6998 34.9 43.6998 24C43.6998 13.1 34.8998 4.30005 23.9998 4.30005ZM23.9998 40.3C14.9998 40.3 7.6998 33 7.6998 24C7.6998 15 14.9998 7.70005 23.9998 7.70005C32.9998 7.70005 40.2998 15 40.2998 24C40.2998 33 32.9998 40.3 23.9998 40.3Z" fill="#1F2024"/>
<path d="M25.7998 23.6V14C25.7998 13 24.9998 12.1 23.9998 12.1C22.9998 12.1 22.1998 12.9 22.1998 14V24.4C22.1998 24.9 22.3998 25.4 22.6998 25.7L29.1998 32.2C29.5998 32.6 29.9998 32.7 30.4998 32.7C30.9998 32.7 31.3998 32.5 31.7998 32.2C32.4998 31.5 32.4998 30.3 31.7998 29.6L25.7998 23.6Z" fill="#1F2024"/>
</svg>
