<svg width="48" height="48" viewBox="0 0 48 48" fill="none" xmlns="http://www.w3.org/2000/svg">
<path d="M24 4C12.96 4 4 12.96 4 24C4 35.04 12.96 44 24 44C35.04 44 44 35.04 44 24C44 12.96 35.04 4 24 4ZM24 40.4C14.96 40.4 7.6 33.04 7.6 24C7.6 14.96 14.96 7.6 24 7.6C33.04 7.6 40.4 14.96 40.4 24C40.4 33.04 33.04 40.4 24 40.4ZM25.8 22.88V14C25.8 13 25 12.2 24 12.2C23 12.2 22.2 13 22.2 14V23.6C22.2 24.06 22.38 24.5 22.7 24.84L28.72 31.22C29.08 31.6 29.56 31.78 30.02 31.78C30.46 31.78 30.9 31.62 31.26 31.28C31.98 30.6 32.02 29.46 31.34 28.74L25.8 22.88Z" fill="#1F2024"/>
</svg>
