<svg width="48" height="48" viewBox="0 0 48 48" fill="none" xmlns="http://www.w3.org/2000/svg">
<path d="M23.9998 43.2001C34.5998 43.2001 43.1998 34.6 43.1998 24C43.1998 13.4 34.5998 4.80005 23.9998 4.80005C13.3998 4.80005 4.7998 13.4 4.7998 24C4.7998 34.6 13.3998 43.2001 23.9998 43.2001ZM23.9998 7.20005C33.2998 7.20005 40.7998 14.7 40.7998 24C40.7998 33.3 33.2998 40.8 23.9998 40.8C14.6998 40.8 7.1998 33.3 7.1998 24C7.1998 14.7 14.6998 7.20005 23.9998 7.20005Z" fill="#1F2024"/>
<path d="M30.4998 32.4001C30.1498 32.4001 29.7698 32.23 29.4698 31.93L22.9698 25.43C22.6698 25.13 22.4998 24.76 22.4998 24.4V14C22.4998 13.16 23.1598 12.5 23.9998 12.5C24.8398 12.5 25.4998 13.16 25.4998 14V23.7L31.5298 29.7701C32.0898 30.4201 32.0898 31.37 31.5298 31.93C31.2298 32.23 30.8598 32.4001 30.4998 32.4001Z" fill="#1F2024"/>
</svg>
