<svg width="48" height="48" viewBox="0 0 48 48" fill="none" xmlns="http://www.w3.org/2000/svg">
<path d="M26.5537 23.9975L35.7737 14.7675C36.4737 14.0675 36.4737 12.9275 35.7737 12.2175C35.0737 11.5175 33.9337 11.5175 33.2237 12.2175L24.0037 21.4475L14.7737 12.2275C14.0737 11.5175 12.9337 11.5175 12.2337 12.2275C11.5237 12.9275 11.5237 14.0675 12.2337 14.7675L21.4537 23.9975L12.2337 33.2275C11.5337 33.9275 11.5337 35.0675 12.2337 35.7775C12.5837 36.1275 13.0437 36.3075 13.5037 36.3075C13.9637 36.3075 14.4237 36.1275 14.7737 35.7775L24.0037 26.5475L33.2337 35.7775C33.5837 36.1275 34.0437 36.3075 34.5037 36.3075C34.9637 36.3075 35.4237 36.1275 35.7737 35.7775C36.4737 35.0775 36.4737 33.9375 35.7737 33.2275L26.5537 23.9975Z" fill="#1F2024"/>
</svg>
