<svg width="48" height="48" viewBox="0 0 48 48" fill="none" xmlns="http://www.w3.org/2000/svg">
<path d="M12.43 37.5701C11.9 37.5701 11.39 37.3601 11.02 36.9901C10.24 36.2001 10.25 34.9301 11.02 34.1501L21.16 24.0001L11.02 13.8501C10.25 13.0601 10.25 11.8001 11.02 11.0201C11.4 10.6401 11.9 10.4301 12.43 10.4301C12.96 10.4301 13.46 10.6401 13.84 11.0201L23.99 21.1701L34.14 11.0201C34.52 10.6401 35.02 10.4301 35.55 10.4301C36.08 10.4301 36.59 10.6401 36.97 11.0101C37.75 11.8001 37.74 13.0701 36.97 13.8501L26.83 24.0001L36.97 34.1501C37.35 34.5201 37.56 35.0201 37.56 35.5601C37.56 36.1001 37.35 36.6001 36.97 36.9701C36.59 37.3501 36.09 37.5601 35.56 37.5601C35.03 37.5601 34.53 37.3501 34.15 36.9701L24 26.8301L13.86 36.9801C13.48 37.3601 12.97 37.5701 12.43 37.5701Z" fill="#1F2024"/>
</svg>
