<svg width="48" height="48" viewBox="0 0 48 48" fill="none" xmlns="http://www.w3.org/2000/svg">
<path d="M21.4462 24.0027L11.1681 34.2908C10.4681 34.9908 10.4632 36.1357 11.1632 36.8457C11.8632 37.5457 13.0081 37.5408 13.7181 36.8408L23.9962 26.5527L34.2881 36.8346C34.9881 37.5446 36.1238 37.5403 36.8238 36.8303C37.5338 36.1303 37.538 34.9946 36.828 34.2946L26.5462 24.0027L36.8234 13.7155C37.5234 13.0155 37.5282 11.8707 36.8282 11.1607C36.4782 10.8107 36.0135 10.6355 35.5535 10.6355C35.0935 10.6355 34.6355 10.8135 34.2855 11.1635L23.9962 21.4527L13.7036 11.1601C13.3536 10.8101 12.8955 10.6321 12.4355 10.6321C11.9755 10.6321 11.5178 10.8144 11.1678 11.1644C10.4678 11.8644 10.4656 13.0022 11.1656 13.7122L21.4462 24.0027Z" fill="#1F2024"/>
</svg>
