<svg width="48" height="48" viewBox="0 0 48 48" fill="none" xmlns="http://www.w3.org/2000/svg">
<path d="M12.4301 37.0701C12.0301 37.0701 11.6501 36.9201 11.3701 36.6401C10.7901 36.0501 10.7901 35.0901 11.3701 34.5101L21.8701 24.0001L11.3801 13.5001C10.8001 12.9101 10.8001 11.9601 11.3801 11.3801C11.6701 11.0901 12.0401 10.9401 12.4401 10.9401C12.8401 10.9401 13.2101 11.1001 13.5001 11.3801L24.0001 21.8701L34.5001 11.3701C34.7801 11.0901 35.1601 10.9301 35.5501 10.9301C35.9401 10.9301 36.3301 11.0901 36.6101 11.3701C37.1901 11.9601 37.1901 12.9201 36.6101 13.5001L26.1201 24.0001L36.6101 34.5001C36.9001 34.7801 37.0501 35.1501 37.0501 35.5501C37.0501 35.9501 36.8901 36.3301 36.6101 36.6101C36.3201 36.9001 35.9501 37.0601 35.5501 37.0601C35.1501 37.0601 34.7801 36.9001 34.5001 36.6201L24.0001 26.1301L13.5001 36.6301C13.2101 36.9101 12.8301 37.0701 12.4301 37.0701Z" fill="#1F2024"/>
</svg>
