<svg width="48" height="48" viewBox="0 0 48 48" fill="none" xmlns="http://www.w3.org/2000/svg">
<path d="M12.3502 35.525C12.6502 35.825 13.0502 35.925 13.4502 35.925C13.8502 35.925 14.2502 35.825 14.5502 35.525L23.9502 26.125L33.3502 35.525C33.6502 35.825 34.0502 35.925 34.4502 35.925C34.8502 35.925 35.2502 35.825 35.5502 35.525C36.1502 34.925 36.1502 34.025 35.5502 33.425L26.1502 24.025L35.5502 14.625C36.1502 14.025 36.1502 13.125 35.5502 12.525C34.9502 11.925 34.0502 11.925 33.4502 12.525L24.0502 21.925L14.6502 12.525C14.0502 11.925 13.1502 11.925 12.5502 12.525C11.9502 13.125 11.9502 14.025 12.5502 14.625L21.9502 24.025L12.5502 33.425C11.8502 33.925 11.8502 34.925 12.3502 35.525V35.525Z" fill="#1F2024"/>
</svg>
