<svg width="48" height="48" viewBox="0 0 48 48" fill="none" xmlns="http://www.w3.org/2000/svg">
<path d="M26.8501 24.3L36.0701 15.07C36.7701 14.37 36.7701 13.23 36.0701 12.52C35.3701 11.82 34.2301 11.82 33.5201 12.52L24.3001 21.75L15.0701 12.53C14.3701 11.82 13.2301 11.82 12.5301 12.53C11.8201 13.23 11.8201 14.37 12.5301 15.07L21.7501 24.3L12.5301 33.53C11.8301 34.23 11.8301 35.37 12.5301 36.08C12.8801 36.43 13.3401 36.61 13.8001 36.61C14.2601 36.61 14.7201 36.43 15.0701 36.08L24.3001 26.85L33.5301 36.08C33.8801 36.43 34.3401 36.61 34.8001 36.61C35.2601 36.61 35.7201 36.43 36.0701 36.08C36.7701 35.38 36.7701 34.24 36.0701 33.53L26.8501 24.3Z" fill="#1F2024"/>
</svg>
