<svg width="48" height="48" viewBox="0 0 48 48" fill="none" xmlns="http://www.w3.org/2000/svg">
<path d="M21.4463 24.0027L11.1682 34.2908C10.4682 34.9908 10.4633 36.1357 11.1633 36.8457C11.8633 37.5457 13.0082 37.5408 13.7182 36.8408L23.9963 26.5527L34.2882 36.8346C34.9882 37.5446 36.1239 37.5403 36.8239 36.8303C37.5339 36.1303 37.5381 34.9946 36.8281 34.2946L26.5463 24.0027L36.8235 13.7155C37.5235 13.0155 37.5284 11.8707 36.8284 11.1607C36.4784 10.8107 36.0136 10.6355 35.5536 10.6355C35.0936 10.6355 34.6356 10.8135 34.2856 11.1635L23.9963 21.4527L13.7037 11.1601C13.3537 10.8101 12.8957 10.6321 12.4357 10.6321C11.9757 10.6321 11.518 10.8144 11.168 11.1644C10.468 11.8644 10.4658 13.0022 11.1658 13.7122L21.4463 24.0027Z" fill="#1F2024"/>
</svg>
