<svg width="48" height="48" viewBox="0 0 48 48" fill="none" xmlns="http://www.w3.org/2000/svg">
<path d="M35.9 12.1C35.1 11.3 33.9 11.3 33.1 12.1L24 21.2L14.9 12.1C14.1 11.3 12.9 11.3 12.1 12.1C11.3 12.9 11.3 14.1 12.1 14.9L21.2 24L12.1 33.1C11.3 33.9 11.3 35.1 12.1 35.9C12.5 36.3 13 36.5 13.5 36.5C14 36.5 14.5 36.3 14.9 35.9L24 26.8L33.1 35.9C33.5 36.3 34 36.5 34.5 36.5C35 36.5 35.5 36.3 35.9 35.9C36.7 35.1 36.7 33.9 35.9 33.1L26.8 24L35.9 14.9C36.7 14.1 36.7 12.9 35.9 12.1V12.1Z" fill="#1F2024"/>
</svg>
