<svg width="48" height="48" viewBox="0 0 48 48" fill="none" xmlns="http://www.w3.org/2000/svg">
<path d="M42.385 9.77999C41.255 8.64999 39.715 7.96999 38.125 7.88999C38.025 7.86999 37.915 7.85999 37.815 7.85999H10.175C8.46499 7.85999 6.84499 8.52999 5.62499 9.74999C4.42499 10.95 3.73499 12.61 3.73499 14.3V30.76C3.73499 32.48 4.40499 34.09 5.62499 35.31C6.84499 36.53 8.48499 37.2 10.175 37.2H11.365V41.81C11.365 42.39 11.685 42.92 12.195 43.2C12.425 43.32 12.675 43.38 12.935 43.38C13.245 43.38 13.545 43.29 13.815 43.11L22.555 37.22H37.825C39.535 37.22 41.155 36.55 42.375 35.33C43.575 34.13 44.265 32.47 44.265 30.78V14.33C44.265 12.61 43.595 11 42.375 9.77999H42.385ZM16.005 24.25C14.755 24.25 13.745 23.24 13.745 21.99C13.745 20.74 14.755 19.73 16.005 19.73C17.255 19.73 18.265 20.74 18.265 21.99C18.265 23.24 17.255 24.25 16.005 24.25ZM23.995 24.25C22.745 24.25 21.735 23.24 21.735 21.99C21.735 20.74 22.745 19.73 23.995 19.73C25.245 19.73 26.255 20.74 26.255 21.99C26.255 23.24 25.245 24.25 23.995 24.25ZM31.955 24.25C30.705 24.25 29.695 23.24 29.695 21.99C29.695 20.74 30.705 19.73 31.955 19.73C33.205 19.73 34.215 20.74 34.215 21.99C34.215 23.24 33.205 24.25 31.955 24.25Z" fill="#1F2024"/>
</svg>
