<svg width="48" height="48" viewBox="0 0 48 48" fill="none" xmlns="http://www.w3.org/2000/svg">
<path d="M42.3849 9.77986C41.2549 8.64986 39.7149 7.96986 38.1249 7.88986C38.0249 7.86986 37.9149 7.85986 37.8149 7.85986H10.1749C8.46486 7.85986 6.84486 8.52986 5.62486 9.74986C4.42486 10.9499 3.73486 12.6099 3.73486 14.2999V30.7599C3.73486 32.4799 4.40486 34.0899 5.62486 35.3099C6.84486 36.5299 8.48486 37.1999 10.1749 37.1999H11.3649V41.8099C11.3649 42.3899 11.6849 42.9199 12.1949 43.1999C12.4249 43.3199 12.6749 43.3799 12.9349 43.3799C13.2449 43.3799 13.5449 43.2899 13.8149 43.1099L22.5549 37.2199H37.8249C39.5349 37.2199 41.1549 36.5499 42.3749 35.3299C43.5749 34.1299 44.2649 32.4699 44.2649 30.7799V14.3299C44.2649 12.6099 43.5949 10.9999 42.3749 9.77986H42.3849ZM16.0049 24.2499C14.7549 24.2499 13.7449 23.2399 13.7449 21.9899C13.7449 20.7399 14.7549 19.7299 16.0049 19.7299C17.2549 19.7299 18.2649 20.7399 18.2649 21.9899C18.2649 23.2399 17.2549 24.2499 16.0049 24.2499ZM23.9949 24.2499C22.7449 24.2499 21.7349 23.2399 21.7349 21.9899C21.7349 20.7399 22.7449 19.7299 23.9949 19.7299C25.2449 19.7299 26.2549 20.7399 26.2549 21.9899C26.2549 23.2399 25.2449 24.2499 23.9949 24.2499ZM31.9549 24.2499C30.7049 24.2499 29.6949 23.2399 29.6949 21.9899C29.6949 20.7399 30.7049 19.7299 31.9549 19.7299C33.2049 19.7299 34.2149 20.7399 34.2149 21.9899C34.2149 23.2399 33.2049 24.2499 31.9549 24.2499Z" fill="#1F2024"/>
</svg>
