<svg width="48" height="48" viewBox="0 0 48 48" fill="none" xmlns="http://www.w3.org/2000/svg">
<path d="M12.9501 41.4201C12.7501 41.4201 12.5401 41.3701 12.3501 41.2701C11.9401 41.0501 11.6801 40.6201 11.6801 40.1501V35.2201H10.1501C8.57008 35.2201 6.96008 34.5601 5.85008 33.4501C4.71008 32.3101 4.08008 30.7801 4.08008 29.1501V12.6501C4.08008 11.0701 4.74008 9.46008 5.85008 8.35008C6.96008 7.24008 8.52008 6.58008 10.1501 6.58008H37.7501C39.2601 6.58008 40.8801 7.22008 42.0901 8.30008C43.2901 9.49008 43.9201 11.0201 43.9201 12.6501V29.1501C43.9201 30.7301 43.2601 32.3401 42.1501 33.4501C41.0101 34.5901 39.4801 35.2201 37.8501 35.2201H22.5401L13.6601 41.2001C13.4501 41.3401 13.2001 41.4201 12.9501 41.4201ZM10.1501 9.12008C9.20008 9.12008 8.31008 9.49008 7.65008 10.1501C7.02008 10.7801 6.62008 11.7401 6.62008 12.6501V29.1501C6.62008 30.1001 6.99008 30.9901 7.65008 31.6501C8.31008 32.3101 9.24008 32.6801 10.1501 32.6801H12.9501C13.6501 32.6801 14.2201 33.2501 14.2201 33.9501V37.7601L21.0701 33.1401C21.4201 32.8501 21.8901 32.6801 22.3501 32.6801H37.8501C38.8001 32.6801 39.6901 32.3101 40.3501 31.6501C40.9801 31.0201 41.3801 30.0601 41.3801 29.1501V12.6501C41.3801 11.7001 41.0101 10.8101 40.3501 10.1501C39.6601 9.54008 38.6401 9.12008 37.7501 9.12008H10.1501Z" fill="#1F2024"/>
<path d="M13.8301 20.4501C13.8301 19.3001 14.8001 18.3301 15.9501 18.3301C17.1001 18.3301 18.0701 19.3001 18.0701 20.4501C18.0701 21.6001 17.1001 22.5701 15.9501 22.5701C14.8001 22.5701 13.8301 21.6001 13.8301 20.4501Z" fill="#1F2024"/>
<path d="M21.8301 20.4501C21.8301 19.3001 22.8001 18.3301 23.9501 18.3301C25.1001 18.3301 26.0701 19.3001 26.0701 20.4501C26.0701 21.6001 25.1001 22.5701 23.9501 22.5701C22.8001 22.5701 21.8301 21.6001 21.8301 20.4501Z" fill="#1F2024"/>
<path d="M29.8301 20.4501C29.8301 19.3001 30.8001 18.3301 31.9501 18.3301C33.1001 18.3301 34.0701 19.3001 34.0701 20.4501C34.0701 21.6001 33.1001 22.5701 31.9501 22.5701C30.8001 22.5701 29.8301 21.6001 29.8301 20.4501Z" fill="#1F2024"/>
</svg>
