<svg width="48" height="48" viewBox="0 0 48 48" fill="none" xmlns="http://www.w3.org/2000/svg">
<path d="M42.3851 9.77999C41.2551 8.64999 39.7151 7.96999 38.1251 7.88999C38.0251 7.86999 37.9151 7.85999 37.8151 7.85999H10.1751C8.46511 7.85999 6.84511 8.52999 5.62511 9.74999C4.42511 10.95 3.73511 12.61 3.73511 14.3V30.76C3.73511 32.48 4.40511 34.09 5.62511 35.31C6.84511 36.53 8.48511 37.2 10.1751 37.2H11.3651V41.81C11.3651 42.39 11.6851 42.92 12.1951 43.2C12.4251 43.32 12.6751 43.38 12.9351 43.38C13.2451 43.38 13.5451 43.29 13.8151 43.11L22.5551 37.22H37.8251C39.5351 37.22 41.1551 36.55 42.3751 35.33C43.5751 34.13 44.2651 32.47 44.2651 30.78V14.33C44.2651 12.61 43.5951 11 42.3751 9.77999H42.3851ZM16.0051 24.25C14.7551 24.25 13.7451 23.24 13.7451 21.99C13.7451 20.74 14.7551 19.73 16.0051 19.73C17.2551 19.73 18.2651 20.74 18.2651 21.99C18.2651 23.24 17.2551 24.25 16.0051 24.25ZM23.9951 24.25C22.7451 24.25 21.7351 23.24 21.7351 21.99C21.7351 20.74 22.7451 19.73 23.9951 19.73C25.2451 19.73 26.2551 20.74 26.2551 21.99C26.2551 23.24 25.2451 24.25 23.9951 24.25ZM31.9551 24.25C30.7051 24.25 29.6951 23.24 29.6951 21.99C29.6951 20.74 30.7051 19.73 31.9551 19.73C33.2051 19.73 34.2151 20.74 34.2151 21.99C34.2151 23.24 33.2051 24.25 31.9551 24.25Z" fill="#1F2024"/>
</svg>
