<svg width="48" height="48" viewBox="0 0 48 48" fill="none" xmlns="http://www.w3.org/2000/svg">
<path d="M12.9501 41.9201C12.6601 41.9201 12.3801 41.8501 12.1201 41.7101C11.5401 41.4001 11.1801 40.8001 11.1801 40.1501V35.7201H10.1501C8.44008 35.7201 6.70008 35.0001 5.50008 33.8001C4.26008 32.5601 3.58008 30.9101 3.58008 29.1501V12.6501C3.58008 10.9401 4.30008 9.20008 5.50008 8.00008C6.74008 6.76008 8.39008 6.08008 10.1501 6.08008H37.7501C39.3001 6.08008 40.9701 6.69008 42.3401 7.75008C42.4001 7.80008 42.4501 7.84008 42.5101 7.90008C43.7501 9.14008 44.4301 10.7901 44.4301 12.5501V29.0501C44.4301 30.8501 43.7301 32.5801 42.5101 33.8001C41.2701 35.0401 39.6201 35.7201 37.8601 35.7201H22.7001L13.9501 41.6201C13.6501 41.8201 13.3101 41.9201 12.9601 41.9201H12.9501ZM10.1501 9.62008C9.32008 9.62008 8.58008 9.92008 8.00008 10.5001C7.46008 11.0401 7.12008 11.8801 7.12008 12.6501V29.1501C7.12008 29.9801 7.42008 30.7201 8.00008 31.3001C8.54008 31.8301 9.38008 32.1801 10.1501 32.1801H12.9501C13.9301 32.1801 14.7201 32.9701 14.7201 33.9501V36.8201L20.7701 32.7401C21.2101 32.3801 21.7801 32.1801 22.3501 32.1801H37.8501C38.6801 32.1801 39.4201 31.8701 40.0001 31.3001C40.5501 30.7501 40.8801 29.9101 40.8801 29.0501V12.5501C40.8801 11.7601 40.6001 11.0401 40.0701 10.4801C39.4901 10.0501 38.6001 9.62008 37.7501 9.62008H10.1501Z" fill="#1F2024"/>
<path d="M13.6001 20.4501C13.6001 21.7201 14.6801 22.8001 15.9501 22.8001C17.2701 22.8001 18.3001 21.7701 18.3001 20.4501C18.3001 19.1301 17.2701 18.1001 15.9501 18.1001C14.6301 18.1001 13.6001 19.1801 13.6001 20.4501Z" fill="#1F2024"/>
<path d="M21.6001 20.4501C21.6001 21.7201 22.6801 22.8001 23.9501 22.8001C25.2701 22.8001 26.3001 21.7701 26.3001 20.4501C26.3001 19.1301 25.2701 18.1001 23.9501 18.1001C22.6301 18.1001 21.6001 19.1801 21.6001 20.4501Z" fill="#1F2024"/>
<path d="M29.6001 20.4501C29.6001 21.7201 30.6801 22.8001 31.9501 22.8001C33.2701 22.8001 34.3001 21.7701 34.3001 20.4501C34.3001 19.1301 33.2701 18.1001 31.9501 18.1001C30.6301 18.1001 29.6001 19.1801 29.6001 20.4501Z" fill="#1F2024"/>
</svg>
