<svg width="48" height="48" viewBox="0 0 48 48" fill="none" xmlns="http://www.w3.org/2000/svg">
<path d="M12.935 42.76C12.685 42.76 12.425 42.7 12.195 42.58C11.685 42.31 11.365 41.77 11.365 41.19V36.58H10.175C8.48497 36.58 6.82497 35.89 5.62497 34.69C4.42497 33.49 3.73497 31.85 3.73497 30.14V13.68C3.72497 11.99 4.41497 10.33 5.61497 9.12999C6.83497 7.90999 8.45497 7.23999 10.165 7.23999H37.795C37.905 7.23999 38.005 7.24999 38.115 7.26999C39.705 7.33999 41.245 8.01999 42.375 9.14999C43.595 10.37 44.265 11.99 44.265 13.7V30.16C44.265 31.85 43.575 33.51 42.375 34.71C41.155 35.93 39.545 36.6 37.825 36.6H22.555L13.805 42.49C13.545 42.67 13.235 42.76 12.925 42.76H12.935ZM10.165 10.38C9.28497 10.38 8.46497 10.73 7.83497 11.35C7.21497 11.97 6.86497 12.82 6.86497 13.68V30.14C6.86497 31.02 7.21497 31.84 7.83497 32.47C8.45497 33.09 9.30497 33.44 10.165 33.44H12.925C13.795 33.44 14.495 34.14 14.495 35.01V38.24L20.925 33.91C21.315 33.62 21.785 33.46 22.295 33.46H37.815C38.695 33.46 39.525 33.12 40.145 32.49C40.765 31.87 41.115 31.02 41.115 30.16V13.71C41.115 12.83 40.765 12 40.145 11.38C39.525 10.76 38.675 10.41 37.815 10.41C37.715 10.41 37.625 10.41 37.535 10.38H10.165Z" fill="#1F2024"/>
<path d="M15.995 23.63C17.245 23.63 18.255 22.62 18.255 21.37C18.255 20.12 17.245 19.11 15.995 19.11C14.745 19.11 13.735 20.12 13.735 21.37C13.735 22.62 14.745 23.63 15.995 23.63Z" fill="#1F2024"/>
<path d="M23.985 23.63C25.235 23.63 26.245 22.62 26.245 21.37C26.245 20.12 25.235 19.11 23.985 19.11C22.735 19.11 21.725 20.12 21.725 21.37C21.725 22.62 22.735 23.63 23.985 23.63Z" fill="#1F2024"/>
<path d="M31.9549 23.63C33.2049 23.63 34.2149 22.62 34.2149 21.37C34.2149 20.12 33.2049 19.11 31.9549 19.11C30.7049 19.11 29.6949 20.12 29.6949 21.37C29.6949 22.62 30.7049 23.63 31.9549 23.63Z" fill="#1F2024"/>
</svg>
