<svg width="48" height="48" viewBox="0 0 48 48" fill="none" xmlns="http://www.w3.org/2000/svg">
<path d="M12.935 42.7602C12.685 42.7602 12.425 42.7002 12.195 42.5802C11.685 42.3102 11.365 41.7702 11.365 41.1902V36.5802H10.175C8.48497 36.5802 6.82497 35.8902 5.62497 34.6902C4.42497 33.4902 3.73497 31.8502 3.73497 30.1402V13.6802C3.72497 11.9902 4.41497 10.3302 5.61497 9.13023C6.83497 7.91023 8.45497 7.24023 10.165 7.24023H37.795C37.905 7.24023 38.005 7.25023 38.115 7.27023C39.705 7.34023 41.245 8.02023 42.375 9.15023C43.595 10.3702 44.265 11.9902 44.265 13.7002V30.1602C44.265 31.8502 43.575 33.5102 42.375 34.7102C41.155 35.9302 39.545 36.6002 37.825 36.6002H22.555L13.805 42.4902C13.545 42.6702 13.235 42.7602 12.925 42.7602H12.935ZM10.165 10.3802C9.28497 10.3802 8.46497 10.7302 7.83497 11.3502C7.21497 11.9702 6.86497 12.8202 6.86497 13.6802V30.1402C6.86497 31.0202 7.21497 31.8402 7.83497 32.4702C8.45497 33.0902 9.30497 33.4402 10.165 33.4402H12.925C13.795 33.4402 14.495 34.1402 14.495 35.0102V38.2402L20.925 33.9102C21.315 33.6202 21.785 33.4602 22.295 33.4602H37.815C38.695 33.4602 39.525 33.1202 40.145 32.4902C40.765 31.8702 41.115 31.0202 41.115 30.1602V13.7102C41.115 12.8302 40.765 12.0002 40.145 11.3802C39.525 10.7602 38.675 10.4102 37.815 10.4102C37.715 10.4102 37.625 10.4102 37.535 10.3802H10.165Z" fill="#1F2024"/>
<path d="M15.995 23.6302C17.245 23.6302 18.255 22.6202 18.255 21.3702C18.255 20.1202 17.245 19.1102 15.995 19.1102C14.745 19.1102 13.735 20.1202 13.735 21.3702C13.735 22.6202 14.745 23.6302 15.995 23.6302Z" fill="#1F2024"/>
<path d="M23.985 23.6302C25.235 23.6302 26.245 22.6202 26.245 21.3702C26.245 20.1202 25.235 19.1102 23.985 19.1102C22.735 19.1102 21.725 20.1202 21.725 21.3702C21.725 22.6202 22.735 23.6302 23.985 23.6302Z" fill="#1F2024"/>
<path d="M31.9549 23.6302C33.2049 23.6302 34.2149 22.6202 34.2149 21.3702C34.2149 20.1202 33.2049 19.1102 31.9549 19.1102C30.7049 19.1102 29.6949 20.1202 29.6949 21.3702C29.6949 22.6202 30.7049 23.6302 31.9549 23.6302Z" fill="#1F2024"/>
</svg>
