<svg width="48" height="48" viewBox="0 0 48 48" fill="none" xmlns="http://www.w3.org/2000/svg">
<path d="M23.9998 43.7001C13.1398 43.7001 4.2998 34.8601 4.2998 24C4.2998 13.14 13.1398 4.30005 23.9998 4.30005C34.8598 4.30005 43.6998 13.14 43.6998 24C43.6998 34.8601 34.8598 43.7001 23.9998 43.7001ZM23.9998 7.70005C15.0098 7.70005 7.6998 15.01 7.6998 24C7.6998 32.99 15.0098 40.3 23.9998 40.3C32.9898 40.3 40.2998 32.99 40.2998 24C40.2998 15.01 32.9898 7.70005 23.9998 7.70005Z" fill="#1F2024"/>
<path d="M34.5399 13.73C34.4299 13.52 34.1899 13.4 33.8999 13.4L21.8999 18.54C21.0299 18.92 20.3399 19.35 19.8199 19.88C19.2399 20.57 18.8399 21.21 18.5399 21.9L13.4399 33.7L13.3999 34.2L13.5399 34.34C13.6199 34.57 13.8199 34.7 14.0999 34.7H14.2999L26.1899 29.56C27.0599 29.19 27.7499 28.75 28.2799 28.22C28.8499 27.53 29.2599 26.89 29.5499 26.2L34.6499 14.4L34.6899 13.9L34.5299 13.74L34.5399 13.73ZM23.9999 26.5C22.6199 26.5 21.4999 25.38 21.4999 24C21.4999 22.62 22.6199 21.5 23.9999 21.5C25.3799 21.5 26.4999 22.62 26.4999 24C26.4999 25.38 25.3799 26.5 23.9999 26.5Z" fill="#1F2024"/>
</svg>
