<svg width="48" height="48" viewBox="0 0 48 48" fill="none" xmlns="http://www.w3.org/2000/svg">
<path fill-rule="evenodd" clip-rule="evenodd" d="M4.5 24C4.5 34.75 13.25 43.5 24 43.5C34.75 43.5 43.5 34.75 43.5 24C43.5 13.25 34.75 4.5 24 4.5C13.25 4.5 4.5 13.25 4.5 24ZM7.5 24C7.5 14.9 14.9 7.5 24 7.5C33.1 7.5 40.5 14.9 40.5 24C40.5 33.1 33.1 40.5 24 40.5C14.9 40.5 7.5 33.1 7.5 24ZM33.8999 13.4C34.1899 13.4 34.4299 13.52 34.5399 13.73H34.5299L34.6899 13.89L34.6499 14.4L29.5499 26.2C29.2599 26.89 28.8499 27.53 28.2799 28.22C27.7499 28.75 27.0599 29.19 26.1899 29.56L14.2999 34.7H14.0999C13.8199 34.7 13.6199 34.57 13.5399 34.34L13.3999 34.2L13.4399 33.7L18.5399 21.9C18.8399 21.21 19.2499 20.57 19.8199 19.88C20.1499 19.55 20.9499 18.82 21.9299 18.53L33.8999 13.4ZM20.9999 24C20.9999 25.66 22.3399 27 23.9999 27C25.6599 27 26.9999 25.66 26.9999 24C26.9999 22.34 25.6599 21 23.9999 21C22.3399 21 20.9999 22.34 20.9999 24Z" fill="#1F2024"/>
</svg>
