<svg width="48" height="48" viewBox="0 0 48 48" fill="none" xmlns="http://www.w3.org/2000/svg">
<path d="M24 43.2001C13.41 43.2001 4.80005 34.59 4.80005 24C4.80005 13.41 13.41 4.80005 24 4.80005C34.59 4.80005 43.2001 13.41 43.2001 24C43.2001 34.59 34.59 43.2001 24 43.2001ZM24 7.20005C14.74 7.20005 7.20005 14.74 7.20005 24C7.20005 33.26 14.74 40.8 24 40.8C33.26 40.8 40.8 33.26 40.8 24C40.8 14.74 33.26 7.20005 24 7.20005Z" fill="#1F2024"/>
<path d="M34.5401 13.73C34.4301 13.52 34.1901 13.4 33.9001 13.4L21.9001 18.54C21.0301 18.91 20.3401 19.35 19.8201 19.88C19.2401 20.57 18.8401 21.21 18.5401 21.9L13.4401 33.7L13.4001 34.21L13.5401 34.35C13.6201 34.58 13.8201 34.71 14.1001 34.71H14.3001L26.1901 29.57C27.0601 29.2 27.7501 28.76 28.2801 28.23C28.8501 27.54 29.2601 26.9 29.5501 26.21L34.6501 14.41L34.6901 13.9L34.5301 13.74L34.5401 13.73ZM24.0001 26.8C22.4501 26.8 21.2001 25.55 21.2001 24C21.2001 22.45 22.4501 21.2 24.0001 21.2C25.5501 21.2 26.8001 22.45 26.8001 24C26.8001 25.55 25.5501 26.8 24.0001 26.8Z" fill="#1F2024"/>
</svg>
