<svg width="48" height="48" viewBox="0 0 48 48" fill="none" xmlns="http://www.w3.org/2000/svg">
<path d="M24 43.5C13.25 43.5 4.5 34.75 4.5 24C4.5 13.25 13.25 4.5 24 4.5C34.75 4.5 43.5 13.25 43.5 24C43.5 34.75 34.75 43.5 24 43.5ZM24 7.5C14.9 7.5 7.5 14.9 7.5 24C7.5 33.1 14.9 40.5 24 40.5C33.1 40.5 40.5 33.1 40.5 24C40.5 14.9 33.1 7.5 24 7.5Z" fill="#1F2024"/>
<path d="M34.5399 13.73C34.4299 13.52 34.1899 13.4 33.8999 13.4L21.9299 18.53C20.9499 18.82 20.1499 19.55 19.8199 19.88C19.2499 20.57 18.8399 21.21 18.5399 21.9L13.4399 33.7L13.3999 34.2L13.5399 34.34C13.6199 34.57 13.8199 34.7 14.0999 34.7H14.2999L26.1899 29.56C27.0599 29.19 27.7499 28.75 28.2799 28.22C28.8499 27.53 29.2599 26.89 29.5499 26.2L34.6499 14.4L34.6899 13.89L34.5299 13.73H34.5399ZM23.9999 27C22.3399 27 20.9999 25.66 20.9999 24C20.9999 22.34 22.3399 21 23.9999 21C25.6599 21 26.9999 22.34 26.9999 24C26.9999 25.66 25.6599 27 23.9999 27Z" fill="#1F2024"/>
</svg>
