<svg width="48" height="48" viewBox="0 0 48 48" fill="none" xmlns="http://www.w3.org/2000/svg">
<path d="M24 4.5C13.25 4.5 4.5 13.25 4.5 24C4.5 34.75 13.25 43.5 24 43.5C34.75 43.5 43.5 34.75 43.5 24C43.5 13.25 34.75 4.5 24 4.5ZM34.7 14.3L29.6 26.1C29.3 26.8 28.9 27.5 28.3 28.1C27.8 28.6 27.1 29.1 26.3 29.4L14.5 34.5H14.1C13.9 34.5 13.8 34.4 13.7 34.3C13.6 34.2 13.5 34.1 13.5 33.9C13.4 33.8 13.4 33.6 13.5 33.5L18.6 21.7C18.9 21 19.3 20.3 19.9 19.7C20.4 19.2 21.1 18.7 21.9 18.4L33.7 13.3H34.1C34.3 13.3 34.4 13.4 34.5 13.5C34.6 13.6 34.7 13.7 34.7 13.9C34.8 14 34.8 14.2 34.7 14.3Z" fill="#1F2024"/>
<path d="M24 27C25.6569 27 27 25.6569 27 24C27 22.3431 25.6569 21 24 21C22.3431 21 21 22.3431 21 24C21 25.6569 22.3431 27 24 27Z" fill="#1F2024"/>
</svg>
