<svg width="48" height="48" viewBox="0 0 48 48" fill="none" xmlns="http://www.w3.org/2000/svg">
<path d="M24 43.7001C13.14 43.7001 4.30005 34.8601 4.30005 24C4.30005 13.14 13.14 4.30005 24 4.30005C34.8601 4.30005 43.7001 13.14 43.7001 24C43.7001 34.8601 34.8601 43.7001 24 43.7001ZM24 7.70005C15.01 7.70005 7.70005 15.01 7.70005 24C7.70005 32.99 15.01 40.3 24 40.3C32.99 40.3 40.3 32.99 40.3 24C40.3 15.01 32.99 7.70005 24 7.70005Z" fill="#1F2024"/>
<path d="M34.5401 13.73C34.4301 13.52 34.1901 13.4 33.9001 13.4L21.9001 18.54C21.0301 18.92 20.3401 19.35 19.8201 19.88C19.2401 20.57 18.8401 21.21 18.5401 21.9L13.4401 33.7L13.4001 34.2L13.5401 34.34C13.6201 34.57 13.8201 34.7 14.1001 34.7H14.3001L26.1901 29.56C27.0601 29.19 27.7501 28.75 28.2801 28.22C28.8501 27.53 29.2601 26.89 29.5501 26.2L34.6501 14.4L34.6901 13.9L34.5301 13.74L34.5401 13.73ZM24.0001 26.5C22.6201 26.5 21.5001 25.38 21.5001 24C21.5001 22.62 22.6201 21.5 24.0001 21.5C25.3801 21.5 26.5001 22.62 26.5001 24C26.5001 25.38 25.3801 26.5 24.0001 26.5Z" fill="#1F2024"/>
</svg>
