<svg width="48" height="48" viewBox="0 0 48 48" fill="none" xmlns="http://www.w3.org/2000/svg">
<path d="M23.9998 43.2001C13.4098 43.2001 4.7998 34.59 4.7998 24C4.7998 13.41 13.4098 4.80005 23.9998 4.80005C34.5898 4.80005 43.1998 13.41 43.1998 24C43.1998 34.59 34.5898 43.2001 23.9998 43.2001ZM23.9998 7.20005C14.7398 7.20005 7.1998 14.74 7.1998 24C7.1998 33.26 14.7398 40.8 23.9998 40.8C33.2598 40.8 40.7998 33.26 40.7998 24C40.7998 14.74 33.2598 7.20005 23.9998 7.20005Z" fill="#1F2024"/>
<path d="M34.5399 13.73C34.4299 13.52 34.1899 13.4 33.8999 13.4L21.8999 18.54C21.0299 18.91 20.3399 19.35 19.8199 19.88C19.2399 20.57 18.8399 21.21 18.5399 21.9L13.4399 33.7L13.3999 34.21L13.5399 34.35C13.6199 34.58 13.8199 34.71 14.0999 34.71H14.2999L26.1899 29.57C27.0599 29.2 27.7499 28.76 28.2799 28.23C28.8499 27.54 29.2599 26.9 29.5499 26.21L34.6499 14.41L34.6899 13.9L34.5299 13.74L34.5399 13.73ZM23.9999 26.8C22.4499 26.8 21.1999 25.55 21.1999 24C21.1999 22.45 22.4499 21.2 23.9999 21.2C25.5499 21.2 26.7999 22.45 26.7999 24C26.7999 25.55 25.5499 26.8 23.9999 26.8Z" fill="#1F2024"/>
</svg>
