<svg width="48" height="48" viewBox="0 0 48 48" fill="none" xmlns="http://www.w3.org/2000/svg">
<path d="M36.15 9.7999H34.74C34.74 9.7999 34.75 9.7299 34.75 9.6999C34.75 7.7999 34.05 6.0999 32.85 4.8999C31.55 3.5999 29.95 2.8999 28.35 2.8999H12.25C10.25 2.8999 8.35 3.7999 7.25 5.1999C5.95 6.5999 5.25 8.4999 5.25 10.4999V30.3999C5.25 32.1999 5.95 33.9999 7.05 35.0999C8.35 36.4999 9.85 37.1999 11.65 37.1999H12.35V37.9999C12.35 41.8999 15.35 45.0999 18.95 45.0999H36.15C39.75 45.0999 42.75 41.8999 42.75 37.9999V16.8999C42.75 12.9999 39.75 9.7999 36.15 9.7999ZM11.65 33.7999C10.85 33.7999 10.15 33.4999 9.55 32.7999C8.95 32.1999 8.65 31.3999 8.65 30.3999V10.4999C8.65 9.3999 9.05 8.2999 9.85 7.3999C10.45 6.6999 11.35 6.2999 12.25 6.2999H28.35C29.05 6.2999 29.75 6.5999 30.45 7.2999C31.05 7.8999 31.35 8.6999 31.35 9.6999C31.35 9.7299 31.35 9.7699 31.36 9.7999H18.95C15.35 9.7999 12.35 12.9999 12.35 16.8999V33.7999H11.65V33.7999ZM39.35 37.9999C39.35 39.9999 37.95 41.6999 36.15 41.6999H18.95C17.15 41.6999 15.75 39.9999 15.75 37.9999V16.8999C15.75 14.8999 17.15 13.1999 18.95 13.1999H36.15C37.95 13.1999 39.35 14.8999 39.35 16.8999V37.9999Z" fill="#1F2024"/>
</svg>
