<svg width="48" height="48" viewBox="0 0 48 48" fill="none" xmlns="http://www.w3.org/2000/svg">
<path d="M36.11 9.995H34.46C34.48 9.885 34.5 9.775 34.5 9.655C34.5 7.905 33.88 6.255 32.76 5.005C31.61 3.735 30.02 2.995 28.37 2.995H12.28C10.47 2.995 8.7 3.815 7.44 5.225C6.19 6.615 5.5 8.455 5.5 10.405V30.335C5.5 32.085 6.12 33.735 7.24 34.985C8.38 36.265 9.98 36.995 11.63 37.005H12.5V38.075C12.5 41.895 15.37 45.005 18.89 45.005H36.11C39.63 45.005 42.5 41.895 42.5 38.075V16.925C42.5 13.105 39.63 9.995 36.11 9.995ZM12.5 16.925V33.995H11.63C10.83 33.995 10.06 33.635 9.47 32.975C8.85 32.285 8.5 31.315 8.49 30.325V10.405C8.49 9.215 8.92 8.055 9.66 7.235C10.37 6.445 11.3 6.005 12.28 5.995H28.37C29.17 5.995 29.94 6.355 30.53 7.015C31.15 7.705 31.5 8.675 31.51 9.665C31.51 9.775 31.53 9.885 31.55 9.995H18.89C15.37 9.995 12.5 13.105 12.5 16.925V16.925ZM39.5 38.065C39.5 40.235 37.98 41.995 36.11 41.995H18.89C17.02 41.995 15.5 40.235 15.5 38.065V16.925C15.5 14.755 17.02 12.995 18.89 12.995H36.11C37.98 12.995 39.5 14.755 39.5 16.925V38.065Z" fill="#1F2024"/>
</svg>
