<svg width="48" height="48" viewBox="0 0 48 48" fill="none" xmlns="http://www.w3.org/2000/svg">
<path d="M35.5 44.5H19.5C17.9087 44.5 16.3826 43.7785 15.2574 42.4943C14.1321 41.2101 13.5 39.4683 13.5 37.6522V17.3478C13.5 15.5317 14.1321 13.7899 15.2574 12.5057C16.3826 11.2215 17.9087 10.5 19.5 10.5H35.5C37.0913 10.5 38.6174 11.2215 39.7426 12.5057C40.8679 13.7899 41.5 15.5317 41.5 17.3478V37.6522C41.5 39.4683 40.8679 41.2101 39.7426 42.4943C38.6174 43.7785 37.0913 44.5 35.5 44.5Z" fill="#1F2024"/>
<path d="M18.5 8H36.6138C36.1471 6.68492 35.2849 5.54644 34.1455 4.74077C33.0062 3.93509 31.6454 3.50168 30.25 3.5H13.25C11.4598 3.5 9.7429 4.21116 8.47703 5.47703C7.21116 6.7429 6.5 8.45979 6.5 10.25V31.25C6.50168 32.6454 6.93509 34.0062 7.74077 35.1455C8.54644 36.2849 9.68492 37.1471 11 37.6138V15.5C11 13.5109 11.7902 11.6032 13.1967 10.1967C14.6032 8.79018 16.5109 8 18.5 8Z" fill="#1F2024"/>
</svg>
