<svg width="48" height="48" viewBox="0 0 48 48" fill="none" xmlns="http://www.w3.org/2000/svg">
<path d="M35 44H19C17.4087 44 15.8826 43.2785 14.7574 41.9943C13.6321 40.7101 13 38.9683 13 37.1522V16.8478C13 15.0317 13.6321 13.2899 14.7574 12.0057C15.8826 10.7215 17.4087 10 19 10H35C36.5913 10 38.1174 10.7215 39.2426 12.0057C40.3679 13.2899 41 15.0317 41 16.8478V37.1522C41 38.9683 40.3679 40.7101 39.2426 41.9943C38.1174 43.2785 36.5913 44 35 44Z" fill="#1F2024"/>
<path d="M18 7.5H36.1138C35.6471 6.18492 34.7849 5.04644 33.6455 4.24077C32.5062 3.43509 31.1454 3.00168 29.75 3H12.75C10.9598 3 9.2429 3.71116 7.97703 4.97703C6.71116 6.2429 6 7.95979 6 9.75V30.75C6.00168 32.1454 6.43509 33.5062 7.24077 34.6455C8.04644 35.7849 9.18492 36.6471 10.5 37.1138V15C10.5 13.0109 11.2902 11.1032 12.6967 9.6967C14.1032 8.29018 16.0109 7.5 18 7.5Z" fill="#1F2024"/>
</svg>
