<svg width="48" height="48" viewBox="0 0 48 48" fill="none" xmlns="http://www.w3.org/2000/svg">
<path d="M36.15 10.2999H34.08C34.18 10.1199 34.25 9.9299 34.25 9.6999C34.25 7.9999 33.55 6.3999 32.45 5.2999C31.25 3.9999 29.85 3.3999 28.35 3.3999H12.25C10.45 3.3999 8.75 4.1999 7.65 5.4999C6.45 6.7999 5.75 8.5999 5.75 10.4999V30.3999C5.75 32.0999 6.35 33.6999 7.45 34.7999C8.55 36.0999 10.05 36.6999 11.65 36.6999H12.75C12.75 36.6999 12.81 36.6799 12.85 36.6799V37.9999C12.85 41.5999 15.55 44.5999 18.95 44.5999H36.15C39.55 44.5999 42.25 41.5999 42.25 37.9999V16.8999C42.25 13.2999 39.55 10.2999 36.15 10.2999ZM12.85 16.8999V34.3199C12.85 34.3199 12.79 34.2999 12.75 34.2999H11.65C10.65 34.2999 9.85 33.9999 9.15 33.1999C8.55 32.4999 8.15 31.4999 8.15 30.3999V10.4999C8.15 9.2999 8.55 7.9999 9.45 7.0999C10.15 6.2999 11.15 5.7999 12.25 5.7999H28.35C29.25 5.7999 30.05 6.0999 30.85 6.8999C31.45 7.5999 31.85 8.5999 31.85 9.6999C31.85 9.9299 31.92 10.1199 32.02 10.2999H18.95C15.55 10.2999 12.85 13.2999 12.85 16.8999V16.8999ZM39.85 37.9999C39.85 40.2999 38.15 42.1999 36.15 42.1999H18.95C16.95 42.1999 15.25 40.2999 15.25 37.9999V16.8999C15.25 14.5999 16.95 12.6999 18.95 12.6999H36.15C38.15 12.6999 39.85 14.5999 39.85 16.8999V37.9999Z" fill="#1F2024"/>
</svg>
