<svg width="48" height="48" viewBox="0 0 48 48" fill="none" xmlns="http://www.w3.org/2000/svg">
<path d="M36.11 9.99512H34.46C34.48 9.88512 34.5 9.77512 34.5 9.65512C34.5 7.90512 33.88 6.25512 32.76 5.00512C31.61 3.73512 30.02 2.99512 28.37 2.99512H12.28C10.47 2.99512 8.7 3.81512 7.44 5.22512C6.19 6.61512 5.5 8.45512 5.5 10.4051V30.3351C5.5 32.0851 6.12 33.7351 7.24 34.9851C8.38 36.2651 9.98 36.9951 11.63 37.0051H12.5V38.0751C12.5 41.8951 15.37 45.0051 18.89 45.0051H36.11C39.63 45.0051 42.5 41.8951 42.5 38.0751V16.9251C42.5 13.1051 39.63 9.99512 36.11 9.99512ZM12.5 16.9251V33.9951H11.63C10.83 33.9951 10.06 33.6351 9.47 32.9751C8.85 32.2851 8.5 31.3151 8.49 30.3251V10.4051C8.49 9.21512 8.92 8.05512 9.66 7.23512C10.37 6.44512 11.3 6.00512 12.28 5.99512H28.37C29.17 5.99512 29.94 6.35512 30.53 7.01512C31.15 7.70512 31.5 8.67512 31.51 9.66512C31.51 9.77512 31.53 9.88512 31.55 9.99512H18.89C15.37 9.99512 12.5 13.1051 12.5 16.9251V16.9251ZM39.5 38.0651C39.5 40.2351 37.98 41.9951 36.11 41.9951H18.89C17.02 41.9951 15.5 40.2351 15.5 38.0651V16.9251C15.5 14.7551 17.02 12.9951 18.89 12.9951H36.11C37.98 12.9951 39.5 14.7551 39.5 16.9251V38.0651Z" fill="#1F2024"/>
</svg>
