<svg width="48" height="48" viewBox="0 0 48 48" fill="none" xmlns="http://www.w3.org/2000/svg">
<path d="M36.61 10H34.96C34.98 9.89 35 9.78 35 9.66C35 7.91 34.38 6.26 33.26 5.01C32.11 3.74 30.52 3 28.87 3H12.78C10.97 3 9.2 3.82 7.94 5.23C6.69 6.62 6 8.46 6 10.41V30.34C6 32.09 6.62 33.74 7.74 34.99C8.88 36.27 10.48 37 12.13 37.01H13V38.08C13 41.9 15.87 45.01 19.39 45.01H36.61C40.13 45.01 43 41.9 43 38.08V16.93C43 13.11 40.13 10 36.61 10ZM13 16.93V34H12.13C11.33 34 10.56 33.64 9.97 32.98C9.35 32.29 9 31.32 8.99 30.33V10.41C8.99 9.22 9.42 8.06 10.16 7.24C10.87 6.45 11.8 6.01 12.78 6H28.87C29.67 6 30.44 6.36 31.03 7.02C31.65 7.71 32 8.68 32.01 9.67C32.01 9.78 32.03 9.89 32.05 10H19.39C15.87 10 13 13.11 13 16.93ZM40 38.07C40 40.24 38.48 42 36.61 42H19.39C17.52 42 16 40.24 16 38.07V16.93C16 14.76 17.52 13 19.39 13H36.61C38.48 13 40 14.76 40 16.93V38.07Z" fill="#1F2024"/>
</svg>
