<svg width="48" height="48" viewBox="0 0 48 48" fill="none" xmlns="http://www.w3.org/2000/svg">
<path d="M24 43.2001C34.6 43.2001 43.2001 34.6 43.2001 24C43.2001 13.4 34.6 4.80005 24 4.80005C13.4 4.80005 4.80005 13.4 4.80005 24C4.80005 34.6 13.4 43.2001 24 43.2001ZM24 7.20005C33.3 7.20005 40.8 14.7 40.8 24C40.8 33.3 33.3 40.8 24 40.8C14.7 40.8 7.20005 33.3 7.20005 24C7.20005 14.7 14.7 7.20005 24 7.20005Z" fill="#1F2024"/>
<path d="M17.7001 30.3C18.0001 30.6 18.3001 30.7 18.7001 30.7C19.1001 30.7 19.4001 30.6 19.7001 30.3L24.0001 26L28.3001 30.3C28.6001 30.6 28.9001 30.7 29.3001 30.7C29.7001 30.7 30.0001 30.6 30.3001 30.3C30.8001 29.8 30.8001 28.9 30.3001 28.4L26.0001 24.1L30.3001 19.8C30.8001 19.3 30.8001 18.4 30.3001 17.9C29.8001 17.4 28.9001 17.4 28.4001 17.9L24.1001 22.2L19.8001 17.9C19.3001 17.4 18.4001 17.4 17.9001 17.9C17.4001 18.4 17.4001 19.3 17.9001 19.8L22.2001 24.1L17.9001 28.4C17.2001 28.9 17.2001 29.7 17.7001 30.3Z" fill="#1F2024"/>
</svg>
