<svg width="48" height="48" viewBox="0 0 48 48" fill="none" xmlns="http://www.w3.org/2000/svg">
<path d="M37.79 10.21C30.19 2.61001 17.81 2.61001 10.21 10.21C2.61001 17.81 2.61001 30.19 10.21 37.79C17.81 45.39 30.19 45.39 37.79 37.79C45.39 30.19 45.39 17.81 37.79 10.21ZM28.24 30.36L24 26.12L19.76 30.36C19.48 30.64 19.1 30.8 18.7 30.8C18.3 30.8 17.92 30.64 17.64 30.36C17.36 30.08 17.2 29.7 17.2 29.3C17.2 28.9 17.36 28.52 17.64 28.24L21.88 24L17.64 19.76C17.36 19.48 17.2 19.1 17.2 18.7C17.2 18.3 17.36 17.92 17.64 17.64C17.92 17.36 18.3 17.2 18.7 17.2C19.1 17.2 19.48 17.36 19.76 17.64L24 21.88L28.24 17.64C28.52 17.36 28.9 17.2 29.3 17.2C29.7 17.2 30.08 17.36 30.36 17.64C30.64 17.92 30.8 18.3 30.8 18.7C30.8 19.1 30.64 19.48 30.36 19.76L26.12 24L30.36 28.24C30.64 28.52 30.8 28.9 30.8 29.3C30.8 29.7 30.64 30.08 30.36 30.36C30.08 30.64 29.7 30.8 29.3 30.8C28.9 30.8 28.52 30.64 28.24 30.36Z" fill="#1F2024"/>
</svg>
