<svg width="48" height="48" viewBox="0 0 48 48" fill="none" xmlns="http://www.w3.org/2000/svg">
<path d="M24 4.5C13.25 4.5 4.5 13.25 4.5 24C4.5 34.75 13.25 43.5 24 43.5C34.75 43.5 43.5 34.75 43.5 24C43.5 13.25 34.75 4.5 24 4.5ZM24 40.5C14.9 40.5 7.5 33.1 7.5 24C7.5 14.9 14.9 7.5 24 7.5C33.1 7.5 40.5 14.9 40.5 24C40.5 33.1 33.1 40.5 24 40.5Z" fill="#1F2024"/>
<path d="M30.36 17.64C29.77 17.05 28.82 17.05 28.24 17.64L24 21.88L19.76 17.64C19.17 17.05 18.22 17.05 17.64 17.64C17.05 18.23 17.05 19.18 17.64 19.76L21.88 24L17.64 28.24C17.05 28.83 17.05 29.78 17.64 30.36C17.93 30.65 18.32 30.8 18.7 30.8C19.08 30.8 19.47 30.65 19.76 30.36L24 26.12L28.24 30.36C28.53 30.65 28.92 30.8 29.3 30.8C29.68 30.8 30.07 30.65 30.36 30.36C30.95 29.77 30.95 28.82 30.36 28.24L26.12 24L30.36 19.76C30.95 19.17 30.95 18.22 30.36 17.64Z" fill="#1F2024"/>
</svg>
