<svg width="48" height="48" viewBox="0 0 48 48" fill="none" xmlns="http://www.w3.org/2000/svg">
<path d="M23.9998 43.2001C34.5998 43.2001 43.1998 34.6 43.1998 24C43.1998 13.4 34.5998 4.80005 23.9998 4.80005C13.3998 4.80005 4.7998 13.4 4.7998 24C4.7998 34.6 13.3998 43.2001 23.9998 43.2001ZM23.9998 7.20005C33.2998 7.20005 40.7998 14.7 40.7998 24C40.7998 33.3 33.2998 40.8 23.9998 40.8C14.6998 40.8 7.1998 33.3 7.1998 24C7.1998 14.7 14.6998 7.20005 23.9998 7.20005Z" fill="#1F2024"/>
<path d="M17.6998 30.3C17.9998 30.6 18.2998 30.7 18.6998 30.7C19.0998 30.7 19.3998 30.6 19.6998 30.3L23.9998 26L28.2998 30.3C28.5998 30.6 28.8998 30.7 29.2998 30.7C29.6998 30.7 29.9998 30.6 30.2998 30.3C30.7998 29.8 30.7998 28.9 30.2998 28.4L25.9998 24.1L30.2998 19.8C30.7998 19.3 30.7998 18.4 30.2998 17.9C29.7998 17.4 28.8998 17.4 28.3998 17.9L24.0998 22.2L19.7998 17.9C19.2998 17.4 18.3998 17.4 17.8998 17.9C17.3998 18.4 17.3998 19.3 17.8998 19.8L22.1998 24.1L17.8998 28.4C17.1998 28.9 17.1998 29.7 17.6998 30.3Z" fill="#1F2024"/>
</svg>
