<svg width="48" height="48" viewBox="0 0 48 48" fill="none" xmlns="http://www.w3.org/2000/svg">
<path d="M23.9998 4.30005C13.0998 4.30005 4.2998 13.1 4.2998 24C4.2998 34.9 13.0998 43.7001 23.9998 43.7001C34.8998 43.7001 43.6998 34.9 43.6998 24C43.6998 13.1 34.8998 4.30005 23.9998 4.30005ZM23.9998 40.3C14.9998 40.3 7.6998 33 7.6998 24C7.6998 15 14.9998 7.70005 23.9998 7.70005C32.9998 7.70005 40.2998 15 40.2998 24C40.2998 33 32.9998 40.3 23.9998 40.3Z" fill="#1F2024"/>
<path d="M30.3998 17.6C29.7998 17 28.7998 17 28.0998 17.6L23.8998 21.8L19.6998 17.6C19.0998 17 18.0998 17 17.3998 17.6C16.6998 18.2 16.7998 19.2 17.3998 19.9L21.5998 24.1L17.3998 28.3C16.7998 28.9 16.7998 29.9 17.3998 30.6C17.6998 30.9 18.0998 31.1 18.4998 31.1C18.8998 31.1 19.2998 30.9 19.5998 30.6L23.7998 26.4L27.9998 30.6C28.2998 30.9 28.6998 31.1 29.0998 31.1C29.4998 31.1 29.8998 30.9 30.1998 30.6C30.7998 30 30.7998 29 30.1998 28.3L25.9998 24.1L30.1998 19.9C31.0998 19.2 31.0998 18.2 30.3998 17.6Z" fill="#1F2024"/>
</svg>
