<svg width="48" height="48" viewBox="0 0 48 48" fill="none" xmlns="http://www.w3.org/2000/svg">
<path d="M38.28 10.7C30.68 3.1 18.3 3.1 10.7 10.7C3.1 18.3 3.1 30.68 10.7 38.28C18.3 45.88 30.68 45.88 38.28 38.28C45.88 30.68 45.88 18.3 38.28 10.7ZM28.73 30.85L24.49 26.61L20.25 30.85C19.97 31.13 19.59 31.29 19.19 31.29C18.79 31.29 18.41 31.13 18.13 30.85C17.85 30.57 17.69 30.19 17.69 29.79C17.69 29.39 17.85 29.01 18.13 28.73L22.37 24.49L18.13 20.25C17.85 19.97 17.69 19.59 17.69 19.19C17.69 18.79 17.85 18.41 18.13 18.13C18.41 17.85 18.79 17.69 19.19 17.69C19.59 17.69 19.97 17.85 20.25 18.13L24.49 22.37L28.73 18.13C29.01 17.85 29.39 17.69 29.79 17.69C30.19 17.69 30.57 17.85 30.85 18.13C31.13 18.41 31.29 18.79 31.29 19.19C31.29 19.59 31.13 19.97 30.85 20.25L26.61 24.49L30.85 28.73C31.13 29.01 31.29 29.39 31.29 29.79C31.29 30.19 31.13 30.57 30.85 30.85C30.57 31.13 30.19 31.29 29.79 31.29C29.39 31.29 29.01 31.13 28.73 30.85V30.85Z" fill="#1F2024"/>
</svg>
