<svg width="48" height="48" viewBox="0 0 48 48" fill="none" xmlns="http://www.w3.org/2000/svg">
<path d="M35.1107 21.1376L34.9867 21.0135C34.4419 20.4688 33.5485 20.4688 33.0038 21.0135L26.2438 27.7735L25.3902 28.6271V27.42V7.99998C25.3902 7.22612 24.7641 6.59998 23.9902 6.59998C23.2163 6.59998 22.5902 7.22612 22.5902 7.99998V27.41V28.6171L21.7367 27.7635L14.9767 21.0035C14.4319 20.4588 13.5385 20.4588 12.9938 21.0035C12.4507 21.5466 12.4469 22.4311 12.9951 22.9877C12.9954 22.9881 12.9958 22.9884 12.9961 22.9888L22.9938 32.9864L22.6402 33.34L22.9938 32.9864C23.0577 33.0504 23.133 33.1115 23.2147 33.1688C23.2173 33.1699 23.2208 33.1715 23.2256 33.1735L23.2559 33.1857L23.2752 33.1935L23.2938 33.2028C23.3288 33.2203 23.3618 33.2389 23.3838 33.2513L23.3869 33.2531C23.4276 33.2761 23.4435 33.2845 23.4572 33.2904L23.4707 33.2962L23.4778 33.2998C23.4805 33.3006 23.4846 33.3018 23.4912 33.3036L23.5198 33.3111L23.5198 33.3111L23.5217 33.3116C23.5385 33.3159 23.5622 33.322 23.5876 33.3292L23.598 33.3322L23.6083 33.3356C23.6234 33.3407 23.6377 33.3456 23.649 33.3495C23.649 33.3495 23.649 33.3495 23.649 33.3495L23.4859 33.8221C23.531 33.8377 23.5725 33.852 23.6202 33.86C23.7402 33.88 23.8702 33.9 23.9902 33.9C24.1102 33.9 24.2402 33.89 24.3602 33.86L35.1107 21.1376ZM35.1107 21.1376C35.5291 21.6937 35.4846 22.4785 34.9867 22.9764L24.9867 32.9764C24.926 33.037 24.8552 33.0951 24.7785 33.1498C24.7665 33.1567 24.7538 33.1638 24.7374 33.1729C24.7374 33.1729 24.7374 33.1729 24.7374 33.1729L24.7356 33.1739C24.7138 33.186 24.6852 33.2019 24.653 33.2212L24.6428 33.2273L24.6329 33.234C24.6068 33.2513 24.5766 33.2676 24.5232 33.2904L24.5097 33.2962L24.507 33.2976L24.4974 33.3003L24.4725 33.3069L24.4725 33.3069C24.4527 33.312 24.4128 33.3221 24.3721 33.3356C24.357 33.3407 24.3427 33.3456 24.3314 33.3495C24.3314 33.3495 24.3314 33.3495 24.3314 33.3495L24.4945 33.8221L35.1107 21.1376ZM23.3953 33.7953L23.3954 33.7953C23.413 33.7999 23.4313 33.8046 23.4502 33.81L23.3953 33.7953ZM23.3953 33.7953C23.3477 33.7831 23.304 33.7718 23.2602 33.75L23.3953 33.7953ZM39.8181 39.8148L39.8165 39.8164C38.7996 40.8334 37.4464 41.4 36.0001 41.4H12.0001C10.5518 41.4 9.20018 40.8421 8.18524 39.818L8.18365 39.8164C7.16667 38.7994 6.6001 37.4463 6.6001 36V32C6.6001 31.2261 7.22624 30.6 8.0001 30.6C8.77396 30.6 9.4001 31.2261 9.4001 32V36C9.4001 36.6918 9.67222 37.3492 10.1565 37.8335C10.6487 38.3257 11.2952 38.6 12.0001 38.6H36.0001C36.6919 38.6 37.3493 38.3279 37.8337 37.8435C38.3258 37.3514 38.6001 36.7048 38.6001 36V32C38.6001 31.2261 39.2262 30.6 40.0001 30.6C40.774 30.6 41.4001 31.2261 41.4001 32V36C41.4001 37.4482 40.8422 38.7999 39.8181 39.8148Z" fill="#1F2024" stroke="#1F2024"/>
</svg>
