<svg width="48" height="48" viewBox="0 0 48 48" fill="none" xmlns="http://www.w3.org/2000/svg">
<path d="M39.9998 31.3C39.2998 31.3 38.7998 31.8 38.7998 32.5V36.5C38.7998 37.2 38.4998 37.9 37.8998 38.5C37.2998 39.2 36.5998 39.3 35.9998 39.3H11.9998C11.2998 39.3 10.5998 39 9.9998 38.4C9.2998 37.8 9.1998 37.1 9.1998 36.5V32.5C9.1998 31.8 8.6998 31.3 7.9998 31.3C7.2998 31.3 6.7998 31.8 6.7998 32.5V36.5C6.7998 38 7.3998 39.3 8.3998 40.1C9.3998 41.1 10.6998 41.7001 11.9998 41.7001H35.9998C37.4998 41.7001 38.7998 41.1 39.5998 40.1C40.5998 39.1 41.1998 37.8 41.1998 36.5V32.5C41.1998 31.8 40.6998 31.3 39.9998 31.3Z" fill="#1F2024"/>
<path d="M23.1998 32.3C23.1998 32.3667 23.1998 32.3667 23.1998 32.3C23.2998 32.4 23.3998 32.5 23.5998 32.6C23.6998 32.7 23.8998 32.7 24.0998 32.7C24.2998 32.7 24.3998 32.7 24.5998 32.6C24.6998 32.5 24.8998 32.5 24.9998 32.3L34.9998 22.3C35.4998 21.8 35.4998 21.1 34.9998 20.6C34.4998 20.1 33.7998 20.1 33.2998 20.6L25.2998 28.6V7.50005C25.2998 6.80005 24.7998 6.30005 24.0998 6.30005C23.3998 6.30005 22.8998 6.80005 22.8998 7.50005V28.6L14.8998 20.6C14.3998 20.1 13.6998 20.1 13.1998 20.6C12.6998 21.1 12.6998 21.8 13.1998 22.3L23.1998 32.3Z" fill="#1F2024"/>
</svg>
