<svg width="48" height="48" viewBox="0 0 48 48" fill="none" xmlns="http://www.w3.org/2000/svg">
<path d="M40 31.3C39.3 31.3 38.8 31.8 38.8 32.5V36.5C38.8 37.2 38.5 37.9 37.9 38.5C37.3 39.2 36.6 39.3 36 39.3H12C11.3 39.3 10.6 39 10 38.4C9.30005 37.8 9.20005 37.1 9.20005 36.5V32.5C9.20005 31.8 8.70005 31.3 8.00005 31.3C7.30005 31.3 6.80005 31.8 6.80005 32.5V36.5C6.80005 38 7.40005 39.3 8.40005 40.1C9.40005 41.1 10.7 41.7001 12 41.7001H36C37.5 41.7001 38.8 41.1 39.6 40.1C40.6 39.1 41.2001 37.8 41.2001 36.5V32.5C41.2001 31.8 40.7 31.3 40 31.3Z" fill="#1F2024"/>
<path d="M23.2 32.3C23.2 32.3667 23.2 32.3667 23.2 32.3C23.3 32.4 23.4 32.5 23.6 32.6C23.7 32.7 23.9 32.7 24.1 32.7C24.3 32.7 24.4 32.7 24.6 32.6C24.7 32.5 24.9 32.5 25 32.3L35 22.3C35.5 21.8 35.5 21.1 35 20.6C34.5 20.1 33.8 20.1 33.3 20.6L25.3 28.6V7.50005C25.3 6.80005 24.8 6.30005 24.1 6.30005C23.4 6.30005 22.9 6.80005 22.9 7.50005V28.6L14.9 20.6C14.4 20.1 13.7 20.1 13.2 20.6C12.7 21.1 12.7 21.8 13.2 22.3L23.2 32.3Z" fill="#1F2024"/>
</svg>
