<svg width="48" height="48" viewBox="0 0 48 48" fill="none" xmlns="http://www.w3.org/2000/svg">
<path d="M32.6502 20.6601C33.3902 19.9201 34.6002 19.9201 35.3402 20.6601V20.6401C36.0802 21.3901 36.0802 22.5901 35.3402 23.3301L25.3402 33.3301C25.2502 33.4201 25.1502 33.5001 25.0502 33.5701C25.0252 33.5851 25.0027 33.5976 24.9802 33.6101C24.9577 33.6226 24.9352 33.6351 24.9102 33.6501C24.8502 33.6901 24.7902 33.7201 24.7202 33.7501C24.6817 33.7694 24.639 33.7804 24.5975 33.7911C24.5744 33.7971 24.5517 33.8029 24.5302 33.8101C24.518 33.8142 24.5061 33.8183 24.4945 33.8223C24.4494 33.8378 24.408 33.8521 24.3602 33.8601C24.2402 33.8901 24.1102 33.9001 23.9902 33.9001C23.8702 33.9001 23.7402 33.8801 23.6202 33.8601C23.5725 33.8521 23.531 33.8378 23.4859 33.8223C23.4743 33.8183 23.4625 33.8142 23.4502 33.8101C23.4312 33.8047 23.413 33.8 23.3953 33.7955C23.3477 33.7832 23.304 33.772 23.2602 33.7501C23.2175 33.7318 23.1785 33.7098 23.141 33.6886C23.117 33.675 23.0936 33.6618 23.0702 33.6501C23.0202 33.6301 22.9702 33.6101 22.9302 33.5801C22.8302 33.5101 22.7302 33.4301 22.6402 33.3401L12.6402 23.3401C11.9002 22.5901 11.9002 21.3901 12.6402 20.6501C13.3802 19.9101 14.5902 19.9101 15.3302 20.6501L22.0902 27.4101V8.0001C22.0902 6.9501 22.9402 6.1001 23.9902 6.1001C25.0402 6.1001 25.8902 6.9501 25.8902 8.0001V27.4201L32.6502 20.6601Z" fill="#1F2024"/>
<path d="M12.0001 41.9001H36.0001C37.5801 41.9001 39.0601 41.2801 40.1701 40.1701C41.2901 39.0601 41.9001 37.5801 41.9001 36.0001V32.0001C41.9001 30.9501 41.0501 30.1001 40.0001 30.1001C38.9501 30.1001 38.1001 30.9501 38.1001 32.0001V36.0001C38.1001 36.5701 37.8801 37.0901 37.4801 37.4901C37.0901 37.8801 36.5601 38.1001 36.0001 38.1001H12.0001C11.4301 38.1001 10.9101 37.8801 10.5101 37.4801C10.1201 37.0901 9.9001 36.5601 9.9001 36.0001V32.0001C9.9001 30.9501 9.0501 30.1001 8.0001 30.1001C6.9501 30.1001 6.1001 30.9501 6.1001 32.0001V36.0001C6.1001 37.5801 6.7201 39.0601 7.8301 40.1701C8.9401 41.2901 10.4201 41.9001 12.0001 41.9001Z" fill="#1F2024"/>
</svg>
