<svg width="48" height="48" viewBox="0 0 48 48" fill="none" xmlns="http://www.w3.org/2000/svg">
<path d="M39.9998 30.8C39.0998 30.8 38.2998 31.6 38.2998 32.5V36.5C38.2998 37.1 38.0998 37.6 37.5998 38.1L37.4998 38.2001C37.0998 38.7001 36.3998 38.8 35.9998 38.8H11.9998C11.3998 38.8 10.8998 38.6 10.3998 38.1L10.2998 38C9.7998 37.6 9.6998 36.9 9.6998 36.5V32.5C9.6998 31.6 8.8998 30.8 7.9998 30.8C7.0998 30.8 6.2998 31.6 6.2998 32.5V36.5C6.2998 38.1 6.8998 39.5 7.9998 40.5C9.0998 41.6 10.4998 42.2001 11.9998 42.2001H35.9998C37.5998 42.2001 38.9998 41.6 39.9998 40.5C41.0998 39.4 41.6998 38 41.6998 36.5V32.5C41.6998 31.6 40.8998 30.8 39.9998 30.8Z" fill="#1F2024"/>
<path d="M22.7998 32.7C22.8998 32.8 22.9998 32.9 23.0998 32.9C23.0998 32.9 23.1998 32.9 23.1998 33C23.2998 33 23.2998 33.1 23.3998 33.1C23.4998 33.1 23.4998 33.1 23.5998 33.2H24.3998C24.4665 33.2 24.5331 33.1667 24.5998 33.1C24.6998 33.1 24.6998 33 24.7998 33C24.7998 33 24.8998 33 24.8998 32.9C24.9998 32.8 25.0998 32.8 25.1998 32.7L35.1998 22.7C35.8998 22 35.8998 21 35.1998 20.3C34.4998 19.6 33.4998 19.6 32.7998 20.3L25.6998 27.4V7.50005C25.6998 6.60005 24.8998 5.80005 23.9998 5.80005C23.0998 5.80005 22.2998 6.60005 22.2998 7.50005V27.4L15.1998 20.3C14.4998 19.6 13.4998 19.6 12.7998 20.3C12.0998 21 12.0998 22 12.7998 22.7L22.7998 32.7Z" fill="#1F2024"/>
</svg>
