<svg width="48" height="48" viewBox="0 0 48 48" fill="none" xmlns="http://www.w3.org/2000/svg">
<path d="M40 30.8C39.1 30.8 38.3 31.6 38.3 32.5V36.5C38.3 37.1 38.1 37.6 37.6 38.1L37.5 38.2C37.1 38.7 36.4 38.8 36 38.8H12C11.4 38.8 10.9 38.6 10.4 38.1L10.3 38C9.80005 37.6 9.70005 36.9 9.70005 36.5V32.5C9.70005 31.6 8.90005 30.8 8.00005 30.8C7.10005 30.8 6.30005 31.6 6.30005 32.5V36.5C6.30005 38.1 6.90005 39.5 8.00005 40.5C9.10005 41.6 10.5 42.2 12 42.2H36C37.6 42.2 39 41.6 40 40.5C41.1 39.4 41.7001 38 41.7001 36.5V32.5C41.7001 31.6 40.9 30.8 40 30.8Z" fill="#1F2024"/>
<path d="M22.8 32.7C22.9 32.8 23 32.9 23.1 32.9C23.1 32.9 23.2 32.9 23.2 33C23.3 33 23.3 33.1 23.4 33.1C23.5 33.1 23.5 33.1 23.6 33.2H24.4C24.4667 33.2 24.5334 33.1667 24.6 33.1C24.7 33.1 24.7 33 24.8 33C24.8 33 24.9 33 24.9 32.9C25 32.8 25.1 32.8 25.2 32.7L35.2 22.7C35.9 22 35.9 21 35.2 20.3C34.5 19.6 33.5 19.6 32.8 20.3L25.7 27.4V7.49999C25.7 6.59999 24.9 5.79999 24 5.79999C23.1 5.79999 22.3 6.59999 22.3 7.49999V27.4L15.2 20.3C14.5 19.6 13.5 19.6 12.8 20.3C12.1 21 12.1 22 12.8 22.7L22.8 32.7Z" fill="#1F2024"/>
</svg>
