<svg width="48" height="48" viewBox="0 0 48 48" fill="none" xmlns="http://www.w3.org/2000/svg">
<path d="M36 42.5H12C10.53 42.5 9.15 41.93 8.11 40.89C7.07 39.85 6.5 38.47 6.5 37V33C6.5 32.17 7.17 31.5 8 31.5C8.83 31.5 9.5 32.17 9.5 33V37C9.5 37.67 9.76 38.3 10.23 38.77C10.7 39.24 11.33 39.5 12 39.5H36C36.67 39.5 37.3 39.24 37.77 38.77C38.24 38.3 38.5 37.67 38.5 37V33C38.5 32.17 39.17 31.5 40 31.5C40.83 31.5 41.5 32.17 41.5 33V37C41.5 38.47 40.93 39.85 39.89 40.89C38.85 41.93 37.47 42.5 36 42.5Z" fill="#1F2024"/>
<path d="M35.0601 20.94C34.4701 20.35 33.5201 20.35 32.9401 20.94L25.5001 28.38V8C25.5001 7.17 24.8301 6.5 24.0001 6.5C23.1701 6.5 22.5001 7.17 22.5001 8V28.38L15.0601 20.94C14.4701 20.35 13.5201 20.35 12.9401 20.94C12.3501 21.53 12.3501 22.48 12.9401 23.06L22.9401 33.06C23.0801 33.2 23.2501 33.31 23.4301 33.39C23.4301 33.39 23.4401 33.39 23.4501 33.39C23.6201 33.46 23.8001 33.5 24.0001 33.5C24.2001 33.5 24.3801 33.46 24.5501 33.39C24.5501 33.39 24.5601 33.39 24.5701 33.39C24.7601 33.31 24.9201 33.2 25.0601 33.06L35.0601 23.06C35.6501 22.47 35.6501 21.52 35.0601 20.94Z" fill="#1F2024"/>
</svg>
