<svg width="48" height="48" viewBox="0 0 48 48" fill="none" xmlns="http://www.w3.org/2000/svg">
<path d="M32.6502 20.66C33.3902 19.92 34.6002 19.92 35.3402 20.66V20.64C36.0802 21.39 36.0802 22.59 35.3402 23.33L25.3402 33.33C25.2502 33.42 25.1502 33.5 25.0502 33.57C25.0252 33.585 25.0027 33.5975 24.9802 33.61C24.9577 33.6225 24.9352 33.635 24.9102 33.65C24.8502 33.69 24.7902 33.72 24.7202 33.75C24.6817 33.7692 24.639 33.7803 24.5975 33.791C24.5744 33.7969 24.5517 33.8028 24.5302 33.81C24.518 33.8141 24.5061 33.8181 24.4945 33.8221C24.4494 33.8377 24.408 33.852 24.3602 33.86C24.2402 33.89 24.1102 33.9 23.9902 33.9C23.8702 33.9 23.7402 33.88 23.6202 33.86C23.5725 33.852 23.531 33.8377 23.4859 33.8221C23.4743 33.8181 23.4625 33.8141 23.4502 33.81C23.4312 33.8046 23.413 33.7999 23.3953 33.7953C23.3477 33.7831 23.304 33.7718 23.2602 33.75C23.2175 33.7317 23.1785 33.7096 23.141 33.6884C23.117 33.6749 23.0936 33.6617 23.0702 33.65C23.0202 33.63 22.9702 33.61 22.9302 33.58C22.8302 33.51 22.7302 33.43 22.6402 33.34L12.6402 23.34C11.9002 22.59 11.9002 21.39 12.6402 20.65C13.3802 19.91 14.5902 19.91 15.3302 20.65L22.0902 27.41V7.99998C22.0902 6.94998 22.9402 6.09998 23.9902 6.09998C25.0402 6.09998 25.8902 6.94998 25.8902 7.99998V27.42L32.6502 20.66Z" fill="#1F2024"/>
<path d="M12.0001 41.9H36.0001C37.5801 41.9 39.0601 41.28 40.1701 40.17C41.2901 39.06 41.9001 37.58 41.9001 36V32C41.9001 30.95 41.0501 30.1 40.0001 30.1C38.9501 30.1 38.1001 30.95 38.1001 32V36C38.1001 36.57 37.8801 37.09 37.4801 37.49C37.0901 37.88 36.5601 38.1 36.0001 38.1H12.0001C11.4301 38.1 10.9101 37.88 10.5101 37.48C10.1201 37.09 9.9001 36.56 9.9001 36V32C9.9001 30.95 9.0501 30.1 8.0001 30.1C6.9501 30.1 6.1001 30.95 6.1001 32V36C6.1001 37.58 6.7201 39.06 7.8301 40.17C8.9401 41.29 10.4201 41.9 12.0001 41.9Z" fill="#1F2024"/>
</svg>
