<svg width="48" height="48" viewBox="0 0 48 48" fill="none" xmlns="http://www.w3.org/2000/svg">
<path d="M40.5 39.2049H7.5C6.67 39.2049 6 39.8749 6 40.7049C6 41.5349 6.67 42.2049 7.5 42.2049H40.5C41.33 42.2049 42 41.5349 42 40.7049C42 39.8749 41.33 39.2049 40.5 39.2049Z" fill="#1F2024"/>
<path d="M12.12 36.1549C12.2 36.1549 12.29 36.1549 12.37 36.1449L19.05 35.4649C19.61 35.4049 20.13 35.1549 20.52 34.7649L39.31 16.0349C39.77 15.5749 40.03 14.9549 40.03 14.3049C40.03 13.6549 39.78 13.0349 39.31 12.5649L33.26 6.51492C32.8 6.05492 32.21 5.81492 31.53 5.79492C30.87 5.79492 30.26 6.05492 29.8 6.51492L11.06 25.3049C10.67 25.7049 10.42 26.2249 10.36 26.7849L9.68 33.4549C9.6 34.1949 9.86 34.9149 10.39 35.4349C10.85 35.8949 11.47 36.1549 12.12 36.1549ZM31.53 8.88492L36.95 14.3049L34.58 16.6649L29.17 11.2549L31.53 8.88492ZM13.23 27.2349L27.05 13.3749L32.45 18.7749L18.59 32.5949L12.62 33.2049L13.23 27.2349Z" fill="#1F2024"/>
</svg>
