<svg width="48" height="48" viewBox="0 0 48 48" fill="none" xmlns="http://www.w3.org/2000/svg">
<path d="M40.5 39.0269H7.50005C6.56005 39.0269 5.80005 39.7869 5.80005 40.7269C5.80005 41.6669 6.56005 42.4269 7.50005 42.4269H40.5C41.44 42.4269 42.2001 41.6669 42.2001 40.7269C42.2001 39.7869 41.44 39.0269 40.5 39.0269Z" fill="#1F2024"/>
<path d="M29.63 6.36687L10.93 25.1669C10.34 25.7669 10.17 26.3769 10.15 26.8169L9.46005 33.4569V33.6269C9.46005 34.4469 9.82005 35.2569 10.45 35.7869C10.91 36.1769 11.49 36.3969 12.08 36.3969C12.19 36.3969 12.3 36.3969 12.41 36.3769L19.02 35.6869C19.46 35.6669 20.08 35.4969 20.67 34.9069L39.47 16.1969C39.98 15.6869 40.25 15.0269 40.25 14.3269C40.25 13.6269 39.97 12.9669 39.47 12.4569L33.37 6.35687C32.33 5.31687 30.68 5.30687 29.63 6.35687V6.36687ZM18.48 32.4169L12.82 33.0069L13.41 27.3469L27.02 13.6569L32.16 18.7969L18.47 32.4069L18.48 32.4169ZM34.58 16.3969L29.43 11.2469L31.51 9.15687L36.67 14.3169L34.58 16.3969Z" fill="#1F2024"/>
</svg>
