<svg width="48" height="48" viewBox="0 0 48 48" fill="none" xmlns="http://www.w3.org/2000/svg">
<path d="M7.50005 41.9238H40.5C41.16 41.9238 41.7001 41.3838 41.7001 40.7238C41.7001 40.0638 41.16 39.5238 40.5 39.5238H7.50005C6.84005 39.5238 6.30005 40.0638 6.30005 40.7238C6.30005 41.3838 6.84005 41.9238 7.50005 41.9238Z" fill="#1F2024"/>
<path d="M12.06 35.8838C12.15 35.8838 12.25 35.8838 12.34 35.8638L18.97 35.1738C19.32 35.1538 19.82 35.0238 20.3 34.5438L39.1101 15.8338C39.5201 15.4238 39.75 14.8838 39.75 14.3238C39.75 13.7638 39.5201 13.2238 39.1101 12.8138L33.01 6.71379C32.16 5.86379 30.83 5.86379 29.98 6.71379L11.29 25.5138C10.8 26.0038 10.67 26.4938 10.66 26.8538L9.96005 33.5138V33.6338C9.96005 34.3138 10.26 34.9738 10.77 35.4038C11.15 35.7238 11.6 35.8938 12.06 35.8938V35.8838ZM37.37 14.3238L34.57 17.1038L28.71 11.2438L31.49 8.44379L37.37 14.3238ZM12.94 27.1138L27.03 12.9438L32.88 18.7938L18.71 32.8838L12.26 33.5538L12.93 27.1038L12.94 27.1138Z" fill="#1F2024"/>
</svg>
