<svg width="48" height="48" viewBox="0 0 48 48" fill="none" xmlns="http://www.w3.org/2000/svg">
<path d="M43.4998 32.8H17.9998C17.2798 32.8 16.5298 32.51 16.0398 32.03C15.6498 31.58 15.1998 30.87 15.1998 30V4.50005C15.1998 3.56005 14.4398 2.80005 13.4998 2.80005C12.5598 2.80005 11.7998 3.56005 11.7998 4.50005V11.8H4.4998C3.5598 11.8 2.7998 12.56 2.7998 13.5C2.7998 14.44 3.5598 15.2 4.4998 15.2H11.7998V30C11.7998 31.56 12.3998 33.06 13.5298 34.33C13.5498 34.36 13.5798 34.38 13.5998 34.4C14.7298 35.53 16.3698 36.2001 17.9998 36.2001H32.7998V43.5C32.7998 44.44 33.5598 45.2001 34.4998 45.2001C35.4398 45.2001 36.1998 44.44 36.1998 43.5V36.2001H43.4998C44.4398 36.2001 45.1998 35.44 45.1998 34.5C45.1998 33.56 44.4398 32.8 43.4998 32.8Z" fill="#1F2024"/>
<path d="M34.4998 30.2C35.4398 30.2 36.1998 29.44 36.1998 28.5V18C36.1998 16.44 35.5998 14.94 34.4698 13.67C34.4498 13.64 34.4198 13.62 34.3998 13.6C33.2698 12.47 31.6298 11.8 29.9998 11.8H19.4998C18.5598 11.8 17.7998 12.56 17.7998 13.5C17.7998 14.44 18.5598 15.2 19.4998 15.2H29.9998C30.7198 15.2 31.4698 15.49 31.9598 15.97C32.3498 16.42 32.7998 17.13 32.7998 18V28.5C32.7998 29.44 33.5598 30.2 34.4998 30.2Z" fill="#1F2024"/>
</svg>
