<svg width="48" height="48" viewBox="0 0 48 48" fill="none" xmlns="http://www.w3.org/2000/svg">
<path d="M40.5 42.105H7.5C6.67 42.105 6 41.435 6 40.605C6 39.775 6.67 39.105 7.5 39.105H40.5C41.33 39.105 42 39.775 42 40.605C42 41.435 41.33 42.105 40.5 42.105Z" fill="#1F2024"/>
<path d="M36.63 17.995C36.42 17.995 36.22 17.915 36.06 17.765L27.97 9.66502C27.66 9.35502 27.66 8.84502 27.97 8.53502L29.9401 6.55502C30.3701 6.12502 30.93 5.89502 31.5301 5.89502C32.1301 5.89502 32.7001 6.12502 33.1201 6.55502L39.17 12.605C39.59 13.035 39.8301 13.595 39.8301 14.195C39.8301 14.795 39.59 15.365 39.17 15.785L37.1901 17.755C37.0401 17.905 36.84 17.985 36.63 17.985V17.995Z" fill="#1F2024"/>
<path d="M12.1201 35.865C11.5201 35.865 10.9601 35.635 10.5301 35.205C10.0501 34.725 9.81012 34.065 9.88012 33.385L10.5601 26.705C10.6101 26.195 10.8401 25.705 11.2101 25.345L25.1401 11.365C25.2901 11.215 25.4901 11.125 25.7101 11.125C25.9301 11.125 26.1301 11.205 26.2801 11.355L34.3701 19.445C34.5201 19.595 34.6001 19.795 34.6001 20.015C34.6001 20.235 34.5201 20.435 34.3601 20.585L20.3801 34.515C20.0101 34.875 19.5301 35.105 19.0201 35.165L12.3501 35.845C12.2701 35.845 12.2001 35.845 12.1201 35.845V35.865Z" fill="#1F2024"/>
</svg>
