<svg width="48" height="48" viewBox="0 0 48 48" fill="none" xmlns="http://www.w3.org/2000/svg">
<path d="M19.4998 14.7H29.9998C30.8698 14.7 31.7698 15.06 32.2998 15.6C32.7498 16.11 33.2998 16.94 33.2998 18V28.5C33.2998 29.16 33.8398 29.7 34.4998 29.7C35.1598 29.7 35.6998 29.16 35.6998 28.5V18C35.6998 16.57 35.1498 15.18 34.0498 13.95C33.0198 12.92 31.4998 12.3 29.9998 12.3H19.4998C18.8398 12.3 18.2998 12.84 18.2998 13.5C18.2998 14.16 18.8398 14.7 19.4998 14.7Z" fill="#1F2024"/>
<path d="M4.4998 14.7H12.2998V30C12.2998 31.43 12.8498 32.82 13.9498 34.05C14.9798 35.08 16.4998 35.7001 17.9998 35.7001H33.2998V43.5C33.2998 44.16 33.8398 44.7001 34.4998 44.7001C35.1598 44.7001 35.6998 44.16 35.6998 43.5V35.7001H43.4998C44.1598 35.7001 44.6998 35.16 44.6998 34.5C44.6998 33.84 44.1598 33.3 43.4998 33.3H17.9998C17.1298 33.3 16.2298 32.94 15.6998 32.4C15.2498 31.89 14.6998 31.06 14.6998 30V4.50005C14.6998 3.84005 14.1598 3.30005 13.4998 3.30005C12.8398 3.30005 12.2998 3.84005 12.2998 4.50005V12.3H4.4998C3.8398 12.3 3.2998 12.84 3.2998 13.5C3.2998 14.16 3.8398 14.7 4.4998 14.7Z" fill="#1F2024"/>
</svg>
