<svg width="48" height="48" viewBox="0 0 48 48" fill="none" xmlns="http://www.w3.org/2000/svg">
<path d="M7.50005 41.9237H40.5C41.16 41.9237 41.7001 41.3837 41.7001 40.7237C41.7001 40.0637 41.16 39.5237 40.5 39.5237H7.50005C6.84005 39.5237 6.30005 40.0637 6.30005 40.7237C6.30005 41.3837 6.84005 41.9237 7.50005 41.9237Z" fill="#1F2024"/>
<path d="M12.06 35.8837C12.15 35.8837 12.25 35.8837 12.34 35.8637L18.97 35.1737C19.32 35.1537 19.82 35.0237 20.3 34.5437L39.1101 15.8337C39.5201 15.4237 39.75 14.8837 39.75 14.3237C39.75 13.7637 39.5201 13.2237 39.1101 12.8137L33.01 6.71373C32.16 5.86373 30.83 5.86373 29.98 6.71373L11.29 25.5137C10.8 26.0037 10.67 26.4937 10.66 26.8537L9.96005 33.5137V33.6337C9.96005 34.3137 10.26 34.9737 10.77 35.4037C11.15 35.7237 11.6 35.8937 12.06 35.8937V35.8837ZM37.37 14.3237L34.57 17.1037L28.71 11.2437L31.49 8.44373L37.37 14.3237ZM12.94 27.1137L27.03 12.9437L32.88 18.7937L18.71 32.8837L12.26 33.5537L12.93 27.1037L12.94 27.1137Z" fill="#1F2024"/>
</svg>
