<svg width="48" height="48" viewBox="0 0 48 48" fill="none" xmlns="http://www.w3.org/2000/svg">
<path d="M7.4998 41.9237H40.4998C41.1598 41.9237 41.6998 41.3837 41.6998 40.7237C41.6998 40.0637 41.1598 39.5237 40.4998 39.5237H7.4998C6.8398 39.5237 6.2998 40.0637 6.2998 40.7237C6.2998 41.3837 6.8398 41.9237 7.4998 41.9237Z" fill="#1F2024"/>
<path d="M12.0598 35.8837C12.1498 35.8837 12.2498 35.8837 12.3398 35.8637L18.9698 35.1737C19.3198 35.1537 19.8198 35.0237 20.2998 34.5437L39.1098 15.8337C39.5198 15.4237 39.7498 14.8837 39.7498 14.3237C39.7498 13.7637 39.5198 13.2237 39.1098 12.8137L33.0098 6.71367C32.1598 5.86367 30.8298 5.86367 29.9798 6.71367L11.2898 25.5137C10.7998 26.0037 10.6698 26.4937 10.6598 26.8537L9.9598 33.5137V33.6337C9.9598 34.3137 10.2598 34.9737 10.7698 35.4037C11.1498 35.7237 11.5998 35.8937 12.0598 35.8937V35.8837ZM37.3698 14.3237L34.5698 17.1037L28.7098 11.2437L31.4898 8.44367L37.3698 14.3237ZM12.9398 27.1137L27.0298 12.9437L32.8798 18.7937L18.7098 32.8837L12.2598 33.5537L12.9298 27.1037L12.9398 27.1137Z" fill="#1F2024"/>
</svg>
