<svg width="48" height="48" viewBox="0 0 48 48" fill="none" xmlns="http://www.w3.org/2000/svg">
<path d="M40.4998 39.027H7.4998C6.5598 39.027 5.7998 39.787 5.7998 40.727C5.7998 41.667 6.5598 42.427 7.4998 42.427H40.4998C41.4398 42.427 42.1998 41.667 42.1998 40.727C42.1998 39.787 41.4398 39.027 40.4998 39.027Z" fill="#1F2024"/>
<path d="M29.6298 6.367L10.9298 25.167C10.3398 25.767 10.1698 26.377 10.1498 26.817L9.4598 33.457V33.627C9.4598 34.447 9.8198 35.257 10.4498 35.787C10.9098 36.177 11.4898 36.397 12.0798 36.397C12.1898 36.397 12.2998 36.397 12.4098 36.377L19.0198 35.687C19.4598 35.667 20.0798 35.497 20.6698 34.907L39.4698 16.197C39.9798 15.687 40.2498 15.027 40.2498 14.327C40.2498 13.627 39.9698 12.967 39.4698 12.457L33.3698 6.357C32.3298 5.317 30.6798 5.307 29.6298 6.357V6.367ZM18.4798 32.417L12.8198 33.007L13.4098 27.347L27.0198 13.657L32.1598 18.797L18.4698 32.407L18.4798 32.417ZM34.5798 16.397L29.4298 11.247L31.5098 9.157L36.6698 14.317L34.5798 16.397Z" fill="#1F2024"/>
</svg>
