<svg width="48" height="48" viewBox="0 0 48 48" fill="none" xmlns="http://www.w3.org/2000/svg">
<path d="M43.5 33H18C17.2 33 16.4 32.7 15.9 32.1C15.3 31.5 15 30.8 15 30V4.5C15 3.7 14.3 3 13.5 3C12.7 3 12 3.7 12 4.5V12H4.5C3.67 12 3 12.67 3 13.5C3 14.33 3.67 15 4.5 15H12V30C12 31.6 12.6 33.1 13.8 34.2C14.9 35.4 16.4 36 18 36H33V43.5C33 44.3 33.7 45 34.5 45C35.3 45 36 44.3 36 43.5V36H43.5C44.3 36 45 35.3 45 34.5C45 33.7 44.3 33 43.5 33Z" fill="#1F2024"/>
<path d="M19.5 15H30C30.8 15 31.6 15.3 32.1 15.9C32.7 16.5 33 17.2 33 18V28.5C33 29.3 33.7 30 34.5 30C35.3 30 36 29.3 36 28.5V18C36 16.4 35.4 14.9 34.2 13.8C33.1 12.7 31.6 12 30 12H19.5C18.7 12 18 12.7 18 13.5C18 14.3 18.7 15 19.5 15Z" fill="#1F2024"/>
</svg>
