<svg width="48" height="48" viewBox="0 0 48 48" fill="none" xmlns="http://www.w3.org/2000/svg">
<path d="M43.5885 17.1356C43.5869 15.6797 43.0078 14.2838 41.9783 13.2543C40.9488 12.2248 39.553 11.6458 38.097 11.6442H34.983V10.2713C34.9818 9.17933 34.5476 8.13241 33.7754 7.36027C33.0033 6.58813 31.9564 6.15385 30.8644 6.15271H17.1357C16.0438 6.15385 14.9968 6.58813 14.2247 7.36027C13.4526 8.13241 13.0183 9.17933 13.0171 10.2713V11.6442H9.90308C8.44714 11.6458 7.05129 12.2248 6.02179 13.2543C4.99228 14.2838 4.41321 15.6797 4.41162 17.1356V21.2542H43.5885V17.1356ZM32.2372 11.6442H15.7629V10.2713C15.7629 9.9072 15.9075 9.558 16.165 9.30054C16.4224 9.04308 16.7716 8.89844 17.1357 8.89844H30.8644C31.2285 8.89844 31.5777 9.04308 31.8351 9.30054C32.0926 9.558 32.2372 9.9072 32.2372 10.2713V11.6442Z" fill="#1F2024"/>
<path d="M29.0339 24.6864C29.0339 25.2325 28.8169 25.7563 28.4307 26.1425C28.0446 26.5287 27.5208 26.7457 26.9746 26.7457H21.0255C20.4794 26.7457 19.9556 26.5287 19.5694 26.1425C19.1832 25.7563 18.9662 25.2325 18.9662 24.6864V24.3432C18.9662 24.2521 18.9301 24.1648 18.8657 24.1005C18.8013 24.0361 18.714 24 18.623 24H4.41162V36.3557C4.41162 37.8122 4.99018 39.2089 6.02003 40.2388C7.04988 41.2686 8.44666 41.8472 9.90308 41.8472H38.097C39.5535 41.8472 40.9502 41.2686 41.9801 40.2388C43.0099 39.2089 43.5885 37.8122 43.5885 36.3557V24H29.3771C29.2861 24 29.1988 24.0361 29.1344 24.1005C29.0701 24.1648 29.0339 24.2521 29.0339 24.3432V24.6864Z" fill="#1F2024"/>
</svg>
