<svg width="48" height="48" viewBox="0 0 48 48" fill="none" xmlns="http://www.w3.org/2000/svg">
<path fill-rule="evenodd" clip-rule="evenodd" d="M13.0001 10.4215V9.07849C13.0001 7.88502 13.4742 6.74042 14.3181 5.89651C15.162 5.0526 16.3066 4.57849 17.5001 4.57849H30.5001C31.6936 4.57849 32.8382 5.0526 33.6821 5.89651C34.526 6.74042 35.0001 7.88502 35.0001 9.07849V10.4215H38.5C41.8137 10.4215 44.5 13.1078 44.5 16.4215V37.4215C44.5 40.7352 41.8137 43.4215 38.5 43.4215H9.5C6.18629 43.4215 3.5 40.7352 3.5 37.4215V16.4215C3.5 13.1078 6.18629 10.4215 9.5 10.4215H13.0001ZM16.4394 8.01783C16.7207 7.73653 17.1023 7.57849 17.5001 7.57849H30.5001C30.8979 7.57849 31.2795 7.73653 31.5608 8.01783C31.8421 8.29914 32.0001 8.68067 32.0001 9.07849V10.4215H16.0001V9.07849C16.0001 8.68067 16.1581 8.29914 16.4394 8.01783ZM41.5 16.4215V20.9215H6.5V16.4215C6.5 14.7646 7.84315 13.4215 9.5 13.4215H38.5C40.1569 13.4215 41.5 14.7646 41.5 16.4215ZM18.5 23.9215H6.5V37.4215C6.5 39.0783 7.84315 40.4215 9.5 40.4215H38.5C40.1569 40.4215 41.5 39.0783 41.5 37.4215V23.9215H29.5V24.6715C29.5 25.2682 29.263 25.8405 28.841 26.2625C28.419 26.6844 27.8467 26.9215 27.25 26.9215H20.75C20.1533 26.9215 19.581 26.6844 19.159 26.2625C18.737 25.8405 18.5 25.2682 18.5 24.6715V23.9215Z" fill="#1F2024"/>
</svg>
