<svg width="48" height="48" viewBox="0 0 48 48" fill="none" xmlns="http://www.w3.org/2000/svg">
<path d="M24.1 31.85C23.7 31.85 23.3 31.85 22.8 31.75C22.3 31.25 22.2 30.65 22.4 30.15C22.6 29.75 23 29.45 23.5 29.45H24C25.4 29.45 26.7 28.95 27.7 28.05C28.9 27.05 29.5 25.65 29.6 24.05C29.6 23.45 30.2 22.95 30.8 22.95C31.5 22.95 32 23.55 32 24.25C31.9 26.45 30.9 28.45 29.3 29.85C27.9 31.15 26 31.85 24.1 31.85Z" fill="#1F2024"/>
<path d="M7.70002 41.65C7.50002 41.65 7.40002 41.65 7.20002 41.55H7.10002C6.90002 41.35 6.70002 41.25 6.70002 41.05C6.60002 40.75 6.50002 40.55 6.60002 40.35C6.60002 40.05 6.80002 39.85 6.90002 39.65L17.6 28.95L17.4 28.75C14.9 25.65 15 21.25 17.6 18.25C19 16.65 21 15.65 23.2 15.45H23.8C25.7 15.45 27.5 16.05 29 17.25L29.2 17.45L40 6.65001C40.2 6.45001 40.5 6.35001 40.9 6.35001C41.2 6.35001 41.5 6.45001 41.7 6.65001C41.9 6.85001 42 7.15001 42 7.45001C42 7.85001 41.9 8.15001 41.7 8.35001L8.70002 41.35C8.70002 41.35 8.60002 41.45 8.50002 41.45C8.40002 41.45 8.40002 41.55 8.30002 41.55C8.00002 41.65 7.90002 41.65 7.70002 41.65ZM23.8 17.85H23.4C21.8 17.95 20.4 18.65 19.4 19.85C18.4 21.05 17.9 22.55 18 24.05C18.1 25.15 18.4 26.15 19 26.95L19.2 27.25L27.4 19.05L27.1 18.85C26.2 18.25 25 17.85 23.8 17.85Z" fill="#1F2024"/>
<path d="M24.1 38.55C21.7 38.55 19.4 38.15 17.2 37.45L19.1 35.55H19.2C20.8 36.05 22.3 36.35 24.1 36.35C27.9 36.35 31.7 35.15 35.4 32.95C38.5 30.85 40.5 28.05 42.8 24.35L42.9 24.15L42.8 23.95C42.2 23.15 41.8 22.45 41.3 21.75C40.2 20.05 39.3 18.55 37.7 17.25V17.15L39.4 15.45C41 16.85 42 18.45 43.2 20.25C43.7 20.95 44.2 21.75 44.7 22.55C45 23.05 45.1 23.55 45.1 24.05C45.1 24.55 44.9 25.15 44.6 25.55C42.1 29.45 39.9 32.55 36.5 34.85C32.8 37.25 28.6 38.55 24.1 38.55Z" fill="#1F2024"/>
<path d="M8.60002 32.65C6.70002 30.95 5.60002 29.05 4.30002 26.85C4.00002 26.35 3.70002 25.85 3.40002 25.45C3.10002 24.95 2.90002 24.45 2.90002 24.05C2.90002 23.45 3.10002 22.95 3.40002 22.45C5.80002 18.85 8.00002 15.45 11.6 13.15C15.6 10.55 19.9 9.15001 24.1 9.15001C26.4 9.15001 28.8 9.55001 30.8 10.25L28.9 12.15H28.7C27.3 11.75 25.7 11.55 24 11.55C20.2 11.55 16.3 12.75 12.7 15.05C9.40002 17.15 7.50002 20.05 5.40002 23.45L5.20002 23.85L5.30002 24.05C5.60002 24.55 5.90002 24.95 6.10002 25.45C7.30002 27.45 8.40002 29.25 10.2 30.85V30.95L8.60002 32.65Z" fill="#1F2024"/>
</svg>
