<svg width="48" height="48" viewBox="0 0 48 48" fill="none" xmlns="http://www.w3.org/2000/svg">
<path d="M24.0005 30C27.3105 30 30.0005 27.31 30.0005 24C30.0005 20.69 27.3105 18 24.0005 18C20.6905 18 18.0005 20.69 18.0005 24C18.0005 27.31 20.6905 30 24.0005 30Z" fill="#1F2024"/>
<path d="M45.0204 22.37C42.5404 18.53 40.3204 15.27 36.7104 12.94C32.7204 10.36 28.3104 9 23.9704 9C19.9804 9 16.0604 10.14 12.3204 12.39C8.50044 14.68 6.04044 18.02 3.04044 22.33C2.70044 22.82 2.51044 23.39 2.50044 23.99C2.49044 24.58 2.65044 25.17 2.98044 25.66C5.46044 29.54 7.64044 32.8 11.1904 35.1C15.1904 37.69 19.4904 39 23.9704 39C28.4504 39 32.7604 37.65 36.7404 35.09C40.3504 32.77 42.5604 29.5 45.0304 25.63C45.3404 25.14 45.5004 24.58 45.5004 24C45.5004 23.42 45.3304 22.86 45.0204 22.37ZM24.0004 33C22.2204 33 20.4804 32.47 19.0004 31.48C17.5204 30.49 16.3704 29.09 15.6804 27.44C15.0004 25.8 14.8204 23.99 15.1704 22.24C15.5204 20.49 16.3704 18.89 17.6304 17.63C18.8904 16.37 20.4904 15.51 22.2404 15.17C23.9904 14.82 25.8004 15 27.4404 15.68C29.0904 16.36 30.4904 17.52 31.4804 19C32.4704 20.48 33.0004 22.22 33.0004 24C33.0004 26.39 32.0504 28.67 30.3604 30.36C28.6704 32.05 26.3804 33 24.0004 33Z" fill="#1F2024"/>
</svg>
