<svg width="48" height="48" viewBox="0 0 48 48" fill="none" xmlns="http://www.w3.org/2000/svg">
<path d="M45.27 22.44C45.24 22.38 45.21 22.33 45.18 22.28C41.23 16.13 34.35 8.80005 24.05 8.80005C16.15 8.80005 9.26998 13.16 3.01998 22.14C2.58998 22.64 2.34998 23.3 2.34998 24C2.34998 24.7 2.58998 25.28 2.72998 25.56C2.74998 25.61 2.77998 25.66 2.80998 25.71C8.47998 34.66 15.59 39.2 23.95 39.2C34.37 39.2 41.2 31.95 45.12 25.82C45.65 25.16 45.65 24.39 45.65 24C45.65 23.31 45.41 22.73 45.27 22.44ZM23.95 35.8C16.9 35.8 10.79 31.86 5.80998 24.08C11.38 16.09 17.35 12.2 24.05 12.2C32.75 12.2 38.74 18.59 42.24 24C38.79 29.41 32.83 35.8 23.95 35.8Z" fill="#1F2024"/>
<path d="M24.05 15.3C19.17 15.3 15.35 19.12 15.35 24C15.35 28.88 19.17 32.7 24.05 32.7C28.93 32.7 32.75 28.88 32.75 24C32.75 19.12 28.93 15.3 24.05 15.3ZM24.05 29.3C21.08 29.3 18.75 26.97 18.75 24C18.75 21.03 21.08 18.7 24.05 18.7C27.02 18.7 29.35 21.03 29.35 24C29.35 26.97 27.02 29.3 24.05 29.3Z" fill="#1F2024"/>
</svg>
