<svg width="48" height="48" viewBox="0 0 48 48" fill="none" xmlns="http://www.w3.org/2000/svg">
<path d="M3.2401 25.44C8.8201 34.24 15.7801 38.7 23.9501 38.7C34.1601 38.7 40.8701 31.56 44.7101 25.53C45.1501 25 45.1501 24.38 45.1501 24C45.1501 23.41 44.9501 22.91 44.8201 22.67C44.8001 22.63 44.7801 22.59 44.7601 22.56C40.8701 16.51 34.1301 9.30005 24.0501 9.30005C16.3201 9.30005 9.5701 13.6 3.4101 22.45C3.0501 22.86 2.8501 23.42 2.8501 24C2.8501 24.58 3.0601 25.09 3.1801 25.34C3.2001 25.38 3.2201 25.41 3.2401 25.44ZM5.3401 23.88C11.0301 15.69 17.1501 11.7 24.0501 11.7C33.0101 11.7 39.1301 18.25 42.7001 23.78C42.7301 23.86 42.7501 23.95 42.7501 24C42.7501 24.04 42.7501 24.09 42.7501 24.13C42.7501 24.13 42.7501 24.14 42.7401 24.15C39.2301 29.69 33.1201 36.29 23.9501 36.29C16.6801 36.29 10.4001 32.23 5.3001 24.21C5.2701 24.14 5.2401 24.05 5.2001 24.04C5.2501 23.99 5.3001 23.93 5.3401 23.88Z" fill="#1F2024"/>
<path d="M24.0501 32.2C28.6501 32.2 32.2501 28.6 32.2501 24C32.2501 19.4 28.6501 15.8 24.0501 15.8C19.4501 15.8 15.8501 19.4 15.8501 24C15.8501 28.6 19.4501 32.2 24.0501 32.2ZM24.0501 18.2C27.3001 18.2 29.8501 20.75 29.8501 24C29.8501 27.25 27.3001 29.8 24.0501 29.8C20.8001 29.8 18.2501 27.25 18.2501 24C18.2501 20.75 20.8001 18.2 24.0501 18.2Z" fill="#1F2024"/>
</svg>
