<svg width="48" height="48" viewBox="0 0 48 48" fill="none" xmlns="http://www.w3.org/2000/svg">
<path d="M24.0002 30C27.3102 30 30.0002 27.31 30.0002 24C30.0002 20.69 27.3102 18 24.0002 18C20.6902 18 18.0002 20.69 18.0002 24C18.0002 27.31 20.6902 30 24.0002 30Z" fill="#1F2024"/>
<path d="M45.0202 22.37C42.5402 18.53 40.3202 15.27 36.7102 12.94C32.7202 10.36 28.3102 9 23.9702 9C19.9802 9 16.0602 10.14 12.3202 12.39C8.5002 14.68 6.0402 18.02 3.0402 22.33C2.7002 22.82 2.5102 23.39 2.5002 23.99C2.4902 24.58 2.6502 25.17 2.9802 25.66C5.4602 29.54 7.6402 32.8 11.1902 35.1C15.1902 37.69 19.4902 39 23.9702 39C28.4502 39 32.7602 37.65 36.7402 35.09C40.3502 32.77 42.5602 29.5 45.0302 25.63C45.3402 25.14 45.5002 24.58 45.5002 24C45.5002 23.42 45.3302 22.86 45.0202 22.37ZM24.0002 33C22.2202 33 20.4802 32.47 19.0002 31.48C17.5202 30.49 16.3702 29.09 15.6802 27.44C15.0002 25.8 14.8202 23.99 15.1702 22.24C15.5202 20.49 16.3702 18.89 17.6302 17.63C18.8902 16.37 20.4902 15.51 22.2402 15.17C23.9902 14.82 25.8002 15 27.4402 15.68C29.0902 16.36 30.4902 17.52 31.4802 19C32.4702 20.48 33.0002 22.22 33.0002 24C33.0002 26.39 32.0502 28.67 30.3602 30.36C28.6702 32.05 26.3802 33 24.0002 33Z" fill="#1F2024"/>
</svg>
