<svg width="48" height="48" viewBox="0 0 48 48" fill="none" xmlns="http://www.w3.org/2000/svg">
<path d="M24.0999 31.8501C23.6999 31.8501 23.2999 31.8501 22.7999 31.7501C22.2999 31.2501 22.1999 30.6501 22.3999 30.1501C22.5999 29.7501 22.9999 29.4501 23.4999 29.4501H23.9999C25.3999 29.4501 26.6999 28.9501 27.6999 28.0501C28.8999 27.0501 29.4999 25.6501 29.5999 24.0501C29.5999 23.4501 30.1999 22.9501 30.7999 22.9501C31.4999 22.9501 31.9999 23.5501 31.9999 24.2501C31.8999 26.4501 30.8999 28.4501 29.2999 29.8501C27.8999 31.1501 25.9999 31.8501 24.0999 31.8501Z" fill="#1F2024"/>
<path d="M7.6999 41.6501C7.4999 41.6501 7.3999 41.6501 7.1999 41.5501H7.0999C6.8999 41.3501 6.6999 41.2501 6.6999 41.0501C6.5999 40.7501 6.4999 40.5501 6.5999 40.3501C6.5999 40.0501 6.7999 39.8501 6.8999 39.6501L17.5999 28.9501L17.3999 28.7501C14.8999 25.6501 14.9999 21.2501 17.5999 18.2501C18.9999 16.6501 20.9999 15.6501 23.1999 15.4501H23.7999C25.6999 15.4501 27.4999 16.0501 28.9999 17.2501L29.1999 17.4501L39.9999 6.6501C40.1999 6.4501 40.4999 6.3501 40.8999 6.3501C41.1999 6.3501 41.4999 6.4501 41.6999 6.6501C41.8999 6.8501 41.9999 7.1501 41.9999 7.4501C41.9999 7.8501 41.8999 8.1501 41.6999 8.3501L8.6999 41.3501C8.6999 41.3501 8.5999 41.4501 8.4999 41.4501C8.3999 41.4501 8.3999 41.5501 8.2999 41.5501C7.9999 41.6501 7.8999 41.6501 7.6999 41.6501ZM23.7999 17.8501H23.3999C21.7999 17.9501 20.3999 18.6501 19.3999 19.8501C18.3999 21.0501 17.8999 22.5501 17.9999 24.0501C18.0999 25.1501 18.3999 26.1501 18.9999 26.9501L19.1999 27.2501L27.3999 19.0501L27.0999 18.8501C26.1999 18.2501 24.9999 17.8501 23.7999 17.8501Z" fill="#1F2024"/>
<path d="M24.0999 38.5501C21.6999 38.5501 19.3999 38.1501 17.1999 37.4501L19.0999 35.5501H19.1999C20.7999 36.0501 22.2999 36.3501 24.0999 36.3501C27.8999 36.3501 31.6999 35.1501 35.3999 32.9501C38.4999 30.8501 40.4999 28.0501 42.7999 24.3501L42.8999 24.1501L42.7999 23.9501C42.1999 23.1501 41.7999 22.4501 41.2999 21.7501C40.1999 20.0501 39.2999 18.5501 37.6999 17.2501V17.1501L39.3999 15.4501C40.9999 16.8501 41.9999 18.4501 43.1999 20.2501C43.6999 20.9501 44.1999 21.7501 44.6999 22.5501C44.9999 23.0501 45.0999 23.5501 45.0999 24.0501C45.0999 24.5501 44.8999 25.1501 44.5999 25.5501C42.0999 29.4501 39.8999 32.5501 36.4999 34.8501C32.7999 37.2501 28.5999 38.5501 24.0999 38.5501Z" fill="#1F2024"/>
<path d="M8.5999 32.6501C6.6999 30.9501 5.5999 29.0501 4.2999 26.8501C3.9999 26.3501 3.6999 25.8501 3.3999 25.4501C3.0999 24.9501 2.8999 24.4501 2.8999 24.0501C2.8999 23.4501 3.0999 22.9501 3.3999 22.4501C5.7999 18.8501 7.9999 15.4501 11.5999 13.1501C15.5999 10.5501 19.8999 9.1501 24.0999 9.1501C26.3999 9.1501 28.7999 9.5501 30.7999 10.2501L28.8999 12.1501H28.6999C27.2999 11.7501 25.6999 11.5501 23.9999 11.5501C20.1999 11.5501 16.2999 12.7501 12.6999 15.0501C9.3999 17.1501 7.4999 20.0501 5.3999 23.4501L5.1999 23.8501L5.2999 24.0501C5.5999 24.5501 5.8999 24.9501 6.0999 25.4501C7.2999 27.4501 8.3999 29.2501 10.1999 30.8501V30.9501L8.5999 32.6501Z" fill="#1F2024"/>
</svg>
