<svg width="48" height="48" viewBox="0 0 48 48" fill="none" xmlns="http://www.w3.org/2000/svg">
<path d="M7.50339 41.9999C7.7004 42.0003 7.89552 41.9616 8.07751 41.8861C8.25949 41.8106 8.42473 41.6999 8.5637 41.5603L41.5637 8.56026C41.8331 8.27666 41.9811 7.89904 41.9761 7.5079C41.9711 7.11675 41.8135 6.74304 41.5369 6.46644C41.2603 6.18984 40.8866 6.03223 40.4954 6.02722C40.1043 6.02221 39.7267 6.1702 39.4431 6.43963L6.44308 39.4396C6.23344 39.6494 6.09069 39.9166 6.03287 40.2075C5.97505 40.4984 6.00475 40.7999 6.11822 41.0739C6.2317 41.3479 6.42385 41.5821 6.6704 41.7469C6.91695 41.9118 7.20682 41.9998 7.50339 41.9999Z" fill="#1F2024"/>
<path d="M24.7538 29.611L29.6091 24.7557C29.6369 24.7281 29.6727 24.7099 29.7114 24.7037C29.7501 24.6975 29.7897 24.7035 29.8248 24.721C29.8598 24.7385 29.8886 24.7665 29.9069 24.8011C29.9252 24.8358 29.9322 24.8753 29.9269 24.9141C29.7309 26.1737 29.1394 27.3384 28.238 28.2399C27.3366 29.1413 26.1719 29.7328 24.9122 29.9288C24.8734 29.9341 24.8339 29.9271 24.7993 29.9087C24.7646 29.8904 24.7366 29.8617 24.7191 29.8267C24.7016 29.7916 24.6956 29.7519 24.7018 29.7132C24.708 29.6746 24.7262 29.6388 24.7538 29.611Z" fill="#1F2024"/>
<path d="M2.97209 25.6275C2.66171 25.1403 2.49762 24.5744 2.49928 23.9968C2.50094 23.4191 2.66829 22.8541 2.98146 22.3687C5.46209 18.5325 7.68052 15.2738 11.288 12.9441C15.2846 10.3641 19.6908 9 24.0333 9C26.3226 9.00314 28.5963 9.3764 30.7665 10.1053C30.8272 10.1255 30.8818 10.1609 30.9249 10.2082C30.9681 10.2554 30.9985 10.3129 31.0131 10.3753C31.0278 10.4376 31.0263 10.5026 31.0087 10.5641C30.9911 10.6257 30.9581 10.6817 30.9127 10.7269L26.484 15.1556C26.438 15.2017 26.3807 15.235 26.3179 15.2523C26.2551 15.2696 26.1889 15.2702 26.1258 15.2541C24.6247 14.8882 23.0546 14.915 21.5668 15.3319C20.079 15.7488 18.7235 16.5416 17.631 17.6342C16.5384 18.7268 15.7455 20.0822 15.3287 21.57C14.9118 23.0578 14.885 24.6279 15.2508 26.1291C15.2668 26.192 15.2661 26.258 15.2488 26.3207C15.2316 26.3833 15.1983 26.4403 15.1524 26.4862L8.78209 32.8612C8.71581 32.9276 8.62706 32.9668 8.53334 32.9709C8.43962 32.9751 8.34774 32.944 8.27584 32.8838C5.82372 30.7937 4.69885 28.3477 2.97209 25.6275Z" fill="#1F2024"/>
<path d="M24.0038 33C25.3663 33.0001 26.7109 32.6909 27.9364 32.0956C29.162 31.5004 30.2363 30.6347 31.0786 29.5637C31.9208 28.4928 32.5089 27.2447 32.7986 25.9134C33.0882 24.5821 33.0719 23.2025 32.7507 21.8785C32.7348 21.8155 32.7355 21.7495 32.7527 21.6869C32.77 21.6242 32.8032 21.5672 32.8491 21.5213L39.1154 15.2522C39.1818 15.1857 39.2708 15.1465 39.3648 15.1426C39.4587 15.1386 39.5507 15.17 39.6226 15.2306C41.9091 17.1816 43.0288 19.5553 44.9666 22.3294C45.3058 22.8162 45.4927 23.3929 45.5033 23.9862C45.514 24.5795 45.3481 25.1625 45.0266 25.6613C42.5507 29.5359 40.3651 32.7994 36.8129 35.0972C32.8107 37.6875 28.5113 39 24.0338 39C21.7215 38.9938 19.4241 38.6285 17.2238 37.9172C17.1625 37.8976 17.1073 37.8626 17.0635 37.8155C17.0197 37.7684 16.9887 37.7109 16.9735 37.6483C16.9583 37.5858 16.9595 37.5205 16.9769 37.4585C16.9943 37.3966 17.0274 37.3402 17.0729 37.2947L21.5232 32.8453C21.5691 32.7994 21.6262 32.7662 21.6888 32.7489C21.7514 32.7317 21.8174 32.731 21.8804 32.7469C22.5756 32.9154 23.2885 33.0003 24.0038 33Z" fill="#1F2024"/>
<path d="M19.8892 19.8891C17.7413 22.037 17.7413 25.5194 19.8892 27.6673L27.6673 19.8891C25.5194 17.7412 22.037 17.7412 19.8892 19.8891Z" fill="#1F2024"/>
</svg>
