<svg width="48" height="48" viewBox="0 0 48 48" fill="none" xmlns="http://www.w3.org/2000/svg">
<path d="M7.50315 41.9999C7.70016 42.0003 7.89528 41.9616 8.07726 41.8861C8.25925 41.8106 8.42449 41.6999 8.56346 41.5603L41.5635 8.56026C41.8329 8.27666 41.9809 7.89904 41.9759 7.5079C41.9709 7.11675 41.8133 6.74304 41.5367 6.46644C41.2601 6.18984 40.8863 6.03223 40.4952 6.02722C40.1041 6.02221 39.7264 6.1702 39.4428 6.43963L6.44283 39.4396C6.23319 39.6494 6.09045 39.9166 6.03263 40.2075C5.97481 40.4984 6.0045 40.7999 6.11798 41.0739C6.23146 41.3479 6.42361 41.5821 6.67015 41.7469C6.9167 41.9118 7.20658 41.9998 7.50315 41.9999Z" fill="#1F2024"/>
<path d="M24.7535 29.611L29.6089 24.7557C29.6367 24.7281 29.6724 24.7099 29.7111 24.7037C29.7498 24.6975 29.7895 24.7035 29.8245 24.721C29.8596 24.7385 29.8883 24.7665 29.9066 24.8011C29.925 24.8358 29.932 24.8753 29.9267 24.9141C29.7307 26.1737 29.1392 27.3384 28.2378 28.2399C27.3363 29.1413 26.1716 29.7328 24.912 29.9288C24.8732 29.9341 24.8337 29.9271 24.799 29.9087C24.7644 29.8904 24.7364 29.8617 24.7189 29.8267C24.7014 29.7916 24.6953 29.7519 24.7016 29.7132C24.7078 29.6746 24.726 29.6388 24.7535 29.611Z" fill="#1F2024"/>
<path d="M2.97184 25.6275C2.66147 25.1403 2.49737 24.5744 2.49904 23.9968C2.5007 23.4191 2.66805 22.8541 2.98122 22.3687C5.46184 18.5325 7.68028 15.2738 11.2878 12.9441C15.2843 10.3641 19.6906 9 24.0331 9C26.3224 9.00314 28.5961 9.3764 30.7662 10.1053C30.827 10.1255 30.8815 10.1609 30.9247 10.2082C30.9679 10.2554 30.9982 10.3129 31.0129 10.3753C31.0276 10.4376 31.026 10.5026 31.0084 10.5641C30.9909 10.6257 30.9578 10.6817 30.9125 10.7269L26.4837 15.1556C26.4377 15.2017 26.3805 15.235 26.3177 15.2523C26.2549 15.2696 26.1887 15.2702 26.1256 15.2541C24.6244 14.8882 23.0543 14.915 21.5665 15.3319C20.0787 15.7488 18.7233 16.5416 17.6307 17.6342C16.5382 18.7268 15.7453 20.0822 15.3284 21.57C14.9116 23.0578 14.8848 24.6279 15.2506 26.1291C15.2665 26.192 15.2658 26.258 15.2486 26.3207C15.2313 26.3833 15.1981 26.4403 15.1522 26.4862L8.78184 32.8612C8.71557 32.9276 8.62681 32.9668 8.53309 32.9709C8.43937 32.9751 8.3475 32.944 8.27559 32.8838C5.82348 30.7937 4.69861 28.3477 2.97184 25.6275Z" fill="#1F2024"/>
<path d="M24.0036 33C25.366 33.0001 26.7107 32.6909 27.9362 32.0956C29.1617 31.5004 30.2361 30.6347 31.0783 29.5637C31.9206 28.4928 32.5087 27.2447 32.7983 25.9134C33.088 24.5821 33.0716 23.2025 32.7505 21.8785C32.7345 21.8155 32.7352 21.7495 32.7525 21.6869C32.7697 21.6242 32.803 21.5672 32.8489 21.5213L39.1152 15.2522C39.1816 15.1857 39.2706 15.1465 39.3645 15.1426C39.4585 15.1386 39.5505 15.17 39.6223 15.2306C41.9089 17.1816 43.0286 19.5553 44.9664 22.3294C45.3056 22.8162 45.4924 23.3929 45.5031 23.9862C45.5138 24.5795 45.3479 25.1625 45.0264 25.6613C42.5505 29.536 40.3648 32.7994 36.8126 35.0972C32.8105 37.6875 28.5111 39 24.0336 39C21.7212 38.9938 19.4238 38.6285 17.2236 37.9172C17.1623 37.8976 17.1071 37.8626 17.0632 37.8155C17.0194 37.7684 16.9884 37.7109 16.9733 37.6483C16.9581 37.5858 16.9593 37.5205 16.9767 37.4585C16.9941 37.3966 17.0271 37.3402 17.0726 37.2947L21.523 32.8453C21.5689 32.7994 21.6259 32.7662 21.6886 32.7489C21.7512 32.7317 21.8172 32.731 21.8802 32.7469C22.5754 32.9154 23.2882 33.0003 24.0036 33Z" fill="#1F2024"/>
<path d="M19.8889 19.8891C17.741 22.037 17.741 25.5194 19.8889 27.6673L27.6671 19.8891C25.5192 17.7412 22.0368 17.7412 19.8889 19.8891Z" fill="#1F2024"/>
</svg>
