<svg width="48" height="48" viewBox="0 0 48 48" fill="none" xmlns="http://www.w3.org/2000/svg">
<path d="M23.8998 32.2999H23.1998C22.6998 32.2999 22.2998 32.0999 21.9998 31.6999C21.6998 31.3999 21.5998 30.8999 21.5998 30.4999C21.6998 29.5999 22.3998 28.8999 23.2998 28.8999H23.7998C25.0998 28.8999 26.2998 28.3999 27.1998 27.5999C28.2998 26.6999 28.8998 25.3999 28.9998 23.9999C28.9998 23.0999 29.7998 22.3999 30.6998 22.3999C31.6998 22.3999 32.3998 23.2999 32.3998 24.1999C32.2998 26.4999 31.1998 28.6999 29.4998 30.1999C27.8998 31.5999 25.8998 32.2999 23.8998 32.2999Z" fill="#1F2024"/>
<path d="M7.4998 42.0999C7.2998 42.0999 7.0998 42.0999 6.8998 41.9999H6.5998C6.2998 41.7999 6.0998 41.5999 5.8998 41.1999C5.7998 40.8999 5.6998 40.4999 5.7998 40.1999C5.7998 39.7999 6.0998 39.4999 6.1998 39.2999L16.4998 28.9999C15.4998 27.6999 14.8998 25.9999 14.6998 24.2999C14.4998 21.9999 15.2998 19.6999 16.7998 17.9999C18.2998 16.2999 20.3998 15.1999 22.7998 14.9999H23.3998C25.3998 14.9999 27.1998 15.5999 28.6998 16.7999L39.0998 6.3999C39.3998 6.0999 39.7998 5.8999 40.2998 5.8999C40.7998 5.8999 41.0998 5.9999 41.3998 6.3999C41.5998 6.5999 41.8998 7.0999 41.8998 7.4999C41.8998 7.9999 41.6998 8.3999 41.3998 8.6999L8.3998 41.6999C8.2998 41.7999 8.1998 41.7999 8.0998 41.8999C7.9998 41.9999 7.8998 41.9999 7.7998 42.0999C7.8998 42.0999 7.6998 42.0999 7.4998 42.0999ZM23.5998 18.2999H23.1998C21.7998 18.3999 20.4998 18.9999 19.5998 20.0999C18.6998 21.1999 18.1998 22.4999 18.2998 23.9999C18.3998 24.8999 18.5998 25.6999 19.0998 26.4999L26.3998 19.1999C25.5998 18.5999 24.5998 18.2999 23.5998 18.2999Z" fill="#1F2024"/>
<path d="M23.8998 38.9999C21.4998 38.9999 18.9998 38.5999 16.6998 37.7999C16.5998 37.7999 16.4998 37.6999 16.4998 37.4999V37.0999L18.5998 34.9999C18.5998 34.9999 18.7998 34.7999 18.8998 34.7999H19.0998C20.6998 35.2999 22.1998 35.5999 23.9998 35.5999C27.6998 35.5999 31.3998 34.4999 34.9998 32.1999C37.9998 30.1999 39.8998 27.4999 42.1998 23.8999C41.6998 23.0999 41.1998 22.3999 40.7998 21.6999C39.6998 19.9999 38.7998 18.4999 37.1998 17.1999L37.0998 17.0999V16.5999L37.1998 16.3999L39.1998 14.3999H39.6998C41.3998 15.8999 42.3998 17.4999 43.6998 19.3999C44.1998 20.0999 44.6998 20.8999 45.1998 21.6999C45.4998 22.2999 45.6998 22.8999 45.6998 23.4999C45.6998 24.0999 45.4998 24.6999 45.1998 25.2999C42.6998 29.2999 40.4998 32.4999 36.8998 34.7999C32.7998 37.6999 28.4998 38.9999 23.8998 38.9999Z" fill="#1F2024"/>
<path d="M8.2998 33.1999C6.1998 31.3999 4.8998 29.2999 3.6998 27.0999C3.3998 26.5999 3.0998 26.1999 2.7998 25.6999C2.3998 25.0999 2.2998 24.5999 2.2998 23.9999C2.2998 23.2999 2.4998 22.6999 2.7998 22.0999C5.1998 18.3999 7.4998 14.9999 11.1998 12.5999C15.2998 9.9999 19.6998 8.5999 23.9998 8.5999C26.3998 8.5999 28.8998 8.9999 31.0998 9.7999H31.2998V10.3999L29.1998 12.4999C29.1998 12.4999 28.9998 12.6999 28.8998 12.6999H28.6998C27.1998 12.2999 25.5998 12.0999 23.9998 12.0999C20.2998 12.0999 16.4998 13.2999 12.9998 15.5999C9.7998 17.5999 7.8998 20.4999 5.7998 23.7999L5.6998 23.8999C5.9998 24.2999 6.1998 24.7999 6.4998 25.1999C7.6998 27.2999 8.7998 28.9999 10.5998 30.5999L10.6998 30.6999V31.2999L8.5998 33.3999H8.2998V33.1999Z" fill="#1F2024"/>
</svg>
