<svg width="48" height="48" viewBox="0 0 48 48" fill="none" xmlns="http://www.w3.org/2000/svg">
<path d="M45.2701 22.44C45.2401 22.38 45.2101 22.33 45.1801 22.28C41.2301 16.13 34.3501 8.80005 24.0501 8.80005C16.1501 8.80005 9.2701 13.16 3.0201 22.14C2.5901 22.64 2.3501 23.3 2.3501 24C2.3501 24.7 2.5901 25.28 2.7301 25.56C2.7501 25.61 2.7801 25.66 2.8101 25.71C8.4801 34.66 15.5901 39.2 23.9501 39.2C34.3701 39.2 41.2001 31.95 45.1201 25.82C45.6501 25.16 45.6501 24.39 45.6501 24C45.6501 23.31 45.4101 22.73 45.2701 22.44ZM23.9501 35.8C16.9001 35.8 10.7901 31.86 5.8101 24.08C11.3801 16.09 17.3501 12.2 24.0501 12.2C32.7501 12.2 38.7401 18.59 42.2401 24C38.7901 29.41 32.8301 35.8 23.9501 35.8Z" fill="#1F2024"/>
<path d="M24.0501 15.3C19.1701 15.3 15.3501 19.12 15.3501 24C15.3501 28.88 19.1701 32.7 24.0501 32.7C28.9301 32.7 32.7501 28.88 32.7501 24C32.7501 19.12 28.9301 15.3 24.0501 15.3ZM24.0501 29.3C21.0801 29.3 18.7501 26.97 18.7501 24C18.7501 21.03 21.0801 18.7 24.0501 18.7C27.0201 18.7 29.3501 21.03 29.3501 24C29.3501 26.97 27.0201 29.3 24.0501 29.3Z" fill="#1F2024"/>
</svg>
