<svg width="48" height="48" viewBox="0 0 48 48" fill="none" xmlns="http://www.w3.org/2000/svg">
<path d="M29.47 24.165C29.27 27.325 26.52 29.725 23.36 29.535C22.66 29.485 22.08 30.015 22.03 30.705C21.99 31.395 22.51 31.985 23.2 32.035C23.38 32.045 23.56 32.055 23.73 32.055C28.04 32.055 31.68 28.695 31.96 24.335C32 23.645 31.48 23.055 30.79 23.005C30.09 22.945 29.51 23.485 29.46 24.175L29.47 24.165Z" fill="#1F2024"/>
<path d="M41.97 7.49501C41.97 7.10501 41.81 6.73501 41.53 6.45501C41.25 6.17501 40.88 6.01501 40.49 6.01501C40.1 6.01501 39.72 6.15501 39.44 6.42501L28.68 17.185C25.25 14.515 20.27 14.955 17.39 18.275C14.77 21.295 14.74 25.705 17.11 28.745L6.44 39.425C6.23 39.635 6.09 39.905 6.03 40.195C5.97 40.485 6 40.785 6.12 41.065C6.23 41.335 6.42 41.575 6.67 41.735C6.92 41.905 7.21 41.985 7.5 41.985C7.7 41.985 7.89 41.945 8.07 41.875C8.25 41.805 8.42 41.685 8.56 41.545L41.56 8.54501C41.83 8.26501 41.98 7.88501 41.97 7.49501ZM19.28 19.915C21.22 17.685 24.5 17.335 26.88 18.985L18.91 26.955C17.45 24.845 17.52 21.945 19.28 19.915Z" fill="#1F2024"/>
<path d="M44.96 22.315C42.99 19.485 41.82 17.075 39.49 15.105C39.45 15.075 39.41 15.055 39.36 15.065C39.31 15.065 39.27 15.085 39.24 15.115L37.37 16.975C37.37 16.975 37.34 17.015 37.33 17.045C37.33 17.065 37.32 17.095 37.32 17.125C37.32 17.155 37.32 17.175 37.34 17.195C37.35 17.215 37.37 17.235 37.39 17.255C39.59 19.085 40.64 21.345 42.51 24.025C40.26 27.545 38.39 30.505 35.19 32.565C31.68 34.835 27.93 35.985 24.04 35.985C22.42 35.985 20.81 35.785 19.24 35.375C19.18 35.355 19.11 35.355 19.05 35.375C18.99 35.395 18.93 35.425 18.88 35.465L16.86 37.485C16.86 37.485 16.82 37.535 16.81 37.565C16.81 37.595 16.8 37.625 16.81 37.655C16.81 37.685 16.83 37.715 16.85 37.735C16.87 37.755 16.9 37.775 16.93 37.785C19.22 38.555 21.62 38.955 24.04 38.965C28.52 38.965 32.82 37.655 36.82 35.065C40.37 32.765 42.56 29.505 45.03 25.625C45.36 25.125 45.52 24.545 45.51 23.955C45.5 23.365 45.31 22.785 44.97 22.295L44.96 22.315Z" fill="#1F2024"/>
<path d="M8.41 32.975C8.41 32.975 8.49 33.015 8.54 33.015C8.59 33.015 8.63 32.995 8.66 32.965L10.52 31.105C10.52 31.105 10.55 31.065 10.56 31.035C10.56 31.015 10.57 30.985 10.57 30.955C10.57 30.925 10.57 30.905 10.55 30.875C10.54 30.855 10.52 30.835 10.5 30.815C8.15 28.875 7.12 26.565 5.49 23.995C7.74 20.515 9.65 17.565 12.9 15.465C16.46 13.165 20.2 11.995 24.01 11.995C25.6 11.995 27.18 12.205 28.72 12.625C28.78 12.645 28.85 12.645 28.92 12.625C28.98 12.605 29.04 12.575 29.09 12.525L31.11 10.505C31.11 10.505 31.15 10.455 31.16 10.425C31.16 10.395 31.17 10.365 31.16 10.335C31.16 10.305 31.14 10.275 31.12 10.255C31.1 10.235 31.07 10.215 31.04 10.205C28.78 9.41501 26.41 9.00501 24.02 9.00501C19.68 9.00501 15.27 10.365 11.28 12.945C7.68 15.265 5.46 18.525 2.98 22.355C2.67 22.845 2.5 23.405 2.5 23.985C2.5 24.565 2.66 25.125 2.97 25.615C4.73 28.385 5.9 30.865 8.4 32.975H8.41Z" fill="#1F2024"/>
</svg>
