<svg width="48" height="48" viewBox="0 0 48 48" fill="none" xmlns="http://www.w3.org/2000/svg">
<path d="M29.47 24.1651C29.27 27.3251 26.52 29.7251 23.36 29.5351C22.66 29.4851 22.08 30.0151 22.03 30.7051C21.99 31.3951 22.51 31.9851 23.2 32.0351C23.38 32.0451 23.56 32.0551 23.73 32.0551C28.04 32.0551 31.68 28.6951 31.96 24.3351C32 23.6451 31.48 23.0551 30.79 23.0051C30.09 22.9451 29.51 23.4851 29.46 24.1751L29.47 24.1651Z" fill="#1F2024"/>
<path d="M41.97 7.49514C41.97 7.10514 41.81 6.73514 41.53 6.45514C41.25 6.17514 40.88 6.01514 40.49 6.01514C40.1 6.01514 39.72 6.15514 39.44 6.42514L28.68 17.1851C25.25 14.5151 20.27 14.9551 17.39 18.2751C14.77 21.2951 14.74 25.7051 17.11 28.7451L6.44 39.4251C6.23 39.6351 6.09 39.9051 6.03 40.1951C5.97 40.4851 6 40.7851 6.12 41.0651C6.23 41.3351 6.42 41.5751 6.67 41.7351C6.92 41.9051 7.21 41.9851 7.5 41.9851C7.7 41.9851 7.89 41.9451 8.07 41.8751C8.25 41.8051 8.42 41.6851 8.56 41.5451L41.56 8.54514C41.83 8.26514 41.98 7.88514 41.97 7.49514ZM19.28 19.9151C21.22 17.6851 24.5 17.3351 26.88 18.9851L18.91 26.9551C17.45 24.8451 17.52 21.9451 19.28 19.9151Z" fill="#1F2024"/>
<path d="M44.96 22.3151C42.99 19.4851 41.82 17.0751 39.49 15.1051C39.45 15.0751 39.41 15.0551 39.36 15.0651C39.31 15.0651 39.27 15.0851 39.24 15.1151L37.37 16.9751C37.37 16.9751 37.34 17.0151 37.33 17.0451C37.33 17.0651 37.32 17.0951 37.32 17.1251C37.32 17.1551 37.32 17.1751 37.34 17.1951C37.35 17.2151 37.37 17.2351 37.39 17.2551C39.59 19.0851 40.64 21.3451 42.51 24.0251C40.26 27.5451 38.39 30.5051 35.19 32.5651C31.68 34.8351 27.93 35.9851 24.04 35.9851C22.42 35.9851 20.81 35.7851 19.24 35.3751C19.18 35.3551 19.11 35.3551 19.05 35.3751C18.99 35.3951 18.93 35.4251 18.88 35.4651L16.86 37.4851C16.86 37.4851 16.82 37.5351 16.81 37.5651C16.81 37.5951 16.8 37.6251 16.81 37.6551C16.81 37.6851 16.83 37.7151 16.85 37.7351C16.87 37.7551 16.9 37.7751 16.93 37.7851C19.22 38.5551 21.62 38.9551 24.04 38.9651C28.52 38.9651 32.82 37.6551 36.82 35.0651C40.37 32.7651 42.56 29.5051 45.03 25.6251C45.36 25.1251 45.52 24.5451 45.51 23.9551C45.5 23.3651 45.31 22.7851 44.97 22.2951L44.96 22.3151Z" fill="#1F2024"/>
<path d="M8.41 32.9751C8.41 32.9751 8.49 33.0151 8.54 33.0151C8.59 33.0151 8.63 32.9951 8.66 32.9651L10.52 31.1051C10.52 31.1051 10.55 31.0651 10.56 31.0351C10.56 31.0151 10.57 30.9851 10.57 30.9551C10.57 30.9251 10.57 30.9051 10.55 30.8751C10.54 30.8551 10.52 30.8351 10.5 30.8151C8.15 28.8751 7.12 26.5651 5.49 23.9951C7.74 20.5151 9.65 17.5651 12.9 15.4651C16.46 13.1651 20.2 11.9951 24.01 11.9951C25.6 11.9951 27.18 12.2051 28.72 12.6251C28.78 12.6451 28.85 12.6451 28.92 12.6251C28.98 12.6051 29.04 12.5751 29.09 12.5251L31.11 10.5051C31.11 10.5051 31.15 10.4551 31.16 10.4251C31.16 10.3951 31.17 10.3651 31.16 10.3351C31.16 10.3051 31.14 10.2751 31.12 10.2551C31.1 10.2351 31.07 10.2151 31.04 10.2051C28.78 9.41514 26.41 9.00514 24.02 9.00514C19.68 9.00514 15.27 10.3651 11.28 12.9451C7.68 15.2651 5.46 18.5251 2.98 22.3551C2.67 22.8451 2.5 23.4051 2.5 23.9851C2.5 24.5651 2.66 25.1251 2.97 25.6151C4.73 28.3851 5.9 30.8651 8.4 32.9751H8.41Z" fill="#1F2024"/>
</svg>
