<svg width="48" height="48" viewBox="0 0 48 48" fill="none" xmlns="http://www.w3.org/2000/svg">
<path d="M3.23998 25.44C8.81998 34.24 15.78 38.7 23.95 38.7C34.16 38.7 40.87 31.56 44.71 25.53C45.15 25 45.15 24.38 45.15 24C45.15 23.41 44.95 22.91 44.82 22.67C44.8 22.63 44.78 22.59 44.76 22.56C40.87 16.51 34.13 9.30005 24.05 9.30005C16.32 9.30005 9.56998 13.6 3.40998 22.45C3.04998 22.86 2.84998 23.42 2.84998 24C2.84998 24.58 3.05998 25.09 3.17998 25.34C3.19998 25.38 3.21998 25.41 3.23998 25.44ZM5.33998 23.88C11.03 15.69 17.15 11.7 24.05 11.7C33.01 11.7 39.13 18.25 42.7 23.78C42.73 23.86 42.75 23.95 42.75 24C42.75 24.04 42.75 24.09 42.75 24.13C42.75 24.13 42.75 24.14 42.74 24.15C39.23 29.69 33.12 36.29 23.95 36.29C16.68 36.29 10.4 32.23 5.29998 24.21C5.26998 24.14 5.23998 24.05 5.19998 24.04C5.24998 23.99 5.29998 23.93 5.33998 23.88Z" fill="#1F2024"/>
<path d="M24.05 32.2C28.65 32.2 32.25 28.6 32.25 24C32.25 19.4 28.65 15.8 24.05 15.8C19.45 15.8 15.85 19.4 15.85 24C15.85 28.6 19.45 32.2 24.05 32.2ZM24.05 18.2C27.3 18.2 29.85 20.75 29.85 24C29.85 27.25 27.3 29.8 24.05 29.8C20.8 29.8 18.25 27.25 18.25 24C18.25 20.75 20.8 18.2 24.05 18.2Z" fill="#1F2024"/>
</svg>
