<svg width="48" height="48" viewBox="0 0 48 48" fill="none" xmlns="http://www.w3.org/2000/svg">
<path d="M23.9 32.3H23.2C22.7 32.3 22.3 32.1 22 31.7C21.7 31.4 21.6 30.9 21.6 30.5C21.7 29.6 22.4 28.9 23.3 28.9H23.8C25.1 28.9 26.3 28.4 27.2 27.6C28.3 26.7 28.9 25.4 29 24C29 23.1 29.8 22.4 30.7 22.4C31.7 22.4 32.4 23.3 32.4 24.2C32.3 26.5 31.2 28.7 29.5 30.2C27.9 31.6 25.9 32.3 23.9 32.3Z" fill="#1F2024"/>
<path d="M7.50005 42.1C7.30005 42.1 7.10005 42.1 6.90005 42H6.60005C6.30005 41.8 6.10005 41.6 5.90005 41.2C5.80005 40.9 5.70005 40.5 5.80005 40.2C5.80005 39.8 6.10005 39.5 6.20005 39.3L16.5 29C15.5 27.7 14.9 26 14.7 24.3C14.5 22 15.3 19.7 16.8 18C18.3 16.3 20.4 15.2 22.8 15H23.4C25.4 15 27.2 15.6 28.7 16.8L39.1 6.40002C39.4 6.10002 39.8 5.90002 40.3 5.90002C40.8 5.90002 41.1 6.00002 41.4 6.40002C41.6 6.60002 41.9 7.10002 41.9 7.50002C41.9 8.00002 41.7 8.40002 41.4 8.70002L8.40005 41.7C8.30005 41.8 8.20005 41.8 8.10005 41.9C8.00005 42 7.90005 42 7.80005 42.1C7.90005 42.1 7.70005 42.1 7.50005 42.1ZM23.6 18.3H23.2C21.8 18.4 20.5 19 19.6 20.1C18.7 21.2 18.2 22.5 18.3 24C18.4 24.9 18.6 25.7 19.1 26.5L26.4 19.2C25.6 18.6 24.6 18.3 23.6 18.3Z" fill="#1F2024"/>
<path d="M23.9 39C21.5 39 19 38.6 16.7 37.8C16.6 37.8 16.5 37.7 16.5 37.5V37.1L18.6 35C18.6 35 18.8 34.8 18.9 34.8H19.1C20.7 35.3 22.2 35.6 24 35.6C27.7 35.6 31.4 34.5 35 32.2C38 30.2 39.9001 27.5 42.2001 23.9C41.7001 23.1 41.2 22.4 40.8 21.7C39.7 20 38.8001 18.5 37.2001 17.2L37.1 17.1V16.6L37.2001 16.4L39.2001 14.4H39.7001C41.4001 15.9 42.4001 17.5 43.7001 19.4C44.2001 20.1 44.7001 20.9 45.2001 21.7C45.5001 22.3 45.7001 22.9 45.7001 23.5C45.7001 24.1 45.5001 24.7 45.2001 25.3C42.7001 29.3 40.5 32.5 36.9 34.8C32.8 37.7 28.5 39 23.9 39Z" fill="#1F2024"/>
<path d="M8.30005 33.2C6.20005 31.4 4.90005 29.3 3.70005 27.1C3.40005 26.6 3.10005 26.2 2.80005 25.7C2.40005 25.1 2.30005 24.6 2.30005 24C2.30005 23.3 2.50005 22.7 2.80005 22.1C5.20005 18.4 7.50005 15 11.2 12.6C15.3 10 19.7 8.60002 24 8.60002C26.4 8.60002 28.9 9.00002 31.1 9.80002H31.3V10.4L29.2 12.5C29.2 12.5 29 12.7 28.9 12.7H28.7C27.2 12.3 25.6 12.1 24 12.1C20.3 12.1 16.5 13.3 13 15.6C9.80005 17.6 7.90005 20.5 5.80005 23.8L5.70005 23.9C6.00005 24.3 6.20005 24.8 6.50005 25.2C7.70005 27.3 8.80005 29 10.6 30.6L10.7 30.7V31.3L8.60005 33.4H8.30005V33.2Z" fill="#1F2024"/>
</svg>
