<svg width="48" height="48" viewBox="0 0 48 48" fill="none" xmlns="http://www.w3.org/2000/svg">
<path d="M36.9001 39.95C36.4001 39.95 35.9001 39.45 35.9001 38.95V24.05C35.9001 17.85 32.6001 11.85 27.3001 8.55005C28.5001 8.25005 29.7001 8.05005 30.9001 8.05005C32.2001 8.05005 33.6001 8.25005 34.9001 8.55005C42.0001 10.45 46.9001 17.15 46.9001 24.85V35.95C46.9001 38.15 45.1001 39.85 43.0001 39.85L36.9001 39.95ZM33.9001 11.45C36.7001 15.15 38.3001 19.65 38.3001 24.05V37.55H43.0001C43.8001 37.55 44.5001 36.85 44.5001 36.05V24.95C44.5001 18.35 40.3001 12.65 34.3001 10.95L33.4001 10.75L33.9001 11.45V11.45ZM22.9001 39.95C22.4001 39.95 21.9001 39.45 21.9001 38.95V33.25C21.9001 30.55 19.7001 28.35 17.0001 28.35H16.5001C14.2001 28.65 12.1001 31.05 12.1001 33.55V38.95C12.1001 39.45 11.6001 39.95 11.1001 39.95H5.0001C2.8001 39.95 1.1001 38.15 1.1001 36.05V24.75C1.1001 15.85 8.0001 8.45005 16.5001 8.15005H17.0001C25.7001 8.15005 32.9001 15.25 33.0001 24.05V38.95C33.0001 39.45 32.5001 39.95 32.0001 39.95H22.9001ZM17.1001 25.95C21.1001 25.95 24.4001 29.25 24.4001 33.25V37.55H30.7001V24.05C30.6001 16.55 24.5001 10.55 17.1001 10.55H16.7001C9.5001 10.75 3.6001 17.15 3.6001 24.75V36.05C3.6001 36.85 4.3001 37.55 5.1001 37.55H9.8001V33.55C9.8001 29.85 12.7001 26.45 16.2001 25.95H17.1001V25.95Z" fill="#1F2024"/>
</svg>
