<svg width="48" height="48" viewBox="0 0 48 48" fill="none" xmlns="http://www.w3.org/2000/svg">
<path d="M36.9499 40.35C36.1499 40.35 35.4499 39.65 35.4499 38.85V23.95C35.4499 17.75 31.9499 11.65 26.5499 8.55005L26.1499 8.35005L26.5499 8.25005C27.9499 7.85005 29.4499 7.55005 30.9499 7.55005C32.3499 7.55005 33.6499 7.75005 35.0499 8.15005C42.3499 10.15 47.3499 17.05 47.3499 24.95V36.05C47.3499 38.45 45.3499 40.4501 42.9499 40.4501H36.9499V40.35V40.35ZM42.9499 36.95C43.4499 36.95 43.9499 36.45 43.9499 35.95V24.85C43.9499 18.65 40.1499 13.25 34.6499 11.45C37.3499 15.15 38.7499 19.55 38.7499 23.95V36.95H42.9499V36.95ZM22.9499 40.35C22.1499 40.35 21.4499 39.65 21.4499 38.85V33.15C21.4499 30.75 19.4499 28.75 17.0499 28.75H16.5499C14.4499 29.05 12.6499 31.25 12.6499 33.45V38.85C12.6499 39.65 11.9499 40.35 11.1499 40.35H5.0499C2.6499 40.35 0.649902 38.35 0.649902 35.95V24.65C0.649902 15.55 7.7499 7.85005 16.5499 7.55005H17.0499C26.0499 7.55005 33.4499 14.95 33.5499 23.95V38.85C33.5499 39.65 32.8499 40.35 32.0499 40.35H22.9499ZM30.1499 36.95V23.95C30.0499 16.75 24.2499 10.95 17.0499 10.95H16.6499C9.6499 11.15 4.0499 17.35 4.0499 24.65V35.95C4.0499 36.45 4.5499 36.95 5.0499 36.95H9.2499V33.45C9.2499 29.55 12.3499 25.85 16.1499 25.35C16.5499 25.35 16.8499 25.25 17.0499 25.25C21.3499 25.25 24.8499 28.75 24.8499 33.05V36.85H30.1499V36.95V36.95Z" fill="#1F2024"/>
</svg>
