<svg width="48" height="48" viewBox="0 0 48 48" fill="none" xmlns="http://www.w3.org/2000/svg">
<path d="M33.2652 40.2292H21.6852V33.2792C21.6852 31.9792 21.1352 30.7192 20.1652 29.8492C19.1852 28.9592 17.9052 28.5392 16.5752 28.6692H16.5252C14.1052 28.9492 12.4252 31.4392 12.4252 33.5292V40.1992H5.05521C2.73521 40.1992 0.845215 38.3092 0.845215 35.9892V24.6592C0.845215 15.9392 7.37521 8.54916 15.7152 7.83916L16.5452 7.80916C20.9852 7.67916 25.1652 9.29916 28.3352 12.3892C31.5152 15.4692 33.2552 19.5992 33.2552 24.0192V40.2292H33.2652ZM24.7452 37.1792H30.2152V24.0192C30.2152 20.4292 28.7952 17.0792 26.2152 14.5792C23.6352 12.0792 20.2352 10.7692 16.6452 10.8692L15.8952 10.8892C9.20521 11.4592 3.90521 17.5192 3.90521 24.6792V36.0092C3.90521 36.6392 4.43521 37.1692 5.06521 37.1692H9.37521V33.5492C9.37521 29.5792 12.4652 26.0292 16.2752 25.6492H16.3652C18.5152 25.4492 20.6452 26.1692 22.2352 27.5992C23.8452 29.0592 24.7652 31.1292 24.7652 33.2992V37.1892L24.7452 37.1792ZM42.9552 40.1892H35.5852V23.9792C35.5852 18.9592 33.2852 13.8992 29.4452 10.4492L26.6152 7.91916L30.4052 7.77916C31.9352 7.72916 33.4852 7.90916 34.9852 8.30916C42.1552 10.2492 47.1552 17.0392 47.1552 24.8392V35.9792C47.1552 38.2992 45.2652 40.1892 42.9452 40.1892H42.9552ZM38.6452 37.1392H42.9552C43.5852 37.1392 44.1152 36.6092 44.1152 35.9792V24.8392C44.1152 18.4692 40.1052 12.9192 34.3352 11.2992C37.0752 14.9692 38.6452 19.4892 38.6452 23.9792V37.1392Z" fill="#1F2024"/>
</svg>
