<svg width="48" height="48" viewBox="0 0 48 48" fill="none" xmlns="http://www.w3.org/2000/svg">
<path d="M34.9878 8.31391C31.9987 7.51401 29.178 7.66136 26.5889 8.37706C31.9145 11.4504 35.5772 17.618 35.5772 23.9751V38.9206C35.5772 39.6153 36.1456 40.1836 36.8402 40.1836H42.9447C45.2602 40.1836 47.1547 38.2891 47.1547 35.9736V24.8382C47.1547 17.2602 42.3132 10.2926 34.9878 8.31391V8.31391ZM16.548 7.78766C7.68598 8.06131 0.844727 15.7867 0.844727 24.6698V35.9947C0.844727 38.3102 2.73923 40.2047 5.05473 40.2047H11.1592C11.8539 40.2047 12.4222 39.6363 12.4222 38.9417V33.5318C12.4222 31.2163 14.2746 28.9008 16.5691 28.6693C19.3477 28.3956 21.6842 30.5638 21.6842 33.2792V38.9627C21.6842 39.6574 22.2526 40.2257 22.9472 40.2257H31.9987C32.6934 40.2257 33.2617 39.6574 33.2617 38.9627V24.0172C33.2617 14.9026 25.7258 7.53506 16.548 7.80871V7.78766Z" fill="#1F2024"/>
</svg>
