<svg width="48" height="48" viewBox="0 0 48 48" fill="none" xmlns="http://www.w3.org/2000/svg">
<path d="M33.265 40.2291H21.685V33.2791C21.685 31.9791 21.135 30.7191 20.165 29.8491C19.185 28.9591 17.905 28.5391 16.575 28.6691H16.525C14.105 28.9491 12.425 31.4391 12.425 33.5291V40.1991H5.05497C2.73497 40.1991 0.844971 38.3091 0.844971 35.9891V24.6591C0.844971 15.9391 7.37497 8.54908 15.715 7.83908L16.545 7.80908C20.985 7.67908 25.165 9.29908 28.335 12.3891C31.515 15.4691 33.255 19.5991 33.255 24.0191V40.2291H33.265ZM24.745 37.1791H30.215V24.0191C30.215 20.4291 28.795 17.0791 26.215 14.5791C23.635 12.0791 20.235 10.7691 16.645 10.8691L15.895 10.8891C9.20497 11.4591 3.90497 17.5191 3.90497 24.6791V36.0091C3.90497 36.6391 4.43497 37.1691 5.06497 37.1691H9.37497V33.5491C9.37497 29.5791 12.465 26.0291 16.275 25.6491H16.365C18.515 25.4491 20.645 26.1691 22.235 27.5991C23.845 29.0591 24.765 31.1291 24.765 33.2991V37.1891L24.745 37.1791ZM42.955 40.1891H35.585V23.9791C35.585 18.9591 33.285 13.8991 29.445 10.4491L26.615 7.91908L30.405 7.77908C31.935 7.72908 33.485 7.90908 34.985 8.30908C42.155 10.2491 47.155 17.0391 47.155 24.8391V35.9791C47.155 38.2991 45.265 40.1891 42.945 40.1891H42.955ZM38.645 37.1391H42.955C43.585 37.1391 44.115 36.6091 44.115 35.9791V24.8391C44.115 18.4691 40.105 12.9191 34.335 11.2991C37.075 14.9691 38.645 19.4891 38.645 23.9791V37.1391Z" fill="#1F2024"/>
</svg>
