<svg width="48" height="48" viewBox="0 0 48 48" fill="none" xmlns="http://www.w3.org/2000/svg">
<path d="M34.9881 8.31391C31.999 7.51401 29.1783 7.66136 26.5891 8.37706C31.9148 11.4504 35.5775 17.618 35.5775 23.9751V38.9206C35.5775 39.6153 36.1458 40.1836 36.8405 40.1836H42.945C45.2605 40.1836 47.155 38.2891 47.155 35.9736V24.8382C47.155 17.2602 42.3135 10.2926 34.9881 8.31391V8.31391ZM16.5483 7.78766C7.68622 8.06131 0.844971 15.7867 0.844971 24.6698V35.9947C0.844971 38.3102 2.73947 40.2047 5.05497 40.2047H11.1595C11.8541 40.2047 12.4225 39.6363 12.4225 38.9417V33.5318C12.4225 31.2163 14.2749 28.9008 16.5693 28.6693C19.3479 28.3956 21.6845 30.5638 21.6845 33.2792V38.9627C21.6845 39.6574 22.2528 40.2257 22.9475 40.2257H31.999C32.6936 40.2257 33.262 39.6574 33.262 38.9627V24.0172C33.262 14.9026 25.7261 7.53506 16.5483 7.80871V7.78766Z" fill="#1F2024"/>
</svg>
