<svg width="48" height="48" viewBox="0 0 48 48" fill="none" xmlns="http://www.w3.org/2000/svg">
<path d="M33.42 40.45H21.84V33.5C21.84 32.2 21.29 30.94 20.32 30.07C19.34 29.18 18.06 28.76 16.73 28.89H16.68C14.26 29.17 12.58 31.66 12.58 33.75V40.42H5.21C2.89 40.42 1 38.53 1 36.21V24.88C1 16.16 7.53 8.76999 15.87 8.05999L16.7 8.02999C21.14 7.89999 25.32 9.51999 28.49 12.61C31.67 15.69 33.41 19.82 33.41 24.24V40.45H33.42ZM24.9 37.4H30.37V24.24C30.37 20.65 28.95 17.3 26.37 14.8C23.79 12.3 20.39 10.99 16.8 11.09L16.05 11.11C9.36 11.68 4.06 17.74 4.06 24.9V36.23C4.06 36.86 4.59 37.39 5.22 37.39H9.53V33.77C9.53 29.8 12.62 26.25 16.43 25.87H16.52C18.67 25.67 20.8 26.39 22.39 27.82C24 29.28 24.92 31.35 24.92 33.52V37.41L24.9 37.4ZM43.11 40.41H35.74V24.2C35.74 19.18 33.44 14.12 29.6 10.67L26.77 8.13999L30.56 7.99999C32.09 7.94999 33.64 8.12999 35.14 8.52999C42.31 10.47 47.31 17.26 47.31 25.06V36.2C47.31 38.52 45.42 40.41 43.1 40.41H43.11ZM38.8 37.36H43.11C43.74 37.36 44.27 36.83 44.27 36.2V25.06C44.27 18.69 40.26 13.14 34.49 11.52C37.23 15.19 38.8 19.71 38.8 24.2V37.36Z" fill="#1F2024"/>
</svg>
