<svg width="48" height="48" viewBox="0 0 48 48" fill="none" xmlns="http://www.w3.org/2000/svg">
<path d="M36.9 39.95C36.4 39.95 35.9 39.45 35.9 38.95V24.05C35.9 17.85 32.6 11.85 27.3 8.55C28.5 8.25 29.7 8.05 30.9 8.05C32.2 8.05 33.6 8.25 34.9 8.55C42 10.45 46.9 17.15 46.9 24.85V35.95C46.9 38.15 45.1 39.85 43 39.85L36.9 39.95ZM33.9 11.45C36.7 15.15 38.3 19.65 38.3 24.05V37.55H43C43.8 37.55 44.5 36.85 44.5 36.05V24.95C44.5 18.35 40.3 12.65 34.3 10.95L33.4 10.75L33.9 11.45V11.45ZM22.9 39.95C22.4 39.95 21.9 39.45 21.9 38.95V33.25C21.9 30.55 19.7 28.35 17 28.35H16.5C14.2 28.65 12.1 31.05 12.1 33.55V38.95C12.1 39.45 11.6 39.95 11.1 39.95H4.99998C2.79998 39.95 1.09998 38.15 1.09998 36.05V24.75C1.09998 15.85 7.99998 8.45 16.5 8.15H17C25.7 8.15 32.9 15.25 33 24.05V38.95C33 39.45 32.5 39.95 32 39.95H22.9ZM17.1 25.95C21.1 25.95 24.4 29.25 24.4 33.25V37.55H30.7V24.05C30.6 16.55 24.5 10.55 17.1 10.55H16.7C9.49998 10.75 3.59998 17.15 3.59998 24.75V36.05C3.59998 36.85 4.29998 37.55 5.09998 37.55H9.79998V33.55C9.79998 29.85 12.7 26.45 16.2 25.95H17.1V25.95Z" fill="#1F2024"/>
</svg>
