<svg width="48" height="48" viewBox="0 0 48 48" fill="none" xmlns="http://www.w3.org/2000/svg">
<path d="M36.95 40.35C36.15 40.35 35.45 39.65 35.45 38.85V23.95C35.45 17.75 31.95 11.65 26.55 8.54999L26.15 8.34999L26.55 8.24999C27.95 7.84999 29.45 7.54999 30.95 7.54999C32.35 7.54999 33.65 7.74999 35.05 8.14999C42.35 10.15 47.35 17.05 47.35 24.95V36.05C47.35 38.45 45.35 40.45 42.95 40.45H36.95V40.35V40.35ZM42.95 36.95C43.45 36.95 43.95 36.45 43.95 35.95V24.85C43.95 18.65 40.15 13.25 34.65 11.45C37.35 15.15 38.75 19.55 38.75 23.95V36.95H42.95V36.95ZM22.95 40.35C22.15 40.35 21.45 39.65 21.45 38.85V33.15C21.45 30.75 19.45 28.75 17.05 28.75H16.55C14.45 29.05 12.65 31.25 12.65 33.45V38.85C12.65 39.65 11.95 40.35 11.15 40.35H5.05002C2.65002 40.35 0.650024 38.35 0.650024 35.95V24.65C0.650024 15.55 7.75002 7.84999 16.55 7.54999H17.05C26.05 7.54999 33.45 14.95 33.55 23.95V38.85C33.55 39.65 32.85 40.35 32.05 40.35H22.95ZM30.15 36.95V23.95C30.05 16.75 24.25 10.95 17.05 10.95H16.65C9.65002 11.15 4.05002 17.35 4.05002 24.65V35.95C4.05002 36.45 4.55002 36.95 5.05002 36.95H9.25002V33.45C9.25002 29.55 12.35 25.85 16.15 25.35C16.55 25.35 16.85 25.25 17.05 25.25C21.35 25.25 24.85 28.75 24.85 33.05V36.85H30.15V36.95V36.95Z" fill="#1F2024"/>
</svg>
