<svg width="48" height="48" viewBox="0 0 48 48" fill="none" xmlns="http://www.w3.org/2000/svg">
<path d="M38.3282 24.167C39.6399 24.167 40.7036 23.1033 40.7036 21.7917C40.7036 20.48 39.6399 19.4163 38.3282 19.4163C37.0166 19.4163 35.9529 20.48 35.9529 21.7917C35.9529 23.1033 37.0166 24.167 38.3282 24.167Z" fill="#1F2024"/>
<path d="M35.6643 10.2557C34.7245 9.94588 33.733 9.68768 32.6589 9.51211C31.9567 9.39851 31.2234 9.30556 30.4591 9.25392C28.6518 7.87001 25.0371 6.17627 21.2778 5.47398C20.7614 5.38103 20.245 5.5566 19.8939 5.9284C19.5428 6.31053 19.4085 6.83724 19.5324 7.3433L20.6581 11.7016C16.7026 13.0339 13.4081 15.3266 11.3219 17.0307C10.8881 16.6279 10.4441 16.2458 9.97931 15.8843C6.27167 12.8893 1.89272 12.4968 1.70682 12.4865C1.23175 12.4452 0.787657 12.6208 0.467498 12.9719C0.14734 13.3127 0.0130796 13.7878 0.0853735 14.2422C0.126684 14.5004 1.04585 19.9844 3.49351 23.4235C1.04585 26.8523 0.126684 32.3467 0.0853735 32.6048C0.0130796 33.0696 0.14734 33.5343 0.467498 33.8752C0.787657 34.216 1.23175 34.3915 1.70682 34.3606C1.89272 34.3502 6.27166 33.9475 9.98964 30.9627C10.4337 30.6013 10.8778 30.2192 11.3116 29.8267C13.4081 31.5514 16.7233 33.8545 20.7304 35.1868L19.5324 40.7224C19.4292 41.2182 19.5737 41.7345 19.9249 42.096C20.2141 42.3955 20.6065 42.5504 21.0093 42.5504C21.1022 42.5504 21.1952 42.5504 21.2881 42.5298C25.1197 41.8172 28.7447 39.0906 30.4591 37.6241C31.2234 37.5725 31.9567 37.4795 32.6693 37.3556C33.7433 37.18 34.7245 36.9115 35.6746 36.6017C44.5978 33.6996 47.9336 25.7059 47.9336 23.4235C47.9336 21.1411 44.6081 13.1371 35.6746 10.2351L35.6643 10.2557ZM29.7775 34.6394C29.4367 34.6601 29.1062 34.7943 28.848 35.0215C28.0528 35.7238 25.7084 37.6964 23.0335 38.8325L23.9837 34.4638C24.1592 33.6686 23.6738 32.8837 22.8889 32.6771C18.0762 31.3965 14.162 28.3498 12.2514 26.6458C11.9622 26.3876 11.6008 26.2636 11.2393 26.2636C10.8468 26.2636 10.4544 26.4186 10.1549 26.7181C9.50424 27.3894 8.80195 28.0194 8.07901 28.5977C6.55051 29.8267 4.84644 30.5187 3.54515 30.9008C4.10285 28.7733 5.09431 25.9538 6.51953 24.4666C7.07723 23.8779 7.07723 22.9588 6.51953 22.3701C5.10463 20.8932 4.10285 18.0738 3.54515 15.9463C4.84644 16.3284 6.55051 17.0204 8.07901 18.2493C8.80195 18.8277 9.50423 19.468 10.1652 20.1393C10.7332 20.7177 11.6524 20.7486 12.2514 20.2116C14.162 18.5075 18.0866 15.4712 22.8683 14.2009C23.6738 13.984 24.1592 13.1681 23.9424 12.3522L23.0852 9.04737C25.791 9.88391 28.0115 11.1129 28.8583 11.8565C29.1165 12.0837 29.447 12.218 29.7878 12.2386C30.3662 12.2696 30.9239 12.3316 31.4712 12.4039C30.2423 15.9153 29.5916 19.6539 29.5916 23.4339C29.5916 27.2138 30.2423 30.9524 31.4712 34.4638C30.9136 34.5361 30.3455 34.6084 29.7569 34.6291L29.7775 34.6394ZM34.4663 33.8029C33.2786 30.5187 32.6486 26.9969 32.6486 23.4339C32.6486 19.8708 33.2786 16.349 34.4663 13.0648C41.9539 15.4092 44.8869 21.9363 44.8869 23.4339C44.8869 24.9314 41.9539 31.4481 34.456 33.8029H34.4663Z" fill="#1F2024"/>
</svg>
