<svg width="48" height="48" viewBox="0 0 48 48" fill="none" xmlns="http://www.w3.org/2000/svg">
<path d="M38.3284 24.167C39.64 24.167 40.7037 23.1033 40.7037 21.7917C40.7037 20.48 39.64 19.4163 38.3284 19.4163C37.0167 19.4163 35.953 20.48 35.953 21.7917C35.953 23.1033 37.0167 24.167 38.3284 24.167Z" fill="#1F2024"/>
<path d="M35.6644 10.2557C34.7246 9.94588 33.7331 9.68768 32.6591 9.51211C31.9568 9.39851 31.2235 9.30556 30.4593 9.25392C28.6519 7.87001 25.0372 6.17627 21.2779 5.47398C20.7615 5.38103 20.2452 5.5566 19.894 5.9284C19.5429 6.31053 19.4086 6.83724 19.5326 7.3433L20.6583 11.7016C16.7028 13.0339 13.4082 15.3266 11.322 17.0307C10.8883 16.6279 10.4442 16.2458 9.97943 15.8843C6.27179 12.8893 1.89284 12.4968 1.70694 12.4865C1.23187 12.4452 0.787779 12.6208 0.46762 12.9719C0.147462 13.3127 0.0132017 13.7878 0.0854956 14.2422C0.126806 14.5004 1.04597 19.9844 3.49364 23.4235C1.04597 26.8523 0.126806 32.3467 0.0854956 32.6048C0.0132017 33.0696 0.147462 33.5343 0.46762 33.8752C0.787779 34.216 1.23187 34.3915 1.70694 34.3606C1.89284 34.3502 6.27179 33.9475 9.98976 30.9627C10.4338 30.6013 10.8779 30.2192 11.3117 29.8267C13.4082 31.5514 16.7234 33.8545 20.7306 35.1868L19.5326 40.7224C19.4293 41.2182 19.5739 41.7345 19.925 42.096C20.2142 42.3955 20.6066 42.5504 21.0094 42.5504C21.1024 42.5504 21.1953 42.5504 21.2883 42.5298C25.1198 41.8172 28.7449 39.0906 30.4593 37.6241C31.2235 37.5725 31.9568 37.4795 32.6694 37.3556C33.7435 37.18 34.7246 36.9115 35.6747 36.6017C44.5979 33.6996 47.9337 25.7059 47.9337 23.4235C47.9337 21.1411 44.6082 13.1371 35.6747 10.2351L35.6644 10.2557ZM29.7776 34.6394C29.4368 34.6601 29.1063 34.7943 28.8481 35.0215C28.0529 35.7238 25.7085 37.6964 23.0336 38.8325L23.9838 34.4638C24.1594 33.6686 23.674 32.8837 22.8891 32.6771C18.0763 31.3965 14.1621 28.3498 12.2515 26.6458C11.9623 26.3876 11.6009 26.2636 11.2394 26.2636C10.847 26.2636 10.4545 26.4186 10.155 26.7181C9.50436 27.3894 8.80207 28.0194 8.07913 28.5977C6.55064 29.8267 4.84656 30.5187 3.54527 30.9008C4.10297 28.7733 5.09443 25.9538 6.51965 24.4666C7.07735 23.8779 7.07735 22.9588 6.51965 22.3701C5.10476 20.8932 4.10297 18.0738 3.54527 15.9463C4.84656 16.3284 6.55064 17.0204 8.07913 18.2493C8.80207 18.8277 9.50436 19.468 10.1653 20.1393C10.7334 20.7177 11.6525 20.7486 12.2515 20.2116C14.1621 18.5075 18.0867 15.4712 22.8684 14.2009C23.674 13.984 24.1594 13.1681 23.9425 12.3522L23.0853 9.04737C25.7911 9.88391 28.0116 11.1129 28.8585 11.8565C29.1167 12.0837 29.4471 12.218 29.788 12.2386C30.3663 12.2696 30.924 12.3316 31.4714 12.4039C30.2424 15.9153 29.5917 19.6539 29.5917 23.4339C29.5917 27.2138 30.2424 30.9524 31.4714 34.4638C30.9137 34.5361 30.3457 34.6084 29.757 34.6291L29.7776 34.6394ZM34.4664 33.8029C33.2787 30.5187 32.6487 26.9969 32.6487 23.4339C32.6487 19.8708 33.2787 16.349 34.4664 13.0648C41.954 15.4092 44.8871 21.9363 44.8871 23.4339C44.8871 24.9314 41.954 31.4481 34.4561 33.8029H34.4664Z" fill="#1F2024"/>
</svg>
