<svg width="48" height="48" viewBox="0 0 48 48" fill="none" xmlns="http://www.w3.org/2000/svg">
<path d="M32.6689 9.50179C31.9667 9.38818 31.2334 9.29523 30.4691 9.24359C28.6618 7.87001 25.0471 6.17627 21.2878 5.47398C20.7714 5.38103 20.2551 5.5566 19.9039 5.9284C19.5528 6.31053 19.4185 6.83724 19.5424 7.3433L20.6682 11.7016C16.7127 13.0339 13.4181 15.3266 11.3319 17.0307C10.8982 16.6279 10.4541 16.2458 9.98932 15.8843C6.28168 12.8893 1.90273 12.4968 1.71683 12.4865C1.24176 12.4452 0.797667 12.6208 0.477508 12.9719C0.157349 13.3127 0.0230894 13.7878 0.0953833 14.2422C0.136694 14.5004 1.05586 19.9844 3.50352 23.4235C1.05586 26.8523 0.136694 32.3467 0.0953833 32.6048C0.0230894 33.0696 0.157349 33.5343 0.477508 33.8752C0.797667 34.216 1.24176 34.3915 1.71683 34.3606C1.90273 34.3502 6.28167 33.9475 9.99965 30.9627C10.4437 30.6013 10.8878 30.2192 11.3216 29.8267C13.4181 31.5514 16.7333 33.8545 20.7405 35.1868L19.5424 40.7224C19.4392 41.2182 19.5838 41.7345 19.9349 42.096C20.2241 42.3955 20.6165 42.5504 21.0193 42.5504C21.1122 42.5504 21.2052 42.5504 21.2981 42.5298C25.1297 41.8172 28.7547 39.0906 30.4691 37.6241C31.2334 37.5725 31.9667 37.4795 32.6793 37.3556C30.686 33.0489 29.6326 28.2672 29.6326 23.4235C29.6326 18.5798 30.686 13.7981 32.6793 9.49146L32.6689 9.50179Z" fill="#1F2024"/>
<path d="M47.9238 23.4351C47.9238 21.1527 44.5983 13.1487 35.6648 10.2467C33.6922 14.2951 32.6491 18.829 32.6491 23.4351C32.6491 28.0413 33.7025 32.5751 35.6648 36.6133C44.5879 33.7112 47.9238 25.7175 47.9238 23.4351ZM38.3293 24.1581C37.0177 24.1581 35.954 23.0943 35.954 21.7827C35.954 20.4711 37.0177 19.4073 38.3293 19.4073C39.641 19.4073 40.7047 20.4711 40.7047 21.7827C40.7047 23.0943 39.641 24.1581 38.3293 24.1581Z" fill="#1F2024"/>
</svg>
