<svg width="48" height="48" viewBox="0 0 48 48" fill="none" xmlns="http://www.w3.org/2000/svg">
<path fill-rule="evenodd" clip-rule="evenodd" d="M23.9606 8.9541C22.7127 8.9541 21.6652 9.40895 20.9546 10.1744C20.4922 10.6749 20.1723 11.2828 20.0265 11.9312C20.0133 12.007 19.9977 12.0716 19.9845 12.1211C19.9675 12.1844 19.9497 12.24 19.9407 12.2678C19.9087 12.4575 19.8922 12.6583 19.8922 12.8497V12.8997L19.8889 12.9495C19.8833 13.0336 19.8878 13.1307 19.9026 13.3675L19.9027 13.3699C19.9744 14.5472 20.4557 15.6703 21.2623 16.5506C21.638 16.9552 22.0759 17.274 22.5541 17.4939L22.5763 17.5041L22.5981 17.515C22.6741 17.553 22.776 17.5939 22.8933 17.633L22.9048 17.6368L22.9162 17.6408C23.2332 17.7522 23.5817 17.8085 23.9473 17.8085C24.878 17.8085 25.8389 17.3941 26.6422 16.5399L26.6473 16.5344C26.8493 16.3218 27.0207 16.1086 27.1539 15.8954L27.1818 15.8508L27.2128 15.8082C27.2458 15.7628 27.2707 15.7194 27.3269 15.6217C27.3516 15.5787 27.3824 15.5251 27.4226 15.4562L27.4453 15.4174L27.4515 15.408C27.4556 15.3997 27.4607 15.3891 27.469 15.3719L27.4708 15.3682C27.4782 15.3526 27.4892 15.3297 27.5013 15.3052C27.7867 14.7003 27.9539 14.0472 28.0068 13.3593L28.0074 13.3518L28.008 13.3444C28.0271 13.1252 28.0271 12.9065 28.008 12.6873L28.0058 12.6618L28.0045 12.6362C27.9569 11.7332 27.5853 10.8692 26.9697 10.2043C26.5519 9.75896 26.0359 9.42243 25.4509 9.20795C24.9826 9.03591 24.4812 8.9541 23.9606 8.9541ZM18.7544 8.13501C20.0904 6.69495 21.9662 5.9541 23.9606 5.9541C24.7955 5.9541 25.6505 6.08524 26.4846 6.39163C27.4929 6.7615 28.411 7.35426 29.1621 8.15663L29.1669 8.16169C30.2452 9.32429 30.908 10.8416 30.9989 12.4529C31.0306 12.834 31.0301 13.2155 30.9974 13.5965C30.9171 14.6295 30.6609 15.6447 30.2063 16.6026L30.1997 16.6165L30.1928 16.6303C30.1892 16.6377 30.1846 16.6472 30.1732 16.6709L30.1721 16.673C30.1625 16.6931 30.1477 16.724 30.1314 16.7566C30.1034 16.8126 30.0593 16.8978 29.9996 16.9927C29.9939 17.0026 29.9876 17.0137 29.9808 17.0257C29.9157 17.14 29.799 17.3448 29.6726 17.5255C29.4138 17.9324 29.1175 18.2897 28.8249 18.598C27.5287 19.9749 25.8062 20.8085 23.9473 20.8085C23.2802 20.8085 22.5962 20.7066 21.9334 20.4753C21.7404 20.4105 21.5102 20.3233 21.2794 20.2097C20.4382 19.8193 19.6881 19.2654 19.0596 18.5872L19.0545 18.5817C17.7898 17.2036 17.023 15.4312 16.9083 13.5537C16.9076 13.5415 16.9068 13.5288 16.906 13.5157C16.8946 13.3376 16.8781 13.0775 16.8924 12.8031C16.8923 12.8187 16.8922 12.8342 16.8922 12.8497L16.8955 12.7499C16.8943 12.7677 16.8933 12.7854 16.8924 12.8031C16.895 12.4438 16.9281 12.0715 16.9928 11.7096C16.9908 11.7218 16.9888 11.7344 16.987 11.7472L16.9928 11.7096L16.9961 11.691C16.995 11.6972 16.9939 11.7034 16.9928 11.7096C17.0092 11.6093 17.031 11.5271 17.0458 11.4752C17.0579 11.4329 17.0714 11.3906 17.0791 11.367L17.0713 11.403L17.0633 11.4676C17.0711 11.405 17.0823 11.3609 17.0865 11.3453C17.087 11.3433 17.0879 11.34 17.0879 11.34C17.0871 11.3427 17.0858 11.3463 17.0842 11.351C17.0842 11.351 17.0832 11.3542 17.0824 11.3565C17.0815 11.3594 17.0804 11.3629 17.0791 11.367L17.085 11.3394C17.3417 10.1414 17.9219 9.03547 18.7527 8.1369L18.7544 8.13501ZM11.7472 15.8647C10.8973 15.8647 10.2055 16.1742 9.74615 16.6653L9.73897 16.6729C9.50681 16.9176 9.32868 17.2096 9.21823 17.524L9.12832 18.0034C9.10106 18.1489 9.08757 18.2798 9.08757 18.3915V18.4539L9.08239 18.5161C9.08218 18.5185 9.08099 18.5343 9.08223 18.5915C9.08267 18.6118 9.08314 18.628 9.08374 18.6486C9.08415 18.6625 9.08461 18.6783 9.08516 18.6988C9.08591 18.7269 9.0867 18.7597 9.08716 18.7956C9.1519 19.5995 9.47877 20.35 10.0194 20.9364L10.0246 20.942L10.0297 20.9477C10.2491 21.1906 10.5281 21.3951 10.8712 21.5599C10.9495 21.5941 11.0265 21.6243 11.0849 21.6441C11.3192 21.7186 11.5472 21.7555 11.7738 21.7555C12.348 21.7555 12.9799 21.4993 13.5071 20.9446C13.6958 20.7286 13.7901 20.6146 13.8562 20.5065L13.8934 20.4457L13.9275 20.4001C13.9302 20.3956 13.9353 20.3872 13.9429 20.3738C13.9531 20.3559 13.9645 20.335 13.9808 20.305C13.9831 20.3008 13.9856 20.2962 13.9882 20.2914C13.9985 20.2724 14.0111 20.2492 14.0242 20.2254C14.0341 20.2064 14.0426 20.1904 14.0483 20.1799L14.0606 20.1569L14.0622 20.1539L14.0671 20.1416L14.0881 20.0977C14.2799 19.6957 14.3959 19.257 14.4369 18.7804C14.4459 18.6059 14.4455 18.4461 14.4366 18.2892C14.3922 17.685 14.1444 17.1104 13.7469 16.6771C13.4694 16.3846 13.1281 16.162 12.7624 16.0315C12.4424 15.9194 12.1074 15.8647 11.7472 15.8647ZM6.12744 17.782V17.727C6.12744 17.6139 6.13847 17.5182 6.14865 17.4509C6.15894 17.3828 6.17127 17.3253 6.17969 17.2883C6.18636 17.2589 6.19423 17.227 6.19727 17.2146L6.19828 17.2105L6.19919 17.2067C6.40314 16.2267 6.88149 15.3274 7.55892 14.612C8.64088 13.4576 10.1537 12.8647 11.7472 12.8647C12.4227 12.8647 13.0969 12.9692 13.7595 13.202L13.7648 13.2039C14.5917 13.4979 15.3371 13.9905 15.9351 14.6248L15.9406 14.6306L15.9459 14.6364C16.8193 15.5825 17.3398 16.8096 17.4298 18.0868L17.4304 18.0954L17.4309 18.1041C17.4477 18.3902 17.4475 18.6735 17.4312 18.9664L17.4301 18.9859L17.4285 19.0053C17.3627 19.8116 17.1652 20.6041 16.8114 21.3563C16.7763 21.4375 16.7422 21.5033 16.7226 21.5404C16.7133 21.5582 16.7024 21.5785 16.6964 21.5896L16.6933 21.5955C16.6908 21.6001 16.6885 21.6044 16.6885 21.6044L16.6758 21.6298L16.66 21.6583C16.6581 21.6617 16.6546 21.6683 16.6497 21.6775C16.6148 21.7431 16.508 21.9438 16.3846 22.1214C16.1769 22.4498 15.9339 22.7272 15.7702 22.9141C15.7621 22.9232 15.7543 22.9322 15.7467 22.9409L15.73 22.96L15.7127 22.9785C14.6749 24.0866 13.2671 24.7555 11.7738 24.7555C11.2057 24.7555 10.6656 24.6605 10.1586 24.4975L10.1509 24.495L10.1433 24.4925C9.96725 24.4338 9.78839 24.3616 9.6363 24.294L9.61975 24.2866L9.60338 24.2789C8.94622 23.9676 8.32888 23.5387 7.80862 22.9643C6.79356 21.8608 6.19388 20.4499 6.09112 18.9598L6.08757 18.9083V18.8566C6.08757 18.8225 6.08693 18.8017 6.0859 18.7682C6.08511 18.7425 6.08408 18.7093 6.08294 18.6567C6.08116 18.5748 6.08002 18.4625 6.08795 18.3333C6.09048 18.1416 6.10527 17.9565 6.12744 17.782ZM36.2005 15.8647C35.3505 15.8647 34.6588 16.1742 34.1994 16.6653L34.1922 16.6729C33.9601 16.9176 33.7819 17.2096 33.6715 17.524L33.5816 18.0034C33.5543 18.1489 33.5408 18.2799 33.5408 18.3915V18.4539L33.5356 18.5161C33.5354 18.5185 33.5342 18.5343 33.5355 18.5915C33.5359 18.6118 33.5364 18.628 33.537 18.6486C33.5374 18.6625 33.5378 18.6783 33.5384 18.6988C33.5392 18.7269 33.5399 18.7597 33.5404 18.7955C33.6051 19.5995 33.932 20.35 34.4726 20.9364L34.4778 20.942L34.4829 20.9477C34.7023 21.1906 34.9814 21.3951 35.3245 21.5599C35.4028 21.5941 35.4797 21.6243 35.5381 21.6441C35.7725 21.7186 36.0004 21.7555 36.2271 21.7555C36.8012 21.7555 37.4331 21.4993 37.9604 20.9446C38.1491 20.7286 38.2434 20.6146 38.3094 20.5065L38.3466 20.4457L38.3808 20.4001C38.3835 20.3956 38.3885 20.3872 38.3961 20.3738C38.4063 20.3559 38.4178 20.335 38.4341 20.305C38.4454 20.2842 38.4611 20.2552 38.4775 20.2254C38.4873 20.2064 38.4959 20.1903 38.5015 20.1798L38.5138 20.1569L38.5154 20.1538L38.5204 20.1416L38.5413 20.0977C38.7331 19.6958 38.8491 19.257 38.8901 18.7804C38.8991 18.606 38.8987 18.4463 38.8899 18.2894C38.8455 17.6852 38.5977 17.1106 38.2002 16.6772C37.9227 16.3846 37.5814 16.162 37.2156 16.0315C36.8956 15.9194 36.5607 15.8647 36.2005 15.8647ZM30.5807 17.782V17.727C30.5807 17.6139 30.5917 17.5182 30.6019 17.4509C30.6122 17.3828 30.6245 17.3253 30.6329 17.2883C30.6406 17.2546 30.6498 17.2174 30.6515 17.2105L30.6524 17.2067C30.8564 16.2267 31.3347 15.3274 32.0122 14.6119C33.0941 13.4576 34.6069 12.8647 36.2005 12.8647C36.8759 12.8647 37.5501 12.9692 38.2127 13.202L38.218 13.2039C39.0449 13.4979 39.7904 13.9905 40.3884 14.6248L40.3938 14.6306L40.3992 14.6364C41.2725 15.5825 41.7931 16.8096 41.883 18.0868L41.8836 18.0954L41.8842 18.1041C41.901 18.3902 41.9007 18.6735 41.8844 18.9664L41.8834 18.9859L41.8818 19.0053C41.8159 19.8116 41.6184 20.6041 41.2646 21.3563C41.2295 21.4376 41.1954 21.5034 41.1759 21.5404C41.1664 21.5584 41.1554 21.5789 41.1495 21.5898L41.1465 21.5955C41.144 21.6001 41.1418 21.6044 41.1418 21.6044L41.1291 21.6298L41.1132 21.6583C41.1113 21.6617 41.1078 21.6683 41.1029 21.6776C41.068 21.7432 40.9612 21.9438 40.8378 22.1214C40.6301 22.4499 40.3871 22.7272 40.2234 22.9141C40.2154 22.9232 40.2075 22.9322 40.1999 22.9409L40.1832 22.96L40.1659 22.9785C39.1281 24.0866 37.7203 24.7555 36.2271 24.7555C35.659 24.7555 35.1188 24.6605 34.6118 24.4975L34.6042 24.495L34.5965 24.4925C34.4205 24.4338 34.2416 24.3616 34.0895 24.294L34.073 24.2866L34.0566 24.2789C33.3995 23.9676 32.7821 23.5387 32.2619 22.9644C31.2468 21.8608 30.6471 20.4499 30.5444 18.9598L30.5408 18.9083V18.8566C30.5408 18.8225 30.5402 18.8017 30.5391 18.7683C30.5383 18.7425 30.5373 18.7093 30.5362 18.6567C30.5344 18.5748 30.5333 18.4625 30.5412 18.3334C30.5437 18.1416 30.5585 17.9565 30.5807 17.782ZM23.9559 22.1814C26.2719 22.1673 28.556 22.7503 30.5857 23.8696C31.7489 24.5111 32.811 25.3112 33.7396 26.2479C34.0346 26.062 34.3305 25.9134 34.6273 25.7973C35.3381 25.5193 35.9761 25.4587 36.481 25.4503L36.4843 25.4502C37.7163 25.4324 38.8447 25.8066 39.7907 26.2643C39.8294 26.283 39.8679 26.302 39.9062 26.3213C40.8664 26.7993 41.7282 27.4485 42.4536 28.2686L42.4591 28.2747L42.4644 28.2809C43.1837 29.1121 43.7492 30.078 44.1065 31.1339C44.4603 32.1791 44.5897 33.2772 44.5179 34.3517V34.6604L44.4888 34.8061C44.4225 35.1377 44.2908 35.5584 43.992 35.9568C43.7021 36.3433 43.3041 36.6461 42.8314 36.8149L42.803 36.8251L42.5858 36.8929C41.4906 37.2754 40.3291 37.5766 39.1419 37.7503L39.1394 37.7335C39.1314 37.7347 39.1234 37.7359 39.1153 37.7371L37.4903 37.9715C37.3599 38.2335 37.154 38.4552 36.8936 38.6045C32.958 40.8615 28.5011 42.046 23.9607 42.046C19.2521 42.046 14.8358 40.7906 11.0273 38.6042C10.7566 38.4488 10.5449 38.2153 10.4157 37.9396L8.87075 37.7388L8.85885 37.7371C7.68095 37.5647 6.53081 37.2782 5.40984 36.8781L5.19774 36.8118L5.16938 36.8016C4.69663 36.6328 4.29867 36.3301 4.00875 35.9435C3.70742 35.5417 3.56315 35.101 3.50927 34.6969L3.49611 34.5982V34.3588C3.39499 33.2633 3.52952 32.1589 3.88095 31.1206C4.23445 30.0762 4.78444 29.1025 5.53383 28.2553C6.26821 27.4234 7.17405 26.7463 8.1702 26.2643C9.11621 25.8066 10.2446 25.4324 11.4766 25.4502L11.4803 25.4503C11.98 25.4588 12.6165 25.5197 13.327 25.7967C13.6189 25.9105 13.9106 26.0557 14.2017 26.2371C15.1283 25.3014 16.1893 24.5009 17.3542 23.8667C19.3693 22.7626 21.6484 22.1822 23.9559 22.1814ZM12.304 28.6192C12.2812 28.6094 12.259 28.6003 12.2374 28.5918C11.9684 28.487 11.715 28.4548 11.4312 28.4499C10.8298 28.4416 10.178 28.6255 9.47689 28.9648C8.82569 29.2799 8.24355 29.7186 7.78208 30.2416L7.78082 30.2431C7.30755 30.778 6.95385 31.3991 6.7226 32.0824C6.50414 32.7278 6.42222 33.4082 6.48272 34.0755C7.39339 34.396 8.32593 34.6264 9.28161 34.767L10.2311 34.8904C10.3963 32.6661 11.114 30.5101 12.304 28.6192ZM14.7965 30.2917C13.755 31.9769 13.1943 33.9164 13.1943 35.8813C13.1943 36.0488 13.198 36.2145 13.2054 36.3801C16.4133 38.0797 20.0714 39.046 23.9607 39.046C27.7183 39.046 31.4094 38.1294 34.7183 36.3785C34.7242 36.237 34.7271 36.0934 34.7271 35.9478V35.8813C34.7271 33.8615 34.1347 31.8684 33.0364 30.1509L33.033 30.1456C32.0683 28.623 30.7288 27.3745 29.137 26.4966C27.5533 25.6233 25.7726 25.1697 23.9704 25.1813L23.9607 25.1814C22.1508 25.1814 20.3657 25.6372 18.7944 26.4985L18.7903 26.5007C17.209 27.3611 15.8693 28.6184 14.9017 30.1456C14.8692 30.197 14.834 30.2457 14.7965 30.2917ZM37.6919 34.9114L38.6809 34.7687L38.682 34.7685C39.6451 34.6275 40.5847 34.3953 41.5021 34.0717C41.5393 33.3919 41.452 32.7138 41.2383 32.0824C41.007 31.3991 40.6533 30.778 40.1801 30.2431C39.7249 29.7285 39.183 29.3158 38.5647 29.0046C38.5467 28.9957 38.5287 28.9868 38.5106 28.9781C37.8695 28.6679 37.1791 28.4929 36.4674 28.462L36.4679 28.4514C36.2018 28.4598 35.9667 28.4947 35.7201 28.5912C35.6896 28.6031 35.6579 28.6164 35.625 28.6313C36.8142 30.5252 37.53 32.6844 37.6919 34.9114Z" fill="#1F2024"/>
</svg>
