<svg width="48" height="48" viewBox="0 0 48 48" fill="none" xmlns="http://www.w3.org/2000/svg">
<path d="M23.9929 6.55577H24.0071V6.5415C24.8062 6.5415 25.5911 6.66993 26.3473 6.94105C27.2891 7.28352 28.1453 7.84003 28.8302 8.56777C29.8434 9.66653 30.4427 11.0649 30.5283 12.549C30.5568 12.92 30.5568 13.2767 30.5283 13.6334C30.457 14.6466 30.2001 15.6454 29.7577 16.5587C29.7292 16.6086 29.7042 16.6586 29.6793 16.7085C29.6543 16.7585 29.6293 16.8084 29.6008 16.8584C29.4866 17.0581 29.3725 17.2436 29.2583 17.4291C29.0157 17.8001 28.7446 18.1426 28.445 18.4708C27.2035 19.7979 25.6196 20.5256 23.9786 20.5256C23.365 20.5256 22.7514 20.4257 22.1664 20.226C22.1264 20.2106 22.0858 20.1952 22.0448 20.1797C21.8955 20.1232 21.7411 20.0648 21.5956 19.9976C20.8108 19.6266 20.0973 19.1129 19.5122 18.4708C18.2993 17.1437 17.5573 15.4314 17.4432 13.6334C17.4289 13.3909 17.4289 13.1483 17.4289 12.9057C17.4432 12.5632 17.4717 12.2065 17.5288 11.864C17.5431 11.807 17.5538 11.7499 17.5645 11.6928C17.5752 11.6357 17.5859 11.5786 17.6001 11.5216C17.8427 10.4085 18.3707 9.3954 19.1412 8.56777C20.3541 7.26925 22.0808 6.55577 23.9929 6.55577Z" fill="#1F2024"/>
<path d="M17.9711 25.5913C19.8118 24.6352 21.8809 24.1215 23.9928 24.1215H24.0071C25.7765 24.1215 27.5174 24.4783 29.1298 25.1632C30.7423 25.8481 32.1835 26.8613 33.3679 28.117C34.5522 29.3727 35.4369 30.8567 35.9792 32.4692C36.5214 34.0674 36.6926 35.7655 36.4929 37.4493C36.4786 37.6633 36.393 37.8631 36.2788 38.0343C36.1647 38.2055 35.9934 38.3625 35.8079 38.4624C32.2263 40.4316 28.1595 41.459 24.0356 41.459H23.9643C19.8404 41.459 15.7878 40.4173 12.2062 38.4624C12.0207 38.3482 11.8494 38.2055 11.7353 38.0343C11.6211 37.8631 11.5498 37.6633 11.5212 37.4493C11.2073 34.7238 11.878 31.9698 13.4191 29.6581C14.5464 27.96 16.116 26.5616 17.9711 25.5913Z" fill="#1F2024"/>
<path d="M36.5643 13.662H36.5785L36.55 13.6905C37.1779 13.6905 37.82 13.7904 38.4193 14.0045C39.1756 14.2756 39.8605 14.7179 40.4028 15.303C41.2019 16.1734 41.687 17.3007 41.7584 18.4851C41.7726 18.7705 41.7726 19.0559 41.7584 19.3412C41.7013 20.1546 41.5015 20.9537 41.1448 21.6814C41.1235 21.7452 41.0944 21.801 41.0632 21.8607C41.0525 21.8812 41.0416 21.9022 41.0306 21.924C40.945 22.081 40.8594 22.238 40.7595 22.3807C40.5597 22.666 40.3457 22.9514 40.1031 23.2083C39.1185 24.2642 37.8485 24.8493 36.5357 24.8493C36.0506 24.8493 35.5654 24.7637 35.0945 24.6067C34.9376 24.5496 34.7949 24.4925 34.6379 24.4212C34.01 24.1358 33.4393 23.722 32.9684 23.2083C31.998 22.1381 31.413 20.7682 31.3131 19.327V18.7419C31.3274 18.4565 31.3559 18.1854 31.3987 17.9C31.4059 17.8572 31.4166 17.8108 31.4273 17.7645C31.438 17.7181 31.4487 17.6717 31.4558 17.6289C31.6413 16.7442 32.0694 15.9308 32.683 15.2744C33.6533 14.2328 35.0374 13.662 36.5643 13.662Z" fill="#1F2024"/>
<path d="M8.68174 37.1924L8.6673 37.1902L8.66716 37.1883L8.696 37.1924C8.43915 33.8248 9.29532 30.4715 11.1361 27.6318H11.1218L11.1071 27.6325C10.1796 27.6753 9.25252 27.903 8.41062 28.3025C7.55445 28.7163 6.79816 29.2871 6.18457 29.9863C5.57099 30.6855 5.10009 31.5131 4.80043 32.3978C4.50077 33.2968 4.38662 34.2386 4.4865 35.1661V35.3944C4.50078 35.5942 4.57214 35.794 4.70055 35.951C4.82897 36.1222 5.00021 36.2363 5.18571 36.3077L5.39975 36.379C5.81263 36.5222 6.22974 36.6504 6.65029 36.7638C7.25631 36.9303 7.86946 37.0653 8.48731 37.1614C8.54726 37.1713 8.60726 37.1809 8.6673 37.1902L8.66747 37.1924H8.68174Z" fill="#1F2024"/>
<path d="M11.4357 13.662H11.45L11.4214 13.6905C12.0493 13.6905 12.6914 13.7904 13.2907 14.0045C14.047 14.2756 14.732 14.7179 15.2742 15.303C16.0733 16.1734 16.5585 17.3007 16.6298 18.4851C16.6441 18.7705 16.6441 19.0559 16.6298 19.3412C16.5727 20.1546 16.3729 20.9537 16.0162 21.6814C15.995 21.7452 15.9658 21.801 15.9346 21.8607C15.9239 21.8812 15.913 21.9022 15.9021 21.924C15.8164 22.081 15.7308 22.238 15.6309 22.3807C15.4312 22.666 15.2171 22.9514 14.9745 23.2083C13.9899 24.2642 12.72 24.8493 11.4072 24.8493C10.922 24.8493 10.4368 24.7637 9.96594 24.6067C9.80898 24.5496 9.66628 24.4925 9.50931 24.4212C8.88146 24.1358 8.31068 23.722 7.83978 23.2083C6.86946 22.1381 6.28441 20.7682 6.18452 19.327V18.7419C6.19879 18.4565 6.22733 18.1854 6.27014 17.9C6.27727 17.8572 6.28797 17.8108 6.29868 17.7645C6.30938 17.7181 6.32008 17.6717 6.32722 17.6289C6.51272 16.7442 6.94081 15.9308 7.55439 15.2744C8.52472 14.2328 9.90886 13.662 11.4357 13.662Z" fill="#1F2024"/>
<path d="M39.3185 37.1902C39.3184 37.1909 39.3184 37.1917 39.3183 37.1924C40.4456 37.0212 41.5444 36.75 42.6003 36.3648L42.8143 36.2934C42.9999 36.2221 43.1711 36.1079 43.2995 35.9367C43.4279 35.7797 43.4993 35.5799 43.5136 35.3802V35.1519C43.6134 34.2243 43.4993 33.2826 43.1996 32.3836C42.9 31.4989 42.4291 30.6712 41.8155 29.972C41.2019 29.2728 40.4456 28.702 39.5894 28.2882C38.7475 27.8887 37.82 27.6604 36.8925 27.6176L36.8782 27.6318C36.8781 27.6316 36.8784 27.6321 36.8782 27.6318C36.8733 27.6316 36.8689 27.6321 36.864 27.6318C38.7047 30.4715 39.5609 33.8248 39.304 37.1924C39.3089 37.1917 39.3137 37.1909 39.3185 37.1902Z" fill="#1F2024"/>
</svg>
