<svg width="48" height="48" viewBox="0 0 48 48" fill="none" xmlns="http://www.w3.org/2000/svg">
<path d="M24.0011 42.3C23.3011 42.3 22.6011 42.1 22.1011 41.6C13.2011 35.5 4.10109 27.8 4.30109 16.5C4.30109 10.6 9.10109 5.70001 14.9011 5.70001C19.4011 5.70001 22.4011 8.30001 24.0011 10.4C25.6011 8.40001 28.6011 5.70001 33.1011 5.70001C38.8011 5.70001 43.6011 10.5 43.7011 16.5C43.8011 27.8 34.8011 35.5 25.9011 41.6C25.4011 42.1 24.7011 42.3 24.0011 42.3V42.3ZM14.9011 9.20001C10.9011 9.20001 7.70109 12.5 7.70109 16.6C7.60109 26.2 15.5011 33 24.0011 38.8C32.1011 33.3 40.4011 26.3 40.3011 16.6C40.2011 12.5 37.0011 9.20001 33.1011 9.20001C28.1011 9.20001 25.5011 14.2 25.5011 14.3C25.2011 14.9 24.6011 15.2 24.0011 15.2C23.4011 15.2 22.8011 14.8 22.5011 14.3C22.4011 14.1 19.8011 9.20001 14.9011 9.20001V9.20001Z" fill="#1F2024"/>
</svg>
