<svg width="48" height="48" viewBox="0 0 48 48" fill="none" xmlns="http://www.w3.org/2000/svg">
<path d="M24.0012 42.3C23.3012 42.3 22.6012 42.1 22.1012 41.6C13.2012 35.5 4.10121 27.8 4.30121 16.5C4.30121 10.6 9.10121 5.70001 14.9012 5.70001C19.4012 5.70001 22.4012 8.30001 24.0012 10.4C25.6012 8.40001 28.6012 5.70001 33.1012 5.70001C38.8012 5.70001 43.6012 10.5 43.7012 16.5C43.8012 27.8 34.8012 35.5 25.9012 41.6C25.4012 42.1 24.7012 42.3 24.0012 42.3V42.3ZM14.9012 9.20001C10.9012 9.20001 7.70121 12.5 7.70121 16.6C7.60121 26.2 15.5012 33 24.0012 38.8C32.1012 33.3 40.4012 26.3 40.3012 16.6C40.2012 12.5 37.0012 9.20001 33.1012 9.20001C28.1012 9.20001 25.5012 14.2 25.5012 14.3C25.2012 14.9 24.6012 15.2 24.0012 15.2C23.4012 15.2 22.8012 14.8 22.5012 14.3C22.4012 14.1 19.8012 9.20001 14.9012 9.20001V9.20001Z" fill="#1F2024"/>
</svg>
