<svg width="48" height="48" viewBox="0 0 48 48" fill="none" xmlns="http://www.w3.org/2000/svg">
<path d="M24.0001 41.7999C23.4001 41.7999 22.9001 41.6 22.5001 41.2C13.7001 35.2 4.70014 27.6 4.80014 16.5C4.80014 10.8 9.30014 6.19995 14.9001 6.19995C19.5001 6.19995 22.5001 9.19995 24.0001 11.2C25.5001 9.19995 28.5001 6.19995 33.1001 6.19995C38.6001 6.19995 43.1001 10.8 43.2001 16.5C43.3001 27.6 34.3001 35.2 25.5001 41.2C25.1001 41.6 24.6001 41.7999 24.0001 41.7999ZM14.9001 8.69995C10.7001 8.69995 7.20014 12.2 7.20014 16.6C7.10014 26.5 15.6001 33.6999 23.9001 39.2999C24.0001 39.2999 24.0001 39.4 24.1001 39.4C24.2001 39.3 24.1001 39.2999 24.2001 39.2999C32.5001 33.6999 41.0001 26.6 40.9001 16.6C40.8001 12.2 37.4001 8.69995 33.2001 8.69995C27.9001 8.69995 25.2001 14 25.2001 14C25.0001 14.4 24.6001 14.7 24.1001 14.7C23.6001 14.7 23.2001 14.4 23.0001 14C22.9001 14 20.2001 8.69995 14.9001 8.69995V8.69995Z" fill="#1F2024"/>
</svg>
