<svg width="48" height="48" viewBox="0 0 48 48" fill="none" xmlns="http://www.w3.org/2000/svg">
<path d="M23.9999 41.7999C23.3999 41.7999 22.8999 41.6 22.4999 41.2C13.6999 35.2 4.6999 27.6 4.7999 16.5C4.7999 10.8 9.2999 6.19995 14.8999 6.19995C19.4999 6.19995 22.4999 9.19995 23.9999 11.2C25.4999 9.19995 28.4999 6.19995 33.0999 6.19995C38.5999 6.19995 43.0999 10.8 43.1999 16.5C43.2999 27.6 34.2999 35.2 25.4999 41.2C25.0999 41.6 24.5999 41.7999 23.9999 41.7999ZM14.8999 8.69995C10.6999 8.69995 7.1999 12.2 7.1999 16.6C7.0999 26.5 15.5999 33.6999 23.8999 39.2999C23.9999 39.2999 23.9999 39.4 24.0999 39.4C24.1999 39.3 24.0999 39.2999 24.1999 39.2999C32.4999 33.6999 40.9999 26.6 40.8999 16.6C40.7999 12.2 37.3999 8.69995 33.1999 8.69995C27.8999 8.69995 25.1999 14 25.1999 14C24.9999 14.4 24.5999 14.7 24.0999 14.7C23.5999 14.7 23.1999 14.4 22.9999 14C22.8999 14 20.1999 8.69995 14.8999 8.69995V8.69995Z" fill="#1F2024"/>
</svg>
