<svg width="48" height="48" viewBox="0 0 48 48" fill="none" xmlns="http://www.w3.org/2000/svg">
<path d="M24.5 42C23.9 42 23.31 41.82 22.81 41.48C15.44 36.48 12.25 33.05 10.49 30.9C6.75004 26.33 4.95004 21.64 5.00004 16.56C5.06004 10.74 9.73004 6 15.42 6C19.55 6 22.41 8.33 24.08 10.27C24.13 10.33 24.2 10.38 24.27 10.41C24.34 10.44 24.42 10.46 24.5 10.46C24.58 10.46 24.66 10.44 24.73 10.41C24.8 10.38 24.87 10.33 24.92 10.27C26.59 8.33 29.45 6 33.58 6C39.26 6 43.93 10.74 43.99 16.56C44.04 21.64 42.24 26.33 38.5 30.9C36.74 33.04 33.55 36.47 26.18 41.48C25.68 41.82 25.09 42 24.49 42H24.5Z" fill="#1F2024"/>
</svg>
