<svg width="48" height="48" viewBox="0 0 48 48" fill="none" xmlns="http://www.w3.org/2000/svg">
<path d="M24.5 42C23.89 42 23.31 41.82 22.81 41.48C13.94 35.46 4.89002 27.79 5.00002 16.56C5.06002 10.74 9.73002 6 15.42 6C19.93 6 22.92 8.77 24.51 10.78C26.09 8.77 29.09 6 33.6 6C39.28 6 43.95 10.74 44.01 16.56C44.12 27.79 35.07 35.46 26.2 41.48C25.7 41.82 25.12 42 24.51 42H24.5ZM15.42 9C11.38 9 8.05002 12.41 8.01002 16.59C7.91002 26.4 16.29 33.42 24.51 39C32.73 33.43 41.11 26.4 41.01 16.59C40.97 12.4 37.64 9 33.6 9C28.54 9 25.88 14.12 25.85 14.17C25.59 14.67 25.08 14.99 24.51 14.99C23.94 14.99 23.43 14.67 23.17 14.16C23.15 14.11 20.48 8.99 15.43 8.99L15.42 9Z" fill="#1F2024"/>
</svg>
