<svg width="48" height="48" viewBox="0 0 48 48" fill="none" xmlns="http://www.w3.org/2000/svg">
<path d="M24 41.8C23.4 41.8 22.9 41.6 22.5 41.2C13.7 35.2 4.70002 27.6 4.80002 16.5C4.80002 10.8 9.30002 6.2 14.9 6.2C19.5 6.2 22.5 9.2 24 11.2C25.5 9.2 28.5 6.2 33.1 6.2C38.6 6.2 43.1 10.8 43.2 16.5C43.3 27.6 34.3 35.2 25.5 41.2C25.1 41.6 24.6 41.8 24 41.8ZM14.9 8.7C10.7 8.7 7.20002 12.2 7.20002 16.6C7.10002 26.5 15.6 33.7 23.9 39.3C24 39.3 24 39.4 24.1 39.4C24.2 39.3 24.1 39.3 24.2 39.3C32.5 33.7 41 26.6 40.9 16.6C40.8 12.2 37.4 8.7 33.2 8.7C27.9 8.7 25.2 14 25.2 14C25 14.4 24.6 14.7 24.1 14.7C23.6 14.7 23.2 14.4 23 14C22.9 14 20.2 8.7 14.9 8.7V8.7Z" fill="#1F2024"/>
</svg>
