<svg width="48" height="48" viewBox="0 0 48 48" fill="none" xmlns="http://www.w3.org/2000/svg">
<path d="M36.9 11.3C33.48 7.88 28.94 6 24.1 6C20.51 6 17.03 7.06 14.04 9.05C11.05 11.04 8.75001 13.85 7.38001 17.17C6.00001 20.49 5.65001 24.11 6.35001 27.63C7.05001 31.15 8.77001 34.36 11.3 36.9C13.84 39.44 17.04 41.15 20.57 41.85C21.74 42.08 22.93 42.2 24.11 42.2C26.47 42.2 28.81 41.74 31.03 40.82C34.35 39.45 37.16 37.14 39.15 34.15C41.15 31.16 42.2 27.69 42.2 24.09C42.2 19.25 40.32 14.71 36.9 11.29V11.3ZM36.49 32.38C34.85 34.84 32.54 36.74 29.8 37.87C27.07 39 24.09 39.29 21.19 38.72C18.29 38.14 15.65 36.73 13.56 34.64C11.47 32.55 10.06 29.91 9.48001 27.01C8.90001 24.11 9.20001 21.13 10.33 18.4C11.46 15.67 13.36 13.36 15.82 11.71C18.28 10.07 21.14 9.2 24.1 9.2C28.08 9.2 31.82 10.75 34.64 13.56C37.45 16.37 39 20.11 39 24.1C39 27.06 38.13 29.92 36.49 32.38Z" fill="#1F2024"/>
<path d="M27.24 13.98C26.46 13.61 25.32 13.4 24.08 13.42C22.35 13.45 20.89 13.93 19.75 14.85C17.53 16.63 17.37 18.76 17.36 19C17.32 19.81 17.94 20.49 18.75 20.55C19.57 20.6 20.27 19.99 20.35 19.18C20.35 19.14 20.46 18.13 21.63 17.19C22.25 16.69 23.07 16.44 24.12 16.42C25.07 16.42 25.72 16.59 25.94 16.69C27.85 17.6 27.85 18.79 27.85 19.19C27.85 20.71 27.06 21.4 25.1 22.71C23.1 24.05 22.13 25.74 22.13 27.86C22.13 28.69 22.8 29.36 23.63 29.36C24.46 29.36 25.13 28.69 25.13 27.86C25.13 27.03 25.33 26.17 26.77 25.2C28.59 23.98 30.85 22.47 30.85 19.19C30.85 16.94 29.56 15.09 27.23 13.98H27.24Z" fill="#1F2024"/>
<path d="M23.5399 30.85C22.4999 30.85 21.6599 31.69 21.6599 32.73C21.6599 33.77 22.4999 34.61 23.5399 34.61C24.5799 34.61 25.4099 33.77 25.4099 32.73C25.4099 31.69 24.5699 30.85 23.5399 30.85Z" fill="#1F2024"/>
</svg>
