<svg width="48" height="48" viewBox="0 0 48 48" fill="none" xmlns="http://www.w3.org/2000/svg">
<path fill-rule="evenodd" clip-rule="evenodd" d="M20.4737 41.715C21.6437 41.935 22.8237 42.045 23.9937 42.045V42.055C26.3537 42.055 28.6837 41.605 30.8637 40.735C34.0937 39.445 36.9837 37.065 39.0037 34.035C41.0137 31.025 42.0737 27.535 42.0737 23.945C42.0737 19.065 40.0837 14.405 36.8037 11.115C33.5237 7.82501 28.8837 5.94501 24.0737 5.94501C20.4837 5.94501 16.9937 7.00501 13.9837 9.01501C11.0637 10.965 8.75373 13.765 7.28373 17.155C5.90373 20.595 5.57373 24.205 6.30373 27.535C6.94373 30.995 8.64373 34.195 11.2337 36.775C13.8237 39.355 17.0137 41.065 20.4737 41.715ZM21.6238 33.415C21.6238 34.445 22.4338 35.255 23.4638 35.255C24.4938 35.255 25.3038 34.465 25.3038 33.415C25.3038 32.365 24.4938 31.575 23.4638 31.575C22.4338 31.575 21.6238 32.385 21.6238 33.415ZM22.0238 27.255C22.0238 28.305 22.5738 28.925 23.4838 28.925V28.935C24.4038 28.935 24.8938 28.335 24.8938 27.215C24.8938 25.625 25.4638 24.805 27.3338 23.705C29.5138 22.395 30.5738 20.665 30.5738 18.405C30.5738 15.065 27.8738 12.735 24.0038 12.735C21.0538 12.735 18.7538 14.045 17.8438 16.225C17.5538 16.845 17.4338 17.385 17.4338 18.035C17.4338 18.895 17.9038 19.385 18.7338 19.385C19.4838 19.385 19.8438 19.055 20.1138 18.095C20.6138 16.275 21.9238 15.315 23.8938 15.315C26.0738 15.315 27.5338 16.605 27.5338 18.535C27.5338 20.045 26.8738 21.005 25.1238 22.075C22.9538 23.375 22.0238 24.795 22.0238 26.825V27.255Z" fill="#1F2024"/>
</svg>
