<svg width="48" height="48" viewBox="0 0 48 48" fill="none" xmlns="http://www.w3.org/2000/svg">
<path d="M23.995 42.25C22.815 42.25 21.615 42.14 20.435 41.92C16.935 41.26 13.705 39.54 11.095 36.92C8.48496 34.31 6.76496 31.08 6.10496 27.58C5.36496 24.2 5.70496 20.57 7.10496 17.08C8.58496 13.66 10.925 10.82 13.875 8.85C16.925 6.82 20.445 5.75 24.075 5.75C28.935 5.75 33.625 7.66 36.945 10.98C40.385 14.42 42.275 19.02 42.275 23.95C42.275 27.58 41.205 31.1 39.175 34.15C37.145 37.2 34.215 39.62 30.945 40.92C28.735 41.8 26.405 42.25 24.005 42.25H23.995ZM24.075 9.35C21.155 9.35 18.325 10.21 15.875 11.85C13.505 13.43 11.615 15.72 10.425 18.47C9.31496 21.25 9.03496 24.16 9.63496 26.87C10.165 29.69 11.555 32.28 13.645 34.38C15.745 36.48 18.325 37.86 21.105 38.38C22.065 38.56 23.035 38.65 23.995 38.65C25.935 38.65 27.825 38.29 29.605 37.58C32.205 36.54 34.535 34.61 36.175 32.15C37.805 29.7 38.675 26.86 38.675 23.95C38.675 19.98 37.155 16.28 34.405 13.52C31.755 10.87 27.985 9.35 24.075 9.35Z" fill="#1F2024"/>
<path d="M23.465 35.46C22.325 35.46 21.425 34.56 21.425 33.42C21.425 32.28 22.325 31.38 23.465 31.38C24.605 31.38 25.505 32.26 25.505 33.42C25.505 34.58 24.605 35.46 23.465 35.46ZM23.485 29.13C22.465 29.13 21.825 28.41 21.825 27.26V26.83C21.825 24.72 22.785 23.25 25.025 21.91C26.705 20.88 27.335 19.97 27.335 18.54C27.335 16.73 25.955 15.52 23.895 15.52C22.025 15.52 20.785 16.43 20.315 18.15C20.025 19.19 19.585 19.59 18.745 19.59C17.805 19.59 17.245 19.01 17.245 18.04C17.245 17.36 17.375 16.79 17.665 16.14C18.605 13.89 20.975 12.53 24.005 12.53C27.985 12.53 30.775 14.94 30.775 18.4C30.775 20.73 29.685 22.52 27.445 23.87C25.625 24.94 25.105 25.69 25.105 27.21C25.105 28.45 24.535 29.13 23.495 29.13H23.485Z" fill="#1F2024"/>
</svg>
