<svg width="48" height="48" viewBox="0 0 48 48" fill="none" xmlns="http://www.w3.org/2000/svg">
<path d="M23.9947 42.25C22.8147 42.25 21.6147 42.14 20.4347 41.92C16.9347 41.26 13.7047 39.54 11.0947 36.92C8.48472 34.31 6.76472 31.08 6.10472 27.58C5.36472 24.2 5.70472 20.57 7.10472 17.08C8.58472 13.66 10.9247 10.82 13.8747 8.85C16.9247 6.82 20.4447 5.75 24.0747 5.75C28.9347 5.75 33.6247 7.66 36.9447 10.98C40.3847 14.42 42.2747 19.02 42.2747 23.95C42.2747 27.58 41.2047 31.1 39.1747 34.15C37.1447 37.2 34.2147 39.62 30.9447 40.92C28.7347 41.8 26.4047 42.25 24.0047 42.25H23.9947ZM24.0747 9.35C21.1547 9.35 18.3247 10.21 15.8747 11.85C13.5047 13.43 11.6147 15.72 10.4247 18.47C9.31472 21.25 9.03472 24.16 9.63472 26.87C10.1647 29.69 11.5547 32.28 13.6447 34.38C15.7447 36.48 18.3247 37.86 21.1047 38.38C22.0647 38.56 23.0347 38.65 23.9947 38.65C25.9347 38.65 27.8247 38.29 29.6047 37.58C32.2047 36.54 34.5347 34.61 36.1747 32.15C37.8047 29.7 38.6747 26.86 38.6747 23.95C38.6747 19.98 37.1547 16.28 34.4047 13.52C31.7547 10.87 27.9847 9.35 24.0747 9.35Z" fill="#1F2024"/>
<path d="M23.4647 35.46C22.3247 35.46 21.4247 34.56 21.4247 33.42C21.4247 32.28 22.3247 31.38 23.4647 31.38C24.6047 31.38 25.5047 32.26 25.5047 33.42C25.5047 34.58 24.6047 35.46 23.4647 35.46ZM23.4847 29.13C22.4647 29.13 21.8247 28.41 21.8247 27.26V26.83C21.8247 24.72 22.7847 23.25 25.0247 21.91C26.7047 20.88 27.3347 19.97 27.3347 18.54C27.3347 16.73 25.9547 15.52 23.8947 15.52C22.0247 15.52 20.7847 16.43 20.3147 18.15C20.0247 19.19 19.5847 19.59 18.7447 19.59C17.8047 19.59 17.2447 19.01 17.2447 18.04C17.2447 17.36 17.3747 16.79 17.6647 16.14C18.6047 13.89 20.9747 12.53 24.0047 12.53C27.9847 12.53 30.7747 14.94 30.7747 18.4C30.7747 20.73 29.6847 22.52 27.4447 23.87C25.6247 24.94 25.1047 25.69 25.1047 27.21C25.1047 28.45 24.5347 29.13 23.4947 29.13H23.4847Z" fill="#1F2024"/>
</svg>
