<svg width="48" height="48" viewBox="0 0 48 48" fill="none" xmlns="http://www.w3.org/2000/svg">
<path d="M23.9951 41.75C22.8451 41.75 21.6751 41.64 20.5351 41.43C17.1351 40.79 13.9951 39.11 11.4551 36.57C8.91509 34.03 7.23509 30.89 6.59509 27.49C5.87509 24.19 6.21509 20.66 7.56509 17.27C9.00509 13.96 11.2751 11.19 14.1551 9.27C17.1151 7.29 20.5451 6.25 24.0751 6.25C28.8051 6.25 33.3651 8.1 36.5951 11.33C39.9351 14.67 41.7751 19.15 41.7751 23.95C41.7751 27.48 40.7351 30.91 38.7551 33.87C36.7651 36.85 33.9251 39.19 30.7551 40.46C28.6051 41.32 26.3351 41.75 23.9951 41.75ZM24.0751 8.85C21.0651 8.85 18.1251 9.74 15.5951 11.43C13.1451 13.07 11.1951 15.43 9.96509 18.27C8.81509 21.16 8.52509 24.16 9.14509 26.98C9.68509 29.88 11.1251 32.57 13.2951 34.74C15.4651 36.91 18.1351 38.34 21.0151 38.88C22.0051 39.07 23.0051 39.16 23.9951 39.16C26.0051 39.16 27.9451 38.79 29.7851 38.05C32.4751 36.97 34.8851 34.98 36.5851 32.44C38.2751 29.91 39.1651 26.97 39.1651 23.96C39.1651 19.86 37.5951 16.03 34.7451 13.18C32.0051 10.43 28.1051 8.86 24.0651 8.86L24.0751 8.85Z" fill="#1F2024"/>
<path d="M23.4651 34.96C22.6051 34.96 21.9251 34.28 21.9251 33.42C21.9251 32.56 22.6051 31.88 23.4651 31.88C24.3251 31.88 25.0051 32.54 25.0051 33.42C25.0051 34.3 24.3251 34.96 23.4651 34.96ZM23.4851 28.63C22.4751 28.63 22.3251 27.77 22.3251 27.26V26.83C22.3251 24.92 23.2051 23.57 25.2751 22.33C27.1151 21.21 27.8251 20.14 27.8251 18.53C27.8251 16.42 26.2451 15.01 23.8851 15.01C21.7651 15.01 20.3551 16.05 19.8151 18.01C19.5651 18.92 19.2651 19.08 18.7251 19.08C18.0551 19.08 17.7251 18.73 17.7251 18.03C17.7251 17.42 17.8351 16.92 18.1051 16.34C18.9651 14.26 21.1651 13.02 23.9951 13.02C27.6851 13.02 30.2651 15.23 30.2651 18.39C30.2651 20.53 29.2551 22.18 27.1751 23.43C25.2251 24.58 24.5951 25.5 24.5951 27.2C24.5951 28.62 23.7551 28.62 23.4851 28.62V28.63Z" fill="#1F2024"/>
</svg>
