<svg width="48" height="48" viewBox="0 0 48 48" fill="none" xmlns="http://www.w3.org/2000/svg">
<path d="M23.9953 41.75C22.8453 41.75 21.6753 41.64 20.5353 41.43C17.1353 40.79 13.9953 39.11 11.4553 36.57C8.91534 34.03 7.23534 30.89 6.59534 27.49C5.87534 24.19 6.21534 20.66 7.56534 17.27C9.00534 13.96 11.2753 11.19 14.1553 9.27C17.1153 7.29 20.5453 6.25 24.0753 6.25C28.8053 6.25 33.3653 8.1 36.5953 11.33C39.9353 14.67 41.7753 19.15 41.7753 23.95C41.7753 27.48 40.7353 30.91 38.7553 33.87C36.7653 36.85 33.9253 39.19 30.7553 40.46C28.6053 41.32 26.3353 41.75 23.9953 41.75ZM24.0753 8.85C21.0653 8.85 18.1253 9.74 15.5953 11.43C13.1453 13.07 11.1953 15.43 9.96534 18.27C8.81534 21.16 8.52534 24.16 9.14534 26.98C9.68534 29.88 11.1253 32.57 13.2953 34.74C15.4653 36.91 18.1353 38.34 21.0153 38.88C22.0053 39.07 23.0053 39.16 23.9953 39.16C26.0053 39.16 27.9453 38.79 29.7853 38.05C32.4753 36.97 34.8853 34.98 36.5853 32.44C38.2753 29.91 39.1653 26.97 39.1653 23.96C39.1653 19.86 37.5953 16.03 34.7453 13.18C32.0053 10.43 28.1053 8.86 24.0653 8.86L24.0753 8.85Z" fill="#1F2024"/>
<path d="M23.4653 34.96C22.6053 34.96 21.9253 34.28 21.9253 33.42C21.9253 32.56 22.6053 31.88 23.4653 31.88C24.3253 31.88 25.0053 32.54 25.0053 33.42C25.0053 34.3 24.3253 34.96 23.4653 34.96ZM23.4853 28.63C22.4753 28.63 22.3253 27.77 22.3253 27.26V26.83C22.3253 24.92 23.2053 23.57 25.2753 22.33C27.1153 21.21 27.8253 20.14 27.8253 18.53C27.8253 16.42 26.2453 15.01 23.8853 15.01C21.7653 15.01 20.3553 16.05 19.8153 18.01C19.5653 18.92 19.2653 19.08 18.7253 19.08C18.0553 19.08 17.7253 18.73 17.7253 18.03C17.7253 17.42 17.8353 16.92 18.1053 16.34C18.9653 14.26 21.1653 13.02 23.9953 13.02C27.6853 13.02 30.2653 15.23 30.2653 18.39C30.2653 20.53 29.2553 22.18 27.1753 23.43C25.2253 24.58 24.5953 25.5 24.5953 27.2C24.5953 28.62 23.7553 28.62 23.4853 28.62V28.63Z" fill="#1F2024"/>
</svg>
