<svg width="48" height="48" viewBox="0 0 48 48" fill="none" xmlns="http://www.w3.org/2000/svg">
<path fill-rule="evenodd" clip-rule="evenodd" d="M20.4737 41.7151C21.6437 41.9351 22.8237 42.0451 23.9937 42.0451V42.0551C26.3537 42.0551 28.6837 41.6051 30.8637 40.7351C34.0937 39.4451 36.9837 37.0651 39.0037 34.0351C41.0137 31.0251 42.0737 27.5351 42.0737 23.9451C42.0737 19.0651 40.0837 14.4051 36.8037 11.1151C33.5237 7.82507 28.8837 5.94507 24.0737 5.94507C20.4837 5.94507 16.9937 7.00507 13.9837 9.01507C11.0637 10.9651 8.75373 13.7651 7.28373 17.1551C5.90373 20.5951 5.57373 24.2051 6.30373 27.5351C6.94373 30.9951 8.64373 34.1951 11.2337 36.7751C13.8237 39.3551 17.0137 41.0651 20.4737 41.7151ZM21.6238 33.4151C21.6238 34.4451 22.4338 35.2551 23.4638 35.2551C24.4938 35.2551 25.3038 34.4651 25.3038 33.4151C25.3038 32.3651 24.4938 31.5751 23.4638 31.5751C22.4338 31.5751 21.6238 32.3851 21.6238 33.4151ZM22.0238 27.2551C22.0238 28.3051 22.5738 28.9251 23.4838 28.9251V28.9351C24.4038 28.9351 24.8938 28.3351 24.8938 27.2151C24.8938 25.6251 25.4638 24.8051 27.3338 23.7051C29.5138 22.3951 30.5738 20.6651 30.5738 18.4051C30.5738 15.0651 27.8738 12.7351 24.0038 12.7351C21.0538 12.7351 18.7538 14.0451 17.8438 16.2251C17.5538 16.8451 17.4338 17.3851 17.4338 18.0351C17.4338 18.8951 17.9038 19.3851 18.7338 19.3851C19.4838 19.3851 19.8438 19.0551 20.1138 18.0951C20.6138 16.2751 21.9238 15.3151 23.8938 15.3151C26.0738 15.3151 27.5338 16.6051 27.5338 18.5351C27.5338 20.0451 26.8738 21.0051 25.1238 22.0751C22.9538 23.3751 22.0238 24.7951 22.0238 26.8251V27.2551Z" fill="#1F2024"/>
</svg>
