<svg width="48" height="48" viewBox="0 0 48 48" fill="none" xmlns="http://www.w3.org/2000/svg">
<path d="M24 6C14.06 6 6 14.06 6 24C6 33.94 14.06 42 24 42C33.94 42 42 33.94 42 24C42 14.06 33.94 6 24 6ZM23.44 34.5C23.07 34.5 22.71 34.39 22.4 34.18C22.09 33.97 21.85 33.68 21.71 33.34C21.57 33 21.53 32.62 21.6 32.26C21.67 31.9 21.85 31.56 22.11 31.3C22.37 31.04 22.71 30.86 23.07 30.79C23.43 30.72 23.81 30.75 24.15 30.9C24.49 31.05 24.79 31.28 24.99 31.59C25.2 31.9 25.31 32.26 25.31 32.63C25.31 33.13 25.11 33.6 24.76 33.96C24.41 34.32 23.93 34.51 23.43 34.51L23.44 34.5ZM26.58 24.94C25.06 25.96 24.85 26.89 24.85 27.75C24.85 28.1 24.71 28.43 24.47 28.68C24.22 28.93 23.89 29.06 23.54 29.06C23.19 29.06 22.86 28.92 22.61 28.68C22.36 28.44 22.23 28.1 22.23 27.75C22.23 25.7 23.18 24.06 25.12 22.76C26.93 21.55 27.95 20.78 27.95 19.09C27.95 17.94 27.29 17.07 25.94 16.42C25.62 16.27 24.91 16.12 24.03 16.13C22.93 16.14 22.08 16.41 21.42 16.93C20.18 17.93 20.07 19.01 20.07 19.03C20.07 19.2 20.02 19.37 19.95 19.53C19.88 19.69 19.77 19.83 19.65 19.94C19.52 20.06 19.37 20.14 19.21 20.2C19.05 20.26 18.88 20.28 18.7 20.28C18.53 20.28 18.36 20.23 18.2 20.16C18.04 20.09 17.9 19.98 17.79 19.86C17.67 19.73 17.58 19.58 17.53 19.42C17.47 19.26 17.45 19.09 17.45 18.91C17.46 18.68 17.62 16.63 19.77 14.9C20.89 14 22.31 13.54 23.99 13.51C25.18 13.5 26.3 13.7 27.06 14.06C29.33 15.13 30.58 16.92 30.58 19.09C30.58 22.26 28.46 23.69 26.59 24.94H26.58Z" fill="#1F2024"/>
</svg>
