<svg width="48" height="48" viewBox="0 0 48 48" fill="none" xmlns="http://www.w3.org/2000/svg">
<path d="M24.0699 42.1C22.8999 42.1 21.7199 41.99 20.5499 41.77C17.0899 41.12 13.8999 39.41 11.3099 36.83C8.7199 34.25 7.0199 31.05 6.3799 27.59C5.6499 24.26 5.9799 20.65 7.3599 17.21C8.8299 13.82 11.1399 11.02 14.0599 9.07C17.0699 7.06 20.5599 6 24.1499 6C28.9599 6 33.5999 7.88 36.8799 11.17C40.1599 14.46 42.1499 19.12 42.1499 24C42.1499 27.59 41.0899 31.08 39.0799 34.09C37.0599 37.12 34.1699 39.5 30.9399 40.79C28.7599 41.66 26.4299 42.11 24.0699 42.11V42.1ZM24.1499 9.2C21.1999 9.2 18.3199 10.08 15.8399 11.73C13.4299 13.33 11.5299 15.65 10.3199 18.44C9.1999 21.25 8.9099 24.21 9.5099 26.96C10.0499 29.83 11.4499 32.44 13.5799 34.57C15.7099 36.7 18.3199 38.1 21.1399 38.63C24.0699 39.18 27.0499 38.9 29.7499 37.82C32.3799 36.77 34.7499 34.81 36.4099 32.32C38.0699 29.84 38.9399 26.96 38.9399 24.01C38.9399 19.99 37.3999 16.23 34.6099 13.44C31.8199 10.65 28.1099 9.21 24.1399 9.21L24.1499 9.2Z" fill="#1F2024"/>
<path d="M23.5399 35.31C22.5099 35.31 21.6999 34.5 21.6999 33.47C21.6999 32.44 22.5099 31.63 23.5399 31.63C24.5699 31.63 25.3799 32.42 25.3799 33.47C25.3799 34.52 24.5699 35.31 23.5399 35.31ZM23.5599 28.98C22.6499 28.98 22.0999 28.36 22.0999 27.31V26.88C22.0999 24.85 23.0299 23.43 25.1999 22.13C26.9499 21.06 27.6099 20.1 27.6099 18.59C27.6099 16.66 26.1499 15.37 23.9699 15.37C21.9999 15.37 20.6899 16.33 20.1899 18.15C19.9199 19.11 19.5599 19.44 18.8099 19.44C17.9799 19.44 17.5099 18.95 17.5099 18.09C17.5099 17.44 17.6299 16.9 17.9199 16.28C18.8299 14.1 21.1299 12.79 24.0799 12.79C27.9499 12.79 30.6499 15.12 30.6499 18.46C30.6499 20.72 29.5899 22.45 27.4099 23.76C25.5399 24.86 24.9699 25.68 24.9699 27.27C24.9699 28.39 24.4799 28.99 23.5599 28.99V28.98Z" fill="#1F2024"/>
</svg>
