<svg width="48" height="48" viewBox="0 0 48 48" fill="none" xmlns="http://www.w3.org/2000/svg">
<path d="M5.24835 21.1524L21.9483 5.17241C23.1483 4.07241 24.9483 4.07241 26.0483 5.17241L42.7484 21.1524C44.2484 22.5524 43.2484 25.0524 41.2484 25.0524V40.6524C41.2484 42.3124 39.9084 43.6524 38.2484 43.6524H27.8083C26.8983 43.6524 26.1583 42.9124 26.1583 42.0024V33.0424C26.1583 32.2724 25.5383 31.6524 24.7683 31.6524H23.0983C22.4083 31.6524 21.8483 32.2124 21.8483 32.9024V42.0024C21.8483 42.9124 21.1083 43.6524 20.1983 43.6524H9.84835C8.18835 43.6524 6.84835 42.3124 6.84835 40.6524V25.0524C4.74835 25.0524 3.74835 22.5524 5.24835 21.1524V21.1524Z" fill="#1F2024"/>
</svg>
