<svg width="48" height="48" viewBox="0 0 48 48" fill="none" xmlns="http://www.w3.org/2000/svg">
<path d="M43.5771 21.8699L26.1471 5.25989C25.6271 4.70989 24.8471 4.39989 23.9971 4.38989C23.1471 4.38989 22.3671 4.69989 21.9071 5.19989L4.41709 21.8699C3.76709 22.4899 3.73709 23.5299 4.36709 24.1799C4.98709 24.8399 6.02709 24.8599 6.67709 24.2399L6.74709 24.1699V40.5599C6.74709 41.3599 7.07709 42.1499 7.64709 42.7199C8.22709 43.2999 8.98709 43.6099 9.80709 43.6099H20.2171C21.1171 43.6099 21.8571 42.8799 21.8571 41.9699V32.7499C21.8571 32.0899 22.3971 31.5499 23.0571 31.5499H24.9471C25.6071 31.5499 26.1471 32.0899 26.1471 32.7499V41.9699C26.1471 42.8699 26.8771 43.6099 27.7871 43.6099H38.1971C38.9971 43.6099 39.7871 43.2799 40.3571 42.7199C40.9371 42.1399 41.2571 41.3799 41.2571 40.5599V24.1699L41.3271 24.2399C41.6471 24.5399 42.0471 24.6899 42.4571 24.6899C42.8871 24.6899 43.3171 24.5199 43.6371 24.1799C44.2571 23.5299 44.2371 22.4899 43.5871 21.8699H43.5771ZM37.9671 40.3399H29.4171V32.7499C29.4171 30.2799 27.4071 28.2699 24.9371 28.2699H23.0471C20.5771 28.2699 18.5671 30.2799 18.5671 32.7499V40.3399H10.0171V21.0499L23.9971 7.71989L37.9771 21.0499V40.3399H37.9671Z" fill="#1F2024"/>
</svg>
