<svg width="48" height="48" viewBox="0 0 48 48" fill="none" xmlns="http://www.w3.org/2000/svg">
<path d="M43.6701 22.48L26.2401 5.87C25.7201 5.32 24.9401 5.01 24.0901 5C23.2401 5 22.4601 5.31 22.0001 5.81L4.51011 22.48C3.86011 23.1 3.83011 24.14 4.46011 24.79C5.08011 25.45 6.12011 25.47 6.77011 24.85L6.84011 24.78V41.17C6.84011 41.97 7.17011 42.76 7.74011 43.33C8.32011 43.91 9.08011 44.22 9.90011 44.22H20.3101C21.2101 44.22 21.9501 43.49 21.9501 42.58V33.36C21.9501 32.7 22.4901 32.16 23.1501 32.16H25.0401C25.7001 32.16 26.2401 32.7 26.2401 33.36V42.58C26.2401 43.48 26.9701 44.22 27.8801 44.22H38.2901C39.0901 44.22 39.8801 43.89 40.4501 43.33C41.0301 42.75 41.3501 41.99 41.3501 41.17V24.78L41.4201 24.85C41.7401 25.15 42.1401 25.3 42.5501 25.3C42.9801 25.3 43.4101 25.13 43.7301 24.79C44.3501 24.14 44.3301 23.1 43.6801 22.48H43.6701ZM38.0601 40.95H29.5101V33.36C29.5101 30.89 27.5001 28.88 25.0301 28.88H23.1401C20.6701 28.88 18.6601 30.89 18.6601 33.36V40.95H10.1101V21.66L24.0901 8.33L38.0701 21.66V40.95H38.0601Z" fill="#1F2024"/>
</svg>
