<svg width="48" height="48" viewBox="0 0 48 48" fill="none" xmlns="http://www.w3.org/2000/svg">
<path d="M5.24817 21.1525L21.9482 5.1725C23.1482 4.0725 24.9482 4.0725 26.0482 5.1725L42.7482 21.1525C44.2482 22.5525 43.2482 25.0525 41.2482 25.0525V40.6525C41.2482 42.3125 39.9082 43.6525 38.2482 43.6525H27.8082C26.8982 43.6525 26.1582 42.9125 26.1582 42.0025V33.0425C26.1582 32.2725 25.5382 31.6525 24.7682 31.6525H23.0982C22.4082 31.6525 21.8482 32.2125 21.8482 32.9025V42.0025C21.8482 42.9125 21.1082 43.6525 20.1982 43.6525H9.84817C8.18817 43.6525 6.84817 42.3125 6.84817 40.6525V25.0525C4.74817 25.0525 3.74817 22.5525 5.24817 21.1525V21.1525Z" fill="#1F2024"/>
</svg>
