<svg width="48" height="48" viewBox="0 0 48 48" fill="none" xmlns="http://www.w3.org/2000/svg">
<path d="M43.7301 21.75L26.3301 5.15C25.8301 4.55 24.9301 4.25 24.0301 4.25C23.1301 4.25 22.3301 4.55 21.7301 5.15L4.33011 21.75C3.63011 22.45 3.53011 23.65 4.23011 24.35C4.83011 25.05 5.93011 25.05 6.63011 24.55V40.55C6.63011 41.55 7.03011 42.15 7.33011 42.55C7.43011 42.65 7.43011 42.75 7.53011 42.85C8.13011 43.45 8.93011 43.75 9.83011 43.75H20.2301C21.2301 43.75 22.0301 42.95 22.0301 41.95V32.75C22.0301 32.15 22.5301 31.75 23.0301 31.75H24.9301C25.5301 31.75 25.9301 32.25 25.9301 32.75V41.95C25.9301 42.95 26.7301 43.75 27.7301 43.75H38.1301C39.0301 43.75 39.8301 43.45 40.4301 42.85C41.0301 42.25 41.3301 41.45 41.3301 40.55V24.55C41.6301 24.75 42.0301 24.85 42.4301 24.85C42.9301 24.85 43.4301 24.65 43.7301 24.25C44.4301 23.55 44.4301 22.45 43.7301 21.75ZM29.5301 40.15V32.75C29.5301 30.15 27.4301 28.15 24.9301 28.15H23.0301C20.4301 28.15 18.4301 30.25 18.4301 32.75V40.15H10.3301V21.15L24.0301 8.05L37.7301 21.15V40.15H29.5301V40.15Z" fill="#1F2024"/>
</svg>
