<svg width="48" height="48" viewBox="0 0 48 48" fill="none" xmlns="http://www.w3.org/2000/svg">
<path d="M43.5768 21.87L26.1468 5.26C25.6268 4.71 24.8468 4.4 23.9968 4.39C23.1468 4.39 22.3668 4.7 21.9068 5.2L4.41685 21.87C3.76685 22.49 3.73685 23.53 4.36685 24.18C4.98685 24.84 6.02685 24.86 6.67685 24.24L6.74685 24.17V40.56C6.74685 41.36 7.07685 42.15 7.64685 42.72C8.22685 43.3 8.98685 43.61 9.80685 43.61H20.2168C21.1168 43.61 21.8568 42.88 21.8568 41.97V32.75C21.8568 32.09 22.3968 31.55 23.0568 31.55H24.9468C25.6068 31.55 26.1468 32.09 26.1468 32.75V41.97C26.1468 42.87 26.8768 43.61 27.7868 43.61H38.1968C38.9968 43.61 39.7868 43.28 40.3568 42.72C40.9368 42.14 41.2568 41.38 41.2568 40.56V24.17L41.3268 24.24C41.6468 24.54 42.0468 24.69 42.4568 24.69C42.8868 24.69 43.3168 24.52 43.6368 24.18C44.2568 23.53 44.2368 22.49 43.5868 21.87H43.5768ZM37.9668 40.34H29.4168V32.75C29.4168 30.28 27.4068 28.27 24.9368 28.27H23.0468C20.5768 28.27 18.5668 30.28 18.5668 32.75V40.34H10.0168V21.05L23.9968 7.72L37.9768 21.05V40.34H37.9668Z" fill="#1F2024"/>
</svg>
