<svg width="48" height="48" viewBox="0 0 48 48" fill="none" xmlns="http://www.w3.org/2000/svg">
<path d="M43.577 21.87L26.147 5.26C25.627 4.71 24.847 4.4 23.997 4.39C23.147 4.39 22.367 4.7 21.907 5.2L4.41697 21.87C3.76697 22.49 3.73697 23.53 4.36697 24.18C4.98697 24.84 6.02697 24.86 6.67697 24.24L6.74697 24.17V40.56C6.74697 41.36 7.07697 42.15 7.64697 42.72C8.22697 43.3 8.98697 43.61 9.80697 43.61H20.217C21.117 43.61 21.857 42.88 21.857 41.97V32.75C21.857 32.09 22.397 31.55 23.057 31.55H24.947C25.607 31.55 26.147 32.09 26.147 32.75V41.97C26.147 42.87 26.877 43.61 27.787 43.61H38.197C38.997 43.61 39.787 43.28 40.357 42.72C40.937 42.14 41.257 41.38 41.257 40.56V24.17L41.327 24.24C41.647 24.54 42.047 24.69 42.457 24.69C42.887 24.69 43.317 24.52 43.637 24.18C44.257 23.53 44.237 22.49 43.587 21.87H43.577ZM37.967 40.34H29.417V32.75C29.417 30.28 27.407 28.27 24.937 28.27H23.047C20.577 28.27 18.567 30.28 18.567 32.75V40.34H10.017V21.05L23.997 7.72L37.977 21.05V40.34H37.967Z" fill="#1F2024"/>
</svg>
