<svg width="48" height="48" viewBox="0 0 48 48" fill="none" xmlns="http://www.w3.org/2000/svg">
<path d="M5.71856 21.805L22.4186 5.825C23.6186 4.725 25.4186 4.725 26.5186 5.825L43.2186 21.805C44.7186 23.205 43.7186 25.705 41.7186 25.705V41.305C41.7186 42.965 40.3786 44.305 38.7186 44.305H28.2786C27.3686 44.305 26.6286 43.565 26.6286 42.655V33.695C26.6286 32.925 26.0086 32.305 25.2386 32.305H23.5686C22.8786 32.305 22.3186 32.865 22.3186 33.555V42.655C22.3186 43.565 21.5786 44.305 20.6686 44.305H10.3186C8.65856 44.305 7.31856 42.965 7.31856 41.305V25.705C5.21856 25.705 4.21856 23.205 5.71856 21.805Z" fill="#1F2024"/>
</svg>
