<svg width="48" height="48" viewBox="0 0 48 48" fill="none" xmlns="http://www.w3.org/2000/svg">
<path d="M6.61501 24.1L7.21501 23.5V40.6C7.21501 41.4 7.61501 41.9999 7.81501 42.2999C7.81501 42.3999 7.91501 42.4 8.01501 42.5C8.51501 43 9.21501 43.2999 9.91501 43.2999H20.315C21.015 43.2999 21.615 42.7 21.615 42V32.8C21.615 32 22.315 31.3 23.115 31.3H25.015C25.815 31.3 26.515 32 26.515 32.8V42C26.515 42.7 27.115 43.2999 27.815 43.2999H38.215C39.015 43.2999 39.615 43 40.115 42.5C40.615 42 40.915 41.3 40.915 40.6V23.5L41.515 24.1C41.815 24.3 42.115 24.5 42.415 24.5C42.815 24.5 43.115 24.4 43.415 24.1C43.915 23.6 43.915 22.7 43.415 22.2L25.915 5.49995C25.515 4.99995 24.815 4.69995 24.015 4.69995C23.215 4.69995 22.515 4.99995 22.115 5.49995L4.61501 22.2C4.11501 22.7 4.01501 23.6 4.61501 24.1C5.21501 24.6 6.11501 24.6 6.61501 24.1ZM24.115 7.39995C24.115 7.39995 24.215 7.39995 24.115 7.39995C24.1817 7.39995 24.1817 7.39995 24.115 7.39995L38.315 20.9L38.215 40.7H29.115V32.8C29.115 30.5 27.215 28.7 25.015 28.7H23.115C20.815 28.7 19.015 30.6 19.015 32.8V40.7H9.91501V20.9L24.115 7.39995Z" fill="#1F2024"/>
</svg>
