<svg width="49" height="48" viewBox="0 0 49 48" fill="none" xmlns="http://www.w3.org/2000/svg">
<path d="M39.8941 6H9.89414C6.50414 6 3.74414 8.76 3.74414 12.15V36.15C3.74414 39.54 6.50414 42.3 9.89414 42.3H39.8941C43.2841 42.3 46.0441 39.54 46.0441 36.15V12.15C46.0441 8.76 43.2841 6 39.8941 6ZM9.89414 9.3H39.8941C41.4641 9.3 42.7441 10.58 42.7441 12.15V31.13L38.5541 27.63C37.6641 26.89 36.5141 26.52 35.3641 26.56C34.2041 26.61 33.1141 27.1 32.2841 27.92L30.1241 30.08L22.0141 22.94C21.1741 22.12 20.0741 21.65 18.9041 21.62C17.6941 21.6 16.5741 22 15.7441 22.74L7.04414 29.71V12.15C7.04414 10.58 8.32414 9.3 9.89414 9.3ZM7.04414 36.15V33.94L17.8741 25.26C18.1341 25.03 18.4541 24.89 18.8141 24.92C19.1541 24.92 19.4841 25.07 19.7241 25.31C19.7541 25.33 19.7741 25.36 19.8041 25.38L27.7941 32.41L21.2141 38.99H9.89414C8.32414 38.99 7.04414 37.71 7.04414 36.14V36.15ZM39.8941 39H25.8741L34.6241 30.25C34.8641 30.01 35.1841 29.87 35.5141 29.85C35.8541 29.83 36.1841 29.94 36.4441 30.16L42.7441 35.42V36.15C42.7441 37.72 41.4641 39 39.8941 39Z" fill="#1F2024"/>
<path d="M32.394 21.15C34.874 21.15 36.894 19.13 36.894 16.65C36.894 14.17 34.874 12.15 32.394 12.15C29.914 12.15 27.894 14.17 27.894 16.65C27.894 19.13 29.914 21.15 32.394 21.15ZM32.394 15.15C33.224 15.15 33.894 15.82 33.894 16.65C33.894 17.48 33.224 18.15 32.394 18.15C31.564 18.15 30.894 17.48 30.894 16.65C30.894 15.82 31.564 15.15 32.394 15.15Z" fill="#1F2024"/>
</svg>
