<svg width="48" height="48" viewBox="0 0 48 48" fill="none" xmlns="http://www.w3.org/2000/svg">
<path d="M35.3928 6.68709H12.6167C7.75951 6.68709 3.8064 10.6402 3.8064 15.4974V32.5026C3.8064 37.3598 7.75951 41.3129 12.6167 41.3129H35.3832C40.2405 41.3129 44.1936 37.3598 44.1936 32.5026V15.4974C44.1936 10.6402 40.2405 6.68709 35.3832 6.68709H35.3928ZM31.2185 13.4199C33.6423 13.4199 35.5467 15.3243 35.5467 17.7481C35.5467 20.1719 33.6423 22.0763 31.2185 22.0763C28.7947 22.0763 26.8903 20.1719 26.8903 17.7481C26.8903 15.3243 28.7947 13.4199 31.2185 13.4199V13.4199ZM18.9167 38.4274H12.6167C9.34653 38.4274 6.69188 35.7728 6.69188 32.5026V31.4349L14.7616 25.0292C16.666 23.5191 19.388 23.5672 21.2443 25.1446L27.1692 30.1942C23.4854 33.6664 19.3399 37.6868 19.2918 37.7445C19.0899 37.9369 18.9841 38.1774 18.9263 38.4274H18.9167ZM35.3928 38.4274H22.7256C25.082 36.1575 29.795 31.6177 32.5651 29.1265C33.6327 28.1647 35.2293 28.0204 36.4412 28.7899C38.4996 30.0884 40.9907 32.5026 41.0195 32.5218C41.1061 32.6084 41.2119 32.6565 41.3081 32.7142C41.1927 35.8882 38.5861 38.4274 35.3928 38.4274V38.4274Z" fill="#1F2024"/>
</svg>
