<svg width="48" height="48" viewBox="0 0 48 48" fill="none" xmlns="http://www.w3.org/2000/svg">
<path d="M35.8449 6H12.1649C7.11488 6 3.00488 10.11 3.00488 15.16V32.84C3.00488 32.84 3.00488 32.94 3.00488 32.98C3.00488 33.05 3.00488 33.12 3.01488 33.19C3.20488 38.08 7.22488 42 12.1649 42H35.8349C40.8849 42 44.9949 37.89 44.9949 32.84V15.16C44.9949 10.11 40.8849 6 35.8349 6H35.8449ZM35.8349 9C39.2349 9 41.9949 11.76 41.9949 15.16V31.09C40.9949 30.23 39.7149 29.19 38.5149 28.44C36.1249 26.93 32.9749 27.21 30.8749 29.11C30.4449 29.5 29.9749 29.93 29.4849 30.38C29.4849 30.38 29.4749 30.37 29.4649 30.36L23.0749 24.9C20.0649 22.33 15.6249 22.25 12.5249 24.71L5.99488 29.89V15.16C5.99488 11.76 8.75488 9 12.1549 9H35.8349ZM6.06488 33.67L14.3949 27.06C16.3749 25.49 19.2049 25.54 21.1349 27.18L27.2849 32.43C24.4349 35.11 21.4749 37.95 20.3949 39H12.1649C9.05488 39 6.47488 36.68 6.06488 33.67ZM35.8349 39H24.7149C27.0849 36.73 30.5149 33.47 32.8849 31.33C33.9949 30.33 35.6549 30.18 36.9149 30.98C38.9549 32.27 41.4049 34.61 41.6449 34.84C40.8149 37.26 38.5149 39 35.8249 39H35.8349Z" fill="#1F2024"/>
<path d="M31.5049 22C34.0249 22 36.0049 20.02 36.0049 17.5C36.0049 14.98 34.0249 13 31.5049 13C28.9849 13 27.0049 14.98 27.0049 17.5C27.0049 20.02 28.9849 22 31.5049 22ZM31.5049 16C32.3749 16 33.0049 16.63 33.0049 17.5C33.0049 18.37 32.3749 19 31.5049 19C30.6349 19 30.0049 18.37 30.0049 17.5C30.0049 16.63 30.6349 16 31.5049 16Z" fill="#1F2024"/>
</svg>
