<svg width="48" height="48" viewBox="0 0 48 48" fill="none" xmlns="http://www.w3.org/2000/svg">
<path d="M39.15 6H9.15C5.76 6 3 8.76 3 12.15V36.15C3 39.54 5.76 42.3 9.15 42.3H39.15C42.54 42.3 45.3 39.54 45.3 36.15V12.15C45.3 8.76 42.54 6 39.15 6ZM9.15 9.3H39.15C40.72 9.3 42 10.58 42 12.15V31.13L37.81 27.63C36.92 26.89 35.77 26.52 34.62 26.56C33.46 26.61 32.37 27.1 31.54 27.92L29.38 30.08L21.27 22.94C20.43 22.12 19.33 21.65 18.16 21.62C16.95 21.6 15.83 22 15 22.74L6.3 29.71V12.15C6.3 10.58 7.58 9.3 9.15 9.3ZM6.3 36.15V33.94L17.13 25.26C17.39 25.03 17.71 24.89 18.07 24.92C18.41 24.92 18.74 25.07 18.98 25.31C19.01 25.33 19.03 25.36 19.06 25.38L27.05 32.41L20.47 38.99H9.15C7.58 38.99 6.3 37.71 6.3 36.14V36.15ZM39.15 39H25.13L33.88 30.25C34.12 30.01 34.44 29.87 34.77 29.85C35.11 29.83 35.44 29.94 35.7 30.16L42 35.42V36.15C42 37.72 40.72 39 39.15 39Z" fill="#1F2024"/>
<path d="M31.6499 21.15C34.1299 21.15 36.1499 19.13 36.1499 16.65C36.1499 14.17 34.1299 12.15 31.6499 12.15C29.1699 12.15 27.1499 14.17 27.1499 16.65C27.1499 19.13 29.1699 21.15 31.6499 21.15ZM31.6499 15.15C32.4799 15.15 33.1499 15.82 33.1499 16.65C33.1499 17.48 32.4799 18.15 31.6499 18.15C30.8199 18.15 30.1499 17.48 30.1499 16.65C30.1499 15.82 30.8199 15.15 31.6499 15.15Z" fill="#1F2024"/>
</svg>
