<svg width="49" height="48" viewBox="0 0 49 48" fill="none" xmlns="http://www.w3.org/2000/svg">
<path d="M9.74404 41.8499H39.744C42.974 41.8499 45.594 39.2299 45.594 35.9999V11.9999C45.594 8.7699 42.974 6.1499 39.744 6.1499H9.74404C6.51404 6.1499 3.89404 8.7699 3.89404 11.9999V35.9999C3.89404 39.2299 6.51404 41.8499 9.74404 41.8499ZM6.59404 35.9999V33.6499L17.484 24.9599C17.484 24.9599 17.564 24.8899 17.594 24.8599C17.834 24.6199 18.124 24.4499 18.734 24.4499C19.034 24.4499 19.504 24.6799 19.844 25.0099L28.064 32.2599L21.174 39.1499H9.74404C7.97404 39.1499 6.59404 37.7699 6.59404 35.9999ZM25.004 39.1499L34.304 29.8499C34.564 29.5899 34.954 29.4199 35.434 29.3499C35.884 29.3599 36.204 29.4599 36.394 29.6499C36.424 29.6799 36.454 29.6999 36.484 29.7299L42.904 35.1299V35.9999C42.904 37.7699 41.524 39.1499 39.754 39.1499H25.004ZM9.74404 8.8499H39.744C41.514 8.8499 42.894 10.2299 42.894 11.9999V31.5999L38.254 27.6999C37.534 26.9999 36.554 26.6499 35.344 26.6499C35.284 26.6499 35.234 26.6499 35.174 26.6499C34.054 26.7899 33.084 27.2299 32.384 27.9399L29.974 30.3499L21.694 23.0399C20.904 22.2499 19.744 21.7499 18.734 21.7499C17.514 21.7499 16.534 22.1199 15.734 22.8899L6.59404 30.1999V11.9999C6.59404 10.2299 7.97404 8.8499 9.74404 8.8499Z" fill="#1F2024"/>
<path d="M32.244 20.6999C34.604 20.6999 36.444 18.8599 36.444 16.4999C36.444 14.1399 34.604 12.2999 32.244 12.2999C29.884 12.2999 28.044 14.1399 28.044 16.4999C28.044 18.8599 29.884 20.6999 32.244 20.6999ZM32.244 14.6999C33.284 14.6999 34.044 15.4599 34.044 16.4999C34.044 17.5399 33.284 18.2999 32.244 18.2999C31.204 18.2999 30.444 17.5399 30.444 16.4999C30.444 15.4599 31.204 14.6999 32.244 14.6999Z" fill="#1F2024"/>
</svg>
