<svg width="48" height="48" viewBox="0 0 48 48" fill="none" xmlns="http://www.w3.org/2000/svg">
<path d="M35.3928 6.68707H12.6167C7.75951 6.68707 3.8064 10.6402 3.8064 15.4974V32.5026C3.8064 32.5026 3.8064 32.5987 3.8064 32.6372C3.8064 32.7045 3.8064 32.7719 3.81601 32.8392C3.99876 37.5425 7.86531 41.3129 12.6167 41.3129H35.3832C40.2405 41.3129 44.1936 37.3598 44.1936 32.5026V15.4974C44.1936 10.6402 40.2405 6.68707 35.3832 6.68707H35.3928ZM35.3832 9.57256C38.6534 9.57256 41.3081 12.2272 41.3081 15.4974V30.8194C40.3463 29.9922 39.1151 28.9919 37.9609 28.2705C35.6622 26.8181 32.6324 27.0875 30.6126 28.9149C30.199 29.29 29.7469 29.7036 29.2756 30.1365C29.2756 30.1365 29.266 30.1268 29.2564 30.1172L23.1103 24.8656C20.2152 22.3937 15.9447 22.3168 12.963 24.6829L6.68226 29.6652V15.4974C6.68226 12.2272 9.33691 9.57256 12.6071 9.57256H35.3832ZM6.74959 33.3009L14.7616 26.9432C16.666 25.4331 19.388 25.4812 21.2443 27.0586L27.1596 32.1082C24.4184 34.6859 21.5714 37.4175 20.5326 38.4274H12.6167C9.62546 38.4274 7.14394 36.196 6.74959 33.3009ZM35.3832 38.4274H24.6877C26.9672 36.2441 30.2663 33.1085 32.5458 31.0502C33.6135 30.0884 35.2101 29.9441 36.422 30.7135C38.3841 31.9543 40.7406 34.205 40.9715 34.4262C40.1731 36.7538 37.9609 38.4274 35.3736 38.4274H35.3832Z" fill="#1F2024"/>
<path d="M31.2185 22.0763C33.6423 22.0763 35.5467 20.1719 35.5467 17.7481C35.5467 15.3243 33.6423 13.4199 31.2185 13.4199C28.7947 13.4199 26.8903 15.3243 26.8903 17.7481C26.8903 20.1719 28.7947 22.0763 31.2185 22.0763ZM31.2185 16.3054C32.0553 16.3054 32.6613 16.9113 32.6613 17.7481C32.6613 18.5849 32.0553 19.1908 31.2185 19.1908C30.3817 19.1908 29.7758 18.5849 29.7758 17.7481C29.7758 16.9113 30.3817 16.3054 31.2185 16.3054Z" fill="#1F2024"/>
</svg>
