<svg width="49" height="48" viewBox="0 0 49 48" fill="none" xmlns="http://www.w3.org/2000/svg">
<path d="M39.744 5.6499H9.74404C6.24404 5.6499 3.39404 8.4999 3.39404 11.9999V35.9999C3.39404 39.4999 6.24404 42.3499 9.74404 42.3499H39.744C43.244 42.3499 46.094 39.4999 46.094 35.9999V11.9999C46.094 8.4999 43.244 5.6499 39.744 5.6499ZM9.74404 9.3499H39.744C41.234 9.3499 42.394 10.5099 42.394 11.9999V30.5299L38.584 27.3299C38.004 26.7799 36.984 26.1499 35.344 26.1499C35.264 26.1499 35.194 26.1499 35.114 26.1599C33.884 26.3099 32.814 26.8099 32.034 27.5899L29.964 29.6599L22.004 22.6399C21.114 21.7799 19.874 21.2399 18.744 21.2399C17.414 21.2399 16.294 21.6599 15.414 22.4999L7.09404 29.1599V11.9999C7.09404 10.5099 8.25404 9.3499 9.74404 9.3499ZM7.09404 35.9999V33.8899L17.804 25.3499C17.854 25.3099 17.914 25.2599 17.964 25.2099C18.104 25.0699 18.264 24.9499 18.754 24.9499C18.874 24.9499 19.224 25.0899 19.444 25.3099C19.474 25.3399 19.504 25.3599 19.524 25.3899L27.344 32.2899L20.984 38.6499H9.74404C8.25404 38.6499 7.09404 37.4899 7.09404 35.9999ZM39.744 38.6499H26.214L34.654 30.2099C34.824 30.0399 35.114 29.9099 35.464 29.8499C35.744 29.8599 35.954 29.9199 36.044 30.0099C36.084 30.0499 36.124 30.0799 36.164 30.1199L42.404 35.3699V36.0099C42.404 37.4999 41.244 38.6599 39.754 38.6599L39.744 38.6499Z" fill="#1F2024"/>
<path d="M32.244 21.0499C34.794 21.0499 36.794 19.0499 36.794 16.4999C36.794 13.9499 34.794 11.9499 32.244 11.9499C29.694 11.9499 27.694 13.9499 27.694 16.4999C27.694 19.0499 29.694 21.0499 32.244 21.0499ZM32.244 15.0499C33.084 15.0499 33.694 15.6599 33.694 16.4999C33.694 17.3399 33.084 17.9499 32.244 17.9499C31.404 17.9499 30.794 17.3399 30.794 16.4999C30.794 15.6599 31.404 15.0499 32.244 15.0499Z" fill="#1F2024"/>
</svg>
