<svg width="48" height="48" viewBox="0 0 48 48" fill="none" xmlns="http://www.w3.org/2000/svg">
<path d="M35.3929 6.78326H12.6168C7.81723 6.78326 3.90259 10.6979 3.90259 15.4974V32.5026C3.90259 37.3117 7.81723 41.2167 12.6168 41.2167H35.3832C40.1924 41.2167 44.0974 37.3021 44.0974 32.5026V15.4974C44.0974 10.6883 40.1828 6.78326 35.3832 6.78326H35.3929ZM12.6168 9.47638H35.3832C38.7015 9.47638 41.4043 12.1791 41.4043 15.4974V31.031C40.4328 30.1749 39.1344 29.1169 37.9128 28.3475C35.6429 26.924 32.6709 27.1836 30.6799 28.9823C30.2375 29.3766 29.7662 29.8191 29.266 30.2807C29.2372 30.2519 29.2275 30.223 29.1987 30.1942L23.0526 24.9426C20.1863 22.4995 15.9735 22.4226 13.0303 24.7598L6.59571 29.8671V15.4974C6.59571 12.1791 9.29845 9.47638 12.6168 9.47638ZM6.65342 33.2624L14.7135 26.8662C16.6564 25.3273 19.4265 25.3754 21.3117 26.9817L27.3135 32.0986C24.5242 34.7148 21.6099 37.5233 20.5807 38.514H12.6168C9.55814 38.514 7.02853 36.2152 6.6438 33.2528L6.65342 33.2624ZM35.3929 38.5236H24.2934C26.5633 36.4172 30.0932 33.147 32.4977 30.9829C33.5942 29.9922 35.239 29.8479 36.4893 30.6366C38.5573 31.9351 41.058 34.3589 41.0773 34.3781C41.0773 34.3781 41.0965 34.3781 41.0965 34.3974C40.2982 36.7923 38.0379 38.5332 35.3832 38.5332L35.3929 38.5236Z" fill="#1F2024"/>
<path d="M31.2185 21.884C33.5365 21.884 35.3544 20.0661 35.3544 17.7481C35.3544 15.4301 33.5365 13.6122 31.2185 13.6122C28.9005 13.6122 27.0827 15.4301 27.0827 17.7481C27.0827 20.0661 28.9005 21.884 31.2185 21.884ZM31.2185 16.113C32.1707 16.113 32.8536 16.7959 32.8536 17.7481C32.8536 18.7003 32.1707 19.3832 31.2185 19.3832C30.2663 19.3832 29.5834 18.7003 29.5834 17.7481C29.5834 16.7959 30.2663 16.113 31.2185 16.113Z" fill="#1F2024"/>
</svg>
