<svg width="49" height="48" viewBox="0 0 49 48" fill="none" xmlns="http://www.w3.org/2000/svg">
<path d="M39.7441 6H9.74414C8.15414 6 6.62414 6.63 5.50414 7.76C4.38414 8.89 3.74414 10.41 3.74414 12V36C3.74414 37.59 4.37414 39.12 5.50414 40.24C6.63414 41.36 8.15414 42 9.74414 42H39.7441C41.3341 42 42.8641 41.37 43.9841 40.24C45.1041 39.11 45.7441 37.59 45.7441 36V12C45.7441 10.41 45.1141 8.88 43.9841 7.76C42.8541 6.64 41.3341 6 39.7441 6ZM32.2441 12C33.1341 12 34.0041 12.26 34.7441 12.76C35.4841 13.25 36.0641 13.96 36.4041 14.78C36.7441 15.6 36.8341 16.51 36.6641 17.38C36.4941 18.25 36.0641 19.05 35.4341 19.68C34.8041 20.31 34.0041 20.74 33.1341 20.91C32.2641 21.08 31.3541 20.99 30.5341 20.65C29.7141 20.31 29.0041 19.73 28.5141 18.99C28.0241 18.25 27.7541 17.38 27.7541 16.49C27.7541 15.3 28.2341 14.15 29.0741 13.31C29.9141 12.47 31.0641 11.99 32.2541 11.99L32.2441 12ZM9.74414 39C8.94414 39 8.18414 38.68 7.62414 38.12C7.06414 37.56 6.74414 36.8 6.74414 36V30.66L15.2441 21.93C16.2441 21 17.6041 20.59 18.7541 20.62C19.9041 20.65 20.9941 21.12 21.8041 21.93L27.8941 28.01L16.9041 39H9.74414ZM42.7441 36C42.7441 36.8 42.4241 37.56 41.8641 38.12C41.3041 38.68 40.5441 39 39.7441 39H21.1441L32.5241 27.62C33.3341 26.93 34.3541 26.56 35.4141 26.55C36.4741 26.55 37.4941 26.92 38.3041 27.6L42.7341 31.3V36H42.7441Z" fill="#1F2024"/>
</svg>
