<svg width="48" height="48" viewBox="0 0 48 48" fill="none" xmlns="http://www.w3.org/2000/svg">
<path d="M12.1571 42.285C7.0671 42.285 2.9171 38.295 2.7271 33.205C2.7271 33.145 2.7171 33.065 2.7271 32.975V15.165C2.7071 9.955 6.9471 5.715 12.1571 5.715H35.8271C41.0371 5.715 45.2771 9.955 45.2771 15.165V32.835C45.2771 38.045 41.0371 42.285 35.8271 42.285H12.1571ZM35.8271 38.715C38.2671 38.715 40.4571 37.195 41.3271 34.915C40.7371 34.355 38.5771 32.355 36.7671 31.215C36.2771 30.905 35.7171 30.745 35.1371 30.745C34.3671 30.745 33.6371 31.025 33.0671 31.535C30.8671 33.515 27.7871 36.445 25.4171 38.705H35.8271V38.715ZM6.3571 33.795C6.8171 36.615 9.2871 38.715 12.1471 38.715H20.2671C21.3771 37.645 24.1371 34.985 26.8471 32.445L20.9371 27.405C20.0271 26.635 18.8771 26.205 17.6771 26.205C16.5471 26.205 15.4371 26.595 14.5571 27.285L6.3571 33.795ZM35.1471 27.185C36.3971 27.185 37.6171 27.535 38.6671 28.195C39.7271 28.865 40.8471 29.745 41.7071 30.475V15.165C41.7071 11.925 39.0671 9.285 35.8271 9.285H12.1571C8.9171 9.285 6.2771 11.925 6.2771 15.165V29.305L12.3471 24.485C13.8571 23.285 15.7471 22.625 17.6871 22.625C19.7371 22.625 21.7171 23.355 23.2571 24.675L29.4771 29.985C29.8971 29.595 30.3071 29.225 30.6871 28.885C31.9071 27.785 33.4871 27.175 35.1471 27.175V27.185Z" fill="#1F2024"/>
<path d="M31.4871 22.285C28.8071 22.285 26.7071 20.185 26.7071 17.505C26.7071 14.825 28.8071 12.725 31.4871 12.725C34.1671 12.725 36.2671 14.825 36.2671 17.505C36.2671 20.185 34.1671 22.285 31.4871 22.285ZM31.4871 16.285C30.7671 16.285 30.2671 16.785 30.2671 17.505C30.2671 18.225 30.7671 18.725 31.4871 18.725C32.2071 18.725 32.7071 18.225 32.7071 17.505C32.7071 16.785 32.2071 16.285 31.4871 16.285Z" fill="#1F2024"/>
</svg>
