<svg width="48" height="48" viewBox="0 0 48 48" fill="none" xmlns="http://www.w3.org/2000/svg">
<path d="M12.6092 41.587C7.71352 41.587 3.72193 37.7493 3.53919 32.8536C3.53919 32.7959 3.52957 32.719 3.53919 32.6324V15.5022C3.51995 10.4911 7.5981 6.41296 12.6092 6.41296H35.3757C40.3868 6.41296 44.465 10.4911 44.465 15.5022V32.4978C44.465 37.5089 40.3868 41.587 35.3757 41.587H12.6092ZM35.3757 38.1533C37.7226 38.1533 39.829 36.6913 40.6658 34.4984C40.0983 33.9597 38.0207 32.0361 36.2798 30.9396C35.8085 30.6414 35.2699 30.4875 34.7121 30.4875C33.9714 30.4875 33.2693 30.7568 32.7211 31.2474C30.605 33.1518 27.6426 35.97 25.3631 38.1437H35.3757V38.1533ZM7.03062 33.4211C7.47307 36.1335 9.84878 38.1533 12.5996 38.1533H20.4097C21.4773 37.1242 24.1319 34.5657 26.7385 32.1226L21.0541 27.275C20.1788 26.5344 19.0727 26.1208 17.9185 26.1208C16.8317 26.1208 15.764 26.4959 14.9176 27.1596L7.03062 33.4211ZM34.7217 27.0634C35.924 27.0634 37.0974 27.4001 38.1073 28.0349C39.1268 28.6793 40.2041 29.5257 41.0313 30.2278V15.5022C41.0313 12.3859 38.492 9.84669 35.3757 9.84669H12.6092C9.49291 9.84669 6.95368 12.3859 6.95368 15.5022V29.1025L12.792 24.4665C14.2443 23.3123 16.0622 22.6775 17.9281 22.6775C19.8999 22.6775 21.8043 23.3796 23.2855 24.6492L29.2681 29.7565C29.6721 29.3814 30.0664 29.0256 30.4319 28.6985C31.6053 27.6405 33.125 27.0538 34.7217 27.0538V27.0634Z" fill="#1F2024"/>
<path d="M31.2014 22.3505C28.6237 22.3505 26.6038 20.3306 26.6038 17.7529C26.6038 15.1752 28.6237 13.1554 31.2014 13.1554C33.7791 13.1554 35.7989 15.1752 35.7989 17.7529C35.7989 20.3306 33.7791 22.3505 31.2014 22.3505ZM31.2014 16.5795C30.5089 16.5795 30.0279 17.0604 30.0279 17.7529C30.0279 18.4454 30.5089 18.9264 31.2014 18.9264C31.8939 18.9264 32.3748 18.4454 32.3748 17.7529C32.3748 17.0604 31.8939 16.5795 31.2014 16.5795Z" fill="#1F2024"/>
</svg>
