<svg width="48" height="48" viewBox="0 0 48 48" fill="none" xmlns="http://www.w3.org/2000/svg">
<path d="M35.845 6H12.165C7.115 6 3.005 10.11 3.005 15.16V32.84C3.005 37.89 7.115 42 12.165 42H35.835C40.885 42 44.995 37.89 44.995 32.84V15.16C44.995 10.11 40.885 6 35.835 6H35.845ZM31.505 13C34.025 13 36.005 14.98 36.005 17.5C36.005 20.02 34.025 22 31.505 22C28.985 22 27.005 20.02 27.005 17.5C27.005 14.98 28.985 13 31.505 13V13ZM18.715 39H12.165C8.765 39 6.005 36.24 6.005 32.84V31.73L14.395 25.07C16.375 23.5 19.205 23.55 21.135 25.19L27.295 30.44C23.465 34.05 19.155 38.23 19.105 38.29C18.895 38.49 18.785 38.74 18.725 39H18.715ZM35.845 39H22.675C25.125 36.64 30.025 31.92 32.905 29.33C34.015 28.33 35.675 28.18 36.935 28.98C39.075 30.33 41.665 32.84 41.695 32.86C41.785 32.95 41.895 33 41.995 33.06C41.875 36.36 39.165 39 35.845 39V39Z" fill="#1F2024"/>
</svg>
