<svg width="48" height="48" viewBox="0 0 48 48" fill="none" xmlns="http://www.w3.org/2000/svg">
<path d="M39 6H9C7.41 6 5.88 6.63 4.76 7.76C3.64 8.89 3 10.41 3 12V36C3 37.59 3.63 39.12 4.76 40.24C5.89 41.36 7.41 42 9 42H39C40.59 42 42.12 41.37 43.24 40.24C44.36 39.11 45 37.59 45 36V12C45 10.41 44.37 8.88 43.24 7.76C42.11 6.64 40.59 6 39 6ZM31.5 12C32.39 12 33.26 12.26 34 12.76C34.74 13.25 35.32 13.96 35.66 14.78C36 15.6 36.09 16.51 35.92 17.38C35.75 18.25 35.32 19.05 34.69 19.68C34.06 20.31 33.26 20.74 32.39 20.91C31.52 21.08 30.61 20.99 29.79 20.65C28.97 20.31 28.26 19.73 27.77 18.99C27.28 18.25 27.01 17.38 27.01 16.49C27.01 15.3 27.49 14.15 28.33 13.31C29.17 12.47 30.32 11.99 31.51 11.99L31.5 12ZM9 39C8.2 39 7.44 38.68 6.88 38.12C6.32 37.56 6 36.8 6 36V30.66L14.5 21.93C15.5 21 16.86 20.59 18.01 20.62C19.16 20.65 20.25 21.12 21.06 21.93L27.15 28.01L16.16 39H9ZM42 36C42 36.8 41.68 37.56 41.12 38.12C40.56 38.68 39.8 39 39 39H20.4L31.78 27.62C32.59 26.93 33.61 26.56 34.67 26.55C35.73 26.55 36.75 26.92 37.56 27.6L41.99 31.3V36H42Z" fill="#1F2024"/>
</svg>
