<svg width="48" height="48" viewBox="0 0 48 48" fill="none" xmlns="http://www.w3.org/2000/svg">
<path d="M35.845 6.09998H12.165C7.17498 6.09998 3.10498 10.17 3.10498 15.16V32.84C3.10498 37.84 7.17498 41.9 12.165 41.9H35.835C40.835 41.9 44.895 37.83 44.895 32.84V15.16C44.895 10.16 40.825 6.09998 35.835 6.09998H35.845ZM12.165 8.89998H35.835C39.285 8.89998 42.095 11.71 42.095 15.16V31.31C41.085 30.42 39.735 29.32 38.465 28.52C36.105 27.04 33.015 27.31 30.945 29.18C30.485 29.59 29.995 30.05 29.475 30.53C29.445 30.5 29.435 30.47 29.405 30.44L23.015 24.98C20.035 22.44 15.655 22.36 12.595 24.79L5.90498 30.1V15.16C5.90498 11.71 8.71498 8.89998 12.165 8.89998ZM5.96498 33.63L14.345 26.98C16.365 25.38 19.245 25.43 21.205 27.1L27.445 32.42C24.545 35.14 21.515 38.06 20.445 39.09H12.165C8.98498 39.09 6.35498 36.7 5.95498 33.62L5.96498 33.63ZM35.845 39.1H24.305C26.665 36.91 30.335 33.51 32.835 31.26C33.975 30.23 35.685 30.08 36.985 30.9C39.135 32.25 41.735 34.77 41.755 34.79C41.755 34.79 41.775 34.79 41.775 34.81C40.945 37.3 38.595 39.11 35.835 39.11L35.845 39.1Z" fill="#1F2024"/>
<path d="M31.505 21.8C33.915 21.8 35.805 19.91 35.805 17.5C35.805 15.09 33.915 13.2 31.505 13.2C29.095 13.2 27.205 15.09 27.205 17.5C27.205 19.91 29.095 21.8 31.505 21.8ZM31.505 15.8C32.495 15.8 33.205 16.51 33.205 17.5C33.205 18.49 32.495 19.2 31.505 19.2C30.515 19.2 29.805 18.49 29.805 17.5C29.805 16.51 30.515 15.8 31.505 15.8Z" fill="#1F2024"/>
</svg>
