<svg width="48" height="48" viewBox="0 0 48 48" fill="none" xmlns="http://www.w3.org/2000/svg">
<path d="M23.9998 4.30005C13.0998 4.30005 4.2998 13.1 4.2998 24C4.2998 34.9 13.0998 43.7001 23.9998 43.7001C34.8998 43.7001 43.6998 34.9 43.6998 24C43.6998 13.1 34.8998 4.30005 23.9998 4.30005ZM23.9998 40.3C14.9998 40.3 7.6998 33 7.6998 24C7.6998 15 14.9998 7.70005 23.9998 7.70005C32.9998 7.70005 40.2998 15 40.2998 24C40.2998 33 32.9998 40.3 23.9998 40.3Z" fill="#1F2024"/>
<path d="M24.8998 14.2C24.4998 14 24.0998 14 23.6998 14.1C23.2998 14.2 22.8998 14.4 22.5998 14.7C22.2998 15 22.0998 15.3 21.9998 15.7C21.8998 16.1 21.9998 16.5 22.0998 16.9C22.2998 17.2 22.4998 17.5 22.8998 17.7C23.1998 17.9 23.5998 18.1 23.9998 18.1C24.5998 18.1 25.1998 17.9 25.4998 17.5C25.8998 17.1 26.0998 16.6 26.0998 16.1C26.0998 15.7 25.9998 15.3 25.7998 15C25.6998 14.7 25.3998 14.4 24.8998 14.2Z" fill="#1F2024"/>
<path d="M24.4998 20.4H23.4998C22.8998 20.4 22.4998 20.9 22.4998 21.5V32.5C22.4998 33.2 22.9998 33.6 23.4998 33.6H24.4998C25.0998 33.6 25.4998 33.1 25.4998 32.5V21.5C25.4998 20.9 24.9998 20.4 24.4998 20.4Z" fill="#1F2024"/>
</svg>
