<svg width="48" height="48" viewBox="0 0 48 48" fill="none" xmlns="http://www.w3.org/2000/svg">
<path d="M24 43.2001C34.6 43.2001 43.2001 34.6 43.2001 24C43.2001 13.4 34.6 4.80005 24 4.80005C13.4 4.80005 4.80005 13.4 4.80005 24C4.80005 34.6 13.4 43.2001 24 43.2001ZM24 7.20005C33.3 7.20005 40.8 14.7 40.8 24C40.8 33.3 33.3 40.8 24 40.8C14.7 40.8 7.20005 33.3 7.20005 24C7.20005 14.7 14.7 7.20005 24 7.20005Z" fill="#1F2024"/>
<path d="M22.3 17.1C22.4 17.2 22.6 17.5 22.9 17.7C23.2 17.8 23.5 18 23.9 18C24.4 18 24.9 17.8 25.2 17.5C25.6 17.1 25.8 16.6 25.8 16.1C25.8 15.7 25.6 15.3 25.5 15.1C25.3 14.7 25 14.5 24.7 14.3C24.4 14.2 23.9 13.9 23.2 14.2C23 14.3 22.8 14.4 22.6 14.6C22.2 14.9 21.9 15.4 21.9 15.9C21.9 16.2 21.9 16.5 22.1 16.9L22.3 17.1Z" fill="#1F2024"/>
<path d="M24.5 20.5H23.5C22.9 20.5 22.5 20.9 22.5 21.5V32.5C22.5 33.1 22.9 33.5 23.5 33.5H24.5C25.1 33.5 25.5 33.1 25.5 32.5V21.5C25.5 20.9 25.1 20.5 24.5 20.5Z" fill="#1F2024"/>
</svg>
