<svg width="48" height="48" viewBox="0 0 48 48" fill="none" xmlns="http://www.w3.org/2000/svg">
<path d="M23.9998 43.2001C34.5998 43.2001 43.1998 34.6 43.1998 24C43.1998 13.4 34.5998 4.80005 23.9998 4.80005C13.3998 4.80005 4.7998 13.4 4.7998 24C4.7998 34.6 13.3998 43.2001 23.9998 43.2001ZM23.9998 7.20005C33.2998 7.20005 40.7998 14.7 40.7998 24C40.7998 33.3 33.2998 40.8 23.9998 40.8C14.6998 40.8 7.1998 33.3 7.1998 24C7.1998 14.7 14.6998 7.20005 23.9998 7.20005Z" fill="#1F2024"/>
<path d="M22.2998 17.1C22.3998 17.2 22.5998 17.5 22.8998 17.7C23.1998 17.8 23.4998 18 23.8998 18C24.3998 18 24.8998 17.8 25.1998 17.5C25.5998 17.1 25.7998 16.6 25.7998 16.1C25.7998 15.7 25.5998 15.3 25.4998 15.1C25.2998 14.7 24.9998 14.5 24.6998 14.3C24.3998 14.2 23.8998 13.9 23.1998 14.2C22.9998 14.3 22.7998 14.4 22.5998 14.6C22.1998 14.9 21.8998 15.4 21.8998 15.9C21.8998 16.2 21.8998 16.5 22.0998 16.9L22.2998 17.1Z" fill="#1F2024"/>
<path d="M24.4998 20.5H23.4998C22.8998 20.5 22.4998 20.9 22.4998 21.5V32.5C22.4998 33.1 22.8998 33.5 23.4998 33.5H24.4998C25.0998 33.5 25.4998 33.1 25.4998 32.5V21.5C25.4998 20.9 25.0998 20.5 24.4998 20.5Z" fill="#1F2024"/>
</svg>
