<svg width="48" height="48" viewBox="0 0 48 48" fill="none" xmlns="http://www.w3.org/2000/svg">
<path fill-rule="evenodd" clip-rule="evenodd" d="M24 4C12.9721 4 4 12.9721 4 24C4 35.0279 12.9721 44 24 44C35.0279 44 44 35.0279 44 24C44 12.9721 35.0279 4 24 4ZM24 18C23.6044 18 23.2178 17.8827 22.8889 17.6629C22.56 17.4432 22.3036 17.1308 22.1522 16.7654C22.0009 16.3999 21.9613 15.9978 22.0384 15.6098C22.1156 15.2219 22.3061 14.8655 22.5858 14.5858C22.8655 14.3061 23.2219 14.1156 23.6098 14.0384C23.9978 13.9613 24.3999 14.0009 24.7654 14.1522C25.1308 14.3036 25.4432 14.56 25.6629 14.8889C25.8827 15.2178 26 15.6044 26 16C26 16.5304 25.7893 17.0391 25.4142 17.4142C25.0391 17.7893 24.5304 18 24 18ZM25.5 21.5C25.5 20.9477 25.0523 20.5 24.5 20.5H23.5C22.9477 20.5 22.5 20.9477 22.5 21.5V32.5C22.5 33.0523 22.9477 33.5 23.5 33.5H24.5C25.0523 33.5 25.5 33.0523 25.5 32.5V21.5Z" fill="#1F2024"/>
</svg>
