<svg width="48" height="48" viewBox="0 0 48 48" fill="none" xmlns="http://www.w3.org/2000/svg">
<path fill-rule="evenodd" clip-rule="evenodd" d="M4.5 24C4.5 13.2341 13.2341 4.5 24 4.5C34.7659 4.5 43.5 13.2341 43.5 24C43.5 34.7659 34.7659 43.5 24 43.5C13.2341 43.5 4.5 34.7659 4.5 24ZM24 7.5C14.8909 7.5 7.5 14.8909 7.5 24C7.5 33.1091 14.8909 40.5 24 40.5C33.1091 40.5 40.5 33.1091 40.5 24C40.5 14.8909 33.1091 7.5 24 7.5Z" fill="#1F2024"/>
<path d="M24 18C23.6044 18 23.2178 17.8827 22.8889 17.6629C22.56 17.4432 22.3036 17.1308 22.1522 16.7654C22.0009 16.3999 21.9613 15.9978 22.0384 15.6098C22.1156 15.2219 22.3061 14.8655 22.5858 14.5858C22.8655 14.3061 23.2219 14.1156 23.6098 14.0384C23.9978 13.9613 24.3999 14.0009 24.7654 14.1522C25.1308 14.3036 25.4432 14.56 25.6629 14.8889C25.8827 15.2178 26 15.6044 26 16C26 16.5304 25.7893 17.0391 25.4142 17.4142C25.0391 17.7893 24.5304 18 24 18Z" fill="#1F2024"/>
<path fill-rule="evenodd" clip-rule="evenodd" d="M24.5 20.5C25.0523 20.5 25.5 20.9477 25.5 21.5V32.5C25.5 33.0523 25.0523 33.5 24.5 33.5H23.5C22.9477 33.5 22.5 33.0523 22.5 32.5V21.5C22.5 20.9477 22.9477 20.5 23.5 20.5H24.5Z" fill="#1F2024"/>
</svg>
