<svg width="48" height="48" viewBox="0 0 48 48" fill="none" xmlns="http://www.w3.org/2000/svg">
<path d="M25 32.67C23.86 32.67 22.76 32.45 21.71 32.01C20.66 31.57 19.73 30.93 18.93 30.12C18.35 29.53 18.36 28.58 18.95 28C19.54 27.42 20.49 27.43 21.07 28.02C21.58 28.54 22.19 28.96 22.87 29.24C24.22 29.81 25.77 29.81 27.13 29.24C27.81 28.95 28.41 28.54 28.93 28.02L36.94 20.01C37.99 18.96 38.57 17.56 38.57 16.07C38.57 14.58 37.98 13.17 36.94 12.13C35.89 11.08 34.49 10.5 33 10.5C31.51 10.5 30.11 11.08 29.06 12.13L28.06 13.13C27.47 13.72 26.52 13.72 25.94 13.13C25.36 12.54 25.35 11.59 25.94 11.01L26.94 10.01C28.56 8.39 30.71 7.5 33 7.5C35.29 7.5 37.44 8.39 39.06 10.01C40.66 11.6 41.57 13.81 41.57 16.07C41.57 18.33 40.68 20.51 39.06 22.13L31.06 30.13C30.28 30.93 29.34 31.57 28.29 32.01C27.24 32.45 26.13 32.67 25 32.67Z" fill="#1F2024"/>
<path d="M14.9999 41.57C12.7099 41.57 10.5599 40.68 8.93993 39.06C7.31993 37.44 6.42993 35.29 6.42993 33C6.42993 30.71 7.31993 28.56 8.93993 26.94L16.9399 18.94C17.7299 18.14 18.6599 17.5 19.7099 17.06C21.8099 16.18 24.1999 16.18 26.2999 17.06C27.3499 17.5 28.2799 18.13 29.0799 18.95C29.6599 19.54 29.6499 20.49 29.0599 21.07C28.4699 21.65 27.5199 21.64 26.9399 21.05C26.4199 20.52 25.8199 20.11 25.1399 19.83C23.7799 19.26 22.2299 19.26 20.8799 19.83C20.1999 20.11 19.5999 20.53 19.0799 21.05L11.0699 29.06C10.0199 30.11 9.43993 31.51 9.43993 33C9.43993 34.49 10.0199 35.89 11.0699 36.94C12.1199 37.99 13.5199 38.57 15.0099 38.57C16.4999 38.57 17.8999 37.99 18.9499 36.94L19.9499 35.94C20.5399 35.35 21.4899 35.35 22.0699 35.94C22.6499 36.53 22.6599 37.48 22.0699 38.06L21.0699 39.06C19.4499 40.68 17.2999 41.57 15.0099 41.57H14.9999Z" fill="#1F2024"/>
</svg>
