<svg width="49" height="48" viewBox="0 0 49 48" fill="none" xmlns="http://www.w3.org/2000/svg">
<path fill-rule="evenodd" clip-rule="evenodd" d="M27.8803 9.71653C29.4299 8.05771 31.5544 7.25 33.7438 7.25C36.0031 7.25 37.9835 8.20641 39.5604 9.67065C41.2306 11.2216 42.0438 13.3531 42.0438 15.55C42.0438 17.7861 41.1045 19.8864 39.5924 21.3985L31.5924 29.3985C30.7987 30.1922 29.9787 30.781 28.9312 31.2466C28.8959 31.2623 28.8599 31.2762 28.8233 31.2884C27.8535 31.6117 26.8185 31.85 25.7438 31.85C24.7553 31.85 23.6688 31.7409 22.5565 31.2466C21.509 30.781 20.689 30.1922 19.8953 29.3985C19.4267 28.9299 19.4267 28.1701 19.8953 27.7015C20.3639 27.2328 21.1237 27.2328 21.5924 27.7015C22.1987 28.3078 22.7787 28.719 23.5312 29.0534C24.2189 29.3591 24.9324 29.45 25.7438 29.45C26.4529 29.45 27.1998 29.2955 28.0085 29.0301C28.7358 28.6999 29.303 28.2938 29.8953 27.7015L37.8953 19.7015C38.9832 18.6136 39.6438 17.1139 39.6438 15.55C39.6438 13.9469 39.0571 12.4784 37.9273 11.4294C36.7042 10.2936 35.2846 9.65 33.7438 9.65C32.1407 9.65 30.6723 10.2368 29.6232 11.3665C29.6131 11.3774 29.6028 11.3881 29.5924 11.3985L28.5924 12.3985C28.1237 12.8672 27.364 12.8672 26.8953 12.3985C26.4267 11.9299 26.4267 11.1701 26.8953 10.7015L27.8803 9.71653ZM20.6644 16.7116C21.6342 16.3883 22.6692 16.15 23.7438 16.15C24.7324 16.15 25.8189 16.2591 26.9312 16.7534C27.9787 17.219 28.7987 17.8078 29.5924 18.6015C30.061 19.0701 30.061 19.8299 29.5924 20.2985C29.1237 20.7672 28.364 20.7672 27.8953 20.2985C27.289 19.6922 26.709 19.281 25.9565 18.9466C25.2688 18.6409 24.5553 18.55 23.7438 18.55C23.0348 18.55 22.2879 18.7045 21.4792 18.9699C20.7519 19.3002 20.1847 19.7062 19.5924 20.2985L11.5924 28.2985C10.5045 29.3864 9.84385 30.8861 9.84385 32.45C9.84385 34.0139 10.5045 35.5136 11.5924 36.6015C12.6802 37.6893 14.1799 38.35 15.7438 38.35C17.347 38.35 18.8154 37.7632 19.8645 36.6335C19.8746 36.6226 19.8848 36.6119 19.8953 36.6015L20.8953 35.6015C21.3639 35.1328 22.1237 35.1328 22.5924 35.6015C23.061 36.0701 23.061 36.8299 22.5924 37.2985L21.6074 38.2835C20.0578 39.9423 17.9333 40.75 15.7438 40.75C13.5078 40.75 11.4074 39.8107 9.89532 38.2985C8.38319 36.7864 7.44385 34.6861 7.44385 32.45C7.44385 30.2139 8.38319 28.1136 9.89532 26.6015L17.8953 18.6015C18.689 17.8078 19.509 17.219 20.5565 16.7534C20.5918 16.7378 20.6278 16.7238 20.6644 16.7116Z" fill="#1F2024"/>
</svg>
