<svg width="49" height="48" viewBox="0 0 49 48" fill="none" xmlns="http://www.w3.org/2000/svg">
<path d="M21.1442 34.83H14.4442C11.4242 34.83 8.48416 33.75 6.16416 31.8C3.83416 29.71 2.51416 26.88 2.51416 24C2.51416 21.12 3.83416 18.29 6.12416 16.24C8.30416 14.29 11.3342 13.17 14.4442 13.17H21.1442C22.1542 13.17 22.9742 13.99 22.9742 15C22.9742 16.01 22.1542 16.83 21.1442 16.83H14.4442C12.2242 16.83 10.0842 17.61 8.56416 18.96C7.04416 20.32 6.17416 22.15 6.17416 24C6.17416 25.85 7.02416 27.66 8.56416 29.04C10.1842 30.4 12.2842 31.17 14.4442 31.17H21.1442C22.1542 31.17 22.9742 31.99 22.9742 33C22.9742 34.01 22.1542 34.83 21.1442 34.83Z" fill="#1F2024"/>
<path d="M35.0442 34.83H28.3442C27.3342 34.83 26.5142 34.01 26.5142 33C26.5142 31.99 27.3342 31.17 28.3442 31.17H35.0442C37.2642 31.17 39.4042 30.39 40.9242 29.04C42.4642 27.66 43.3142 25.87 43.3142 24C43.3142 22.13 42.4442 20.32 40.9242 18.96C39.3642 17.56 37.3342 16.83 35.0442 16.83H28.3442C27.3342 16.83 26.5142 16.01 26.5142 15C26.5142 13.99 27.3342 13.17 28.3442 13.17H35.0442C38.2042 13.17 41.1542 14.26 43.3642 16.24C45.6542 18.29 46.9742 21.12 46.9742 24C46.9742 26.88 45.6542 29.71 43.3642 31.76C41.1842 33.71 38.1542 34.83 35.0442 34.83Z" fill="#1F2024"/>
<path d="M34.3442 25.83H15.1442C14.1342 25.83 13.3142 25.01 13.3142 24C13.3142 22.99 14.1342 22.17 15.1442 22.17H34.3442C35.3542 22.17 36.1742 22.99 36.1742 24C36.1742 25.01 35.3542 25.83 34.3442 25.83Z" fill="#1F2024"/>
</svg>
