<svg width="49" height="48" viewBox="0 0 49 48" fill="none" xmlns="http://www.w3.org/2000/svg">
<path d="M25.7442 32.67C24.6042 32.67 23.5042 32.45 22.4542 32.01C21.4042 31.57 20.4742 30.93 19.6742 30.12C19.0942 29.53 19.1042 28.58 19.6942 28C20.2842 27.42 21.2342 27.43 21.8142 28.02C22.3242 28.54 22.9342 28.96 23.6142 29.24C24.9642 29.81 26.5142 29.81 27.8742 29.24C28.5542 28.95 29.1542 28.54 29.6742 28.02L37.6842 20.01C38.7342 18.96 39.3142 17.56 39.3142 16.07C39.3142 14.58 38.7242 13.17 37.6842 12.13C36.6342 11.08 35.2342 10.5 33.7442 10.5C32.2542 10.5 30.8542 11.08 29.8042 12.13L28.8042 13.13C28.2142 13.72 27.2642 13.72 26.6842 13.13C26.1042 12.54 26.0942 11.59 26.6842 11.01L27.6842 10.01C29.3042 8.39 31.4542 7.5 33.7442 7.5C36.0342 7.5 38.1842 8.39 39.8042 10.01C41.4042 11.6 42.3142 13.81 42.3142 16.07C42.3142 18.33 41.4242 20.51 39.8042 22.13L31.8042 30.13C31.0242 30.93 30.0842 31.57 29.0342 32.01C27.9842 32.45 26.8742 32.67 25.7442 32.67Z" fill="#1F2024"/>
<path d="M15.7441 41.57C13.4541 41.57 11.3041 40.68 9.68407 39.06C8.06407 37.44 7.17407 35.29 7.17407 33C7.17407 30.71 8.06407 28.56 9.68407 26.94L17.6841 18.94C18.4741 18.14 19.4041 17.5 20.4541 17.06C22.5541 16.18 24.9441 16.18 27.0441 17.06C28.0941 17.5 29.0241 18.13 29.8241 18.95C30.4041 19.54 30.3941 20.49 29.8041 21.07C29.2141 21.65 28.2641 21.64 27.6841 21.05C27.1641 20.52 26.5641 20.11 25.8841 19.83C24.5241 19.26 22.9741 19.26 21.6241 19.83C20.9441 20.11 20.3441 20.53 19.8241 21.05L11.8141 29.06C10.7641 30.11 10.1841 31.51 10.1841 33C10.1841 34.49 10.7641 35.89 11.8141 36.94C12.8641 37.99 14.2641 38.57 15.7541 38.57C17.2441 38.57 18.6441 37.99 19.6941 36.94L20.6941 35.94C21.2841 35.35 22.2341 35.35 22.8141 35.94C23.3941 36.53 23.4041 37.48 22.8141 38.06L21.8141 39.06C20.1941 40.68 18.0441 41.57 15.7541 41.57H15.7441Z" fill="#1F2024"/>
</svg>
