<svg width="49" height="48" viewBox="0 0 49 48" fill="none" xmlns="http://www.w3.org/2000/svg">
<path fill-rule="evenodd" clip-rule="evenodd" d="M27.8805 9.71647C29.4301 8.05765 31.5547 7.24994 33.7441 7.24994C36.0034 7.24994 37.9838 8.20635 39.5606 9.67059C41.2309 11.2215 42.0441 13.3531 42.0441 15.5499C42.0441 17.786 41.1048 19.8863 39.5926 21.3985L31.5926 29.3985C30.799 30.1921 29.979 30.7809 28.9315 31.2465C28.8962 31.2622 28.8602 31.2762 28.8236 31.2884C27.8537 31.6116 26.8187 31.8499 25.7441 31.8499C24.7555 31.8499 23.669 31.7409 22.5567 31.2465C21.5092 30.7809 20.6892 30.1921 19.8956 29.3985C19.4269 28.9298 19.4269 28.17 19.8956 27.7014C20.3642 27.2328 21.124 27.2328 21.5926 27.7014C22.199 28.3078 22.779 28.7189 23.5315 29.0534C24.2191 29.359 24.9327 29.4499 25.7441 29.4499C26.4531 29.4499 27.2001 29.2954 28.0087 29.03C28.7361 28.6998 29.3032 28.2937 29.8956 27.7014L37.8956 19.7014C38.9834 18.6135 39.6441 17.1139 39.6441 15.5499C39.6441 13.9468 39.0573 12.4783 37.9276 11.4293C36.7044 10.2935 35.2848 9.64994 33.7441 9.64994C32.141 9.64994 30.6725 10.2367 29.6234 11.3665C29.6134 11.3773 29.6031 11.388 29.5926 11.3985L28.5926 12.3985C28.124 12.8671 27.3642 12.8671 26.8956 12.3985C26.4269 11.9298 26.4269 11.17 26.8956 10.7014L27.8805 9.71647ZM20.6646 16.7115C21.6344 16.3882 22.6694 16.1499 23.7441 16.1499C24.7327 16.1499 25.8191 16.259 26.9315 16.7534C27.979 17.2189 28.799 17.8078 29.5926 18.6014C30.0613 19.07 30.0613 19.8298 29.5926 20.2985C29.124 20.7671 28.3642 20.7671 27.8956 20.2985C27.2892 19.6921 26.7092 19.2809 25.9567 18.9465C25.269 18.6409 24.5555 18.5499 23.7441 18.5499C23.035 18.5499 22.2881 18.7044 21.4795 18.9699C20.7521 19.3001 20.1849 19.7061 19.5926 20.2985L11.5926 28.2985C10.5047 29.3863 9.84409 30.886 9.84409 32.4499C9.84409 34.0139 10.5047 35.5135 11.5926 36.6014C12.6805 37.6893 14.1802 38.3499 15.7441 38.3499C17.3472 38.3499 18.8157 37.7631 19.8647 36.6334C19.8748 36.6225 19.8851 36.6119 19.8956 36.6014L20.8956 35.6014C21.3642 35.1328 22.124 35.1328 22.5926 35.6014C23.0612 36.07 23.0612 36.8298 22.5926 37.2985L21.6077 38.2834C20.0581 39.9422 17.9335 40.7499 15.7441 40.7499C13.508 40.7499 11.4077 39.8106 9.89556 38.2985C8.38344 36.7863 7.44409 34.686 7.44409 32.4499C7.44409 30.2139 8.38344 28.1135 9.89556 26.6014L17.8956 18.6014C18.6892 17.8078 19.5092 17.2189 20.5567 16.7534C20.592 16.7377 20.628 16.7237 20.6646 16.7115Z" fill="#1F2024"/>
</svg>
