<svg width="49" height="48" viewBox="0 0 49 48" fill="none" xmlns="http://www.w3.org/2000/svg">
<path d="M21.1442 34.8299H14.4442C11.4242 34.8299 8.48416 33.7499 6.16416 31.7999C3.83416 29.7099 2.51416 26.8799 2.51416 23.9999C2.51416 21.1199 3.83416 18.2899 6.12416 16.2399C8.30416 14.2899 11.3342 13.1699 14.4442 13.1699H21.1442C22.1542 13.1699 22.9742 13.9899 22.9742 14.9999C22.9742 16.0099 22.1542 16.8299 21.1442 16.8299H14.4442C12.2242 16.8299 10.0842 17.6099 8.56416 18.9599C7.04416 20.3199 6.17416 22.1499 6.17416 23.9999C6.17416 25.8499 7.02416 27.6599 8.56416 29.0399C10.1842 30.3999 12.2842 31.1699 14.4442 31.1699H21.1442C22.1542 31.1699 22.9742 31.9899 22.9742 32.9999C22.9742 34.0099 22.1542 34.8299 21.1442 34.8299Z" fill="#1F2024"/>
<path d="M35.0442 34.8299H28.3442C27.3342 34.8299 26.5142 34.0099 26.5142 32.9999C26.5142 31.9899 27.3342 31.1699 28.3442 31.1699H35.0442C37.2642 31.1699 39.4042 30.3899 40.9242 29.0399C42.4642 27.6599 43.3142 25.8699 43.3142 23.9999C43.3142 22.1299 42.4442 20.3199 40.9242 18.9599C39.3642 17.5599 37.3342 16.8299 35.0442 16.8299H28.3442C27.3342 16.8299 26.5142 16.0099 26.5142 14.9999C26.5142 13.9899 27.3342 13.1699 28.3442 13.1699H35.0442C38.2042 13.1699 41.1542 14.2599 43.3642 16.2399C45.6542 18.2899 46.9742 21.1199 46.9742 23.9999C46.9742 26.8799 45.6542 29.7099 43.3642 31.7599C41.1842 33.7099 38.1542 34.8299 35.0442 34.8299Z" fill="#1F2024"/>
<path d="M34.3442 25.8299H15.1442C14.1342 25.8299 13.3142 25.0099 13.3142 23.9999C13.3142 22.9899 14.1342 22.1699 15.1442 22.1699H34.3442C35.3542 22.1699 36.1742 22.9899 36.1742 23.9999C36.1742 25.0099 35.3542 25.8299 34.3442 25.8299Z" fill="#1F2024"/>
</svg>
