<svg width="49" height="48" viewBox="0 0 49 48" fill="none" xmlns="http://www.w3.org/2000/svg">
<path d="M22.0443 34.6301H15.3243C12.2343 34.6301 9.31426 33.5501 7.11426 31.5801C4.89426 29.6001 3.61426 26.8301 3.61426 24.0001C3.61426 21.1701 4.88426 18.4001 7.11426 16.4201C9.31426 14.4501 12.2343 13.3701 15.3243 13.3701H22.0443C22.9443 13.3701 23.6743 14.1001 23.6743 15.0001C23.6743 15.9001 22.9443 16.6301 22.0443 16.6301H15.3243C13.0643 16.6301 10.8643 17.4401 9.28426 18.8501C7.73426 20.2401 6.87426 22.0601 6.87426 24.0001C6.87426 25.9401 7.73426 27.7601 9.28426 29.1501C10.8643 30.5601 13.0643 31.3701 15.3243 31.3701H22.0443C22.9443 31.3701 23.6743 32.1001 23.6743 33.0001C23.6743 33.9001 22.9443 34.6301 22.0443 34.6301Z" fill="#1F2024"/>
<path d="M35.9643 34.6301H29.2443C28.3443 34.6301 27.6143 33.9001 27.6143 33.0001C27.6143 32.1001 28.3443 31.3701 29.2443 31.3701H35.9643C38.2243 31.3701 40.4243 30.5601 42.0043 29.1501C43.5543 27.7601 44.4143 25.9401 44.4143 24.0001C44.4143 22.0601 43.5643 20.2401 42.0043 18.8501C40.4243 17.4401 38.2243 16.6301 35.9643 16.6301H29.2443C28.3443 16.6301 27.6143 15.9001 27.6143 15.0001C27.6143 14.1001 28.3443 13.3701 29.2443 13.3701H35.9643C39.0543 13.3701 41.9743 14.4501 44.1743 16.4201C46.3943 18.4101 47.6743 21.1701 47.6743 24.0001C47.6743 26.8301 46.4043 29.6001 44.1743 31.5801C41.9643 33.5501 39.0543 34.6301 35.9543 34.6301H35.9643Z" fill="#1F2024"/>
<path d="M35.2543 25.6301H16.0543C15.1543 25.6301 14.4243 24.9001 14.4243 24.0001C14.4243 23.1001 15.1543 22.3701 16.0543 22.3701H35.2543C36.1543 22.3701 36.8843 23.1001 36.8843 24.0001C36.8843 24.9001 36.1543 25.6301 35.2543 25.6301Z" fill="#1F2024"/>
</svg>
