<svg width="49" height="48" viewBox="0 0 49 48" fill="none" xmlns="http://www.w3.org/2000/svg">
<path d="M25.7441 32.35C24.9141 32.35 23.6641 32.28 22.3541 31.7C21.2841 31.22 20.4141 30.62 19.5441 29.75C18.8841 29.09 18.8841 28.01 19.5441 27.35C20.2041 26.69 21.2841 26.69 21.9441 27.35C22.5141 27.92 23.0541 28.3 23.7341 28.6C24.2941 28.85 24.8941 28.95 25.7441 28.95C26.3441 28.95 27.0241 28.82 27.8241 28.56C28.4741 28.26 28.9841 27.9 29.5341 27.34L37.5341 19.34C38.5541 18.32 39.1341 16.94 39.1341 15.54C39.1341 14.05 38.5841 12.72 37.5741 11.79C36.3941 10.7 35.1041 10.14 33.7341 10.14C32.2441 10.14 30.9141 10.69 29.9841 11.7L28.9441 12.75C28.2841 13.41 27.2041 13.41 26.5441 12.75C25.8841 12.09 25.8841 11.01 26.5441 10.35L27.5441 9.35C29.0841 7.69 31.3041 6.75 33.7441 6.75C35.9741 6.75 38.1041 7.63 39.9041 9.3C41.6141 10.88 42.5441 13.1 42.5441 15.55C42.5441 17.84 41.5941 20.1 39.9441 21.75L31.9441 29.75C31.0741 30.62 30.2041 31.22 29.1341 31.7C29.0841 31.72 29.0341 31.74 28.9841 31.76C27.7941 32.15 26.7341 32.35 25.7441 32.35Z" fill="#1F2024"/>
<path d="M15.7441 41.25C13.4541 41.25 11.1941 40.3 9.54409 38.65C7.89409 37 6.94409 34.74 6.94409 32.45C6.94409 30.16 7.89409 27.9 9.54409 26.25L17.5441 18.25C18.4141 17.38 19.2841 16.77 20.3541 16.3C20.4041 16.28 20.4541 16.26 20.5041 16.24C21.6941 15.84 22.7541 15.65 23.7441 15.65C24.5741 15.65 25.8341 15.72 27.1341 16.3C28.2041 16.78 29.0741 17.38 29.9441 18.25C30.6041 18.91 30.6041 19.99 29.9441 20.65C29.2841 21.31 28.2041 21.31 27.5441 20.65C26.9741 20.08 26.4341 19.7 25.7541 19.4C25.1941 19.15 24.5941 19.05 23.7441 19.05C23.1441 19.05 22.4641 19.18 21.6641 19.44C21.0141 19.74 20.5041 20.1 19.9541 20.66L11.9441 28.65C10.9241 29.67 10.3441 31.05 10.3441 32.45C10.3441 33.85 10.9241 35.23 11.9441 36.25C12.9641 37.27 14.3441 37.85 15.7441 37.85C17.2341 37.85 18.5641 37.3 19.4941 36.29L20.5341 35.24C21.1941 34.58 22.2741 34.58 22.9341 35.24C23.5941 35.9 23.5941 36.98 22.9341 37.64L21.9341 38.64C20.3941 40.3 18.1741 41.24 15.7341 41.24L15.7441 41.25Z" fill="#1F2024"/>
</svg>
