<svg width="49" height="48" viewBox="0 0 49 48" fill="none" xmlns="http://www.w3.org/2000/svg">
<path d="M25.7439 32.67C24.6039 32.67 23.5039 32.45 22.4539 32.01C21.4039 31.57 20.4739 30.93 19.6739 30.12C19.0939 29.53 19.1039 28.58 19.6939 28C20.2839 27.42 21.2339 27.43 21.8139 28.02C22.3239 28.54 22.9339 28.96 23.6139 29.24C24.9639 29.81 26.5139 29.81 27.8739 29.24C28.5539 28.95 29.1539 28.54 29.6739 28.02L37.6839 20.01C38.7339 18.96 39.3139 17.56 39.3139 16.07C39.3139 14.58 38.7239 13.17 37.6839 12.13C36.6339 11.08 35.2339 10.5 33.7439 10.5C32.2539 10.5 30.8539 11.08 29.8039 12.13L28.8039 13.13C28.2139 13.72 27.2639 13.72 26.6839 13.13C26.1039 12.54 26.0939 11.59 26.6839 11.01L27.6839 10.01C29.3039 8.39 31.4539 7.5 33.7439 7.5C36.0339 7.5 38.1839 8.39 39.8039 10.01C41.4039 11.6 42.3139 13.81 42.3139 16.07C42.3139 18.33 41.4239 20.51 39.8039 22.13L31.8039 30.13C31.0239 30.93 30.0839 31.57 29.0339 32.01C27.9839 32.45 26.8739 32.67 25.7439 32.67Z" fill="#1F2024"/>
<path d="M15.7438 41.57C13.4538 41.57 11.3038 40.68 9.68383 39.06C8.06383 37.44 7.17383 35.29 7.17383 33C7.17383 30.71 8.06383 28.56 9.68383 26.94L17.6838 18.94C18.4738 18.14 19.4038 17.5 20.4538 17.06C22.5538 16.18 24.9438 16.18 27.0438 17.06C28.0938 17.5 29.0238 18.13 29.8238 18.95C30.4038 19.54 30.3938 20.49 29.8038 21.07C29.2138 21.65 28.2638 21.64 27.6838 21.05C27.1638 20.52 26.5638 20.11 25.8838 19.83C24.5238 19.26 22.9738 19.26 21.6238 19.83C20.9438 20.11 20.3438 20.53 19.8238 21.05L11.8138 29.06C10.7638 30.11 10.1838 31.51 10.1838 33C10.1838 34.49 10.7638 35.89 11.8138 36.94C12.8638 37.99 14.2638 38.57 15.7538 38.57C17.2438 38.57 18.6438 37.99 19.6938 36.94L20.6938 35.94C21.2838 35.35 22.2338 35.35 22.8138 35.94C23.3938 36.53 23.4038 37.48 22.8138 38.06L21.8138 39.06C20.1938 40.68 18.0438 41.57 15.7538 41.57H15.7438Z" fill="#1F2024"/>
</svg>
