<svg width="49" height="48" viewBox="0 0 49 48" fill="none" xmlns="http://www.w3.org/2000/svg">
<path d="M22.0443 34.63H15.3243C12.2343 34.63 9.31426 33.55 7.11426 31.58C4.89426 29.6 3.61426 26.83 3.61426 24C3.61426 21.17 4.88426 18.4 7.11426 16.42C9.31426 14.45 12.2343 13.37 15.3243 13.37H22.0443C22.9443 13.37 23.6743 14.1 23.6743 15C23.6743 15.9 22.9443 16.63 22.0443 16.63H15.3243C13.0643 16.63 10.8643 17.44 9.28426 18.85C7.73426 20.24 6.87426 22.06 6.87426 24C6.87426 25.94 7.73426 27.76 9.28426 29.15C10.8643 30.56 13.0643 31.37 15.3243 31.37H22.0443C22.9443 31.37 23.6743 32.1 23.6743 33C23.6743 33.9 22.9443 34.63 22.0443 34.63Z" fill="#1F2024"/>
<path d="M35.9643 34.63H29.2443C28.3443 34.63 27.6143 33.9 27.6143 33C27.6143 32.1 28.3443 31.37 29.2443 31.37H35.9643C38.2243 31.37 40.4243 30.56 42.0043 29.15C43.5543 27.76 44.4143 25.94 44.4143 24C44.4143 22.06 43.5643 20.24 42.0043 18.85C40.4243 17.44 38.2243 16.63 35.9643 16.63H29.2443C28.3443 16.63 27.6143 15.9 27.6143 15C27.6143 14.1 28.3443 13.37 29.2443 13.37H35.9643C39.0543 13.37 41.9743 14.45 44.1743 16.42C46.3943 18.41 47.6743 21.17 47.6743 24C47.6743 26.83 46.4043 29.6 44.1743 31.58C41.9643 33.55 39.0543 34.63 35.9543 34.63H35.9643Z" fill="#1F2024"/>
<path d="M35.2543 25.63H16.0543C15.1543 25.63 14.4243 24.9 14.4243 24C14.4243 23.1 15.1543 22.37 16.0543 22.37H35.2543C36.1543 22.37 36.8843 23.1 36.8843 24C36.8843 24.9 36.1543 25.63 35.2543 25.63Z" fill="#1F2024"/>
</svg>
