<svg width="48" height="48" viewBox="0 0 48 48" fill="none" xmlns="http://www.w3.org/2000/svg">
<path d="M21.3001 34.63H14.5801C11.4901 34.63 8.57012 33.55 6.37012 31.58C4.15012 29.6 2.87012 26.83 2.87012 24C2.87012 21.17 4.14012 18.4 6.37012 16.42C8.57012 14.45 11.4901 13.37 14.5801 13.37H21.3001C22.2001 13.37 22.9301 14.1 22.9301 15C22.9301 15.9 22.2001 16.63 21.3001 16.63H14.5801C12.3201 16.63 10.1201 17.44 8.54012 18.85C6.99012 20.24 6.13012 22.06 6.13012 24C6.13012 25.94 6.99012 27.76 8.54012 29.15C10.1201 30.56 12.3201 31.37 14.5801 31.37H21.3001C22.2001 31.37 22.9301 32.1 22.9301 33C22.9301 33.9 22.2001 34.63 21.3001 34.63Z" fill="black"/>
<path d="M35.2201 34.63H28.5001C27.6001 34.63 26.8701 33.9 26.8701 33C26.8701 32.1 27.6001 31.37 28.5001 31.37H35.2201C37.4801 31.37 39.6801 30.56 41.2601 29.15C42.8101 27.76 43.6701 25.94 43.6701 24C43.6701 22.06 42.8201 20.24 41.2601 18.85C39.6801 17.44 37.4801 16.63 35.2201 16.63H28.5001C27.6001 16.63 26.8701 15.9 26.8701 15C26.8701 14.1 27.6001 13.37 28.5001 13.37H35.2201C38.3101 13.37 41.2301 14.45 43.4301 16.42C45.6501 18.41 46.9301 21.17 46.9301 24C46.9301 26.83 45.6601 29.6 43.4301 31.58C41.2201 33.55 38.3101 34.63 35.2101 34.63H35.2201Z" fill="black"/>
<path d="M34.5102 25.63H15.3102C14.4102 25.63 13.6802 24.9 13.6802 24C13.6802 23.1 14.4102 22.37 15.3102 22.37H34.5102C35.4102 22.37 36.1402 23.1 36.1402 24C36.1402 24.9 35.4102 25.63 34.5102 25.63Z" fill="black"/>
</svg>
