<svg width="49" height="48" viewBox="0 0 49 48" fill="none" xmlns="http://www.w3.org/2000/svg">
<path fill-rule="evenodd" clip-rule="evenodd" d="M27.8805 9.71653C29.4301 8.05771 31.5547 7.25 33.7441 7.25C36.0034 7.25 37.9838 8.20641 39.5606 9.67065C41.2309 11.2216 42.0441 13.3531 42.0441 15.55C42.0441 17.7861 41.1048 19.8864 39.5926 21.3985L31.5926 29.3985C30.799 30.1922 29.979 30.781 28.9315 31.2466C28.8962 31.2623 28.8602 31.2762 28.8236 31.2884C27.8537 31.6117 26.8187 31.85 25.7441 31.85C24.7555 31.85 23.669 31.7409 22.5567 31.2466C21.5092 30.781 20.6892 30.1922 19.8956 29.3985C19.4269 28.9299 19.4269 28.1701 19.8956 27.7015C20.3642 27.2328 21.124 27.2328 21.5926 27.7015C22.199 28.3078 22.779 28.719 23.5315 29.0534C24.2191 29.3591 24.9327 29.45 25.7441 29.45C26.4531 29.45 27.2001 29.2955 28.0087 29.0301C28.7361 28.6999 29.3032 28.2938 29.8956 27.7015L37.8956 19.7015C38.9834 18.6136 39.6441 17.1139 39.6441 15.55C39.6441 13.9469 39.0573 12.4784 37.9276 11.4294C36.7044 10.2936 35.2848 9.65 33.7441 9.65C32.141 9.65 30.6725 10.2368 29.6234 11.3665C29.6134 11.3774 29.6031 11.3881 29.5926 11.3985L28.5926 12.3985C28.124 12.8672 27.3642 12.8672 26.8956 12.3985C26.4269 11.9299 26.4269 11.1701 26.8956 10.7015L27.8805 9.71653ZM20.6646 16.7116C21.6344 16.3883 22.6694 16.15 23.7441 16.15C24.7327 16.15 25.8191 16.2591 26.9315 16.7534C27.979 17.219 28.799 17.8078 29.5926 18.6015C30.0613 19.0701 30.0613 19.8299 29.5926 20.2985C29.124 20.7672 28.3642 20.7672 27.8956 20.2985C27.2892 19.6922 26.7092 19.281 25.9567 18.9466C25.269 18.6409 24.5555 18.55 23.7441 18.55C23.035 18.55 22.2881 18.7045 21.4795 18.9699C20.7521 19.3002 20.1849 19.7062 19.5926 20.2985L11.5926 28.2985C10.5047 29.3864 9.84409 30.8861 9.84409 32.45C9.84409 34.0139 10.5047 35.5136 11.5926 36.6015C12.6805 37.6893 14.1802 38.35 15.7441 38.35C17.3472 38.35 18.8157 37.7632 19.8647 36.6335C19.8748 36.6226 19.8851 36.6119 19.8956 36.6015L20.8956 35.6015C21.3642 35.1328 22.124 35.1328 22.5926 35.6015C23.0612 36.0701 23.0612 36.8299 22.5926 37.2985L21.6077 38.2835C20.0581 39.9423 17.9335 40.75 15.7441 40.75C13.508 40.75 11.4077 39.8107 9.89556 38.2985C8.38344 36.7864 7.44409 34.6861 7.44409 32.45C7.44409 30.2139 8.38344 28.1136 9.89556 26.6015L17.8956 18.6015C18.6892 17.8078 19.5092 17.219 20.5567 16.7534C20.592 16.7378 20.628 16.7238 20.6646 16.7116Z" fill="#1F2024"/>
</svg>
