<svg width="49" height="48" viewBox="0 0 49 48" fill="none" xmlns="http://www.w3.org/2000/svg">
<path d="M25.7443 32.35C24.9143 32.35 23.6643 32.28 22.3543 31.7C21.2843 31.22 20.4143 30.62 19.5443 29.75C18.8843 29.09 18.8843 28.01 19.5443 27.35C20.2043 26.69 21.2843 26.69 21.9443 27.35C22.5143 27.92 23.0543 28.3 23.7343 28.6C24.2943 28.85 24.8943 28.95 25.7443 28.95C26.3443 28.95 27.0243 28.82 27.8243 28.56C28.4743 28.26 28.9843 27.9 29.5343 27.34L37.5343 19.34C38.5543 18.32 39.1343 16.94 39.1343 15.54C39.1343 14.05 38.5843 12.72 37.5743 11.79C36.3943 10.7 35.1043 10.14 33.7343 10.14C32.2443 10.14 30.9143 10.69 29.9843 11.7L28.9443 12.75C28.2843 13.41 27.2043 13.41 26.5443 12.75C25.8843 12.09 25.8843 11.01 26.5443 10.35L27.5443 9.35C29.0843 7.69 31.3043 6.75 33.7443 6.75C35.9743 6.75 38.1043 7.63 39.9043 9.3C41.6143 10.88 42.5443 13.1 42.5443 15.55C42.5443 17.84 41.5943 20.1 39.9443 21.75L31.9443 29.75C31.0743 30.62 30.2043 31.22 29.1343 31.7C29.0843 31.72 29.0343 31.74 28.9843 31.76C27.7943 32.15 26.7343 32.35 25.7443 32.35Z" fill="#1F2024"/>
<path d="M15.7443 41.25C13.4543 41.25 11.1943 40.3 9.54434 38.65C7.89434 37 6.94434 34.74 6.94434 32.45C6.94434 30.16 7.89434 27.9 9.54434 26.25L17.5443 18.25C18.4143 17.38 19.2843 16.77 20.3543 16.3C20.4043 16.28 20.4543 16.26 20.5043 16.24C21.6943 15.84 22.7543 15.65 23.7443 15.65C24.5743 15.65 25.8343 15.72 27.1343 16.3C28.2043 16.78 29.0743 17.38 29.9443 18.25C30.6043 18.91 30.6043 19.99 29.9443 20.65C29.2843 21.31 28.2043 21.31 27.5443 20.65C26.9743 20.08 26.4343 19.7 25.7543 19.4C25.1943 19.15 24.5943 19.05 23.7443 19.05C23.1443 19.05 22.4643 19.18 21.6643 19.44C21.0143 19.74 20.5043 20.1 19.9543 20.66L11.9443 28.65C10.9243 29.67 10.3443 31.05 10.3443 32.45C10.3443 33.85 10.9243 35.23 11.9443 36.25C12.9643 37.27 14.3443 37.85 15.7443 37.85C17.2343 37.85 18.5643 37.3 19.4943 36.29L20.5343 35.24C21.1943 34.58 22.2743 34.58 22.9343 35.24C23.5943 35.9 23.5943 36.98 22.9343 37.64L21.9343 38.64C20.3943 40.3 18.1743 41.24 15.7343 41.24L15.7443 41.25Z" fill="#1F2024"/>
</svg>
