<svg width="49" height="48" viewBox="0 0 49 48" fill="none" xmlns="http://www.w3.org/2000/svg">
<path d="M21.1442 34.33H14.4442C11.4142 34.33 8.57416 33.29 6.45416 31.39C4.26416 29.43 3.01416 26.74 3.01416 24C3.01416 21.26 4.26416 18.57 6.45416 16.61C8.54416 14.74 11.4542 13.67 14.4442 13.67H21.1442C21.8742 13.67 22.4742 14.27 22.4742 15C22.4742 15.73 21.8742 16.33 21.1442 16.33H14.4442C12.1042 16.33 9.83416 17.15 8.23416 18.59C6.61416 20.04 5.67416 22.01 5.67416 24C5.67416 25.99 6.60416 27.96 8.23416 29.41C9.86416 30.87 12.0742 31.67 14.4442 31.67H21.1442C21.8742 31.67 22.4742 32.27 22.4742 33C22.4742 33.73 21.8742 34.33 21.1442 34.33Z" fill="#1F2024"/>
<path d="M35.0442 34.33H28.3442C27.6142 34.33 27.0142 33.73 27.0142 33C27.0142 32.27 27.6142 31.67 28.3442 31.67H35.0442C37.3842 31.67 39.6542 30.85 41.2542 29.41C42.8742 27.96 43.8142 25.99 43.8142 24C43.8142 22.01 42.8842 20.04 41.2542 18.59C39.6242 17.13 37.4142 16.33 35.0442 16.33H28.3442C27.6142 16.33 27.0142 15.73 27.0142 15C27.0142 14.27 27.6142 13.67 28.3442 13.67H35.0442C38.0742 13.67 40.9142 14.71 43.0342 16.61C45.2242 18.57 46.4742 21.26 46.4742 24C46.4742 26.74 45.2242 29.43 43.0342 31.39C40.9442 33.26 38.0342 34.33 35.0442 34.33Z" fill="#1F2024"/>
<path d="M34.3442 25.33H15.1442C14.4142 25.33 13.8142 24.73 13.8142 24C13.8142 23.27 14.4142 22.67 15.1442 22.67H34.3442C35.0742 22.67 35.6742 23.27 35.6742 24C35.6742 24.73 35.0742 25.33 34.3442 25.33Z" fill="#1F2024"/>
</svg>
