<svg width="49" height="48" viewBox="0 0 49 48" fill="none" xmlns="http://www.w3.org/2000/svg">
<path d="M21.1442 34.3299H14.4442C11.4142 34.3299 8.57416 33.2899 6.45416 31.3899C4.26416 29.4299 3.01416 26.7399 3.01416 23.9999C3.01416 21.2599 4.26416 18.5699 6.45416 16.6099C8.54416 14.7399 11.4542 13.6699 14.4442 13.6699H21.1442C21.8742 13.6699 22.4742 14.2699 22.4742 14.9999C22.4742 15.7299 21.8742 16.3299 21.1442 16.3299H14.4442C12.1042 16.3299 9.83416 17.1499 8.23416 18.5899C6.61416 20.0399 5.67416 22.0099 5.67416 23.9999C5.67416 25.9899 6.60416 27.9599 8.23416 29.4099C9.86416 30.8699 12.0742 31.6699 14.4442 31.6699H21.1442C21.8742 31.6699 22.4742 32.2699 22.4742 32.9999C22.4742 33.7299 21.8742 34.3299 21.1442 34.3299Z" fill="#1F2024"/>
<path d="M35.0442 34.3299H28.3442C27.6142 34.3299 27.0142 33.7299 27.0142 32.9999C27.0142 32.2699 27.6142 31.6699 28.3442 31.6699H35.0442C37.3842 31.6699 39.6542 30.8499 41.2542 29.4099C42.8742 27.9599 43.8142 25.9899 43.8142 23.9999C43.8142 22.0099 42.8842 20.0399 41.2542 18.5899C39.6242 17.1299 37.4142 16.3299 35.0442 16.3299H28.3442C27.6142 16.3299 27.0142 15.7299 27.0142 14.9999C27.0142 14.2699 27.6142 13.6699 28.3442 13.6699H35.0442C38.0742 13.6699 40.9142 14.7099 43.0342 16.6099C45.2242 18.5699 46.4742 21.2599 46.4742 23.9999C46.4742 26.7399 45.2242 29.4299 43.0342 31.3899C40.9442 33.2599 38.0342 34.3299 35.0442 34.3299Z" fill="#1F2024"/>
<path d="M34.3442 25.3299H15.1442C14.4142 25.3299 13.8142 24.7299 13.8142 23.9999C13.8142 23.2699 14.4142 22.6699 15.1442 22.6699H34.3442C35.0742 22.6699 35.6742 23.2699 35.6742 23.9999C35.6742 24.7299 35.0742 25.3299 34.3442 25.3299Z" fill="#1F2024"/>
</svg>
