<svg width="48" height="48" viewBox="0 0 48 48" fill="none" xmlns="http://www.w3.org/2000/svg">
<path d="M23.9999 44.75C23.4199 44.75 23.0299 44.55 22.7699 44.42C22.2499 44.16 21.9599 43.64 21.7299 43.18C21.6899 43.1 21.6599 43.01 21.6399 42.92C19.6599 34.69 16.3999 30.46 13.7699 27.06C11.4199 24.03 9.3999 21.41 9.3999 17.25C9.3999 9.53 15.9499 3.25 23.9999 3.25C32.0499 3.25 38.5999 9.53 38.5999 17.25C38.5999 21.41 36.5799 24.03 34.2299 27.07C31.6099 30.46 28.3599 34.68 26.3799 42.86C26.2799 43.56 25.6799 44.2 25.2299 44.42C25.0699 44.5 24.5299 44.75 23.9899 44.75H23.9999ZM24.0299 42.37C24.0299 42.37 24.0299 42.37 24.0299 42.38C24.0299 42.38 24.0299 42.38 24.0299 42.37ZM23.9299 42.24C23.9299 42.24 23.9699 42.32 23.9899 42.36C23.9899 42.36 24.0099 42.35 24.0399 42.34C26.1399 33.64 29.5699 29.19 32.3299 25.61C34.5699 22.7 36.1999 20.6 36.1999 17.26C36.1999 10.86 30.7299 5.66 23.9999 5.66C17.2699 5.66 11.7999 10.85 11.7999 17.25C11.7999 20.59 13.4199 22.69 15.6699 25.6C18.4199 29.16 21.8399 33.59 23.9399 42.23L23.9299 42.24Z" fill="#1F2024"/>
<path d="M23.9997 22.5499C26.5997 22.5499 28.7997 20.45 28.7997 17.75C28.7997 15.05 26.6997 12.95 23.9997 12.95C21.2997 12.95 19.1997 15.05 19.1997 17.75C19.1997 20.45 21.3997 22.5499 23.9997 22.5499Z" fill="#1F2024"/>
</svg>
