<svg width="48" height="48" viewBox="0 0 48 48" fill="none" xmlns="http://www.w3.org/2000/svg">
<path d="M23.9999 45.25C23.2999 45.25 22.7999 45 22.5399 44.87C21.8399 44.52 21.4799 43.8 21.2799 43.41C21.2199 43.29 21.1799 43.17 21.1499 43.05C19.1999 34.92 15.9699 30.74 13.3699 27.38C10.9699 24.27 8.8999 21.58 8.8999 17.25C8.8999 9.25 15.6699 2.75 23.9999 2.75C32.3299 2.75 39.0999 9.25 39.0999 17.25C39.0999 21.58 37.0299 24.27 34.6299 27.37C32.0399 30.72 28.8299 34.89 26.8699 42.97C26.7299 43.79 26.0699 44.57 25.4599 44.87C25.2399 44.98 24.6399 45.25 23.9999 45.25ZM23.5099 42.48C23.5099 42.53 23.5099 42.59 23.5099 42.65C23.5099 42.59 23.5099 42.54 23.5099 42.48ZM24.0099 6.15C17.5499 6.15 12.2999 11.13 12.2999 17.25C12.2999 20.42 13.7999 22.36 16.0599 25.3C18.6599 28.67 21.8599 32.81 23.9999 40.51C26.1399 32.81 29.3399 28.67 31.9399 25.3C34.1999 22.37 35.6999 20.43 35.6999 17.25C35.6999 11.13 30.4499 6.15 23.9999 6.15H24.0099Z" fill="#1F2024"/>
<path d="M24 22.95C26.8 22.95 29 20.75 29 17.95C29 15.15 26.8 12.95 24 12.95C21.2 12.95 19 15.15 19 17.95C19 20.75 21.2 22.95 24 22.95Z" fill="#1F2024"/>
</svg>
