<svg width="48" height="48" viewBox="0 0 48 48" fill="none" xmlns="http://www.w3.org/2000/svg">
<path d="M25.223 41.2039C25.063 41.2039 24.903 41.1839 24.733 41.1539C23.543 40.9239 22.703 39.9139 22.703 38.6939V25.2939H9.30296C8.11296 25.2939 7.13296 24.5339 6.86296 23.3939C6.59296 22.2539 7.16296 21.0839 8.23296 20.5439L37.673 7.03388C38.563 6.58388 39.703 6.78388 40.463 7.53388C41.223 8.28388 41.413 9.40387 40.963 10.3339L27.473 39.7139C27.113 40.6139 26.223 41.1939 25.223 41.1939V41.2039ZM24.733 38.5039C24.733 38.5039 24.723 38.5239 24.713 38.5439L24.733 38.5039ZM11.623 22.2939H23.503C24.083 22.2939 24.673 22.5339 25.073 22.9339C25.463 23.3239 25.703 23.9139 25.703 24.4939V36.3739L37.653 10.3439L11.623 22.2939ZM38.973 9.73388H38.943C38.943 9.73388 38.963 9.73388 38.973 9.73388Z" fill="#1F2024"/>
</svg>
