<svg width="48" height="48" viewBox="0 0 48 48" fill="none" xmlns="http://www.w3.org/2000/svg">
<path d="M25.2232 40.9069C25.0832 40.9069 24.9332 40.8969 24.7932 40.8669C23.7432 40.6669 23.0032 39.7769 23.0032 38.6969V24.9969H9.30316C8.25316 24.9969 7.38316 24.3269 7.15316 23.3269C6.91316 22.3069 7.40316 21.2969 8.36316 20.8169L37.8032 7.30691C38.6032 6.90691 39.5732 7.07691 40.2532 7.74691C40.9232 8.41691 41.0932 9.37691 40.6932 10.2069L27.2032 39.5869C26.8832 40.3769 26.1032 40.8969 25.2332 40.8969L25.2232 40.9069ZM24.9932 38.6369C24.9932 38.6369 24.9932 38.6369 24.9932 38.6469V38.6369ZM10.2532 22.5969H23.5032C23.9932 22.5969 24.5132 22.8069 24.8532 23.1569C25.1932 23.4869 25.4032 24.0069 25.4032 24.4969V37.7469L38.2632 9.73691L10.2532 22.5969ZM38.8432 9.47691H38.8332C38.8332 9.47691 38.8332 9.47691 38.8432 9.47691Z" fill="#1F2024"/>
</svg>
