<svg width="48" height="48" viewBox="0 0 48 48" fill="none" xmlns="http://www.w3.org/2000/svg">
<path d="M24.0001 45.0499C23.3501 45.0499 22.9001 44.83 22.6301 44.69C22.0301 44.39 21.7101 43.82 21.4601 43.32C21.4101 43.22 21.3701 43.11 21.3401 43C19.3801 34.83 16.1301 30.63 13.5301 27.25C11.1501 24.17 9.1001 21.51 9.1001 17.25C9.1001 9.36995 15.7801 2.94995 24.0001 2.94995C32.2201 2.94995 38.9001 9.36995 38.9001 17.25C38.9001 21.51 36.8501 24.17 34.4701 27.25C31.8701 30.6199 28.6401 34.8 26.6801 42.92C26.5601 43.67 25.9501 44.4 25.3801 44.69C25.2101 44.78 24.6101 45.0499 24.0001 45.0499ZM24.0001 5.94995C17.4401 5.94995 12.1001 11.02 12.1001 17.25C12.1001 20.49 13.7001 22.5599 15.9001 25.42C18.5701 28.88 21.8701 33.15 24.0001 41.27C26.1301 33.15 29.4301 28.88 32.1001 25.42C34.3101 22.5599 35.9001 20.49 35.9001 17.25C35.9001 11.02 30.5601 5.94995 24.0001 5.94995Z" fill="#1F2024"/>
<path d="M24 22.85C26.7 22.85 29 20.65 29 17.85C29 15.05 26.8 12.85 24 12.85C21.2 12.85 19 15.05 19 17.85C19 20.65 21.3 22.85 24 22.85Z" fill="#1F2024"/>
</svg>
