<svg width="48" height="48" viewBox="0 0 48 48" fill="none" xmlns="http://www.w3.org/2000/svg">
<path d="M25.2298 41.4023C25.0598 41.4023 24.8798 41.3823 24.6998 41.3523C23.4098 41.1023 22.5098 40.0123 22.5098 38.6923V25.4923H9.30977C8.01977 25.4923 6.95976 24.6723 6.66976 23.4423C6.37976 22.2123 6.98976 20.9523 8.14976 20.3723L37.5998 6.85226C38.5598 6.37226 39.7898 6.58226 40.6098 7.39226C41.4198 8.20226 41.6298 9.41226 41.1398 10.4223L27.6498 39.8023C27.2598 40.7723 26.2998 41.4023 25.2198 41.4023H25.2298ZM24.5598 38.4023C24.5598 38.4023 24.5398 38.4423 24.5398 38.4523L24.5598 38.4023ZM12.5498 22.0923H23.5098C24.1398 22.0923 24.7798 22.3523 25.2198 22.7923C25.6498 23.2223 25.9098 23.8623 25.9098 24.4923V35.4623L37.2498 10.7423L12.5498 22.0923ZM39.0698 9.91226L39.0298 9.93226C39.0298 9.93226 39.0598 9.92226 39.0698 9.91226Z" fill="#1F2024"/>
</svg>
