<svg width="48" height="48" viewBox="0 0 48 48" fill="none" xmlns="http://www.w3.org/2000/svg">
<path d="M24.2234 41.9069C24.0834 41.9069 23.9334 41.8969 23.7934 41.8669C22.7434 41.6669 22.0034 40.7769 22.0034 39.6969V25.9969H8.3034C7.2534 25.9969 6.3834 25.3269 6.1534 24.3269C5.9134 23.3069 6.4034 22.2969 7.3634 21.8169L36.8034 8.30691C37.6034 7.90691 38.5734 8.07691 39.2534 8.74691C39.9234 9.41691 40.0934 10.3769 39.6934 11.2069L26.2034 40.5869C25.8834 41.3769 25.1034 41.8969 24.2334 41.8969L24.2234 41.9069ZM23.9934 39.6369C23.9934 39.6369 23.9934 39.6369 23.9934 39.6469V39.6369ZM9.2534 23.5969H22.5034C22.9934 23.5969 23.5134 23.8069 23.8534 24.1569C24.1934 24.4869 24.4034 25.0069 24.4034 25.4969V38.7469L37.2634 10.7369L9.2534 23.5969ZM37.8434 10.4769H37.8334C37.8334 10.4769 37.8334 10.4769 37.8434 10.4769Z" fill="#1F2024"/>
</svg>
