<svg width="48" height="48" viewBox="0 0 48 48" fill="none" xmlns="http://www.w3.org/2000/svg">
<path d="M25.223 41.204C25.063 41.204 24.903 41.184 24.733 41.154C23.543 40.924 22.703 39.914 22.703 38.694V25.294H9.30296C8.11296 25.294 7.13296 24.534 6.86296 23.394C6.59296 22.254 7.16296 21.084 8.23296 20.544L37.673 7.034C38.563 6.584 39.703 6.784 40.463 7.534C41.223 8.284 41.413 9.404 40.963 10.334L27.473 39.714C27.113 40.614 26.223 41.194 25.223 41.194V41.204ZM24.733 38.504C24.733 38.504 24.723 38.524 24.713 38.544L24.733 38.504ZM11.623 22.294H23.503C24.083 22.294 24.673 22.534 25.073 22.934C25.463 23.324 25.703 23.914 25.703 24.494V36.374L37.653 10.344L11.623 22.294ZM38.973 9.734H38.943C38.943 9.734 38.963 9.734 38.973 9.734Z" fill="#1F2024"/>
</svg>
