<svg width="48" height="48" viewBox="0 0 48 48" fill="none" xmlns="http://www.w3.org/2000/svg">
<path d="M24.223 42.2039C24.063 42.2039 23.903 42.1839 23.733 42.1539C22.543 41.9239 21.703 40.9139 21.703 39.6939V26.2939H8.30296C7.11296 26.2939 6.13296 25.5339 5.86296 24.3939C5.59296 23.2539 6.16296 22.0839 7.23296 21.5439L36.673 8.03388C37.563 7.58388 38.703 7.78388 39.463 8.53388C40.223 9.28388 40.413 10.4039 39.963 11.3339L26.473 40.7139C26.113 41.6139 25.223 42.1939 24.223 42.1939V42.2039ZM23.733 39.5039C23.733 39.5039 23.723 39.5239 23.713 39.5439L23.733 39.5039ZM10.623 23.2939H22.503C23.083 23.2939 23.673 23.5339 24.073 23.9339C24.463 24.3239 24.703 24.9139 24.703 25.4939V37.3739L36.653 11.3439L10.623 23.2939ZM37.973 10.7339H37.943C37.943 10.7339 37.963 10.7339 37.973 10.7339Z" fill="#1F2024"/>
</svg>
