<svg width="48" height="48" viewBox="0 0 48 48" fill="none" xmlns="http://www.w3.org/2000/svg">
<path d="M23.995 2.95508C15.785 2.95508 9.10498 9.36508 9.10498 17.2451C9.10498 21.5051 11.155 24.1651 13.535 27.2451C16.145 30.6251 19.385 34.8251 21.345 42.9951C21.375 43.1051 21.415 43.2151 21.465 43.3151C21.715 43.8151 22.035 44.3851 22.635 44.6851C22.905 44.8151 23.345 45.0451 23.995 45.0451C24.595 45.0451 25.195 44.7751 25.365 44.6851C25.935 44.3951 26.535 43.6751 26.665 42.9251C28.635 34.8051 31.865 30.6151 34.465 27.2551C36.845 24.1751 38.895 21.5151 38.895 17.2551C38.885 9.36508 32.205 2.95508 23.995 2.95508ZM23.995 22.8451C21.295 22.8451 18.995 20.6451 18.995 17.8451C18.995 15.0451 21.195 12.8451 23.995 12.8451C26.795 12.8451 28.995 15.0451 28.995 17.8451C28.995 20.6451 26.695 22.8451 23.995 22.8451Z" fill="#1F2024"/>
</svg>
