<svg width="48" height="48" viewBox="0 0 48 48" fill="none" xmlns="http://www.w3.org/2000/svg">
<path d="M24.23 42.4023C24.06 42.4023 23.88 42.3823 23.7 42.3523C22.41 42.1023 21.51 41.0123 21.51 39.6923V26.4923H8.31001C7.02001 26.4923 5.96001 25.6723 5.67001 24.4423C5.38001 23.2123 5.99001 21.9523 7.15001 21.3723L36.6 7.85226C37.56 7.37226 38.79 7.58226 39.61 8.39226C40.42 9.20226 40.63 10.4123 40.14 11.4223L26.65 40.8023C26.26 41.7723 25.3 42.4023 24.22 42.4023H24.23ZM23.56 39.4023C23.56 39.4023 23.54 39.4423 23.54 39.4523L23.56 39.4023ZM11.55 23.0923H22.51C23.14 23.0923 23.78 23.3523 24.22 23.7923C24.65 24.2223 24.91 24.8623 24.91 25.4923V36.4623L36.25 11.7423L11.55 23.0923ZM38.07 10.9123L38.03 10.9323C38.03 10.9323 38.06 10.9223 38.07 10.9123Z" fill="#1F2024"/>
</svg>
