<svg width="48" height="48" viewBox="0 0 48 48" fill="none" xmlns="http://www.w3.org/2000/svg">
<path d="M9.41258 38.9959C11.9701 41.5534 15.2497 43.5393 18.439 44.472C21.9895 45.495 24.9682 45.0738 26.8637 43.2986C26.8637 43.2986 26.8938 43.2986 26.9239 43.2685C32.7911 38.2437 36.161 32.1057 36.4017 25.9377C36.492 23.651 35.7999 20.582 35.0477 18.6563L36.7026 17.0315C37.0937 16.6103 38.1167 17.182 38.6282 17.3324C40.3132 17.874 42.1486 17.3926 43.3521 16.0988C43.9539 15.497 44.3751 14.7749 44.5857 13.9325C45.2777 11.375 43.7131 8.84755 41.2158 8.12543C40.5539 7.91482 40.0123 7.37323 39.8318 6.6812C39.6211 5.86882 39.2902 4.96617 38.7185 4.3644C37.8159 3.46176 36.6725 2.98035 35.4088 2.98035H35.3486C34.0849 2.98035 32.8814 3.52193 32.0389 4.45467C30.8053 5.71838 30.354 7.55376 30.8354 9.20861C30.9858 9.81037 31.5575 10.6829 31.1062 11.1343L29.6619 12.8493C27.9168 12.0971 25.0585 11.405 22.9824 11.405C22.7717 11.405 22.531 11.405 22.3204 11.405C16.2426 11.6458 10.0745 15.136 4.92943 21.2439C4.92943 21.2439 4.89934 21.274 4.89934 21.3041C1.16841 25.3058 4.2374 33.7606 9.41258 38.9358V38.9959ZM22.0496 42.0349C21.2372 42.0349 20.3045 41.8844 19.2815 41.5835C16.5736 40.8012 13.7453 39.0862 11.5488 36.8898C7.09578 32.4367 4.89934 25.6067 7.15596 23.3501C9.41258 21.0935 16.2426 23.2899 20.6957 27.743C22.8921 29.9394 24.6071 32.7677 25.3894 35.4756C26.1115 37.9729 25.931 40.019 24.8779 41.072C24.2461 41.7039 23.2832 42.0048 22.0496 42.0048V42.0349Z" fill="#1F2024"/>
<path d="M15.221 29.3374C14.6493 29.3374 14.1378 29.548 13.7467 29.9091C13.175 30.4807 12.9944 31.3232 13.2953 32.2259C13.4759 32.7975 13.8369 33.3692 14.3183 33.8506C14.7997 34.332 15.3714 34.6931 15.9431 34.9037C16.8457 35.2046 17.6882 35.0241 18.2599 34.4524C19.2227 33.4896 18.982 31.8347 17.6581 30.5108C16.9059 29.7586 16.0033 29.3374 15.1909 29.3374H15.221Z" fill="#1F2024"/>
</svg>
