<svg width="48" height="48" viewBox="0 0 48 48" fill="none" xmlns="http://www.w3.org/2000/svg">
<path d="M9.41897 38.9534C11.9632 41.4977 15.2487 43.491 18.4341 44.4126C21.99 45.4443 24.965 45.0236 26.8482 43.2506C26.8682 43.2406 26.8882 43.2306 26.8982 43.2105C32.7681 38.2022 36.1337 32.0619 36.3741 25.9116C36.4643 23.6278 36.0936 21.4842 35.3324 19.561L37.0853 17.778C37.486 17.3473 38.077 17.177 38.6078 17.3372C40.3007 17.8681 42.1237 17.3873 43.3358 16.1152C43.9267 15.5242 44.3575 14.783 44.5778 13.9616C45.269 11.4073 43.8166 8.74285 41.3424 8.02164C40.6713 7.8213 40.1404 7.27038 39.9501 6.56921C39.7297 5.75785 39.299 5.0066 38.708 4.41561C37.8165 3.52411 36.6546 3.03329 35.4025 3.03329L35.3324 3.03329C34.0602 3.05332 32.8783 3.58421 32.0168 4.49574C30.7847 5.74783 30.334 7.59092 30.8148 9.2537C30.9751 9.86473 30.8048 10.5158 30.354 10.9566L28.7013 12.6093C26.9684 11.848 25.0251 11.4273 22.9717 11.4273C22.7513 11.4273 22.5209 11.4273 22.3005 11.4374C16.2404 11.6878 10.0701 15.1736 4.94148 21.2538C4.92144 21.2738 4.91143 21.2939 4.90141 21.3139C1.16516 25.3206 4.2403 33.7547 9.41897 38.9334L9.41897 38.9534ZM22.0301 41.9585C21.2087 41.9585 20.2772 41.8182 19.2655 41.5177C16.5509 40.7364 13.7362 39.0235 11.5425 36.8299C7.1051 32.3924 4.89139 25.571 7.15518 23.3072C9.41897 21.0434 16.2404 23.2571 20.6778 27.6946C22.8715 29.8882 24.5844 32.713 25.3657 35.4175C26.0869 37.9217 25.9066 39.9651 24.8548 41.0069C24.2238 41.6379 23.2521 41.9484 22.0201 41.9484L22.0301 41.9585ZM32.4776 13.1102C33.6796 11.9282 34.1604 10.1652 33.7197 8.4724C33.5293 7.81129 33.6996 7.09008 34.1904 6.58924C34.511 6.24867 34.9317 6.05835 35.3724 6.05835L35.3925 6.05835C35.8332 6.05835 36.2439 6.23865 36.5644 6.55919C36.7848 6.77956 36.9451 7.07005 37.0352 7.39059C37.516 9.09344 38.7982 10.4156 40.471 10.9165C41.3925 11.1869 41.9334 12.2087 41.663 13.1903C41.5828 13.5008 41.4125 13.7813 41.1721 14.0317C40.7314 14.4925 40.0903 14.6628 39.4793 14.4724C37.8265 13.9816 36.0636 14.4724 34.9117 15.7045L33.8298 16.8063C33.4192 16.2254 32.9784 15.6745 32.4776 15.1736C32.127 14.823 31.7564 14.5025 31.3657 14.202L32.4676 13.1001L32.4776 13.1102ZM22.4308 14.4624C25.5961 14.3322 28.3907 15.3439 30.354 17.3072C32.4275 19.3807 33.4993 22.3957 33.3691 25.8014C33.2188 29.6378 31.6061 33.5143 28.7413 37.0502C28.6612 36.2689 28.5009 35.4476 28.2505 34.5861C27.329 31.4008 25.3456 28.1153 22.7914 25.571C19.5159 22.2955 14.9282 19.8615 10.9816 19.4608C14.6377 16.3957 18.6344 14.6227 22.4207 14.4624L22.4308 14.4624Z" fill="#1F2024"/>
<path d="M15.2089 29.3071C14.6379 29.3071 14.1171 29.5175 13.7464 29.8881C13.1755 30.459 13.0052 31.3105 13.3057 32.2019C13.496 32.7729 13.8466 33.3338 14.3374 33.8247C14.8282 34.3155 15.3892 34.6761 15.9601 34.8664C16.8516 35.1669 17.7031 34.9966 18.274 34.4257C19.2456 33.454 18.9952 31.8013 17.683 30.4891C16.9318 29.7378 16.0303 29.3071 15.2089 29.3071Z" fill="#1F2024"/>
</svg>
