<svg width="48" height="48" viewBox="0 0 48 48" fill="none" xmlns="http://www.w3.org/2000/svg">
<path d="M39.2698 13.635H8.72984C7.82984 13.635 7.08984 12.905 7.08984 11.995C7.08984 11.085 7.81984 10.365 8.72984 10.365H39.2698C40.1698 10.365 40.9098 11.095 40.9098 12.005C40.9098 12.915 40.1798 13.645 39.2698 13.645V13.635Z" fill="#1F2024"/>
<path d="M39.2698 25.635H8.72984C7.82984 25.635 7.08984 24.905 7.08984 23.995C7.08984 23.085 7.81984 22.355 8.72984 22.355H39.2698C40.1698 22.355 40.9098 23.085 40.9098 23.995C40.9098 24.905 40.1798 25.635 39.2698 25.635Z" fill="#1F2024"/>
<path d="M39.2698 37.635H8.72984C7.82984 37.635 7.08984 36.905 7.08984 35.995C7.08984 35.085 7.81984 34.355 8.72984 34.355H39.2698C40.1698 34.355 40.9098 35.085 40.9098 35.995C40.9098 36.905 40.1798 37.635 39.2698 37.635Z" fill="#1F2024"/>
</svg>
