<svg width="48" height="48" viewBox="0 0 48 48" fill="none" xmlns="http://www.w3.org/2000/svg">
<path d="M39.27 13.635H8.72997C7.82997 13.635 7.08997 12.905 7.08997 11.995C7.08997 11.085 7.81997 10.365 8.72997 10.365H39.27C40.17 10.365 40.91 11.095 40.91 12.005C40.91 12.915 40.18 13.645 39.27 13.645V13.635Z" fill="#1F2024"/>
<path d="M39.27 25.635H8.72997C7.82997 25.635 7.08997 24.905 7.08997 23.995C7.08997 23.085 7.81997 22.355 8.72997 22.355H39.27C40.17 22.355 40.91 23.085 40.91 23.995C40.91 24.905 40.18 25.635 39.27 25.635Z" fill="#1F2024"/>
<path d="M39.27 37.635H8.72997C7.82997 37.635 7.08997 36.905 7.08997 35.995C7.08997 35.085 7.81997 34.355 8.72997 34.355H39.27C40.17 34.355 40.91 35.085 40.91 35.995C40.91 36.905 40.18 37.635 39.27 37.635Z" fill="#1F2024"/>
</svg>
