<svg width="48" height="48" viewBox="0 0 48 48" fill="none" xmlns="http://www.w3.org/2000/svg">
<path d="M39.18 13.27H8.64C7.74 13.27 7 12.54 7 11.63C7 10.72 7.73 10 8.64 10H39.18C40.08 10 40.82 10.73 40.82 11.64C40.82 12.55 40.09 13.28 39.18 13.28V13.27Z" fill="#1F2024"/>
<path d="M39.18 25.27H8.64C7.74 25.27 7 24.54 7 23.63C7 22.72 7.73 21.99 8.64 21.99H39.18C40.08 21.99 40.82 22.72 40.82 23.63C40.82 24.54 40.09 25.27 39.18 25.27Z" fill="#1F2024"/>
<path d="M39.18 37.27H8.64C7.74 37.27 7 36.54 7 35.63C7 34.72 7.73 33.99 8.64 33.99H39.18C40.08 33.99 40.82 34.72 40.82 35.63C40.82 36.54 40.09 37.27 39.18 37.27Z" fill="#1F2024"/>
</svg>
