<svg width="48" height="48" viewBox="0 0 48 48" fill="none" xmlns="http://www.w3.org/2000/svg">
<path d="M8.74999 14.45C7.39999 14.45 6.29999 13.35 6.29999 12C6.29999 10.65 7.39999 9.55005 8.74999 9.55005H39.25C40.6 9.55005 41.7 10.65 41.7 12C41.7 13.35 40.6 14.45 39.25 14.45H8.74999Z" fill="#1F2024"/>
<path d="M8.74999 26.45C7.39999 26.45 6.29999 25.35 6.29999 24C6.29999 22.65 7.39999 21.55 8.74999 21.55H39.25C40.6 21.55 41.7 22.65 41.7 24C41.7 25.35 40.6 26.45 39.25 26.45H8.74999Z" fill="#1F2024"/>
<path d="M8.74999 38.45C7.39999 38.45 6.29999 37.35 6.29999 36C6.29999 34.65 7.39999 33.55 8.74999 33.55H39.25C40.6 33.55 41.7 34.65 41.7 36C41.7 37.35 40.6 38.45 39.25 38.45H8.74999Z" fill="#1F2024"/>
</svg>
