<svg width="48" height="48" viewBox="0 0 48 48" fill="none" xmlns="http://www.w3.org/2000/svg">
<path d="M8.75003 13.335C8.01003 13.335 7.41003 12.735 7.41003 11.995C7.41003 11.255 8.01003 10.665 8.75003 10.665H39.25C39.99 10.665 40.59 11.265 40.59 12.005C40.59 12.745 39.99 13.345 39.25 13.345H8.75003V13.335Z" fill="#1F2024"/>
<path d="M8.75003 25.335C8.01003 25.335 7.41003 24.735 7.41003 23.995C7.41003 23.255 8.01003 22.655 8.75003 22.655H39.25C39.99 22.655 40.59 23.255 40.59 23.995C40.59 24.735 39.99 25.335 39.25 25.335H8.75003Z" fill="#1F2024"/>
<path d="M8.75003 37.335C8.01003 37.335 7.41003 36.735 7.41003 35.995C7.41003 35.255 8.01003 34.655 8.75003 34.655H39.25C39.99 34.655 40.59 35.255 40.59 35.995C40.59 36.735 39.99 37.335 39.25 37.335H8.75003Z" fill="#1F2024"/>
</svg>
