<svg width="48" height="48" viewBox="0 0 48 48" fill="none" xmlns="http://www.w3.org/2000/svg">
<path d="M39.2502 13.3H8.7502C8.0502 13.3 7.4502 12.7 7.4502 12C7.4502 11.3 8.0502 10.7 8.7502 10.7H39.2502C39.9502 10.7 40.5502 11.3 40.5502 12C40.5502 12.7 39.9502 13.3 39.2502 13.3Z" fill="#1F2024"/>
<path d="M39.2502 25.3H8.7502C8.0502 25.3 7.4502 24.7 7.4502 24C7.4502 23.3 8.0502 22.7 8.7502 22.7H39.2502C39.9502 22.7 40.5502 23.3 40.5502 24C40.5502 24.7 39.9502 25.3 39.2502 25.3Z" fill="#1F2024"/>
<path d="M39.2502 37.3H8.7502C8.0502 37.3 7.4502 36.7 7.4502 36C7.4502 35.3 8.0502 34.7 8.7502 34.7H39.2502C39.9502 34.7 40.5502 35.3 40.5502 36C40.5502 36.7 39.9502 37.3 39.2502 37.3Z" fill="#1F2024"/>
</svg>
