<svg width="48" height="48" viewBox="0 0 48 48" fill="none" xmlns="http://www.w3.org/2000/svg">
<path d="M8.75005 14.45C7.40005 14.45 6.30005 13.35 6.30005 12C6.30005 10.65 7.40005 9.55005 8.75005 9.55005H39.25C40.6 9.55005 41.7001 10.65 41.7001 12C41.7001 13.35 40.6 14.45 39.25 14.45H8.75005Z" fill="#1F2024"/>
<path d="M8.75005 26.45C7.40005 26.45 6.30005 25.35 6.30005 24C6.30005 22.65 7.40005 21.55 8.75005 21.55H39.25C40.6 21.55 41.7001 22.65 41.7001 24C41.7001 25.35 40.6 26.45 39.25 26.45H8.75005Z" fill="#1F2024"/>
<path d="M8.75005 38.45C7.40005 38.45 6.30005 37.35 6.30005 36C6.30005 34.65 7.40005 33.55 8.75005 33.55H39.25C40.6 33.55 41.7001 34.65 41.7001 36C41.7001 37.35 40.6 38.45 39.25 38.45H8.75005Z" fill="#1F2024"/>
</svg>
