<svg width="48" height="48" viewBox="0 0 48 48" fill="none" xmlns="http://www.w3.org/2000/svg">
<path d="M8.74991 13.835C7.73991 13.835 6.90991 13.015 6.90991 11.995C6.90991 10.975 7.72991 10.165 8.74991 10.165H39.2499C40.2599 10.165 41.0899 10.985 41.0899 12.005C41.0899 13.025 40.2699 13.845 39.2499 13.845H8.74991V13.835Z" fill="#1F2024"/>
<path d="M8.74991 25.835C7.73991 25.835 6.90991 25.015 6.90991 23.995C6.90991 22.975 7.72991 22.155 8.74991 22.155H39.2499C40.2599 22.155 41.0899 22.975 41.0899 23.995C41.0899 25.015 40.2699 25.835 39.2499 25.835H8.74991Z" fill="#1F2024"/>
<path d="M8.74991 37.835C7.73991 37.835 6.90991 37.015 6.90991 35.995C6.90991 34.975 7.72991 34.155 8.74991 34.155H39.2499C40.2599 34.155 41.0899 34.975 41.0899 35.995C41.0899 37.015 40.2699 37.835 39.2499 37.835H8.74991Z" fill="#1F2024"/>
</svg>
