<svg width="48" height="48" viewBox="0 0 48 48" fill="none" xmlns="http://www.w3.org/2000/svg">
<path d="M8.74997 13.835C7.73997 13.835 6.90997 13.015 6.90997 11.995C6.90997 10.975 7.72997 10.165 8.74997 10.165H39.25C40.26 10.165 41.09 10.985 41.09 12.005C41.09 13.025 40.27 13.845 39.25 13.845H8.74997V13.835Z" fill="#1F2024"/>
<path d="M8.74997 25.835C7.73997 25.835 6.90997 25.015 6.90997 23.995C6.90997 22.975 7.72997 22.155 8.74997 22.155H39.25C40.26 22.155 41.09 22.975 41.09 23.995C41.09 25.015 40.27 25.835 39.25 25.835H8.74997Z" fill="#1F2024"/>
<path d="M8.74997 37.835C7.73997 37.835 6.90997 37.015 6.90997 35.995C6.90997 34.975 7.72997 34.155 8.74997 34.155H39.25C40.26 34.155 41.09 34.975 41.09 35.995C41.09 37.015 40.27 37.835 39.25 37.835H8.74997Z" fill="#1F2024"/>
</svg>
