<svg width="48" height="48" viewBox="0 0 48 48" fill="none" xmlns="http://www.w3.org/2000/svg">
<path d="M8.74991 13.335C8.00991 13.335 7.40991 12.735 7.40991 11.995C7.40991 11.255 8.00991 10.665 8.74991 10.665H39.2499C39.9899 10.665 40.5899 11.265 40.5899 12.005C40.5899 12.745 39.9899 13.345 39.2499 13.345H8.74991V13.335Z" fill="#1F2024"/>
<path d="M8.74991 25.335C8.00991 25.335 7.40991 24.735 7.40991 23.995C7.40991 23.255 8.00991 22.655 8.74991 22.655H39.2499C39.9899 22.655 40.5899 23.255 40.5899 23.995C40.5899 24.735 39.9899 25.335 39.2499 25.335H8.74991Z" fill="#1F2024"/>
<path d="M8.74991 37.335C8.00991 37.335 7.40991 36.735 7.40991 35.995C7.40991 35.255 8.00991 34.655 8.74991 34.655H39.2499C39.9899 34.655 40.5899 35.255 40.5899 35.995C40.5899 36.735 39.9899 37.335 39.2499 37.335H8.74991Z" fill="#1F2024"/>
</svg>
