<svg width="48" height="48" viewBox="0 0 48 48" fill="none" xmlns="http://www.w3.org/2000/svg">
<path d="M39.2502 12.7H8.7502C7.7502 12.7 6.9502 11.9 6.9502 10.9C6.9502 9.89998 7.7502 9.09998 8.7502 9.09998H39.2502C40.2502 9.09998 41.0502 9.89998 41.0502 10.9C41.0502 11.9 40.2502 12.7 39.2502 12.7Z" fill="#1F2024"/>
<path d="M39.2502 25.8H8.7502C7.7502 25.8 6.9502 25 6.9502 24C6.9502 23 7.7502 22.2 8.7502 22.2H39.2502C40.2502 22.2 41.0502 23 41.0502 24C41.0502 25 40.2502 25.8 39.2502 25.8Z" fill="#1F2024"/>
<path d="M39.2502 38.9H8.7502C7.7502 38.9 6.9502 38.1 6.9502 37.1C6.9502 36.1 7.7502 35.3 8.7502 35.3H39.2502C40.2502 35.3 41.0502 36.1 41.0502 37.1C41.0502 38.1 40.2502 38.9 39.2502 38.9Z" fill="#1F2024"/>
</svg>
