<svg width="48" height="48" viewBox="0 0 48 48" fill="none" xmlns="http://www.w3.org/2000/svg">
<path fill-rule="evenodd" clip-rule="evenodd" d="M6.54541 10.8636C6.54541 9.6586 7.52224 8.68176 8.72723 8.68176H39.2727C40.4777 8.68176 41.4545 9.6586 41.4545 10.8636C41.4545 12.0686 40.4777 13.0454 39.2727 13.0454H8.72723C7.52224 13.0454 6.54541 12.0686 6.54541 10.8636Z" fill="#1F2024"/>
<path fill-rule="evenodd" clip-rule="evenodd" d="M6.54541 23.9544C6.54541 22.7494 7.52224 21.7726 8.72723 21.7726H39.2727C40.4777 21.7726 41.4545 22.7494 41.4545 23.9544C41.4545 25.1594 40.4777 26.1362 39.2727 26.1362H8.72723C7.52224 26.1362 6.54541 25.1594 6.54541 23.9544Z" fill="#1F2024"/>
<path fill-rule="evenodd" clip-rule="evenodd" d="M6.54541 37.0453C6.54541 35.8404 7.52224 34.8635 8.72723 34.8635H39.2727C40.4777 34.8635 41.4545 35.8404 41.4545 37.0453C41.4545 38.2503 40.4777 39.2272 39.2727 39.2272H8.72723C7.52224 39.2272 6.54541 38.2503 6.54541 37.0453Z" fill="#1F2024"/>
</svg>
