<svg width="48" height="48" viewBox="0 0 48 48" fill="none" xmlns="http://www.w3.org/2000/svg">
<path d="M39.755 4.30005C39.255 4.30005 38.855 4.50005 38.555 4.80005L7.05503 36.3C6.35503 37 6.35503 38.0001 7.05503 38.7001C7.35503 39.0001 7.75503 39.2001 8.25503 39.2001C8.75503 39.2001 9.15503 39.1001 9.45503 38.7001L40.955 7.20005C41.655 6.50005 41.655 5.50005 40.955 4.80005C40.655 4.50005 40.255 4.30005 39.755 4.30005Z" fill="#1F2024"/>
<path d="M14.355 18.9C14.255 18.6 14.055 18.4 13.955 18.3C13.755 18.2 13.555 18.1 13.355 18C13.055 17.9 12.855 17.9 12.655 17.9C11.755 17.9 11.055 18.7 11.055 19.6V22.6C11.055 23.8 11.255 25.2 11.655 27C11.755 27.2 11.955 27.6 12.055 27.6C12.055 27.6 12.155 27.6 12.355 27.4L14.455 25.3C14.5884 25.2334 14.655 25.1334 14.655 25V24.8C14.555 24.1 14.455 23.3 14.455 22.6V19.6C14.455 19.4 14.455 19.2 14.355 18.9Z" fill="#1F2024"/>
<path d="M37.845 18.3C37.645 18.2 37.445 18.1 37.245 18C36.945 17.9 36.745 17.9 36.545 17.9C35.645 17.9 34.945 18.7 34.945 19.6V22.6C34.945 25.4 33.945 27.9 31.945 29.9C29.945 31.8 27.345 32.9 24.645 32.9C23.145 32.9 21.645 32.6 20.245 31.9H19.945C19.845 31.9 19.745 32 19.645 32.1L18.045 33.7C17.845 33.9 17.745 34.2 17.745 34.4C17.745 34.6 18.045 34.8 18.145 34.8C19.745 35.5 21.145 36 22.745 36.2H22.945V40.4H18.645C18.445 40.4 18.245 40.4 17.945 40.5C17.745 40.5 17.445 40.7 17.345 40.9C17.245 41 17.145 41.2 17.045 41.4C16.945 41.7 16.945 41.9 16.945 42.1C16.945 43 17.745 43.7001 18.645 43.7001H30.645C30.845 43.7001 31.045 43.7 31.345 43.6C31.545 43.6 31.845 43.4001 31.945 43.2001C32.045 43.1001 32.145 42.9001 32.245 42.7001C32.345 42.4001 32.345 42.2 32.345 42C32.345 41.1 31.545 40.4 30.645 40.4H26.345V36.2H26.545C33.145 35.3 38.345 29.3 38.345 22.6V19.6C38.345 19.4 38.345 19.2 38.245 18.9C38.145 18.6 37.945 18.4 37.845 18.3Z" fill="#1F2024"/>
<path d="M17.155 21.9C17.155 22.3 17.155 22.4 17.255 22.4C17.355 22.4 17.455 22.3 17.655 22.2C19.155 20.9 20.455 19.4 20.455 19.4C20.655 19.3 20.655 19.1 20.655 19V12C20.655 11.4 20.755 10.9 20.955 10.4C21.155 9.90005 21.455 9.50005 21.955 9.00005C22.455 8.50005 22.855 8.20005 23.355 8.00005C23.755 7.80005 24.355 7.70005 24.955 7.70005C25.955 7.70005 26.655 8.00005 27.355 8.50005C28.055 8.90005 28.655 9.60005 28.955 10.4C29.055 10.6 29.155 10.8 29.255 10.8C29.255 10.8 29.355 10.7 29.455 10.6L31.355 8.70005C31.655 8.40005 31.455 8.00005 31.455 8.00005C30.755 6.90005 29.755 5.90005 28.555 5.30005C27.355 4.70005 26.055 4.40005 24.755 4.40005C20.555 4.50005 17.155 8.00005 17.155 12.2V21.9Z" fill="#1F2024"/>
<path d="M24.755 30.2C25.355 30.2 26.055 30.1 26.655 30.1C27.955 29.7 29.255 29 30.155 28C31.655 26.6 32.455 24.7 32.455 22.6V20.4C32.455 20.2 32.155 20 32.055 20H31.955L29.155 22.8C29.055 22.8 29.055 22.9 28.955 23V23.1C28.655 25.1 27.055 26.7 25.155 26.9C25.055 26.9 24.955 27 24.855 27.1L22.555 29.4L22.455 29.6C22.455 29.6 22.355 29.8 22.455 29.9C22.555 29.9 22.655 30 22.755 30C22.755 30 24.055 30.2 24.755 30.2Z" fill="#1F2024"/>
</svg>
