<svg width="48" height="48" viewBox="0 0 48 48" fill="none" xmlns="http://www.w3.org/2000/svg">
<path d="M36 18C35.17 18 34.5 18.67 34.5 19.5V22.5C34.5 28.29 29.79 33 24 33C18.21 33 13.5 28.29 13.5 22.5V19.5C13.5 18.67 12.83 18 12 18C11.17 18 10.5 18.67 10.5 19.5V22.5C10.5 29.44 15.76 35.16 22.5 35.91V40.5H18C17.17 40.5 16.5 41.17 16.5 42C16.5 42.83 17.17 43.5 18 43.5H30C30.83 43.5 31.5 42.83 31.5 42C31.5 41.17 30.83 40.5 30 40.5H25.5V35.91C32.24 35.16 37.5 29.44 37.5 22.5V19.5C37.5 18.67 36.83 18 36 18Z" fill="#1F2024"/>
<path d="M24 30C28.14 30 31.5 26.59 31.5 22.41V12C31.5 7.8 28.21 4.5 24 4.5H23.97C22.99 4.5 22.04 4.69 21.13 5.06C20.21 5.44 19.39 5.98 18.69 6.69C17.99 7.4 17.44 8.21 17.06 9.13C16.68 10.05 16.49 11.02 16.5 12V22.41C16.5 26.53 19.93 30 24 30ZM19.5 11.99C19.5 11.4 19.61 10.82 19.84 10.27C20.06 9.72 20.39 9.23 20.81 8.81C21.23 8.39 21.72 8.06 22.27 7.84C22.81 7.62 23.39 7.5 23.97 7.5H24C26.57 7.5 28.5 9.43 28.5 12V22.41C28.5 24.94 26.48 27 24 27C21.52 27 19.5 24.9 19.5 22.41V11.99Z" fill="#1F2024"/>
</svg>
