<svg width="48" height="48" viewBox="0 0 48 48" fill="none" xmlns="http://www.w3.org/2000/svg">
<path d="M21.12 29.4084C22.0307 29.7965 23.0101 29.9977 24.0001 30.0001C28.1354 30.0001 31.5001 26.5932 31.5001 22.4063V12.0001C31.5001 7.79443 28.2057 4.50006 24.0001 4.50006C23.0141 4.49621 22.0371 4.68758 21.1254 5.06313C20.2137 5.43868 19.3854 5.99098 18.6882 6.68819C17.991 7.38539 17.4387 8.21371 17.0631 9.12539C16.6876 10.0371 16.4962 11.0141 16.5001 12.0001V22.4063C16.5014 24.4046 17.2915 26.3217 18.6985 27.7407C19.3858 28.4532 20.2093 29.0203 21.12 29.4084Z" fill="#1F2024"/>
<path d="M13.5 19.5C13.5 18.6716 12.8284 18 12 18C11.1716 18 10.5 18.6716 10.5 19.5V22.5C10.5 29.4216 15.7714 35.1652 22.5 35.9167V40.5H18C17.1716 40.5 16.5 41.1716 16.5 42C16.5 42.8284 17.1716 43.5 18 43.5H30C30.8284 43.5 31.5 42.8284 31.5 42C31.5 41.1716 30.8284 40.5 30 40.5H25.5V35.9167C32.2286 35.1652 37.5 29.4216 37.5 22.5V19.5C37.5 18.6716 36.8284 18 36 18C35.1716 18 34.5 18.6716 34.5 19.5V22.5C34.5 28.2716 29.7716 33 24 33C18.2284 33 13.5 28.2716 13.5 22.5V19.5Z" fill="#1F2024"/>
</svg>
