<svg width="48" height="48" viewBox="0 0 48 48" fill="none" xmlns="http://www.w3.org/2000/svg">
<path d="M39.7451 4.75C39.4451 4.75 39.1451 4.95 38.9451 5.15L7.45508 36.65C6.95508 37.15 6.95508 37.85 7.45508 38.35C7.65508 38.65 7.95508 38.75 8.25508 38.75C8.55508 38.75 8.85508 38.65 9.05508 38.35L40.5451 6.85C41.0451 6.35 41.0451 5.65 40.5451 5.15C40.3451 4.85 40.0451 4.75 39.7451 4.75Z" fill="#1F2024"/>
<path d="M14.0551 25.05V24.95C13.9551 24.25 13.8551 23.45 13.8551 22.75V19.75C13.8551 19.55 13.8551 19.35 13.7551 19.25V19.05C13.7551 19.05 13.7551 18.95 13.5551 18.75C13.5551 18.75 13.2551 18.65 13.1551 18.55C12.9551 18.45 12.8551 18.45 12.6551 18.45C12.0551 18.45 11.5551 18.95 11.5551 19.65V22.65C11.5551 23.75 11.7551 25.15 12.1551 26.85L14.0551 25.05Z" fill="#1F2024"/>
<path d="M18.7451 40.85C18.5451 40.85 18.3451 40.85 18.2451 40.95H18.0451C17.9451 40.95 17.8451 40.95 17.7451 41.15C17.7451 41.15 17.6451 41.45 17.5451 41.55C17.4451 41.75 17.4451 41.85 17.4451 42.05C17.4451 42.65 17.9451 43.15 18.6451 43.15V43.25H30.5451C30.7451 43.25 30.9451 43.25 31.0451 43.15H31.2451C31.3451 43.15 31.4451 43.15 31.5451 42.95L31.7451 42.55C31.8451 42.35 31.8451 42.25 31.8451 42.05C31.8451 41.45 31.3451 40.95 30.6451 40.95H25.8451V35.75H26.1451C32.6451 35.05 37.8451 29.35 37.8451 22.65V19.65C37.8451 19.45 37.8451 19.25 37.7451 19.15V18.95C37.7451 18.95 37.7451 18.85 37.5451 18.65C37.5451 18.65 37.2451 18.55 37.1451 18.45C36.9451 18.35 36.8451 18.35 36.6451 18.35C36.0451 18.35 35.5451 18.85 35.5451 19.55V22.55C35.5451 25.35 34.4451 28.05 32.3451 30.15C30.3451 32.25 27.6451 33.35 24.7451 33.35C23.1451 33.35 21.5451 33.05 20.1451 32.35H20.0451L18.3451 34.05C18.4117 34.05 18.4451 34.0833 18.4451 34.15C19.9451 34.95 21.5451 35.45 23.2451 35.65H23.5451V40.85H18.7451Z" fill="#1F2024"/>
<path d="M19.8551 12.05C19.8551 11.35 19.9551 10.75 20.1551 10.25C20.3551 9.75 20.7551 9.15 21.2551 8.65C21.7551 8.05 22.3551 7.75 22.8551 7.55C23.3551 7.35 23.9551 7.25 24.6551 7.25C25.7551 7.25 26.5551 7.45 27.3551 8.05C28.1551 8.55 28.8551 9.25 29.1551 10.05L30.8551 8.35V8.25C30.2551 7.25 29.3551 6.45 28.2551 5.85C27.0551 5.25 25.8551 4.95 24.6551 4.95C20.7551 5.05 17.5551 8.35 17.5551 12.25L17.4551 21.55L19.8551 19.05V12.05Z" fill="#1F2024"/>
<path d="M29.8451 27.55C31.1451 26.15 31.9451 24.35 31.9451 22.45V20.65L29.4451 23.15C29.0451 25.35 27.3451 27.15 25.1451 27.35L23.0451 29.45C23.6451 29.55 24.1451 29.65 24.7451 29.65C25.3451 29.65 25.9451 29.65 26.5451 29.45C27.8451 29.15 28.9451 28.55 29.8451 27.55Z" fill="#1F2024"/>
</svg>
