<svg width="48" height="48" viewBox="0 0 48 48" fill="none" xmlns="http://www.w3.org/2000/svg">
<path d="M16.5 22.1597V12C16.5 7.79442 19.7944 4.50005 24 4.50005C25.3066 4.49536 26.5916 4.83347 27.7267 5.48064C28.8618 6.1278 29.8073 7.06138 30.4688 8.18817L16.5 22.1597Z" fill="#1F2024"/>
<path d="M40.0607 4.93934C39.4749 4.35355 38.5251 4.35355 37.9393 4.93934L6.43934 36.4393C5.85355 37.0251 5.85355 37.9749 6.43934 38.5607C7.02512 39.1464 7.97487 39.1464 8.56066 38.5607L40.0607 7.06066C40.6464 6.47487 40.6464 5.52513 40.0607 4.93934Z" fill="#1F2024"/>
<path d="M12 18C12.8284 18 13.5 18.6716 13.5 19.5V22.5C13.4998 23.3032 13.5919 24.1038 13.7747 24.8859L11.3765 27.2812C10.7956 25.7542 10.4985 24.1338 10.5 22.5V19.5C10.5 18.6716 11.1715 18 12 18Z" fill="#1F2024"/>
<path d="M22.5 35.9166V40.5H18C17.1716 40.5 16.5 41.1716 16.5 42C16.5 42.8284 17.1716 43.5 18 43.5H30C30.8284 43.5 31.5 42.8284 31.5 42C31.5 41.1716 30.8284 40.5 30 40.5H25.5V35.9166C32.2406 35.1675 37.5 29.4375 37.5 22.5V19.5C37.5 18.6716 36.8284 18 36 18C35.1716 18 34.5 18.6716 34.5 19.5V22.5C34.4957 24.2784 34.0403 26.0267 33.1764 27.5812C32.3125 29.1357 31.0683 30.4457 29.5603 31.3884C28.0523 32.3311 26.3297 32.8759 24.5539 32.9716C22.778 33.0674 21.0069 32.711 19.4062 31.9359L17.1891 34.1512C18.8156 35.1065 20.6253 35.708 22.5 35.9166Z" fill="#1F2024"/>
<path d="M31.5 22.4063V19.8403L21.7078 29.6353C23.0237 30.0652 24.4341 30.1154 25.7772 29.7803C27.1204 29.4452 28.3418 28.7383 29.3016 27.7406C30.7086 26.3216 31.4986 24.4046 31.5 22.4063Z" fill="#1F2024"/>
</svg>
