<svg width="48" height="48" viewBox="0 0 48 48" fill="none" xmlns="http://www.w3.org/2000/svg">
<path d="M22.8 35.64V40.8H18C17.34 40.8 16.8 41.34 16.8 42C16.8 42.66 17.34 43.2 18 43.2H30C30.66 43.2 31.2 42.66 31.2 42C31.2 41.34 30.66 40.8 30 40.8H25.2V35.64C31.92 35.03 37.2 29.37 37.2 22.5V19.5C37.2 18.84 36.66 18.3 36 18.3C35.34 18.3 34.8 18.84 34.8 19.5V22.5C34.8 28.46 29.96 33.3 24 33.3C18.04 33.3 13.2 28.46 13.2 22.5V19.5C13.2 18.84 12.66 18.3 12 18.3C11.34 18.3 10.8 18.84 10.8 19.5V22.5C10.8 29.37 16.08 35.03 22.8 35.64Z" fill="#1F2024"/>
<path d="M16.8 22.3C16.8 26.26 20.1 29.6 24 29.6C27.9 29.6 31.2 26.32 31.2 22.3V12C31.2 7.95999 28.04 4.79999 24 4.79999C23.06 4.79999 22.14 5.02999 21.37 5.24999C21.32 5.25999 21.27 5.27999 21.23 5.29999C20.26 5.71999 19.48 6.21999 18.85 6.84999C18.16 7.53999 17.67 8.25999 17.29 9.12999C16.86 10.12 16.7 11.08 16.79 11.97V22.3H16.8ZM19.5 10.07C19.75 9.48999 20.07 9.01999 20.55 8.53999C20.95 8.13999 21.45 7.80999 22.11 7.52999C22.73 7.34999 23.39 7.19999 24.01 7.19999C26.75 7.19999 28.81 9.25999 28.81 12V22.3C28.81 25 26.66 27.2 24.01 27.2C21.36 27.2 19.21 24.96 19.21 22.3V11.9C19.21 11.9 19.21 11.8 19.21 11.75C19.15 11.26 19.25 10.7 19.52 10.07H19.5Z" fill="#1F2024"/>
</svg>
