<svg width="48" height="48" viewBox="0 0 48 48" fill="none" xmlns="http://www.w3.org/2000/svg">
<path d="M39.7553 4.30005C39.2553 4.30005 38.8553 4.50005 38.5553 4.80005L7.05527 36.3C6.35527 37 6.35527 38.0001 7.05527 38.7001C7.35527 39.0001 7.75527 39.2001 8.25527 39.2001C8.75527 39.2001 9.15527 39.1001 9.45527 38.7001L40.9553 7.20005C41.6553 6.50005 41.6553 5.50005 40.9553 4.80005C40.6553 4.50005 40.2553 4.30005 39.7553 4.30005Z" fill="#1F2024"/>
<path d="M14.3553 18.9C14.2553 18.6 14.0553 18.4 13.9553 18.3C13.7553 18.2 13.5553 18.1 13.3553 18C13.0553 17.9 12.8553 17.9 12.6553 17.9C11.7553 17.9 11.0553 18.7 11.0553 19.6V22.6C11.0553 23.8 11.2553 25.2 11.6553 27C11.7553 27.2 11.9553 27.6 12.0553 27.6C12.0553 27.6 12.1553 27.6 12.3553 27.4L14.4553 25.3C14.5886 25.2334 14.6553 25.1334 14.6553 25V24.8C14.5553 24.1 14.4553 23.3 14.4553 22.6V19.6C14.4553 19.4 14.4553 19.2 14.3553 18.9Z" fill="#1F2024"/>
<path d="M37.8453 18.3C37.6453 18.2 37.4453 18.1 37.2453 18C36.9453 17.9 36.7453 17.9 36.5453 17.9C35.6453 17.9 34.9453 18.7 34.9453 19.6V22.6C34.9453 25.4 33.9453 27.9 31.9453 29.9C29.9453 31.8 27.3453 32.9 24.6453 32.9C23.1453 32.9 21.6453 32.6 20.2453 31.9H19.9453C19.8453 31.9 19.7453 32 19.6453 32.1L18.0453 33.7C17.8453 33.9 17.7453 34.2 17.7453 34.4C17.7453 34.6 18.0453 34.8 18.1453 34.8C19.7453 35.5 21.1453 36 22.7453 36.2H22.9453V40.4H18.6453C18.4453 40.4 18.2453 40.4 17.9453 40.5C17.7453 40.5 17.4453 40.7 17.3453 40.9C17.2453 41 17.1453 41.2 17.0453 41.4C16.9453 41.7 16.9453 41.9 16.9453 42.1C16.9453 43 17.7453 43.7001 18.6453 43.7001H30.6453C30.8453 43.7001 31.0453 43.7 31.3453 43.6C31.5453 43.6 31.8453 43.4001 31.9453 43.2001C32.0453 43.1001 32.1453 42.9001 32.2453 42.7001C32.3453 42.4001 32.3453 42.2 32.3453 42C32.3453 41.1 31.5453 40.4 30.6453 40.4H26.3453V36.2H26.5453C33.1453 35.3 38.3453 29.3 38.3453 22.6V19.6C38.3453 19.4 38.3453 19.2 38.2453 18.9C38.1453 18.6 37.9453 18.4 37.8453 18.3Z" fill="#1F2024"/>
<path d="M17.1553 21.9C17.1553 22.3 17.1553 22.4 17.2553 22.4C17.3553 22.4 17.4553 22.3 17.6553 22.2C19.1553 20.9 20.4553 19.4 20.4553 19.4C20.6553 19.3 20.6553 19.1 20.6553 19V12C20.6553 11.4 20.7553 10.9 20.9553 10.4C21.1553 9.90005 21.4553 9.50005 21.9553 9.00005C22.4553 8.50005 22.8553 8.20005 23.3553 8.00005C23.7553 7.80005 24.3553 7.70005 24.9553 7.70005C25.9553 7.70005 26.6553 8.00005 27.3553 8.50005C28.0553 8.90005 28.6553 9.60005 28.9553 10.4C29.0553 10.6 29.1553 10.8 29.2553 10.8C29.2553 10.8 29.3553 10.7 29.4553 10.6L31.3553 8.70005C31.6553 8.40005 31.4553 8.00005 31.4553 8.00005C30.7553 6.90005 29.7553 5.90005 28.5553 5.30005C27.3553 4.70005 26.0553 4.40005 24.7553 4.40005C20.5553 4.50005 17.1553 8.00005 17.1553 12.2V21.9Z" fill="#1F2024"/>
<path d="M24.7553 30.2C25.3553 30.2 26.0553 30.1 26.6553 30.1C27.9553 29.7 29.2553 29 30.1553 28C31.6553 26.6 32.4553 24.7 32.4553 22.6V20.4C32.4553 20.2 32.1553 20 32.0553 20H31.9553L29.1553 22.8C29.0553 22.8 29.0553 22.9 28.9553 23V23.1C28.6553 25.1 27.0553 26.7 25.1553 26.9C25.0553 26.9 24.9553 27 24.8553 27.1L22.5553 29.4L22.4553 29.6C22.4553 29.6 22.3553 29.8 22.4553 29.9C22.5553 29.9 22.6553 30 22.7553 30C22.7553 30 24.0553 30.2 24.7553 30.2Z" fill="#1F2024"/>
</svg>
