<svg width="48" height="48" viewBox="0 0 48 48" fill="none" xmlns="http://www.w3.org/2000/svg">
<path d="M36 17.67C35.06 17.67 34.3 18.43 34.3 19.37V22.37C34.3 28.05 29.68 32.67 24 32.67C18.32 32.67 13.7 28.05 13.7 22.37V19.37C13.7 18.43 12.94 17.67 12 17.67C11.06 17.67 10.3 18.43 10.3 19.37V22.37C10.3 29.35 15.55 35.11 22.3 35.95V40.63H17.99C17.11 40.63 16.39 41.35 16.39 42.23C16.39 43.11 17.11 43.83 17.99 43.83H29.99C30.87 43.83 31.59 43.11 31.59 42.23C31.59 41.35 30.87 40.63 29.99 40.63H25.7V35.95C32.45 35.11 37.7 29.34 37.7 22.37V19.37C37.7 18.43 36.94 17.67 36 17.67Z" fill="#1F2024"/>
<path d="M16.3 22.17C16.3 26.47 19.75 29.97 24 29.97C28.25 29.97 31.7 26.47 31.7 22.17V11.87C31.7 7.54998 28.32 4.16998 24 4.16998C23 4.16998 22.04 4.40998 21.23 4.63998C21.16 4.65998 21.09 4.67998 21.03 4.70998C20 5.14998 19.17 5.68998 18.5 6.36998C17.76 7.10998 17.24 7.87998 16.84 8.79998C16.38 9.85998 16.2 10.89 16.3 11.86V22.17ZM19.96 10.14C20.18 9.61998 20.47 9.19998 20.9 8.76998C21.25 8.41998 21.69 8.12998 22.27 7.86998C22.85 7.70998 23.45 7.56998 24 7.56998C26.45 7.56998 28.3 9.41998 28.3 11.87V22.17C28.3 24.6 26.37 26.57 24 26.57C21.63 26.57 19.7 24.56 19.7 22.17V11.77C19.7 11.7 19.7 11.63 19.69 11.56C19.64 11.16 19.73 10.68 19.96 10.14Z" fill="#1F2024"/>
</svg>
