<svg width="48" height="48" viewBox="0 0 48 48" fill="none" xmlns="http://www.w3.org/2000/svg">
<path d="M40.8101 4.94128C40.2201 4.35128 39.2701 4.35128 38.6901 4.94128L7.19006 36.4413C6.60006 37.0313 6.60006 37.9813 7.19006 38.5613C7.48006 38.8513 7.87006 39.0013 8.25006 39.0013C8.63006 39.0013 9.02006 38.8513 9.31006 38.5613L40.8101 7.06128C41.4001 6.47128 41.4001 5.52128 40.8101 4.94128Z" fill="#1F2024"/>
<path d="M12.08 27.0912C12.08 27.0912 12.13 27.1212 12.16 27.1312C12.19 27.1312 12.22 27.1312 12.25 27.1312C12.28 27.1312 12.31 27.1112 12.33 27.0812L14.38 25.0412C14.38 25.0412 14.46 24.9412 14.47 24.8812C14.49 24.8212 14.49 24.7612 14.47 24.6912C14.32 23.9712 14.24 23.2412 14.24 22.5112V19.5112C14.24 19.3112 14.2 19.1112 14.12 18.9212C14.04 18.7312 13.92 18.5712 13.78 18.4312C13.63 18.2912 13.46 18.1812 13.27 18.1112C13.08 18.0412 12.88 18.0112 12.67 18.0212C11.86 18.0612 11.24 18.7512 11.24 19.5612V22.5212C11.24 24.0612 11.5 25.5812 12.02 27.0312C12.03 27.0612 12.05 27.0912 12.07 27.1112L12.08 27.0912Z" fill="#1F2024"/>
<path d="M37.7799 18.4212C37.6299 18.2812 37.4599 18.1712 37.2699 18.1012C37.0799 18.0312 36.8799 18.0012 36.6699 18.0112C35.8599 18.0512 35.2399 18.7412 35.2399 19.5512V22.5112C35.2399 25.2912 34.1199 27.9612 32.1499 29.9212C30.1799 31.8912 27.5199 33.0012 24.7399 33.0112C23.2299 33.0112 21.7499 32.6912 20.3799 32.0612C20.3099 32.0312 20.2299 32.0212 20.1599 32.0312C20.0799 32.0412 20.0099 32.0812 19.9599 32.1312L18.2799 33.8112C18.2799 33.8112 18.2099 33.9012 18.1899 33.9612C18.1699 34.0212 18.1699 34.0712 18.1699 34.1312C18.1699 34.1912 18.1999 34.2412 18.2299 34.2912C18.2599 34.3412 18.3099 34.3812 18.3599 34.4012C19.8699 35.2112 21.5299 35.7312 23.2399 35.9212V40.5012H18.7399C18.5399 40.5012 18.3399 40.5412 18.1499 40.6212C17.9599 40.7012 17.7999 40.8212 17.6599 40.9612C17.5199 41.1112 17.4099 41.2812 17.3399 41.4712C17.2699 41.6612 17.2399 41.8612 17.2499 42.0712C17.2899 42.8812 17.9799 43.5012 18.7899 43.5012H30.7499C30.9499 43.5012 31.1499 43.4612 31.3399 43.3812C31.5299 43.3012 31.6899 43.1812 31.8299 43.0412C31.9699 42.8912 32.0799 42.7212 32.1499 42.5312C32.2199 42.3412 32.2499 42.1412 32.2399 41.9312C32.1999 41.1212 31.5099 40.5012 30.6999 40.5012H26.2399V35.9212C32.9799 35.1712 38.2399 29.4412 38.2399 22.5012V19.5012C38.2399 19.3012 38.1999 19.1012 38.1199 18.9112C38.0399 18.7212 37.9199 18.5612 37.7799 18.4212Z" fill="#1F2024"/>
<path d="M17.36 21.8912C17.36 21.8912 17.43 21.9112 17.47 21.9012C17.51 21.9012 17.54 21.8712 17.57 21.8512L20.14 19.2712C20.21 19.2012 20.25 19.1112 20.25 19.0112V12.0012C20.24 11.4112 20.35 10.8212 20.57 10.2712C20.79 9.72118 21.12 9.22118 21.54 8.80118C21.96 8.38118 22.46 8.05118 23.01 7.83118C23.56 7.61118 24.15 7.50118 24.74 7.51118C25.61 7.51118 26.47 7.75118 27.21 8.22118C27.94 8.69118 28.52 9.38118 28.87 10.1812C28.88 10.2112 28.9 10.2312 28.92 10.2512C28.94 10.2712 28.97 10.2812 29 10.2912C29.03 10.2912 29.06 10.2912 29.09 10.2912C29.12 10.2912 29.15 10.2612 29.17 10.2412L31 8.41118C31.06 8.35118 31.1 8.27118 31.11 8.19118C31.11 8.10118 31.1 8.02118 31.05 7.95118C30.36 6.88118 29.41 6.00118 28.29 5.40118C27.17 4.78118 25.92 4.48118 24.64 4.50118C20.53 4.56118 17.25 7.97118 17.25 12.0912V21.7212C17.25 21.7212 17.26 21.7912 17.28 21.8212C17.3 21.8512 17.33 21.8712 17.36 21.8912Z" fill="#1F2024"/>
<path d="M26.6801 29.7413C27.9601 29.3913 29.1301 28.7013 30.0501 27.7413C31.4601 26.3213 32.2501 24.4013 32.2501 22.4013V20.2813C32.2501 20.2813 32.2401 20.2113 32.2201 20.1813C32.2001 20.1513 32.1701 20.1313 32.1401 20.1113C32.1001 20.1013 32.0701 20.0913 32.0301 20.1013C31.9901 20.1013 31.9601 20.1313 31.9301 20.1513L29.3201 22.7713C29.2601 22.8313 29.2201 22.9113 29.2101 22.9913C28.9401 25.0513 27.2701 26.7313 25.2401 26.9713C25.1501 26.9713 25.0701 27.0213 25.0101 27.0813L22.6701 29.4213C22.6701 29.4213 22.6301 29.4713 22.6201 29.5013C22.6201 29.5313 22.6201 29.5713 22.6201 29.6013C22.6201 29.6313 22.6401 29.6613 22.6701 29.6813C22.6901 29.7013 22.7201 29.7213 22.7501 29.7313C24.0301 30.0913 25.3901 30.0913 26.6701 29.7413H26.6801Z" fill="#1F2024"/>
</svg>
