<svg width="48" height="48" viewBox="0 0 48 48" fill="none" xmlns="http://www.w3.org/2000/svg">
<path d="M22.7998 35.64V40.8H17.9998C17.3398 40.8 16.7998 41.34 16.7998 42C16.7998 42.66 17.3398 43.2001 17.9998 43.2001H29.9998C30.6598 43.2001 31.1998 42.66 31.1998 42C31.1998 41.34 30.6598 40.8 29.9998 40.8H25.1998V35.64C31.9198 35.03 37.1998 29.37 37.1998 22.5V19.5C37.1998 18.84 36.6598 18.3 35.9998 18.3C35.3398 18.3 34.7998 18.84 34.7998 19.5V22.5C34.7998 28.46 29.9598 33.3 23.9998 33.3C18.0398 33.3 13.1998 28.46 13.1998 22.5V19.5C13.1998 18.84 12.6598 18.3 11.9998 18.3C11.3398 18.3 10.7998 18.84 10.7998 19.5V22.5C10.7998 29.37 16.0798 35.03 22.7998 35.64Z" fill="#1F2024"/>
<path d="M16.7998 22.3C16.7998 26.26 20.0998 29.6 23.9998 29.6C27.8998 29.6 31.1998 26.32 31.1998 22.3V12C31.1998 7.96005 28.0398 4.80005 23.9998 4.80005C23.0598 4.80005 22.1398 5.03005 21.3698 5.25005C21.3198 5.26005 21.2698 5.28005 21.2298 5.30005C20.2598 5.72005 19.4798 6.22005 18.8498 6.85005C18.1598 7.54005 17.6698 8.26005 17.2898 9.13005C16.8598 10.12 16.6998 11.08 16.7898 11.97V22.3H16.7998ZM19.4998 10.07C19.7498 9.49005 20.0698 9.02005 20.5498 8.54005C20.9498 8.14005 21.4498 7.81005 22.1098 7.53005C22.7298 7.35005 23.3898 7.20005 24.0098 7.20005C26.7498 7.20005 28.8098 9.26005 28.8098 12V22.3C28.8098 25 26.6598 27.2 24.0098 27.2C21.3598 27.2 19.2098 24.96 19.2098 22.3V11.9C19.2098 11.9 19.2098 11.8 19.2098 11.75C19.1498 11.26 19.2498 10.7 19.5198 10.07H19.4998Z" fill="#1F2024"/>
</svg>
