<svg width="48" height="48" viewBox="0 0 48 48" fill="none" xmlns="http://www.w3.org/2000/svg">
<path d="M35.9998 17.6699C35.0598 17.6699 34.2998 18.4299 34.2998 19.3699V22.3699C34.2998 28.0499 29.6798 32.6699 23.9998 32.6699C18.3198 32.6699 13.6998 28.0499 13.6998 22.3699V19.3699C13.6998 18.4299 12.9398 17.6699 11.9998 17.6699C11.0598 17.6699 10.2998 18.4299 10.2998 19.3699V22.3699C10.2998 29.3499 15.5498 35.1099 22.2998 35.9499V40.6299H17.9898C17.1098 40.6299 16.3898 41.3499 16.3898 42.2299C16.3898 43.1099 17.1098 43.8299 17.9898 43.8299H29.9898C30.8698 43.8299 31.5898 43.1099 31.5898 42.2299C31.5898 41.3499 30.8698 40.6299 29.9898 40.6299H25.6998V35.9499C32.4498 35.1099 37.6998 29.3399 37.6998 22.3699V19.3699C37.6998 18.4299 36.9398 17.6699 35.9998 17.6699Z" fill="#1F2024"/>
<path d="M16.2998 22.1699C16.2998 26.4699 19.7498 29.9699 23.9998 29.9699C28.2498 29.9699 31.6998 26.4699 31.6998 22.1699V11.8699C31.6998 7.54992 28.3198 4.16992 23.9998 4.16992C22.9998 4.16992 22.0398 4.40992 21.2298 4.63992C21.1598 4.65992 21.0898 4.67992 21.0298 4.70992C19.9998 5.14992 19.1698 5.68992 18.4998 6.36992C17.7598 7.10992 17.2398 7.87992 16.8398 8.79992C16.3798 9.85992 16.1998 10.8899 16.2998 11.8599V22.1699ZM19.9598 10.1399C20.1798 9.61992 20.4698 9.19992 20.8998 8.76992C21.2498 8.41992 21.6898 8.12992 22.2698 7.86992C22.8498 7.70992 23.4498 7.56992 23.9998 7.56992C26.4498 7.56992 28.2998 9.41992 28.2998 11.8699V22.1699C28.2998 24.5999 26.3698 26.5699 23.9998 26.5699C21.6298 26.5699 19.6998 24.5599 19.6998 22.1699V11.7699C19.6998 11.6999 19.6998 11.6299 19.6898 11.5599C19.6398 11.1599 19.7298 10.6799 19.9598 10.1399Z" fill="#1F2024"/>
</svg>
