<svg width="48" height="48" viewBox="0 0 48 48" fill="none" xmlns="http://www.w3.org/2000/svg">
<path d="M14.05 43.405C10.35 43.305 8.00995 42.165 6.47995 39.715C5.40995 38.055 4.94995 35.605 4.94995 31.505C4.94995 23.875 8.23995 17.805 15.02 12.945L15.12 12.875L14.21 12.045C13.03 10.865 12.7 8.98497 13.26 7.42497C13.84 5.77497 15.42 4.59497 17.25 4.59497H30.75C32.5499 4.59497 34.65 5.44497 35.34 7.32497C36.03 9.20497 34.68 11.185 33.8 12.225L33.16 12.865L33.26 12.935C39.3899 17.255 43.0499 24.235 43.0499 31.605C43.0499 36.315 41.95 39.695 39.78 41.655C38.04 43.085 36.1299 43.305 34.16 43.405H14.05ZM16.97 15.565C11.1 19.845 8.24995 25.125 8.24995 31.705C8.24995 35.175 8.54995 37.055 9.31995 38.405C10.11 39.775 11.81 40.505 14.25 40.505H34.05C35.74 40.395 36.91 40.175 37.92 39.355C39.38 38.095 40.15 35.445 40.15 31.705C40.15 25.375 37 19.345 31.73 15.565L28.43 13.115L28.62 12.955C29.33 12.345 31.13 10.645 31.81 9.96497C32.59 9.08497 32.29 8.48497 32.19 8.31497C32.01 7.96497 31.58 7.80497 31.26 7.80497H17.75C16.91 7.80497 16.4 8.03497 16.24 8.47497C15.99 8.89497 16.23 9.49497 16.59 9.86497L20.27 13.225L16.97 15.565Z" fill="#1F2024"/>
<path d="M28.7892 29.4929H25.481V28.5019H28.7892C29.4909 28.5019 30.0651 27.9291 30.0651 27.229C30.0651 26.529 29.4909 25.9562 28.7892 25.9562H25.9549L29.336 22.7558C29.8828 22.2375 29.9101 21.3738 29.3907 20.8283C28.8712 20.2828 28.0054 20.2646 27.4586 20.7737L24.041 24.0105L20.268 20.9283C19.6847 20.4555 18.819 20.5373 18.345 21.1192C17.862 21.7011 17.9532 22.5648 18.5364 23.0376L22.1089 25.9562H19.2108C18.5091 25.9562 17.9349 26.529 17.9349 27.229C17.9349 27.9291 18.5091 28.5019 19.2108 28.5019H22.7469V29.4929H19.2108C18.5091 29.4929 17.9349 30.0657 17.9349 30.7658C17.9349 31.4659 18.5091 32.0387 19.2108 32.0387H22.7469V33.6389C22.7469 34.3935 23.3575 35.0027 24.1139 35.0027C24.8703 35.0027 25.481 34.3935 25.481 33.6389V32.0387H28.7892C29.4909 32.0387 30.0651 31.4659 30.0651 30.7658C30.0651 30.0657 29.4909 29.4929 28.7892 29.4929Z" fill="#1F2024"/>
</svg>
