<svg width="48" height="48" viewBox="0 0 48 48" fill="none" xmlns="http://www.w3.org/2000/svg">
<path d="M33.26 12.935L33.16 12.865L33.8 12.225C34.68 11.185 36.03 9.205 35.34 7.325C34.65 5.445 32.55 4.595 30.75 4.595H17.25C15.42 4.595 13.84 5.775 13.26 7.425C12.7 8.985 13.03 10.865 14.21 12.045L15.12 12.875L15.02 12.945C8.23995 17.805 4.94995 23.875 4.94995 31.505C4.94995 35.605 5.40995 38.055 6.47995 39.715C8.00995 42.165 10.35 43.305 14.05 43.405H34.16C36.13 43.305 38.04 43.085 39.78 41.655C41.95 39.695 43.0499 36.315 43.0499 31.605C43.0499 24.235 39.39 17.255 33.26 12.935V12.935ZM25.53 33.265V33.835C25.53 34.705 24.84 35.405 23.99 35.405C23.14 35.405 22.45 34.705 22.45 33.835V33.225C21.05 32.975 19.85 32.415 19.16 31.635C18.71 31.185 18.42 30.605 18.42 30.025C18.42 29.245 18.97 28.695 19.81 28.695C20.34 28.695 20.75 28.895 21.38 29.405C22.36 30.235 23.27 30.575 24.32 30.575C25.37 30.575 25.98 30.205 25.98 29.535C25.98 28.895 25.56 28.515 24.6 28.325L22.68 27.925C20.2 27.405 18.87 26.115 18.87 24.255C18.87 22.275 20.24 20.925 22.44 20.475V19.955C22.44 19.085 23.13 18.385 23.98 18.385C24.83 18.385 25.52 19.085 25.52 19.955V20.455C26.58 20.625 27.51 20.945 28.17 21.425C28.9 21.955 29.32 22.605 29.32 23.345C29.32 24.085 28.75 24.635 27.97 24.635C27.41 24.635 26.91 24.335 26.28 23.865C25.52 23.255 24.75 23.015 23.96 23.015C23.05 23.015 22.46 23.385 22.46 23.985C22.46 24.555 22.93 24.935 23.85 25.115L25.91 25.545C28.38 26.075 29.58 27.265 29.58 29.195C29.58 31.395 28.06 32.855 25.54 33.245L25.53 33.265Z" fill="#1F2024"/>
</svg>
