<svg width="48" height="48" viewBox="0 0 48 48" fill="none" xmlns="http://www.w3.org/2000/svg">
<path d="M24.145 35.49C23.265 35.49 22.555 34.77 22.555 33.88V33.43L22.445 33.41C21.175 33.15 20.125 32.62 19.495 31.92C19.025 31.46 18.765 30.87 18.765 30.31C18.765 29.49 19.355 28.92 20.215 28.92C20.805 28.92 21.235 29.18 21.785 29.62C22.645 30.36 23.475 30.69 24.455 30.69C25.375 30.69 25.875 30.39 25.875 29.85C25.875 29.31 25.515 29.01 24.695 28.85L22.885 28.48C20.505 27.98 19.185 26.7 19.185 24.88C19.185 23.06 20.405 21.72 22.435 21.23L22.545 21.2V20.82C22.545 19.93 23.255 19.2 24.135 19.2C25.015 19.2 25.725 19.92 25.725 20.82V21.17L25.845 21.19C26.795 21.37 27.605 21.68 28.165 22.09C28.915 22.63 29.305 23.3 29.305 24.01C29.305 24.79 28.695 25.37 27.885 25.37C27.275 25.37 26.745 25.01 26.205 24.62C25.555 24.1 24.875 23.85 24.105 23.85C23.335 23.85 22.835 24.14 22.835 24.62C22.835 25.1 23.225 25.39 24.025 25.54L25.965 25.94C28.365 26.46 29.535 27.63 29.535 29.52C29.535 31.54 28.155 33 25.845 33.43L25.725 33.45V33.87C25.725 34.76 25.015 35.48 24.135 35.48L24.145 35.49Z" fill="#1F2024"/>
<path d="M14.045 43.68C10.225 43.58 7.82504 42.4 6.23504 39.86C5.13504 38.15 4.66504 35.65 4.66504 31.5C4.66504 23.84 7.93504 17.73 14.665 12.84L14.015 12.25C12.785 11.02 12.375 9.04 12.985 7.33C13.615 5.53 15.335 4.31 17.245 4.31H30.745C32.625 4.31 34.865 5.21 35.605 7.23C36.305 9.13 35.125 11.1 34.015 12.41L33.595 12.83C39.695 17.21 43.335 24.22 43.335 31.61C43.335 36.4 42.205 39.85 39.975 41.87C38.145 43.37 36.105 43.59 34.175 43.69H14.055L14.045 43.68ZM17.745 8.08C17.255 8.08 16.645 8.16 16.505 8.56C16.315 8.89 16.505 9.36 16.795 9.66L20.725 13.25L17.135 15.79C11.345 20 8.53504 25.21 8.53504 31.69C8.53504 35.11 8.82504 36.95 9.56504 38.25C10.305 39.53 11.925 40.21 14.245 40.21H34.045C35.655 40.1 36.785 39.89 37.735 39.12C39.125 37.92 39.855 35.35 39.855 31.69C39.855 25.46 36.755 19.51 31.555 15.78L27.965 13.11L28.425 12.72C29.135 12.11 30.945 10.4 31.595 9.75C32.015 9.27 32.145 8.8 31.935 8.44C31.805 8.19 31.485 8.07 31.245 8.07H17.745V8.08Z" fill="#1F2024"/>
</svg>
