<svg width="48" height="48" viewBox="0 0 48 48" fill="none" xmlns="http://www.w3.org/2000/svg">
<path fill-rule="evenodd" clip-rule="evenodd" d="M43.0297 30.275C43.0297 30.135 43.0097 29.995 42.9997 29.855C42.9797 29.565 42.9497 29.2751 42.9197 28.9851C42.8997 28.8251 42.8797 28.665 42.8597 28.505C42.8197 28.235 42.7797 27.975 42.7397 27.705C42.7097 27.545 42.6797 27.375 42.6497 27.215C42.5997 26.945 42.5397 26.685 42.4797 26.425C42.4397 26.275 42.4097 26.125 42.3697 25.965C42.2997 25.675 42.2097 25.385 42.1297 25.105C42.0897 24.985 42.0597 24.8651 42.0297 24.7451C41.8997 24.3451 41.7697 23.945 41.6197 23.545C41.5997 23.485 41.5697 23.415 41.5397 23.355C41.4097 23.025 41.2797 22.695 41.1397 22.375C41.0797 22.245 41.0197 22.105 40.9497 21.975C40.8297 21.725 40.7097 21.475 40.5897 21.225C40.5197 21.075 40.4397 20.935 40.3597 20.795C40.2297 20.565 40.1097 20.335 39.9697 20.105C39.8897 19.965 39.7997 19.825 39.7197 19.685C39.5797 19.455 39.4297 19.225 39.2797 18.995C39.1997 18.865 39.1097 18.735 39.0297 18.615C38.8497 18.355 38.6597 18.095 38.4597 17.835C38.3997 17.755 38.3397 17.665 38.2697 17.585C38.0097 17.245 37.7397 16.915 37.4597 16.595C37.3897 16.515 37.3197 16.445 37.2497 16.365C37.0297 16.125 36.8097 15.885 36.5897 15.655C36.4797 15.545 36.3697 15.435 36.2597 15.325C36.1297 15.195 35.9997 15.065 35.8697 14.935C35.7997 14.875 35.7297 14.815 35.6697 14.755C35.5197 14.615 35.3597 14.475 35.2097 14.345C35.0997 14.255 34.9997 14.155 34.8897 14.055C34.8797 14.055 34.8697 14.035 34.8597 14.025C34.8097 13.985 34.7497 13.945 34.6997 13.895C34.2497 13.525 33.7897 13.165 33.3097 12.825L33.6297 12.555L33.8097 12.405L33.9597 12.225C34.1297 12.025 34.2997 11.795 34.4497 11.535C34.4697 11.505 34.4897 11.485 34.4997 11.455C34.6497 11.205 34.7697 10.925 34.8797 10.625C34.8897 10.595 34.9097 10.575 34.9197 10.535C34.9197 10.505 34.9297 10.475 34.9397 10.445C34.9697 10.335 34.9997 10.205 35.0297 10.085C35.0497 9.99505 35.0697 9.90505 35.0897 9.80505C35.1097 9.67505 35.1197 9.53505 35.1297 9.39505C35.1297 9.29505 35.1497 9.20505 35.1497 9.10505C35.1497 8.94505 35.1297 8.77505 35.1097 8.60505C35.1097 8.51505 35.1097 8.43505 35.0897 8.34505C35.0497 8.08505 34.9897 7.80505 34.8997 7.52505C34.8497 7.29505 34.7797 7.07505 34.6897 6.86505C34.6597 6.79505 34.6197 6.72505 34.5797 6.65505C34.5197 6.52505 34.4597 6.38505 34.3797 6.26505C34.3297 6.18505 34.2597 6.10505 34.1997 6.03505C34.1297 5.93505 34.0597 5.83505 33.9697 5.74505C33.8997 5.67505 33.8197 5.61505 33.7497 5.54505C33.6597 5.46505 33.5797 5.37505 33.4797 5.29505C33.3997 5.23505 33.3097 5.18505 33.2197 5.12505C33.1197 5.05505 33.0197 4.98505 32.9097 4.92505C32.8197 4.87505 32.7197 4.84505 32.6297 4.80505C32.5197 4.75505 32.4097 4.69505 32.2897 4.65505C32.1897 4.62505 32.0797 4.60505 31.9797 4.57505C31.8597 4.54505 31.7397 4.50505 31.6097 4.48505C31.4997 4.46505 31.3897 4.46505 31.2797 4.45505C31.1497 4.44505 31.0297 4.42505 30.8997 4.42505C30.8997 4.42505 30.8897 4.42505 30.8797 4.42505H17.3197C15.4497 4.42505 13.8297 5.56505 13.1797 7.34505C13.0997 7.55505 13.0397 7.77505 12.9997 8.00505C12.9897 8.07505 12.9797 8.15505 12.9697 8.22505C12.9497 8.37505 12.9297 8.52505 12.9197 8.67505C12.9197 8.76505 12.9197 8.85505 12.9197 8.93505C12.9197 9.07505 12.9197 9.20505 12.9397 9.34505C12.9397 9.43505 12.9597 9.52505 12.9797 9.61505C12.9997 9.74505 13.0197 9.87505 13.0597 10.005C13.0697 10.045 13.0697 10.095 13.0897 10.135C13.1097 10.195 13.1297 10.255 13.1497 10.315C13.1697 10.395 13.1997 10.465 13.2297 10.545C13.2697 10.655 13.3197 10.765 13.3797 10.875C13.4097 10.945 13.4397 11.015 13.4797 11.085C13.5397 11.205 13.6097 11.315 13.6897 11.425C13.7297 11.475 13.7597 11.535 13.7997 11.585C13.9197 11.745 14.0397 11.895 14.1797 12.035L14.2497 12.105L14.3197 12.165L15.0197 12.785C14.5897 13.085 14.1797 13.405 13.7797 13.715C13.6497 13.815 13.5197 13.925 13.3997 14.025C13.1297 14.245 12.8597 14.465 12.6097 14.695C12.5497 14.745 12.4897 14.795 12.4297 14.845C12.2997 14.965 12.1697 15.085 12.0397 15.205C11.9297 15.305 11.8097 15.415 11.6997 15.515C11.4697 15.735 11.2497 15.965 11.0297 16.185C10.9597 16.265 10.8797 16.335 10.8097 16.415C10.5197 16.725 10.2497 17.035 9.97973 17.345C9.91973 17.425 9.84973 17.505 9.78973 17.575C9.58973 17.815 9.38973 18.065 9.19973 18.315C9.10973 18.435 9.02973 18.555 8.93973 18.675C8.77973 18.895 8.62973 19.115 8.47973 19.335C8.38973 19.465 8.30973 19.605 8.21973 19.735C8.07973 19.955 7.94973 20.175 7.81973 20.405C7.73973 20.545 7.65973 20.6751 7.57973 20.8151C7.44973 21.0551 7.31973 21.295 7.19973 21.545C7.13973 21.675 7.06973 21.805 7.00973 21.935C6.85973 22.245 6.71973 22.565 6.58973 22.885C6.55973 22.955 6.52973 23.015 6.49973 23.085C6.33973 23.475 6.19973 23.875 6.06973 24.275C6.02973 24.395 5.99973 24.515 5.95973 24.635C5.86973 24.925 5.77973 25.215 5.69973 25.515C5.65973 25.675 5.61973 25.8251 5.58973 25.9851C5.52973 26.2551 5.45973 26.525 5.40973 26.805C5.37973 26.975 5.34973 27.1451 5.31973 27.3151C5.26973 27.5951 5.22973 27.875 5.18973 28.165C5.16973 28.335 5.13973 28.505 5.11973 28.675C5.08973 28.985 5.05973 29.305 5.03973 29.615C5.02973 29.765 5.00973 29.9151 5.00973 30.0651C4.97973 30.5351 4.96973 31.015 4.96973 31.505C4.96973 37.785 6.08973 43.365 14.0697 43.495H33.9697C37.1697 43.275 43.0697 42.685 43.0697 31.515C43.0697 31.085 43.0597 30.655 43.0297 30.225V30.275ZM33.6797 28.255C33.6797 28.835 33.1997 29.3151 32.6197 29.3151H30.9697L29.8097 33.675C29.5197 34.835 28.9397 35.415 27.8697 35.415C26.7997 35.415 26.2197 34.935 25.8397 33.675L23.9997 26.9951H23.8997L22.0597 33.675C21.7697 34.835 21.1897 35.415 20.1197 35.415C19.1497 35.315 18.5697 34.7351 18.1797 33.5751L17.0197 29.215H15.3697C14.7897 29.215 14.3097 28.7351 14.3097 28.1551V27.765C14.3097 27.185 14.7897 26.705 15.3697 26.705H16.3397L15.6597 24.385C15.5597 23.995 15.4697 23.515 15.4697 23.225C15.4697 22.255 16.0497 21.775 17.1197 21.775C17.9897 21.775 18.4797 22.255 18.6697 23.225L20.3197 30.875H20.4197L22.3597 23.225C22.5497 22.255 23.1297 21.865 24.0097 21.865C24.8897 21.865 25.3697 22.345 25.6597 23.225L27.5997 30.965H27.6997L29.3497 23.3151C29.5397 22.3451 30.0297 21.865 30.8997 21.865C31.9597 21.865 32.5497 22.4451 32.5497 23.3151C32.5497 23.6051 32.4497 24.085 32.3597 24.475L31.6797 26.795H32.6497C33.2297 26.795 33.7097 27.275 33.7097 27.855V28.2451L33.6797 28.255Z" fill="#1F2024"/>
</svg>
