<svg width="48" height="48" viewBox="0 0 48 48" fill="none" xmlns="http://www.w3.org/2000/svg">
<path d="M14.055 43.12C10.465 43.02 8.20499 41.93 6.72499 39.56C5.68499 37.94 5.23499 35.53 5.23499 31.5C5.23499 23.97 8.49499 17.97 15.185 13.17L15.575 12.9L14.405 11.83C13.345 10.77 12.985 9.03 13.525 7.52C14.085 5.94 15.575 4.88 17.245 4.88H30.745C32.435 4.88 34.425 5.67 35.065 7.42C35.705 9.15 34.405 11.06 33.575 12.04L32.715 12.9L33.095 13.16C39.145 17.43 42.765 24.32 42.765 31.6C42.765 36.23 41.695 39.54 39.585 41.44C37.915 42.82 36.055 43.02 34.145 43.12H14.055ZM16.815 15.33C10.855 19.67 7.96499 25.03 7.96499 31.71C7.96499 35.24 8.27499 37.15 9.07499 38.55C9.92499 40.02 11.715 40.79 14.255 40.79H34.055C35.815 40.68 37.035 40.44 38.105 39.58C39.635 38.26 40.435 35.54 40.435 31.71C40.435 25.29 37.245 19.17 31.895 15.34L28.885 13.11C29.665 12.42 31.365 10.82 32.005 10.17C32.875 9.19 32.595 8.45 32.425 8.18C32.195 7.74 31.665 7.53 31.255 7.53H17.755C16.545 7.53 16.125 8 15.975 8.39C15.665 8.91 15.965 9.64 16.385 10.07L19.815 13.2L16.805 15.34L16.815 15.33Z" fill="#1F2024"/>
<path d="M24.115 34.72C23.515 34.72 23.035 34.24 23.035 33.64V31.76H19.215C18.665 31.76 18.225 31.32 18.225 30.77C18.225 30.22 18.675 29.78 19.215 29.78H23.035V28.22H19.215C18.665 28.22 18.225 27.78 18.225 27.23C18.225 26.68 18.675 26.24 19.215 26.24H22.905L18.715 22.82C18.485 22.64 18.345 22.38 18.325 22.09C18.295 21.8 18.385 21.52 18.565 21.3C18.775 21.05 19.075 20.91 19.405 20.91C19.655 20.91 19.905 21 20.095 21.15L24.065 24.39L27.665 20.98C27.865 20.79 28.135 20.69 28.415 20.69C28.715 20.69 28.995 20.81 29.205 21.02C29.405 21.23 29.505 21.5 29.495 21.79C29.495 22.08 29.365 22.35 29.155 22.55L25.255 26.24H28.805C29.355 26.24 29.795 26.68 29.795 27.23C29.795 27.78 29.345 28.22 28.805 28.22H25.215V29.78H28.805C29.355 29.78 29.795 30.22 29.795 30.77C29.795 31.32 29.345 31.76 28.805 31.76H25.215V33.64C25.215 34.24 24.725 34.72 24.135 34.72H24.115Z" fill="#1F2024"/>
</svg>
