<svg width="48" height="48" viewBox="0 0 48 48" fill="none" xmlns="http://www.w3.org/2000/svg">
<path d="M33.26 12.935L33.16 12.865L33.8 12.225C34.68 11.185 36.03 9.205 35.34 7.325C34.65 5.445 32.55 4.595 30.75 4.595H17.25C15.42 4.595 13.84 5.775 13.26 7.425C12.7 8.985 13.03 10.865 14.21 12.045L15.12 12.875L15.02 12.945C8.23995 17.805 4.94995 23.875 4.94995 31.505C4.94995 35.605 5.40995 38.055 6.47995 39.715C8.00995 42.165 10.35 43.305 14.05 43.405H34.16C36.13 43.305 38.04 43.085 39.78 41.655C41.95 39.695 43.0499 36.315 43.0499 31.605C43.0499 24.235 39.39 17.255 33.26 12.935ZM28.79 29.495C29.49 29.495 30.07 30.065 30.07 30.765C30.07 31.465 29.5 32.035 28.79 32.035H25.48V33.635C25.48 34.385 24.87 34.995 24.11 34.995C23.35 34.995 22.74 34.385 22.74 33.635V32.035H19.2C18.5 32.035 17.92 31.465 17.92 30.765C17.92 30.065 18.49 29.495 19.2 29.495H22.74V28.505H19.2C18.5 28.505 17.92 27.935 17.92 27.235C17.92 26.535 18.49 25.965 19.2 25.965H22.1L18.53 23.045C17.95 22.575 17.86 21.705 18.34 21.125C18.81 20.545 19.68 20.465 20.26 20.935L24.03 24.015L27.45 20.775C28 20.265 28.86 20.285 29.38 20.825C29.9 21.375 29.87 22.235 29.33 22.755L25.95 25.955H28.78C29.48 25.955 30.06 26.525 30.06 27.225C30.06 27.925 29.49 28.495 28.78 28.495H25.47V29.485H28.78L28.79 29.495Z" fill="#1F2024"/>
</svg>
