<svg width="49" height="48" viewBox="0 0 49 48" fill="none" xmlns="http://www.w3.org/2000/svg">
<path d="M14.3 43.2C10.52 43.1 8.13 41.93 6.56 39.41C5.47 37.72 5 35.23 5 31.1C5 23.44 8.29 17.34 15.06 12.45L14.34 11.79C13.1 10.55 12.76 8.59 13.34 6.95C13.92 5.31 15.59 4 17.5 4H31C32.87 4 35.06 4.89 35.78 6.87C36.5 8.85 35.11 10.9 34.21 11.96L33.73 12.44C39.85 16.8 43.51 23.81 43.51 31.2C43.51 35.97 42.39 39.4 40.18 41.4C38.38 42.88 36.44 43.1 34.44 43.2H14.3ZM18 7.6C17.25 7.6 16.81 7.78 16.67 8.14C16.46 8.51 16.67 9.01 16.98 9.32L20.83 12.84L17.33 15.33C11.52 19.56 8.7 24.79 8.7 31.3C8.7 34.73 8.99 36.58 9.75 37.9C10.5 39.21 12.14 39.9 14.5 39.9H34.3C35.94 39.8 37.08 39.58 38.05 38.79C39.46 37.57 40.2 34.98 40.2 31.3C40.2 25.04 37.08 19.07 31.87 15.32L28.36 12.72L28.74 12.39C29.45 11.78 31.24 10.09 31.92 9.41C32.6 8.65 32.36 8.15 32.27 8.02C32.12 7.74 31.78 7.6 31.5 7.6H18Z" fill="#1F2024"/>
<path d="M27.8902 34.17C27.2102 34.17 26.6002 33.74 26.3602 33.11L24.2702 27.58L22.2902 33.05C22.0702 33.71 21.4402 34.16 20.7202 34.16C20.0002 34.16 19.3802 33.69 19.1702 33.01L17.6902 28.42L16.2402 28.39C15.5102 28.39 14.9102 27.8 14.9102 27.06C14.9102 26.32 15.5002 25.73 16.2402 25.73H16.7602L16.2502 23.94C16.1402 23.6 16.1702 23.25 16.3302 22.93C16.4902 22.61 16.7702 22.38 17.1002 22.27C17.2302 22.23 17.3702 22.21 17.5002 22.21C18.0802 22.21 18.5802 22.58 18.7602 23.13L20.7102 29.18L22.6102 23.93C22.8502 23.27 23.4702 22.82 24.1602 22.82C24.8602 22.82 25.4802 23.27 25.7002 23.93L27.6802 29.15L29.4502 23.17C29.6102 22.6 30.1402 22.2 30.7302 22.2C30.8502 22.2 30.9702 22.22 31.0902 22.25C31.4302 22.35 31.7102 22.57 31.8902 22.88C32.0602 23.19 32.1102 23.55 32.0102 23.89L31.5102 25.67L32.2702 25.73C33.0002 25.73 33.6002 26.32 33.6002 27.06C33.6002 27.8 33.0102 28.39 32.2702 28.39H30.7802L29.4502 32.97C29.2402 33.66 28.6302 34.14 27.9202 34.17H27.8602H27.8902Z" fill="#1F2024"/>
</svg>
