<svg width="48" height="48" viewBox="0 0 48 48" fill="none" xmlns="http://www.w3.org/2000/svg">
<path d="M14.1002 43.55C10.3002 43.45 7.9002 42.25 6.3002 39.75C5.2002 37.85 4.7002 35.35 4.7002 31.35C4.7002 23.55 8.0002 17.45 14.7002 12.65L14.1002 12.15C12.8002 10.85 12.4002 8.95 13.0002 7.25C13.6002 5.45 15.3002 4.25 17.3002 4.25H30.8002C32.9002 4.25 35.3002 5.15 35.7002 7.25C35.9002 9.05 35.3002 10.95 34.0002 12.45L33.6002 12.95C39.7002 17.35 43.3002 24.25 43.3002 31.65C43.3002 36.55 42.2002 39.95 39.9002 41.85C38.1002 43.35 36.0002 43.55 34.1002 43.75L14.1002 43.55ZM17.7002 8.05C17.0002 8.05 16.6002 8.15 16.5002 8.45C16.3002 8.75 16.5002 9.25 16.7002 9.45L20.7002 13.05L17.2002 15.55C11.4002 19.75 8.6002 24.95 8.6002 31.45C8.6002 34.75 8.9002 36.75 9.7002 38.05C10.4002 39.35 11.9002 39.95 14.3002 40.05H34.1002C35.6002 39.95 36.8002 39.75 37.8002 38.95C39.2002 37.75 39.9002 35.15 39.9002 31.55C39.9002 25.35 36.8002 19.35 31.6002 15.65L28.0002 13.05L28.2002 12.85C28.2002 12.85 30.8002 10.55 31.6002 9.65C32.0002 9.15 32.2002 8.75 31.9002 8.35C31.8002 8.15 31.5002 7.95 31.2002 7.95H17.7002V8.05Z" fill="#1F2024"/>
<path fill-rule="evenodd" clip-rule="evenodd" d="M28.0002 35.35C26.9002 35.35 26.3002 34.85 25.9002 33.55L24.1002 27.05L22.3002 33.55C22.0002 34.75 21.4002 35.35 20.3002 35.35C19.3002 35.25 18.6002 34.65 18.2002 33.45L17.0002 29.15H15.5002C14.8002 29.15 14.3002 28.55 14.3002 27.95V27.55C14.3002 26.95 14.8002 26.35 15.5002 26.35H16.4002L15.7002 24.15C15.6002 23.95 15.5002 23.25 15.5002 22.95C15.5002 21.95 16.1002 21.35 17.2002 21.35C18.2002 21.35 18.7002 21.85 18.8002 22.95L20.3002 30.35L22.2002 22.95C22.4002 21.95 23.0002 21.45 23.9002 21.45C24.8002 21.45 25.4002 21.95 25.6002 22.95L27.5002 30.45L29.1002 23.05C29.3002 21.95 29.9002 21.45 30.7002 21.45C31.8002 21.45 32.4002 22.05 32.4002 23.05C32.4002 23.45 32.3002 24.05 32.2002 24.25L31.5002 26.45H32.4002C33.0002 26.45 33.6002 26.95 33.6002 27.65V28.05C33.6002 28.75 33.0002 29.25 32.4002 29.25H31.3002L30.1002 33.55C29.7002 34.75 29.1002 35.35 28.0002 35.35Z" fill="#1F2024"/>
</svg>
