<svg width="48" height="48" viewBox="0 0 48 48" fill="none" xmlns="http://www.w3.org/2000/svg">
<path d="M14.0499 43.2001C10.4499 43.1001 8.1499 42 6.6499 39.6C5.5499 37.9 5.1499 35.3 5.1499 31.5C5.1499 23.8 8.4499 17.9 15.1499 13.1L15.4499 12.9L14.3499 11.9C13.2499 10.8 12.8499 9.00005 13.4499 7.50005C13.9499 5.90005 15.5499 4.80005 17.2499 4.80005H30.7499C32.6499 4.80005 34.5499 5.70005 35.1499 7.40005C35.7499 9.00005 34.7499 10.8 33.6499 12.1L32.8499 12.9L33.1499 13.1C39.2499 17.4 42.8499 24.3 42.8499 31.6C42.8499 36.3 41.7499 39.6 39.6499 41.5C37.9499 42.9 36.0499 43.1001 34.1499 43.2001H14.0499ZM16.8499 15.4C10.9499 19.7 8.0499 25 8.0499 31.7C8.0499 35.2 8.3499 37.1 9.1499 38.5C9.9499 39.9 11.6499 40.7001 14.2499 40.7001H34.0499C35.6499 40.6001 36.9499 40.4 38.0499 39.5C39.5499 38.2 40.3499 35.5 40.3499 31.7C40.3499 25.3 37.1499 19.2 31.8499 15.4L28.7499 13.1C29.4499 12.5 31.2499 10.8 31.9499 10.1C32.7499 9.20005 32.5499 8.50005 32.3499 8.20005C32.1499 7.80005 31.6499 7.60005 31.2499 7.60005H17.7499C17.4499 7.60005 16.3499 7.60005 16.0499 8.40005C15.7499 8.90005 16.0499 9.60005 16.4499 10L19.9499 13.2L16.8499 15.4Z" fill="#1F2024"/>
<path fill-rule="evenodd" clip-rule="evenodd" d="M27.9499 35.3C26.9499 35.3 26.4499 34.8 26.0499 33.7L24.1499 26.9H23.8499L22.0499 33.7C21.7499 34.8 21.2499 35.3 20.2499 35.3C19.3499 35.2 18.7499 34.7 18.3499 33.6L17.1499 29.1H15.4499C14.9499 29.1 14.4499 28.7 14.4499 28.1V27.7C14.4499 27.2 14.8499 26.7 15.4499 26.7H16.6499L15.8499 24.2C15.7499 23.7 15.6499 23.3 15.6499 23C15.6499 21.9 16.4499 21.6 17.1499 21.6C17.9499 21.6 18.4499 22.1 18.5499 23L20.1499 30.7H20.3499L20.4499 30.6L22.3499 23C22.5499 22.1 22.9499 21.7 23.8499 21.7C24.6499 21.7 25.1499 22.2 25.3499 23L27.2499 30.8H27.5499L29.1499 23.1C29.3499 22.2 29.7499 21.7 30.5499 21.7C31.5499 21.7 32.0499 22.2 32.0499 23.1C32.0499 23.3 31.9499 23.8 31.8499 24.3L31.0499 26.8H32.2499C32.7499 26.8 33.2499 27.2 33.2499 27.8V28.2C33.2499 28.7 32.8499 29.2 32.2499 29.2H30.9499L29.7499 33.7C29.4499 34.8 28.9499 35.3 27.9499 35.3Z" fill="#1F2024"/>
</svg>
