<svg width="48" height="49" viewBox="0 0 48 49" fill="none" xmlns="http://www.w3.org/2000/svg">
<path d="M23.91 35.19C23.27 35.19 22.74 34.66 22.74 34V33.19L22.51 33.15C21.24 32.92 20.17 32.41 19.57 31.75C19.17 31.35 18.95 30.87 18.95 30.43C18.95 29.84 19.35 29.47 19.97 29.47C20.39 29.47 20.72 29.62 21.27 30.07C22.21 30.87 23.12 31.23 24.21 31.23C25.37 31.23 26.06 30.76 26.06 29.96C26.06 28.84 24.91 28.62 24.54 28.54L22.74 28.17C21.21 27.85 19.38 27.04 19.38 24.99C19.38 23.31 20.52 22.12 22.51 21.71L22.74 21.66V20.94C22.74 20.28 23.26 19.75 23.91 19.75C24.56 19.75 25.08 20.28 25.08 20.94V21.65L25.32 21.69C26.31 21.85 27.13 22.15 27.69 22.55C28.33 23.02 28.66 23.55 28.66 24.13C28.66 24.67 28.24 25.06 27.67 25.06C27.23 25.06 26.83 24.82 26.24 24.39C25.53 23.82 24.75 23.54 23.89 23.54C22.86 23.54 22.2 24.01 22.2 24.74C22.2 25.22 22.47 25.83 23.73 26.08L25.67 26.48C27.87 26.95 28.9 27.96 28.9 29.64C28.9 31.54 27.6 32.82 25.33 33.17L25.09 33.21V33.99C25.09 34.65 24.57 35.18 23.92 35.18L23.91 35.19Z" fill="#1F2024"/>
<path d="M13.82 43.24C10.23 43.14 7.97 42.05 6.49 39.68C5.45 38.06 5 35.65 5 31.62C5 24.09 8.25 18.09 14.95 13.29L15.34 13.02L14.17 11.95C13.11 10.89 12.75 9.15 13.3 7.64C13.86 6.06 15.35 5 17.02 5H30.52C32.21 5 34.2 5.79 34.84 7.54C35.48 9.27 34.18 11.18 33.35 12.16L32.49 13.02L32.87 13.28C38.92 17.55 42.54 24.44 42.54 31.72C42.54 36.34 41.47 39.66 39.36 41.56C37.68 42.94 35.83 43.14 33.92 43.24H13.82ZM16.58 15.45C10.62 19.79 7.73 25.15 7.73 31.83C7.73 35.36 8.04 37.27 8.84 38.67C9.69 40.14 11.48 40.91 14.02 40.91H33.82C35.58 40.8 36.8 40.56 37.87 39.7C39.4 38.38 40.2 35.66 40.2 31.83C40.2 25.41 37.01 19.29 31.66 15.46L28.65 13.23C29.43 12.55 31.13 10.94 31.77 10.29C32.64 9.31 32.35 8.57 32.19 8.3C31.96 7.86 31.43 7.65 31.02 7.65H17.52C16.31 7.65 15.89 8.12 15.74 8.51C15.43 9.03 15.73 9.76 16.15 10.19L19.58 13.32L16.57 15.46L16.58 15.45Z" fill="#1F2024"/>
</svg>
