<svg width="48" height="48" viewBox="0 0 48 48" fill="none" xmlns="http://www.w3.org/2000/svg">
<path d="M29.3986 29.5305C29.3986 27.7135 28.2684 26.5938 25.9404 26.0929L23.9988 25.6902C23.1391 25.5232 22.6948 25.1696 22.6948 24.6294C22.6948 24.0597 23.2454 23.7159 24.1051 23.7159C24.8489 23.7159 25.5734 23.9418 26.2882 24.5115C26.8871 24.9535 27.3507 25.2383 27.882 25.2383C28.6161 25.2383 29.1571 24.7178 29.1571 24.0204C29.1571 23.3231 28.761 22.7141 28.0752 22.2132C27.457 21.7614 26.578 21.4569 25.583 21.2997V20.8283C25.583 20.0131 24.9358 19.355 24.1341 19.355C23.3323 19.355 22.6851 20.0131 22.6851 20.8283V21.3194C20.6083 21.7417 19.3236 23.0088 19.3236 24.8749C19.3236 26.6331 20.5697 27.8412 22.9073 28.3323L24.7136 28.7055C25.612 28.8823 26.008 29.2457 26.008 29.8449C26.008 30.4833 25.4285 30.827 24.4432 30.827C23.4579 30.827 22.5982 30.5127 21.6805 29.727C21.0913 29.2457 20.7049 29.0591 20.2026 29.0591C19.4202 29.0591 18.8986 29.5698 18.8986 30.3065C18.8986 30.8467 19.169 31.3967 19.5941 31.8191C20.2509 32.5459 21.3811 33.0763 22.6948 33.312V33.8817C22.6948 34.6969 23.342 35.355 24.1437 35.355C24.9455 35.355 25.5927 34.6969 25.5927 33.8817V33.3415C27.9689 32.9781 29.3986 31.603 29.3986 29.5305Z" fill="#1F2024"/>
<path d="M14.05 43.405C10.35 43.305 8.00995 42.165 6.47995 39.715C5.40995 38.055 4.94995 35.605 4.94995 31.505C4.94995 23.875 8.23995 17.805 15.02 12.945L15.12 12.875L14.21 12.045C13.03 10.865 12.7 8.98497 13.26 7.42497C13.84 5.77497 15.42 4.59497 17.25 4.59497H30.75C32.5499 4.59497 34.65 5.44497 35.34 7.32497C36.03 9.20497 34.68 11.185 33.8 12.225L33.16 12.865L33.26 12.935C39.3899 17.255 43.0499 24.235 43.0499 31.605C43.0499 36.315 41.95 39.695 39.78 41.655C38.04 43.085 36.1299 43.305 34.16 43.405H14.05ZM16.97 15.565C11.1 19.845 8.24995 25.125 8.24995 31.705C8.24995 35.175 8.54995 37.055 9.31995 38.405C10.11 39.775 11.81 40.505 14.25 40.505H34.05C35.74 40.395 36.91 40.175 37.92 39.355C39.38 38.095 40.15 35.445 40.15 31.705C40.15 25.375 37 19.345 31.73 15.565L28.43 13.115L28.62 12.955C29.33 12.345 31.13 10.645 31.81 9.96497C32.59 9.08497 32.29 8.48497 32.19 8.31497C32.01 7.96497 31.58 7.80497 31.26 7.80497H17.75C16.91 7.80497 16.4 8.03497 16.24 8.47497C15.99 8.89497 16.23 9.49497 16.59 9.86497L20.27 13.225L16.97 15.565Z" fill="#1F2024"/>
</svg>
