<svg width="48" height="48" viewBox="0 0 48 48" fill="none" xmlns="http://www.w3.org/2000/svg">
<path d="M14.05 43.405C10.35 43.305 8.00995 42.165 6.47995 39.715C5.40995 38.055 4.94995 35.605 4.94995 31.505C4.94995 23.875 8.23995 17.805 15.02 12.945L15.12 12.875L14.21 12.045C13.03 10.865 12.7 8.98497 13.26 7.42497C13.84 5.77497 15.42 4.59497 17.25 4.59497H30.75C32.5499 4.59497 34.65 5.44497 35.34 7.32497C36.03 9.20497 34.68 11.185 33.8 12.225L33.16 12.865L33.26 12.935C39.3899 17.255 43.0499 24.235 43.0499 31.605C43.0499 36.315 41.95 39.695 39.78 41.655C38.04 43.085 36.1299 43.305 34.16 43.405H14.05ZM16.97 15.565C11.1 19.845 8.24995 25.125 8.24995 31.705C8.24995 35.175 8.54995 37.055 9.31995 38.405C10.11 39.775 11.81 40.505 14.25 40.505H34.05C35.74 40.395 36.91 40.175 37.92 39.355C39.38 38.095 40.15 35.445 40.15 31.705C40.15 25.375 37 19.345 31.73 15.565L28.43 13.115L28.62 12.955C29.33 12.345 31.13 10.645 31.81 9.96497C32.59 9.08497 32.29 8.48497 32.19 8.31497C32.01 7.96497 31.58 7.80497 31.26 7.80497H17.75C16.91 7.80497 16.4 8.03497 16.24 8.47497C15.99 8.89497 16.23 9.49497 16.59 9.86497L20.27 13.225L16.97 15.565Z" fill="#1F2024"/>
<path d="M32.1199 26.455H31.2L31.75 24.485C31.93 23.835 31.55 23.155 30.9 22.975C30.25 22.795 29.57 23.175 29.39 23.825L27.59 30.235L25.45 24.585C25.24 23.965 24.66 23.555 24.01 23.545C23.36 23.545 22.78 23.955 22.55 24.585L20.59 30.265L18.5 23.785C18.29 23.145 17.6 22.785 16.96 22.995C16.32 23.205 15.96 23.895 16.17 24.535L16.79 26.455H16.07C15.39 26.455 14.84 27.005 14.84 27.675C14.84 28.345 15.39 28.895 16.07 28.895H17.58L19.09 33.595C19.29 34.235 19.87 34.665 20.54 34.675C21.2 34.675 21.81 34.255 22.01 33.635L24.03 27.765L26.27 33.685C26.5 34.285 27.07 34.685 27.71 34.685C27.73 34.685 27.75 34.685 27.76 34.685C28.42 34.665 29 34.215 29.2 33.555L30.51 28.895H32.11C32.79 28.895 33.3299 28.345 33.3299 27.675C33.3299 27.005 32.78 26.455 32.11 26.455H32.1199Z" fill="#1F2024"/>
</svg>
