<svg width="48" height="48" viewBox="0 0 48 48" fill="none" xmlns="http://www.w3.org/2000/svg">
<path d="M14.0499 43.2001C10.4499 43.1001 8.1499 42 6.6499 39.6C5.5499 37.9 5.1499 35.3 5.1499 31.5C5.1499 23.8 8.4499 17.9 15.1499 13.1L15.4499 12.9L14.3499 11.9C13.2499 10.8 12.9099 9.02005 13.4499 7.50005C13.9899 5.98005 15.5499 4.80005 17.2499 4.80005H30.7499C32.6499 4.80005 34.5299 5.71005 35.1499 7.40005C35.7299 9.01005 34.7999 10.85 33.6499 12.1C33.4599 12.31 32.8499 12.9 32.8499 12.9L33.1499 13.1C39.2499 17.4 42.8499 24.3 42.8499 31.6C42.8499 36.3 41.7499 39.6 39.6499 41.5C37.9499 42.9001 36.0499 43.1001 34.1499 43.2001H14.0499ZM16.8499 15.4C10.9499 19.7 8.0499 25 8.0499 31.7C8.0499 35.2 8.3499 37.1 9.1499 38.5C9.9499 39.9001 11.6499 40.7001 14.2499 40.7001H34.0499C35.6499 40.6001 36.9499 40.4001 38.0499 39.5C39.5499 38.2001 40.3499 35.5 40.3499 31.7C40.3499 25.3 37.1499 19.2 31.8499 15.4L28.7499 13.1C29.4499 12.5 31.2499 10.8 31.9499 10.1C32.7499 9.20005 32.5499 8.50005 32.3499 8.20005C32.1499 7.80005 31.6499 7.60005 31.2499 7.60005H17.7499C17.4499 7.60005 16.3499 7.60005 16.0499 8.40005C15.7499 8.90005 16.0499 9.60005 16.4499 10L19.9499 13.2L16.8499 15.4Z" fill="#1F2024"/>
<path d="M27.9199 34.5701C27.3499 34.5701 26.8299 34.2101 26.6199 33.6701L24.2299 27.3601L22.0699 33.6201C21.8799 34.1801 21.3499 34.5601 20.7399 34.5601C20.1299 34.5601 19.6099 34.1601 19.4299 33.5901L17.8799 28.7901H16.2599C15.6699 28.7901 15.1899 28.3101 15.1899 27.7201C15.1899 27.1301 15.6699 26.6501 16.2599 26.6501H17.1899L16.5099 24.5301C16.3299 23.9701 16.6399 23.3601 17.1999 23.1801C17.3099 23.1501 17.4199 23.1301 17.5299 23.1301C17.9999 23.1301 18.4099 23.4301 18.5499 23.8801L20.7699 30.7901L22.8699 24.6901C23.0699 24.1301 23.5999 23.7601 24.1899 23.7601C24.7799 23.7601 25.3099 24.1401 25.4999 24.6901L27.7999 30.7701L29.7199 23.9201C29.8499 23.4601 30.2799 23.1401 30.7599 23.1401C30.8599 23.1401 30.9599 23.1501 31.0499 23.1801C31.3299 23.2601 31.5599 23.4401 31.6999 23.6901C31.8399 23.9401 31.8699 24.2301 31.7999 24.5101L31.1899 26.6701H32.2999C32.8899 26.6701 33.3699 27.1501 33.3699 27.7401C33.3699 28.3301 32.8899 28.8101 32.2999 28.8101H30.5799L29.2399 33.5801C29.0599 34.1701 28.5399 34.5801 27.9399 34.6001H27.8899L27.9199 34.5701Z" fill="#1F2024"/>
</svg>
