<svg width="48" height="48" viewBox="0 0 48 48" fill="none" xmlns="http://www.w3.org/2000/svg">
<path fill-rule="evenodd" clip-rule="evenodd" d="M43.03 30.275C43.03 30.135 43.01 29.995 43 29.855C42.98 29.565 42.95 29.2751 42.92 28.9851C42.9 28.8251 42.88 28.665 42.86 28.505C42.82 28.235 42.78 27.975 42.74 27.705C42.71 27.545 42.68 27.375 42.65 27.215C42.6 26.945 42.54 26.685 42.48 26.425C42.44 26.275 42.41 26.125 42.37 25.965C42.3 25.675 42.21 25.385 42.13 25.105C42.09 24.985 42.06 24.8651 42.03 24.7451C41.9 24.3451 41.77 23.945 41.62 23.545C41.6 23.4851 41.57 23.415 41.54 23.355C41.41 23.025 41.28 22.695 41.14 22.375C41.08 22.2451 41.02 22.105 40.95 21.975C40.83 21.725 40.71 21.475 40.59 21.225C40.52 21.0751 40.44 20.935 40.36 20.795C40.23 20.5651 40.11 20.335 39.97 20.105C39.89 19.965 39.8 19.825 39.72 19.685C39.58 19.455 39.43 19.225 39.28 18.995C39.2 18.865 39.11 18.735 39.03 18.615C38.85 18.355 38.66 18.095 38.46 17.835C38.4 17.755 38.34 17.665 38.27 17.585C38.01 17.245 37.74 16.915 37.46 16.595C37.39 16.515 37.32 16.445 37.25 16.365C37.03 16.125 36.81 15.885 36.59 15.655C36.48 15.545 36.37 15.435 36.26 15.325C36.13 15.195 36 15.065 35.87 14.935C35.8 14.875 35.73 14.815 35.67 14.755C35.52 14.615 35.36 14.475 35.21 14.345C35.1 14.255 35 14.155 34.89 14.055C34.88 14.055 34.87 14.035 34.86 14.025C34.81 13.985 34.75 13.945 34.7 13.895C34.25 13.525 33.79 13.165 33.31 12.825L33.63 12.555L33.81 12.405L33.96 12.225C34.13 12.025 34.3 11.795 34.45 11.535C34.47 11.505 34.49 11.485 34.5 11.455C34.65 11.205 34.77 10.925 34.88 10.625C34.89 10.595 34.91 10.575 34.92 10.535C34.92 10.505 34.93 10.475 34.94 10.445C34.97 10.335 35 10.205 35.03 10.085C35.05 9.99505 35.07 9.90505 35.09 9.80505C35.11 9.67505 35.12 9.53505 35.13 9.39505C35.13 9.29505 35.15 9.20505 35.15 9.10505C35.15 8.94505 35.13 8.77505 35.11 8.60505C35.11 8.51505 35.11 8.43505 35.09 8.34505C35.05 8.08505 34.99 7.80505 34.9 7.52505C34.85 7.29505 34.78 7.07505 34.69 6.86505C34.66 6.79505 34.62 6.72505 34.58 6.65505C34.52 6.52505 34.46 6.38505 34.38 6.26505C34.33 6.18505 34.26 6.10505 34.2 6.03505C34.13 5.93505 34.06 5.83505 33.97 5.74505C33.9 5.67505 33.82 5.61505 33.75 5.54505C33.66 5.46505 33.58 5.37505 33.48 5.29505C33.4 5.23505 33.31 5.18505 33.22 5.12505C33.12 5.05505 33.02 4.98505 32.91 4.92505C32.82 4.87505 32.72 4.84505 32.63 4.80505C32.52 4.75505 32.41 4.69505 32.29 4.65505C32.19 4.62505 32.08 4.60505 31.98 4.57505C31.86 4.54505 31.74 4.50505 31.61 4.48505C31.5 4.46505 31.39 4.46505 31.28 4.45505C31.15 4.44505 31.03 4.42505 30.9 4.42505C30.9 4.42505 30.89 4.42505 30.88 4.42505H17.32C15.45 4.42505 13.83 5.56505 13.18 7.34505C13.1 7.55505 13.04 7.77505 13 8.00505C12.99 8.07505 12.98 8.15505 12.97 8.22505C12.95 8.37505 12.93 8.52505 12.92 8.67505C12.92 8.76505 12.92 8.85505 12.92 8.93505C12.92 9.07505 12.92 9.20505 12.94 9.34505C12.94 9.43505 12.96 9.52505 12.98 9.61505C13 9.74505 13.02 9.87505 13.06 10.005C13.07 10.045 13.07 10.095 13.09 10.135C13.11 10.195 13.13 10.255 13.15 10.315C13.17 10.395 13.2 10.465 13.23 10.545C13.27 10.655 13.32 10.765 13.38 10.875C13.41 10.945 13.44 11.015 13.48 11.085C13.54 11.205 13.61 11.315 13.69 11.425C13.73 11.475 13.76 11.535 13.8 11.585C13.92 11.745 14.04 11.895 14.18 12.035L14.25 12.105L14.32 12.165L15.02 12.785C14.59 13.085 14.18 13.405 13.78 13.715C13.65 13.815 13.52 13.925 13.4 14.025C13.13 14.245 12.86 14.465 12.61 14.695C12.55 14.745 12.49 14.795 12.43 14.845C12.3 14.965 12.17 15.085 12.04 15.205C11.93 15.305 11.81 15.415 11.7 15.515C11.47 15.735 11.25 15.965 11.03 16.185C10.96 16.265 10.88 16.335 10.81 16.415C10.52 16.725 10.25 17.035 9.97997 17.345C9.91997 17.425 9.84997 17.505 9.78997 17.575C9.58997 17.815 9.38997 18.065 9.19997 18.315C9.10997 18.435 9.02997 18.555 8.93997 18.675C8.77997 18.895 8.62997 19.115 8.47997 19.335C8.38997 19.465 8.30997 19.605 8.21997 19.735C8.07997 19.955 7.94997 20.175 7.81997 20.405C7.73997 20.545 7.65997 20.6751 7.57997 20.8151C7.44997 21.055 7.31997 21.295 7.19997 21.545C7.13997 21.675 7.06997 21.805 7.00997 21.935C6.85997 22.245 6.71997 22.5651 6.58997 22.885C6.55997 22.955 6.52997 23.015 6.49997 23.085C6.33997 23.475 6.19997 23.875 6.06997 24.275C6.02997 24.3951 5.99997 24.515 5.95997 24.635C5.86997 24.9251 5.77997 25.215 5.69997 25.515C5.65997 25.675 5.61997 25.8251 5.58997 25.9851C5.52997 26.2551 5.45997 26.525 5.40997 26.805C5.37997 26.975 5.34997 27.1451 5.31997 27.3151C5.26997 27.5951 5.22997 27.875 5.18997 28.165C5.16997 28.335 5.13997 28.505 5.11997 28.675C5.08997 28.985 5.05997 29.305 5.03997 29.615C5.02997 29.765 5.00997 29.9151 5.00997 30.0651C4.97997 30.535 4.96997 31.015 4.96997 31.505C4.96997 37.785 6.08997 43.365 14.07 43.495H33.97C37.17 43.275 43.07 42.6851 43.07 31.515C43.07 31.085 43.06 30.6551 43.03 30.225V30.275ZM33.68 28.255C33.68 28.835 33.2 29.3151 32.62 29.3151H30.97L29.81 33.675C29.52 34.835 28.94 35.415 27.87 35.415C26.8 35.415 26.22 34.935 25.84 33.675L24 26.9951H23.9L22.06 33.675C21.77 34.835 21.19 35.415 20.12 35.415C19.15 35.315 18.57 34.7351 18.18 33.5751L17.02 29.215H15.37C14.79 29.215 14.31 28.7351 14.31 28.1551V27.765C14.31 27.185 14.79 26.705 15.37 26.705H16.34L15.66 24.385C15.56 23.9951 15.47 23.5151 15.47 23.225C15.47 22.2551 16.05 21.775 17.12 21.775C17.99 21.775 18.48 22.2551 18.67 23.225L20.32 30.875H20.42L22.36 23.225C22.55 22.2551 23.13 21.865 24.01 21.865C24.89 21.865 25.37 22.3451 25.66 23.225L27.6 30.965H27.7L29.35 23.3151C29.54 22.3451 30.03 21.865 30.9 21.865C31.96 21.865 32.55 22.445 32.55 23.3151C32.55 23.6051 32.45 24.0851 32.36 24.475L31.68 26.795H32.65C33.23 26.795 33.71 27.275 33.71 27.855V28.2451L33.68 28.255Z" fill="#1F2024"/>
</svg>
