<svg width="48" height="48" viewBox="0 0 48 48" fill="none" xmlns="http://www.w3.org/2000/svg">
<path d="M33.9851 43.5451H14.0551C10.3651 43.4851 7.90506 42.2751 6.49506 39.8551C5.41506 38.0051 4.93506 35.4451 4.93506 31.5551C4.93506 23.7651 8.22506 17.6351 14.9951 12.8151L14.1651 12.0751C12.9851 10.8651 12.5951 8.98508 13.1751 7.37508C13.8251 5.59508 15.4451 4.45508 17.3151 4.45508H30.8551C32.8451 4.45508 34.4551 5.69508 34.8651 7.53508C35.3951 9.30508 35.0651 10.9051 33.9351 12.2251L33.5851 12.5651L33.2751 12.8351C39.4051 17.1651 43.0651 24.1651 43.0651 31.5651C43.0651 36.3951 41.9351 39.7951 39.7151 41.6551C37.9351 43.1451 35.8451 43.4051 34.0251 43.5351H33.9651L33.9851 43.5451ZM16.4751 9.75508L20.2451 13.1051L16.9051 15.4851C11.0551 19.6451 8.21506 24.9051 8.21506 31.5651C8.21506 34.8451 8.55506 36.8951 9.32506 38.2251C9.86506 39.1551 10.8951 40.2251 14.0851 40.2851H33.8751C35.2851 40.1851 36.6251 40.0151 37.6451 39.1651C39.0751 37.9651 39.8251 35.3451 39.8251 31.5851C39.8251 25.2451 36.6851 19.2351 31.4251 15.5251L27.9751 13.0951L31.5251 10.0651C31.8251 9.71508 32.0051 9.28508 31.7651 8.52508L31.6951 8.26508C31.6251 7.93508 31.3151 7.73508 30.8751 7.73508H17.3351C16.8451 7.73508 16.4451 8.02508 16.2651 8.50508C16.0951 8.96508 16.2351 9.49508 16.4751 9.75508Z" fill="#1F2024"/>
<path fill-rule="evenodd" clip-rule="evenodd" d="M18.205 33.5851L17.045 29.2251H15.395C14.815 29.2251 14.325 28.7451 14.325 28.1551V27.7651C14.325 27.1851 14.805 26.6951 15.395 26.6951H16.365L15.685 24.3751C15.585 23.9851 15.495 23.5051 15.495 23.2151C15.495 22.2451 16.075 21.7651 17.145 21.7651C18.015 21.7651 18.495 22.2451 18.695 23.2151L20.345 30.8651H20.445L22.385 23.2151C22.575 22.2451 23.155 21.8651 24.035 21.8651C24.915 21.8651 25.3949 22.3451 25.6749 23.2151L27.615 30.9551H27.715L29.365 23.3051C29.555 22.3351 30.045 21.8551 30.915 21.8551C31.985 21.8551 32.565 22.4351 32.565 23.3051C32.565 23.5951 32.465 24.0751 32.375 24.4651L31.695 26.7851H32.665C33.245 26.7851 33.735 27.2651 33.735 27.8551V28.2451C33.735 28.8251 33.255 29.3151 32.665 29.3151H31.025L29.865 33.6751C29.575 34.8351 28.9949 35.4151 27.9249 35.4151C26.8549 35.4151 26.275 34.9351 25.895 33.6751L24.055 26.9951H23.955L22.115 33.6751C21.825 34.8351 21.245 35.4151 20.175 35.4151C19.205 35.3151 18.625 34.7351 18.235 33.5751L18.205 33.5851Z" fill="#1F2024"/>
</svg>
