<svg width="48" height="48" viewBox="0 0 48 48" fill="none" xmlns="http://www.w3.org/2000/svg">
<path d="M14.0551 43.12C10.4651 43.02 8.20511 41.93 6.72511 39.56C5.68511 37.94 5.23511 35.53 5.23511 31.5C5.23511 23.97 8.49511 17.97 15.1851 13.17L15.5751 12.9L14.4051 11.83C13.3451 10.77 12.9851 9.03 13.5251 7.52C14.0851 5.94 15.5751 4.88 17.2451 4.88H30.7451C32.4351 4.88 34.4251 5.67 35.0651 7.42C35.7051 9.15 34.4051 11.06 33.5751 12.04L32.7151 12.9L33.0951 13.16C39.1451 17.43 42.7651 24.32 42.7651 31.6C42.7651 36.23 41.6951 39.54 39.5851 41.44C37.9151 42.82 36.0551 43.02 34.1451 43.12H14.0551ZM16.8151 15.33C10.8551 19.67 7.96511 25.03 7.96511 31.71C7.96511 35.24 8.27511 37.15 9.07511 38.55C9.92511 40.02 11.7151 40.79 14.2551 40.79H34.0551C35.8151 40.68 37.0351 40.44 38.1051 39.58C39.6351 38.26 40.4351 35.54 40.4351 31.71C40.4351 25.29 37.2451 19.17 31.8951 15.34L28.8851 13.11C29.6651 12.42 31.3651 10.82 32.0051 10.17C32.8751 9.19 32.5951 8.45 32.4251 8.18C32.1951 7.74 31.6651 7.53 31.2551 7.53H17.7551C16.5451 7.53 16.1251 8 15.9751 8.39C15.6651 8.91 15.9651 9.64 16.3851 10.07L19.8151 13.2L16.8051 15.34L16.8151 15.33Z" fill="#1F2024"/>
<path d="M24.1151 34.72C23.5151 34.72 23.0351 34.24 23.0351 33.64V31.76H19.2151C18.6651 31.76 18.2251 31.32 18.2251 30.77C18.2251 30.22 18.6751 29.78 19.2151 29.78H23.0351V28.22H19.2151C18.6651 28.22 18.2251 27.78 18.2251 27.23C18.2251 26.68 18.6751 26.24 19.2151 26.24H22.9051L18.7151 22.82C18.4851 22.64 18.3451 22.38 18.3251 22.09C18.2951 21.8 18.3851 21.52 18.5651 21.3C18.7751 21.05 19.0751 20.91 19.4051 20.91C19.6551 20.91 19.9051 21 20.0951 21.15L24.0651 24.39L27.6651 20.98C27.8651 20.79 28.1351 20.69 28.4151 20.69C28.7151 20.69 28.9951 20.81 29.2051 21.02C29.4051 21.23 29.5051 21.5 29.4951 21.79C29.4951 22.08 29.3651 22.35 29.1551 22.55L25.2551 26.24H28.8051C29.3551 26.24 29.7951 26.68 29.7951 27.23C29.7951 27.78 29.3451 28.22 28.8051 28.22H25.2151V29.78H28.8051C29.3551 29.78 29.7951 30.22 29.7951 30.77C29.7951 31.32 29.3451 31.76 28.8051 31.76H25.2151V33.64C25.2151 34.24 24.7251 34.72 24.1351 34.72H24.1151Z" fill="#1F2024"/>
</svg>
