<svg width="48" height="48" viewBox="0 0 48 48" fill="none" xmlns="http://www.w3.org/2000/svg">
<path d="M14.05 43.2C10.45 43.1 8.15002 42 6.65002 39.6C5.55002 37.9 5.15002 35.3 5.15002 31.5C5.15002 23.8 8.45002 17.9 15.15 13.1L15.45 12.9L14.35 11.9C13.25 10.8 12.91 9.01999 13.45 7.49999C13.99 5.97999 15.55 4.79999 17.25 4.79999H30.75C32.65 4.79999 34.53 5.70999 35.15 7.39999C35.73 9.00999 34.8 10.85 33.65 12.1C33.46 12.31 32.85 12.9 32.85 12.9L33.15 13.1C39.25 17.4 42.85 24.3 42.85 31.6C42.85 36.3 41.75 39.6 39.65 41.5C37.95 42.9 36.05 43.1 34.15 43.2H14.05ZM16.85 15.4C10.95 19.7 8.05002 25 8.05002 31.7C8.05002 35.2 8.35002 37.1 9.15002 38.5C9.95002 39.9 11.65 40.7 14.25 40.7H34.05C35.65 40.6 36.95 40.4 38.05 39.5C39.55 38.2 40.35 35.5 40.35 31.7C40.35 25.3 37.15 19.2 31.85 15.4L28.75 13.1C29.45 12.5 31.25 10.8 31.95 10.1C32.75 9.19999 32.55 8.49999 32.35 8.19999C32.15 7.79999 31.65 7.59999 31.25 7.59999H17.75C17.45 7.59999 16.35 7.59999 16.05 8.39999C15.75 8.89999 16.05 9.59999 16.45 9.99999L19.95 13.2L16.85 15.4Z" fill="#1F2024"/>
<path d="M27.9201 34.5701C27.3501 34.5701 26.8301 34.2101 26.6201 33.6701L24.2301 27.3601L22.0701 33.6201C21.8801 34.1801 21.3501 34.5601 20.7401 34.5601C20.1301 34.5601 19.6101 34.1601 19.4301 33.5901L17.8801 28.7901H16.2601C15.6701 28.7901 15.1901 28.3101 15.1901 27.7201C15.1901 27.1301 15.6701 26.6501 16.2601 26.6501H17.1901L16.5101 24.5301C16.3301 23.9701 16.6401 23.3601 17.2001 23.1801C17.3101 23.1501 17.4201 23.1301 17.5301 23.1301C18.0001 23.1301 18.4101 23.4301 18.5501 23.8801L20.7701 30.7901L22.8701 24.6901C23.0701 24.1301 23.6001 23.7601 24.1901 23.7601C24.7801 23.7601 25.3101 24.1401 25.5001 24.6901L27.8001 30.7701L29.7201 23.9201C29.8501 23.4601 30.2801 23.1401 30.7601 23.1401C30.8601 23.1401 30.9601 23.1501 31.0501 23.1801C31.3301 23.2601 31.5601 23.4401 31.7001 23.6901C31.8401 23.9401 31.8701 24.2301 31.8001 24.5101L31.1901 26.6701H32.3001C32.8901 26.6701 33.3701 27.1501 33.3701 27.7401C33.3701 28.3301 32.8901 28.8101 32.3001 28.8101H30.5801L29.2401 33.5801C29.0601 34.1701 28.5401 34.5801 27.9401 34.6001H27.8901L27.9201 34.5701Z" fill="#1F2024"/>
</svg>
