<svg width="48" height="48" viewBox="0 0 48 48" fill="none" xmlns="http://www.w3.org/2000/svg">
<path fill-rule="evenodd" clip-rule="evenodd" d="M6.47974 39.7151C8.01001 42.165 10.3499 43.3049 14.05 43.405H34.1599C36.1301 43.3049 38.0398 43.085 39.78 41.655C41.95 39.6951 43.05 36.3149 43.05 31.605C43.05 24.2349 39.3899 17.2549 33.26 12.9351L33.1599 12.865L33.8 12.2249C34.6799 11.1851 35.6501 9.28491 34.95 7.42505C34.28 5.54492 32.55 4.59497 30.7498 4.59497H17.2498C15.4202 4.59497 13.78 5.75488 13.26 7.42505C12.6399 8.96509 13.03 10.865 14.2097 12.0449L15.1199 12.875L15.0198 12.9451C8.23999 17.8049 4.94995 23.875 4.94995 31.5049C4.94995 35.605 5.40991 38.0549 6.47974 39.7151ZM31.1145 25.9297H32.0247C32.6946 25.9297 33.2449 26.4797 33.2449 27.1497C33.2449 27.8198 32.7048 28.3696 32.0247 28.3696H30.4246L29.1145 33.0298C28.9148 33.6897 28.3347 34.1396 27.6746 34.1597H27.6248C26.9846 34.1597 26.4148 33.7598 26.1848 33.1597L23.9446 27.2397L21.9246 33.1096C21.7249 33.7297 21.1145 34.1497 20.4548 34.1497C19.7844 34.1396 19.2048 33.7097 19.0046 33.0698L17.4949 28.3696H15.9846C15.3044 28.3696 14.7546 27.8198 14.7546 27.1497C14.7546 26.4797 15.3044 25.9297 15.9846 25.9297H16.7048L16.0847 24.0098C15.8748 23.3696 16.2346 22.6797 16.8748 22.4697C17.5144 22.2598 18.2048 22.6196 18.4148 23.2598L20.5046 29.7397L22.4646 24.0598C22.6946 23.4297 23.2747 23.0198 23.9246 23.0198C24.5745 23.0298 25.1545 23.4397 25.3645 24.0598L27.5046 29.7097L29.3044 23.2998C29.4846 22.6497 30.1648 22.2698 30.8147 22.4497C31.4646 22.6296 31.8445 23.3098 31.6648 23.9597L31.1145 25.9297Z" fill="#1F2024"/>
</svg>
