<svg width="50" height="48" viewBox="0 0 50 48" fill="none" xmlns="http://www.w3.org/2000/svg">
<path d="M15.0451 43.6C11.2651 43.5 8.87512 42.33 7.30512 39.81C6.21512 38.12 5.74512 35.63 5.74512 31.5C5.74512 23.84 9.03512 17.74 15.8051 12.85L15.0851 12.19C13.8451 10.95 13.5051 8.99002 14.0851 7.35002C14.6651 5.71002 16.3351 4.40002 18.2451 4.40002H31.7451C33.6151 4.40002 35.8051 5.29002 36.5251 7.27002C37.2451 9.25002 35.8551 11.3 34.9551 12.36L34.4751 12.84C40.5951 17.2 44.2551 24.21 44.2551 31.6C44.2551 36.37 43.1351 39.8 40.9251 41.8C39.1251 43.28 37.1851 43.5 35.1851 43.6H15.0451ZM18.7451 8.00002C17.9951 8.00002 17.5551 8.18002 17.4151 8.54002C17.2051 8.91002 17.4151 9.41002 17.7251 9.72002L21.5751 13.24L18.0751 15.73C12.2651 19.96 9.44512 25.19 9.44512 31.7C9.44512 35.13 9.73512 36.98 10.4951 38.3C11.2451 39.61 12.8851 40.3 15.2451 40.3H35.0451C36.6851 40.2 37.8251 39.98 38.7951 39.19C40.2051 37.97 40.9451 35.38 40.9451 31.7C40.9451 25.44 37.8251 19.47 32.6151 15.72L29.1051 13.12L29.4851 12.79C30.1951 12.18 31.9851 10.49 32.6651 9.81002C33.3451 9.05002 33.1051 8.55002 33.0151 8.42002C32.8651 8.14002 32.5251 8.00002 32.2451 8.00002H18.7451Z" fill="#1F2024"/>
<path d="M28.6353 34.57C27.9553 34.57 27.3453 34.14 27.1053 33.51L25.0153 27.98L23.0353 33.45C22.8153 34.11 22.1853 34.56 21.4653 34.56C20.7453 34.56 20.1253 34.09 19.9153 33.41L18.4353 28.82L16.9853 28.79C16.2553 28.79 15.6553 28.2 15.6553 27.46C15.6553 26.72 16.2453 26.13 16.9853 26.13H17.5053L16.9953 24.34C16.8853 24 16.9153 23.65 17.0753 23.33C17.2353 23.01 17.5153 22.78 17.8453 22.67C17.9753 22.63 18.1153 22.61 18.2453 22.61C18.8253 22.61 19.3253 22.98 19.5053 23.53L21.4553 29.58L23.3553 24.33C23.5953 23.67 24.2153 23.22 24.9053 23.22C25.6053 23.22 26.2253 23.67 26.4453 24.33L28.4253 29.55L30.1953 23.57C30.3553 23 30.8853 22.6 31.4753 22.6C31.5953 22.6 31.7153 22.62 31.8353 22.65C32.1753 22.75 32.4553 22.97 32.6353 23.28C32.8053 23.59 32.8553 23.95 32.7553 24.29L32.2553 26.07L33.0153 26.13C33.7453 26.13 34.3453 26.72 34.3453 27.46C34.3453 28.2 33.7553 28.79 33.0153 28.79H31.5253L30.1953 33.37C29.9853 34.06 29.3753 34.54 28.6653 34.57H28.6053H28.6353Z" fill="#1F2024"/>
</svg>
