<svg width="48" height="48" viewBox="0 0 48 48" fill="none" xmlns="http://www.w3.org/2000/svg">
<path d="M33.9851 43.545H14.0551C10.3651 43.485 7.90506 42.275 6.49506 39.855C5.41506 38.005 4.93506 35.445 4.93506 31.555C4.93506 23.765 8.22506 17.635 14.9951 12.815L14.1651 12.075C12.9851 10.865 12.5951 8.98496 13.1751 7.37496C13.8251 5.59496 15.4451 4.45496 17.3151 4.45496H30.8551C32.8451 4.45496 34.4551 5.69496 34.8651 7.53496C35.3951 9.30496 35.0651 10.905 33.9351 12.225L33.5851 12.565L33.2751 12.835C39.4051 17.165 43.0651 24.165 43.0651 31.565C43.0651 36.395 41.9351 39.795 39.7151 41.655C37.9351 43.145 35.8451 43.405 34.0251 43.535H33.9651L33.9851 43.545ZM16.4751 9.75496L20.2451 13.105L16.9051 15.485C11.0551 19.645 8.21506 24.905 8.21506 31.565C8.21506 34.845 8.55506 36.895 9.32506 38.225C9.86506 39.155 10.8951 40.225 14.0851 40.285H33.8751C35.2851 40.185 36.6251 40.015 37.6451 39.165C39.0751 37.965 39.8251 35.345 39.8251 31.585C39.8251 25.245 36.6851 19.235 31.4251 15.525L27.9751 13.095L31.5251 10.065C31.8251 9.71496 32.0051 9.28496 31.7651 8.52496L31.6951 8.26496C31.6251 7.93496 31.3151 7.73496 30.8751 7.73496H17.3351C16.8451 7.73496 16.4451 8.02496 16.2651 8.50496C16.0951 8.96496 16.2351 9.49496 16.4751 9.75496Z" fill="#1F2024"/>
<path fill-rule="evenodd" clip-rule="evenodd" d="M18.205 33.585L17.045 29.225H15.395C14.815 29.225 14.325 28.745 14.325 28.155V27.765C14.325 27.185 14.805 26.695 15.395 26.695H16.365L15.685 24.375C15.585 23.985 15.495 23.505 15.495 23.215C15.495 22.245 16.075 21.765 17.145 21.765C18.015 21.765 18.495 22.245 18.695 23.215L20.345 30.865H20.445L22.385 23.215C22.575 22.245 23.1549 21.865 24.035 21.865C24.915 21.865 25.395 22.345 25.6749 23.215L27.615 30.955H27.715L29.365 23.305C29.555 22.335 30.045 21.855 30.915 21.855C31.985 21.855 32.565 22.435 32.565 23.305C32.565 23.595 32.465 24.075 32.375 24.465L31.695 26.785H32.665C33.245 26.785 33.735 27.265 33.735 27.855V28.245C33.735 28.825 33.255 29.315 32.665 29.315H31.025L29.865 33.675C29.575 34.835 28.9949 35.415 27.9249 35.415C26.8549 35.415 26.275 34.935 25.895 33.675L24.055 26.995H23.955L22.115 33.675C21.825 34.835 21.245 35.415 20.175 35.415C19.205 35.315 18.625 34.735 18.235 33.575L18.205 33.585Z" fill="#1F2024"/>
</svg>
