<svg width="48" height="48" viewBox="0 0 48 48" fill="none" xmlns="http://www.w3.org/2000/svg">
<path d="M14.045 43.6901C10.225 43.5901 7.82504 42.4101 6.23504 39.8701C5.13504 38.1601 4.66504 35.6601 4.66504 31.5101C4.66504 23.8501 7.93504 17.7401 14.665 12.8501L14.015 12.2601C12.785 11.0301 12.375 9.05006 12.985 7.33006C13.615 5.53006 15.325 4.31006 17.245 4.31006H30.745C32.625 4.31006 34.865 5.21006 35.605 7.23006C36.305 9.13006 35.125 11.1001 34.015 12.4101L33.595 12.8301C39.695 17.2101 43.335 24.2201 43.335 31.6101C43.335 36.4001 42.205 39.8601 39.975 41.8701C38.145 43.3701 36.105 43.5901 34.175 43.6901H14.045ZM17.745 8.09006C17.255 8.09006 16.645 8.17006 16.505 8.57006C16.315 8.90006 16.505 9.37006 16.795 9.67006L20.725 13.2501L17.135 15.7901C11.345 20.0101 8.53504 25.2201 8.53504 31.7001C8.53504 35.1201 8.82504 36.9601 9.56504 38.2601C10.305 39.5401 11.925 40.2201 14.245 40.2201H34.045C35.655 40.1101 36.795 39.9001 37.735 39.1301C39.125 37.9301 39.865 35.3601 39.865 31.7001C39.865 25.4701 36.765 19.5201 31.565 15.7901L27.975 13.1201L28.435 12.7301C29.145 12.1201 30.955 10.4001 31.605 9.76006C32.025 9.28006 32.155 8.81006 31.945 8.45006C31.815 8.20006 31.495 8.08006 31.255 8.08006H17.745V8.09006Z" fill="#1F2024"/>
<path d="M24.115 35.1401C23.285 35.1401 22.605 34.4601 22.605 33.6301V32.1701H19.215C18.435 32.1701 17.795 31.5401 17.795 30.7501C17.795 29.9601 18.435 29.3301 19.215 29.3301H22.605V28.6201H19.215C18.435 28.6201 17.795 27.9801 17.795 27.2001C17.795 26.4201 18.435 25.7801 19.215 25.7801H21.715L18.455 23.1101C18.145 22.8601 17.945 22.4901 17.905 22.0901C17.865 21.6901 17.985 21.3001 18.245 20.9901C18.525 20.6401 18.955 20.4401 19.405 20.4401C19.755 20.4401 20.095 20.5601 20.365 20.7801L24.045 23.7801L27.375 20.6301C27.655 20.3701 28.025 20.2201 28.415 20.2201C28.835 20.2201 29.225 20.3901 29.505 20.6901C29.785 20.9801 29.925 21.3601 29.915 21.7601C29.905 22.1601 29.735 22.5401 29.445 22.8201L26.325 25.7801H28.805C29.585 25.7801 30.225 26.4101 30.225 27.2001C30.225 27.9901 29.585 28.6201 28.805 28.6201H25.635V29.3301H28.805C29.585 29.3301 30.225 29.9601 30.225 30.7501C30.225 31.5401 29.585 32.1701 28.805 32.1701H25.635V33.6301C25.635 34.4601 24.955 35.1401 24.125 35.1401H24.115Z" fill="#1F2024"/>
</svg>
