<svg width="48" height="48" viewBox="0 0 48 48" fill="none" xmlns="http://www.w3.org/2000/svg">
<path fill-rule="evenodd" clip-rule="evenodd" d="M13.7989 11.9589C15.0694 11.4326 16.5318 11.7235 17.5042 12.6959L29.5001 24.6917V15.1001C29.5001 13.2223 31.0223 11.7001 32.9001 11.7001C34.7778 11.7001 36.3001 13.2223 36.3001 15.1001V32.9C36.3001 34.2752 35.4717 35.515 34.2012 36.0412C32.9307 36.5675 31.4683 36.2766 30.4959 35.3042L18.5001 23.3084V32.9C18.5001 34.7778 16.9778 36.3 15.1001 36.3C13.2223 36.3 11.7001 34.7778 11.7001 32.9V15.1001C11.7001 13.7249 12.5285 12.4851 13.7989 11.9589Z" fill="#1F2024"/>
</svg>
