<svg width="49" height="48" viewBox="0 0 49 48" fill="none" xmlns="http://www.w3.org/2000/svg">
<path d="M42.0674 31.665L41.5874 31.075C39.5674 28.585 38.3474 27.085 38.3474 20.145C38.3474 13.785 35.7074 9.43499 30.4874 7.21499C30.4774 7.21499 30.4674 7.19499 30.4574 7.19499C29.6874 4.45499 27.3474 2.55499 24.7474 2.55499C22.1474 2.55499 19.8274 4.44499 19.0374 7.19499C19.0274 7.19499 19.0174 7.21499 19.0074 7.21499C13.7174 9.46499 11.1474 13.695 11.1474 20.145C11.1474 27.085 9.92739 28.585 7.90739 31.075L7.43739 31.655C6.56739 32.705 6.37739 34.115 6.95739 35.345C7.56739 36.635 8.85739 37.445 10.3474 37.445H16.9474V37.745C16.9474 39.715 17.7874 41.685 19.1974 43.095C20.5474 44.565 22.5874 45.445 24.6474 45.445C26.5874 45.445 28.6074 44.585 29.9974 43.195C31.5174 41.805 32.3474 39.865 32.3474 37.745V37.445H39.3474C40.7174 37.445 41.9374 36.665 42.5274 35.405C43.1074 34.155 42.9274 32.725 42.0574 31.675L42.0674 31.665ZM28.9574 37.745C28.9574 38.925 28.5274 39.945 27.6574 40.745C26.8674 41.535 25.6874 42.045 24.6574 42.045C23.5274 42.045 22.4274 41.575 21.6574 40.745C20.8274 39.915 20.3574 38.825 20.3574 37.745V37.445H28.9574V37.745ZM39.4574 33.955C39.4574 33.955 39.4074 34.045 39.3574 34.045H10.3574C10.2374 34.045 10.1374 34.015 10.0774 33.945V33.805L10.5574 33.215C13.0374 30.165 14.5574 27.895 14.5574 20.145C14.5574 13.605 17.6874 11.455 20.4174 10.315C20.4574 10.305 20.4874 10.285 20.5174 10.265C21.2174 9.91499 22.0474 9.17499 22.2974 8.17499C22.5874 7.06499 23.5274 5.94499 24.7574 5.94499C25.9874 5.94499 26.9274 7.06499 27.2074 8.15499C27.4574 9.17499 28.2974 9.91499 28.9974 10.265C29.0274 10.285 29.0674 10.295 29.0974 10.315C31.6074 11.365 34.9574 13.535 34.9574 20.145C34.9574 27.905 36.4774 30.165 38.9574 33.215L39.4374 33.805C39.4374 33.805 39.4474 33.825 39.4574 33.835C39.4774 33.865 39.4974 33.885 39.4674 33.965L39.4574 33.955Z" fill="#1F2024"/>
</svg>
