<svg width="49" height="48" viewBox="0 0 49 48" fill="none" xmlns="http://www.w3.org/2000/svg">
<path d="M41.2942 31.95C39.2042 29.38 37.9442 27.82 37.9442 20.7V19.5C37.9442 18.84 37.4042 18.3 36.7442 18.3C36.0842 18.3 35.5442 18.84 35.5442 19.5V20.7C35.5442 28.67 37.1742 30.68 39.4342 33.46L39.9242 34.07C40.1442 34.34 40.0442 34.63 39.9942 34.75C39.9342 34.89 39.7242 35.2 39.2442 35.2H18.7442C18.0842 35.2 17.5442 35.73 17.5442 36.39V37.38C17.5442 39.34 18.3242 41.13 19.6942 42.38C21.0442 43.71 22.9342 44.51 24.7442 44.51C26.6742 44.51 28.5742 43.7 29.7942 42.38C31.0842 41.1 31.8742 39.33 31.9342 37.61H39.2442C40.5142 37.61 41.6342 36.91 42.1642 35.77C42.6742 34.68 42.5242 33.44 41.7842 32.56L41.2942 31.96V31.95ZM28.0642 40.73C27.2542 41.6 26.0142 42.13 24.7442 42.13C23.5742 42.13 22.2842 41.58 21.3542 40.66C20.4842 39.87 20.0242 38.82 19.9642 37.6H29.5142C29.4442 38.7 28.9242 39.87 28.0542 40.73H28.0642Z" fill="#1F2024"/>
<path d="M9.84425 32.9C10.2042 32.9 10.5542 32.74 10.7942 32.43C12.5842 30.12 13.9442 27.78 13.9442 20.6C13.9442 13.42 17.4642 11.42 20.1842 10.27C20.7542 9.97999 21.4942 9.34999 21.7042 8.49999C22.0442 7.20999 23.1642 5.89999 24.6442 5.89999C26.1242 5.89999 27.2442 7.20999 27.5842 8.48999C27.7942 9.34999 28.5442 9.98999 29.1142 10.27C29.1642 10.3 29.2142 10.32 29.2742 10.33C29.6342 10.45 29.9642 10.62 30.3542 10.83L30.8142 11.07C31.4042 11.37 32.1242 11.13 32.4242 10.53C32.7242 9.93999 32.4842 9.21999 31.8842 8.91999L31.4642 8.69999C31.0542 8.48999 30.6242 8.25999 30.1342 8.08999C30.0142 8.01999 29.9242 7.90999 29.9042 7.88999C29.2242 5.29999 27.0642 3.48999 24.6442 3.48999C22.2242 3.48999 20.0642 5.29999 19.3942 7.86999C19.3742 7.91999 19.2542 8.04999 19.1842 8.08999C14.0442 10.24 11.5442 14.34 11.5442 20.6C11.5442 26.86 10.4442 28.96 8.89425 30.97C8.48425 31.49 8.58425 32.25 9.11425 32.65C9.33425 32.82 9.59425 32.9 9.84425 32.9Z" fill="#1F2024"/>
<path d="M43.5942 5.44999C43.1242 4.97999 42.3642 4.97999 41.8942 5.44999L5.89425 41.45C5.42425 41.92 5.42425 42.68 5.89425 43.15C6.12425 43.38 6.43425 43.5 6.74425 43.5C7.05425 43.5 7.35425 43.38 7.59425 43.15L43.5942 7.14999C44.0642 6.67999 44.0642 5.91999 43.5942 5.44999Z" fill="#1F2024"/>
</svg>
