<svg width="49" height="48" viewBox="0 0 49 48" fill="none" xmlns="http://www.w3.org/2000/svg">
<path d="M41.2941 31.95C39.2041 29.38 37.9441 27.82 37.9441 20.7V19.5C37.9441 18.84 37.4041 18.3 36.7441 18.3C36.0841 18.3 35.5441 18.84 35.5441 19.5V20.7C35.5441 28.67 37.1741 30.68 39.4341 33.46L39.9241 34.07C40.1441 34.34 40.0441 34.63 39.9941 34.75C39.9341 34.89 39.7241 35.2 39.2441 35.2H18.7441C18.0841 35.2 17.5441 35.73 17.5441 36.39V37.38C17.5441 39.34 18.3241 41.13 19.6941 42.38C21.0441 43.71 22.9341 44.51 24.7441 44.51C26.6741 44.51 28.5741 43.7 29.7941 42.38C31.0841 41.1 31.8741 39.33 31.9341 37.61H39.2441C40.5141 37.61 41.6341 36.91 42.1641 35.77C42.6741 34.68 42.5241 33.44 41.7841 32.56L41.2941 31.96V31.95ZM28.0641 40.73C27.2541 41.6 26.0141 42.13 24.7441 42.13C23.5741 42.13 22.2841 41.58 21.3541 40.66C20.4841 39.87 20.0241 38.82 19.9641 37.6H29.5141C29.4441 38.7 28.9241 39.87 28.0541 40.73H28.0641Z" fill="#1F2024"/>
<path d="M9.84413 32.9C10.2041 32.9 10.5541 32.74 10.7941 32.43C12.5841 30.12 13.9441 27.78 13.9441 20.6C13.9441 13.42 17.4641 11.42 20.1841 10.27C20.7541 9.97999 21.4941 9.34999 21.7041 8.49999C22.0441 7.20999 23.1641 5.89999 24.6441 5.89999C26.1241 5.89999 27.2441 7.20999 27.5841 8.48999C27.7941 9.34999 28.5441 9.98999 29.1141 10.27C29.1641 10.3 29.2141 10.32 29.2741 10.33C29.6341 10.45 29.9641 10.62 30.3541 10.83L30.8141 11.07C31.4041 11.37 32.1241 11.13 32.4241 10.53C32.7241 9.93999 32.4841 9.21999 31.8841 8.91999L31.4641 8.69999C31.0541 8.48999 30.6241 8.25999 30.1341 8.08999C30.0141 8.01999 29.9241 7.90999 29.9041 7.88999C29.2241 5.29999 27.0641 3.48999 24.6441 3.48999C22.2241 3.48999 20.0641 5.29999 19.3941 7.86999C19.3741 7.91999 19.2541 8.04999 19.1841 8.08999C14.0441 10.24 11.5441 14.34 11.5441 20.6C11.5441 26.86 10.4441 28.96 8.89413 30.97C8.48413 31.49 8.58413 32.25 9.11413 32.65C9.33413 32.82 9.59413 32.9 9.84413 32.9Z" fill="#1F2024"/>
<path d="M43.5941 5.44999C43.1241 4.97999 42.3641 4.97999 41.8941 5.44999L5.89413 41.45C5.42413 41.92 5.42413 42.68 5.89413 43.15C6.12413 43.38 6.43413 43.5 6.74413 43.5C7.05413 43.5 7.35413 43.38 7.59413 43.15L43.5941 7.14999C44.0641 6.67999 44.0641 5.91999 43.5941 5.44999Z" fill="#1F2024"/>
</svg>
