<svg width="48" height="48" viewBox="0 0 48 48" fill="none" xmlns="http://www.w3.org/2000/svg">
<path d="M43.94 36.7L27.96 7.02997C26.26 3.86997 21.74 3.86997 20.04 7.02997L4.05999 36.7C3.68999 37.38 3.49999 38.15 3.51999 38.93C3.53999 39.71 3.75999 40.47 4.15999 41.14C4.55999 41.81 5.11999 42.36 5.79999 42.75C6.47999 43.13 7.23999 43.34 8.01999 43.34H39.98C40.76 43.34 41.52 43.14 42.2 42.75C42.88 42.37 43.44 41.81 43.84 41.14C44.24 40.47 44.46 39.71 44.48 38.93C44.5 38.15 44.31 37.38 43.94 36.7ZM21.96 18.37C21.95 18.09 21.99 17.82 22.09 17.56C22.18 17.31 22.33 17.08 22.52 16.88C22.7 16.69 22.92 16.54 23.17 16.42C23.43 16.31 23.69 16.25 23.96 16.25C24.28 16.27 24.52 16.3 24.77 16.41C25.03 16.52 25.26 16.67 25.45 16.87C25.64 17.07 25.79 17.3 25.89 17.56C25.99 17.82 26.03 18.1 26.02 18.38L25.48 29.81C25.44 30.61 24.78 31.24 23.98 31.24C23.18 31.24 22.52 30.61 22.48 29.81L21.94 18.37H21.96ZM25.54 36.89C25.16 37.27 24.66 37.48 24.13 37.48C23.73 37.48 23.35 37.36 23.02 37.14C22.69 36.92 22.43 36.61 22.28 36.24C22.13 35.87 22.09 35.47 22.17 35.08C22.25 34.69 22.44 34.34 22.72 34.06C23 33.78 23.36 33.59 23.74 33.51C24.13 33.43 24.53 33.47 24.9 33.62C25.27 33.77 25.58 34.03 25.8 34.36C26.02 34.69 26.14 35.08 26.14 35.47C26.14 36 25.93 36.51 25.55 36.88L25.54 36.89Z" fill="#1F2024"/>
</svg>
