<svg width="48" height="48" viewBox="0 0 48 48" fill="none" xmlns="http://www.w3.org/2000/svg">
<path d="M9.14009 32.93C8.81009 32.93 8.49009 32.82 8.21009 32.61C7.56009 32.1 7.45009 31.15 7.96009 30.5C9.45009 28.61 10.5101 26.77 10.5101 20.37C10.5101 13.97 13.0801 9.78999 18.3701 7.60999C18.3901 7.59999 18.4401 7.55999 18.4501 7.52999C19.2401 4.83999 21.4701 2.98999 24.0001 2.98999C26.5301 2.98999 28.7701 4.83999 29.5701 7.57999C29.5701 7.54999 29.6101 7.57999 29.6301 7.59999C30.2801 7.86999 30.9101 8.16999 31.5001 8.50999C32.2201 8.91999 32.4601 9.83999 32.0501 10.56C31.6401 11.28 30.7201 11.52 30.0001 11.11C29.5201 10.84 29.0201 10.59 28.4901 10.37C27.6301 10.02 26.9301 9.26999 26.6801 8.41999C26.3301 7.20999 25.3601 5.97999 23.9901 5.97999C22.6201 5.97999 21.6601 7.19999 21.3001 8.40999C21.0501 9.25999 20.3601 10.01 19.5001 10.37C16.7101 11.52 13.5001 13.69 13.5001 20.35C13.5001 27.01 12.3801 29.71 10.3101 32.34C10.0101 32.72 9.57009 32.91 9.13009 32.91L9.14009 32.93Z" fill="#1F2024"/>
<path d="M41.26 32L40.8 31.44C38.74 28.95 37.49 27.44 37.49 20.38C37.49 19.93 37.48 19.51 37.45 19.09C37.4 18.26 36.7 17.62 35.86 17.68C35.03 17.73 34.4 18.44 34.45 19.27C34.47 19.63 34.48 19.99 34.48 20.38C34.48 28.52 36.24 30.66 38.48 33.36L38.93 33.9C38.93 33.9 39.06 34.06 38.98 34.24C38.93 34.34 38.81 34.5 38.47 34.5H18C17.17 34.5 16.5 35.17 16.5 36V37C16.5 39 17.28 40.89 18.7 42.3C20.12 43.72 22 44.5 24 44.5C26 44.5 27.89 43.72 29.3 42.3C30.6 41 31.35 39.31 31.47 37.5H38.47C39.88 37.5 41.11 36.74 41.69 35.52C42.24 34.35 42.08 33 41.25 32H41.26ZM27.19 40.18C26.34 41.03 25.21 41.5 24.01 41.5C22.81 41.5 21.68 41.03 20.83 40.18C20.1 39.45 19.67 38.51 19.56 37.5H28.46C28.35 38.51 27.92 39.45 27.19 40.18Z" fill="#1F2024"/>
<path d="M6.00006 43.4999C5.62006 43.4999 5.23006 43.3499 4.94006 43.0599C4.35006 42.4699 4.35006 41.5199 4.94006 40.9399L40.9401 4.93994C41.5301 4.34994 42.4801 4.34994 43.0601 4.93994C43.6401 5.52994 43.6501 6.47994 43.0601 7.05994L7.06006 43.0599C6.77006 43.3499 6.38006 43.4999 6.00006 43.4999Z" fill="#1F2024"/>
</svg>
