<svg width="48" height="48" viewBox="0 0 48 48" fill="none" xmlns="http://www.w3.org/2000/svg">
<path d="M43.94 36.6999L27.96 7.02991C26.26 3.86991 21.74 3.86991 20.04 7.02991L4.05999 36.6999C3.68999 37.3799 3.49999 38.1499 3.51999 38.9299C3.53999 39.7099 3.75999 40.4699 4.15999 41.1399C4.55999 41.8099 5.11999 42.3599 5.79999 42.7499C6.47999 43.1299 7.23999 43.3399 8.01999 43.3399H39.98C40.76 43.3399 41.52 43.1399 42.2 42.7499C42.88 42.3699 43.44 41.8099 43.84 41.1399C44.24 40.4699 44.46 39.7099 44.48 38.9299C44.5 38.1499 44.31 37.3799 43.94 36.6999ZM21.96 18.3699C21.95 18.0899 21.99 17.8199 22.09 17.5599C22.18 17.3099 22.33 17.0799 22.52 16.8799C22.7 16.6899 22.92 16.5399 23.17 16.4199C23.43 16.3099 23.69 16.2499 23.96 16.2499C24.28 16.2699 24.52 16.2999 24.77 16.4099C25.03 16.5199 25.26 16.6699 25.45 16.8699C25.64 17.0699 25.79 17.2999 25.89 17.5599C25.99 17.8199 26.03 18.0999 26.02 18.3799L25.48 29.8099C25.44 30.6099 24.78 31.2399 23.98 31.2399C23.18 31.2399 22.52 30.6099 22.48 29.8099L21.94 18.3699H21.96ZM25.54 36.8899C25.16 37.2699 24.66 37.4799 24.13 37.4799C23.73 37.4799 23.35 37.3599 23.02 37.1399C22.69 36.9199 22.43 36.6099 22.28 36.2399C22.13 35.8699 22.09 35.4699 22.17 35.0799C22.25 34.6899 22.44 34.3399 22.72 34.0599C23 33.7799 23.36 33.5899 23.74 33.5099C24.13 33.4299 24.53 33.4699 24.9 33.6199C25.27 33.7699 25.58 34.0299 25.8 34.3599C26.02 34.6899 26.14 35.0799 26.14 35.4699C26.14 35.9999 25.93 36.5099 25.55 36.8799L25.54 36.8899Z" fill="#1F2024"/>
</svg>
