<svg width="49" height="48" viewBox="0 0 49 48" fill="none" xmlns="http://www.w3.org/2000/svg">
<path d="M42.0143 32L41.5543 31.44C39.4943 28.94 38.2443 27.44 38.2443 20.37C38.2443 13.96 35.6743 9.77999 30.3943 7.60999C30.3643 7.59999 30.3243 7.55999 30.3343 7.57999C29.5243 4.83999 27.2943 2.98999 24.7643 2.98999C22.2343 2.98999 19.9943 4.83999 19.2243 7.52999C19.2143 7.54999 19.1643 7.58999 19.1443 7.59999C13.8543 9.77999 11.2943 13.95 11.2943 20.36C11.2943 27.42 10.0443 28.93 7.98425 31.43L7.52425 31.98C6.70425 32.99 6.53425 34.34 7.08425 35.51C7.66425 36.73 8.89425 37.49 10.3043 37.49H17.2743V37.99C17.2743 39.99 18.0543 41.88 19.4743 43.29C20.8943 44.71 22.7743 45.49 24.7743 45.49C26.7743 45.49 28.6643 44.71 30.0743 43.29C31.4943 41.87 32.2743 39.99 32.2743 37.99V37.49H39.2543C40.6543 37.49 41.8843 36.73 42.4643 35.52C43.0243 34.35 42.8543 33 42.0343 31.99L42.0143 32ZM29.2543 38C29.2543 39.2 28.7843 40.33 27.9343 41.18C27.0843 42.03 25.9543 42.5 24.7543 42.5C23.5543 42.5 22.4243 42.03 21.5743 41.18C20.7243 40.33 20.2543 39.2 20.2543 38V37.5H29.2543V38ZM39.7343 34.24C39.6843 34.34 39.5643 34.5 39.2343 34.5H10.2843C9.95425 34.5 9.82425 34.34 9.77425 34.24C9.69425 34.06 9.79425 33.94 9.82425 33.9L10.2743 33.36C12.5043 30.66 14.2743 28.53 14.2743 20.38C14.2743 13.71 17.4843 11.54 20.2743 10.39C21.1343 10.04 21.8243 9.28999 22.0743 8.42999C22.4243 7.21999 23.3943 5.99999 24.7543 5.99999C26.1143 5.99999 27.0843 7.21999 27.4443 8.43999C27.6943 9.28999 28.3843 10.04 29.2443 10.39C32.0343 11.54 35.2443 13.71 35.2443 20.38C35.2443 28.52 37.0043 30.66 39.2443 33.36L39.6943 33.9C39.6943 33.9 39.8243 34.06 39.7443 34.25L39.7343 34.24Z" fill="#1F2024"/>
</svg>
