<svg width="49" height="48" viewBox="0 0 49 48" fill="none" xmlns="http://www.w3.org/2000/svg">
<path d="M42.0676 31.6649L41.5876 31.0749C39.5676 28.5849 38.3476 27.0849 38.3476 20.1449C38.3476 13.7849 35.7076 9.43493 30.4876 7.21493C30.4776 7.21493 30.4676 7.19493 30.4576 7.19493C29.6876 4.45493 27.3476 2.55493 24.7476 2.55493C22.1476 2.55493 19.8276 4.44493 19.0376 7.19493C19.0276 7.19493 19.0176 7.21493 19.0076 7.21493C13.7176 9.46493 11.1476 13.6949 11.1476 20.1449C11.1476 27.0849 9.92764 28.5849 7.90764 31.0749L7.43764 31.6549C6.56764 32.7049 6.37764 34.1149 6.95764 35.3449C7.56764 36.6349 8.85764 37.4449 10.3476 37.4449H16.9476V37.7449C16.9476 39.7149 17.7876 41.6849 19.1976 43.0949C20.5476 44.5649 22.5876 45.4449 24.6476 45.4449C26.5876 45.4449 28.6076 44.5849 29.9976 43.1949C31.5176 41.8049 32.3476 39.8649 32.3476 37.7449V37.4449H39.3476C40.7176 37.4449 41.9376 36.6649 42.5276 35.4049C43.1076 34.1549 42.9276 32.7249 42.0576 31.6749L42.0676 31.6649ZM28.9576 37.7449C28.9576 38.9249 28.5276 39.9449 27.6576 40.7449C26.8676 41.5349 25.6876 42.0449 24.6576 42.0449C23.5276 42.0449 22.4276 41.5749 21.6576 40.7449C20.8276 39.9149 20.3576 38.8249 20.3576 37.7449V37.4449H28.9576V37.7449ZM39.4576 33.9549C39.4576 33.9549 39.4076 34.0449 39.3576 34.0449H10.3576C10.2376 34.0449 10.1376 34.0149 10.0776 33.9449V33.8049L10.5576 33.2149C13.0376 30.1649 14.5576 27.8949 14.5576 20.1449C14.5576 13.6049 17.6876 11.4549 20.4176 10.3149C20.4576 10.3049 20.4876 10.2849 20.5176 10.2649C21.2176 9.91493 22.0476 9.17493 22.2976 8.17493C22.5876 7.06493 23.5276 5.94493 24.7576 5.94493C25.9876 5.94493 26.9276 7.06493 27.2076 8.15493C27.4576 9.17493 28.2976 9.91493 28.9976 10.2649C29.0276 10.2849 29.0676 10.2949 29.0976 10.3149C31.6076 11.3649 34.9576 13.5349 34.9576 20.1449C34.9576 27.9049 36.4776 30.1649 38.9576 33.2149L39.4376 33.8049C39.4376 33.8049 39.4476 33.8249 39.4576 33.8349C39.4776 33.8649 39.4976 33.8849 39.4676 33.9649L39.4576 33.9549Z" fill="#1F2024"/>
</svg>
