<svg width="49" height="48" viewBox="0 0 49 48" fill="none" xmlns="http://www.w3.org/2000/svg">
<path d="M9.88423 32.93C9.55423 32.93 9.23423 32.82 8.95423 32.61C8.30423 32.1 8.19423 31.15 8.70423 30.5C10.1942 28.61 11.2542 26.77 11.2542 20.37C11.2542 13.97 13.8242 9.78999 19.1142 7.60999C19.1342 7.59999 19.1842 7.55999 19.1942 7.52999C19.9842 4.83999 22.2142 2.98999 24.7442 2.98999C27.2742 2.98999 29.5142 4.83999 30.3142 7.57999C30.3142 7.54999 30.3542 7.57999 30.3742 7.59999C31.0242 7.86999 31.6542 8.16999 32.2442 8.50999C32.9642 8.91999 33.2042 9.83999 32.7942 10.56C32.3842 11.28 31.4642 11.52 30.7442 11.11C30.2642 10.84 29.7642 10.59 29.2342 10.37C28.3742 10.02 27.6742 9.26999 27.4242 8.41999C27.0742 7.20999 26.1042 5.97999 24.7342 5.97999C23.3642 5.97999 22.4042 7.19999 22.0442 8.40999C21.7942 9.25999 21.1042 10.01 20.2442 10.37C17.4542 11.52 14.2442 13.69 14.2442 20.35C14.2442 27.01 13.1242 29.71 11.0542 32.34C10.7542 32.72 10.3142 32.91 9.87423 32.91L9.88423 32.93Z" fill="#1F2024"/>
<path d="M42.0041 32L41.5441 31.44C39.4841 28.95 38.2341 27.44 38.2341 20.38C38.2341 19.93 38.2241 19.51 38.1941 19.09C38.1441 18.26 37.4441 17.62 36.6041 17.68C35.7741 17.73 35.1441 18.44 35.1941 19.27C35.2141 19.63 35.2241 19.99 35.2241 20.38C35.2241 28.52 36.9841 30.66 39.2241 33.36L39.6741 33.9C39.6741 33.9 39.8041 34.06 39.7241 34.24C39.6741 34.34 39.5541 34.5 39.2141 34.5H18.7441C17.9141 34.5 17.2441 35.17 17.2441 36V37C17.2441 39 18.0241 40.89 19.4441 42.3C20.8641 43.72 22.7441 44.5 24.7441 44.5C26.7441 44.5 28.6341 43.72 30.0441 42.3C31.3441 41 32.0941 39.31 32.2141 37.5H39.2141C40.6241 37.5 41.8541 36.74 42.4341 35.52C42.9841 34.35 42.8241 33 41.9941 32H42.0041ZM27.9341 40.18C27.0841 41.03 25.9541 41.5 24.7541 41.5C23.5541 41.5 22.4241 41.03 21.5741 40.18C20.8441 39.45 20.4141 38.51 20.3041 37.5H29.2041C29.0941 38.51 28.6641 39.45 27.9341 40.18Z" fill="#1F2024"/>
<path d="M6.7442 43.4999C6.3642 43.4999 5.9742 43.3499 5.6842 43.0599C5.0942 42.4699 5.0942 41.5199 5.6842 40.9399L41.6842 4.93994C42.2742 4.34994 43.2242 4.34994 43.8042 4.93994C44.3842 5.52994 44.3942 6.47994 43.8042 7.05994L7.8042 43.0599C7.5142 43.3499 7.1242 43.4999 6.7442 43.4999Z" fill="#1F2024"/>
</svg>
