<svg width="49" height="48" viewBox="0 0 49 48" fill="none" xmlns="http://www.w3.org/2000/svg">
<path d="M41.6843 31.62C39.6643 29.13 38.4443 27.63 38.4443 20.69V19.49C38.4443 18.55 37.6843 17.79 36.7443 17.79C35.8043 17.79 35.0443 18.55 35.0443 19.49V20.69C35.0443 28.45 36.5643 30.71 39.0443 33.76L39.5243 34.35C39.5243 34.35 39.5243 34.48 39.5243 34.49C39.4643 34.55 39.3743 34.59 39.2443 34.59H18.7443C17.8043 34.59 17.0443 35.35 17.0443 36.29V37.29C17.0443 39.42 17.8743 41.35 19.3443 42.69C20.7843 44.13 22.8043 44.99 24.7443 44.99C26.8043 44.99 28.8443 44.11 30.1443 42.69C31.4343 41.4 32.2343 39.72 32.4043 37.99H39.2443C40.7243 37.99 42.0243 37.19 42.6343 35.89C43.2143 34.66 43.0243 33.25 42.1743 32.23L41.6843 31.62ZM27.6943 40.34C26.9743 41.12 25.8743 41.59 24.7443 41.59C23.7143 41.59 22.5343 41.08 21.6943 40.24C21.0443 39.64 20.6543 38.87 20.5143 37.99H28.9743C28.8143 38.83 28.3843 39.65 27.6943 40.34Z" fill="#1F2024"/>
<path d="M8.80432 33.04C9.11432 33.28 9.47432 33.4 9.84432 33.4C10.3543 33.4 10.8543 33.17 11.1943 32.74C13.3043 30.01 14.4543 27.26 14.4543 20.6C14.4543 13.94 17.7943 11.82 20.3143 10.77C20.3543 10.76 20.3843 10.74 20.4143 10.72C21.1143 10.37 21.9443 9.63001 22.1943 8.63001C22.4843 7.52001 23.4243 6.40001 24.6543 6.40001C25.8843 6.40001 26.8143 7.52001 27.1043 8.61001C27.3543 9.63001 28.1943 10.37 28.8943 10.72C28.9643 10.76 29.0343 10.79 29.1143 10.81C29.4343 10.92 29.7543 11.08 30.1243 11.28L30.5943 11.52C31.4343 11.94 32.4543 11.6 32.8743 10.76C33.2943 9.92001 32.9543 8.90001 32.1143 8.48001L31.6943 8.27001C31.2843 8.06001 30.8643 7.83001 30.3643 7.65001C29.5943 4.91001 27.2543 3.01001 24.6543 3.01001C22.0543 3.01001 19.7343 4.90001 18.9443 7.65001C18.9343 7.65001 18.9243 7.67001 18.9143 7.67001C13.7043 9.89001 11.0543 14.24 11.0543 20.6C11.0543 26.96 10.0043 28.73 8.51432 30.66C7.94432 31.4 8.07432 32.47 8.82432 33.04H8.80432Z" fill="#1F2024"/>
<path d="M43.9443 5.09001C43.2843 4.43001 42.2043 4.43001 41.5443 5.09001L5.54432 41.09C4.88432 41.75 4.88432 42.83 5.54432 43.49C5.87432 43.82 6.31432 43.99 6.74432 43.99C7.17432 43.99 7.61432 43.82 7.94432 43.49L43.9443 7.49001C44.6043 6.83001 44.6043 5.75001 43.9443 5.09001Z" fill="#1F2024"/>
</svg>
