<svg width="48" height="48" viewBox="0 0 48 48" fill="none" xmlns="http://www.w3.org/2000/svg">
<path d="M4.39 41.11C4.72 41.55 5.13 42.1 5.91 42.56C6.63 42.92 7.31 43.09 8.05 43.09H40.05C40.8 43.09 41.47 42.92 42.09 42.57C42.85 42.24 43.29 41.65 43.65 41.06C44.19 40.31 44.25 39.47 44.25 38.89C44.25 38.11 44.06 37.41 43.71 36.82L27.71 7.12996C27 5.76996 25.66 4.93996 24.12 4.90996C22.53 4.87996 21.1 5.71996 20.3 7.11996L4.29 36.82C4.29 36.82 4.25 36.91 4.23 36.95C4 37.52 3.75 38.16 3.75 38.89C3.75 39.62 4.01 40.26 4.24 40.84C4.28 40.94 4.33 41.03 4.39 41.11ZM6.44 37.9L22.39 8.27996C22.74 7.65996 23.35 7.26996 24.07 7.30996C24.73 7.31996 25.28 7.65996 25.59 8.24996L41.62 38C41.78 38.26 41.85 38.54 41.85 38.88C41.85 39.26 41.8 39.52 41.69 39.66C41.67 39.69 41.64 39.73 41.62 39.76C41.36 40.2 41.23 40.31 41.1 40.36C41.04 40.38 40.98 40.41 40.93 40.44C40.67 40.6 40.39 40.67 40.05 40.67H8.05C7.79 40.67 7.47 40.64 7.07 40.44C6.81 40.28 6.62 40.06 6.41 39.77C6.27 39.42 6.15 39.1 6.15 38.86C6.15 38.61 6.29 38.25 6.44 37.87V37.9Z" fill="#1F2024"/>
<path d="M22.7 29.85C22.73 30.57 23.33 31.14 24.05 31.14C24.77 31.14 25.37 30.57 25.4 29.85L25.9 18.39V18.19C25.9 17.97 25.85 17.67 25.65 17.37C25.59 17.25 25.51 17.14 25.41 17.04C25.16 16.79 24.84 16.54 24.25 16.54H23.85C23.63 16.54 23.33 16.59 23.03 16.79C22.91 16.85 22.8 16.93 22.7 17.03C22.55 17.18 22.2 17.59 22.2 18.19V18.39C22.2 18.39 22.2 18.43 22.2 18.45L22.7 29.85Z" fill="#1F2024"/>
<path d="M23.01 37.25C23.31 37.45 23.72 37.56 24.15 37.56C24.58 37.56 25.04 37.5 25.5 37.04C25.9 36.64 26.12 36.12 26.12 35.59C26.12 35.16 26.01 34.75 25.81 34.45C25.58 34.11 25.23 33.9 24.87 33.72C24.59 33.63 24.16 33.51 23.73 33.62C23.34 33.72 23.02 33.82 22.69 34.14H22.68C22.48 34.45 22.27 34.76 22.17 35.17C22.06 35.6 22.17 36.03 22.27 36.31C22.38 36.76 22.73 37.07 23 37.25H23.01Z" fill="#1F2024"/>
</svg>
