<svg width="49" height="48" viewBox="0 0 49 48" fill="none" xmlns="http://www.w3.org/2000/svg">
<path d="M41.7603 31.7055C41.8399 31.8023 41.9203 31.9001 42.0014 31.9978C42.4035 32.4834 42.6578 33.0741 42.7344 33.6998C42.811 34.3256 42.7066 34.9602 42.4336 35.5284C41.8533 36.7416 40.6289 37.4972 39.2283 37.4972H10.2699C8.86268 37.4972 7.62987 36.7406 7.05143 35.5219C6.77957 34.9538 6.67616 34.3197 6.75341 33.6947C6.83067 33.0696 7.08537 32.4798 7.48737 31.995C7.62376 31.8274 7.75799 31.6655 7.89005 31.5063C7.90868 31.4838 7.92727 31.4614 7.94581 31.4391C10.0102 28.9472 11.2561 27.4416 11.2561 20.3766C11.2561 13.9641 13.8249 9.78937 19.1105 7.61344C19.139 7.5975 19.1647 7.5769 19.1864 7.5525C20.0011 4.82719 22.2296 3 24.7439 3C27.2583 3 29.4877 4.82719 30.3024 7.55531C30.3241 7.58064 30.3501 7.60191 30.3792 7.61812C32.6442 8.55 34.3627 9.81094 35.6339 11.4731C37.358 13.7231 38.2327 16.7231 38.2327 20.3794C38.2327 27.4379 39.4792 28.9456 41.5398 31.438L41.543 31.4419C41.6148 31.5285 41.6872 31.6166 41.7603 31.7055Z" fill="#1F2024"/>
<path d="M28.5905 43.4358C27.4279 44.1312 26.0987 44.4989 24.744 44.5C23.3894 44.4987 22.0604 44.1309 20.898 43.4356C19.7355 42.7402 18.7829 41.7432 18.1412 40.5503C18.1109 40.4931 18.096 40.429 18.0978 40.3642C18.0997 40.2995 18.1183 40.2364 18.1518 40.1809C18.1853 40.1255 18.2326 40.0797 18.289 40.048C18.3455 40.0163 18.4092 39.9998 18.474 40H31.0158C31.0805 39.9999 31.1441 40.0166 31.2005 40.0484C31.2568 40.0802 31.3039 40.126 31.3373 40.1813C31.3708 40.2367 31.3893 40.2998 31.3911 40.3645C31.3929 40.4291 31.378 40.4931 31.3477 40.5503C30.7059 41.7433 29.7531 42.7404 28.5905 43.4358Z" fill="#1F2024"/>
</svg>
