<svg width="49" height="48" viewBox="0 0 49 48" fill="none" xmlns="http://www.w3.org/2000/svg">
<path d="M6.77054 43.4999C6.96755 43.5003 7.16268 43.4616 7.34466 43.3861C7.52664 43.3106 7.69189 43.1999 7.83086 43.0603L43.8309 7.06026C44.1003 6.77666 44.2483 6.39904 44.2433 6.0079C44.2383 5.61675 44.0807 5.24304 43.8041 4.96644C43.5275 4.68984 43.1537 4.53223 42.7626 4.52722C42.3715 4.52221 41.9938 4.6702 41.7102 4.93963L5.71023 40.9396C5.50059 41.1494 5.35785 41.4166 5.30002 41.7075C5.24221 41.9984 5.27191 42.2999 5.38538 42.5739C5.49886 42.8479 5.69101 43.0821 5.93755 43.2469C6.1841 43.4118 6.47398 43.4998 6.77054 43.4999Z" fill="#1F2024"/>
<path d="M7.51291 31.9978C7.66853 31.8103 7.82134 31.6228 7.97134 31.4419C10.0338 28.9472 11.2817 27.4416 11.2817 20.3794C11.2817 16.7231 12.1563 13.7231 13.8804 11.4731C15.1517 9.81094 16.8701 8.55 19.1351 7.61812C19.1642 7.60191 19.1903 7.58064 19.212 7.55531C20.0267 4.82719 22.256 3 24.7704 3C27.2848 3 29.5132 4.82719 30.3279 7.5525C30.3496 7.5769 30.3753 7.5975 30.4038 7.61344C31.1133 7.90356 31.7991 8.24835 32.4551 8.64469C32.5521 8.7038 32.6343 8.78415 32.6957 8.87969C32.7571 8.97523 32.796 9.08347 32.8094 9.19622C32.8229 9.30898 32.8105 9.42332 32.7733 9.53061C32.7362 9.63791 32.6751 9.73536 32.5948 9.81562L8.0529 34.3538C7.94252 34.4643 7.80039 34.5375 7.64635 34.5634C7.49231 34.5892 7.33405 34.5663 7.19365 34.4979C7.05325 34.4294 6.93773 34.3188 6.8632 34.1816C6.78866 34.0443 6.75885 33.8872 6.7779 33.7322C6.8502 33.0952 7.10549 32.4928 7.51291 31.9978Z" fill="#1F2024"/>
<path d="M38.2573 20.3766C38.2573 27.4416 39.5032 28.9472 41.5676 31.4391C41.7176 31.6201 41.8704 31.8038 42.026 31.9951C42.428 32.4799 42.6827 33.0697 42.76 33.6947C42.8373 34.3198 42.7338 34.9538 42.462 35.5219C41.8835 36.7407 40.6507 37.4972 39.2435 37.4972H19.4454C19.297 37.4974 19.1519 37.4534 19.0284 37.371C18.905 37.2886 18.8088 37.1715 18.752 37.0343C18.6951 36.8972 18.6803 36.7463 18.7093 36.6008C18.7383 36.4552 18.8098 36.3215 18.9148 36.2166L36.9148 18.2166C37.016 18.1157 37.144 18.0459 37.2835 18.0152C37.4231 17.9846 37.5686 17.9945 37.7027 18.0437C37.8369 18.093 37.9542 18.1796 38.0408 18.2932C38.1274 18.4069 38.1798 18.543 38.1917 18.6854C38.2354 19.2285 38.2573 19.7922 38.2573 20.3766Z" fill="#1F2024"/>
<path d="M24.3913 44.5C23.0365 44.4989 21.7074 44.1312 20.5447 43.4358C19.3821 42.7404 18.4293 41.7433 17.7875 40.5503C17.7573 40.4931 17.7423 40.4291 17.7442 40.3645C17.746 40.2998 17.7645 40.2367 17.7979 40.1813C17.8313 40.126 17.8785 40.0802 17.9348 40.0484C17.9911 40.0166 18.0547 39.9999 18.1194 40H30.6613C30.726 39.9998 30.7897 40.0163 30.8462 40.048C30.9027 40.0797 30.95 40.1255 30.9835 40.1809C31.017 40.2364 31.0356 40.2995 31.0374 40.3642C31.0393 40.429 31.0244 40.4931 30.9941 40.5503C30.3523 41.7432 29.3997 42.7402 28.2373 43.4356C27.0748 44.1309 25.7458 44.4987 24.3913 44.5Z" fill="#1F2024"/>
</svg>
