<svg width="49" height="48" viewBox="0 0 49 48" fill="none" xmlns="http://www.w3.org/2000/svg">
<path d="M41.294 31.95C39.204 29.38 37.944 27.82 37.944 20.7V19.5C37.944 18.84 37.404 18.3 36.744 18.3C36.084 18.3 35.544 18.84 35.544 19.5V20.7C35.544 28.67 37.174 30.68 39.434 33.46L39.924 34.07C40.144 34.34 40.044 34.63 39.994 34.75C39.934 34.89 39.724 35.2 39.244 35.2H18.744C18.084 35.2 17.544 35.73 17.544 36.39V37.38C17.544 39.34 18.324 41.13 19.694 42.38C21.044 43.71 22.934 44.51 24.744 44.51C26.674 44.51 28.574 43.7 29.794 42.38C31.084 41.1 31.874 39.33 31.934 37.61H39.244C40.514 37.61 41.634 36.91 42.164 35.77C42.674 34.68 42.524 33.44 41.784 32.56L41.294 31.96V31.95ZM28.064 40.73C27.254 41.6 26.014 42.13 24.744 42.13C23.574 42.13 22.284 41.58 21.354 40.66C20.484 39.87 20.024 38.82 19.964 37.6H29.514C29.444 38.7 28.924 39.87 28.054 40.73H28.064Z" fill="#1F2024"/>
<path d="M9.844 32.9C10.204 32.9 10.554 32.74 10.794 32.43C12.584 30.12 13.944 27.78 13.944 20.6C13.944 13.42 17.464 11.42 20.184 10.27C20.754 9.97999 21.494 9.34999 21.704 8.49999C22.044 7.20999 23.164 5.89999 24.644 5.89999C26.124 5.89999 27.244 7.20999 27.584 8.48999C27.794 9.34999 28.544 9.98999 29.114 10.27C29.164 10.3 29.214 10.32 29.274 10.33C29.634 10.45 29.964 10.62 30.354 10.83L30.814 11.07C31.404 11.37 32.124 11.13 32.424 10.53C32.724 9.93999 32.484 9.21999 31.884 8.91999L31.464 8.69999C31.054 8.48999 30.624 8.25999 30.134 8.08999C30.014 8.01999 29.924 7.90999 29.904 7.88999C29.224 5.29999 27.064 3.48999 24.644 3.48999C22.224 3.48999 20.064 5.29999 19.394 7.86999C19.374 7.91999 19.254 8.04999 19.184 8.08999C14.044 10.24 11.544 14.34 11.544 20.6C11.544 26.86 10.444 28.96 8.894 30.97C8.484 31.49 8.584 32.25 9.114 32.65C9.334 32.82 9.594 32.9 9.844 32.9Z" fill="#1F2024"/>
<path d="M43.594 5.44999C43.124 4.97999 42.364 4.97999 41.894 5.44999L5.894 41.45C5.424 41.92 5.424 42.68 5.894 43.15C6.124 43.38 6.434 43.5 6.744 43.5C7.054 43.5 7.354 43.38 7.594 43.15L43.594 7.14999C44.064 6.67999 44.064 5.91999 43.594 5.44999Z" fill="#1F2024"/>
</svg>
