<svg width="48" height="48" viewBox="0 0 48 48" fill="none" xmlns="http://www.w3.org/2000/svg">
<path d="M41.0164 31.7055C41.096 31.8023 41.1764 31.9001 41.2575 31.9978C41.6596 32.4834 41.914 33.0741 41.9906 33.6998C42.0672 34.3256 41.9627 34.9602 41.6897 35.5284C41.1094 36.7416 39.885 37.4972 38.4844 37.4972H9.52597C8.11878 37.4972 6.88597 36.7406 6.30753 35.5219C6.03568 34.9538 5.93226 34.3197 6.00952 33.6947C6.08677 33.0696 6.34147 32.4798 6.74347 31.995C6.87986 31.8274 7.01409 31.6655 7.14616 31.5063C7.16478 31.4838 7.18337 31.4614 7.20191 31.4391C9.26628 28.9472 10.5122 27.4416 10.5122 20.3766C10.5122 13.9641 13.081 9.78937 18.3666 7.61344C18.3951 7.5975 18.4208 7.5769 18.4425 7.5525C19.2572 4.82719 21.4857 3 24 3C26.5144 3 28.7438 4.82719 29.5585 7.55531C29.5802 7.58064 29.6062 7.60191 29.6353 7.61812C31.9003 8.55 33.6188 9.81094 34.89 11.4731C36.6141 13.7231 37.4888 16.7231 37.4888 20.3794C37.4888 27.4379 38.7353 28.9456 40.7959 31.438L40.7991 31.4419C40.8709 31.5285 40.9433 31.6166 41.0164 31.7055Z" fill="#1F2024"/>
<path d="M27.8466 43.4358C26.684 44.1312 25.3548 44.4989 24.0001 44.5C22.6455 44.4987 21.3165 44.1309 20.1541 43.4356C18.9916 42.7402 18.039 41.7432 17.3973 40.5503C17.367 40.4931 17.3521 40.429 17.3539 40.3642C17.3558 40.2995 17.3744 40.2364 17.4079 40.1809C17.4414 40.1255 17.4887 40.0797 17.5451 40.048C17.6016 40.0163 17.6653 39.9998 17.7301 40H30.2719C30.3366 39.9999 30.4002 40.0166 30.4566 40.0484C30.5129 40.0802 30.5601 40.126 30.5935 40.1813C30.6269 40.2367 30.6454 40.2998 30.6472 40.3645C30.649 40.4291 30.6341 40.4931 30.6038 40.5503C29.962 41.7433 29.0092 42.7404 27.8466 43.4358Z" fill="#1F2024"/>
</svg>
