<svg width="49" height="48" viewBox="0 0 49 48" fill="none" xmlns="http://www.w3.org/2000/svg">
<path d="M6.77079 43.4999C6.9678 43.5003 7.16292 43.4616 7.3449 43.3861C7.52689 43.3106 7.69213 43.1999 7.8311 43.0603L43.8311 7.06026C44.1005 6.77666 44.2485 6.39904 44.2435 6.0079C44.2385 5.61675 44.0809 5.24304 43.8043 4.96644C43.5277 4.68984 43.154 4.53223 42.7628 4.52722C42.3717 4.52221 41.9941 4.6702 41.7105 4.93963L5.71048 40.9396C5.50084 41.1494 5.35809 41.4166 5.30027 41.7075C5.24245 41.9984 5.27215 42.2999 5.38563 42.5739C5.4991 42.8479 5.69125 43.0821 5.9378 43.2469C6.18434 43.4118 6.47422 43.4998 6.77079 43.4999Z" fill="#1F2024"/>
<path d="M7.51315 31.9978C7.66877 31.8103 7.82159 31.6228 7.97159 31.4419C10.0341 28.9472 11.2819 27.4416 11.2819 20.3794C11.2819 16.7231 12.1566 13.7231 13.8807 11.4731C15.1519 9.81094 16.8703 8.55 19.1353 7.61812C19.1645 7.60191 19.1905 7.58064 19.2122 7.55531C20.0269 4.82719 22.2563 3 24.7706 3C27.285 3 29.5135 4.82719 30.3281 7.5525C30.3499 7.5769 30.3756 7.5975 30.4041 7.61344C31.1135 7.90356 31.7993 8.24835 32.4553 8.64469C32.5523 8.7038 32.6346 8.78415 32.6959 8.87969C32.7573 8.97523 32.7962 9.08347 32.8096 9.19622C32.8231 9.30898 32.8108 9.42332 32.7736 9.53061C32.7364 9.63791 32.6754 9.73536 32.595 9.81562L8.05315 34.3538C7.94276 34.4643 7.80063 34.5375 7.64659 34.5634C7.49255 34.5892 7.33429 34.5663 7.19389 34.4979C7.0535 34.4294 6.93797 34.3188 6.86344 34.1816C6.78891 34.0443 6.75909 33.8872 6.77815 33.7322C6.85044 33.0952 7.10573 32.4928 7.51315 31.9978Z" fill="#1F2024"/>
<path d="M38.2575 20.3766C38.2575 27.4416 39.5035 28.9472 41.5679 31.4391C41.7179 31.6201 41.8707 31.8038 42.0263 31.9951C42.4283 32.4799 42.683 33.0697 42.7602 33.6947C42.8375 34.3198 42.7341 34.9538 42.4622 35.5219C41.8838 36.7407 40.651 37.4972 39.2438 37.4972H19.4457C19.2972 37.4974 19.1521 37.4534 19.0287 37.371C18.9052 37.2886 18.809 37.1715 18.7522 37.0343C18.6954 36.8972 18.6805 36.7463 18.7095 36.6008C18.7385 36.4552 18.81 36.3215 18.915 36.2166L36.915 18.2166C37.0163 18.1157 37.1442 18.0459 37.2838 18.0152C37.4234 17.9846 37.5688 17.9945 37.703 18.0437C37.8371 18.093 37.9544 18.1796 38.0411 18.2932C38.1277 18.4069 38.18 18.543 38.1919 18.6854C38.2357 19.2285 38.2575 19.7922 38.2575 20.3766Z" fill="#1F2024"/>
<path d="M24.3915 44.5C23.0368 44.4989 21.7076 44.1312 20.545 43.4358C19.3823 42.7404 18.4296 41.7433 17.7878 40.5503C17.7575 40.4931 17.7426 40.4291 17.7444 40.3645C17.7462 40.2998 17.7647 40.2367 17.7981 40.1813C17.8315 40.126 17.8787 40.0802 17.935 40.0484C17.9914 40.0166 18.055 39.9999 18.1196 40H30.6615C30.7263 39.9998 30.79 40.0163 30.8464 40.048C30.9029 40.0797 30.9502 40.1255 30.9837 40.1809C31.0172 40.2364 31.0358 40.2995 31.0377 40.3642C31.0395 40.429 31.0246 40.4931 30.9943 40.5503C30.3526 41.7432 29.4 42.7402 28.2375 43.4356C27.075 44.1309 25.7461 44.4987 24.3915 44.5Z" fill="#1F2024"/>
</svg>
