<svg width="49" height="48" viewBox="0 0 49 48" fill="none" xmlns="http://www.w3.org/2000/svg">
<path d="M42.0675 31.665L41.5875 31.075C39.5675 28.585 38.3475 27.085 38.3475 20.145C38.3475 13.785 35.7075 9.435 30.4875 7.215C30.4775 7.215 30.4675 7.195 30.4575 7.195C29.6875 4.455 27.3475 2.555 24.7475 2.555C22.1475 2.555 19.8275 4.445 19.0375 7.195C19.0275 7.195 19.0175 7.215 19.0075 7.215C13.7175 9.465 11.1475 13.695 11.1475 20.145C11.1475 27.085 9.92751 28.585 7.90751 31.075L7.43751 31.655C6.56751 32.705 6.37751 34.115 6.95751 35.345C7.56751 36.635 8.85751 37.445 10.3475 37.445H16.9475V37.745C16.9475 39.715 17.7875 41.685 19.1975 43.095C20.5475 44.565 22.5875 45.445 24.6475 45.445C26.5875 45.445 28.6075 44.585 29.9975 43.195C31.5175 41.805 32.3475 39.865 32.3475 37.745V37.445H39.3475C40.7175 37.445 41.9375 36.665 42.5275 35.405C43.1075 34.155 42.9275 32.725 42.0575 31.675L42.0675 31.665ZM28.9575 37.745C28.9575 38.925 28.5275 39.945 27.6575 40.745C26.8675 41.535 25.6875 42.045 24.6575 42.045C23.5275 42.045 22.4275 41.575 21.6575 40.745C20.8275 39.915 20.3575 38.825 20.3575 37.745V37.445H28.9575V37.745ZM39.4575 33.955C39.4575 33.955 39.4075 34.045 39.3575 34.045H10.3575C10.2375 34.045 10.1375 34.015 10.0775 33.945V33.805L10.5575 33.215C13.0375 30.165 14.5575 27.895 14.5575 20.145C14.5575 13.605 17.6875 11.455 20.4175 10.315C20.4575 10.305 20.4875 10.285 20.5175 10.265C21.2175 9.915 22.0475 9.175 22.2975 8.175C22.5875 7.065 23.5275 5.945 24.7575 5.945C25.9875 5.945 26.9275 7.065 27.2075 8.155C27.4575 9.175 28.2975 9.915 28.9975 10.265C29.0275 10.285 29.0675 10.295 29.0975 10.315C31.6075 11.365 34.9575 13.535 34.9575 20.145C34.9575 27.905 36.4775 30.165 38.9575 33.215L39.4375 33.805C39.4375 33.805 39.4475 33.825 39.4575 33.835C39.4775 33.865 39.4975 33.885 39.4675 33.965L39.4575 33.955Z" fill="#1F2024"/>
</svg>
