<svg width="49" height="48" viewBox="0 0 49 48" fill="none" xmlns="http://www.w3.org/2000/svg">
<path d="M41.7436 31.935C41.7436 31.935 41.7236 31.915 41.7136 31.905L41.2836 31.385C39.1736 28.865 37.9036 27.345 37.9036 20.105C37.9036 13.825 35.3936 9.71502 30.3136 7.58502C30.1936 7.52502 30.0836 7.41502 30.0636 7.38502C29.3736 4.77502 27.1936 2.95502 24.7536 2.95502C22.3136 2.95502 20.1336 4.77502 19.4536 7.35502C19.4236 7.40502 19.3136 7.52502 19.2636 7.54502C14.1036 9.70502 11.5936 13.815 11.5936 20.095C11.5936 27.195 10.3336 28.745 8.2536 31.315L7.7836 31.895C7.0136 32.815 6.8636 34.075 7.3736 35.175C7.9136 36.325 9.0536 37.045 10.3436 37.045H17.3936V37.795C17.3936 39.625 18.2036 41.525 19.5236 42.845C20.7936 44.225 22.7036 45.045 24.6436 45.045C26.4736 45.045 28.3736 44.235 29.6836 42.915C31.1036 41.615 31.8936 39.795 31.8936 37.795V37.045H39.3436C40.5136 37.045 41.5636 36.385 42.0836 35.315C42.6236 34.215 42.4936 32.915 41.7336 31.925L41.7436 31.935ZM29.4036 37.795C29.4036 39.105 28.9236 40.235 27.9736 41.115C27.1036 41.985 25.8036 42.545 24.6536 42.545C23.4036 42.545 22.1736 42.025 21.3336 41.115C20.4636 40.245 19.9036 38.945 19.9036 37.795V37.045H29.4036V37.795ZM39.8536 34.215C39.8036 34.315 39.6536 34.545 39.3536 34.545H10.3536C9.9036 34.545 9.7136 34.245 9.6536 34.115C9.6036 34.005 9.5136 33.735 9.7336 33.475L10.2136 32.885C12.4736 30.095 14.1136 28.085 14.1136 20.095C14.1136 13.295 17.3936 11.045 20.3236 9.81502C20.9036 9.52502 21.6636 8.87502 21.8736 8.01502C22.2136 6.73502 23.3136 5.44502 24.7636 5.44502C26.2136 5.44502 27.3236 6.73502 27.6536 7.99502C27.8736 8.87502 28.6236 9.52502 29.2836 9.84502C31.9136 10.945 35.4136 13.215 35.4136 20.095C35.4136 28.255 37.0736 30.235 39.3736 32.985L39.7836 33.475C40.0236 33.805 39.9236 34.105 39.8636 34.215H39.8536Z" fill="#1F2024"/>
</svg>
