<svg width="49" height="48" viewBox="0 0 49 48" fill="none" xmlns="http://www.w3.org/2000/svg">
<path d="M41.7605 31.7055C41.8402 31.8023 41.9205 31.9001 42.0017 31.9978C42.4037 32.4834 42.6581 33.0741 42.7347 33.6998C42.8113 34.3256 42.7069 34.9602 42.4339 35.5284C41.8535 36.7416 40.6292 37.4972 39.2285 37.4972H10.2701C8.86293 37.4972 7.63011 36.7406 7.05168 35.5219C6.77982 34.9538 6.6764 34.3197 6.75366 33.6947C6.83091 33.0696 7.08561 32.4798 7.48761 31.995C7.624 31.8274 7.75823 31.6655 7.8903 31.5063C7.90893 31.4838 7.92751 31.4614 7.94605 31.4391C10.0104 28.9472 11.2564 27.4416 11.2564 20.3766C11.2564 13.9641 13.8251 9.78937 19.1107 7.61344C19.1393 7.5975 19.1649 7.5769 19.1867 7.5525C20.0014 4.82719 22.2298 3 24.7442 3C27.2585 3 29.4879 4.82719 30.3026 7.55531C30.3243 7.58064 30.3503 7.60191 30.3795 7.61812C32.6445 8.55 34.3629 9.81094 35.6342 11.4731C37.3582 13.7231 38.2329 16.7231 38.2329 20.3794C38.2329 27.4379 39.4794 28.9456 41.54 31.438L41.5432 31.4419C41.615 31.5285 41.6875 31.6166 41.7605 31.7055Z" fill="#1F2024"/>
<path d="M28.5907 43.4358C27.4281 44.1312 26.0989 44.4989 24.7442 44.5C23.3897 44.4987 22.0607 44.1309 20.8982 43.4356C19.7358 42.7402 18.7832 41.7432 18.1414 40.5503C18.1111 40.4931 18.0962 40.429 18.0981 40.3642C18.0999 40.2995 18.1185 40.2364 18.152 40.1809C18.1855 40.1255 18.2328 40.0797 18.2893 40.048C18.3457 40.0163 18.4095 39.9998 18.4742 40H31.0161C31.0808 39.9999 31.1444 40.0166 31.2007 40.0484C31.257 40.0802 31.3042 40.126 31.3376 40.1813C31.371 40.2367 31.3895 40.2998 31.3913 40.3645C31.3931 40.4291 31.3782 40.4931 31.348 40.5503C30.7061 41.7433 29.7534 42.7404 28.5907 43.4358Z" fill="#1F2024"/>
</svg>
