<svg width="49" height="48" viewBox="0 0 49 48" fill="none" xmlns="http://www.w3.org/2000/svg">
<path d="M41.6842 31.62C39.6642 29.13 38.4442 27.63 38.4442 20.69V19.49C38.4442 18.55 37.6842 17.79 36.7442 17.79C35.8042 17.79 35.0442 18.55 35.0442 19.49V20.69C35.0442 28.45 36.5642 30.71 39.0442 33.76L39.5242 34.35C39.5242 34.35 39.5242 34.48 39.5242 34.49C39.4642 34.55 39.3742 34.59 39.2442 34.59H18.7442C17.8042 34.59 17.0442 35.35 17.0442 36.29V37.29C17.0442 39.42 17.8742 41.35 19.3442 42.69C20.7842 44.13 22.8042 44.99 24.7442 44.99C26.8042 44.99 28.8442 44.11 30.1442 42.69C31.4342 41.4 32.2342 39.72 32.4042 37.99H39.2442C40.7242 37.99 42.0242 37.19 42.6342 35.89C43.2142 34.66 43.0242 33.25 42.1742 32.23L41.6842 31.62ZM27.6942 40.34C26.9742 41.12 25.8742 41.59 24.7442 41.59C23.7142 41.59 22.5342 41.08 21.6942 40.24C21.0442 39.64 20.6542 38.87 20.5142 37.99H28.9742C28.8142 38.83 28.3842 39.65 27.6942 40.34Z" fill="#1F2024"/>
<path d="M8.80419 33.04C9.11419 33.28 9.47419 33.4 9.84419 33.4C10.3542 33.4 10.8542 33.17 11.1942 32.74C13.3042 30.01 14.4542 27.26 14.4542 20.6C14.4542 13.94 17.7942 11.82 20.3142 10.77C20.3542 10.76 20.3842 10.74 20.4142 10.72C21.1142 10.37 21.9442 9.63 22.1942 8.63C22.4842 7.52 23.4242 6.4 24.6542 6.4C25.8842 6.4 26.8142 7.52 27.1042 8.61C27.3542 9.63 28.1942 10.37 28.8942 10.72C28.9642 10.76 29.0342 10.79 29.1142 10.81C29.4342 10.92 29.7542 11.08 30.1242 11.28L30.5942 11.52C31.4342 11.94 32.4542 11.6 32.8742 10.76C33.2942 9.92 32.9542 8.9 32.1142 8.48L31.6942 8.27C31.2842 8.06 30.8642 7.83 30.3642 7.65C29.5942 4.91 27.2542 3.01 24.6542 3.01C22.0542 3.01 19.7342 4.9 18.9442 7.65C18.9342 7.65 18.9242 7.67 18.9142 7.67C13.7042 9.89 11.0542 14.24 11.0542 20.6C11.0542 26.96 10.0042 28.73 8.51419 30.66C7.94419 31.4 8.07419 32.47 8.82419 33.04H8.80419Z" fill="#1F2024"/>
<path d="M43.9442 5.09C43.2842 4.43 42.2042 4.43 41.5442 5.09L5.54419 41.09C4.88419 41.75 4.88419 42.83 5.54419 43.49C5.87419 43.82 6.31419 43.99 6.74419 43.99C7.17419 43.99 7.61419 43.82 7.94419 43.49L43.9442 7.49C44.6042 6.83 44.6042 5.75 43.9442 5.09Z" fill="#1F2024"/>
</svg>
