<svg width="48" height="48" viewBox="0 0 48 48" fill="none" xmlns="http://www.w3.org/2000/svg">
<path d="M6.0264 43.4999C6.22341 43.5003 6.41854 43.4616 6.60052 43.3861C6.7825 43.3106 6.94775 43.1999 7.08672 43.0603L43.0867 7.06026C43.3562 6.77666 43.5041 6.39904 43.4991 6.0079C43.4941 5.61675 43.3365 5.24304 43.0599 4.96644C42.7833 4.68984 42.4096 4.53223 42.0185 4.52722C41.6273 4.52221 41.2497 4.6702 40.9661 4.93963L4.96609 40.9396C4.75645 41.1494 4.61371 41.4166 4.55588 41.7075C4.49806 41.9984 4.52777 42.2999 4.64124 42.5739C4.75472 42.8479 4.94687 43.0821 5.19341 43.2469C5.43996 43.4118 5.72983 43.4998 6.0264 43.4999Z" fill="#1F2024"/>
<path d="M6.76877 31.9978C6.92439 31.8103 7.0772 31.6228 7.2272 31.4419C9.2897 28.9472 10.5375 27.4416 10.5375 20.3794C10.5375 16.7231 11.4122 13.7231 13.1363 11.4731C14.4075 9.81094 16.126 8.55 18.391 7.61812C18.4201 7.60191 18.4461 7.58064 18.4678 7.55531C19.2825 4.82719 21.5119 3 24.0263 3C26.5406 3 28.7691 4.82719 29.5838 7.5525C29.6055 7.5769 29.6312 7.5975 29.6597 7.61344C30.3691 7.90356 31.0549 8.24835 31.711 8.64469C31.8079 8.7038 31.8902 8.78415 31.9516 8.87969C32.0129 8.97523 32.0518 9.08347 32.0653 9.19622C32.0787 9.30898 32.0664 9.42332 32.0292 9.53061C31.992 9.63791 31.931 9.73536 31.8506 9.81562L7.30876 34.3538C7.19838 34.4643 7.05625 34.5375 6.90221 34.5634C6.74817 34.5892 6.58991 34.5663 6.44951 34.4979C6.30911 34.4294 6.19359 34.3188 6.11906 34.1816C6.04452 34.0443 6.01471 33.8872 6.03376 33.7322C6.10606 33.0952 6.36135 32.4928 6.76877 31.9978Z" fill="#1F2024"/>
<path d="M37.5132 20.3766C37.5132 27.4416 38.7591 28.9472 40.8235 31.4391C40.9735 31.6201 41.1263 31.8038 41.2819 31.9951C41.6839 32.4799 41.9386 33.0697 42.0159 33.6947C42.0931 34.3198 41.9897 34.9538 41.7178 35.5219C41.1394 36.7407 39.9066 37.4972 38.4994 37.4972H18.7013C18.5529 37.4974 18.4077 37.4534 18.2843 37.371C18.1608 37.2886 18.0646 37.1715 18.0078 37.0343C17.951 36.8972 17.9361 36.7463 17.9651 36.6008C17.9941 36.4552 18.0656 36.3215 18.1707 36.2166L36.1707 18.2166C36.2719 18.1157 36.3998 18.0459 36.5394 18.0152C36.679 17.9846 36.8244 17.9945 36.9586 18.0437C37.0928 18.093 37.2101 18.1796 37.2967 18.2932C37.3833 18.4069 37.4356 18.543 37.4475 18.6854C37.4913 19.2285 37.5132 19.7922 37.5132 20.3766Z" fill="#1F2024"/>
<path d="M23.6471 44.5C22.2924 44.4989 20.9632 44.1312 19.8006 43.4358C18.638 42.7404 17.6852 41.7434 17.0434 40.5503C17.0131 40.4931 16.9982 40.4291 17 40.3645C17.0018 40.2998 17.0203 40.2367 17.0538 40.1813C17.0872 40.126 17.1343 40.0802 17.1906 40.0484C17.247 40.0166 17.3106 39.9999 17.3753 40H29.9171C29.9819 39.9998 30.0456 40.0163 30.1021 40.048C30.1585 40.0797 30.2058 40.1255 30.2393 40.1809C30.2728 40.2364 30.2914 40.2995 30.2933 40.3642C30.2951 40.429 30.2802 40.4931 30.2499 40.5503C29.6082 41.7432 28.6556 42.7402 27.4931 43.4356C26.3307 44.1309 25.0017 44.4987 23.6471 44.5Z" fill="#1F2024"/>
</svg>
