<svg width="48" height="48" viewBox="0 0 48 48" fill="none" xmlns="http://www.w3.org/2000/svg">
<path d="M24.0005 31.25L23.9905 31.25C24.786 31.2448 25.4406 30.6167 25.4805 29.82L26.0205 18.4C26.0405 18.11 25.9905 17.83 25.8905 17.56C25.8005 17.31 25.6505 17.08 25.4505 16.87C25.2605 16.67 25.0405 16.52 24.7705 16.41C24.5105 16.31 24.2405 16.26 23.9705 16.26C23.7005 16.27 23.4305 16.32 23.1905 16.43C22.9405 16.53 22.7105 16.69 22.5205 16.89C22.3305 17.1 22.1805 17.33 22.1005 17.56C22.0005 17.82 21.9505 18.1 21.9605 18.38L22.5005 29.82C22.5403 30.6167 23.195 31.2448 23.9905 31.25L23.9805 31.25H24.0005Z" fill="#1F2024"/>
<path d="M23.0105 37.15C23.3405 37.37 23.7205 37.49 24.1205 37.49L24.1305 37.48C24.6605 37.48 25.1605 37.26 25.5405 36.89C25.9205 36.52 26.1305 36.01 26.1305 35.48C26.1305 35.09 26.0105 34.7 25.7905 34.37C25.5705 34.04 25.2605 33.78 24.8905 33.63C24.5205 33.48 24.1205 33.44 23.7305 33.52C23.3505 33.6 22.9905 33.79 22.7105 34.07C22.4305 34.35 22.2405 34.7 22.1605 35.09C22.0805 35.48 22.1205 35.88 22.2705 36.25C22.4305 36.62 22.6805 36.93 23.0105 37.15Z" fill="#1F2024"/>
<path fill-rule="evenodd" clip-rule="evenodd" d="M8.02047 43.33C7.24047 43.33 6.48047 43.13 5.80047 42.74C5.13047 42.36 4.56047 41.8 4.16047 41.13C3.76047 40.48 3.54047 39.71 3.52047 38.93C3.50047 38.15 3.69047 37.38 4.06047 36.7L20.0405 7.03003C20.8305 5.57003 22.3405 4.66003 24.0005 4.66003C25.6605 4.66003 27.1805 5.57003 27.9605 7.03003L43.9405 36.7C44.3105 37.38 44.4905 38.16 44.4805 38.93C44.4605 39.71 44.2405 40.47 43.8405 41.14C43.4405 41.81 42.8805 42.36 42.2005 42.75C41.5305 43.13 40.7605 43.34 39.9805 43.34V43.33H8.02047ZM24.0005 7.66003C23.7305 7.66003 23.0605 7.74003 22.6805 8.45003L6.70047 38.12C6.58048 38.35 6.52047 38.61 6.52047 38.86C6.52047 39.12 6.60048 39.37 6.73047 39.59C6.86048 39.82 7.05047 40 7.28047 40.13C7.51047 40.26 7.76048 40.33 8.02047 40.33H39.9805C40.2405 40.33 40.4905 40.26 40.7205 40.13C40.9505 40 41.1405 39.82 41.2705 39.6C41.4005 39.38 41.4805 39.12 41.4805 38.86C41.4805 38.6 41.4205 38.34 41.3005 38.12L25.3205 8.45003C24.9405 7.74003 24.2705 7.66003 24.0005 7.66003Z" fill="#1F2024"/>
</svg>
