<svg width="48" height="48" viewBox="0 0 48 48" fill="none" xmlns="http://www.w3.org/2000/svg">
<path d="M28.16 6.89995C27.36 5.36995 25.85 4.44995 24.13 4.40995C22.39 4.32995 20.75 5.30995 19.86 6.87995L3.85 36.5799C3.82 36.6399 3.79 36.6999 3.77 36.7599C3.54 37.3399 3.25 38.0599 3.25 38.8899C3.25 39.7199 3.54 40.44 3.77 41.02C3.83 41.16 3.9 41.29 3.99 41.41C4.33 41.86 4.79 42.48 5.57 42.95C5.61 42.97 5.65 42.9899 5.69 43.0099C6.48 43.4099 7.23 43.59 8.05 43.59H40.05C40.88 43.59 41.63 43.3999 42.31 43.0099C43.17 42.6199 43.68 41.9499 44.06 41.3299C44.52 40.6799 44.74 39.8799 44.74 38.8899C44.74 38.0099 44.53 37.2399 44.14 36.5799L28.16 6.89995ZM41.29 39.3699C41.29 39.3699 41.22 39.46 41.19 39.52C41 39.84 40.92 39.9099 40.92 39.9199C40.84 39.9499 40.75 39.99 40.68 40.04C40.49 40.15 40.31 40.2 40.05 40.2H8.05C7.86 40.2 7.63 40.1799 7.28 40.0099C7.13 39.9099 7.01 39.7699 6.85 39.5499C6.75 39.2899 6.66 39.0299 6.66 38.8899C6.66 38.7299 6.79 38.4 6.9 38.11L22.83 8.52995C23.09 8.06995 23.54 7.76995 24.07 7.80995C24.29 7.80995 24.84 7.88995 25.16 8.48995L41.2 38.2599C41.31 38.4499 41.36 38.6299 41.36 38.8899C41.36 39.2699 41.3 39.3699 41.3 39.3699H41.29Z" fill="#1F2024"/>
<path d="M24.05 31.3899C24.91 31.3899 25.61 30.72 25.65 29.86L26.15 18.3899V18.1899C26.15 17.9299 26.09 17.5799 25.86 17.2399C25.79 17.0999 25.69 16.9799 25.58 16.8599C25.3 16.5799 24.92 16.2899 24.25 16.2899H23.85C23.59 16.2899 23.24 16.3499 22.9 16.5799C22.76 16.6499 22.64 16.7499 22.52 16.8599C22.35 17.0299 21.95 17.4999 21.95 18.1899V18.3899C21.95 18.3899 21.95 18.4399 21.95 18.4599L22.45 29.86C22.49 30.72 23.19 31.3899 24.05 31.3899Z" fill="#1F2024"/>
<path d="M25.1 33.3999C24.72 33.2099 24.3 33.1699 23.83 33.2899C23.38 33.3999 22.97 33.6199 22.68 33.9199C22.39 34.2099 22.17 34.6199 22.05 35.0699C21.94 35.4899 22.05 35.9099 22.15 36.3099C22.25 36.7899 22.52 37.14 23 37.38C23.35 37.61 23.89 37.6899 24.25 37.6899C24.87 37.6899 25.4 37.48 25.82 37.06C26.24 36.64 26.45 36.1099 26.45 35.4899C26.45 35.0199 26.31 34.6099 26.03 34.2299C25.82 33.9199 25.41 33.6099 25.09 33.3999H25.1Z" fill="#1F2024"/>
</svg>
