<svg width="48" height="48" viewBox="0 0 48 48" fill="none" xmlns="http://www.w3.org/2000/svg">
<path d="M41.2701 32L40.8101 31.44C38.7501 28.94 37.5001 27.44 37.5001 20.37C37.5001 13.96 34.9301 9.77999 29.6501 7.60999C29.6201 7.59999 29.5801 7.55999 29.5901 7.57999C28.7801 4.83999 26.5501 2.98999 24.0201 2.98999C21.4901 2.98999 19.2501 4.83999 18.4801 7.52999C18.4701 7.54999 18.4201 7.58999 18.4001 7.59999C13.1101 9.77999 10.5501 13.95 10.5501 20.36C10.5501 27.42 9.30011 28.93 7.24011 31.43L6.78011 31.98C5.96011 32.99 5.79011 34.34 6.34011 35.51C6.92011 36.73 8.15011 37.49 9.56011 37.49H16.5301V37.99C16.5301 39.99 17.3101 41.88 18.7301 43.29C20.1501 44.71 22.0301 45.49 24.0301 45.49C26.0301 45.49 27.9201 44.71 29.3301 43.29C30.7501 41.87 31.5301 39.99 31.5301 37.99V37.49H38.5101C39.9101 37.49 41.1401 36.73 41.7201 35.52C42.2801 34.35 42.1101 33 41.2901 31.99L41.2701 32ZM28.5101 38C28.5101 39.2 28.0401 40.33 27.1901 41.18C26.3401 42.03 25.2101 42.5 24.0101 42.5C22.8101 42.5 21.6801 42.03 20.8301 41.18C19.9801 40.33 19.5101 39.2 19.5101 38V37.5H28.5101V38ZM38.9901 34.24C38.9401 34.34 38.8201 34.5 38.4901 34.5H9.54011C9.21011 34.5 9.08011 34.34 9.03011 34.24C8.95011 34.06 9.05011 33.94 9.08011 33.9L9.53011 33.36C11.7601 30.66 13.5301 28.53 13.5301 20.38C13.5301 13.71 16.7401 11.54 19.5301 10.39C20.3901 10.04 21.0801 9.28999 21.3301 8.42999C21.6801 7.21999 22.6501 5.99999 24.0101 5.99999C25.3701 5.99999 26.3401 7.21999 26.7001 8.43999C26.9501 9.28999 27.6401 10.04 28.5001 10.39C31.2901 11.54 34.5001 13.71 34.5001 20.38C34.5001 28.52 36.2601 30.66 38.5001 33.36L38.9501 33.9C38.9501 33.9 39.0801 34.06 39.0001 34.25L38.9901 34.24Z" fill="#1F2024"/>
</svg>
