<svg width="49" height="48" viewBox="0 0 49 48" fill="none" xmlns="http://www.w3.org/2000/svg">
<path d="M41.7436 31.9351C41.7436 31.9351 41.7236 31.9151 41.7136 31.9051L41.2836 31.3851C39.1736 28.8651 37.9036 27.3451 37.9036 20.1051C37.9036 13.8251 35.3936 9.71508 30.3136 7.58508C30.1936 7.52508 30.0836 7.41508 30.0636 7.38508C29.3736 4.77508 27.1936 2.95508 24.7536 2.95508C22.3136 2.95508 20.1336 4.77508 19.4536 7.35508C19.4236 7.40508 19.3136 7.52508 19.2636 7.54508C14.1036 9.70508 11.5936 13.8151 11.5936 20.0951C11.5936 27.1951 10.3336 28.7451 8.2536 31.3151L7.7836 31.8951C7.0136 32.8151 6.8636 34.0751 7.3736 35.1751C7.9136 36.3251 9.0536 37.0451 10.3436 37.0451H17.3936V37.7951C17.3936 39.6251 18.2036 41.5251 19.5236 42.8451C20.7936 44.2251 22.7036 45.0451 24.6436 45.0451C26.4736 45.0451 28.3736 44.2351 29.6836 42.9151C31.1036 41.6151 31.8936 39.7951 31.8936 37.7951V37.0451H39.3436C40.5136 37.0451 41.5636 36.3851 42.0836 35.3151C42.6236 34.2151 42.4936 32.9151 41.7336 31.9251L41.7436 31.9351ZM29.4036 37.7951C29.4036 39.1051 28.9236 40.2351 27.9736 41.1151C27.1036 41.9851 25.8036 42.5451 24.6536 42.5451C23.4036 42.5451 22.1736 42.0251 21.3336 41.1151C20.4636 40.2451 19.9036 38.9451 19.9036 37.7951V37.0451H29.4036V37.7951ZM39.8536 34.2151C39.8036 34.3151 39.6536 34.5451 39.3536 34.5451H10.3536C9.9036 34.5451 9.7136 34.2451 9.6536 34.1151C9.6036 34.0051 9.5136 33.7351 9.7336 33.4751L10.2136 32.8851C12.4736 30.0951 14.1136 28.0851 14.1136 20.0951C14.1136 13.2951 17.3936 11.0451 20.3236 9.81508C20.9036 9.52508 21.6636 8.87508 21.8736 8.01508C22.2136 6.73508 23.3136 5.44508 24.7636 5.44508C26.2136 5.44508 27.3236 6.73508 27.6536 7.99508C27.8736 8.87508 28.6236 9.52508 29.2836 9.84508C31.9136 10.9451 35.4136 13.2151 35.4136 20.0951C35.4136 28.2551 37.0736 30.2351 39.3736 32.9851L39.7836 33.4751C40.0236 33.8051 39.9236 34.1051 39.8636 34.2151H39.8536Z" fill="#1F2024"/>
</svg>
