<svg width="49" height="48" viewBox="0 0 49 48" fill="none" xmlns="http://www.w3.org/2000/svg">
<path d="M41.6841 31.62C39.6641 29.13 38.4441 27.63 38.4441 20.69V19.49C38.4441 18.55 37.6841 17.79 36.7441 17.79C35.8041 17.79 35.0441 18.55 35.0441 19.49V20.69C35.0441 28.45 36.5641 30.71 39.0441 33.76L39.5241 34.35C39.5241 34.35 39.5241 34.48 39.5241 34.49C39.4641 34.55 39.3741 34.59 39.2441 34.59H18.7441C17.8041 34.59 17.0441 35.35 17.0441 36.29V37.29C17.0441 39.42 17.8741 41.35 19.3441 42.69C20.7841 44.13 22.8041 44.99 24.7441 44.99C26.8041 44.99 28.8441 44.11 30.1441 42.69C31.4341 41.4 32.2341 39.72 32.4041 37.99H39.2441C40.7241 37.99 42.0241 37.19 42.6341 35.89C43.2141 34.66 43.0241 33.25 42.1741 32.23L41.6841 31.62ZM27.6941 40.34C26.9741 41.12 25.8741 41.59 24.7441 41.59C23.7141 41.59 22.5341 41.08 21.6941 40.24C21.0441 39.64 20.6541 38.87 20.5141 37.99H28.9741C28.8141 38.83 28.3841 39.65 27.6941 40.34Z" fill="#1F2024"/>
<path d="M8.80407 33.04C9.11407 33.28 9.47407 33.4 9.84407 33.4C10.3541 33.4 10.8541 33.17 11.1941 32.74C13.3041 30.01 14.4541 27.26 14.4541 20.6C14.4541 13.94 17.7941 11.82 20.3141 10.77C20.3541 10.76 20.3841 10.74 20.4141 10.72C21.1141 10.37 21.9441 9.62999 22.1941 8.62999C22.4841 7.51999 23.4241 6.39999 24.6541 6.39999C25.8841 6.39999 26.8141 7.51999 27.1041 8.60999C27.3541 9.62999 28.1941 10.37 28.8941 10.72C28.9641 10.76 29.0341 10.79 29.1141 10.81C29.4341 10.92 29.7541 11.08 30.1241 11.28L30.5941 11.52C31.4341 11.94 32.4541 11.6 32.8741 10.76C33.2941 9.91999 32.9541 8.89999 32.1141 8.47999L31.6941 8.26999C31.2841 8.05999 30.8641 7.82999 30.3641 7.64999C29.5941 4.90999 27.2541 3.00999 24.6541 3.00999C22.0541 3.00999 19.7341 4.89999 18.9441 7.64999C18.9341 7.64999 18.9241 7.66999 18.9141 7.66999C13.7041 9.88999 11.0541 14.24 11.0541 20.6C11.0541 26.96 10.0041 28.73 8.51407 30.66C7.94407 31.4 8.07407 32.47 8.82407 33.04H8.80407Z" fill="#1F2024"/>
<path d="M43.9441 5.08999C43.2841 4.42999 42.2041 4.42999 41.5441 5.08999L5.54407 41.09C4.88407 41.75 4.88407 42.83 5.54407 43.49C5.87407 43.82 6.31407 43.99 6.74407 43.99C7.17407 43.99 7.61407 43.82 7.94407 43.49L43.9441 7.48999C44.6041 6.82999 44.6041 5.74999 43.9441 5.08999Z" fill="#1F2024"/>
</svg>
