<svg width="48" height="48" viewBox="0 0 48 48" fill="none" xmlns="http://www.w3.org/2000/svg">
<path d="M20.6437 27.37C16.3437 27.37 12.9937 24.1 12.6637 19.59C12.4937 17.21 13.2237 15.01 14.7337 13.4C16.2237 11.8 18.3237 10.91 20.6437 10.91C22.9637 10.91 25.0837 11.79 26.5637 13.38C28.0637 14.99 28.7937 17.19 28.6237 19.59C28.3037 24.1 24.9437 27.37 20.6437 27.37ZM20.6437 13.91C19.1637 13.91 17.8437 14.45 16.9337 15.44C16.0037 16.44 15.5537 17.84 15.6637 19.38C15.9137 22.81 18.4237 24.38 20.6537 24.38C22.8837 24.38 25.3937 22.82 25.6437 19.39C25.7537 17.81 25.3237 16.44 24.3837 15.44C23.4737 14.46 22.1537 13.93 20.6537 13.93L20.6437 13.91Z" fill="#1F2024"/>
<path d="M33.5938 43.09H7.69381C6.86381 43.09 6.10381 42.72 5.59381 42.07C5.06381 41.39 4.87381 40.47 5.08381 39.6C6.65381 33.21 12.7538 29.09 20.6438 29.09C28.5338 29.09 34.6138 33.21 36.1938 39.6C36.4138 40.47 36.2238 41.39 35.6938 42.07C35.1838 42.72 34.4238 43.09 33.5938 43.09ZM8.06381 40.09H33.2338C31.6238 34.19 25.4738 32.09 20.6538 32.09C15.8338 32.09 9.65381 34.19 8.06381 40.09Z" fill="#1F2024"/>
<path d="M43.9793 5.35951C44.6091 5.89759 44.6836 6.84441 44.1455 7.4743L36.4574 16.4743C36.1821 16.7966 35.7833 16.9873 35.3597 16.9994C34.936 17.0115 34.527 16.8438 34.2338 16.5378L29.9219 12.0378C29.3488 11.4397 29.369 10.4901 29.9672 9.91697C30.5654 9.34382 31.5149 9.36409 32.088 9.96225L35.253 13.2653L41.8645 5.52575C42.4025 4.89586 43.3494 4.82143 43.9793 5.35951Z" fill="#1F2024"/>
</svg>
