<svg width="48" height="48" viewBox="0 0 48 48" fill="none" xmlns="http://www.w3.org/2000/svg">
<path d="M3.58352 40.408H28.995C29.4036 40.4102 29.8072 40.3186 30.1748 40.1404C30.5424 39.9621 30.8642 39.7018 31.1155 39.3796C31.382 39.0303 31.566 38.6253 31.6538 38.1948C31.7416 37.7644 31.7309 37.3196 31.6224 36.8939C30.8109 33.6352 28.8003 30.9326 25.8086 29.0791C23.1532 27.4348 19.7731 26.5288 16.2898 26.5288C12.738 26.5288 9.44653 27.3963 6.77574 29.0396C3.77725 30.8834 1.7638 33.6014 0.956103 36.8997C0.848983 37.3257 0.839461 37.7705 0.928248 38.2007C1.01703 38.631 1.20184 39.0356 1.46886 39.3844C1.71984 39.7051 2.04091 39.9641 2.40745 40.1415C2.774 40.319 3.1763 40.4101 3.58352 40.408Z" fill="#1F2024"/>
<path d="M28.1773 26.8618C29.8727 26.0329 32.0731 25.6184 34.5049 25.6184C37.3443 25.6184 40.1019 26.3586 42.2705 27.7022C44.7293 29.228 46.3832 31.4496 47.0511 34.132C47.1489 34.5178 47.1581 34.9207 47.0782 35.3106C46.9982 35.7005 46.8312 36.0673 46.5895 36.3835C46.3601 36.6779 46.0663 36.9158 45.7306 37.0789C45.3949 37.242 45.0263 37.3259 44.6531 37.3242H33.9545C33.774 37.3242 33.5991 37.2608 33.4605 37.145C33.3219 37.0293 33.2283 36.8686 33.196 36.6909C33.1854 36.6302 33.1719 36.5695 33.1565 36.5097C32.3392 33.2269 30.424 30.453 27.5942 28.4309C27.4901 28.3559 27.4064 28.256 27.3506 28.1405C27.2949 28.0249 27.2688 27.8973 27.2749 27.7691C27.2809 27.641 27.3188 27.5163 27.3852 27.4065C27.4515 27.2967 27.5442 27.2052 27.6549 27.1403C27.8062 27.0516 27.9797 26.9581 28.1773 26.8618Z" fill="#1F2024"/>
<path d="M16.0038 24.0518C11.7038 24.0518 8.35384 20.7818 8.02384 16.2718C7.85384 13.8918 8.58384 11.6918 10.0938 10.0818C11.5838 8.4818 13.6838 7.5918 16.0038 7.5918C18.3238 7.5918 20.4438 8.4718 21.9238 10.0618C23.4238 11.6718 24.1538 13.8718 23.9838 16.2718C23.6638 20.7818 20.3038 24.0518 16.0038 24.0518Z" fill="#1F2024"/>
<path d="M34.5741 23.4918C31.0241 23.4918 28.1441 20.6618 27.8741 16.9118C27.7341 14.9218 28.3541 13.0818 29.6241 11.7118C30.8841 10.3618 32.6441 9.61182 34.5741 9.61182C36.5041 9.61182 38.2841 10.3518 39.5341 11.6918C40.7941 13.0518 41.4141 14.9018 41.2741 16.9018C41.0141 20.6518 38.1241 23.4818 34.5741 23.4818V23.4918Z" fill="#1F2024"/>
</svg>
