<svg width="48" height="48" viewBox="0 0 48 48" fill="none" xmlns="http://www.w3.org/2000/svg">
<path d="M20.6437 27.37C16.3437 27.37 12.9937 24.1 12.6637 19.59C12.4937 17.21 13.2237 15.01 14.7337 13.4C16.2237 11.8 18.3237 10.91 20.6437 10.91C22.9637 10.91 25.0837 11.79 26.5637 13.38C28.0637 14.99 28.7937 17.19 28.6237 19.59C28.3037 24.1 24.9437 27.37 20.6437 27.37ZM20.6437 13.91C19.1637 13.91 17.8437 14.45 16.9337 15.44C16.0037 16.44 15.5537 17.84 15.6637 19.38C15.9137 22.81 18.4237 24.38 20.6537 24.38C22.8837 24.38 25.3937 22.82 25.6437 19.39C25.7537 17.81 25.3237 16.44 24.3837 15.44C23.4737 14.46 22.1537 13.93 20.6537 13.93L20.6437 13.91Z" fill="#1F2024"/>
<path d="M33.5938 43.09H7.69381C6.86381 43.09 6.10381 42.72 5.59381 42.07C5.06381 41.39 4.87381 40.47 5.08381 39.6C6.65381 33.21 12.7538 29.09 20.6438 29.09C28.5338 29.09 34.6138 33.21 36.1938 39.6C36.4138 40.47 36.2238 41.39 35.6938 42.07C35.1838 42.72 34.4238 43.09 33.5938 43.09ZM8.06381 40.09H33.2338C31.6238 34.19 25.4738 32.09 20.6538 32.09C15.8338 32.09 9.65381 34.19 8.06381 40.09Z" fill="#1F2024"/>
<path d="M31.6667 14.1667H35.8333V18.3333C35.8333 19.25 36.5833 20 37.5 20C38.4167 20 39.1667 19.25 39.1667 18.3333V14.1667H43.3333C44.25 14.1667 45 13.4167 45 12.5C45 11.5833 44.25 10.8333 43.3333 10.8333H39.1667V6.66667C39.1667 5.75 38.4167 5 37.5 5C36.5833 5 35.8333 5.75 35.8333 6.66667V10.8333H31.6667C30.75 10.8333 30 11.5833 30 12.5C30 13.4167 30.75 14.1667 31.6667 14.1667Z" fill="#1F2024"/>
</svg>
