<svg width="48" height="48" viewBox="0 0 48 48" fill="none" xmlns="http://www.w3.org/2000/svg">
<path d="M16.1387 24.3699C11.8387 24.3699 8.48873 21.0999 8.15873 16.5899C7.98873 14.2099 8.71873 12.0099 10.2287 10.3999C11.7187 8.79991 13.8187 7.90991 16.1387 7.90991C18.4587 7.90991 20.5787 8.78991 22.0587 10.3799C23.5587 11.9899 24.2887 14.1899 24.1187 16.5899C23.7987 21.0999 20.4387 24.3699 16.1387 24.3699ZM16.1387 10.9099C14.6587 10.9099 13.3387 11.4499 12.4287 12.4399C11.4987 13.4399 11.0487 14.8399 11.1587 16.3799C11.4087 19.8099 13.9187 21.3799 16.1487 21.3799C18.3787 21.3799 20.8887 19.8199 21.1387 16.3899C21.2487 14.8099 20.8187 13.4399 19.8787 12.4399C18.9687 11.4599 17.6487 10.9299 16.1487 10.9299L16.1387 10.9099Z" fill="#1F2024"/>
<path d="M29.0888 40.0899H3.1888C2.3588 40.0899 1.5988 39.7199 1.0888 39.0699C0.558801 38.3899 0.368801 37.4699 0.578801 36.5999C2.1488 30.2099 8.2488 26.0899 16.1388 26.0899C24.0288 26.0899 30.1088 30.2099 31.6888 36.5999C31.9088 37.4699 31.7188 38.3899 31.1888 39.0699C30.6788 39.7199 29.9188 40.0899 29.0888 40.0899ZM3.5588 37.0899H28.7288C27.1188 31.1899 20.9688 29.0899 16.1488 29.0899C11.3288 29.0899 5.1488 31.1899 3.5588 37.0899Z" fill="#1F2024"/>
<path d="M34.709 23.8099C31.159 23.8099 28.279 20.9799 28.009 17.2299C27.869 15.2399 28.489 13.3999 29.759 12.0299C31.019 10.6799 32.779 9.92993 34.709 9.92993C36.6389 9.92993 38.419 10.6699 39.669 12.0099C40.929 13.3699 41.549 15.2199 41.409 17.2199C41.149 20.9699 38.2589 23.7999 34.709 23.7999V23.8099ZM30.999 17.0099C31.179 19.4999 32.999 20.8099 34.709 20.8099C36.419 20.8099 38.239 19.5099 38.419 17.0099C38.499 15.8499 38.169 14.7999 37.479 14.0499C36.799 13.3199 35.819 12.9199 34.709 12.9199C33.599 12.9199 32.639 13.3199 31.959 14.0599C31.259 14.8099 30.919 15.8599 30.999 16.9999V17.0099Z" fill="#1F2024"/>
<path d="M45.0488 36.9399H34.0188C33.1888 36.9399 32.5188 36.2699 32.5188 35.4399C32.5188 34.6099 33.1888 33.9399 34.0188 33.9399H44.3488C42.9488 29.6799 38.3388 28.1499 34.7088 28.1499C32.6788 28.1499 30.9888 28.4699 29.5388 29.1399C28.7888 29.4899 27.8988 29.1599 27.5488 28.3999C27.1988 27.6499 27.5388 26.7599 28.2888 26.4099C30.1388 25.5599 32.2388 25.1499 34.7088 25.1499C41.0288 25.1499 46.1388 28.6099 47.4288 33.7699C47.6188 34.5499 47.4488 35.3899 46.9688 35.9999C46.5088 36.5899 45.8088 36.9299 45.0488 36.9299V36.9399Z" fill="#1F2024"/>
</svg>
