<svg width="48" height="48" viewBox="0 0 48 48" fill="none" xmlns="http://www.w3.org/2000/svg">
<path d="M43.9793 5.35951C44.6091 5.89759 44.6836 6.84441 44.1455 7.4743L36.4574 16.4743C36.1821 16.7966 35.7833 16.9873 35.3597 16.9994C34.936 17.0115 34.527 16.8438 34.2338 16.5378L29.9219 12.0378C29.3488 11.4397 29.369 10.4901 29.9672 9.91697C30.5654 9.34382 31.5149 9.36409 32.088 9.96225L35.253 13.2653L41.8645 5.52575C42.4025 4.89586 43.3494 4.82143 43.9793 5.35951Z" fill="#1F2024"/>
<path d="M7.71548 42.8162H33.127C33.5355 42.8184 33.9392 42.7268 34.3068 42.5486C34.6744 42.3703 34.9962 42.11 35.2474 41.7878C35.5139 41.4386 35.698 41.0335 35.7858 40.6031C35.8735 40.1726 35.8628 39.7278 35.7544 39.3021C34.9428 36.0434 32.9323 33.3408 29.9405 31.4873C27.2852 29.843 23.905 28.937 20.4217 28.937C16.87 28.937 13.5785 29.8045 10.9077 31.4478C7.90921 33.2916 5.89575 36.0096 5.08806 39.3079C4.98094 39.7339 4.97142 40.1787 5.06021 40.6089C5.14899 41.0392 5.33379 41.4438 5.60082 41.7926C5.8518 42.1133 6.17287 42.3723 6.53941 42.5497C6.90596 42.7272 7.30825 42.8183 7.71548 42.8162Z" fill="#1F2024"/>
<path d="M20.1358 26.46C15.8358 26.46 12.4858 23.19 12.1558 18.68C11.9858 16.3 12.7158 14.1 14.2258 12.49C15.7158 10.89 17.8158 10 20.1358 10C22.4558 10 24.5758 10.88 26.0558 12.47C27.5558 14.08 28.2858 16.28 28.1158 18.68C27.7958 23.19 24.4358 26.46 20.1358 26.46Z" fill="#1F2024"/>
</svg>
