<svg width="48" height="48" viewBox="0 0 48 48" fill="none" xmlns="http://www.w3.org/2000/svg">
<path d="M17.4558 7.9C15.6558 9.8 14.8558 12.3 15.0558 15.1C15.3558 20.2 19.3558 24 24.2558 24C29.1558 24 33.1558 20.2 33.4558 15.1C33.6558 12.4 32.7558 9.8 30.9558 7.9C29.2558 6.1 26.8558 5 24.2558 5C21.6558 5.1 19.2558 6.1 17.4558 7.9ZM30.0558 14.9C29.8558 18.7 26.9558 20.6 24.2558 20.6C21.5558 20.6 18.6558 18.6 18.4558 14.9C18.3558 13.1 18.8558 11.4 19.9558 10.3C21.0558 9.2 22.5558 8.5 24.2558 8.5C25.9558 8.5 27.4558 9.1 28.5558 10.3C29.6558 11.5 30.1558 13.1 30.0558 14.9Z" fill="#1F2024"/>
<path d="M24.0558 25.1C16.0558 25.1 6.75583 29.5 4.95583 39.1C4.75583 40.1 4.95583 41.1 5.65583 41.9C6.25583 42.6 7.15583 43 8.05583 43H39.9558C40.8558 43 41.7558 42.6 42.3558 41.8C42.9558 41 43.2558 40 43.0558 39.1C41.4558 29.5 32.0558 25.1 24.0558 25.1ZM8.35583 39.6C9.75583 32 17.4558 28.5 24.0558 28.5C30.6558 28.5 38.3558 32 39.6558 39.6H8.35583Z" fill="#1F2024"/>
</svg>
