<svg width="48" height="48" viewBox="0 0 48 48" fill="none" xmlns="http://www.w3.org/2000/svg">
<path d="M23.7097 43.195C13.3797 43.105 4.89974 34.625 4.79974 24.295C4.74974 19.065 6.74974 14.145 10.4097 10.445C14.0297 6.80504 18.8297 4.79504 23.9397 4.79504H24.2897C34.6197 4.99504 43.0997 13.475 43.1997 23.705C43.2497 28.935 41.2497 33.855 37.5897 37.555C33.9797 41.205 29.1697 43.205 24.0597 43.205H23.7097V43.195ZM11.6297 35.445C11.6797 35.585 11.8197 35.695 11.9997 35.695H12.1997C12.4097 35.695 12.5697 35.555 12.6097 35.505L12.7097 35.405C13.5997 34.195 14.5697 33.275 15.6497 32.655C17.9697 31.105 20.8497 30.295 23.9997 30.295C26.9497 30.295 29.9097 31.135 32.3397 32.655C33.3197 33.365 34.4397 34.255 35.2597 35.375L35.4797 35.595H35.7997C35.9697 35.595 36.0197 35.565 36.2297 35.465L36.2797 35.435L36.3197 35.395C39.2097 32.195 40.7997 28.185 40.7997 24.095C40.7997 14.835 33.2597 7.29504 23.9997 7.29504C19.4697 7.29504 15.2097 9.10504 11.9997 12.385C8.79974 15.655 7.09974 19.925 7.19974 24.405C7.29974 28.555 8.87974 32.465 11.6297 35.445Z" fill="#1F2024"/>
<path d="M24.0997 26.695C20.9697 26.695 18.2897 23.875 17.9997 20.275C17.8097 18.465 18.3597 16.765 19.5097 15.615C20.6597 14.465 22.2997 13.805 23.9997 13.805C25.6997 13.805 27.3197 14.455 28.5997 15.625C29.7397 16.755 30.3097 18.415 30.1997 20.285C29.9097 23.825 27.1797 26.705 24.0997 26.705V26.695Z" fill="#1F2024"/>
</svg>
