<svg width="48" height="48" viewBox="0 0 48 48" fill="none" xmlns="http://www.w3.org/2000/svg">
<path d="M24.0499 23.5C19.1899 23.5 15.3999 19.85 15.0299 14.81C14.8299 12.12 15.6699 9.64 17.3699 7.81C19.0599 6 21.4299 5 24.0499 5C26.6699 5 29.0199 6 30.7099 7.83C32.4199 9.68 33.2599 12.16 33.0599 14.82C32.6899 19.85 28.8899 23.5 24.0399 23.5H24.0499ZM24.0499 8C22.2699 8 20.6799 8.66 19.5699 9.85C18.4399 11.06 17.8899 12.75 18.0299 14.59C18.3099 18.47 21.2799 20.49 24.0599 20.49C26.8399 20.49 29.7999 18.46 30.0899 14.59C30.2199 12.77 29.6699 11.09 28.5299 9.86C27.4099 8.65 25.8199 7.99 24.0599 7.99L24.0499 8Z" fill="#1F2024"/>
<path d="M39.8499 42.5H7.94993C7.05993 42.5 6.26993 42.14 5.71993 41.47C5.11993 40.75 4.87993 39.78 5.05993 38.79C6.76993 29.31 16.0299 25 23.8999 25C31.7699 25 41.0299 29.32 42.7399 38.79C42.9199 39.78 42.6799 40.75 42.0799 41.47C41.5299 42.13 40.7299 42.5 39.8499 42.5ZM8.00993 39.5H39.7999C39.7999 39.5 39.8099 39.4 39.7999 39.33C38.3999 31.55 30.5799 28 23.9099 28C17.2399 28 9.41993 31.54 8.01993 39.33C8.00993 39.4 8.01993 39.46 8.01993 39.5H8.00993Z" fill="#1F2024"/>
</svg>
