<svg width="48" height="48" viewBox="0 0 48 48" fill="none" xmlns="http://www.w3.org/2000/svg">
<path d="M24 4.5C13.2478 4.5 4.5 13.2478 4.5 24C4.5 34.7522 13.2478 43.5 24 43.5C34.7522 43.5 43.5 34.7522 43.5 24C43.5 13.2478 34.7522 4.5 24 4.5ZM19.2919 15.4519C20.4797 14.1928 22.1513 13.5 24 13.5C25.8487 13.5 27.5053 14.1975 28.6978 15.4631C29.9062 16.7456 30.4941 18.4687 30.3553 20.3212C30.0778 24 27.2278 27 24 27C20.7722 27 17.9166 24 17.6447 20.3203C17.5069 18.4528 18.0937 16.7241 19.2919 15.4519ZM24 40.5C21.7973 40.5015 19.6168 40.0606 17.5876 39.2035C15.5585 38.3465 13.7222 37.0907 12.1875 35.5106C13.0665 34.2572 14.1864 33.1914 15.4819 32.3756C17.8716 30.8437 20.8959 30 24 30C27.1041 30 30.1284 30.8437 32.5153 32.3756C33.8119 33.191 34.9328 34.2568 35.8125 35.5106C34.2779 37.0908 32.4416 38.3468 30.4125 39.2038C28.3833 40.0609 26.2027 40.5017 24 40.5V40.5Z" fill="#1F2024"/>
</svg>
