<svg width="48" height="48" viewBox="0 0 48 48" fill="none" xmlns="http://www.w3.org/2000/svg">
<path d="M23.7 43.695C13.1 43.595 4.39997 34.895 4.29997 24.295C4.24997 18.935 6.29997 13.895 10.06 10.095C13.76 6.35504 18.7 4.29504 23.94 4.29504H24.3C34.9 4.49504 43.6 13.205 43.7 23.695C43.75 29.055 41.7 34.105 37.94 37.895C34.23 41.635 29.3 43.695 24.06 43.695H23.7ZM12.2 35.195L12.36 35.055C13.24 33.845 14.27 32.885 15.4 32.225C17.78 30.645 20.76 29.795 24 29.795C27.04 29.795 30.1 30.655 32.61 32.225C33.59 32.935 34.8 33.895 35.67 35.075L35.69 35.095H35.81C35.8433 35.095 35.9133 35.0684 36.02 35.015C38.77 31.955 40.31 28.065 40.31 24.095C40.31 15.105 33 7.79504 24.01 7.79504C19.62 7.79504 15.48 9.54504 12.37 12.735C9.26997 15.905 7.60997 20.045 7.70997 24.395C7.80997 28.445 9.35997 32.265 12.06 35.165L12.09 35.205H12.21L12.2 35.195Z" fill="#1F2024"/>
<path d="M24.1 27.195C20.71 27.195 17.81 24.175 17.5 20.315C17.29 18.365 17.9 16.515 19.16 15.255C20.4 14.015 22.17 13.295 24 13.295C25.83 13.295 27.57 13.985 28.94 15.245C30.19 16.495 30.82 18.295 30.7 20.305C30.39 24.105 27.43 27.195 24.1 27.195Z" fill="#1F2024"/>
</svg>
