<svg width="48" height="48" viewBox="0 0 48 48" fill="none" xmlns="http://www.w3.org/2000/svg">
<path d="M23.71 43.195C13.38 43.105 4.89999 34.625 4.79999 24.295C4.74999 19.065 6.74999 14.145 10.41 10.445C14.03 6.80504 18.83 4.79504 23.94 4.79504H24.29C34.62 4.99504 43.1 13.475 43.2 23.705C43.25 28.935 41.25 33.855 37.59 37.555C33.98 41.205 29.17 43.205 24.06 43.205H23.71V43.195ZM11.63 35.445C11.68 35.585 11.82 35.695 12 35.695H12.2C12.41 35.695 12.57 35.555 12.61 35.505L12.71 35.405C13.6 34.195 14.57 33.275 15.65 32.655C17.97 31.105 20.85 30.295 24 30.295C26.95 30.295 29.91 31.135 32.34 32.655C33.32 33.365 34.44 34.255 35.26 35.375L35.48 35.595H35.8C35.97 35.595 36.02 35.565 36.23 35.465L36.28 35.435L36.32 35.395C39.21 32.195 40.8 28.185 40.8 24.095C40.8 14.835 33.26 7.29504 24 7.29504C19.47 7.29504 15.21 9.10504 12 12.385C8.79999 15.655 7.09999 19.925 7.19999 24.405C7.29999 28.555 8.87999 32.465 11.63 35.445Z" fill="#1F2024"/>
<path d="M24.1 26.695C20.97 26.695 18.29 23.875 18 20.275C17.81 18.465 18.36 16.765 19.51 15.615C20.66 14.465 22.3 13.805 24 13.805C25.7 13.805 27.32 14.455 28.6 15.625C29.74 16.755 30.31 18.415 30.2 20.285C29.91 23.825 27.18 26.705 24.1 26.705V26.695Z" fill="#1F2024"/>
</svg>
