<svg width="48" height="48" viewBox="0 0 48 48" fill="none" xmlns="http://www.w3.org/2000/svg">
<path d="M24.2356 23.805C19.5856 23.805 15.8356 20.185 15.5156 15.375C15.3456 12.755 16.1756 10.335 17.8356 8.56501C19.4556 6.83501 21.7356 5.88501 24.2356 5.88501C26.7356 5.88501 28.9856 6.84501 30.6156 8.58501C32.2956 10.375 33.1156 12.785 32.9456 15.375C32.6256 20.185 28.8756 23.805 24.2256 23.805H24.2356ZM24.2356 8.87501C22.5656 8.87501 21.0756 9.49501 20.0256 10.615C18.9356 11.775 18.3956 13.395 18.5156 15.175C18.7656 18.865 21.5856 20.805 24.2456 20.805C26.9056 20.805 29.7256 18.875 29.9756 15.175C30.0856 13.425 29.5456 11.805 28.4456 10.635C27.3856 9.50501 25.8956 8.88501 24.2456 8.88501L24.2356 8.87501Z" fill="#1F2024"/>
<path d="M39.3556 42.105H8.63563C7.76563 42.105 6.96563 41.725 6.42563 41.075C5.84563 40.375 5.62563 39.425 5.81563 38.485C7.49563 29.325 16.4356 25.145 24.0456 25.145C31.6556 25.145 40.6156 29.335 42.1856 38.525C42.3756 39.355 42.1456 40.325 41.5756 41.045C41.0356 41.725 40.2256 42.115 39.3656 42.115L39.3556 42.105ZM8.75563 39.105H39.2256V39.025C37.9556 31.545 30.4656 28.135 24.0456 28.135C17.6256 28.135 10.1356 31.545 8.76563 39.035C8.76563 39.055 8.76563 39.075 8.76563 39.095L8.75563 39.105Z" fill="#1F2024"/>
</svg>
