<svg width="48" height="48" viewBox="0 0 48 48" fill="none" xmlns="http://www.w3.org/2000/svg">
<path d="M24.2357 23.805C19.5857 23.805 15.8357 20.185 15.5157 15.375C15.3457 12.755 16.1757 10.335 17.8357 8.56501C19.4557 6.83501 21.7357 5.88501 24.2357 5.88501C26.7357 5.88501 28.9857 6.84501 30.6157 8.58501C32.2957 10.375 33.1157 12.785 32.9457 15.375C32.6257 20.185 28.8757 23.805 24.2257 23.805H24.2357ZM24.2357 8.87501C22.5657 8.87501 21.0757 9.49501 20.0257 10.615C18.9357 11.775 18.3957 13.395 18.5157 15.175C18.7657 18.865 21.5857 20.805 24.2457 20.805C26.9057 20.805 29.7257 18.875 29.9757 15.175C30.0857 13.425 29.5457 11.805 28.4457 10.635C27.3857 9.50501 25.8957 8.88501 24.2457 8.88501L24.2357 8.87501Z" fill="#1F2024"/>
<path d="M39.3557 42.105H8.6357C7.7657 42.105 6.9657 41.725 6.4257 41.075C5.8457 40.375 5.6257 39.425 5.8157 38.485C7.4957 29.325 16.4357 25.145 24.0457 25.145C31.6557 25.145 40.6157 29.335 42.1857 38.525C42.3757 39.355 42.1457 40.325 41.5757 41.045C41.0357 41.725 40.2257 42.115 39.3657 42.115L39.3557 42.105ZM8.7557 39.105H39.2257V39.025C37.9557 31.545 30.4657 28.135 24.0457 28.135C17.6257 28.135 10.1357 31.545 8.7657 39.035C8.7657 39.055 8.7657 39.075 8.7657 39.095L8.7557 39.105Z" fill="#1F2024"/>
</svg>
