<svg width="48" height="48" viewBox="0 0 48 48" fill="none" xmlns="http://www.w3.org/2000/svg">
<path d="M24.24 23.815C28.89 23.815 32.64 20.195 32.96 15.385C33.13 12.795 32.3 10.375 30.63 8.59502C29 6.85502 26.73 5.89502 24.25 5.89502C21.77 5.89502 19.47 6.84502 17.85 8.57502C16.19 10.345 15.36 12.765 15.53 15.385C15.85 20.195 19.6 23.815 24.25 23.815H24.24Z" fill="#1F2024"/>
<path d="M42.18 38.525C40.61 29.335 31.68 25.145 24.04 25.145C16.4 25.145 7.48997 29.325 5.81997 38.485C5.62997 39.435 5.84997 40.375 6.42997 41.075C6.96997 41.735 7.76997 42.105 8.63997 42.105H39.36C40.22 42.105 41.03 41.715 41.57 41.035C42.15 40.315 42.37 39.345 42.18 38.515V38.525Z" fill="#1F2024"/>
</svg>
