<svg width="48" height="48" viewBox="0 0 48 48" fill="none" xmlns="http://www.w3.org/2000/svg">
<path d="M30.7601 8.66C29.1701 6.94 26.9501 6 24.5001 6C22.0501 6 19.8101 6.94 18.2201 8.65C16.6201 10.38 15.8401 12.72 16.0201 15.25C16.3801 20.24 20.1801 23.44 24.4901 23.44C28.8001 23.44 32.5901 20.25 32.9601 15.25C33.1501 12.74 32.3601 10.4 30.7501 8.66H30.7601Z" fill="#1F2024"/>
<path d="M39.23 42H8.77C8.37 42 7.98 41.92 7.61 41.76C7.25 41.6 6.93 41.36 6.67 41.07C6.11 40.42 5.88 39.54 6.05 38.65C6.78 34.75 9.06 31.47 12.64 29.17C15.82 27.13 19.85 26 23.99 26C28.13 26 32.16 27.12 35.34 29.17C38.92 31.47 41.2 34.75 41.93 38.65C42.1 39.54 41.87 40.43 41.31 41.08C41.05 41.38 40.73 41.61 40.37 41.77C40.01 41.93 39.61 42.01 39.21 42.01L39.23 42Z" fill="#1F2024"/>
</svg>
