<svg width="48" height="48" viewBox="0 0 48 48" fill="none" xmlns="http://www.w3.org/2000/svg">
<path d="M24.2378 23.5151C19.7478 23.5151 16.1278 20.0151 15.8178 15.3651C15.6578 12.8251 16.4478 10.4851 18.0578 8.77506C19.6278 7.10506 21.8178 6.18506 24.2378 6.18506C26.6578 6.18506 28.8278 7.11506 30.4078 8.79506C32.0278 10.5251 32.8278 12.8551 32.6578 15.3651C32.3478 20.0151 28.7278 23.5151 24.2378 23.5151ZM24.2378 8.58506C22.4878 8.58506 20.9178 9.23506 19.8078 10.4151C18.6578 11.6351 18.0978 13.3351 18.2178 15.2051C18.4778 19.0851 21.4478 21.1151 24.2478 21.1151C27.0478 21.1151 30.0178 19.0451 30.2778 15.2051C30.3978 13.3651 29.8278 11.6751 28.6678 10.4351C27.5478 9.24506 25.9878 8.58506 24.2578 8.58506H24.2378Z" fill="#1F2024"/>
<path d="M39.3578 41.8151H8.63781C7.84781 41.8151 7.14781 41.4851 6.65781 40.8951C6.13781 40.2651 5.93781 39.4051 6.11781 38.5551C7.76781 29.5651 16.5678 25.4551 24.0478 25.4551C31.5278 25.4551 40.3478 29.5651 41.8878 38.5851C42.0578 39.3451 41.8578 40.2151 41.3378 40.8651C40.8478 41.4751 40.1278 41.8151 39.3578 41.8151ZM24.0478 27.8551C17.5278 27.8551 9.86781 31.3451 8.46781 39.0051C8.42781 39.1951 8.46781 39.3251 8.50781 39.3751C8.51781 39.3951 8.54781 39.4151 8.62781 39.4151H39.3478C39.3478 39.4151 39.4178 39.4151 39.4578 39.3551C39.5178 39.2751 39.5478 39.1451 39.5278 39.0451C38.2078 31.3351 30.5778 27.8551 24.0378 27.8551H24.0478Z" fill="#1F2024"/>
</svg>
