<svg width="48" height="48" viewBox="0 0 48 48" fill="none" xmlns="http://www.w3.org/2000/svg">
<path d="M24.2717 4.49998C13.3049 4.35186 4.35173 13.305 4.49986 24.2719C4.64611 34.7897 13.2102 43.3537 23.728 43.5C34.6967 43.65 43.648 34.6969 43.498 23.73C43.3536 13.2103 34.7895 4.64623 24.2717 4.49998ZM36.1236 35.1797C36.0863 35.2201 36.0405 35.2517 35.9895 35.2724C35.9386 35.2932 35.8837 35.3024 35.8288 35.2996C35.7738 35.2967 35.7202 35.2818 35.6717 35.2559C35.6232 35.23 35.5809 35.1937 35.548 35.1497C34.7094 34.0526 33.6825 33.1132 32.5152 32.3756C30.1283 30.8437 27.1039 30 23.9999 30C20.8958 30 17.8714 30.8437 15.4845 32.3756C14.3172 33.1129 13.2903 34.0519 12.4517 35.1487C12.4188 35.1928 12.3766 35.229 12.328 35.2549C12.2795 35.2808 12.2259 35.2958 12.171 35.2986C12.116 35.3015 12.0611 35.2922 12.0102 35.2715C11.9592 35.2508 11.9135 35.2191 11.8761 35.1787C9.12518 32.2091 7.56689 28.3287 7.49986 24.2812C7.34705 15.1584 14.833 7.52248 23.9595 7.49998C33.0861 7.47748 40.4999 14.8884 40.4999 24C40.503 28.1451 38.9399 32.1382 36.1236 35.1797Z" fill="#1F2024"/>
<path d="M23.9999 13.5C22.1512 13.5 20.4796 14.1928 19.2918 15.4519C18.104 16.7109 17.5105 18.4519 17.6446 20.3203C17.9165 24 20.7674 27 23.9999 27C27.2324 27 30.0777 24 30.3552 20.3212C30.494 18.4706 29.9052 16.7456 28.6977 15.4631C27.5052 14.1975 25.8365 13.5 23.9999 13.5Z" fill="#1F2024"/>
</svg>
