<svg width="48" height="48" viewBox="0 0 48 48" fill="none" xmlns="http://www.w3.org/2000/svg">
<path d="M24.2377 23.5151C19.7477 23.5151 16.1277 20.0151 15.8177 15.3651C15.6577 12.8251 16.4477 10.4851 18.0577 8.77506C19.6277 7.10506 21.8177 6.18506 24.2377 6.18506C26.6577 6.18506 28.8277 7.11506 30.4077 8.79506C32.0277 10.5251 32.8277 12.8551 32.6577 15.3651C32.3477 20.0151 28.7277 23.5151 24.2377 23.5151ZM24.2377 8.58506C22.4877 8.58506 20.9177 9.23506 19.8077 10.4151C18.6577 11.6351 18.0977 13.3351 18.2177 15.2051C18.4777 19.0851 21.4477 21.1151 24.2477 21.1151C27.0477 21.1151 30.0177 19.0451 30.2777 15.2051C30.3977 13.3651 29.8277 11.6751 28.6677 10.4351C27.5477 9.24506 25.9877 8.58506 24.2577 8.58506H24.2377Z" fill="#1F2024"/>
<path d="M39.3577 41.8151H8.63775C7.84775 41.8151 7.14775 41.4851 6.65775 40.8951C6.13775 40.2651 5.93775 39.4051 6.11775 38.5551C7.76775 29.5651 16.5677 25.4551 24.0477 25.4551C31.5277 25.4551 40.3477 29.5651 41.8877 38.5851C42.0577 39.3451 41.8577 40.2151 41.3377 40.8651C40.8477 41.4751 40.1277 41.8151 39.3577 41.8151ZM24.0477 27.8551C17.5277 27.8551 9.86775 31.3451 8.46775 39.0051C8.42775 39.1951 8.46775 39.3251 8.50775 39.3751C8.51775 39.3951 8.54775 39.4151 8.62775 39.4151H39.3477C39.3477 39.4151 39.4177 39.4151 39.4577 39.3551C39.5177 39.2751 39.5477 39.1451 39.5277 39.0451C38.2077 31.3351 30.5777 27.8551 24.0377 27.8551H24.0477Z" fill="#1F2024"/>
</svg>
