<svg width="48" height="48" viewBox="0 0 48 48" fill="none" xmlns="http://www.w3.org/2000/svg">
<path d="M23.6997 43.695C13.0997 43.595 4.39972 34.895 4.29972 24.295C4.24972 18.935 6.29972 13.895 10.0597 10.095C13.7597 6.35504 18.6997 4.29504 23.9397 4.29504H24.2997C34.8997 4.49504 43.5997 13.205 43.6997 23.695C43.7497 29.055 41.6997 34.105 37.9397 37.895C34.2297 41.635 29.2997 43.695 24.0597 43.695H23.6997ZM12.1997 35.195L12.3597 35.055C13.2397 33.845 14.2697 32.885 15.3997 32.225C17.7797 30.645 20.7597 29.795 23.9997 29.795C27.0397 29.795 30.0997 30.655 32.6097 32.225C33.5897 32.935 34.7997 33.895 35.6697 35.075L35.6897 35.095H35.8097C35.8431 35.095 35.9131 35.0684 36.0197 35.015C38.7697 31.955 40.3097 28.065 40.3097 24.095C40.3097 15.105 32.9997 7.79504 24.0097 7.79504C19.6197 7.79504 15.4797 9.54504 12.3697 12.735C9.26972 15.905 7.60972 20.045 7.70972 24.395C7.80972 28.445 9.35972 32.265 12.0597 35.165L12.0897 35.205H12.2097L12.1997 35.195Z" fill="#1F2024"/>
<path d="M24.0997 27.195C20.7097 27.195 17.8097 24.175 17.4997 20.315C17.2897 18.365 17.8997 16.515 19.1597 15.255C20.3997 14.015 22.1697 13.295 23.9997 13.295C25.8297 13.295 27.5697 13.985 28.9397 15.245C30.1897 16.495 30.8197 18.295 30.6997 20.305C30.3897 24.105 27.4297 27.195 24.0997 27.195Z" fill="#1F2024"/>
</svg>
