<svg width="48" height="48" viewBox="0 0 48 48" fill="none" xmlns="http://www.w3.org/2000/svg">
<path d="M24.2401 24.0101C19.4801 24.0101 15.6501 20.3101 15.3201 15.3901C15.1501 12.7101 15.9901 10.2401 17.6901 8.43005C19.3501 6.66005 21.6801 5.68005 24.2401 5.68005C26.8001 5.68005 29.1001 6.66005 30.7701 8.45005C32.4801 10.2801 33.3301 12.7401 33.1601 15.3901C32.8301 20.3101 29.0001 24.0101 24.2401 24.0101ZM24.2401 9.08005C22.6301 9.08005 21.1901 9.67005 20.1701 10.7501C19.1201 11.8701 18.6001 13.4401 18.7101 15.1701C18.9501 18.7401 21.6701 20.6101 24.2401 20.6101C26.8101 20.6101 29.5301 18.7401 29.7701 15.1701C29.8801 13.4701 29.3601 11.9101 28.2901 10.7701C27.2701 9.68005 25.8301 9.08005 24.2401 9.08005Z" fill="#1F2024"/>
<path d="M39.3601 42.3101H8.64005C7.71005 42.3101 6.85005 41.9101 6.27005 41.2101C5.66005 40.4601 5.42005 39.4601 5.62005 38.4501C7.31005 29.1801 16.3601 24.9501 24.0401 24.9501C31.7201 24.9501 40.7901 29.1901 42.3801 38.5001C42.5801 39.3801 42.3401 40.4101 41.7301 41.1801C41.1501 41.9101 40.2801 42.3201 39.3601 42.3201V42.3101ZM39.0501 39.1301C39.0501 39.1301 39.0501 39.1401 39.0501 39.1501C39.0501 39.1501 39.0501 39.1401 39.0501 39.1301ZM9.00005 38.9101H39.0101C37.6201 31.6301 30.3201 28.3501 24.0501 28.3501C17.7801 28.3501 10.4301 31.6601 9.00005 38.9101Z" fill="#1F2024"/>
</svg>
