<svg width="48" height="48" viewBox="0 0 48 48" fill="none" xmlns="http://www.w3.org/2000/svg">
<path d="M23.875 23.9C28.475 23.9 32.275 20.3 32.575 15.5C32.775 12.9 31.875 10.5 30.275 8.7C28.675 7 26.375 6 23.875 6C21.375 6 19.075 7 17.475 8.7C15.775 10.5 14.975 12.9 15.175 15.5C15.475 20.3 19.275 23.9 23.875 23.9ZM19.275 10.3C20.475 9.1 22.075 8.4 23.875 8.4C25.675 8.4 27.275 9.1 28.475 10.3C29.675 11.6 30.275 13.4 30.175 15.3C29.875 19.3 26.775 21.5 23.875 21.5C20.975 21.5 17.875 19.3 17.575 15.3C17.475 13.4 18.075 11.6 19.275 10.3Z" fill="#1F2024"/>
<path d="M7.675 42.9H39.575C40.375 42.9 41.075 42.5 41.575 41.9C42.075 41.2 42.275 40.3 42.175 39.6C40.575 30.3 31.475 26 23.675 26C15.875 26 6.775 30.3 5.075 39.6C4.875 40.5 5.075 41.4 5.675 42C6.175 42.6 6.875 42.9 7.675 42.9ZM7.475 40C8.875 32 16.875 28.4 23.675 28.4C30.475 28.4 38.475 32 39.775 40.1C39.775 40.2 39.775 40.4 39.675 40.5L39.575 40.6H7.675C7.60833 40.6 7.54167 40.5667 7.475 40.5C7.475 40.4 7.375 40.2 7.475 40Z" fill="#1F2024"/>
</svg>
