<svg width="48" height="48" viewBox="0 0 48 48" fill="none" xmlns="http://www.w3.org/2000/svg">
<path d="M35.9055 43.6719C34.1755 43.6719 31.7455 43.0619 28.0955 41.0419C23.0955 38.3219 19.9255 35.9719 16.0155 32.0619C11.9555 28.1019 9.91549 25.4119 6.93549 20.0919C3.90549 14.6619 4.12549 11.4519 4.85549 9.70189C5.50549 8.28189 6.49549 7.22189 8.20549 6.12189C8.99549 5.55189 9.80549 5.11189 10.6855 4.78189C12.0155 4.20189 13.8055 3.82189 15.9355 5.95189C17.5555 7.57189 19.6755 11.1419 20.4555 12.6919C21.6155 15.1319 20.8755 16.3219 19.8555 17.5219C19.6655 17.7419 19.4555 18.0019 19.2355 18.3119C19.0655 18.5419 18.9255 18.7319 18.7855 18.9019C18.1455 19.7319 18.1355 19.8219 18.1855 20.0619C18.3955 20.9519 19.7555 23.5619 22.1055 25.8219C24.4755 28.2919 27.0155 29.5119 27.8155 29.6919C28.0555 29.7519 28.1455 29.7319 28.9755 29.0919C29.1555 28.9519 29.3355 28.8119 29.5355 28.6719C29.8155 28.4619 30.0655 28.2419 30.2855 28.0419C31.5155 26.9419 32.7455 26.1319 35.2255 27.4419C36.7455 28.2019 40.3155 30.3219 41.9355 31.9419L41.9755 31.9819C43.8255 33.9619 43.6555 35.5819 43.5455 36.6519L43.5055 37.0319L43.4255 37.2419C43.0955 38.1319 42.6455 38.9519 42.0155 39.8319C41.0555 41.3319 40.1055 42.4419 38.4855 43.1119C37.8355 43.4119 37.0255 43.6619 35.9155 43.6619L35.9055 43.6719ZM12.5655 7.74189C12.3955 7.74189 12.2355 7.81189 12.0155 7.91189L11.9255 7.95189C11.3255 8.18189 10.7455 8.49189 10.1155 8.94189C8.72549 9.84189 8.26549 10.4319 7.97549 11.0619C7.77549 11.5519 7.24549 13.6719 9.91549 18.4319C12.7455 23.4819 14.5755 25.8919 18.4155 29.6419C22.1355 33.3619 24.9855 35.4819 29.7355 38.0619C33.2255 39.9919 35.7155 40.6519 37.1155 40.0119C37.9055 39.6819 38.3755 39.2019 39.1855 37.9419C39.6255 37.3219 39.9255 36.7919 40.1455 36.2519C40.2255 35.4919 40.2455 35.1519 39.4855 34.3419C38.3055 33.1719 35.2555 31.2819 33.6455 30.4819C33.2755 30.2919 33.0755 30.2219 32.9855 30.2019C32.8655 30.2819 32.6655 30.4619 32.5155 30.6019C32.2355 30.8519 31.9155 31.1319 31.5255 31.4219C31.3355 31.5619 31.1855 31.6819 31.0355 31.8019C30.1355 32.5019 28.9055 33.4519 27.0255 33.0219C25.2655 32.6119 22.1755 30.8419 19.6855 28.2419C17.0955 25.7619 15.2555 22.5619 14.8555 20.8419C14.4255 18.9719 15.3755 17.7419 16.0755 16.8419C16.1955 16.6919 16.3155 16.5319 16.4355 16.3619C16.6955 15.9819 16.9855 15.6419 17.2355 15.3419C17.3855 15.1719 17.5855 14.9319 17.6355 14.8319C17.6255 14.8319 17.5955 14.6319 17.3755 14.1919C16.5655 12.5719 14.6855 9.54189 13.5055 8.36189C13.0455 7.90189 12.7955 7.74189 12.5455 7.74189H12.5655Z" fill="#1F2024"/>
</svg>
