<svg width="48" height="48" viewBox="0 0 48 48" fill="none" xmlns="http://www.w3.org/2000/svg">
<path d="M41.645 32.3111L41.615 32.2811C40.025 30.6911 36.515 28.6111 35.015 27.8611C32.785 26.6911 31.725 27.3811 30.575 28.4011C30.345 28.6011 30.095 28.8311 29.795 29.0511C29.605 29.1911 29.425 29.3311 29.245 29.4611C28.405 30.1111 28.165 30.2411 27.705 30.1411C26.825 29.9411 24.235 28.7111 21.785 26.1611C19.365 23.8311 17.955 21.1211 17.735 20.1811C17.625 19.7211 17.765 19.4811 18.415 18.6411C18.545 18.4711 18.685 18.2911 18.845 18.0711C19.075 17.7411 19.295 17.4811 19.495 17.2411C20.435 16.1211 21.075 15.0911 20.035 12.9011C19.275 11.3711 17.185 7.86106 15.605 6.28105C13.665 4.33105 12.095 4.65105 10.885 5.19105C10.035 5.51105 9.24503 5.94105 8.44503 6.51105C6.79503 7.57105 5.88503 8.54105 5.27503 9.88105C4.58503 11.5311 4.38503 14.6011 7.33503 19.8711C10.295 25.1511 12.315 27.8111 16.345 31.7411C20.225 35.6211 23.365 37.9511 28.325 40.6511C31.895 42.6211 34.245 43.2211 35.905 43.2211C36.945 43.2211 37.705 42.9911 38.315 42.7111C39.835 42.0811 40.695 41.0711 41.655 39.5811C42.255 38.7311 42.685 37.9411 43.005 37.0911L43.095 36.6111C43.205 35.5611 43.355 34.1311 41.645 32.3011V32.3111Z" fill="#1F2024"/>
</svg>
