<svg width="48" height="48" viewBox="0 0 48 48" fill="none" xmlns="http://www.w3.org/2000/svg">
<path d="M41.6449 32.3112L41.6149 32.2812C40.0249 30.6912 36.5149 28.6112 35.0149 27.8612C32.7849 26.6912 31.7249 27.3812 30.5749 28.4012C30.3449 28.6012 30.0949 28.8312 29.7949 29.0512C29.6049 29.1912 29.4249 29.3312 29.2449 29.4612C28.4049 30.1112 28.1649 30.2412 27.7049 30.1412C26.8249 29.9412 24.2349 28.7112 21.7849 26.1612C19.3649 23.8312 17.9549 21.1212 17.7349 20.1812C17.6249 19.7212 17.7649 19.4812 18.4149 18.6412C18.5449 18.4712 18.6849 18.2912 18.8449 18.0712C19.0749 17.7412 19.2949 17.4812 19.4949 17.2412C20.4349 16.1212 21.0749 15.0912 20.0349 12.9012C19.2749 11.3712 17.1849 7.86118 15.6049 6.28118C13.6649 4.33118 12.0949 4.65118 10.8849 5.19118C10.0349 5.51118 9.24485 5.94118 8.44485 6.51118C6.79485 7.57118 5.88485 8.54118 5.27485 9.88118C4.58485 11.5312 4.38485 14.6012 7.33485 19.8712C10.2949 25.1512 12.3149 27.8112 16.3449 31.7412C20.2249 35.6212 23.3649 37.9512 28.3249 40.6512C31.8949 42.6212 34.2449 43.2212 35.9049 43.2212C36.9448 43.2212 37.7049 42.9912 38.3149 42.7112C39.8349 42.0812 40.6949 41.0712 41.6549 39.5812C42.2549 38.7312 42.6849 37.9412 43.0049 37.0912L43.0949 36.6112C43.2049 35.5612 43.3549 34.1312 41.6449 32.3012V32.3112Z" fill="#1F2024"/>
</svg>
