<svg width="48" height="48" viewBox="0 0 48 48" fill="none" xmlns="http://www.w3.org/2000/svg">
<path d="M35.9054 43.672C34.1754 43.672 31.7454 43.062 28.0954 41.042C23.0954 38.322 19.9254 35.972 16.0154 32.062C11.9554 28.102 9.91537 25.412 6.93537 20.092C3.90537 14.662 4.12537 11.452 4.85537 9.70195C5.50537 8.28195 6.49537 7.22195 8.20537 6.12195C8.99537 5.55195 9.80537 5.11195 10.6854 4.78195C12.0154 4.20195 13.8054 3.82195 15.9354 5.95195C17.5554 7.57195 19.6754 11.142 20.4554 12.692C21.6154 15.132 20.8754 16.322 19.8554 17.522C19.6654 17.742 19.4554 18.002 19.2354 18.312C19.0654 18.542 18.9254 18.732 18.7854 18.902C18.1454 19.732 18.1354 19.822 18.1854 20.062C18.3954 20.952 19.7554 23.562 22.1054 25.822C24.4754 28.292 27.0154 29.512 27.8154 29.692C28.0554 29.752 28.1454 29.732 28.9754 29.092C29.1554 28.952 29.3354 28.812 29.5354 28.672C29.8154 28.462 30.0654 28.242 30.2854 28.042C31.5154 26.942 32.7454 26.132 35.2254 27.442C36.7454 28.202 40.3154 30.322 41.9354 31.942L41.9754 31.982C43.8254 33.962 43.6554 35.582 43.5454 36.652L43.5054 37.032L43.4254 37.242C43.0954 38.132 42.6454 38.952 42.0154 39.832C41.0554 41.332 40.1054 42.442 38.4854 43.112C37.8354 43.412 37.0254 43.662 35.9154 43.662L35.9054 43.672ZM12.5654 7.74195C12.3954 7.74195 12.2354 7.81195 12.0154 7.91195L11.9254 7.95195C11.3254 8.18195 10.7454 8.49196 10.1154 8.94196C8.72537 9.84196 8.26537 10.432 7.97537 11.062C7.77537 11.552 7.24537 13.672 9.91537 18.432C12.7454 23.482 14.5754 25.892 18.4154 29.642C22.1354 33.362 24.9854 35.482 29.7354 38.062C33.2254 39.992 35.7154 40.652 37.1154 40.012C37.9054 39.682 38.3754 39.202 39.1854 37.942C39.6254 37.322 39.9254 36.792 40.1454 36.252C40.2254 35.492 40.2454 35.152 39.4854 34.342C38.3054 33.172 35.2554 31.282 33.6454 30.482C33.2754 30.292 33.0754 30.222 32.9854 30.202C32.8654 30.282 32.6654 30.462 32.5154 30.602C32.2354 30.852 31.9154 31.132 31.5254 31.422C31.3354 31.562 31.1854 31.682 31.0354 31.802C30.1354 32.502 28.9054 33.452 27.0254 33.022C25.2654 32.612 22.1754 30.842 19.6854 28.242C17.0954 25.762 15.2554 22.562 14.8554 20.842C14.4254 18.972 15.3754 17.742 16.0754 16.842C16.1954 16.692 16.3154 16.532 16.4354 16.362C16.6954 15.982 16.9854 15.642 17.2354 15.342C17.3854 15.172 17.5854 14.932 17.6354 14.832C17.6254 14.832 17.5954 14.632 17.3754 14.192C16.5654 12.572 14.6854 9.54196 13.5054 8.36196C13.0454 7.90196 12.7954 7.74195 12.5454 7.74195H12.5654Z" fill="#1F2024"/>
</svg>
