<svg width="48" height="48" viewBox="0 0 48 48" fill="none" xmlns="http://www.w3.org/2000/svg">
<path d="M35.9054 43.6719C34.1754 43.6719 31.7454 43.0619 28.0954 41.0419C23.0954 38.3219 19.9254 35.9719 16.0154 32.0619C11.9554 28.1019 9.91537 25.4119 6.93537 20.0919C3.90537 14.6619 4.12537 11.4519 4.85537 9.70189C5.50537 8.28189 6.49537 7.22189 8.20537 6.12189C8.99537 5.55189 9.80537 5.11189 10.6854 4.78189C12.0154 4.20189 13.8054 3.82189 15.9354 5.95189C17.5554 7.57189 19.6754 11.1419 20.4554 12.6919C21.6154 15.1319 20.8754 16.3219 19.8554 17.5219C19.6654 17.7419 19.4554 18.0019 19.2354 18.3119C19.0654 18.5419 18.9254 18.7319 18.7854 18.9019C18.1454 19.7319 18.1354 19.8219 18.1854 20.0619C18.3954 20.9519 19.7554 23.5619 22.1054 25.8219C24.4754 28.2919 27.0154 29.5119 27.8154 29.6919C28.0554 29.7519 28.1454 29.7319 28.9754 29.0919C29.1554 28.9519 29.3354 28.8119 29.5354 28.6719C29.8154 28.4619 30.0654 28.2419 30.2854 28.0419C31.5154 26.9419 32.7454 26.1319 35.2254 27.4419C36.7454 28.2019 40.3154 30.3219 41.9354 31.9419L41.9754 31.9819C43.8254 33.9619 43.6554 35.5819 43.5454 36.6519L43.5054 37.0319L43.4254 37.2419C43.0954 38.1319 42.6454 38.9519 42.0154 39.8319C41.0554 41.3319 40.1054 42.4419 38.4854 43.1119C37.8354 43.4119 37.0254 43.6619 35.9154 43.6619L35.9054 43.6719ZM12.5654 7.74189C12.3954 7.74189 12.2354 7.81189 12.0154 7.91189L11.9254 7.95189C11.3254 8.18189 10.7454 8.49189 10.1154 8.94189C8.72537 9.84189 8.26537 10.4319 7.97537 11.0619C7.77537 11.5519 7.24537 13.6719 9.91537 18.4319C12.7454 23.4819 14.5754 25.8919 18.4154 29.6419C22.1354 33.3619 24.9854 35.4819 29.7354 38.0619C33.2254 39.9919 35.7154 40.6519 37.1154 40.0119C37.9054 39.6819 38.3754 39.2019 39.1854 37.9419C39.6254 37.3219 39.9254 36.7919 40.1454 36.2519C40.2254 35.4919 40.2454 35.1519 39.4854 34.3419C38.3054 33.1719 35.2554 31.2819 33.6454 30.4819C33.2754 30.2919 33.0754 30.2219 32.9854 30.2019C32.8654 30.2819 32.6654 30.4619 32.5154 30.6019C32.2354 30.8519 31.9154 31.1319 31.5254 31.4219C31.3354 31.5619 31.1854 31.6819 31.0354 31.8019C30.1354 32.5019 28.9054 33.4519 27.0254 33.0219C25.2654 32.6119 22.1754 30.8419 19.6854 28.2419C17.0954 25.7619 15.2554 22.5619 14.8554 20.8419C14.4254 18.9719 15.3754 17.7419 16.0754 16.8419C16.1954 16.6919 16.3154 16.5319 16.4354 16.3619C16.6954 15.9819 16.9854 15.6419 17.2354 15.3419C17.3854 15.1719 17.5854 14.9319 17.6354 14.8319C17.6254 14.8319 17.5954 14.6319 17.3754 14.1919C16.5654 12.5719 14.6854 9.54189 13.5054 8.36189C13.0454 7.90189 12.7954 7.74189 12.5454 7.74189H12.5654Z" fill="#1F2024"/>
</svg>
