<svg width="48" height="48" viewBox="0 0 48 48" fill="none" xmlns="http://www.w3.org/2000/svg">
<path d="M35.91 43.1678C34.26 43.1678 31.92 42.5778 28.36 40.5978C23.4 37.9078 20.27 35.5778 16.39 31.6978C12.37 27.7678 10.34 25.1078 7.39003 19.8378C4.44003 14.5878 4.64003 11.5278 5.33003 9.88782C5.93003 8.55782 6.84003 7.59782 8.49003 6.53782C9.28003 5.96782 10.07 5.53782 10.92 5.22782C12.12 4.69782 13.67 4.37782 15.59 6.30782C17.17 7.88782 19.25 11.3878 20.01 12.9178C21.04 15.0878 20.44 16.0578 19.48 17.2078C19.28 17.4378 19.06 17.7078 18.83 18.0378C18.67 18.2578 18.53 18.4378 18.4 18.6078C17.74 19.4578 17.6 19.7078 17.71 20.1878C17.93 21.1278 19.34 23.8578 21.77 26.1878C24.23 28.7478 26.83 29.9778 27.71 30.1878C28.19 30.2978 28.44 30.1578 29.29 29.4978C29.46 29.3678 29.64 29.2278 29.83 29.0878C30.13 28.8578 30.39 28.6278 30.61 28.4278C31.78 27.3878 32.78 26.7378 34.99 27.8878C36.49 28.6378 40 30.7178 41.58 32.3078L41.61 32.3378C43.3 34.1478 43.15 35.5778 43.04 36.6078L42.95 37.0778C42.63 37.9278 42.2 38.7078 41.6 39.5578C40.65 41.0378 39.79 42.0378 38.29 42.6678C37.69 42.9478 36.93 43.1778 35.9 43.1778L35.91 43.1678ZM12.57 7.22782C12.32 7.22782 12.09 7.32782 11.82 7.44782C11.11 7.71782 10.49 8.04782 9.83003 8.52782C8.54003 9.35782 7.91003 9.99782 7.53003 10.8478C7.23003 11.5678 6.79003 13.8478 9.48003 18.6678C12.34 23.7678 14.18 26.1978 18.07 29.9978C21.78 33.7078 24.76 35.9278 29.51 38.4978C34.99 41.5278 36.76 40.7278 37.34 40.4578C38.22 40.0878 38.75 39.5678 39.63 38.1978C40.1 37.5378 40.43 36.9578 40.66 36.3678C40.75 35.5078 40.8 34.9878 39.87 33.9878C38.64 32.7678 35.57 30.8678 33.9 30.0278C33.28 29.7012 32.7167 29.7645 32.21 30.2178C31.94 30.4578 31.63 30.7278 31.26 31.0178C31.07 31.1478 30.91 31.2778 30.76 31.3978C29.85 32.1078 28.81 32.9078 27.17 32.5278C25.48 32.1378 22.5 30.4178 20.07 27.8878C17.54 25.4578 15.75 22.3778 15.37 20.7278C14.99 19.0878 15.79 18.0578 16.5 17.1378C16.62 16.9778 16.75 16.8178 16.87 16.6478C17.13 16.2678 17.4 15.9378 17.64 15.6578C18.0734 15.1445 18.1434 14.5812 17.85 13.9678C17.02 12.3078 15.1 9.21782 13.89 7.99782C13.3 7.40782 12.92 7.22782 12.58 7.22782H12.57Z" fill="#1F2024"/>
</svg>
