<svg width="48" height="48" viewBox="0 0 48 48" fill="none" xmlns="http://www.w3.org/2000/svg">
<path d="M41.6451 32.3111L41.6151 32.2811C40.0251 30.6911 36.5151 28.6111 35.0151 27.8611C32.7851 26.6911 31.7251 27.3811 30.5751 28.4011C30.3451 28.6011 30.0951 28.8311 29.7951 29.0511C29.6051 29.1911 29.4251 29.3311 29.2451 29.4611C28.4051 30.1111 28.1651 30.2411 27.7051 30.1411C26.8251 29.9411 24.2351 28.7111 21.7851 26.1611C19.3651 23.8311 17.9551 21.1211 17.7351 20.1811C17.6251 19.7211 17.7651 19.4811 18.4151 18.6411C18.5451 18.4711 18.6851 18.2911 18.8451 18.0711C19.0751 17.7411 19.2951 17.4811 19.4951 17.2411C20.4351 16.1211 21.0751 15.0911 20.0351 12.9011C19.2751 11.3711 17.1851 7.86106 15.6051 6.28105C13.6651 4.33105 12.0951 4.65105 10.8851 5.19105C10.0351 5.51105 9.24509 5.94105 8.44509 6.51105C6.79509 7.57105 5.88509 8.54105 5.27509 9.88105C4.58509 11.5311 4.38509 14.6011 7.33509 19.8711C10.2951 25.1511 12.3151 27.8111 16.3451 31.7411C20.2251 35.6211 23.3651 37.9511 28.3251 40.6511C31.8951 42.6211 34.2451 43.2211 35.9051 43.2211C36.9451 43.2211 37.7051 42.9911 38.3151 42.7111C39.8351 42.0811 40.6951 41.0711 41.6551 39.5811C42.2551 38.7311 42.6851 37.9411 43.0051 37.0911L43.0951 36.6111C43.2051 35.5611 43.3551 34.1311 41.6451 32.3011V32.3111Z" fill="#1F2024"/>
</svg>
