<svg width="48" height="48" viewBox="0 0 48 48" fill="none" xmlns="http://www.w3.org/2000/svg">
<path d="M35.8934 43.4763C34.2034 43.4763 31.7934 42.8663 28.1834 40.8763C23.2034 38.1663 20.0434 35.8263 16.1534 31.9263C12.1034 27.9763 10.0734 25.2963 7.1034 19.9963C4.1034 14.6263 4.3234 11.4763 5.0334 9.77627C5.6634 8.39627 6.6334 7.36627 8.3034 6.28627C9.1034 5.70627 9.9134 5.27627 10.7934 4.94627C11.9834 4.41627 13.7134 4.02627 15.7834 6.08627C17.3834 7.68627 19.4934 11.2363 20.2634 12.7763C21.3734 15.1063 20.6634 16.2363 19.6934 17.3863C19.5034 17.6163 19.2834 17.8663 19.0634 18.1963C18.9034 18.4263 18.7534 18.6063 18.6234 18.7763C17.9834 19.5963 17.9134 19.7563 17.9934 20.1063C18.2034 21.0163 19.5834 23.6763 21.9734 25.9663C24.1634 28.2463 26.7234 29.6463 27.7734 29.8863C28.1234 29.9663 28.2834 29.8863 29.1034 29.2563C29.2834 29.1163 29.4634 28.9763 29.6534 28.8363C29.9434 28.6163 30.1934 28.3963 30.4134 28.1963C31.5934 27.1463 32.7634 26.3763 35.1334 27.6163C36.6534 28.3763 40.1934 30.4763 41.8034 32.0863L41.8434 32.1263C43.6334 34.0463 43.4634 35.6063 43.3534 36.6363L43.2534 37.1763C42.9234 38.0463 42.4834 38.8563 41.8734 39.7263C40.9034 41.2363 40.0034 42.2763 38.4334 42.9363C37.8034 43.2263 37.0134 43.4663 35.9334 43.4663L35.8934 43.4763ZM12.5534 7.53627C12.3534 7.53627 12.1634 7.61627 11.9234 7.72627C11.2134 7.99627 10.6334 8.31627 9.9834 8.77627C8.7434 9.57627 8.1334 10.1863 7.7734 10.9763C7.5634 11.4963 7.0134 13.6863 9.7134 18.5263C12.5534 23.5963 14.3834 26.0163 18.2534 29.7863C21.9434 33.4663 24.9134 35.6763 29.6234 38.2363C34.9734 41.1963 36.6434 40.4363 37.1834 40.1863C38.0134 39.8363 38.5034 39.3463 39.3434 38.0363C39.8034 37.3963 40.1034 36.8463 40.3334 36.2863C40.4134 35.4863 40.4534 35.0763 39.6234 34.1863C38.4134 32.9863 35.3834 31.1163 33.7334 30.2863C33.1234 29.9663 32.9134 29.9863 32.9234 29.9663C32.8534 29.9963 32.5834 30.2463 32.3734 30.4263C32.0934 30.6763 31.7834 30.9463 31.4034 31.2363C31.2134 31.3763 31.0634 31.4963 30.9034 31.6163C29.9834 32.3263 28.8434 33.2163 27.0634 32.8063C25.3334 32.4063 22.2834 30.6563 19.8134 28.0863C17.2434 25.6263 15.4234 22.4763 15.0334 20.7863C14.6234 19.0063 15.5034 17.8663 16.2134 16.9463C16.3334 16.7963 16.4534 16.6363 16.5734 16.4663C16.8334 16.0863 17.1134 15.7463 17.3634 15.4563C17.5334 15.2563 17.7734 14.9763 17.8034 14.8763C17.8034 14.8763 17.8134 14.6863 17.5334 14.0863C16.7134 12.4463 14.8234 9.39627 13.6234 8.20627C13.1134 7.69627 12.8034 7.52627 12.5234 7.52627L12.5534 7.53627Z" fill="#1F2024"/>
</svg>
