<svg width="48" height="48" viewBox="0 0 48 48" fill="none" xmlns="http://www.w3.org/2000/svg">
<path d="M35.8932 43.4763C34.2031 43.4763 31.7932 42.8663 28.1832 40.8763C23.2032 38.1663 20.0432 35.8263 16.1532 31.9263C12.1032 27.9763 10.0732 25.2963 7.10315 19.9963C4.10315 14.6263 4.32315 11.4763 5.03315 9.77627C5.66315 8.39627 6.63315 7.36627 8.30315 6.28627C9.10315 5.70627 9.91315 5.27627 10.7932 4.94627C11.9832 4.41627 13.7132 4.02627 15.7832 6.08627C17.3832 7.68627 19.4932 11.2363 20.2632 12.7763C21.3732 15.1063 20.6632 16.2363 19.6932 17.3863C19.5032 17.6163 19.2832 17.8663 19.0632 18.1963C18.9032 18.4263 18.7532 18.6063 18.6232 18.7763C17.9832 19.5963 17.9132 19.7563 17.9932 20.1063C18.2032 21.0163 19.5831 23.6763 21.9732 25.9663C24.1632 28.2463 26.7232 29.6463 27.7732 29.8863C28.1232 29.9663 28.2832 29.8863 29.1032 29.2563C29.2832 29.1163 29.4632 28.9763 29.6532 28.8363C29.9432 28.6163 30.1932 28.3963 30.4132 28.1963C31.5932 27.1463 32.7631 26.3763 35.1332 27.6163C36.6531 28.3763 40.1932 30.4763 41.8032 32.0863L41.8432 32.1263C43.6332 34.0463 43.4632 35.6063 43.3532 36.6363L43.2532 37.1763C42.9231 38.0463 42.4832 38.8563 41.8732 39.7263C40.9032 41.2363 40.0032 42.2763 38.4332 42.9363C37.8032 43.2263 37.0132 43.4663 35.9332 43.4663L35.8932 43.4763ZM12.5532 7.53627C12.3532 7.53627 12.1632 7.61627 11.9232 7.72627C11.2132 7.99627 10.6332 8.31627 9.98315 8.77627C8.74315 9.57627 8.13315 10.1863 7.77315 10.9763C7.56315 11.4963 7.01315 13.6863 9.71315 18.5263C12.5532 23.5963 14.3832 26.0163 18.2532 29.7863C21.9432 33.4663 24.9132 35.6763 29.6232 38.2363C34.9732 41.1963 36.6432 40.4363 37.1832 40.1863C38.0132 39.8363 38.5032 39.3463 39.3432 38.0363C39.8032 37.3963 40.1032 36.8463 40.3332 36.2863C40.4132 35.4863 40.4532 35.0763 39.6232 34.1863C38.4132 32.9863 35.3832 31.1163 33.7332 30.2863C33.1231 29.9663 32.9132 29.9863 32.9232 29.9663C32.8532 29.9963 32.5832 30.2463 32.3732 30.4263C32.0932 30.6763 31.7831 30.9463 31.4032 31.2363C31.2132 31.3763 31.0632 31.4963 30.9032 31.6163C29.9832 32.3263 28.8432 33.2163 27.0632 32.8063C25.3332 32.4063 22.2832 30.6563 19.8132 28.0863C17.2432 25.6263 15.4232 22.4763 15.0332 20.7863C14.6232 19.0063 15.5032 17.8663 16.2132 16.9463C16.3332 16.7963 16.4532 16.6363 16.5732 16.4663C16.8332 16.0863 17.1132 15.7463 17.3632 15.4563C17.5332 15.2563 17.7732 14.9763 17.8032 14.8763C17.8032 14.8763 17.8132 14.6863 17.5332 14.0863C16.7132 12.4463 14.8232 9.39627 13.6232 8.20627C13.1132 7.69627 12.8032 7.52627 12.5232 7.52627L12.5532 7.53627Z" fill="#1F2024"/>
</svg>
