<svg width="48" height="48" viewBox="0 0 48 48" fill="none" xmlns="http://www.w3.org/2000/svg">
<path d="M35.9099 43.1678C34.2599 43.1678 31.9199 42.5778 28.3599 40.5978C23.3999 37.9078 20.2699 35.5778 16.3899 31.6978C12.3699 27.7678 10.3399 25.1078 7.3899 19.8378C4.4399 14.5878 4.6399 11.5278 5.3299 9.88776C5.9299 8.55776 6.8399 7.59776 8.4899 6.53776C9.2799 5.96776 10.0699 5.53776 10.9199 5.22776C12.1199 4.69776 13.6699 4.37776 15.5899 6.30776C17.1699 7.88776 19.2499 11.3878 20.0099 12.9178C21.0399 15.0878 20.4399 16.0578 19.4799 17.2078C19.2799 17.4378 19.0599 17.7078 18.8299 18.0378C18.6699 18.2578 18.5299 18.4378 18.3999 18.6078C17.7399 19.4578 17.5999 19.7078 17.7099 20.1878C17.9299 21.1278 19.3399 23.8578 21.7699 26.1878C24.2299 28.7478 26.8299 29.9778 27.7099 30.1878C28.1899 30.2978 28.4399 30.1578 29.2899 29.4978C29.4599 29.3678 29.6399 29.2278 29.8299 29.0878C30.1299 28.8578 30.3899 28.6278 30.6099 28.4278C31.7799 27.3878 32.7799 26.7378 34.9899 27.8878C36.4899 28.6378 39.9999 30.7178 41.5799 32.3078L41.6099 32.3378C43.2999 34.1478 43.1499 35.5778 43.0399 36.6078L42.9499 37.0778C42.6299 37.9278 42.1999 38.7078 41.5999 39.5578C40.6499 41.0378 39.7899 42.0378 38.2899 42.6678C37.6899 42.9478 36.9299 43.1778 35.8999 43.1778L35.9099 43.1678ZM12.5699 7.22776C12.3199 7.22776 12.0899 7.32776 11.8199 7.44776C11.1099 7.71776 10.4899 8.04776 9.8299 8.52776C8.5399 9.35776 7.9099 9.99776 7.5299 10.8478C7.2299 11.5678 6.7899 13.8478 9.4799 18.6678C12.3399 23.7678 14.1799 26.1978 18.0699 29.9978C21.7799 33.7078 24.7599 35.9278 29.5099 38.4978C34.9899 41.5278 36.7599 40.7278 37.3399 40.4578C38.2199 40.0878 38.7499 39.5678 39.6299 38.1978C40.0999 37.5378 40.4299 36.9578 40.6599 36.3678C40.7499 35.5078 40.7999 34.9878 39.8699 33.9878C38.6399 32.7678 35.5699 30.8678 33.8999 30.0278C33.2799 29.7011 32.7166 29.7644 32.2099 30.2178C31.9399 30.4578 31.6299 30.7278 31.2599 31.0178C31.0699 31.1478 30.9099 31.2778 30.7599 31.3978C29.8499 32.1078 28.8099 32.9078 27.1699 32.5278C25.4799 32.1378 22.4999 30.4178 20.0699 27.8878C17.5399 25.4578 15.7499 22.3778 15.3699 20.7278C14.9899 19.0878 15.7899 18.0578 16.4999 17.1378C16.6199 16.9778 16.7499 16.8178 16.8699 16.6478C17.1299 16.2678 17.3999 15.9378 17.6399 15.6578C18.0732 15.1444 18.1432 14.5811 17.8499 13.9678C17.0199 12.3078 15.0999 9.21776 13.8899 7.99776C13.2999 7.40776 12.9199 7.22776 12.5799 7.22776H12.5699Z" fill="#1F2024"/>
</svg>
