<svg width="48" height="48" viewBox="0 0 48 48" fill="none" xmlns="http://www.w3.org/2000/svg">
<path d="M35.9098 43.1678C34.2598 43.1678 31.9198 42.5778 28.3598 40.5978C23.3998 37.9078 20.2698 35.5778 16.3898 31.6978C12.3698 27.7678 10.3398 25.1078 7.38978 19.8378C4.43978 14.5878 4.63978 11.5278 5.32978 9.88782C5.92978 8.55782 6.83978 7.59782 8.48978 6.53782C9.27978 5.96782 10.0698 5.53782 10.9198 5.22782C12.1198 4.69782 13.6698 4.37782 15.5898 6.30782C17.1698 7.88782 19.2498 11.3878 20.0098 12.9178C21.0398 15.0878 20.4398 16.0578 19.4798 17.2078C19.2798 17.4378 19.0598 17.7078 18.8298 18.0378C18.6698 18.2578 18.5298 18.4378 18.3998 18.6078C17.7398 19.4578 17.5998 19.7078 17.7098 20.1878C17.9298 21.1278 19.3398 23.8578 21.7698 26.1878C24.2298 28.7478 26.8298 29.9778 27.7098 30.1878C28.1898 30.2978 28.4398 30.1578 29.2898 29.4978C29.4598 29.3678 29.6398 29.2278 29.8298 29.0878C30.1298 28.8578 30.3898 28.6278 30.6098 28.4278C31.7798 27.3878 32.7798 26.7378 34.9898 27.8878C36.4898 28.6378 39.9998 30.7178 41.5798 32.3078L41.6098 32.3378C43.2998 34.1478 43.1498 35.5778 43.0398 36.6078L42.9498 37.0778C42.6298 37.9278 42.1998 38.7078 41.5998 39.5578C40.6498 41.0378 39.7898 42.0378 38.2898 42.6678C37.6898 42.9478 36.9298 43.1778 35.8998 43.1778L35.9098 43.1678ZM12.5698 7.22782C12.3198 7.22782 12.0898 7.32782 11.8198 7.44782C11.1098 7.71782 10.4898 8.04782 9.82978 8.52782C8.53978 9.35782 7.90978 9.99782 7.52978 10.8478C7.22978 11.5678 6.78978 13.8478 9.47978 18.6678C12.3398 23.7678 14.1798 26.1978 18.0698 29.9978C21.7798 33.7078 24.7598 35.9278 29.5098 38.4978C34.9898 41.5278 36.7598 40.7278 37.3398 40.4578C38.2198 40.0878 38.7498 39.5678 39.6298 38.1978C40.0998 37.5378 40.4298 36.9578 40.6598 36.3678C40.7498 35.5078 40.7998 34.9878 39.8698 33.9878C38.6398 32.7678 35.5698 30.8678 33.8998 30.0278C33.2798 29.7012 32.7164 29.7645 32.2098 30.2178C31.9398 30.4578 31.6298 30.7278 31.2598 31.0178C31.0698 31.1478 30.9098 31.2778 30.7598 31.3978C29.8498 32.1078 28.8098 32.9078 27.1698 32.5278C25.4798 32.1378 22.4998 30.4178 20.0698 27.8878C17.5398 25.4578 15.7498 22.3778 15.3698 20.7278C14.9898 19.0878 15.7898 18.0578 16.4998 17.1378C16.6198 16.9778 16.7498 16.8178 16.8698 16.6478C17.1298 16.2678 17.3998 15.9378 17.6398 15.6578C18.0731 15.1445 18.1431 14.5812 17.8498 13.9678C17.0198 12.3078 15.0998 9.21782 13.8898 7.99782C13.2998 7.40782 12.9198 7.22782 12.5798 7.22782H12.5698Z" fill="#1F2024"/>
</svg>
