<svg width="48" height="48" viewBox="0 0 48 48" fill="none" xmlns="http://www.w3.org/2000/svg">
<path fill-rule="evenodd" clip-rule="evenodd" d="M22.6301 44.69C22.9001 44.83 23.3501 45.0499 24.0001 45.0499C24.6101 45.0499 25.2101 44.78 25.3801 44.69C25.9501 44.4 26.5601 43.67 26.6801 42.92C28.6378 34.8095 31.8625 30.6298 34.4609 27.2618L34.4701 27.25C36.8501 24.17 38.9001 21.51 38.9001 17.25C38.9001 9.36995 32.2201 2.94995 24.0001 2.94995C15.7801 2.94995 9.1001 9.36995 9.1001 17.25C9.1001 21.51 11.1501 24.17 13.5301 27.25L13.5645 27.2946C16.1587 30.667 19.3887 34.8659 21.3401 43C21.3701 43.11 21.4101 43.22 21.4601 43.32C21.7101 43.82 22.0301 44.39 22.6301 44.69ZM12.1001 17.25C12.1001 11.02 17.4401 5.94995 24.0001 5.94995C30.5601 5.94995 35.9001 11.02 35.9001 17.25C35.9001 20.49 34.3101 22.5599 32.1001 25.42L32.0905 25.4323C29.4222 28.8901 26.1276 33.1596 24.0001 41.27C21.8726 33.1596 18.578 28.8901 15.9096 25.4323L15.9001 25.42L15.8798 25.3936C13.6903 22.5472 12.1001 20.48 12.1001 17.25ZM29 17.85C29 20.65 26.7 22.85 24 22.85C21.3 22.85 19 20.65 19 17.85C19 15.05 21.2 12.85 24 12.85C26.8 12.85 29 15.05 29 17.85Z" fill="#1F2024"/>
</svg>
