<svg width="48" height="48" viewBox="0 0 48 48" fill="none" xmlns="http://www.w3.org/2000/svg">
<path d="M23.995 2.95496C15.785 2.95496 9.10498 9.36496 9.10498 17.245C9.10498 21.505 11.155 24.165 13.535 27.245C16.145 30.625 19.385 34.825 21.345 42.995C21.375 43.105 21.415 43.215 21.465 43.315C21.715 43.815 22.035 44.385 22.635 44.685C22.905 44.815 23.345 45.045 23.995 45.045C24.595 45.045 25.195 44.775 25.365 44.685C25.935 44.395 26.535 43.675 26.665 42.925C28.635 34.805 31.865 30.615 34.465 27.255C36.845 24.175 38.895 21.515 38.895 17.255C38.885 9.36496 32.205 2.95496 23.995 2.95496ZM23.995 22.845C21.295 22.845 18.995 20.645 18.995 17.845C18.995 15.045 21.195 12.845 23.995 12.845C26.795 12.845 28.995 15.045 28.995 17.845C28.995 20.645 26.695 22.845 23.995 22.845Z" fill="#1F2024"/>
</svg>
