<svg width="48" height="48" viewBox="0 0 48 48" fill="none" xmlns="http://www.w3.org/2000/svg">
<path d="M32.88 18.29L31.57 15.58C31.38 15.21 31.3 14.8 31.3 14.32V7.99H31.9C32.56 7.99 33.1 7.45 33.1 6.79C33.1 6.13 32.56 5.59 31.9 5.59H15.9C15.24 5.59 14.7 6.13 14.7 6.79C14.7 7.45 15.24 7.99 15.9 7.99H16.7V14.31C16.7 14.8 16.61 15.2 16.42 15.59L15.13 18.26C13.61 21.21 12.8 24.69 12.8 28.31C12.8 29.56 13.75 30.51 15 30.51H22.7V41.21C22.7 41.87 23.24 42.41 23.9 42.41C24.56 42.41 25.1 41.87 25.1 41.21V30.51H33C34.25 30.51 35.2 29.56 35.2 28.31C35.2 24.96 34.42 21.59 32.88 18.29ZM15.2 28.11C15.23 24.94 15.94 21.92 17.28 19.33L18.57 16.65C18.92 15.94 19.1 15.18 19.1 14.31V7.99H28.9V14.31C28.9 15.17 29.07 15.94 29.42 16.63L30.71 19.32C32.06 22.22 32.76 25.17 32.8 28.11H15.2Z" fill="#1F2024"/>
</svg>
