<svg width="48" height="48" viewBox="0 0 48 48" fill="none" xmlns="http://www.w3.org/2000/svg">
<path d="M32.1999 17.85L30.9999 15.15C30.7999 14.85 30.7999 14.45 30.7999 14.05V8.44995H31.8999C32.6999 8.44995 33.3999 7.74995 33.3999 6.94995C33.3999 6.14995 32.6999 5.44995 31.8999 5.44995H15.8999C15.0999 5.44995 14.3999 6.14995 14.3999 6.94995C14.3999 7.74995 15.0999 8.44995 15.8999 8.44995H16.9999V14.05C16.9999 14.45 16.8999 14.85 16.7999 15.15L15.5999 17.85C14.1999 20.95 13.3999 24.45 13.3999 28.05C13.3999 29.45 14.3999 30.55 15.6999 30.55H22.4999V41.0499C22.4999 41.8499 23.1999 42.5499 23.9999 42.5499C24.7999 42.5499 25.4999 41.8499 25.4999 41.0499V30.55H32.2999C33.5999 30.55 34.5999 29.45 34.5999 28.05C34.3999 24.55 33.5999 21.05 32.1999 17.85Z" fill="#1F2024"/>
</svg>
