<svg width="48" height="48" viewBox="0 0 48 48" fill="none" xmlns="http://www.w3.org/2000/svg">
<path d="M33.32 18.14L32.02 15.54C32.02 15.54 31.98 15.46 31.96 15.43C31.89 15.31 31.8 15.07 31.8 14.6V8.39999H31.9C32.73 8.39999 33.4 7.72999 33.4 6.89999C33.4 6.06999 32.73 5.39999 31.9 5.39999H15.9C15.07 5.39999 14.4 6.06999 14.4 6.89999C14.4 7.72999 15.07 8.39999 15.9 8.39999H16.2V14.6C16.2 15.06 16.11 15.31 16.04 15.43C16.02 15.47 16 15.51 15.98 15.54L14.7 18.1C13.11 21.07 12.3 24.4 12.3 28C12.3 29.46 13.49 30.6 15 30.6H22.2V40.9C22.2 41.84 22.96 42.6 23.9 42.6C24.84 42.6 25.6 41.84 25.6 40.9V30.6H33C34.51 30.6 35.7 29.46 35.7 28C35.7 24.73 34.9 21.42 33.32 18.14V18.14ZM15.72 27.2C15.83 24.48 16.5 21.95 17.72 19.66L19 17.11C19.4 16.41 19.6 15.57 19.6 14.6V8.39999H28.4V14.6C28.4 15.57 28.6 16.41 29 17.11L30.26 19.64C31.48 22.16 32.15 24.7 32.27 27.2H15.72V27.2Z" fill="#1F2024"/>
</svg>
