<svg width="48" height="48" viewBox="0 0 48 48" fill="none" xmlns="http://www.w3.org/2000/svg">
<path d="M32.2 17.85L31 15.15C30.8 14.85 30.8 14.45 30.8 14.05V8.45001H31.9C32.7 8.45001 33.4 7.75001 33.4 6.95001C33.4 6.15001 32.7 5.45001 31.9 5.45001H15.9C15.1 5.45001 14.4 6.15001 14.4 6.95001C14.4 7.75001 15.1 8.45001 15.9 8.45001H17V14.05C17 14.45 16.9 14.85 16.8 15.15L15.6 17.85C14.2 20.95 13.4 24.45 13.4 28.05C13.4 29.45 14.4 30.55 15.7 30.55H22.5V41.05C22.5 41.85 23.2 42.55 24 42.55C24.8 42.55 25.5 41.85 25.5 41.05V30.55H32.3C33.6 30.55 34.6 29.45 34.6 28.05C34.4 24.55 33.6 21.05 32.2 17.85V17.85Z" fill="#1F2024"/>
</svg>
