<svg width="48" height="48" viewBox="0 0 48 48" fill="none" xmlns="http://www.w3.org/2000/svg">
<path d="M33.15 17.95L31.84 15.23C31.67 14.9 31.6 14.55 31.6 14.1V8.5H31.9C32.73 8.5 33.4 7.83 33.4 7C33.4 6.17 32.73 5.5 31.9 5.5H15.9C15.07 5.5 14.4 6.17 14.4 7C14.4 7.83 15.07 8.5 15.9 8.5H16.4V14.1C16.4 14.55 16.33 14.9 16.15 15.25L14.87 17.91C13.32 20.91 12.5 24.43 12.5 28.1C12.5 29.52 13.57 30.6 15 30.6H22.4V41C22.4 41.83 23.07 42.5 23.9 42.5C24.73 42.5 25.4 41.83 25.4 41V30.6H33C34.42 30.6 35.5 29.52 35.5 28.1C35.5 24.7 34.71 21.29 33.15 17.95V17.95ZM24.42 27.6C24.26 27.54 24.08 27.5 23.9 27.5C23.72 27.5 23.54 27.54 23.38 27.6H15.51C15.58 24.59 16.28 21.72 17.56 19.25L18.85 16.57C19.23 15.82 19.41 15.01 19.41 14.1V8.5H28.61V14.1C28.61 15.01 28.79 15.82 29.16 16.55L30.45 19.23C31.74 21.99 32.43 24.81 32.5 27.6H24.42V27.6Z" fill="#1F2024"/>
</svg>
