<svg width="48" height="48" viewBox="0 0 48 48" fill="none" xmlns="http://www.w3.org/2000/svg">
<path d="M33.3198 18.1399L32.0198 15.5399C32.0198 15.5399 31.9798 15.4599 31.9598 15.4299C31.8898 15.3099 31.7998 15.0699 31.7998 14.5999V8.3999H31.8998C32.7298 8.3999 33.3998 7.7299 33.3998 6.8999C33.3998 6.0699 32.7298 5.3999 31.8998 5.3999H15.8998C15.0698 5.3999 14.3998 6.0699 14.3998 6.8999C14.3998 7.7299 15.0698 8.3999 15.8998 8.3999H16.1998V14.5999C16.1998 15.0599 16.1098 15.3099 16.0398 15.4299C16.0198 15.4699 15.9998 15.5099 15.9798 15.5399L14.6998 18.0999C13.1098 21.0699 12.2998 24.3999 12.2998 27.9999C12.2998 29.4599 13.4898 30.5999 14.9998 30.5999H22.1998V40.8999C22.1998 41.8399 22.9598 42.5999 23.8998 42.5999C24.8398 42.5999 25.5998 41.8399 25.5998 40.8999V30.5999H32.9998C34.5098 30.5999 35.6998 29.4599 35.6998 27.9999C35.6998 24.7299 34.8998 21.4199 33.3198 18.1399V18.1399ZM15.7198 27.1999C15.8298 24.4799 16.4998 21.9499 17.7198 19.6599L18.9998 17.1099C19.3998 16.4099 19.5998 15.5699 19.5998 14.5999V8.3999H28.3998V14.5999C28.3998 15.5699 28.5998 16.4099 28.9998 17.1099L30.2598 19.6399C31.4798 22.1599 32.1498 24.6999 32.2698 27.1999H15.7198V27.1999Z" fill="#1F2024"/>
</svg>
