<svg width="48" height="48" viewBox="0 0 48 48" fill="none" xmlns="http://www.w3.org/2000/svg">
<path d="M32.8798 18.2901L31.5698 15.5801C31.3798 15.2101 31.2998 14.8001 31.2998 14.3201V7.99009H31.8998C32.5598 7.99009 33.0998 7.45009 33.0998 6.79009C33.0998 6.13009 32.5598 5.59009 31.8998 5.59009H15.8998C15.2398 5.59009 14.6998 6.13009 14.6998 6.79009C14.6998 7.45009 15.2398 7.99009 15.8998 7.99009H16.6998V14.3101C16.6998 14.8001 16.6098 15.2001 16.4198 15.5901L15.1298 18.2601C13.6098 21.2101 12.7998 24.6901 12.7998 28.3101C12.7998 29.5601 13.7498 30.5101 14.9998 30.5101H22.6998V41.2101C22.6998 41.8701 23.2398 42.4101 23.8998 42.4101C24.5598 42.4101 25.0998 41.8701 25.0998 41.2101V30.5101H32.9998C34.2498 30.5101 35.1998 29.5601 35.1998 28.3101C35.1998 24.9601 34.4198 21.5901 32.8798 18.2901ZM15.1998 28.1101C15.2298 24.9401 15.9398 21.9201 17.2798 19.3301L18.5698 16.6501C18.9198 15.9401 19.0998 15.1801 19.0998 14.3101V7.99009H28.8998V14.3101C28.8998 15.1701 29.0698 15.9401 29.4198 16.6301L30.7098 19.3201C32.0598 22.2201 32.7598 25.1701 32.7998 28.1101H15.1998Z" fill="#1F2024"/>
</svg>
