<svg width="48" height="48" viewBox="0 0 48 48" fill="none" xmlns="http://www.w3.org/2000/svg">
<path d="M16.8 10.9601C17 10.9601 17.18 11.0201 17.38 11.1201L38.7 22.9601C39.24 23.2601 39.32 23.7401 39.32 24.0001C39.32 24.2601 39.24 24.7601 38.7 25.0401L17.38 36.8801C17.18 36.9801 17 37.0401 16.8 37.0401C16.32 37.0401 15.6 36.6601 15.6 35.8401V12.1601C15.6 11.3401 16.32 10.9601 16.8 10.9601ZM16.8 7.36009C14.28 7.36009 12 9.38009 12 12.1601V35.8401C12 38.6401 14.3 40.6401 16.8 40.6401C17.58 40.6401 18.38 40.4401 19.12 40.0201L40.44 28.1801C43.74 26.3601 43.74 21.6201 40.44 19.7801L19.14 7.96009C18.38 7.54009 17.58 7.34009 16.82 7.34009L16.8 7.36009Z" fill="#1F2024"/>
</svg>
