<svg width="48" height="48" viewBox="0 0 48 48" fill="none" xmlns="http://www.w3.org/2000/svg">
<path d="M13.4444 40.8469C13.9444 41.1469 14.5444 41.2469 15.0444 41.2469C15.6444 41.2469 16.2444 41.0469 16.7444 40.7469L39.9444 26.8469C40.9444 26.2469 41.5444 25.0469 41.4444 23.8469C41.4444 22.6469 40.8444 21.6469 39.8444 21.1469L16.7444 7.3469C15.7444 6.6469 14.4444 6.5469 13.4444 7.1469C12.2444 7.7469 11.5444 9.0469 11.5444 10.4469V37.6469C11.5444 39.0469 12.2444 40.2469 13.4444 40.8469ZM14.4444 10.4469H14.5444C14.5444 10.1469 14.7444 9.9469 14.8444 9.8469H14.9444C15.0111 9.8469 15.0778 9.88023 15.1444 9.9469L38.3444 23.8469C38.3444 23.8469 38.4444 23.9469 38.3444 24.1469C38.3444 24.2469 38.3444 24.3469 38.2444 24.3469L15.0444 38.2469C14.9444 38.2469 14.9444 38.3469 14.7444 38.2469C14.5444 38.1469 14.4444 37.9469 14.4444 37.6469V10.4469V10.4469Z" fill="#1F2024"/>
</svg>
