<svg width="48" height="48" viewBox="0 0 48 48" fill="none" xmlns="http://www.w3.org/2000/svg">
<path d="M13.3582 41.4457C12.7782 41.4457 12.1882 41.2957 11.6482 40.9957C10.4382 40.3157 9.67822 39.0057 9.67822 37.5757V10.3757C9.67822 8.91574 10.4482 7.60574 11.6982 6.95574C12.8282 6.35574 14.1282 6.43574 15.1882 7.14574L38.3482 21.0257C39.3182 21.5557 39.9582 22.6257 39.9982 23.8657C40.0382 25.1457 39.4282 26.3557 38.3882 27.0157L15.1482 40.9357C14.5982 41.2757 13.9782 41.4457 13.3582 41.4457V41.4457ZM13.2982 9.97574C13.2282 9.97574 13.0782 10.1057 13.0782 10.3757V37.5857C13.0782 37.9057 13.2982 38.0557 13.3582 38.0557L36.6082 24.1257C36.6082 24.1257 36.6082 24.0057 36.6082 23.9357L13.3082 9.97574H13.2982ZM36.6482 23.9657C36.6482 23.9657 36.6582 23.9657 36.6682 23.9657H36.6482Z" fill="#1F2024"/>
</svg>
