<svg width="48" height="48" viewBox="0 0 48 48" fill="none" xmlns="http://www.w3.org/2000/svg">
<path d="M13.8479 40.9436C13.3479 40.9436 12.8479 40.8136 12.3779 40.5536C11.3179 39.9636 10.6679 38.8236 10.6679 37.5736V10.3736C10.6679 9.10359 11.3379 7.95359 12.4179 7.39359C13.3979 6.88359 14.5279 6.95359 15.4479 7.59359L38.5879 21.4436C39.4179 21.8936 39.9579 22.8136 39.9979 23.8736C40.0379 24.9836 39.5079 26.0136 38.6179 26.5836L15.3879 40.5036C14.9179 40.7936 14.3879 40.9436 13.8479 40.9436V40.9436ZM13.7579 9.45359C13.6779 9.45359 13.6079 9.47359 13.5279 9.51359C13.3179 9.62359 13.0579 9.91359 13.0579 10.3736V37.5736C13.0579 38.0236 13.3179 38.3336 13.5379 38.4536C13.7379 38.5636 13.9379 38.5636 14.1279 38.4536L37.3379 24.5436C37.5179 24.4236 37.5879 24.1536 37.5779 23.9536C37.5779 23.7936 37.5179 23.6036 37.3779 23.5236L14.1479 9.60359C13.9979 9.50359 13.8679 9.45359 13.7579 9.45359V9.45359Z" fill="#1F2024"/>
</svg>
