<svg width="48" height="48" viewBox="0 0 48 48" fill="none" xmlns="http://www.w3.org/2000/svg">
<path d="M14.4687 41.25C13.8931 41.249 13.3276 41.0981 12.828 40.8122C11.703 40.1747 11.0037 38.9372 11.0037 37.5938V10.4063C11.0037 9.05911 11.703 7.82536 12.828 7.18786C13.3395 6.89389 13.9206 6.74272 14.5105 6.75014C15.1004 6.75756 15.6775 6.9233 16.1815 7.23004L39.4174 21.1388C39.9017 21.4424 40.3009 21.8641 40.5776 22.3642C40.8543 22.8644 40.9995 23.4266 40.9995 23.9982C40.9995 24.5698 40.8543 25.132 40.5776 25.6321C40.3009 26.1322 39.9017 26.5539 39.4174 26.8575L16.1777 40.77C15.662 41.0818 15.0713 41.2477 14.4687 41.25Z" fill="#1F2024"/>
</svg>
