<svg width="48" height="48" viewBox="0 0 48 48" fill="none" xmlns="http://www.w3.org/2000/svg">
<path d="M13.8478 40.9436C13.3478 40.9436 12.8478 40.8136 12.3778 40.5536C11.3178 39.9636 10.6678 38.8236 10.6678 37.5736V10.3736C10.6678 9.10359 11.3378 7.95359 12.4178 7.39359C13.3978 6.88359 14.5278 6.95359 15.4478 7.59359L38.5878 21.4436C39.4178 21.8936 39.9578 22.8136 39.9978 23.8736C40.0378 24.9836 39.5078 26.0136 38.6178 26.5836L15.3878 40.5036C14.9178 40.7936 14.3878 40.9436 13.8478 40.9436V40.9436ZM13.7578 9.45359C13.6778 9.45359 13.6078 9.47359 13.5278 9.51359C13.3178 9.62359 13.0578 9.91359 13.0578 10.3736V37.5736C13.0578 38.0236 13.3178 38.3336 13.5378 38.4536C13.7378 38.5636 13.9378 38.5636 14.1278 38.4536L37.3378 24.5436C37.5178 24.4236 37.5878 24.1536 37.5778 23.9536C37.5778 23.7936 37.5178 23.6036 37.3778 23.5236L14.1478 9.60359C13.9978 9.50359 13.8678 9.45359 13.7578 9.45359V9.45359Z" fill="#1F2024"/>
</svg>
