<svg width="48" height="48" viewBox="0 0 48 48" fill="none" xmlns="http://www.w3.org/2000/svg">
<path d="M13.3581 41.4457C12.7781 41.4457 12.1881 41.2957 11.6481 40.9957C10.4381 40.3157 9.6781 39.0057 9.6781 37.5757V10.3757C9.6781 8.91573 10.4481 7.60573 11.6981 6.95573C12.8281 6.35573 14.1281 6.43573 15.1881 7.14573L38.3481 21.0257C39.3181 21.5557 39.9581 22.6257 39.9981 23.8657C40.0381 25.1457 39.4281 26.3557 38.3881 27.0157L15.1481 40.9357C14.5981 41.2757 13.9781 41.4457 13.3581 41.4457V41.4457ZM13.2981 9.97573C13.2281 9.97573 13.0781 10.1057 13.0781 10.3757V37.5857C13.0781 37.9057 13.2981 38.0557 13.3581 38.0557L36.6081 24.1257C36.6081 24.1257 36.6081 24.0057 36.6081 23.9357L13.3081 9.97573H13.2981ZM36.6481 23.9657C36.6481 23.9657 36.6581 23.9657 36.6681 23.9657H36.6481Z" fill="#1F2024"/>
</svg>
