<svg width="48" height="48" viewBox="0 0 48 48" fill="none" xmlns="http://www.w3.org/2000/svg">
<path d="M40.0452 21.0469L16.8452 7.14695C15.7452 6.44695 14.4452 6.34695 13.3452 6.94695C12.1452 7.64695 11.3452 8.94695 11.3452 10.3469V37.5469C11.3452 38.9469 12.1452 40.2469 13.3452 40.9469C13.8452 41.2469 14.4452 41.4469 15.0452 41.4469C15.6452 41.4469 16.2452 41.2469 16.8452 40.9469L40.0452 27.0469C41.0452 26.3469 41.7452 25.1469 41.6452 23.9469C41.6452 22.6469 40.9452 21.6469 40.0452 21.0469ZM38.2452 24.1469L15.0452 38.0469C15.0452 38.0469 14.9452 38.0469 14.9452 37.9469C14.8452 37.8469 14.8452 37.7469 14.8452 37.5469V10.3469C14.8452 10.0469 15.0452 9.94695 15.0452 9.94695L38.3452 23.9469C38.2452 24.0469 38.2452 24.1469 38.2452 24.1469Z" fill="#1F2024"/>
</svg>
