<svg width="48" height="48" viewBox="0 0 48 48" fill="none" xmlns="http://www.w3.org/2000/svg">
<path d="M14.4689 41.2502C13.8933 41.2491 13.3279 41.0982 12.8283 40.8124C11.7033 40.1749 11.0039 38.9374 11.0039 37.5939V10.4064C11.0039 9.05923 11.7033 7.82548 12.8283 7.18798C13.3398 6.89401 13.9209 6.74284 14.5108 6.75026C15.1007 6.75768 15.6778 6.92343 16.1817 7.23017L39.4177 21.1389C39.9019 21.4426 40.3011 21.8642 40.5778 22.3644C40.8546 22.8645 40.9997 23.4267 40.9997 23.9983C40.9997 24.5699 40.8546 25.1321 40.5778 25.6322C40.3011 26.1324 39.9019 26.554 39.4177 26.8577L16.178 40.7702C15.6622 41.082 15.0715 41.2479 14.4689 41.2502V41.2502Z" fill="#1F2024"/>
</svg>
