<svg width="48" height="48" viewBox="0 0 48 48" fill="none" xmlns="http://www.w3.org/2000/svg">
<path d="M16.8 10.96C17 10.96 17.18 11.02 17.38 11.12L38.7 22.96C39.24 23.26 39.32 23.74 39.32 24C39.32 24.26 39.24 24.76 38.7 25.04L17.38 36.88C17.18 36.98 17 37.04 16.8 37.04C16.32 37.04 15.6 36.66 15.6 35.84V12.16C15.6 11.34 16.32 10.96 16.8 10.96ZM16.8 7.35997C14.28 7.35997 12 9.37997 12 12.16V35.84C12 38.64 14.3 40.64 16.8 40.64C17.58 40.64 18.38 40.44 19.12 40.02L40.44 28.18C43.74 26.36 43.74 21.62 40.44 19.78L19.14 7.95997C18.38 7.53997 17.58 7.33997 16.82 7.33997L16.8 7.35997Z" fill="#1F2024"/>
</svg>
