<svg width="48" height="48" viewBox="0 0 48 48" fill="none" xmlns="http://www.w3.org/2000/svg">
<path d="M13.5581 41.2467C13.0081 41.2467 12.4481 41.1067 11.9381 40.8167C10.7881 40.1767 10.0781 38.9367 10.0781 37.5767V10.3767C10.0781 8.99666 10.8081 7.74666 11.9881 7.12666C13.0681 6.55666 14.3181 6.64666 15.3281 7.34666L38.4481 21.1967C39.3581 21.6967 39.9581 22.7067 39.9981 23.8767C40.0381 25.0867 39.4581 26.2267 38.4781 26.8467L15.2481 40.7667C14.7281 41.0867 14.1481 41.2467 13.5581 41.2467V41.2467ZM13.4681 9.75666C13.4681 9.75666 13.4081 9.76666 13.3781 9.78666C13.2281 9.86666 13.0781 10.0767 13.0781 10.3767V37.5767C13.0781 37.8967 13.2581 38.1167 13.4081 38.1967C13.5481 38.2767 13.6281 38.2367 13.6981 38.1967L36.9181 24.2867C36.9181 24.2867 36.9981 24.1467 37.0081 24.0567C37.0281 23.9067 36.9781 23.8067 36.9681 23.7867L13.7081 9.86666C13.5881 9.78666 13.5281 9.75666 13.4681 9.75666V9.75666Z" fill="#1F2024"/>
</svg>
