<svg width="48" height="48" viewBox="0 0 48 48" fill="none" xmlns="http://www.w3.org/2000/svg">
<path d="M23.9998 4.30005C13.0998 4.30005 4.2998 13.1 4.2998 24C4.2998 34.9 13.0998 43.7001 23.9998 43.7001C34.8998 43.7001 43.6998 34.9 43.6998 24C43.6998 13.1 34.8998 4.30005 23.9998 4.30005ZM23.9998 40.3C14.9998 40.3 7.6998 33 7.6998 24C7.6998 15 14.9998 7.70005 23.9998 7.70005C32.9998 7.70005 40.2998 15 40.2998 24C40.2998 33 32.9998 40.3 23.9998 40.3Z" fill="#1F2024"/>
<path d="M31.4998 22.4H25.5998V16.5C25.5998 15.6 24.8998 14.9 23.9998 14.9C23.0998 14.9 22.3998 15.6 22.3998 16.5V22.4H16.4998C15.5998 22.4 14.8998 23.1 14.8998 24C14.8998 24.9 15.5998 25.6 16.4998 25.6H22.3998V31.5C22.3998 32.4 23.0998 33.1 23.9998 33.1C24.8998 33.1 25.5998 32.4 25.5998 31.5V25.6H31.4998C32.3998 25.6 33.0998 24.9 33.0998 24C33.0998 23.1 32.3998 22.4 31.4998 22.4Z" fill="#1F2024"/>
</svg>
