<svg width="48" height="48" viewBox="0 0 48 48" fill="none" xmlns="http://www.w3.org/2000/svg">
<path d="M24 4.5C13.2478 4.5 4.5 13.2478 4.5 24C4.5 34.7522 13.2478 43.5 24 43.5C34.7522 43.5 43.5 34.7522 43.5 24C43.5 13.2478 34.7522 4.5 24 4.5ZM31.5 25.5H25.5V31.5C25.5 31.8978 25.342 32.2794 25.0607 32.5607C24.7794 32.842 24.3978 33 24 33C23.6022 33 23.2206 32.842 22.9393 32.5607C22.658 32.2794 22.5 31.8978 22.5 31.5V25.5H16.5C16.1022 25.5 15.7206 25.342 15.4393 25.0607C15.158 24.7794 15 24.3978 15 24C15 23.6022 15.158 23.2206 15.4393 22.9393C15.7206 22.658 16.1022 22.5 16.5 22.5H22.5V16.5C22.5 16.1022 22.658 15.7206 22.9393 15.4393C23.2206 15.158 23.6022 15 24 15C24.3978 15 24.7794 15.158 25.0607 15.4393C25.342 15.7206 25.5 16.1022 25.5 16.5V22.5H31.5C31.8978 22.5 32.2794 22.658 32.5607 22.9393C32.842 23.2206 33 23.6022 33 24C33 24.3978 32.842 24.7794 32.5607 25.0607C32.2794 25.342 31.8978 25.5 31.5 25.5Z" fill="#1F2024"/>
</svg>
