<svg width="48" height="48" viewBox="0 0 48 48" fill="none" xmlns="http://www.w3.org/2000/svg">
<path fill-rule="evenodd" clip-rule="evenodd" d="M4.5 24C4.5 13.2341 13.2341 4.5 24 4.5C34.7659 4.5 43.5 13.2341 43.5 24C43.5 34.7659 34.7659 43.5 24 43.5C13.2341 43.5 4.5 34.7659 4.5 24ZM24 7.5C14.8909 7.5 7.5 14.8909 7.5 24C7.5 33.1091 14.8909 40.5 24 40.5C33.1091 40.5 40.5 33.1091 40.5 24C40.5 14.8909 33.1091 7.5 24 7.5Z" fill="#1F2024"/>
<path fill-rule="evenodd" clip-rule="evenodd" d="M24 15C24.8284 15 25.5 15.6716 25.5 16.5V31.5C25.5 32.3284 24.8284 33 24 33C23.1716 33 22.5 32.3284 22.5 31.5V16.5C22.5 15.6716 23.1716 15 24 15Z" fill="#1F2024"/>
<path fill-rule="evenodd" clip-rule="evenodd" d="M15 24C15 23.1716 15.6716 22.5 16.5 22.5H31.5C32.3284 22.5 33 23.1716 33 24C33 24.8284 32.3284 25.5 31.5 25.5H16.5C15.6716 25.5 15 24.8284 15 24Z" fill="#1F2024"/>
</svg>
