<svg width="48" height="48" viewBox="0 0 48 48" fill="none" xmlns="http://www.w3.org/2000/svg">
<path d="M37.5002 22.2H25.8002V10.5C25.8002 9.50995 24.9902 8.69995 24.0002 8.69995C23.0102 8.69995 22.2002 9.50995 22.2002 10.5V22.2H10.5002C9.5102 22.2 8.7002 23.01 8.7002 24C8.7002 24.99 9.5102 25.8 10.5002 25.8H22.2002V37.5C22.2002 38.49 23.0102 39.3 24.0002 39.3C24.9902 39.3 25.8002 38.49 25.8002 37.5V25.8H37.5002C38.4902 25.8 39.3002 24.99 39.3002 24C39.3002 23.01 38.4902 22.2 37.5002 22.2Z" fill="#1F2024"/>
</svg>
