<svg width="48" height="48" viewBox="0 0 48 48" fill="none" xmlns="http://www.w3.org/2000/svg">
<path d="M23.9998 43.2001C34.5998 43.2001 43.1998 34.6 43.1998 24C43.1998 13.4 34.5998 4.80005 23.9998 4.80005C13.3998 4.80005 4.7998 13.4 4.7998 24C4.7998 34.6 13.3998 43.2001 23.9998 43.2001ZM23.9998 7.20005C33.2998 7.20005 40.7998 14.7 40.7998 24C40.7998 33.3 33.2998 40.8 23.9998 40.8C14.6998 40.8 7.1998 33.3 7.1998 24C7.1998 14.7 14.6998 7.20005 23.9998 7.20005Z" fill="#1F2024"/>
<path d="M16.4998 25.4H22.5998V31.5C22.5998 32.2 23.1998 32.9 23.9998 32.9C24.7998 32.9 25.3998 32.3 25.3998 31.5V25.4H31.4998C32.1998 25.4 32.8998 24.8 32.8998 24C32.8998 23.2 32.2998 22.6 31.4998 22.6H25.3998V16.5C25.3998 15.8 24.7998 15.1 23.9998 15.1C23.1998 15.1 22.5998 15.7 22.5998 16.5V22.6H16.4998C15.7998 22.6 15.0998 23.2 15.0998 24C15.0998 24.8 15.7998 25.4 16.4998 25.4Z" fill="#1F2024"/>
</svg>
