<svg width="48" height="48" viewBox="0 0 48 48" fill="none" xmlns="http://www.w3.org/2000/svg">
<path d="M9.6999 25.8H22.1999V38.3C22.1999 39.29 23.0099 40.1 23.9999 40.1C24.9899 40.1 25.7999 39.29 25.7999 38.3V25.8H38.2999C39.2899 25.8 40.0999 24.99 40.0999 24C40.0999 23.01 39.2899 22.2 38.2999 22.2H25.7999V9.70002C25.7999 8.71002 24.9899 7.90002 23.9999 7.90002C23.0099 7.90002 22.1999 8.71002 22.1999 9.70002V22.2H9.6999C8.7099 22.2 7.8999 23.01 7.8999 24C7.8999 24.99 8.7099 25.8 9.6999 25.8V25.8Z" fill="#1F2024"/>
</svg>
