<svg width="48" height="48" viewBox="0 0 48 48" fill="none" xmlns="http://www.w3.org/2000/svg">
<path d="M24 4.30005C13.1 4.30005 4.30005 13.1 4.30005 24C4.30005 34.9 13.1 43.7001 24 43.7001C34.9 43.7001 43.7001 34.9 43.7001 24C43.7001 13.1 34.9 4.30005 24 4.30005ZM24 40.3C15 40.3 7.70005 33 7.70005 24C7.70005 15 15 7.70005 24 7.70005C33 7.70005 40.3 15 40.3 24C40.3 33 33 40.3 24 40.3Z" fill="#1F2024"/>
<path d="M31.5 22.4H25.6V16.5C25.6 15.6 24.9 14.9 24 14.9C23.1 14.9 22.4 15.6 22.4 16.5V22.4H16.5C15.6 22.4 14.9 23.1 14.9 24C14.9 24.9 15.6 25.6 16.5 25.6H22.4V31.5C22.4 32.4 23.1 33.1 24 33.1C24.9 33.1 25.6 32.4 25.6 31.5V25.6H31.5C32.4 25.6 33.1 24.9 33.1 24C33.1 23.1 32.4 22.4 31.5 22.4Z" fill="#1F2024"/>
</svg>
