<svg width="48" height="48" viewBox="0 0 48 48" fill="none" xmlns="http://www.w3.org/2000/svg">
<path d="M33.75 41.89H11.25C9.86 41.89 8.51 41.33 7.54 40.35C6.56 39.37 6 38.02 6 36.64V14.14C6 12.76 6.56 11.41 7.54 10.43C8.51 9.45001 9.87 8.89001 11.25 8.89001H26.95C27.78 8.89001 28.45 9.56001 28.45 10.39C28.45 11.22 27.78 11.89 26.95 11.89H11.25C10.66 11.89 10.08 12.13 9.66 12.55C9.24 12.97 9 13.55 9 14.14V36.64C9 37.23 9.24 37.81 9.66 38.23C10.08 38.65 10.65 38.89 11.25 38.89H33.75C34.05 38.89 34.34 38.83 34.62 38.72C34.88 38.61 35.13 38.44 35.35 38.23C35.56 38.02 35.72 37.78 35.82 37.53C35.95 37.23 36.01 36.94 36.01 36.65V19.39C36.01 18.56 36.68 17.89 37.51 17.89C38.34 17.89 39.01 18.56 39.01 19.39V36.64C39.01 37.33 38.87 38.01 38.6 38.65C38.36 39.26 37.97 39.84 37.47 40.35C36.98 40.84 36.41 41.22 35.78 41.48C35.13 41.75 34.45 41.88 33.76 41.88L33.75 41.89Z" fill="#1F2024"/>
<path d="M21.67 27.45L23.98 26.67C24.21 26.6 24.41 26.48 24.59 26.31H24.6L41.41 9.45997L41.5 9.37997C41.76 9.10997 41.92 8.73997 41.92 8.35997C41.92 7.97997 41.77 7.61997 41.5 7.33997L40.56 6.39997C40.03 5.85997 39.06 5.84997 38.52 6.39997L21.58 23.3C21.42 23.47 21.3 23.68 21.22 23.9L20.44 26.23V26.26C20.37 26.43 20.38 26.59 20.42 26.77C20.46 26.94 20.56 27.1 20.67 27.21C20.79 27.33 20.94 27.42 21.11 27.47C21.19 27.49 21.27 27.5 21.35 27.5C21.44 27.5 21.53 27.49 21.63 27.46" fill="#1F2024"/>
</svg>
