<svg width="48" height="48" viewBox="0 0 48 48" fill="none" xmlns="http://www.w3.org/2000/svg">
<path d="M21.8501 23.7L21.0501 26C20.9501 26.1 20.9501 26.5 21.0501 26.6C21.0501 26.7 21.2501 26.7 21.3501 26.7C21.4501 26.7 21.5501 26.7 21.6501 26.6L23.9501 25.8C24.1501 25.7 24.2501 25.7 24.4501 25.5L41.3501 8.6C41.5501 8.4 41.6501 8.2 41.6501 7.9C41.6501 7.6 41.5501 7.4 41.3501 7.2L40.4501 6.3C40.3501 6.1 40.0501 6 39.7501 6C39.4501 6 39.2501 6.1 39.0501 6.3L22.1501 23.2C22.0501 23.4 21.9501 23.5 21.8501 23.7Z" fill="#1F2024"/>
<path d="M11.3501 42H33.7501C34.3501 42 34.8501 41.9 35.5501 41.6L35.8501 41.5C36.2501 41.3 36.8501 41 37.2501 40.5C37.6501 40.1 38.0501 39.6 38.2501 39C38.5501 38.4 38.6501 37.8 38.6501 37.1V19.9C38.6501 19.2 38.1501 18.7 37.4501 18.7C36.7501 18.7 36.2501 19.2 36.2501 19.9V37.1C36.2501 37.5 36.1501 37.8 36.0501 38V38.1C35.9501 38.4 35.7501 38.7 35.5501 38.9L35.4501 39C35.3501 39.1 35.1501 39.2 34.8501 39.3L34.7501 39.4C34.3501 39.5 34.1501 39.6 33.8501 39.6H11.3501C10.6501 39.6 10.0501 39.3 9.4501 38.8C9.0501 38.4 8.7501 37.7 8.7501 37.1V14.6C8.7501 13.9 8.9501 13.2 9.4501 12.7C9.9501 12.3 10.6501 12 11.3501 12H27.0501C27.7501 12 28.2501 11.5 28.2501 10.8C28.2501 10.1 27.7501 9.6 27.0501 9.6H11.3501C10.0501 9.6 8.7501 10.2 7.8501 11.1C6.8501 12 6.3501 13.3 6.3501 14.6V37.1C6.3501 38.3 6.8501 39.6 7.8501 40.6C8.9501 41.5 10.0501 42 11.3501 42Z" fill="#1F2024"/>
</svg>
