<svg width="48" height="48" viewBox="0 0 48 48" fill="none" xmlns="http://www.w3.org/2000/svg">
<path d="M18.7548 29.9488L23.6748 29.6588C23.7948 29.6588 23.9048 29.5988 23.9948 29.5188L37.0448 16.4688C37.1748 16.3388 37.1748 16.1388 37.0448 16.0088L31.8448 10.8088C31.7148 10.6788 31.5148 10.6788 31.3848 10.8088L18.3348 23.8588C18.2548 23.9388 18.1948 24.0588 18.1948 24.1788L17.9048 29.0988C17.8748 29.5888 18.2848 29.9888 18.7648 29.9588H18.7548V29.9488Z" fill="#1F2024"/>
<path d="M41.0048 6.66876C39.4048 5.16876 36.8648 5.31876 35.3148 6.86876L33.6348 8.54876C33.5048 8.67876 33.5048 8.87876 33.6348 9.00876L38.8348 14.2088C38.9648 14.3388 39.1648 14.3388 39.2948 14.2088L41.0948 12.4088C42.6848 10.8188 42.6548 8.21876 41.0048 6.65876V6.66876Z" fill="#1F2024"/>
<path d="M37.7448 22.0788C36.6448 22.0788 35.7448 22.9788 35.7448 24.0788V33.2988C35.7448 36.1088 33.4648 38.3888 30.6548 38.3888H14.8248C12.0148 38.3888 9.73479 36.1088 9.73479 33.2988V17.4688C9.73479 14.6588 12.0148 12.3788 14.8248 12.3788H23.1348C24.2348 12.3788 25.1348 11.4788 25.1348 10.3788C25.1348 9.27876 24.2348 8.37876 23.1348 8.37876H14.8248C9.81479 8.37876 5.73479 12.4488 5.73479 17.4588V33.2888C5.73479 38.2988 9.81479 42.3788 14.8248 42.3788H30.6548C35.6648 42.3888 39.7448 38.3088 39.7448 33.2988V24.0788C39.7448 22.9788 38.8448 22.0788 37.7448 22.0788Z" fill="#1F2024"/>
</svg>
