<svg width="48" height="48" viewBox="0 0 48 48" fill="none" xmlns="http://www.w3.org/2000/svg">
<path d="M38.0647 19.9288C37.5047 19.6988 36.8647 19.8188 36.4347 20.2488L24.7047 31.8588C24.4847 32.0788 24.1847 32.2188 23.8747 32.2388L17.2347 32.7888C16.6147 32.8388 16.0447 32.6288 15.6047 32.2088C15.1647 31.7888 14.9347 31.2088 14.9647 30.5988L15.2447 24.2288C15.2547 23.8988 15.3947 23.5788 15.6347 23.3488L27.2047 11.6788C27.6347 11.2488 27.7547 10.6088 27.5247 10.0488C27.2947 9.48878 26.7447 9.12878 26.1447 9.12878H14.5747C9.83474 9.12878 5.98474 12.9788 5.98474 17.7088V33.5388C5.98474 38.2688 9.83474 42.1288 14.5747 42.1288H30.4047C35.1347 42.1288 38.9947 38.2788 38.9947 33.5388V21.3088C38.9947 20.6988 38.6347 20.1588 38.0747 19.9288H38.0647Z" fill="#1F2024"/>
<path d="M18.5047 30.1988L23.4247 29.9088C23.5447 29.9088 23.6547 29.8488 23.7447 29.7688L36.7947 16.7188C36.9247 16.5888 36.9247 16.3888 36.7947 16.2588L31.5947 11.0588C31.4647 10.9288 31.2647 10.9288 31.1347 11.0588L18.0847 24.1088C18.0047 24.1888 17.9447 24.3088 17.9447 24.4288L17.6547 29.3488C17.6247 29.8388 18.0347 30.2388 18.5147 30.2088L18.5047 30.1988Z" fill="#1F2024"/>
<path d="M40.7547 6.91873C39.1547 5.41873 36.6147 5.56873 35.0647 7.11873L33.3847 8.79873C33.2547 8.92873 33.2547 9.12873 33.3847 9.25873L38.5847 14.4587C38.7147 14.5887 38.9147 14.5887 39.0447 14.4587L40.8447 12.6587C42.4347 11.0687 42.4047 8.46873 40.7547 6.90873V6.91873Z" fill="#1F2024"/>
</svg>
