<svg width="48" height="48" viewBox="0 0 48 48" fill="none" xmlns="http://www.w3.org/2000/svg">
<path d="M14.7756 41.655C10.2056 41.655 6.4856 37.935 6.4856 33.365V17.545C6.4856 12.975 10.2056 9.25496 14.7756 9.25496H23.0856C23.7456 9.25496 24.2856 9.79496 24.2856 10.455C24.2856 11.115 23.7456 11.655 23.0856 11.655H14.7756C11.5256 11.655 8.8856 14.295 8.8856 17.545V33.375C8.8856 36.625 11.5256 39.265 14.7756 39.265H30.6056C33.8556 39.265 36.4956 36.625 36.4956 33.375V24.155C36.4956 23.495 37.0356 22.955 37.6956 22.955C38.3556 22.955 38.8956 23.495 38.8956 24.155V33.375C38.8956 37.945 35.1756 41.665 30.6056 41.665H14.7756V41.655Z" fill="#1F2024"/>
<path d="M18.2456 30.425C18.0356 30.425 17.8156 30.335 17.6656 30.185C17.5056 30.015 17.4156 29.795 17.4256 29.555L17.7456 24.075C17.7456 23.955 17.8056 23.845 17.8856 23.755L34.0256 7.61496C34.8556 6.78496 35.9556 6.33496 37.1256 6.33496C38.2956 6.33496 39.3956 6.79496 40.2256 7.61496C41.1256 8.51496 41.5856 9.71496 41.5056 10.995C41.4356 12.055 40.9456 13.095 40.1156 13.925L24.0956 29.955C24.0056 30.035 23.8956 30.085 23.7756 30.095L18.2456 30.425ZM19.6856 24.755L19.4556 28.115L19.6456 28.305L19.8256 28.345L23.1156 28.175L35.8156 15.475L32.3956 12.055L19.6956 24.755H19.6856ZM37.1256 8.30496C37.0356 8.30496 36.9556 8.30496 36.8656 8.31496C36.3256 8.37496 35.7856 8.64496 35.3456 9.08496L33.7756 10.655L37.1956 14.075L38.7556 12.515C39.6956 11.575 39.7856 10.095 38.9456 9.13496C38.4756 8.60496 37.8356 8.30496 37.1256 8.30496Z" fill="#1F2024"/>
</svg>
