<svg width="48" height="48" viewBox="0 0 48 48" fill="none" xmlns="http://www.w3.org/2000/svg">
<path d="M21.67 27.45L23.98 26.67C24.21 26.6 24.41 26.48 24.59 26.31H24.6L41.41 9.45997L41.5 9.37997C41.76 9.10997 41.92 8.73997 41.92 8.35997C41.92 7.97997 41.77 7.61997 41.5 7.33997L40.56 6.39997C40.03 5.85997 39.06 5.84997 38.52 6.39997L21.58 23.3C21.42 23.47 21.3 23.68 21.22 23.9L20.44 26.23V26.26C20.37 26.43 20.38 26.59 20.42 26.77C20.46 26.94 20.56 27.1 20.67 27.21C20.79 27.33 20.94 27.42 21.11 27.47C21.19 27.49 21.27 27.5 21.35 27.5C21.44 27.5 21.53 27.49 21.63 27.46" fill="#1F2024"/>
<path d="M37.72 16.55L26.29 28C25.85 28.44 25.31 28.77 24.71 28.96L22.28 29.77C21.71 29.93 21.1 29.94 20.52 29.79C19.94 29.64 19.41 29.34 18.99 28.91C18.56 28.49 18.26 27.96 18.11 27.38C17.96 26.8 17.96 26.19 18.13 25.62L18.94 23.19C19.12 22.59 19.45 22.05 19.89 21.61L31.34 10.17C31.45 10.07 31.52 9.92997 31.55 9.78997C31.58 9.64997 31.56 9.48997 31.51 9.35997C31.45 9.21997 31.35 9.10997 31.23 9.01997C31.11 8.93997 30.96 8.88997 30.81 8.88997H11.25C9.86 8.88997 8.52 9.43997 7.54 10.43C6.55 11.41 6 12.75 6 14.14V36.64C6 38.03 6.55 39.37 7.54 40.35C8.52 41.33 9.86 41.89 11.25 41.89H33.75C35.14 41.89 36.48 41.34 37.46 40.35C38.45 39.37 39 38.03 39 36.64V17.08C39 16.93 38.96 16.79 38.87 16.66C38.79 16.54 38.67 16.44 38.54 16.38C38.4 16.32 38.25 16.31 38.1 16.34C37.96 16.37 37.82 16.44 37.72 16.54V16.55Z" fill="#1F2024"/>
</svg>
