<svg width="48" height="48" viewBox="0 0 48 48" fill="none" xmlns="http://www.w3.org/2000/svg">
<path d="M14.7749 42.16C9.92486 42.16 5.98486 38.22 5.98486 33.37V17.55C5.98486 12.7 9.92486 8.76 14.7749 8.76H23.0849C24.0249 8.76 24.7849 9.52 24.7849 10.46C24.7849 11.4 24.0249 12.16 23.0849 12.16H14.7749C11.8049 12.16 9.38486 14.58 9.38486 17.54V33.37C9.38486 36.34 11.8049 38.76 14.7749 38.76H30.6049C33.5749 38.76 35.9949 36.34 35.9949 33.37V24.15C35.9949 23.21 36.7549 22.45 37.6949 22.45C38.6349 22.45 39.3949 23.21 39.3949 24.15V33.37C39.3949 38.22 35.4549 42.16 30.6049 42.16H14.7749Z" fill="#1F2024"/>
<path d="M18.2449 30.93C17.8949 30.93 17.5549 30.79 17.3149 30.54C17.0449 30.27 16.9049 29.9 16.9249 29.53L17.2449 24.05C17.2549 23.81 17.3649 23.58 17.5349 23.41L33.6749 7.27C34.5949 6.35 35.8249 5.84 37.1349 5.84C38.4449 5.84 39.6649 6.35 40.5849 7.27C41.5949 8.28 42.0949 9.61 42.0049 11.04C41.9349 12.22 41.3849 13.38 40.4749 14.29L24.4449 30.31C24.2749 30.48 24.0449 30.58 23.8049 30.6L18.2449 30.93ZM19.9649 27.83L22.8749 27.68L35.0849 15.47L32.3749 12.76L20.1549 24.97L19.9549 27.83H19.9649ZM37.1949 13.37L38.4049 12.16C39.1649 11.4 39.2349 10.22 38.5749 9.47C38.2049 9.05 37.6849 8.81 37.1249 8.81C37.0549 8.81 36.9849 8.81 36.9149 8.82C36.4849 8.86 36.0549 9.09 35.6949 9.44L34.4849 10.66L37.1949 13.37Z" fill="#1F2024"/>
</svg>
