<svg width="48" height="48" viewBox="0 0 48 48" fill="none" xmlns="http://www.w3.org/2000/svg">
<path d="M38.0648 19.9288C37.5048 19.6988 36.8648 19.8188 36.4348 20.2488L24.7048 31.8588C24.4848 32.0788 24.1848 32.2188 23.8748 32.2388L17.2348 32.7888C16.6148 32.8388 16.0448 32.6288 15.6048 32.2088C15.1648 31.7888 14.9348 31.2088 14.9648 30.5988L15.2448 24.2288C15.2548 23.8988 15.3948 23.5788 15.6348 23.3488L27.2048 11.6788C27.6348 11.2488 27.7548 10.6088 27.5248 10.0488C27.2948 9.48878 26.7448 9.12878 26.1448 9.12878H14.5748C9.8348 9.12878 5.9848 12.9788 5.9848 17.7088V33.5388C5.9848 38.2688 9.8348 42.1288 14.5748 42.1288H30.4048C35.1348 42.1288 38.9948 38.2788 38.9948 33.5388V21.3088C38.9948 20.6988 38.6348 20.1588 38.0748 19.9288H38.0648Z" fill="#1F2024"/>
<path d="M18.5048 30.1988L23.4248 29.9088C23.5448 29.9088 23.6548 29.8488 23.7448 29.7688L36.7948 16.7188C36.9248 16.5888 36.9248 16.3888 36.7948 16.2588L31.5948 11.0588C31.4648 10.9288 31.2648 10.9288 31.1348 11.0588L18.0848 24.1088C18.0048 24.1888 17.9448 24.3088 17.9448 24.4288L17.6548 29.3488C17.6248 29.8388 18.0348 30.2388 18.5148 30.2088L18.5048 30.1988Z" fill="#1F2024"/>
<path d="M40.7548 6.91873C39.1548 5.41873 36.6148 5.56873 35.0648 7.11873L33.3848 8.79873C33.2548 8.92873 33.2548 9.12873 33.3848 9.25873L38.5848 14.4587C38.7148 14.5887 38.9148 14.5887 39.0448 14.4587L40.8448 12.6587C42.4348 11.0687 42.4048 8.46873 40.7548 6.90873V6.91873Z" fill="#1F2024"/>
</svg>
