<svg width="48" height="48" viewBox="0 0 48 48" fill="none" xmlns="http://www.w3.org/2000/svg">
<path d="M30.5998 41.955H14.7798C10.0498 41.955 6.18982 38.105 6.18982 33.365V17.545C6.18982 12.805 10.0398 8.95496 14.7798 8.95496H23.0898C23.9198 8.95496 24.5898 9.62496 24.5898 10.455C24.5898 11.285 23.9198 11.955 23.0898 11.955H14.7798C11.6998 11.955 9.18982 14.465 9.18982 17.545V33.375C9.18982 36.455 11.6998 38.965 14.7798 38.965H30.6098C33.6898 38.965 36.1998 36.455 36.1998 33.375V24.155C36.1998 23.325 36.8698 22.655 37.6998 22.655C38.5298 22.655 39.1998 23.325 39.1998 24.155V33.375C39.1998 38.105 35.3498 41.965 30.6098 41.965L30.5998 41.955Z" fill="#1F2024"/>
<path d="M40.4397 7.40504C39.5597 6.52504 38.3797 6.03504 37.1297 6.03504C35.8797 6.03504 34.6997 6.52504 33.8197 7.40504L17.6797 23.545C17.5397 23.685 17.4597 23.865 17.4497 24.055L17.1297 29.535C17.1097 29.855 17.2297 30.165 17.4597 30.395C17.6697 30.605 17.9597 30.725 18.2497 30.725C18.2697 30.725 18.2897 30.725 18.3197 30.725L23.7997 30.405C23.9897 30.395 24.1797 30.315 24.3097 30.175L40.3297 14.145C41.2097 13.265 41.7297 12.155 41.7997 11.025C41.8897 9.65504 41.3997 8.37504 40.4397 7.41504V7.40504ZM38.5397 12.295L37.1897 13.645L34.1997 10.655L35.5597 9.29504C35.9497 8.90504 36.4297 8.66504 36.8997 8.61504C37.5997 8.54504 38.2697 8.80504 38.7297 9.32504C39.4597 10.155 39.3797 11.465 38.5497 12.295H38.5397ZM19.7597 27.995L19.9797 24.885L32.3897 12.475L35.3797 15.465L22.9697 27.875L19.7997 28.045L19.7597 28.005V27.995Z" fill="#1F2024"/>
</svg>
