<svg width="48" height="48" viewBox="0 0 48 48" fill="none" xmlns="http://www.w3.org/2000/svg">
<path d="M37.5498 18.15C36.7498 18.15 36.0498 18.85 36.0498 19.65V36.85C36.0498 37.05 36.0498 37.35 35.9498 37.55C35.8498 37.55 35.8498 37.65 35.8498 37.65C35.7498 37.95 35.5498 38.15 35.3498 38.35C35.3498 38.45 35.2498 38.45 35.2498 38.55C35.1498 38.65 34.9498 38.75 34.7498 38.85L34.6498 38.95C34.3498 39.15 34.1498 39.15 33.8498 39.15H11.3498C10.7498 39.15 10.1498 38.95 9.6498 38.45C9.2498 38.05 9.0498 37.45 9.0498 36.95V14.45C9.0498 13.85 9.3498 13.25 9.7498 12.85C10.1498 12.35 10.7498 12.15 11.3498 12.15H27.0498C27.8498 12.15 28.5498 11.45 28.5498 10.65C28.5498 9.85 27.8498 9.15 27.0498 9.15H11.3498C9.8498 9.15 8.5498 9.65 7.5498 10.65C6.6498 11.65 6.0498 13.05 6.0498 14.45V36.95C6.0498 38.35 6.5498 39.65 7.5498 40.65L7.6498 40.75C8.7498 41.75 10.0498 42.25 11.3498 42.25H33.8498C34.5498 42.25 35.0498 42.15 35.8498 41.75C35.8498 41.65 35.9498 41.65 35.9498 41.65L36.1498 41.55C36.5498 41.35 37.1498 41.05 37.6498 40.45C38.0498 39.95 38.4498 39.45 38.6498 38.85C38.9498 38.25 39.0498 37.55 39.0498 36.85V19.65C39.0498 18.85 38.3498 18.15 37.5498 18.15Z" fill="#1F2024"/>
<path d="M41.5498 6.95L40.6498 6.05C40.3498 5.85 40.0498 5.75 39.6498 5.75C39.2498 5.75 38.9498 5.85 38.7498 6.05L21.8498 22.95C21.6498 23.15 21.5498 23.35 21.4498 23.55L20.6498 25.85C20.6498 25.85 20.4498 26.45 20.6498 26.75C20.7498 26.95 20.9498 26.95 21.2498 26.95C21.3498 26.95 21.5498 26.95 21.7498 26.85L24.0498 26.05C24.2498 25.95 24.4498 25.85 24.6498 25.65L41.5498 8.75C41.8498 8.45 41.9498 8.25 41.9498 7.85C41.9498 7.45 41.8498 7.15 41.5498 6.95Z" fill="#1F2024"/>
</svg>
