<svg width="48" height="48" viewBox="0 0 48 48" fill="none" xmlns="http://www.w3.org/2000/svg">
<path d="M30.5997 41.955H14.7797C10.0497 41.955 6.1897 38.105 6.1897 33.365V17.545C6.1897 12.805 10.0397 8.95496 14.7797 8.95496H23.0897C23.9197 8.95496 24.5897 9.62496 24.5897 10.455C24.5897 11.285 23.9197 11.955 23.0897 11.955H14.7797C11.6997 11.955 9.1897 14.465 9.1897 17.545V33.375C9.1897 36.455 11.6997 38.965 14.7797 38.965H30.6097C33.6897 38.965 36.1997 36.455 36.1997 33.375V24.155C36.1997 23.325 36.8697 22.655 37.6997 22.655C38.5297 22.655 39.1997 23.325 39.1997 24.155V33.375C39.1997 38.105 35.3497 41.965 30.6097 41.965L30.5997 41.955Z" fill="#1F2024"/>
<path d="M40.4396 7.40504C39.5596 6.52504 38.3796 6.03504 37.1296 6.03504C35.8796 6.03504 34.6996 6.52504 33.8196 7.40504L17.6796 23.545C17.5396 23.685 17.4596 23.865 17.4496 24.055L17.1296 29.535C17.1096 29.855 17.2296 30.165 17.4596 30.395C17.6696 30.605 17.9596 30.725 18.2496 30.725C18.2696 30.725 18.2896 30.725 18.3196 30.725L23.7996 30.405C23.9896 30.395 24.1796 30.315 24.3096 30.175L40.3296 14.145C41.2096 13.265 41.7296 12.155 41.7996 11.025C41.8896 9.65504 41.3996 8.37504 40.4396 7.41504V7.40504ZM38.5396 12.295L37.1896 13.645L34.1996 10.655L35.5596 9.29504C35.9496 8.90504 36.4296 8.66504 36.8996 8.61504C37.5996 8.54504 38.2696 8.80504 38.7296 9.32504C39.4596 10.155 39.3796 11.465 38.5496 12.295H38.5396ZM19.7596 27.995L19.9796 24.885L32.3896 12.475L35.3796 15.465L22.9696 27.875L19.7996 28.045L19.7596 28.005V27.995Z" fill="#1F2024"/>
</svg>
