<svg width="48" height="48" viewBox="0 0 48 48" fill="none" xmlns="http://www.w3.org/2000/svg">
<path d="M18.7547 29.9488L23.6747 29.6588C23.7947 29.6588 23.9047 29.5988 23.9947 29.5188L37.0447 16.4688C37.1747 16.3388 37.1747 16.1388 37.0447 16.0088L31.8447 10.8088C31.7147 10.6788 31.5147 10.6788 31.3847 10.8088L18.3347 23.8588C18.2547 23.9388 18.1947 24.0588 18.1947 24.1788L17.9047 29.0988C17.8747 29.5888 18.2847 29.9888 18.7647 29.9588H18.7547V29.9488Z" fill="#1F2024"/>
<path d="M41.0047 6.66876C39.4047 5.16876 36.8647 5.31876 35.3147 6.86876L33.6347 8.54876C33.5047 8.67876 33.5047 8.87876 33.6347 9.00876L38.8347 14.2088C38.9647 14.3388 39.1647 14.3388 39.2947 14.2088L41.0947 12.4088C42.6847 10.8188 42.6547 8.21876 41.0047 6.65876V6.66876Z" fill="#1F2024"/>
<path d="M37.7447 22.0788C36.6447 22.0788 35.7447 22.9788 35.7447 24.0788V33.2988C35.7447 36.1088 33.4647 38.3888 30.6547 38.3888H14.8247C12.0147 38.3888 9.73474 36.1088 9.73474 33.2988V17.4688C9.73474 14.6588 12.0147 12.3788 14.8247 12.3788H23.1347C24.2347 12.3788 25.1347 11.4788 25.1347 10.3788C25.1347 9.27876 24.2347 8.37876 23.1347 8.37876H14.8247C9.81474 8.37876 5.73474 12.4488 5.73474 17.4588V33.2888C5.73474 38.2988 9.81474 42.3788 14.8247 42.3788H30.6547C35.6647 42.3888 39.7447 38.3088 39.7447 33.2988V24.0788C39.7447 22.9788 38.8447 22.0788 37.7447 22.0788Z" fill="#1F2024"/>
</svg>
