<svg width="48" height="48" viewBox="0 0 48 48" fill="none" xmlns="http://www.w3.org/2000/svg">
<path d="M36.1156 7.45398C35.8249 7.1633 35.4307 7 35.0196 7C34.6085 7 34.2142 7.1633 33.9236 7.45398L26.2704 15.1072C25.6651 15.7125 25.6651 16.6939 26.2704 17.2992C26.8757 17.9045 27.8571 17.9045 28.4624 17.2992L33.479 12.2826V26.2566C33.479 33.1104 27.8015 39.049 20.8736 39.049C14.0279 39.049 9.25186 33.6398 9.25186 26.6993V21.5349C9.25186 20.6789 8.5579 19.9849 7.70186 19.9849C6.84581 19.9849 6.15186 20.6789 6.15186 21.5349V26.6993C6.15186 35.1046 12.0785 42.149 20.8736 42.149C29.5865 42.149 36.579 34.7486 36.579 26.2566V12.3015L41.5767 17.2992C42.1821 17.9045 43.1635 17.9045 43.7688 17.2992C44.3741 16.6939 44.3741 15.7125 43.7688 15.1072L36.1156 7.45398Z" fill="#1F2024"/>
<path d="M7.98707 11.4662C9.08881 11.4662 9.97414 10.5808 9.97414 9.47908C9.97414 8.37734 9.07898 7.49201 7.98707 7.49201C6.89517 7.49201 6 8.37734 6 9.47908C6 10.5808 6.88533 11.4662 7.98707 11.4662Z" fill="#1F2024"/>
<path d="M9.97414 15.1844C9.97414 16.2861 9.08881 17.1715 7.98707 17.1715C6.88533 17.1715 6 16.2861 6 15.1844C6 14.0827 6.88533 13.1973 7.98707 13.1973C9.08881 13.1973 9.97414 14.0827 9.97414 15.1844Z" fill="#1F2024"/>
</svg>
