<svg width="48" height="48" viewBox="0 0 48 48" fill="none" xmlns="http://www.w3.org/2000/svg">
<path fill-rule="evenodd" clip-rule="evenodd" d="M36.2919 7.20299C35.9543 6.86542 35.4965 6.67578 35.0191 6.67578C34.5417 6.67578 34.0839 6.86542 33.7463 7.20299L26.0931 14.8562C25.3902 15.5591 25.3902 16.6988 26.0931 17.4017C26.7961 18.1047 27.9358 18.1047 28.6387 17.4017L33.2285 12.8119V26.1824C33.2285 32.904 27.6571 38.7248 20.8731 38.7248C14.1842 38.7248 9.50137 33.4471 9.50137 26.6251V21.4607C9.50137 20.4666 8.69548 19.6607 7.70137 19.6607C6.70725 19.6607 5.90137 20.4666 5.90137 21.4607V26.6251C5.90137 35.1482 11.9205 42.3248 20.8731 42.3248C29.7301 42.3248 36.8285 34.8064 36.8285 26.1824V12.8308L41.3995 17.4017C42.1024 18.1047 43.2421 18.1047 43.9451 17.4017C44.648 16.6988 44.648 15.5591 43.9451 14.8562L36.2919 7.20299Z" fill="#1F2024"/>
<path fill-rule="evenodd" clip-rule="evenodd" d="M8.0499 11.6921C9.24176 11.6921 10.1999 10.734 10.1999 9.54209C10.1999 8.34991 9.23129 7.39209 8.0499 7.39209C6.86851 7.39209 5.8999 8.34991 5.8999 9.54209C5.8999 10.734 6.85804 11.6921 8.0499 11.6921Z" fill="#1F2024"/>
<path fill-rule="evenodd" clip-rule="evenodd" d="M8.0499 17.3974C9.24176 17.3974 10.1999 16.4393 10.1999 15.2474C10.1999 14.0555 9.24176 13.0974 8.0499 13.0974C6.85804 13.0974 5.8999 14.0555 5.8999 15.2474C5.8999 16.4393 6.85804 17.3974 8.0499 17.3974Z" fill="#1F2024"/>
</svg>
