<svg width="48" height="48" viewBox="0 0 48 48" fill="none" xmlns="http://www.w3.org/2000/svg">
<path d="M17.1501 40.135C19.2301 40.995 21.4601 41.435 23.7201 41.435C24.8401 41.435 25.9701 41.325 27.0901 41.115C30.4301 40.465 33.4601 38.855 35.8501 36.465C36.3501 35.965 36.3501 35.145 35.8501 34.645C35.3501 34.145 34.5301 34.145 34.0301 34.645C31.9901 36.675 29.4201 38.045 26.5901 38.595C23.7101 39.155 20.7801 38.865 18.1301 37.765C15.4001 36.635 13.1501 34.795 11.6001 32.425C9.98006 30.085 9.13006 27.295 9.13006 24.355C9.13006 21.415 9.98006 18.625 11.6201 16.255C13.1601 13.905 15.4101 12.065 18.1401 10.935C20.7901 9.835 23.7201 9.555 26.6001 10.105C29.4301 10.655 32.0001 12.015 34.0401 14.055C36.0001 16.015 36.9501 17.145 37.4101 17.765H28.9501C28.2401 17.765 27.6601 18.345 27.6601 19.055C27.6601 19.765 28.2401 20.345 28.9501 20.345H40.1501C40.8601 20.345 41.4401 19.765 41.4401 19.055V7.855C41.4401 7.145 40.8601 6.565 40.1501 6.565C39.4401 6.565 38.8601 7.145 38.8601 7.855V15.465C38.1601 14.625 37.1901 13.575 35.8501 12.245C33.4501 9.845 30.4201 8.235 27.0901 7.595C23.7101 6.935 20.2701 7.275 17.1501 8.565C13.9401 9.895 11.2901 12.065 9.48006 14.825C7.57006 17.585 6.56006 20.885 6.56006 24.355C6.56006 27.825 7.57006 31.115 9.47006 33.855C11.2901 36.635 13.9501 38.815 17.1501 40.135Z" fill="#1F2024"/>
</svg>
