<svg width="48" height="48" viewBox="0 0 48 48" fill="none" xmlns="http://www.w3.org/2000/svg">
<path d="M42.334 6.50001C43.1888 6.50001 43.8932 7.14341 43.9895 7.97231L44.0007 8.16668V17.3334C44.0007 18.1881 43.3573 18.8925 42.5284 18.9888L42.334 19H34.0007C33.0802 19 32.334 18.2538 32.334 17.3334C32.334 16.4786 32.9774 15.7742 33.8063 15.6779L34.0007 15.6667L40.6674 15.6667L40.6674 8.16668C40.6674 7.31195 41.3108 6.6075 42.1397 6.51122L42.334 6.50001Z" fill="#1F2024"/>
<path d="M24.1037 4C32.0246 4 39.0821 8.5562 42.9987 16.604C43.4015 17.4317 43.057 18.4292 42.2294 18.832C41.4017 19.2348 40.4042 18.8903 40.0014 18.0627C36.6351 11.1454 30.7302 7.33334 24.1037 7.33334C14.8762 7.33334 7.33334 14.8178 7.33334 24C7.33334 33.1822 14.8763 40.6667 24.1037 40.6667C30.221 40.6667 35.9739 37.1588 38.3431 32.4212C38.7548 31.598 39.756 31.2643 40.5792 31.676C41.4025 32.0877 41.7361 33.0889 41.3244 33.9121C38.3871 39.7858 31.4758 44 24.1037 44C13.0411 44 4 35.029 4 24C4 12.971 13.0411 4 24.1037 4Z" fill="#1F2024"/>
</svg>
