<svg width="48" height="48" viewBox="0 0 48 48" fill="none" xmlns="http://www.w3.org/2000/svg">
<path d="M40.145 6.26501C39.265 6.26501 38.565 6.97501 38.565 7.84501V14.635C37.905 13.895 37.085 13.035 36.075 12.025C33.635 9.58501 30.545 7.94501 27.155 7.29501C23.715 6.62501 20.225 6.97501 17.045 8.28501C13.785 9.63501 11.075 11.845 9.24501 14.645C7.29501 17.465 6.26501 20.825 6.26501 24.345C6.26501 27.865 7.29501 31.225 9.22501 34.015C11.075 36.845 13.785 39.065 17.045 40.415C19.165 41.295 21.435 41.735 23.725 41.735C24.865 41.735 26.015 41.625 27.155 41.405C30.545 40.745 33.635 39.115 36.075 36.665C36.695 36.045 36.695 35.045 36.075 34.425C35.455 33.805 34.455 33.805 33.835 34.425C31.845 36.415 29.325 37.755 26.555 38.295C23.725 38.835 20.865 38.565 18.265 37.485C15.595 36.375 13.385 34.575 11.865 32.245C10.285 29.955 9.44501 27.225 9.44501 24.345C9.44501 21.465 10.285 18.735 11.885 16.415C13.385 14.115 15.595 12.315 18.265 11.215C20.865 10.135 23.735 9.86501 26.555 10.405C29.325 10.945 31.845 12.275 33.835 14.265C35.365 15.795 36.265 16.805 36.795 17.455H28.955C28.075 17.455 27.375 18.165 27.375 19.035C27.375 19.905 28.085 20.615 28.955 20.615H40.155C41.035 20.615 41.735 19.905 41.735 19.035V7.84501C41.735 6.96501 41.025 6.26501 40.155 6.26501H40.145Z" fill="#1F2024"/>
</svg>
