<svg width="48" height="48" viewBox="0 0 48 48" fill="none" xmlns="http://www.w3.org/2000/svg">
<path d="M40.1352 6.06006C39.1452 6.06006 38.3452 6.86006 38.3452 7.85006V14.1201C37.7452 13.4601 37.0352 12.7301 36.1952 11.8801C33.7252 9.41006 30.6052 7.75006 27.1752 7.09006C23.7052 6.41006 20.1652 6.76006 16.9552 8.09006C13.6552 9.46006 10.9152 11.6901 9.07518 14.5201C7.09518 17.3801 6.05518 20.7801 6.05518 24.3501C6.05518 27.9201 7.09518 31.3101 9.04518 34.1301C10.9252 37.0001 13.6552 39.2401 16.9552 40.6001C19.1052 41.4901 21.3952 41.9401 23.7152 41.9401C24.8652 41.9401 26.0252 41.8301 27.1852 41.6101C30.6152 40.9401 33.7352 39.2901 36.2052 36.8201C36.9052 36.1201 36.9052 34.9901 36.2052 34.3001C35.5052 33.6001 34.3752 33.6001 33.6852 34.3001C31.7252 36.2601 29.2352 37.5801 26.5052 38.1101C23.7152 38.6501 20.8852 38.3701 18.3252 37.3101C15.6952 36.2201 13.5152 34.4501 12.0152 32.1401C10.4552 29.8901 9.63518 27.2001 9.63518 24.3601C9.63518 21.5201 10.4552 18.8301 12.0452 16.5401C13.5252 14.2801 15.7052 12.5001 18.3352 11.4101C20.8952 10.3501 23.7252 10.0701 26.5152 10.6101C29.2452 11.1401 31.7252 12.4501 33.6952 14.4201C34.9852 15.7101 35.8252 16.6301 36.3752 17.2701H28.9552C27.9652 17.2701 27.1652 18.0701 27.1652 19.0601C27.1652 20.0501 27.9652 20.8501 28.9552 20.8501H40.1552C41.1452 20.8501 41.9452 20.0501 41.9452 19.0601V7.85006C41.9452 6.86006 41.1452 6.06006 40.1552 6.06006H40.1352Z" fill="#1F2024"/>
</svg>
