<svg width="48" height="48" viewBox="0 0 48 48" fill="none" xmlns="http://www.w3.org/2000/svg">
<path d="M40.1349 6.06C39.1449 6.06 38.3449 6.86 38.3449 7.85V14.12C37.7449 13.46 37.0349 12.73 36.1949 11.88C33.7249 9.41 30.6049 7.75 27.1749 7.09C23.7049 6.41 20.1649 6.76 16.9549 8.09C13.6549 9.46 10.9149 11.69 9.07493 14.52C7.09493 17.38 6.05493 20.78 6.05493 24.35C6.05493 27.92 7.09493 31.31 9.04493 34.13C10.9249 37 13.6549 39.24 16.9549 40.6C19.1049 41.49 21.3949 41.94 23.7149 41.94C24.8649 41.94 26.0249 41.83 27.1849 41.61C30.6149 40.94 33.7349 39.29 36.2049 36.82C36.9049 36.12 36.9049 34.99 36.2049 34.3C35.5049 33.6 34.3749 33.6 33.6849 34.3C31.7249 36.26 29.2349 37.58 26.5049 38.11C23.7149 38.65 20.8849 38.37 18.3249 37.31C15.6949 36.22 13.5149 34.45 12.0149 32.14C10.4549 29.89 9.63493 27.2 9.63493 24.36C9.63493 21.52 10.4549 18.83 12.0449 16.54C13.5249 14.28 15.7049 12.5 18.3349 11.41C20.8949 10.35 23.7249 10.07 26.5149 10.61C29.2449 11.14 31.7249 12.45 33.6949 14.42C34.9849 15.71 35.8249 16.63 36.3749 17.27H28.9549C27.9649 17.27 27.1649 18.07 27.1649 19.06C27.1649 20.05 27.9649 20.85 28.9549 20.85H40.1549C41.1449 20.85 41.9449 20.05 41.9449 19.06V7.85C41.9449 6.86 41.1449 6.06 40.1549 6.06H40.1349Z" fill="#1F2024"/>
</svg>
