<svg width="48" height="48" viewBox="0 0 48 48" fill="none" xmlns="http://www.w3.org/2000/svg">
<path d="M40.1351 6.06C39.1451 6.06 38.3451 6.86 38.3451 7.85V14.12C37.7451 13.46 37.0351 12.73 36.1951 11.88C33.7251 9.41 30.6051 7.75 27.1751 7.09C23.7051 6.41 20.1651 6.76 16.9551 8.09C13.6551 9.46 10.9151 11.69 9.07505 14.52C7.09505 17.38 6.05505 20.78 6.05505 24.35C6.05505 27.92 7.09505 31.31 9.04505 34.13C10.9251 37 13.6551 39.24 16.9551 40.6C19.1051 41.49 21.3951 41.94 23.7151 41.94C24.8651 41.94 26.0251 41.83 27.1851 41.61C30.6151 40.94 33.7351 39.29 36.2051 36.82C36.9051 36.12 36.9051 34.99 36.2051 34.3C35.5051 33.6 34.3751 33.6 33.6851 34.3C31.7251 36.26 29.2351 37.58 26.5051 38.11C23.7151 38.65 20.8851 38.37 18.3251 37.31C15.6951 36.22 13.5151 34.45 12.0151 32.14C10.4551 29.89 9.63505 27.2 9.63505 24.36C9.63505 21.52 10.4551 18.83 12.0451 16.54C13.5251 14.28 15.7051 12.5 18.3351 11.41C20.8951 10.35 23.7251 10.07 26.5151 10.61C29.2451 11.14 31.7251 12.45 33.6951 14.42C34.9851 15.71 35.8251 16.63 36.3751 17.27H28.9551C27.9651 17.27 27.1651 18.07 27.1651 19.06C27.1651 20.05 27.9651 20.85 28.9551 20.85H40.1551C41.1451 20.85 41.9451 20.05 41.9451 19.06V7.85C41.9451 6.86 41.1451 6.06 40.1551 6.06H40.1351Z" fill="#1F2024"/>
</svg>
