<svg width="48" height="48" viewBox="0 0 48 48" fill="none" xmlns="http://www.w3.org/2000/svg">
<path d="M17.1501 40.1349C19.2301 40.9949 21.4601 41.4349 23.7201 41.4349C24.8401 41.4349 25.9701 41.3249 27.0901 41.1149C30.4301 40.4649 33.4601 38.8549 35.8501 36.4649C36.3501 35.9649 36.3501 35.1449 35.8501 34.6449C35.3501 34.1449 34.5301 34.1449 34.0301 34.6449C31.9901 36.6749 29.4201 38.0449 26.5901 38.5949C23.7101 39.1549 20.7801 38.8649 18.1301 37.7649C15.4001 36.6349 13.1501 34.7949 11.6001 32.4249C9.98006 30.0849 9.13006 27.2949 9.13006 24.3549C9.13006 21.4149 9.98006 18.6249 11.6201 16.2549C13.1601 13.9049 15.4101 12.0649 18.1401 10.9349C20.7901 9.83494 23.7201 9.55494 26.6001 10.1049C29.4301 10.6549 32.0001 12.0149 34.0401 14.0549C36.0001 16.0149 36.9501 17.1449 37.4101 17.7649H28.9501C28.2401 17.7649 27.6601 18.3449 27.6601 19.0549C27.6601 19.7649 28.2401 20.3449 28.9501 20.3449H40.1501C40.8601 20.3449 41.4401 19.7649 41.4401 19.0549V7.85494C41.4401 7.14494 40.8601 6.56494 40.1501 6.56494C39.4401 6.56494 38.8601 7.14494 38.8601 7.85494V15.4649C38.1601 14.6249 37.1901 13.5749 35.8501 12.2449C33.4501 9.84494 30.4201 8.23494 27.0901 7.59494C23.7101 6.93494 20.2701 7.27494 17.1501 8.56494C13.9401 9.89494 11.2901 12.0649 9.48006 14.8249C7.57006 17.5849 6.56006 20.8849 6.56006 24.3549C6.56006 27.8249 7.57006 31.1149 9.47006 33.8549C11.2901 36.6349 13.9501 38.8149 17.1501 40.1349Z" fill="#1F2024"/>
</svg>
