<svg width="48" height="48" viewBox="0 0 48 48" fill="none" xmlns="http://www.w3.org/2000/svg">
<path d="M40.1451 6.26489C39.2651 6.26489 38.5651 6.97489 38.5651 7.84489V14.6349C37.9051 13.8949 37.0851 13.0349 36.0751 12.0249C33.6351 9.58489 30.5451 7.94489 27.1551 7.29489C23.7151 6.62489 20.2251 6.97489 17.0451 8.28489C13.7851 9.63489 11.0751 11.8449 9.24514 14.6449C7.29514 17.4649 6.26514 20.8249 6.26514 24.3449C6.26514 27.8649 7.29514 31.2249 9.22514 34.0149C11.0751 36.8449 13.7851 39.0649 17.0451 40.4149C19.1651 41.2949 21.4351 41.7349 23.7251 41.7349C24.8651 41.7349 26.0151 41.6249 27.1551 41.4049C30.5451 40.7449 33.6351 39.1149 36.0751 36.6649C36.6951 36.0449 36.6951 35.0449 36.0751 34.4249C35.4551 33.8049 34.4551 33.8049 33.8351 34.4249C31.8451 36.4149 29.3251 37.7549 26.5551 38.2949C23.7251 38.8349 20.8651 38.5649 18.2651 37.4849C15.5951 36.3749 13.3851 34.5749 11.8651 32.2449C10.2851 29.9549 9.44514 27.2249 9.44514 24.3449C9.44514 21.4649 10.2851 18.7349 11.8851 16.4149C13.3851 14.1149 15.5951 12.3149 18.2651 11.2149C20.8651 10.1349 23.7351 9.86489 26.5551 10.4049C29.3251 10.9449 31.8451 12.2749 33.8351 14.2649C35.3651 15.7949 36.2651 16.8049 36.7951 17.4549H28.9551C28.0751 17.4549 27.3751 18.1649 27.3751 19.0349C27.3751 19.9049 28.0851 20.6149 28.9551 20.6149H40.1551C41.0351 20.6149 41.7351 19.9049 41.7351 19.0349V7.84489C41.7351 6.96489 41.0251 6.26489 40.1551 6.26489H40.1451Z" fill="#1F2024"/>
</svg>
