<svg width="48" height="48" viewBox="0 0 48 48" fill="none" xmlns="http://www.w3.org/2000/svg">
<path d="M40.1449 6.26501C39.2649 6.26501 38.5649 6.97501 38.5649 7.84501V14.635C37.9049 13.895 37.0849 13.035 36.0749 12.025C33.6349 9.58501 30.5449 7.94501 27.1549 7.29501C23.7149 6.62501 20.2249 6.97501 17.0449 8.28501C13.7849 9.63501 11.0749 11.845 9.24489 14.645C7.29489 17.465 6.26489 20.825 6.26489 24.345C6.26489 27.865 7.29489 31.225 9.22489 34.015C11.0749 36.845 13.7849 39.065 17.0449 40.415C19.1649 41.295 21.4349 41.735 23.7249 41.735C24.8649 41.735 26.0149 41.625 27.1549 41.405C30.5449 40.745 33.6349 39.115 36.0749 36.665C36.6949 36.045 36.6949 35.045 36.0749 34.425C35.4549 33.805 34.4549 33.805 33.8349 34.425C31.8449 36.415 29.3249 37.755 26.5549 38.295C23.7249 38.835 20.8649 38.565 18.2649 37.485C15.5949 36.375 13.3849 34.575 11.8649 32.245C10.2849 29.955 9.44489 27.225 9.44489 24.345C9.44489 21.465 10.2849 18.735 11.8849 16.415C13.3849 14.115 15.5949 12.315 18.2649 11.215C20.8649 10.135 23.7349 9.86501 26.5549 10.405C29.3249 10.945 31.8449 12.275 33.8349 14.265C35.3649 15.795 36.2649 16.805 36.7949 17.455H28.9549C28.0749 17.455 27.3749 18.165 27.3749 19.035C27.3749 19.905 28.0849 20.615 28.9549 20.615H40.1549C41.0349 20.615 41.7349 19.905 41.7349 19.035V7.84501C41.7349 6.96501 41.0249 6.26501 40.1549 6.26501H40.1449Z" fill="#1F2024"/>
</svg>
