<svg width="48" height="48" viewBox="0 0 48 48" fill="none" xmlns="http://www.w3.org/2000/svg">
<path d="M10.3125 32C12.7125 34.2 15.4125 35.7 18.3125 36.3C19.3125 36.5 20.4125 36.6 21.5125 36.6C23.5125 36.6 25.6125 36.2 27.5125 35.4C28.8125 34.9 29.9125 34.2 31.0125 33.3L40.3125 42.7C40.6125 43 40.9125 43.1 41.2125 43.1C41.5125 43.1 41.9125 43 42.1125 42.7C42.6125 42.2 42.6125 41.3 42.1125 40.8L32.9125 31.5C33.5125 30.9 34.0125 30.3 34.5125 29.6C36.2125 27 37.1125 24 37.1125 20.8C37.1125 16.6 35.5125 12.6 32.5125 9.50002C29.4125 6.60002 25.5125 4.90002 21.3125 4.90002C18.3125 4.90002 15.2125 5.80002 12.5125 7.50002C10.0125 9.20002 8.01251 11.6 6.71251 14.6C5.51251 17.6 5.21251 20.8 5.81251 23.8C6.61251 27.1 8.11251 29.9 10.3125 32V32ZM9.21251 15.7C10.2125 13.2 11.9125 11.2 14.0125 9.80002C16.3125 8.40002 18.9125 7.60002 21.4125 7.60002C24.9125 7.60002 28.2125 9.00002 30.7125 11.4C33.2125 14 34.5125 17.3 34.5125 20.8C34.5125 23.5 33.7125 26 32.3125 28.1C30.8125 30.2 28.7125 31.9 26.4125 32.9C23.9125 33.9 21.3125 34.2 18.8125 33.6C16.3125 33.1 14.0125 31.8 12.0125 29.9C10.2125 28.2 9.01251 25.9 8.41251 23.2C8.01251 20.8 8.21251 18.2 9.21251 15.7V15.7Z" fill="#1F2024"/>
</svg>
