<svg width="48" height="48" viewBox="0 0 48 48" fill="none" xmlns="http://www.w3.org/2000/svg">
<path d="M41.1 40L32.1 30.9C32.6 30.3 33.1 29.8 33.5 29.1C35.3 26.4 36.2 23.3 36.2 20.1C36.2 15.8 34.5 11.7 31.5 8.7C28.5 5.7 24.4 4 20.1 4C16.9 4 13.8 4.9 11.1 6.7C8.4 8.5 6.4 11 5.2 13.9C4 16.9 3.7 20.1 4.3 23.2C4.9 26.3 6.5 29.2 8.7 31.5C11 33.8 13.8 35.3 17 35.9C18 36.1 19.1 36.2 20.2 36.2C22.3 36.2 24.4 35.8 26.4 35C27.6 34.5 28.8 33.8 29.9 33L39 42.2C39.3 42.5 39.7 42.7 40.2 42.7C40.6 42.7 41 42.5 41.4 42.2C41.8 41.7 41.8 40.6 41.1 40V40ZM25 32.1C22.6 33.1 20.1 33.3 17.6 32.8C15.1 32.3 12.8 31.1 11 29.3C9.2 27.5 8 25.2 7.5 22.7C7 20.2 7.3 17.6 8.2 15.3C9.2 12.9 10.8 10.9 12.9 9.5C15 8.1 17.5 7.3 20 7.3C23.4 7.3 26.7 8.6 29.1 11.1C31.5 13.5 32.9 16.8 32.9 20.2C32.9 22.8 32.1 25.2 30.7 27.3C29.4 29.5 27.4 31.1 25 32.1V32.1Z" fill="#1F2024"/>
</svg>
