<svg width="48" height="48" viewBox="0 0 48 48" fill="none" xmlns="http://www.w3.org/2000/svg">
<path d="M42.2648 40.65L33.2648 31.55C33.7648 30.95 34.2648 30.45 34.6648 29.75C36.4648 27.05 37.3648 23.95 37.3648 20.75C37.3648 16.45 35.6648 12.35 32.6648 9.35002C29.6648 6.35002 25.5648 4.65002 21.2648 4.65002C18.0648 4.65002 14.9648 5.55002 12.2648 7.35002C9.56479 9.15002 7.5648 11.65 6.36479 14.55C5.16479 17.55 4.86479 20.75 5.46479 23.85C6.06479 26.95 7.66479 29.85 9.86479 32.15C12.1648 34.45 14.9648 35.95 18.1648 36.55C19.1648 36.75 20.2648 36.85 21.3648 36.85C23.4648 36.85 25.5648 36.45 27.5648 35.65C28.7648 35.15 29.9648 34.45 31.0648 33.65L40.1648 42.85C40.4648 43.15 40.8648 43.35 41.3648 43.35C41.7648 43.35 42.1648 43.15 42.5648 42.85C42.9648 42.35 42.9648 41.25 42.2648 40.65V40.65ZM26.1648 32.75C23.7648 33.75 21.2648 33.95 18.7648 33.45C16.2648 32.95 13.9648 31.75 12.1648 29.95C10.3648 28.15 9.16479 25.85 8.66479 23.35C8.16479 20.85 8.46479 18.25 9.36479 15.95C10.3648 13.55 11.9648 11.55 14.0648 10.15C16.1648 8.75002 18.6648 7.95002 21.1648 7.95002C24.5648 7.95002 27.8648 9.25002 30.2648 11.75C32.6648 14.15 34.0648 17.45 34.0648 20.85C34.0648 23.45 33.2648 25.85 31.8648 27.95C30.5648 30.15 28.5648 31.75 26.1648 32.75V32.75Z" fill="#1F2024"/>
</svg>
