<svg width="48" height="48" viewBox="0 0 48 48" fill="none" xmlns="http://www.w3.org/2000/svg">
<path d="M33.7214 31.4C34.2214 30.9 34.6214 30.4 35.0214 29.8C36.8214 27.1 37.7214 24 37.7214 20.7C37.7214 16.4 36.0214 12.3 32.9214 9.10002C29.7214 6.10002 25.6214 4.40002 21.3214 4.40002C18.2214 4.40002 15.0214 5.30002 12.2214 7.10002C9.62136 8.90002 7.52136 11.4 6.22136 14.4C4.92136 17.5 4.62136 20.8 5.32136 23.9C6.02136 27.2 7.62136 30.1 9.82136 32.3C12.2214 34.6 15.0214 36.1 18.1214 36.8C19.2214 37 20.3214 37.1 21.4214 37.1C23.5214 37.1 25.6214 36.7 27.6214 35.9C28.8214 35.4 29.9214 34.8 30.9214 34L39.9214 43.1C40.3214 43.5 40.7214 43.6 41.2214 43.6C41.7214 43.6 42.1214 43.4 42.5214 43.1C43.2214 42.4 43.2214 41.2 42.5214 40.5L33.7214 31.4V31.4ZM26.2214 32.4C23.8214 33.4 21.3214 33.6 18.9214 33.1C16.5214 32.6 14.3214 31.4 12.4214 29.6C10.7214 28 9.52136 25.7 8.92136 23.2C8.42136 20.8 8.62136 18.3 9.62136 15.9C10.6214 13.5 12.2214 11.6 14.2214 10.2C16.4214 8.80002 18.9214 8.10002 21.3214 8.10002C24.7214 8.10002 27.9214 9.40002 30.3214 11.7C32.7214 14.2 34.0214 17.4 34.0214 20.7C34.0214 23.3 33.3214 25.7 31.9214 27.7C30.5214 29.8 28.4214 31.4 26.2214 32.4V32.4Z" fill="#1F2024"/>
</svg>
