<svg width="48" height="48" viewBox="0 0 48 48" fill="none" xmlns="http://www.w3.org/2000/svg">
<path d="M33.7211 31.3999C34.2211 30.8999 34.6211 30.3999 35.0211 29.7999C36.8211 27.0999 37.7211 23.9999 37.7211 20.6999C37.7211 16.3999 36.0211 12.2999 32.9211 9.0999C29.7211 6.0999 25.6211 4.3999 21.3211 4.3999C18.2211 4.3999 15.0211 5.2999 12.2211 7.0999C9.62111 8.8999 7.52111 11.3999 6.22111 14.3999C4.92111 17.4999 4.62111 20.7999 5.32111 23.8999C6.02111 27.1999 7.62111 30.0999 9.82111 32.2999C12.2211 34.5999 15.0211 36.0999 18.1211 36.7999C19.2211 36.9999 20.3211 37.0999 21.4211 37.0999C23.5211 37.0999 25.6211 36.6999 27.6211 35.8999C28.8211 35.3999 29.9211 34.7999 30.9211 33.9999L39.9211 43.0999C40.3211 43.4999 40.7211 43.5999 41.2211 43.5999C41.7211 43.5999 42.1211 43.3999 42.5211 43.0999C43.2211 42.3999 43.2211 41.1999 42.5211 40.4999L33.7211 31.3999V31.3999ZM26.2211 32.3999C23.8211 33.3999 21.3211 33.5999 18.9211 33.0999C16.5211 32.5999 14.3211 31.3999 12.4211 29.5999C10.7211 27.9999 9.52111 25.6999 8.92111 23.1999C8.42111 20.7999 8.62111 18.2999 9.62111 15.8999C10.6211 13.4999 12.2211 11.5999 14.2211 10.1999C16.4211 8.7999 18.9211 8.0999 21.3211 8.0999C24.7211 8.0999 27.9211 9.3999 30.3211 11.6999C32.7211 14.1999 34.0211 17.3999 34.0211 20.6999C34.0211 23.2999 33.3211 25.6999 31.9211 27.6999C30.5211 29.7999 28.4211 31.3999 26.2211 32.3999V32.3999Z" fill="#1F2024"/>
</svg>
