<svg width="48" height="48" viewBox="0 0 48 48" fill="none" xmlns="http://www.w3.org/2000/svg">
<path d="M42.9099 40.0601L34.3999 31.4601C34.7499 31.0501 35.0899 30.6201 35.3999 30.1701C37.2299 27.4201 38.1999 24.1601 38.1999 20.7401C38.1999 16.2801 36.4699 12.0301 33.2699 8.7101C30.0099 5.5801 25.7599 3.8501 21.2999 3.8501C18.0599 3.8501 14.8199 4.8101 11.8699 6.6501C9.14988 8.4601 7.01988 11.0701 5.67988 14.2401C4.37988 17.4301 4.05988 20.8201 4.75988 24.0501C5.48988 27.4701 7.11988 30.4601 9.40988 32.6401C11.7199 34.9501 14.7699 36.6001 17.9999 37.2901C19.1099 37.5301 20.2399 37.6501 21.3699 37.6501C23.5399 37.6501 25.7199 37.2201 27.8299 36.3601C28.8799 35.9201 29.8899 35.3501 30.8399 34.7001L39.4899 43.4401C39.9599 43.9101 40.5799 44.1501 41.1999 44.1501C41.8199 44.1501 42.4199 43.9201 42.8899 43.4601C43.8299 42.5301 43.8399 41.0101 42.9099 40.0701V40.0601ZM25.9999 31.9301C23.7099 32.8601 21.2899 33.1001 19.0099 32.6101C16.6699 32.1101 14.4599 30.9201 12.7599 29.2201C11.1299 27.6601 9.97988 25.5301 9.44988 23.0501C8.95988 20.7601 9.18988 18.3501 10.1099 16.0901C11.0699 13.8201 12.5999 11.9401 14.4699 10.6901C16.5999 9.3601 18.9599 8.6501 21.2999 8.6501C24.5099 8.6501 27.5699 9.9001 29.8699 12.1201C32.1399 14.4801 33.3999 17.5501 33.3999 20.7501C33.3999 23.2201 32.7099 25.5601 31.4299 27.4801C30.0599 29.4401 28.1199 31.0301 25.9899 31.9301H25.9999Z" fill="#1F2024"/>
</svg>
