<svg width="48" height="48" viewBox="0 0 48 48" fill="none" xmlns="http://www.w3.org/2000/svg">
<path d="M10.3127 31.9999C12.7127 34.1999 15.4127 35.6999 18.3127 36.2999C19.3127 36.4999 20.4127 36.5999 21.5127 36.5999C23.5127 36.5999 25.6127 36.1999 27.5127 35.3999C28.8127 34.8999 29.9127 34.1999 31.0127 33.2999L40.3127 42.6999C40.6127 42.9999 40.9127 43.0999 41.2127 43.0999C41.5127 43.0999 41.9127 42.9999 42.1127 42.6999C42.6127 42.1999 42.6127 41.2999 42.1127 40.7999L32.9127 31.4999C33.5127 30.8999 34.0127 30.2999 34.5127 29.5999C36.2127 26.9999 37.1127 23.9999 37.1127 20.7999C37.1127 16.5999 35.5127 12.5999 32.5127 9.4999C29.4127 6.5999 25.5127 4.8999 21.3127 4.8999C18.3127 4.8999 15.2127 5.7999 12.5127 7.4999C10.0127 9.1999 8.0127 11.5999 6.7127 14.5999C5.5127 17.5999 5.2127 20.7999 5.8127 23.7999C6.6127 27.0999 8.1127 29.8999 10.3127 31.9999V31.9999ZM9.2127 15.6999C10.2127 13.1999 11.9127 11.1999 14.0127 9.7999C16.3127 8.3999 18.9127 7.5999 21.4127 7.5999C24.9127 7.5999 28.2127 8.9999 30.7127 11.3999C33.2127 13.9999 34.5127 17.2999 34.5127 20.7999C34.5127 23.4999 33.7127 25.9999 32.3127 28.0999C30.8127 30.1999 28.7127 31.8999 26.4127 32.8999C23.9127 33.8999 21.3127 34.1999 18.8127 33.5999C16.3127 33.0999 14.0127 31.7999 12.0127 29.8999C10.2127 28.1999 9.0127 25.8999 8.4127 23.1999C8.0127 20.7999 8.2127 18.1999 9.2127 15.6999V15.6999Z" fill="#1F2024"/>
</svg>
