<svg width="48" height="48" viewBox="0 0 48 48" fill="none" xmlns="http://www.w3.org/2000/svg">
<g clip-path="url(#clip0_362_142295)">
<path d="M42.91 40.06L34.4 31.46C34.75 31.05 35.09 30.62 35.4 30.17C37.23 27.42 38.2 24.16 38.2 20.74C38.2 16.28 36.47 12.03 33.27 8.70998C30.01 5.57998 25.76 3.84998 21.3 3.84998C18.06 3.84998 14.82 4.80998 11.87 6.64998C9.15 8.45998 7.02 11.07 5.68 14.24C4.38 17.43 4.06 20.82 4.76 24.05C5.49 27.47 7.12 30.46 9.41 32.64C11.72 34.95 14.77 36.6 18 37.29C19.11 37.53 20.24 37.65 21.37 37.65C23.54 37.65 25.72 37.22 27.83 36.36C28.88 35.92 29.89 35.35 30.84 34.7L39.49 43.44C39.96 43.91 40.58 44.15 41.2 44.15C41.82 44.15 42.42 43.92 42.89 43.46C43.83 42.53 43.84 41.01 42.91 40.07V40.06ZM26 31.93C23.71 32.86 21.29 33.1 19.01 32.61C16.67 32.11 14.46 30.92 12.76 29.22C11.13 27.66 9.98 25.53 9.45 23.05C8.96 20.76 9.19 18.35 10.11 16.09C11.07 13.82 12.6 11.94 14.47 10.69C16.6 9.35998 18.96 8.64998 21.3 8.64998C24.51 8.64998 27.57 9.89998 29.87 12.12C32.14 14.48 33.4 17.55 33.4 20.75C33.4 23.22 32.71 25.56 31.43 27.48C30.06 29.44 28.12 31.03 25.99 31.93H26Z" fill="#1F2024"/>
</g>
<defs>
<clipPath id="clip0_362_142295">
<rect width="39.2" height="40.3" fill="white" transform="translate(4.40002 3.84998)"/>
</clipPath>
</defs>
</svg>
