<svg width="48" height="48" viewBox="0 0 48 48" fill="none" xmlns="http://www.w3.org/2000/svg">
<path d="M41.2966 38.9549L33.0666 30.7249C33.4566 30.2749 33.8366 29.8049 34.1766 29.3149C35.9866 26.6049 36.9466 23.3849 36.9466 20.0049C36.9466 15.6049 35.2366 11.4049 32.0766 8.13494C28.8466 5.02494 24.6566 3.31494 20.2566 3.31494C17.0566 3.31494 13.8566 4.25494 10.9466 6.08494C8.26663 7.87494 6.15663 10.4549 4.83663 13.5749C3.54663 16.7149 3.23663 20.0649 3.91663 23.2549C4.63663 26.6349 6.24663 29.5849 8.50663 31.7449C10.7866 34.0149 13.7966 35.6549 16.9966 36.3349C18.0966 36.5649 19.2066 36.6849 20.3266 36.6849C22.4666 36.6849 24.6266 36.2549 26.7066 35.4049C27.7966 34.9449 28.8466 34.3549 29.8366 33.6649L38.2166 42.0449C38.6466 42.4749 39.1966 42.6849 39.7566 42.6849C40.3166 42.6849 40.8766 42.4749 41.2966 42.0449C42.1466 41.1949 42.1466 39.8149 41.2966 38.9549ZM25.0266 31.3749C22.6966 32.3249 20.2366 32.5649 17.9066 32.0649C15.5266 31.5549 13.2766 30.3449 11.5566 28.6149C9.88663 27.0249 8.72663 24.8549 8.18663 22.3349C7.68663 20.0049 7.92663 17.5449 8.86663 15.2449C9.84663 12.9349 11.3966 11.0249 13.3166 9.74494C15.4866 8.39494 17.8866 7.67494 20.2566 7.67494C23.5266 7.67494 26.6466 8.94494 28.9866 11.2049C31.2966 13.6049 32.5766 16.7249 32.5766 19.9949C32.5766 22.5049 31.8766 24.8849 30.5666 26.8449C29.1766 28.8449 27.2066 30.4549 25.0366 31.3749H25.0266Z" fill="#1F2024"/>
</svg>
