<svg width="48" height="48" viewBox="0 0 48 48" fill="none" xmlns="http://www.w3.org/2000/svg">
<path d="M33.7212 31.4C34.2212 30.9 34.6212 30.4 35.0212 29.8C36.8212 27.1 37.7212 24 37.7212 20.7C37.7212 16.4 36.0212 12.3 32.9212 9.10002C29.7212 6.10002 25.6212 4.40002 21.3212 4.40002C18.2212 4.40002 15.0212 5.30002 12.2212 7.10002C9.62124 8.90002 7.52124 11.4 6.22124 14.4C4.92124 17.5 4.62124 20.8 5.32124 23.9C6.02124 27.2 7.62124 30.1 9.82124 32.3C12.2212 34.6 15.0212 36.1 18.1212 36.8C19.2212 37 20.3212 37.1 21.4212 37.1C23.5212 37.1 25.6212 36.7 27.6212 35.9C28.8212 35.4 29.9212 34.8 30.9212 34L39.9212 43.1C40.3212 43.5 40.7212 43.6 41.2212 43.6C41.7212 43.6 42.1212 43.4 42.5212 43.1C43.2212 42.4 43.2212 41.2 42.5212 40.5L33.7212 31.4V31.4ZM26.2212 32.4C23.8212 33.4 21.3212 33.6 18.9212 33.1C16.5212 32.6 14.3212 31.4 12.4212 29.6C10.7212 28 9.52124 25.7 8.92124 23.2C8.42124 20.8 8.62124 18.3 9.62124 15.9C10.6212 13.5 12.2212 11.6 14.2212 10.2C16.4212 8.80002 18.9212 8.10002 21.3212 8.10002C24.7212 8.10002 27.9212 9.40002 30.3212 11.7C32.7212 14.2 34.0212 17.4 34.0212 20.7C34.0212 23.3 33.3212 25.7 31.9212 27.7C30.5212 29.8 28.4212 31.4 26.2212 32.4V32.4Z" fill="#1F2024"/>
</svg>
