<svg width="48" height="48" viewBox="0 0 48 48" fill="none" xmlns="http://www.w3.org/2000/svg">
<path d="M42.2649 40.65L33.2649 31.55C33.7649 30.95 34.2649 30.45 34.6649 29.75C36.4649 27.05 37.3649 23.95 37.3649 20.75C37.3649 16.45 35.6649 12.35 32.6649 9.35002C29.6649 6.35002 25.5649 4.65002 21.2649 4.65002C18.0649 4.65002 14.9649 5.55002 12.2649 7.35002C9.56486 9.15002 7.56486 11.65 6.36486 14.55C5.16486 17.55 4.86486 20.75 5.46486 23.85C6.06486 26.95 7.66486 29.85 9.86486 32.15C12.1649 34.45 14.9649 35.95 18.1649 36.55C19.1649 36.75 20.2649 36.85 21.3649 36.85C23.4649 36.85 25.5649 36.45 27.5649 35.65C28.7649 35.15 29.9649 34.45 31.0649 33.65L40.1649 42.85C40.4649 43.15 40.8649 43.35 41.3649 43.35C41.7649 43.35 42.1649 43.15 42.5649 42.85C42.9649 42.35 42.9649 41.25 42.2649 40.65V40.65ZM26.1649 32.75C23.7649 33.75 21.2649 33.95 18.7649 33.45C16.2649 32.95 13.9649 31.75 12.1649 29.95C10.3649 28.15 9.16486 25.85 8.66486 23.35C8.16486 20.85 8.46486 18.25 9.36486 15.95C10.3649 13.55 11.9649 11.55 14.0649 10.15C16.1649 8.75002 18.6649 7.95002 21.1649 7.95002C24.5649 7.95002 27.8649 9.25002 30.2649 11.75C32.6649 14.15 34.0649 17.45 34.0649 20.85C34.0649 23.45 33.2649 25.85 31.8649 27.95C30.5649 30.15 28.5649 31.75 26.1649 32.75V32.75Z" fill="#1F2024"/>
</svg>
