<svg width="48" height="48" viewBox="0 0 48 48" fill="none" xmlns="http://www.w3.org/2000/svg">
<path fill-rule="evenodd" clip-rule="evenodd" d="M24 9C22.4 9 21 10.4 21 12C21 13.6 22.4 15 24 15C25.6 15 27 13.6 27 12C27 10.4 25.6 9 24 9ZM24 12.8C23.6 12.8 23.2 12.4 23.2 12C23.2 11.6 23.6 11.2 24 11.2C24.4 11.2 24.8 11.6 24.8 12C24.8 12.4 24.4 12.8 24 12.8ZM24 21C22.4 21 21 22.4 21 24C21 25.6 22.4 27 24 27C25.6 27 27 25.6 27 24C27 22.4 25.6 21 24 21ZM24 24.8C23.6 24.8 23.2 24.4 23.2 24C23.2 23.6 23.6 23.2 24 23.2C24.4 23.2 24.8 23.6 24.8 24C24.8 24.4 24.4 24.8 24 24.8ZM21 36C21 34.4 22.4 33 24 33C25.6 33 27 34.4 27 36C27 37.6 25.6 39 24 39C22.4 39 21 37.6 21 36ZM23.2 36C23.2 36.4 23.6 36.8 24 36.8C24.4 36.8 24.8 36.4 24.8 36C24.8 35.6 24.4 35.2 24 35.2C23.6 35.2 23.2 35.6 23.2 36Z" fill="#1F2024"/>
</svg>
