<svg width="48" height="48" viewBox="0 0 48 48" fill="none" xmlns="http://www.w3.org/2000/svg">
<path fill-rule="evenodd" clip-rule="evenodd" d="M24 13C24.5523 13 25 12.5523 25 12C25 11.4477 24.5523 11 24 11C23.4477 11 23 11.4477 23 12C23 12.5523 23.4477 13 24 13ZM27 12C27 13.6569 25.6569 15 24 15C22.3431 15 21 13.6569 21 12C21 10.3431 22.3431 9 24 9C25.6569 9 27 10.3431 27 12ZM24 25C24.5523 25 25 24.5523 25 24C25 23.4477 24.5523 23 24 23C23.4477 23 23 23.4477 23 24C23 24.5523 23.4477 25 24 25ZM27 24C27 25.6569 25.6569 27 24 27C22.3431 27 21 25.6569 21 24C21 22.3431 22.3431 21 24 21C25.6569 21 27 22.3431 27 24ZM25 36C25 36.5523 24.5523 37 24 37C23.4477 37 23 36.5523 23 36C23 35.4477 23.4477 35 24 35C24.5523 35 25 35.4477 25 36ZM24 39C25.6569 39 27 37.6569 27 36C27 34.3431 25.6569 33 24 33C22.3431 33 21 34.3431 21 36C21 37.6569 22.3431 39 24 39Z" fill="#1F2024"/>
</svg>
