<svg width="48" height="48" viewBox="0 0 48 48" fill="none" xmlns="http://www.w3.org/2000/svg">
<path d="M24 15C25.6 15 27 13.6 27 12C27 10.4 25.6 9 24 9C22.4 9 21 10.4 21 12C21 13.6 22.4 15 24 15ZM24 10.2C25 10.2 25.8 11 25.8 12C25.8 13 25 13.8 24 13.8C23 13.8 22.2 13 22.2 12C22.2 11 23 10.2 24 10.2Z" fill="#1F2024"/>
<path d="M24 21C22.4 21 21 22.4 21 24C21 25.6 22.4 27 24 27C25.6 27 27 25.6 27 24C27 22.4 25.6 21 24 21ZM24 25.8C23 25.8 22.2 25 22.2 24C22.2 23 23 22.2 24 22.2C25 22.2 25.8 23 25.8 24C25.8 25 25 25.8 24 25.8Z" fill="#1F2024"/>
<path d="M24 33C22.4 33 21 34.4 21 36C21 37.6 22.4 39 24 39C25.6 39 27 37.6 27 36C27 34.4 25.6 33 24 33ZM24 37.8C23 37.8 22.2 37 22.2 36C22.2 35 23 34.2 24 34.2C25 34.2 25.8 35 25.8 36C25.8 37 25 37.8 24 37.8Z" fill="#1F2024"/>
</svg>
