<svg width="49" height="48" viewBox="0 0 49 48" fill="none" xmlns="http://www.w3.org/2000/svg">
<path d="M43.33 23.0407C43.08 22.5307 42.62 22.0807 42.12 21.8307C42.09 21.8207 42.06 21.8007 42.03 21.7907L10.22 8.22074C9.55 7.89074 8.76 7.93074 8.1 8.34074C7.42 8.76074 7 9.49074 7 10.2507C7 10.3007 7 10.3607 7 10.4107L7.99 20.0507C8 20.3407 8.07 20.5607 8.13 20.7107C8.3 21.4807 8.99 22.0507 9.88 22.1307L20.23 24.3407L9.83 26.5607C9.3 26.6407 8.82 26.9407 8.56 27.2107C8.04 27.7307 8 28.3207 7.99 28.6607L7 38.2907C7 38.3407 7 38.4007 7 38.4507C7 38.9707 7.16 39.4107 7.47 39.7807C7.67 40.0707 7.9 40.2507 8.12 40.3607C8.2 40.4107 8.27 40.4507 8.36 40.4807C8.64 40.6907 9.01 40.8507 9.51 40.8507C9.73 40.8507 9.94 40.8107 10.14 40.7207L42.12 27.0807C42.63 26.8307 43.09 26.3707 43.34 25.8707C43.47 25.6107 43.71 25.1307 43.71 24.4507C43.71 23.8207 43.43 23.2007 43.34 23.0307L43.33 23.0407ZM10.34 37.1507L11.12 29.5707L28.23 25.9207C28.97 25.7607 29.5 25.1107 29.5 24.3607C29.5 23.6107 28.97 22.9507 28.23 22.8007L11.12 19.1407L10.36 11.7607L40.13 24.4507L10.34 37.1507Z" fill="#1F2024"/>
</svg>
