<svg width="49" height="48" viewBox="0 0 49 48" fill="none" xmlns="http://www.w3.org/2000/svg">
<path d="M8.74414 40.4001C8.74414 40.4001 8.66414 40.4001 8.62414 40.4001C8.27414 40.3801 7.94414 40.2701 7.66414 40.0901C7.39414 39.9201 7.15414 39.6701 6.99414 39.3801C6.83414 39.0901 6.74414 38.7601 6.74414 38.4201C6.74414 38.3701 6.74414 38.3201 6.74414 38.2601L7.74414 28.5801C7.76414 28.1401 7.92414 27.7201 8.20414 27.3801C8.49414 27.0301 8.91414 26.7801 9.37414 26.6901L20.7641 24.2301L9.35414 21.7701C8.92414 21.6901 8.51414 21.4401 8.21414 21.0901C7.93414 20.7501 7.77414 20.3301 7.75414 19.8901L6.74414 10.2001C6.74414 10.2001 6.74414 10.1001 6.74414 10.0601C6.74414 9.37009 7.09414 8.72009 7.67414 8.33009C8.24414 7.96009 8.94414 7.90009 9.55414 8.16009L41.4841 21.8201C41.9541 22.0201 42.3641 22.3601 42.6441 22.7901C42.9341 23.2301 43.0841 23.7301 43.0841 24.2401C43.0841 24.7501 42.9341 25.2601 42.6541 25.6901C42.3741 26.1201 41.9741 26.4601 41.4941 26.6601L9.57414 40.2301C9.31414 40.3501 9.03414 40.4101 8.75414 40.4101L8.74414 40.4001ZM10.4841 29.3101L9.68414 37.1301L40.0541 24.2101L9.67414 11.2501L10.4841 19.1401L27.6941 22.8601C28.3341 23.0001 28.7941 23.5701 28.7941 24.2301C28.7941 24.8901 28.3341 25.4601 27.6941 25.6001L10.4841 29.3201V29.3101ZM9.96414 29.4201H9.94414H9.96414ZM9.91414 19.0201H9.94414C9.94414 19.0201 9.92414 19.0201 9.91414 19.0201Z" fill="#1F2024"/>
</svg>
