<svg width="49" height="48" viewBox="0 0 49 48" fill="none" xmlns="http://www.w3.org/2000/svg">
<path d="M41.2479 21.801L41.2356 21.7956L9.31487 8.14107C9.03797 8.02517 8.73666 7.97972 8.43789 8.00877C8.13913 8.03783 7.85223 8.14049 7.60285 8.30757C7.33937 8.48021 7.12295 8.71564 6.97306 8.99269C6.82316 9.26974 6.7445 9.57971 6.74414 9.89471L8.74414 19.6275C8.74429 20.0581 8.89465 20.4752 9.16932 20.8068C9.44399 21.1385 9.82575 21.3639 10.2488 21.4443L26.2038 23.7643C26.2744 23.7777 26.338 23.8152 26.3838 23.8706C26.4296 23.9259 26.4547 23.9954 26.4547 24.0672C26.4547 24.139 26.4296 24.2086 26.3838 24.2639C26.338 24.3192 26.2744 24.3568 26.2038 24.3702L10.2496 26.6901C9.82664 26.7703 9.4449 26.9955 9.17011 27.3268C8.89532 27.6582 8.74468 28.075 8.74414 28.5054L6.74414 38.2397C6.74394 38.5405 6.81841 38.8367 6.96089 39.1016C7.10337 39.3665 7.30938 39.5919 7.56045 39.7575C7.86246 39.9582 8.2169 40.0654 8.57949 40.0658C8.83157 40.0656 9.08106 40.015 9.31332 39.9171L41.2332 26.3404L41.2479 26.3335C41.691 26.143 42.0686 25.8269 42.3339 25.4241C42.5992 25.0213 42.7406 24.5495 42.7406 24.0672C42.7406 23.5849 42.5992 23.1132 42.3339 22.7104C42.0686 22.3076 41.691 21.9914 41.2479 21.801Z" fill="#1F2024"/>
</svg>
