<svg width="48" height="48" viewBox="0 0 48 48" fill="none" xmlns="http://www.w3.org/2000/svg">
<path d="M40.5038 21.801L40.4914 21.7956L8.57073 8.14107C8.29383 8.02517 7.99252 7.97972 7.69375 8.00877C7.39499 8.03783 7.10809 8.14049 6.85871 8.30757C6.59523 8.48021 6.37881 8.71564 6.22892 8.99269C6.07902 9.26974 6.00036 9.57971 6 9.89471L8 19.6275C8.00015 20.0581 8.15051 20.4752 8.42518 20.8068C8.69985 21.1385 9.08161 21.3639 9.50466 21.4443L25.4597 23.7643C25.5302 23.7777 25.5939 23.8152 25.6397 23.8706C25.6855 23.9259 25.7106 23.9954 25.7106 24.0672C25.7106 24.139 25.6855 24.2086 25.6397 24.2639C25.5939 24.3192 25.5302 24.3568 25.4597 24.3702L9.50544 26.6901C9.0825 26.7703 8.70076 26.9955 8.42597 27.3268C8.15118 27.6582 8.00054 28.075 8 28.5054L6 38.2397C5.9998 38.5405 6.07427 38.8367 6.21675 39.1016C6.35922 39.3665 6.56524 39.5919 6.81631 39.7575C7.11832 39.9582 7.47276 40.0654 7.83535 40.0658C8.08743 40.0656 8.33692 40.015 8.56918 39.9171L40.4891 26.3404L40.5038 26.3335C40.9469 26.143 41.3245 25.8269 41.5898 25.4241C41.8551 25.0213 41.9965 24.5495 41.9965 24.0672C41.9965 23.5849 41.8551 23.1132 41.5898 22.7104C41.3245 22.3076 40.9469 21.9914 40.5038 21.801Z" fill="#1F2024"/>
</svg>
