<svg width="49" height="48" viewBox="0 0 49 48" fill="none" xmlns="http://www.w3.org/2000/svg">
<path d="M8.42 27.0815C8.03 27.4715 8 27.9115 8 28.2015L7 37.8415C7 37.8415 7 37.9215 7 37.9515C7 38.1115 7 38.5615 7.37 38.9715C7.52 39.2115 7.71 39.3515 7.88 39.4315C7.96 39.4815 8.04 39.5215 8.11 39.5515C8.32 39.7215 8.61 39.8515 9 39.8515C9.15 39.8515 9.29 39.8215 9.43 39.7615L41.39 26.1315C41.81 25.9215 42.18 25.5515 42.38 25.1415C42.51 24.8915 42.7 24.5115 42.7 23.9515C42.7 23.4315 42.46 22.9015 42.38 22.7615C42.17 22.3515 41.8 21.9815 41.33 21.7415L9.49 8.17152C8.98 7.91152 8.37 7.95152 7.86 8.26152C7.33 8.59152 7 9.16152 7 9.75152C7 9.79152 7 9.83152 7 9.86152L8 19.5215C8.01 19.7615 8.07 19.9515 8.12 20.0815C8.23 20.6615 8.77 21.0915 9.46 21.1515L22.13 23.8615L9.42 26.5715C9.03 26.6215 8.64 26.8515 8.42 27.0815V27.0815ZM27.63 24.9315C28.14 24.8215 28.5 24.3715 28.5 23.8515C28.5 23.3315 28.14 22.8815 27.63 22.7715L10.16 19.0515L9.28 10.4715L40.42 23.7515C40.46 23.8315 40.5 23.9515 40.5 23.9615C40.5 23.9915 40.5 24.0115 40.47 24.1515L9.26 37.4515L10.17 28.6615L27.63 24.9315Z" fill="#1F2024"/>
</svg>
