<svg width="48" height="48" viewBox="0 0 48 48" fill="none" xmlns="http://www.w3.org/2000/svg">
<path d="M8 40.4C8 40.4 7.92 40.4 7.88 40.4C7.53 40.38 7.2 40.27 6.92 40.09C6.65 39.92 6.41 39.67 6.25 39.38C6.09 39.09 6 38.76 6 38.42C6 38.37 6 38.32 6 38.26L7 28.58C7.02 28.14 7.18 27.72 7.46 27.38C7.75 27.03 8.17 26.78 8.63 26.69L20.02 24.23L8.61 21.77C8.18 21.69 7.77 21.44 7.47 21.09C7.19 20.75 7.03 20.33 7.01 19.89L6 10.2C6 10.2 6 10.1 6 10.06C6 9.36997 6.35 8.71997 6.93 8.32997C7.5 7.95997 8.2 7.89997 8.81 8.15997L40.74 21.82C41.21 22.02 41.62 22.36 41.9 22.79C42.19 23.23 42.34 23.73 42.34 24.24C42.34 24.75 42.19 25.26 41.91 25.69C41.63 26.12 41.23 26.46 40.75 26.66L8.83 40.23C8.57 40.35 8.29 40.41 8.01 40.41L8 40.4ZM9.74 29.31L8.94 37.13L39.31 24.21L8.93 11.25L9.74 19.14L26.95 22.86C27.59 23 28.05 23.57 28.05 24.23C28.05 24.89 27.59 25.46 26.95 25.6L9.74 29.32V29.31ZM9.22 29.42H9.2H9.22ZM9.17 19.02H9.2C9.2 19.02 9.18 19.02 9.17 19.02Z" fill="#1F2024"/>
</svg>
