<svg width="48" height="48" viewBox="0 0 48 48" fill="none" xmlns="http://www.w3.org/2000/svg">
<path d="M24.08 27.89C26.45 27.89 28.38 25.96 28.38 23.59C28.38 21.22 26.45 19.29 24.08 19.29C21.71 19.29 19.78 21.22 19.78 23.59C19.78 25.96 21.71 27.89 24.08 27.89Z" fill="#1F2024"/>
<path d="M43.2799 27.53L43.2399 27.5L40.4099 25.28C40.2299 25.14 40.0899 24.96 39.9899 24.75C39.8999 24.54 39.8499 24.32 39.8599 24.09V23.05C39.8599 22.82 39.8999 22.6 39.9899 22.39C40.0899 22.18 40.2299 22 40.4099 21.86L43.2399 19.64L43.2799 19.61C43.7199 19.25 44.0099 18.74 44.1099 18.18C44.2099 17.62 44.1099 17.05 43.8099 16.56L39.9799 9.94C39.9799 9.94 39.9799 9.93 39.9699 9.92C39.6799 9.44 39.2299 9.07 38.6999 8.89C38.1699 8.71 37.5899 8.71 37.0599 8.91H37.0299L33.7099 10.26C33.4999 10.34 33.2699 10.38 33.0499 10.36C32.8199 10.34 32.6099 10.27 32.4199 10.15C32.1299 9.96 31.8299 9.79 31.5199 9.63C31.3199 9.52 31.1499 9.37 31.0299 9.19C30.8999 9.01 30.8199 8.79 30.7899 8.57L30.2899 5.02V4.96C30.1699 4.41 29.8799 3.92 29.4399 3.56C29.0099 3.2 28.4699 3 27.9099 3H20.2499C19.6799 3 19.1299 3.2 18.6999 3.57C18.2699 3.94 17.9799 4.44 17.8799 5V5.05L17.3699 8.6C17.3399 8.82 17.2599 9.03 17.1299 9.22C16.9999 9.4 16.8399 9.56 16.6399 9.66C16.3299 9.82 16.0299 10 15.7399 10.18C15.5499 10.3 15.3299 10.37 15.1099 10.39C14.8899 10.41 14.6599 10.38 14.4499 10.29L11.1199 8.95H11.0899C10.5599 8.74 9.97994 8.73 9.44994 8.92C8.91994 9.11 8.46994 9.47 8.17994 9.95V9.97L4.33994 16.59C4.04994 17.08 3.94994 17.65 4.03994 18.21C4.13994 18.77 4.42994 19.28 4.86994 19.64L4.90994 19.67L7.73994 21.89C7.91994 22.03 8.05994 22.21 8.15994 22.42C8.24994 22.63 8.29994 22.85 8.28994 23.08V24.12C8.28994 24.35 8.24994 24.57 8.15994 24.78C8.05994 24.99 7.91994 25.17 7.73994 25.31L4.90994 27.53L4.86994 27.56C4.42994 27.92 4.13994 28.43 4.03994 28.99C3.93994 29.55 4.03994 30.12 4.33994 30.61L8.16994 37.23C8.16994 37.23 8.16994 37.24 8.17994 37.25C8.46994 37.73 8.91994 38.1 9.44994 38.28C9.97994 38.46 10.5599 38.46 11.0899 38.26H11.1199L14.4399 36.91C14.6499 36.83 14.8799 36.79 15.0999 36.81C15.3299 36.83 15.5399 36.9 15.7299 37.02C16.0199 37.21 16.3199 37.38 16.6299 37.54C16.8299 37.65 16.9999 37.8 17.1199 37.98C17.2499 38.16 17.3299 38.38 17.3599 38.6L17.8599 42.15V42.21C17.9799 42.76 18.2799 43.26 18.7099 43.61C19.1399 43.97 19.6799 44.17 20.2499 44.17H27.9099C28.4799 44.17 29.0299 43.97 29.4599 43.6C29.8899 43.23 30.1799 42.73 30.2799 42.17V42.12L30.7899 38.57C30.8199 38.35 30.8999 38.14 31.0299 37.95C31.1599 37.77 31.3299 37.61 31.5199 37.51C31.8299 37.35 32.1299 37.17 32.4199 36.99C32.6099 36.87 32.8299 36.8 33.0499 36.78C33.2699 36.76 33.4999 36.79 33.7099 36.88L37.0399 38.22H37.0699C37.5999 38.43 38.1799 38.44 38.7099 38.25C39.2399 38.06 39.6899 37.7 39.9799 37.21C39.9799 37.21 39.9799 37.2 39.9899 37.19L43.8199 30.57C44.1099 30.08 44.2199 29.51 44.1199 28.95C44.0199 28.39 43.7299 27.88 43.2899 27.52H43.2799V27.53ZM31.2299 23.94C31.1599 25.33 30.6999 26.67 29.8899 27.79C29.0799 28.92 27.9599 29.78 26.6599 30.28C25.3599 30.78 23.9499 30.9 22.5899 30.61C21.2299 30.32 19.9899 29.65 18.9999 28.67C18.0199 27.69 17.3399 26.44 17.0599 25.08C16.7699 23.72 16.8899 22.31 17.3899 21.01C17.8899 19.71 18.7599 18.59 19.8799 17.78C21.0099 16.97 22.3499 16.5 23.7299 16.44C24.7299 16.4 25.7199 16.56 26.6499 16.92C27.5799 17.28 28.4199 17.83 29.1299 18.54C29.8299 19.24 30.3899 20.09 30.7499 21.02C31.1099 21.95 31.2699 22.94 31.2299 23.94Z" fill="#1F2024"/>
</svg>
