<svg width="48" height="48" viewBox="0 0 48 48" fill="none" xmlns="http://www.w3.org/2000/svg">
<path d="M29.0701 18.5999C27.9301 17.4599 26.3401 16.7299 24.7001 16.6099C23.0701 16.4699 21.5401 16.7999 20.2901 17.5499C19.1301 18.2399 18.1001 19.3099 17.3101 20.6299C17.2801 20.6799 17.2501 20.7399 17.2201 20.7999C16.5601 22.2499 16.3401 23.8099 16.5901 25.1799C16.8201 26.5799 17.4801 27.8699 18.6001 29.1299C18.6201 29.1599 18.6401 29.1799 18.6701 29.1999C19.7601 30.2899 21.1801 31.0199 22.6901 31.2699C23.0901 31.3399 23.4901 31.3699 23.8901 31.3699C25.0101 31.3699 26.1301 31.1099 27.1301 30.6099C28.6201 29.8699 29.7701 28.7599 30.3801 27.4799C31.0901 26.2499 31.4001 24.7499 31.2701 23.1599C31.1401 21.4699 30.3801 19.8899 29.0801 18.5899L29.0701 18.5999ZM27.4101 25.8299C27.3801 25.8799 27.3501 25.9399 27.3201 25.9999C26.9501 26.8199 26.0901 27.3399 25.6101 27.5799C24.9001 27.9399 24.0601 28.0599 23.2501 27.9199C22.4601 27.7899 21.6801 27.3899 21.1101 26.8299C20.4401 26.0699 20.0701 25.3699 19.9501 24.5899C19.8201 23.8899 19.9501 23.0799 20.2901 22.2899C20.7901 21.4899 21.4001 20.8499 22.0601 20.4599C22.8601 19.9799 23.8001 19.9399 24.4401 19.9999C24.4401 19.9999 24.4401 19.9999 24.4501 19.9999C25.2801 20.0599 26.1101 20.4399 26.6801 21.0099C27.4101 21.7399 27.8201 22.5599 27.8901 23.4499C27.9401 24.0999 27.9101 25.0299 27.4301 25.8299H27.4101Z" fill="#1F2024"/>
<path d="M43.4201 27.7599L40.0501 25.1299C40.0701 24.7199 40.0701 24.3499 40.0701 23.9999V23.0999C40.0701 23.0999 40.0701 23.0399 40.0701 23.0199L43.3301 20.4299C43.5201 20.2799 43.7201 20.0199 43.8301 19.7999C43.9101 19.6599 44.0601 19.4199 44.1801 19.0399C44.5001 18.0699 44.1301 17.3199 43.9401 16.9599L40.1601 10.3899C39.8001 9.72986 39.2201 9.42986 38.9301 9.28986C38.2901 8.96986 37.4601 8.94986 36.8001 9.24986L33.0001 10.7699C32.3501 10.2599 31.7201 9.92986 30.9801 9.60986L30.3701 5.46986C30.3301 4.58986 29.8701 3.85986 29.1301 3.48986C28.8501 3.34986 28.3801 3.10986 27.7801 3.10986H20.0801C18.8001 3.10986 18.2201 3.72986 17.9401 4.26986C17.8001 4.47986 17.5301 4.87986 17.4901 5.43986L16.9401 9.39986L16.9201 9.43986C16.3001 9.75986 15.6401 10.1399 15.0701 10.5099L11.1601 8.94986C10.5001 8.64986 9.67006 8.66986 9.03006 8.98986C8.74006 9.12986 8.15006 9.42986 7.80006 10.0899L4.00006 16.6499C4.00006 16.6499 3.97006 16.7099 3.95006 16.7399C3.67006 17.2999 3.67006 17.8799 3.67006 18.1999C3.67006 19.1999 4.19006 19.7199 4.47006 19.9999C4.52006 20.0499 4.56006 20.0899 4.61006 20.1299L7.87006 22.7199C7.87006 22.7199 7.87006 22.7799 7.87006 22.7999V24.9999C7.87006 24.9999 7.87006 25.0499 7.87006 25.0799L4.61006 27.6699C4.42006 27.8199 4.24006 28.0399 4.13006 28.2599C4.01006 28.4499 3.77006 28.7999 3.69006 29.2699C3.48006 30.1299 3.80006 30.7699 3.94006 31.0599C3.96006 31.0899 3.97006 31.1199 3.99006 31.1499L7.77006 37.7199C8.13006 38.3799 8.71006 38.6799 9.00006 38.8199C9.65006 39.1399 10.4701 39.1599 11.1301 38.8599L14.9401 37.3299C15.5301 37.7299 16.2001 38.1699 16.9901 38.5199L17.5501 42.5399C17.5901 43.4199 18.0501 44.1499 18.7901 44.5199C19.0701 44.6599 19.5501 44.8999 20.1401 44.8999H27.8401C28.1401 44.8999 28.9401 44.8999 29.6401 44.1999C29.7701 44.0699 29.8901 43.9099 29.9701 43.7399C30.1101 43.5299 30.3801 43.1299 30.4301 42.5599L30.9801 38.5999L31.0301 38.4999C31.7601 38.1699 32.3901 37.7599 32.9401 37.3899L36.9801 38.9999C37.2201 39.0799 37.8901 39.3099 38.6801 39.0399C39.3301 38.8899 39.9001 38.4399 40.2001 37.8399L44.0001 31.2399C44.0001 31.2399 44.0301 31.1799 44.0501 31.1499C44.3301 30.5899 44.3301 30.0099 44.3301 29.6899C44.3301 29.2299 44.1901 28.5499 43.5301 27.8899C43.4801 27.8399 43.4301 27.7999 43.3701 27.7499L43.4201 27.7599ZM37.6301 35.5899L34.2501 34.2399C33.7201 33.9999 33.1701 33.9999 32.8701 33.9999C32.2401 33.9999 31.6401 34.2599 31.4101 34.3799C31.3501 34.4099 31.2801 34.4499 31.2201 34.4899C30.6701 34.8599 30.1601 35.1999 29.5101 35.4799C29.0601 35.6999 28.7301 36.0299 28.4601 36.2999C28.3301 36.4299 28.2201 36.5799 28.1401 36.7399L27.8401 37.3399C27.7601 37.4999 27.7001 37.6799 27.6801 37.8599L27.1701 41.4899H20.8501L20.3501 37.9399C20.3101 37.3899 20.0901 36.8199 19.7301 36.3799C19.3101 35.7599 18.6901 35.5099 18.3701 35.3999C17.8601 35.1799 17.3901 34.8699 16.8901 34.5299C16.5001 34.2099 16.0901 34.0899 15.8201 34.0199C15.6101 33.9299 15.3901 33.8899 15.1601 33.8899C14.8601 33.8899 14.3201 33.8899 13.7901 34.1299L10.4101 35.4799L7.21006 29.9299L10.1101 27.6199C10.1101 27.6199 10.2101 27.5399 10.2501 27.4899C10.5501 27.1899 10.8201 26.8899 11.0301 26.3199C11.2501 25.7999 11.2501 25.2799 11.2501 24.9899V22.7899C11.2501 22.4799 11.2501 21.8899 10.9701 21.3199C10.8401 21.0599 10.6501 20.6799 10.2501 20.2799C10.2101 20.2399 10.1601 20.1899 10.1101 20.1499L7.20006 17.8399L10.4001 12.2899L13.7701 13.6399C14.3001 13.8799 14.8501 13.8799 15.1501 13.8799C15.7801 13.8799 16.3801 13.6199 16.6101 13.4999C16.6801 13.4699 16.7401 13.4299 16.8001 13.3899C17.3001 13.0499 17.9501 12.6799 18.5201 12.3899C18.9601 12.1699 19.2901 11.8399 19.4501 11.6799C19.5801 11.5499 19.6901 11.3999 19.7801 11.2299L20.0801 10.6299C20.1601 10.4599 20.2201 10.2899 20.2401 10.0999L20.7501 6.46986H27.0701L27.5701 10.0299C27.6101 10.5799 27.8301 11.1499 28.1901 11.5899C28.4701 12.0099 28.8401 12.2499 29.1001 12.4099L29.2301 12.4899C29.3101 12.5499 29.4001 12.5999 29.5001 12.6399C30.0901 12.8999 30.5301 13.1099 30.9501 13.4499C31.4001 13.8599 31.8601 13.9799 32.1101 14.0499L32.2301 14.0899C32.4001 14.1499 32.5901 14.1799 32.7701 14.1799C33.0701 14.1799 33.6101 14.1799 34.1401 13.9399L37.5201 12.5899L40.7201 18.1399L37.9101 20.3699C37.2001 20.8199 36.9601 21.5499 36.8601 21.8399C36.6701 22.3999 36.6701 22.8199 36.6701 23.0799V23.9799C36.6701 24.5299 36.6701 25.0599 36.5901 25.6399C36.5001 26.2399 36.7501 26.8499 37.2301 27.2199L40.8201 30.0199L37.6301 35.5699V35.5899Z" fill="#1F2024"/>
</svg>
