<svg width="48" height="48" viewBox="0 0 48 48" fill="none" xmlns="http://www.w3.org/2000/svg">
<path d="M20.3 44.37C19.72 44.37 19.17 44.17 18.72 43.79C18.3 43.44 18 42.94 17.87 42.39C17.87 42.35 17.86 42.32 17.85 42.28L17.25 38C16.47 37.69 15.77 37.27 15.14 36.8L11.19 38.43C10.61 38.65 9.99004 38.65 9.44004 38.43C8.89004 38.23 8.44004 37.85 8.15004 37.34L4.34004 30.73C4.05004 30.25 3.94004 29.65 4.04004 29.06C4.14004 28.48 4.45004 27.96 4.90004 27.58L8.35004 24.87C8.29004 24.5 8.27004 24.08 8.27004 23.67C8.27004 23.26 8.29004 22.85 8.33004 22.44L4.94004 19.8C4.45004 19.37 4.16004 18.87 4.06004 18.32C3.95004 17.74 4.06004 17.14 4.37004 16.63L8.19004 10.02C8.51004 9.49 8.98004 9.11 9.52004 8.93C10.01 8.75 10.58 8.75 11.13 8.93L15.24 10.58C15.88 10.1 16.59 9.69 17.32 9.34L17.87 5.12C17.97 4.51 18.26 4 18.7 3.62C19.1 3.25 19.66 3.03 20.24 3H27.96C28.54 3 29.09 3.2 29.54 3.58C29.96 3.92 30.26 4.43 30.38 4.98C30.38 5.02 30.39 5.05 30.4 5.09L31 9.37C31.77 9.68 32.46 10.08 33.1 10.55L37.07 8.93C37.65 8.71 38.27 8.71 38.82 8.93C39.38 9.13 39.83 9.52 40.11 10.03L43.92 16.63C44.21 17.11 44.32 17.71 44.22 18.3C44.12 18.87 43.82 19.4 43.37 19.77L39.91 22.49C39.97 22.86 39.99 23.27 39.99 23.69C39.99 23.75 39.99 23.81 39.98 23.87C39.98 24.2 39.96 24.54 39.93 24.87L43.32 27.53C43.81 27.94 44.11 28.46 44.21 29.03C44.31 29.62 44.21 30.22 43.9 30.72L40.08 37.33C39.76 37.86 39.29 38.24 38.74 38.42C38.25 38.6 37.68 38.6 37.13 38.42L33.03 36.77C32.38 37.26 31.66 37.68 30.95 38.01L30.39 42.25C30.29 42.86 30 43.37 29.56 43.75C29.14 44.12 28.59 44.34 28 44.36H20.28L20.3 44.37ZM20.76 41.37H27.5L28.03 37.55C28.09 37.08 28.28 36.62 28.57 36.22C28.84 35.83 29.24 35.5 29.7 35.29C30.24 35.04 30.81 34.71 31.37 34.32C31.77 34.04 32.21 33.87 32.7 33.81C33.19 33.75 33.7 33.81 34.15 34L37.71 35.43L41.08 29.6L37.41 26.72C36.99 26.39 36.77 25.85 36.85 25.32C36.93 24.76 36.97 24.21 36.97 23.68C36.97 23.63 36.97 23.57 36.97 23.52C36.97 23.24 36.95 22.97 36.93 22.69C36.89 22.22 36.97 21.74 37.15 21.29C37.33 20.84 37.64 20.44 38.04 20.13L41.08 17.74L37.71 11.91L34.15 13.35C33.7 13.53 33.2 13.6 32.7 13.54C32.21 13.48 31.73 13.29 31.31 12.99C30.83 12.63 30.31 12.33 29.7 12.05C29.23 11.84 28.82 11.51 28.53 11.1C28.25 10.72 28.06 10.25 28 9.78L27.47 6.01H20.72L20.19 9.83C20.13 10.29 19.94 10.75 19.65 11.15C19.33 11.56 18.96 11.86 18.56 12.06C17.97 12.34 17.39 12.68 16.83 13.06C16.44 13.33 15.99 13.5 15.5 13.56C15.01 13.62 14.51 13.56 14.05 13.37L10.49 11.94L7.12004 17.77L10.15 20.15C10.55 20.47 10.86 20.87 11.04 21.32C11.22 21.74 11.3 22.22 11.26 22.7C11.23 23.03 11.21 23.36 11.21 23.69C11.21 24.02 11.23 24.36 11.26 24.69C11.3 25.16 11.22 25.64 11.04 26.08C10.81 26.58 10.52 26.96 10.15 27.25L7.11004 29.64L10.48 35.47L14.04 34.03C14.49 33.85 14.99 33.78 15.49 33.84C15.97 33.9 16.45 34.09 16.87 34.39C17.36 34.76 17.87 35.06 18.48 35.34C18.96 35.56 19.36 35.89 19.65 36.29C19.93 36.66 20.12 37.13 20.18 37.61L20.71 41.39L20.76 41.37ZM10.75 35.84V35.86C10.75 35.86 10.75 35.85 10.75 35.84ZM6.92004 29.21V29.23C6.92004 29.23 6.92004 29.22 6.92004 29.21ZM41.33 29.21C41.33 29.21 41.33 29.21 41.33 29.22V29.21ZM37.51 11.49V11.51V11.49ZM24.12 30.9C23.71 30.9 23.29 30.86 22.88 30.79C21.4 30.54 20.06 29.84 19 28.78C17.94 27.72 17.24 26.36 16.99 24.9C16.74 23.42 16.94 21.92 17.59 20.57C18.24 19.21 19.27 18.1 20.57 17.37C21.81 16.66 23.23 16.34 24.65 16.45C24.72 16.45 24.77 16.45 24.83 16.45C26.49 16.61 28.06 17.35 29.24 18.53C30.42 19.72 31.16 21.29 31.32 22.93C31.46 24.43 31.15 25.9 30.41 27.2C29.66 28.51 28.55 29.54 27.21 30.18C26.24 30.64 25.19 30.88 24.12 30.88V30.9ZM24.12 19.44C23.4 19.44 22.69 19.63 22.06 19.99C21.29 20.42 20.69 21.07 20.31 21.87C19.93 22.66 19.81 23.53 19.96 24.4C20.11 25.25 20.52 26.05 21.13 26.66C21.75 27.28 22.53 27.68 23.39 27.83C24.26 27.98 25.13 27.86 25.92 27.48C26.71 27.1 27.36 26.5 27.81 25.73C28.23 24.98 28.42 24.11 28.34 23.23C28.25 22.27 27.81 21.36 27.12 20.66C26.47 20.01 25.61 19.59 24.69 19.46C24.64 19.46 24.6 19.46 24.55 19.46C24.41 19.45 24.26 19.44 24.12 19.44Z" fill="#1F2024"/>
</svg>
