<svg width="48" height="48" viewBox="0 0 48 48" fill="none" xmlns="http://www.w3.org/2000/svg">
<path d="M8.35993 25.2598C8.35993 25.2598 8.33993 25.3098 8.32993 25.3398C8.30993 25.3598 8.28993 25.3798 8.26993 25.4098L4.91993 28.0698C4.77993 28.1798 4.61993 28.3898 4.53993 28.5498C4.41993 28.7298 4.22993 29.0098 4.17993 29.3898C4.00993 30.0798 4.25993 30.5998 4.41993 30.9098L8.18993 37.4498C8.46993 38.0098 8.93993 38.2498 9.21993 38.3898C9.73993 38.6498 10.4099 38.6598 10.9399 38.4198L14.9099 36.8298C14.9099 36.8298 14.9399 36.8298 14.9599 36.8298C15.0099 36.8498 15.0699 36.8598 15.1299 36.8798C15.1499 36.8998 15.1699 36.9098 15.1899 36.9198C15.8199 37.3398 16.4799 37.7798 17.3699 38.1598C17.3899 38.1598 17.3999 38.1698 17.4199 38.1798C17.4299 38.1998 17.4499 38.2098 17.4599 38.2198C17.4599 38.2398 17.4599 38.2698 17.4599 38.2898L18.0499 42.5198C18.0799 43.2298 18.4299 43.7998 19.0099 44.0898C19.2699 44.2198 19.6599 44.4198 20.1499 44.4198H27.8499C28.1199 44.4198 28.7499 44.4198 29.2999 43.8698C29.3899 43.7798 29.5099 43.6098 29.5699 43.4898C29.6999 43.2898 29.9199 42.9698 29.9499 42.5298L30.5099 38.4798L30.6399 38.2298C30.6999 38.1698 30.7399 38.1198 30.7299 38.1198C31.4999 37.7898 32.1599 37.3598 32.7499 36.9698C32.8099 36.9398 32.8699 36.9198 32.8599 36.9198C32.9299 36.9198 33.0099 36.9198 33.0899 36.9198C33.0899 36.9198 33.0999 36.9198 33.1099 36.9198L37.1799 38.5398C37.3799 38.6098 37.9299 38.7898 38.5699 38.5698C39.1799 38.4498 39.6099 37.9898 39.7999 37.5998L43.6299 30.9398C43.8599 30.4898 43.8599 29.9998 43.8599 29.7098C43.8599 28.9098 43.4699 28.5198 43.2099 28.2598C43.1699 28.2298 43.1399 28.1898 43.0999 28.1598L39.5299 25.3698C39.5699 24.8798 39.5699 24.4398 39.5699 24.0098V23.1098C39.5699 22.9498 39.5699 22.8998 39.6099 22.7898C39.6099 22.7698 39.6199 22.7598 39.6299 22.7398L43.0199 20.0398C43.1599 19.9298 43.2699 19.7898 43.3499 19.6298L43.4099 19.5298C43.4899 19.3998 43.6099 19.1998 43.7199 18.8698C43.9799 18.0998 43.6899 17.5298 43.5199 17.1898L39.7499 10.6498C39.4699 10.0898 38.9799 9.83982 38.7099 9.70982C38.1699 9.43982 37.4799 9.43982 37.0299 9.66982L33.0299 11.2698C33.0299 11.2698 33.0199 11.2698 33.0099 11.2698C32.9899 11.2698 32.9699 11.2698 32.9499 11.2698C32.9199 11.2698 32.8899 11.2498 32.8599 11.2498H32.8199C32.1499 10.6898 31.4999 10.3398 30.7399 10.0098L30.6699 9.95982C30.6699 9.95982 30.5899 9.90982 30.5599 9.88982C30.5299 9.84982 30.4999 9.80982 30.4699 9.76982C30.4699 9.74982 30.4699 9.71982 30.4699 9.69982L29.8799 5.46982C29.8499 4.75982 29.4999 4.18982 28.9199 3.89982C28.6599 3.76982 28.2699 3.56982 27.7799 3.56982H20.0799C19.7699 3.56982 18.8399 3.56982 18.3599 4.49982C18.2299 4.69982 18.0199 5.01982 17.9799 5.44982L17.4199 9.49982L17.2999 9.73982C17.2999 9.73982 17.2599 9.77982 17.2499 9.78982C16.5999 10.1098 15.8999 10.5198 15.2999 10.9098C15.2399 10.9398 15.1799 10.9598 15.1899 10.9598C15.1199 10.9598 15.0199 10.9598 14.9299 10.9598C14.9499 10.9598 14.9399 10.9598 14.9299 10.9598L10.9699 9.36982C10.4399 9.12982 9.76993 9.13982 9.25993 9.39982C8.98993 9.52982 8.49993 9.77982 8.24993 10.2798L4.39993 16.9598C4.16993 17.4098 4.16993 17.8998 4.16993 18.1998C4.16993 18.9998 4.55993 19.3898 4.81993 19.6498C4.84993 19.6798 4.88993 19.7098 4.91993 19.7398L8.24993 22.3798C8.24993 22.3798 8.30993 22.4798 8.35993 22.5698C8.36993 22.6498 8.35993 22.7298 8.35993 22.7998V24.9998C8.35993 25.0698 8.35993 25.1698 8.35993 25.2598ZM14.9199 36.8098H14.9499C14.9399 36.8098 14.9299 36.8098 14.9199 36.8098ZM6.57993 17.9898L10.2099 11.6898L13.9399 13.1798C14.3899 13.4098 14.8799 13.4098 15.1699 13.4098C15.7099 13.4098 16.2499 13.1598 16.3999 13.0798C16.4499 13.0598 16.4899 13.0298 16.5299 12.9998C17.0599 12.6398 17.7099 12.2698 18.2999 11.9798C18.6699 11.7998 18.9599 11.5098 19.1099 11.3598C19.1999 11.2698 19.2799 11.1598 19.3399 11.0398L19.6399 10.4398C19.6999 10.3198 19.7399 10.1998 19.7499 10.0698L20.3199 5.99982H27.5099L28.0699 9.99982C28.0999 10.4598 28.2899 10.9398 28.5899 11.3098C28.8099 11.6498 29.1099 11.8498 29.3599 12.0098L29.4999 12.0998C29.5599 12.1398 29.6299 12.1798 29.6899 12.2098C30.3099 12.4798 30.7999 12.7198 31.2599 13.0998C31.6199 13.4298 31.9799 13.5298 32.2199 13.5998L32.3699 13.6398C32.4899 13.6798 32.6199 13.6998 32.7499 13.6998C33.0299 13.6998 33.4899 13.6998 33.9299 13.4998L37.7099 11.9798L41.3299 18.2798C41.3299 18.2798 41.3299 18.2998 41.3199 18.2998L38.1699 20.7998C37.5999 21.1598 37.3999 21.7498 37.3099 22.0198C37.1499 22.4998 37.1499 22.8598 37.1499 23.0998V23.9998C37.1499 24.5698 37.1499 25.1198 37.0599 25.7298C36.9999 26.1498 37.1699 26.5798 37.5099 26.8498L41.4399 29.9198L37.8199 36.2198L34.0299 34.6998C33.5899 34.4998 33.1299 34.4998 32.8499 34.4998C32.3099 34.4998 31.7699 34.7498 31.6199 34.8298C31.5699 34.8498 31.5299 34.8798 31.4899 34.9098C30.9199 35.2898 30.3899 35.6498 29.7199 35.9398C29.3499 36.1298 29.0699 36.4098 28.8099 36.6598C28.7199 36.7498 28.6399 36.8598 28.5799 36.9798L28.2799 37.5798C28.2199 37.6998 28.1799 37.8198 28.1699 37.9498L27.5999 42.0198H20.4099L19.8499 38.0198C19.8199 37.5598 19.6299 37.0698 19.3199 36.7098C18.9599 36.1698 18.3999 35.9798 18.2199 35.9198C17.6399 35.6698 17.1299 35.3398 16.5799 34.9698C16.2499 34.6998 15.8999 34.5998 15.6799 34.5498C15.5099 34.4698 15.3299 34.4198 15.1499 34.4198C14.8599 34.4198 14.3699 34.4198 13.9999 34.6098L10.1799 36.1398L6.55993 29.8398L9.78993 27.2798C9.78993 27.2798 9.85993 27.2198 9.88993 27.1898C10.1699 26.9098 10.3799 26.6698 10.5599 26.1898C10.7399 25.7598 10.7399 25.3198 10.7399 25.0398V22.8398C10.7399 22.5498 10.7399 22.0598 10.5099 21.5898C10.3899 21.3498 10.2199 21.0198 9.88993 20.6898C9.85993 20.6598 9.81993 20.6298 9.78993 20.5998L6.54993 18.0298L6.57993 17.9898Z" fill="#1F2024"/>
<path d="M19.0199 28.7498C20.0299 29.7598 21.3699 30.4498 22.7699 30.6798C23.1399 30.7398 23.5199 30.7698 23.8899 30.7698C24.9399 30.7698 25.9799 30.5298 26.9099 30.0698C28.3099 29.3698 29.3799 28.3398 29.9399 27.1598C30.6099 26.0098 30.8999 24.6098 30.7699 23.1098C30.6499 21.5398 29.9399 20.0698 28.7199 18.8498C27.7799 17.9198 26.3799 17.2598 24.7499 17.0098C24.7199 17.0098 24.6899 17.0098 24.6699 16.9998C23.1299 16.8798 21.7099 17.1698 20.5499 17.8698C19.4599 18.5198 18.4899 19.5298 17.7399 20.7798C17.7199 20.8198 17.6999 20.8598 17.6799 20.8998C17.0599 22.2498 16.8599 23.7098 17.0899 24.9898C17.3099 26.2898 17.9199 27.5098 19.0199 28.7398V28.7498ZM19.8299 21.9598C20.3699 21.0698 21.0499 20.3698 21.7799 19.9298C22.4999 19.4998 23.4099 19.3098 24.4199 19.3898C25.5199 19.5698 26.4399 19.9798 27.0099 20.5498C27.8199 21.3598 28.2899 22.3098 28.3599 23.2998C28.4499 24.3298 28.2599 25.2598 27.8299 25.9798C27.8099 26.0198 27.7899 26.0598 27.7699 26.0998C27.3299 27.0598 26.3699 27.6498 25.8299 27.9198C25.0199 28.3198 24.0799 28.4598 23.1599 28.3098C22.2599 28.1598 21.3699 27.6998 20.7599 27.0998C20.0099 26.2498 19.5899 25.4598 19.4399 24.5798C19.2899 23.7798 19.4399 22.8498 19.8199 21.9498L19.8299 21.9598Z" fill="#1F2024"/>
</svg>
