<svg width="48" height="48" viewBox="0 0 48 48" fill="none" xmlns="http://www.w3.org/2000/svg">
<path d="M35.49 31.45C33.89 31.45 32.44 32.08 31.36 33.09L18.34 25.5C18.46 25.02 18.54 24.52 18.54 24C18.54 23.48 18.47 23 18.35 22.53L31.69 15.2C32.73 16.04 34.05 16.55 35.49 16.55C38.83 16.55 41.54 13.84 41.54 10.5C41.54 7.16001 38.83 4.45001 35.49 4.45001C32.15 4.45001 29.44 7.16001 29.44 10.5C29.44 11.24 29.58 11.95 29.83 12.61L16.81 19.77C15.71 18.65 14.19 17.96 12.5 17.96C9.15995 17.96 6.44995 20.67 6.44995 24.01C6.44995 27.35 9.15995 30.06 12.5 30.06C14.18 30.06 15.69 29.38 16.79 28.27L29.7 35.79C29.54 36.33 29.45 36.91 29.45 37.5C29.45 40.84 32.16 43.55 35.5 43.55C38.84 43.55 41.55 40.84 41.55 37.5C41.55 34.16 38.84 31.45 35.5 31.45H35.49ZM35.49 7.55001C37.14 7.55001 38.44 8.85001 38.44 10.5C38.44 12.15 37.14 13.45 35.49 13.45C33.84 13.45 32.54 12.15 32.54 10.5C32.54 8.85001 33.84 7.55001 35.49 7.55001ZM12.49 26.95C10.84 26.95 9.53995 25.65 9.53995 24C9.53995 22.35 10.84 21.05 12.49 21.05C14.14 21.05 15.44 22.35 15.44 24C15.44 25.65 14.14 26.95 12.49 26.95ZM35.49 40.45C33.84 40.45 32.54 39.15 32.54 37.5C32.54 35.85 33.84 34.55 35.49 34.55C37.14 34.55 38.44 35.85 38.44 37.5C38.44 39.15 37.14 40.45 35.49 40.45Z" fill="#1F2024"/>
</svg>
