<svg width="48" height="48" viewBox="0 0 48 48" fill="none" xmlns="http://www.w3.org/2000/svg">
<path d="M35.25 17.5H25.5V28.0938C25.5 28.4916 25.342 28.8731 25.0607 29.1544C24.7794 29.4357 24.3978 29.5938 24 29.5938C23.6022 29.5938 23.2206 29.4357 22.9393 29.1544C22.658 28.8731 22.5 28.4916 22.5 28.0938V17.5H12.75C11.3581 17.5015 10.0236 18.0551 9.03933 19.0393C8.05509 20.0236 7.50149 21.3581 7.5 22.75V39.75C7.50149 41.1419 8.05509 42.4764 9.03933 43.4607C10.0236 44.4449 11.3581 44.9985 12.75 45H35.25C36.6419 44.9985 37.9764 44.4449 38.9607 43.4607C39.9449 42.4764 40.4985 41.1419 40.5 39.75V22.75C40.4985 21.3581 39.9449 20.0236 38.9607 19.0393C37.9764 18.0551 36.6419 17.5015 35.25 17.5Z" fill="#1F2024"/>
<path d="M25.4728 9.12087L30.4125 14.0596C30.6961 14.329 31.0738 14.477 31.4649 14.472C31.856 14.467 32.2297 14.3094 32.5063 14.0328C32.783 13.7562 32.9406 13.3825 32.9456 12.9914C32.9506 12.6002 32.8026 12.2226 32.5332 11.939L25.0332 4.43899C24.7519 4.1579 24.3705 4 23.9728 4C23.5752 4 23.1938 4.1579 22.9125 4.43899L15.4125 11.939C15.1431 12.2226 14.9951 12.6002 15.0001 12.9914C15.0051 13.3825 15.1627 13.7562 15.4393 14.0328C15.7159 14.3094 16.0897 14.467 16.4808 14.472C16.8719 14.477 17.2496 14.329 17.5332 14.0596L22.4728 9.12087V17.4993H25.4728V9.12087Z" fill="#1F2024"/>
</svg>
