<svg width="48" height="48" viewBox="0 0 48 48" fill="none" xmlns="http://www.w3.org/2000/svg">
<path d="M39.15 18.85C39.09 18.79 39.03 18.74 38.97 18.69C37.78 17.8 36.53 17.35 35.25 17.35H31.45C30.51 17.35 29.75 18.11 29.75 19.05C29.75 19.99 30.51 20.75 31.45 20.75H35.25C35.76 20.75 36.27 20.94 36.83 21.33C37.16 21.7 37.35 22.13 37.35 22.55V39.45C37.35 39.89 37.13 40.37 36.75 40.75C36.43 41.07 35.88 41.25 35.25 41.25H12.75C12.24 41.25 11.73 41.06 11.17 40.67C10.84 40.3 10.65 39.87 10.65 39.45V22.55C10.65 22.11 10.87 21.63 11.25 21.25C11.57 20.93 12.11 20.75 12.75 20.75H16.55C17.49 20.75 18.25 19.99 18.25 19.05C18.25 18.11 17.49 17.35 16.55 17.35H12.75C11.2 17.35 9.81 17.88 8.85 18.85C7.82 19.88 7.25 21.2 7.25 22.55V39.45C7.25 40.81 7.82 42.12 8.85 43.15C8.91 43.21 8.97 43.26 9.03 43.31C10.22 44.2 11.47 44.65 12.75 44.65H35.25C36.8 44.65 38.18 44.12 39.15 43.15C40.18 42.12 40.75 40.8 40.75 39.45V22.55C40.75 21.19 40.18 19.88 39.15 18.85Z" fill="#1F2024"/>
<path d="M17.65 13.75L22.25 9.14998V27.55C22.25 28.49 23.01 29.25 23.95 29.25C24.89 29.25 25.65 28.49 25.65 27.55V9.14998L30.25 13.75C30.58 14.08 31.02 14.25 31.45 14.25C31.88 14.25 32.32 14.08 32.65 13.75C33.31 13.09 33.31 12.01 32.65 11.35L25.15 3.84998C24.49 3.18998 23.41 3.18998 22.75 3.84998L15.25 11.35C14.59 12.01 14.59 13.09 15.25 13.75C15.91 14.41 16.99 14.41 17.65 13.75Z" fill="#1F2024"/>
</svg>
