<svg width="48" height="48" viewBox="0 0 48 48" fill="none" xmlns="http://www.w3.org/2000/svg">
<path d="M38.8 19.1999C38.8 19.1999 38.72 19.1199 38.67 19.0899C37.57 18.2699 36.42 17.8499 35.25 17.8499H31.45C30.79 17.8499 30.25 18.3899 30.25 19.0499C30.25 19.7099 30.79 20.2499 31.45 20.2499H35.25C35.88 20.2499 36.5 20.4799 37.16 20.9599C37.6 21.4299 37.85 21.9999 37.85 22.5499V39.4499C37.85 40.0199 37.58 40.6299 37.1 41.0999C36.54 41.6599 35.7 41.7499 35.25 41.7499H12.75C12.12 41.7499 11.5 41.5199 10.84 41.0399C10.4 40.5699 10.15 39.9999 10.15 39.4499V22.5499C10.15 21.9799 10.42 21.3699 10.9 20.8999C11.46 20.3399 12.3 20.2499 12.75 20.2499H16.55C17.21 20.2499 17.75 19.7099 17.75 19.0499C17.75 18.3899 17.21 17.8499 16.55 17.8499H12.75C11.33 17.8499 10.07 18.3299 9.2 19.1999C8.26 20.1399 7.75 21.3299 7.75 22.5499V39.4499C7.75 40.6599 8.28 41.8799 9.2 42.7999C9.24 42.8399 9.28 42.8799 9.33 42.9099C10.43 43.7299 11.58 44.1499 12.75 44.1499H35.25C36.67 44.1499 37.93 43.6699 38.8 42.7999C39.72 41.8799 40.25 40.6599 40.25 39.4499V22.5499C40.25 21.3299 39.73 20.1399 38.8 19.1999Z" fill="#1F2024"/>
<path d="M17.3 13.3999L22.75 7.94991V27.5499C22.75 28.2099 23.29 28.7499 23.95 28.7499C24.61 28.7499 25.15 28.2099 25.15 27.5499V7.94991L30.6 13.3999C30.83 13.6299 31.14 13.7499 31.45 13.7499C31.76 13.7499 32.06 13.6299 32.3 13.3999C32.77 12.9299 32.77 12.1699 32.3 11.6999L24.8 4.19991C24.33 3.72991 23.57 3.72991 23.1 4.19991L15.6 11.6999C15.13 12.1699 15.13 12.9299 15.6 13.3999C16.07 13.8699 16.83 13.8699 17.3 13.3999Z" fill="#1F2024"/>
</svg>
