<svg width="48" height="48" viewBox="0 0 48 48" fill="none" xmlns="http://www.w3.org/2000/svg">
<path d="M5.06005 39.7001C4.95005 39.7001 4.83005 39.6801 4.72005 39.6501C4.25005 39.5101 3.91005 39.1001 3.86005 38.6201C3.26005 32.6101 4.89005 27.0901 8.47005 23.1001C12.16 18.9701 17.81 16.6501 24.86 16.3401V9.50006C24.86 9.03006 25.13 8.61006 25.56 8.41006C25.99 8.22006 26.49 8.28006 26.84 8.59006L43.84 23.0901C44.11 23.3201 44.27 23.6701 44.26 24.0201C44.26 24.3801 44.09 24.7201 43.81 24.9401L26.81 38.4401C26.45 38.7301 25.96 38.7801 25.54 38.5801C25.13 38.3801 24.86 37.9601 24.86 37.5001V31.5901C17.38 31.0301 10.23 33.9101 6.00005 39.2501C5.77005 39.5401 5.42005 39.7001 5.06005 39.7001V39.7001ZM27.26 12.1001V17.5001C27.26 18.1601 26.73 18.6901 26.07 18.7001C19.06 18.7901 13.74 20.8001 10.26 24.7001C7.71005 27.5601 6.29005 31.3401 6.15005 35.5401C11.2 30.7801 18.62 28.4201 26.2 29.3101C26.8 29.3801 27.26 29.8901 27.26 30.5001V35.0101L41.17 23.9601L27.26 12.1001Z" fill="#1F2024"/>
</svg>
