<svg width="48" height="48" viewBox="0 0 48 48" fill="none" xmlns="http://www.w3.org/2000/svg">
<path d="M5.06161 39.993C4.92161 39.993 4.78161 39.973 4.64161 39.933C4.05161 39.763 3.63161 39.253 3.56161 38.643C2.95161 32.523 4.62161 26.913 8.27161 22.843C11.9716 18.723 17.5816 16.383 24.5616 16.033V9.49302C24.5616 8.91302 24.9016 8.37302 25.4316 8.13302C25.9616 7.89302 26.5916 7.97302 27.0316 8.35302L44.0316 22.853C44.3716 23.143 44.5616 23.573 44.5616 24.023C44.5616 24.473 44.3416 24.893 43.9916 25.173L26.9916 38.673C26.5416 39.033 25.9216 39.103 25.4116 38.853C24.8916 38.603 24.5616 38.073 24.5616 37.503V31.873C17.2216 31.413 10.3016 34.233 6.24161 39.423C5.95161 39.793 5.51161 40.003 5.06161 40.003V39.993ZM27.5616 12.743V17.493C27.5616 18.313 26.9016 18.983 26.0716 18.993C19.1716 19.053 13.9316 21.023 10.5016 24.843C8.13161 27.483 6.75161 30.933 6.48161 34.793C11.5316 30.313 18.7816 28.123 26.2216 29.003C26.9816 29.093 27.5416 29.733 27.5416 30.493V34.383L40.6816 23.953L27.5616 12.743Z" fill="#1F2024"/>
</svg>
