<svg width="48" height="48" viewBox="0 0 48 48" fill="none" xmlns="http://www.w3.org/2000/svg">
<path d="M4.65835 38.3251C4.34943 38.2331 4.08142 38.0601 3.89171 37.8301C3.702 37.6002 3.60006 37.3248 3.6001 37.0424C3.6001 30.8449 5.03987 25.8887 7.88117 22.3102C11.3139 17.9864 16.7287 15.6583 24.0002 15.3692V8.55631C24.0002 8.2907 24.0904 8.03093 24.2597 7.80925C24.4289 7.58756 24.6698 7.4137 24.9523 7.30925C25.2348 7.20479 25.5466 7.17433 25.8489 7.22165C26.1513 7.26896 26.4309 7.39197 26.6532 7.57541L43.9148 21.8184C44.0681 21.9451 44.1902 22.0973 44.2737 22.2659C44.3571 22.4345 44.4001 22.616 44.4001 22.7993C44.4001 22.9827 44.3571 23.1642 44.2737 23.3328C44.1902 23.5014 44.0681 23.6536 43.9148 23.7802L26.6532 38.0233C26.4309 38.2067 26.1513 38.3297 25.8489 38.377C25.5466 38.4243 25.2348 38.3939 24.9523 38.2894C24.6698 38.185 24.4289 38.0111 24.2597 37.7894C24.0904 37.5677 24.0002 37.308 24.0002 37.0424V30.2795C19.5867 30.3948 16.2521 31.0128 13.5971 32.1989C10.7284 33.4808 8.64813 35.3959 6.40609 37.8791C6.20495 38.1018 5.92844 38.2646 5.61512 38.3448C5.3018 38.4251 4.96732 38.4171 4.65835 38.3251Z" fill="#1F2024"/>
</svg>
