<svg width="48" height="48" viewBox="0 0 48 48" fill="none" xmlns="http://www.w3.org/2000/svg">
<path d="M33.9 31.8C32.52 31.8 31.26 32.3 30.24 33.08L30.32 32.96L19.64 25.86C19.86 25.24 20 24.58 20 23.9C20 23.22 19.86 22.56 19.64 21.94L30.32 14.84L30.24 14.72C31.26 15.52 32.52 16 33.9 16C37.2 16 39.9 13.3 39.9 10C39.9 6.7 37.2 4 33.9 4C30.6 4 27.9 6.7 27.9 10C27.9 10.66 28.04 11.3 28.24 11.9L17.5 19.04C16.52 18.32 15.32 17.9 14 17.9C10.7 17.9 8 20.6 8 23.9C8 27.2 10.7 29.9 14 29.9C15.3 29.9 16.5 29.46 17.5 28.76L28.24 35.9C28.04 36.5 27.9 37.14 27.9 37.8C27.9 41.1 30.6 43.8 33.9 43.8C37.2 43.8 39.9 41.1 39.9 37.8C39.9 34.5 37.2 31.8 33.9 31.8Z" fill="#1F2024"/>
</svg>
