<svg width="48" height="48" viewBox="0 0 48 48" fill="none" xmlns="http://www.w3.org/2000/svg">
<path d="M35.5 31.75C33.9 31.75 32.46 32.41 31.41 33.46L18 25.65C18.16 25.13 18.24 24.57 18.24 24C18.24 23.43 18.16 22.89 18 22.38L31.72 14.84C32.73 15.72 34.04 16.25 35.48 16.25C38.65 16.25 41.23 13.67 41.23 10.5C41.23 7.33 38.67 4.75 35.5 4.75C32.33 4.75 29.75 7.33 29.75 10.5C29.75 11.3 29.91 12.05 30.21 12.74L16.75 20.14C15.7 18.98 14.18 18.25 12.5 18.25C9.33 18.25 6.75 20.83 6.75 24C6.75 27.17 9.33 29.75 12.5 29.75C14.17 29.75 15.68 29.03 16.73 27.88L30.06 35.65C29.86 36.23 29.75 36.85 29.75 37.5C29.75 40.67 32.33 43.25 35.5 43.25C38.67 43.25 41.25 40.67 41.25 37.5C41.25 34.33 38.67 31.75 35.5 31.75ZM35.5 7.25C37.32 7.25 38.75 8.68 38.75 10.5C38.75 12.32 37.32 13.75 35.5 13.75C33.68 13.75 32.25 12.32 32.25 10.5C32.25 8.68 33.68 7.25 35.5 7.25ZM12.5 27.25C10.68 27.25 9.25 25.82 9.25 24C9.25 22.18 10.68 20.75 12.5 20.75C14.32 20.75 15.75 22.18 15.75 24C15.75 25.82 14.32 27.25 12.5 27.25ZM35.5 40.75C33.68 40.75 32.25 39.32 32.25 37.5C32.25 35.68 33.68 34.25 35.5 34.25C37.32 34.25 38.75 35.68 38.75 37.5C38.75 39.32 37.32 40.75 35.5 40.75Z" fill="#1F2024"/>
</svg>
