<svg width="48" height="48" viewBox="0 0 48 48" fill="none" xmlns="http://www.w3.org/2000/svg">
<path d="M35.05 31C33.45 31 32 31.63 30.92 32.64L17.9 25.05C18.02 24.57 18.1 24.07 18.1 23.55C18.1 23.03 18.03 22.56 17.91 22.08L31.25 14.74C32.29 15.58 33.61 16.09 35.05 16.09C38.39 16.09 41.1 13.38 41.1 10.04C41.1 6.7 38.39 4 35.05 4C31.71 4 29 6.71 29 10.05C29 10.79 29.14 11.5 29.39 12.16L16.37 19.32C15.27 18.2 13.74 17.5 12.05 17.5C8.71 17.5 6 20.21 6 23.55C6 26.89 8.71 29.6 12.05 29.6C13.73 29.6 15.25 28.91 16.34 27.81L29.25 35.34C29.09 35.88 29 36.46 29 37.05C29 40.39 31.71 43.1 35.05 43.1C38.39 43.1 41.1 40.39 41.1 37.05C41.1 33.71 38.39 31 35.05 31V31ZM35.05 7.1C36.68 7.1 38 8.42 38 10.05C38 11.68 36.68 13 35.05 13C33.42 13 32.1 11.68 32.1 10.05C32.1 8.42 33.42 7.1 35.05 7.1ZM12.05 26.5C10.42 26.5 9.1 25.18 9.1 23.55C9.1 21.92 10.42 20.6 12.05 20.6C13.07 20.6 13.96 21.12 14.5 21.9C14.53 21.97 14.55 22.04 14.59 22.11C14.62 22.16 14.65 22.19 14.68 22.23C14.88 22.63 15.01 23.07 15.01 23.55C15.01 24.03 14.9 24.44 14.71 24.83C14.68 24.87 14.64 24.91 14.61 24.96C14.56 25.04 14.53 25.12 14.5 25.21C13.97 25.99 13.07 26.5 12.06 26.5H12.05ZM35.05 40C33.42 40 32.1 38.68 32.1 37.05C32.1 35.42 33.42 34.1 35.05 34.1C36.68 34.1 38 35.42 38 37.05C38 38.68 36.68 40 35.05 40Z" fill="#1F2024"/>
</svg>
