<svg width="48" height="48" viewBox="0 0 48 48" fill="none" xmlns="http://www.w3.org/2000/svg">
<path d="M5.06001 40.2001C4.90001 40.2001 4.74001 40.1801 4.58001 40.1301C3.92001 39.9401 3.44001 39.3601 3.37001 38.6701C2.75001 32.5101 4.43001 26.8701 8.10001 22.7601C11.8 18.6301 17.39 16.2601 24.36 15.8501V9.50007C24.36 8.84007 24.75 8.23007 25.35 7.96007C25.95 7.68007 26.66 7.78007 27.17 8.21007L44.17 22.7101C44.56 23.0401 44.78 23.5301 44.77 24.0301C44.77 24.5401 44.52 25.0201 44.13 25.3301L27.13 38.8301C26.62 39.2401 25.92 39.3101 25.33 39.0301C24.74 38.7501 24.37 38.1501 24.37 37.5001V32.0601C17.22 31.6701 10.44 34.4601 6.40001 39.5601C6.07001 39.9701 5.58001 40.2001 5.07001 40.2001H5.06001ZM27.76 13.1801V17.5001C27.76 18.4301 27.01 19.1901 26.08 19.2001C19.21 19.2801 14.02 21.2401 10.63 25.0301C8.40001 27.5301 7.06001 30.7501 6.72001 34.3601C11.83 30.0501 18.97 27.9601 26.25 28.8201C27.11 28.9201 27.75 29.6501 27.75 30.5101V33.9901L40.37 23.9601L27.76 13.1801Z" fill="#1F2024"/>
</svg>
