<svg width="48" height="48" viewBox="0 0 48 48" fill="none" xmlns="http://www.w3.org/2000/svg">
<path d="M5.06161 39.9931C4.92161 39.9931 4.78161 39.9731 4.64161 39.9331C4.05161 39.7631 3.63161 39.2531 3.56161 38.6431C2.95161 32.5231 4.62161 26.9131 8.27161 22.8431C11.9716 18.7231 17.5816 16.3831 24.5616 16.0331V9.49314C24.5616 8.91314 24.9016 8.37314 25.4316 8.13314C25.9616 7.89314 26.5916 7.97314 27.0316 8.35314L44.0316 22.8531C44.3716 23.1431 44.5616 23.5731 44.5616 24.0231C44.5616 24.4731 44.3416 24.8931 43.9916 25.1731L26.9916 38.6731C26.5416 39.0331 25.9216 39.1031 25.4116 38.8531C24.8916 38.6031 24.5616 38.0731 24.5616 37.5031V31.8731C17.2216 31.4131 10.3016 34.2331 6.24161 39.4231C5.95161 39.7931 5.51161 40.0031 5.06161 40.0031V39.9931ZM27.5616 12.7431V17.4931C27.5616 18.3131 26.9016 18.9831 26.0716 18.9931C19.1716 19.0531 13.9316 21.0231 10.5016 24.8431C8.13161 27.4831 6.75161 30.9331 6.48161 34.7931C11.5316 30.3131 18.7816 28.1231 26.2216 29.0031C26.9816 29.0931 27.5416 29.7331 27.5416 30.4931V34.3831L40.6816 23.9531L27.5616 12.7431Z" fill="#1F2024"/>
</svg>
