<svg width="48" height="49" viewBox="0 0 48 49" fill="none" xmlns="http://www.w3.org/2000/svg">
<path d="M38.93 18.4424C37.94 17.5124 36.64 17.0024 35.25 17.0024H31.5C30.67 17.0024 30 17.6724 30 18.5024C30 19.3324 30.67 20.0024 31.5 20.0024H35.25C35.86 20.0024 36.45 20.2324 36.87 20.6324C37.27 21.0124 37.5 21.5124 37.5 22.0324V38.9724C37.5 39.4924 37.28 39.9924 36.87 40.3724C36.45 40.7724 35.85 41.0024 35.25 41.0024H12.75C12.14 41.0024 11.55 40.7724 11.13 40.3724C10.73 39.9924 10.5 39.4924 10.5 38.9724V22.0324C10.5 21.5124 10.72 21.0124 11.13 20.6324C11.55 20.2324 12.15 20.0024 12.75 20.0024H16.5C17.33 20.0024 18 19.3324 18 18.5024C18 17.6724 17.33 17.0024 16.5 17.0024H12.75C11.37 17.0024 10.06 17.5124 9.07 18.4424C8.07 19.3824 7.5 20.6924 7.5 22.0324V38.9724C7.5 40.3124 8.07 41.6224 9.07 42.5624C10.06 43.4924 11.36 44.0024 12.75 44.0024H35.25C36.63 44.0024 37.94 43.4924 38.93 42.5624C39.93 41.6224 40.5 40.3124 40.5 38.9724V22.0324C40.5 20.6924 39.93 19.3824 38.93 18.4424Z" fill="#1F2024"/>
<path d="M17.5601 13.0625L22.5001 8.1225V27.0025C22.5001 27.8325 23.1701 28.5025 24.0001 28.5025C24.8301 28.5025 25.5001 27.8325 25.5001 27.0025V8.1225L30.4401 13.0625C30.7301 13.3525 31.1201 13.5025 31.5001 13.5025C31.8801 13.5025 32.2701 13.3525 32.5601 13.0625C33.1501 12.4725 33.1501 11.5225 32.5601 10.9425L25.0601 3.4425C24.4701 2.8525 23.5201 2.8525 22.9401 3.4425L15.4401 10.9425C14.8501 11.5325 14.8501 12.4825 15.4401 13.0625C16.0301 13.6425 16.9801 13.6525 17.5601 13.0625Z" fill="#1F2024"/>
</svg>
