<svg width="48" height="48" viewBox="0 0 48 48" fill="none" xmlns="http://www.w3.org/2000/svg">
<path d="M5.06154 39.993C4.92154 39.993 4.78154 39.973 4.64154 39.933C4.05154 39.763 3.63154 39.253 3.56154 38.643C2.95154 32.523 4.62154 26.913 8.27154 22.843C11.9715 18.723 17.5815 16.383 24.5615 16.033V9.49302C24.5615 8.91302 24.9015 8.37302 25.4315 8.13302C25.9615 7.89302 26.5915 7.97302 27.0315 8.35302L44.0315 22.853C44.3715 23.143 44.5615 23.573 44.5615 24.023C44.5615 24.473 44.3415 24.893 43.9915 25.173L26.9915 38.673C26.5415 39.033 25.9215 39.103 25.4115 38.853C24.8915 38.603 24.5615 38.073 24.5615 37.503V31.873C17.2215 31.413 10.3015 34.233 6.24154 39.423C5.95154 39.793 5.51154 40.003 5.06154 40.003V39.993ZM27.5615 12.743V17.493C27.5615 18.313 26.9015 18.983 26.0715 18.993C19.1715 19.053 13.9315 21.023 10.5015 24.843C8.13154 27.483 6.75154 30.933 6.48154 34.793C11.5315 30.313 18.7815 28.123 26.2215 29.003C26.9815 29.093 27.5415 29.733 27.5415 30.493V34.383L40.6815 23.953L27.5615 12.743Z" fill="#1F2024"/>
</svg>
