<svg width="48" height="48" viewBox="0 0 48 48" fill="none" xmlns="http://www.w3.org/2000/svg">
<path d="M5.06026 40.2001C4.90026 40.2001 4.74026 40.1801 4.58026 40.1301C3.92026 39.9401 3.44026 39.3601 3.37026 38.6701C2.75026 32.5101 4.43026 26.8701 8.10026 22.7601C11.8003 18.6301 17.3903 16.2601 24.3603 15.8501V9.50007C24.3603 8.84007 24.7503 8.23007 25.3503 7.96007C25.9503 7.68007 26.6603 7.78007 27.1703 8.21007L44.1703 22.7101C44.5603 23.0401 44.7803 23.5301 44.7703 24.0301C44.7703 24.5401 44.5203 25.0201 44.1303 25.3301L27.1303 38.8301C26.6203 39.2401 25.9203 39.3101 25.3303 39.0301C24.7403 38.7501 24.3703 38.1501 24.3703 37.5001V32.0601C17.2203 31.6701 10.4403 34.4601 6.40026 39.5601C6.07026 39.9701 5.58026 40.2001 5.07026 40.2001H5.06026ZM27.7603 13.1801V17.5001C27.7603 18.4301 27.0103 19.1901 26.0803 19.2001C19.2103 19.2801 14.0203 21.2401 10.6303 25.0301C8.40026 27.5301 7.06026 30.7501 6.72026 34.3601C11.8303 30.0501 18.9703 27.9601 26.2503 28.8201C27.1103 28.9201 27.7503 29.6501 27.7503 30.5101V33.9901L40.3703 23.9601L27.7603 13.1801Z" fill="#1F2024"/>
</svg>
