<svg width="48" height="48" viewBox="0 0 48 48" fill="none" xmlns="http://www.w3.org/2000/svg">
<path d="M35.4902 31.45C33.8902 31.45 32.4402 32.08 31.3602 33.09L18.3402 25.5C18.4602 25.02 18.5402 24.52 18.5402 24C18.5402 23.48 18.4702 23 18.3502 22.53L31.6902 15.2C32.7302 16.04 34.0502 16.55 35.4902 16.55C38.8302 16.55 41.5402 13.84 41.5402 10.5C41.5402 7.15995 38.8302 4.44995 35.4902 4.44995C32.1502 4.44995 29.4402 7.15995 29.4402 10.5C29.4402 11.24 29.5802 11.95 29.8302 12.61L16.8102 19.77C15.7102 18.65 14.1902 17.96 12.5002 17.96C9.1602 17.96 6.4502 20.67 6.4502 24.01C6.4502 27.35 9.1602 30.06 12.5002 30.06C14.1802 30.06 15.6902 29.38 16.7902 28.27L29.7002 35.79C29.5402 36.33 29.4502 36.91 29.4502 37.5C29.4502 40.84 32.1602 43.5499 35.5002 43.5499C38.8402 43.5499 41.5502 40.84 41.5502 37.5C41.5502 34.16 38.8402 31.45 35.5002 31.45H35.4902ZM35.4902 7.54995C37.1402 7.54995 38.4402 8.84995 38.4402 10.5C38.4402 12.15 37.1402 13.45 35.4902 13.45C33.8402 13.45 32.5402 12.15 32.5402 10.5C32.5402 8.84995 33.8402 7.54995 35.4902 7.54995ZM12.4902 26.95C10.8402 26.95 9.5402 25.65 9.5402 24C9.5402 22.35 10.8402 21.05 12.4902 21.05C14.1402 21.05 15.4402 22.35 15.4402 24C15.4402 25.65 14.1402 26.95 12.4902 26.95ZM35.4902 40.45C33.8402 40.45 32.5402 39.15 32.5402 37.5C32.5402 35.85 33.8402 34.55 35.4902 34.55C37.1402 34.55 38.4402 35.85 38.4402 37.5C38.4402 39.15 37.1402 40.45 35.4902 40.45Z" fill="#1F2024"/>
</svg>
