<svg width="48" height="48" viewBox="0 0 48 48" fill="none" xmlns="http://www.w3.org/2000/svg">
<path d="M4.61996 40C4.47996 40 4.33996 39.98 4.19996 39.94C3.60996 39.77 3.18996 39.26 3.11996 38.65C2.50996 32.53 4.17996 26.92 7.82996 22.85C11.53 18.73 17.14 16.39 24.12 16.04V9.49998C24.12 8.91998 24.46 8.37998 24.99 8.13998C25.52 7.89998 26.15 7.97998 26.59 8.35998L43.59 22.86C43.93 23.15 44.12 23.58 44.12 24.03C44.12 24.48 43.9 24.9 43.55 25.18L26.55 38.68C26.1 39.04 25.48 39.11 24.97 38.86C24.45 38.61 24.12 38.08 24.12 37.51V31.88C16.78 31.42 9.85996 34.24 5.79996 39.43C5.50996 39.8 5.06996 40.01 4.61996 40.01V40ZM27.12 12.75V17.5C27.12 18.32 26.46 18.99 25.63 19C18.73 19.06 13.49 21.03 10.06 24.85C7.68996 27.49 6.30996 30.94 6.03996 34.8C11.09 30.32 18.34 28.13 25.78 29.01C26.54 29.1 27.1 29.74 27.1 30.5V34.39L40.24 23.96L27.12 12.75Z" fill="#1F2024"/>
</svg>
