<svg width="48" height="48" viewBox="0 0 48 48" fill="none" xmlns="http://www.w3.org/2000/svg">
<path d="M43.8801 18.0851C43.2201 17.4451 42.3401 17.0851 41.4201 17.0851H34.2001L25.2001 5.08514C24.6201 4.32514 23.3601 4.32514 22.8001 5.08514L13.7801 17.0851H6.58006C5.64006 17.0851 4.76006 17.4451 4.10006 18.0851C3.44006 18.7451 3.06006 19.6251 3.06006 20.5651C3.06006 20.8851 3.10006 21.2051 3.20006 21.5051L7.24006 39.4851C7.56006 40.6451 8.28006 41.6651 9.22006 42.3851C10.1801 43.1051 11.3401 43.4851 12.5201 43.4851H35.4601C36.6601 43.4851 37.8201 43.0851 38.7801 42.3851C39.7201 41.6851 40.4401 40.6451 40.8001 39.4251L44.8401 21.4651C44.8401 21.4651 44.8601 21.3651 44.8801 21.2851L44.9401 20.7451V20.5651C44.9401 19.6251 44.5601 18.7451 43.9001 18.1051L43.8801 18.0851ZM24.0001 8.46514L30.4601 17.0651H17.5401L24.0001 8.46514ZM16.8201 35.7651C16.0201 35.9651 15.2001 35.4651 15.0201 34.6451L13.0201 26.2451C12.8201 25.4451 13.3201 24.6251 14.1401 24.4451C14.9401 24.2451 15.7601 24.7451 15.9401 25.5651L17.9401 33.9651C18.1401 34.7651 17.6401 35.5851 16.8201 35.7651ZM25.5001 34.3051C25.5001 35.1251 24.8201 35.8051 24.0001 35.8051C23.1801 35.8051 22.5001 35.1251 22.5001 34.3051V25.9051C22.5001 25.0851 23.1801 24.4051 24.0001 24.4051C24.8201 24.4051 25.5001 25.0851 25.5001 25.9051V34.3051ZM34.9801 26.2451L32.9801 34.6451C32.7801 35.4451 31.9801 35.9451 31.1801 35.7651C30.3801 35.5651 29.8801 34.7651 30.0601 33.9651L32.0601 25.5651C32.2601 24.7651 33.0601 24.2651 33.8601 24.4451C34.6601 24.6451 35.1601 25.4451 34.9801 26.2451Z" fill="#1F2024"/>
</svg>
