<svg width="48" height="48" viewBox="0 0 48 48" fill="none" xmlns="http://www.w3.org/2000/svg">
<path d="M12.5399 43.1998C11.4299 43.1998 10.3199 42.8198 9.40986 42.1498C8.49986 41.4698 7.83986 40.4998 7.52986 39.4098L3.47986 21.4398C3.39986 21.1498 3.35986 20.8698 3.35986 20.5598C3.35986 19.7098 3.69986 18.9098 4.31986 18.2898C4.92986 17.6898 5.72986 17.3598 6.58986 17.3598H13.9499L23.0399 5.2598C23.2499 4.9698 23.6199 4.7998 24.0099 4.7998C24.3999 4.7998 24.7699 4.9698 24.9799 5.2598L34.0599 17.3798H41.4199C42.2799 17.3798 43.0799 17.7098 43.6899 18.3098L43.8399 18.4598C44.3599 19.0398 44.6399 19.7798 44.6399 20.5598V20.7398L44.5799 21.2498L44.5499 21.3998L40.5099 39.3498C40.1799 40.4898 39.5199 41.4698 38.6099 42.1498C37.7099 42.8298 36.5999 43.1998 35.4599 43.1998H12.5399ZM6.58986 19.7998C6.37986 19.7998 6.17986 19.8798 6.02986 20.0298C5.87986 20.1798 5.79986 20.3798 5.79986 20.5898L5.83986 20.8398L9.87986 38.8198C10.0399 39.3598 10.3999 39.8698 10.8699 40.2098C11.3699 40.5798 11.9299 40.7698 12.5499 40.7698H35.4899C36.0999 40.7698 36.6999 40.5698 37.1799 40.1998C37.6599 39.8398 38.0199 39.3198 38.1899 38.7298L42.2499 20.5298V20.4798C42.2099 20.2998 42.1299 20.1498 42.0099 20.0298C41.8599 19.8798 41.6599 19.7998 41.4499 19.7998H6.58986ZM16.9899 17.3798H31.0399L24.0199 8.0098L16.9899 17.3798Z" fill="#1F2024"/>
<path fill-rule="evenodd" clip-rule="evenodd" d="M16.4799 35.5398C15.9199 35.5398 15.4299 35.1598 15.2999 34.6098L13.2999 26.2098C13.1499 25.5598 13.5499 24.8998 14.1999 24.7498C14.2899 24.7298 14.3899 24.7198 14.4799 24.7198C15.0399 24.7198 15.5299 25.0998 15.6599 25.6498L17.6599 34.0498C17.8099 34.6998 17.4099 35.3598 16.7599 35.5198C16.6699 35.5398 16.5699 35.5498 16.4799 35.5498V35.5398Z" fill="#1F2024"/>
<path fill-rule="evenodd" clip-rule="evenodd" d="M24.0099 35.5398C23.3399 35.5398 22.7899 34.9898 22.7899 34.3198V25.9198C22.7899 25.2498 23.3399 24.6998 24.0099 24.6998C24.6799 24.6998 25.2299 25.2498 25.2299 25.9198V34.3198C25.2299 34.9898 24.6799 35.5398 24.0099 35.5398Z" fill="#1F2024"/>
<path fill-rule="evenodd" clip-rule="evenodd" d="M31.5399 35.5398C31.4499 35.5398 31.3499 35.5298 31.2599 35.5098C30.9399 35.4298 30.6799 35.2398 30.5099 34.9598C30.3399 34.6798 30.2899 34.3598 30.3599 34.0398L32.3599 25.6398C32.4899 25.0898 32.9799 24.7098 33.5399 24.7098C33.6299 24.7098 33.7299 24.7198 33.8199 24.7398C34.1399 24.8198 34.3999 25.0098 34.5699 25.2898C34.7399 25.5698 34.7899 25.8898 34.7199 26.2098L32.7199 34.6098C32.5899 35.1598 32.0999 35.5398 31.5399 35.5398Z" fill="#1F2024"/>
</svg>
