<svg width="48" height="48" viewBox="0 0 48 48" fill="none" xmlns="http://www.w3.org/2000/svg">
<path d="M12.5149 43.77C11.2849 43.77 10.0549 43.36 9.0449 42.6C8.0349 41.85 7.2949 40.77 6.9649 39.56L2.9149 21.57C2.8249 21.26 2.7749 20.93 2.7749 20.57C2.7749 19.57 3.1749 18.62 3.8949 17.9C4.6149 17.19 5.5549 16.81 6.5649 16.81H13.6449L22.5749 4.90998C22.8949 4.47998 23.4249 4.22998 24.0049 4.22998C24.5849 4.22998 25.1149 4.48998 25.4349 4.90998L34.3549 16.81H41.4349C42.2249 16.81 42.9849 17.05 43.6249 17.5V17.43L44.1049 17.89C44.8249 18.6 45.2249 19.55 45.2249 20.55V20.73L45.1649 21.3L45.1349 21.49L41.0949 39.46C40.7249 40.75 39.9949 41.83 38.9749 42.59C37.9849 43.34 36.7449 43.76 35.4849 43.76H12.5149V43.77ZM6.3449 20.59L6.3749 20.74L10.4149 38.7C10.5249 39.08 10.8249 39.49 11.1849 39.76C11.5849 40.05 12.0349 40.2 12.5249 40.2H35.4649C35.9549 40.2 36.4349 40.04 36.8149 39.75C37.2049 39.46 37.4949 39.04 37.6249 38.58L41.6449 20.53C41.6449 20.53 41.6149 20.46 41.5849 20.43C41.5449 20.39 41.4849 20.36 41.4249 20.36H6.5649C6.5049 20.36 6.4449 20.39 6.4049 20.43C6.3649 20.47 6.3349 20.53 6.3349 20.59H6.3449ZM29.8949 16.81L24.0049 8.95998L18.1149 16.81H29.9049H29.8949Z" fill="#1F2024"/>
<path d="M24.1049 37.63C23.3049 37.63 22.6549 36.98 22.6549 36.18V34.79H19.4049C18.6549 34.79 18.0349 34.18 18.0349 33.43C18.0349 32.68 18.6449 32.07 19.4049 32.07H22.6549V31.4H19.4049C18.6549 31.4 18.0349 30.79 18.0349 30.04C18.0349 29.29 18.6449 28.68 19.4049 28.68H21.7849L18.6649 26.13C18.3649 25.88 18.1749 25.54 18.1349 25.15C18.0949 24.76 18.2149 24.39 18.4649 24.09C18.7349 23.75 19.1449 23.56 19.5849 23.56C19.9149 23.56 20.2449 23.68 20.5049 23.89L24.0249 26.77L27.2149 23.75C27.4849 23.5 27.8449 23.36 28.2149 23.36C28.6249 23.36 28.9949 23.52 29.2649 23.81C29.5349 24.09 29.6749 24.45 29.6649 24.84C29.6649 25.23 29.4949 25.59 29.2049 25.86L26.2249 28.69H28.5849C29.3349 28.69 29.9549 29.3 29.9549 30.05C29.9549 30.8 29.3449 31.41 28.5849 31.41H25.5549V32.08H28.5849C29.3349 32.08 29.9549 32.69 29.9549 33.44C29.9549 34.19 29.3449 34.8 28.5849 34.8H25.5549V36.19C25.5549 36.99 24.9049 37.64 24.1049 37.64V37.63Z" fill="#1F2024"/>
</svg>
