<svg width="48" height="48" viewBox="0 0 48 48" fill="none" xmlns="http://www.w3.org/2000/svg">
<path d="M43.8949 18.105C43.2349 17.455 42.3549 17.095 41.4249 17.095H34.2049L25.2049 5.08501C24.6349 4.32501 23.3749 4.32501 22.8049 5.08501L13.7949 17.085H6.57494C5.64494 17.085 4.76494 17.445 4.10494 18.095C3.44494 18.755 3.06494 19.635 3.06494 20.565C3.06494 20.885 3.10494 21.195 3.19494 21.505L7.24494 39.485C7.56494 40.635 8.27494 41.665 9.22494 42.375C10.1749 43.085 11.3449 43.485 12.5249 43.485H35.4749C36.6649 43.485 37.8449 43.095 38.7949 42.375C39.7449 41.665 40.4549 40.635 40.8049 39.405L44.8449 21.445C44.8549 21.395 44.8649 21.335 44.8749 21.275L44.9349 20.735C44.9349 20.675 44.9349 20.615 44.9349 20.555C44.9349 19.625 44.5549 18.745 43.8949 18.095V18.105ZM24.0049 8.48501L30.4649 17.095H17.5449L24.0049 8.48501ZM37.9049 38.665C37.7549 39.185 37.4349 39.655 36.9949 39.985C36.5649 40.315 36.0249 40.495 35.4749 40.495H12.5349C11.9649 40.495 11.4549 40.315 11.0249 39.995C10.5949 39.675 10.2749 39.205 10.1449 38.765L6.10494 20.795C6.10494 20.795 6.07494 20.635 6.06494 20.595C6.06494 20.465 6.11494 20.335 6.21494 20.235C6.30494 20.145 6.43494 20.085 6.57494 20.085H41.4349C41.5649 20.085 41.6949 20.135 41.7949 20.235C41.8749 20.315 41.9249 20.415 41.9449 20.535L37.9049 38.665Z" fill="#1F2024"/>
<path d="M28.5931 32.2008H25.4203V31.2504H28.5931C29.2661 31.2504 29.8167 30.701 29.8167 30.0296C29.8167 29.3582 29.2661 28.8088 28.5931 28.8088H25.8748L29.1175 25.7395C29.6419 25.2425 29.6681 24.4141 29.1699 23.8909C28.6717 23.3677 27.8414 23.3503 27.317 23.8386L24.0393 26.9428L20.4208 23.9868C19.8614 23.5334 19.031 23.6119 18.5765 24.1699C18.1133 24.728 18.2007 25.5564 18.7601 26.0098L22.1863 28.8088H19.4069C18.7339 28.8088 18.1832 29.3582 18.1832 30.0296C18.1832 30.701 18.7339 31.2504 19.4069 31.2504H22.7982V32.2008H19.4069C18.7339 32.2008 18.1832 32.7502 18.1832 33.4216C18.1832 34.093 18.7339 34.6423 19.4069 34.6423H22.7982V36.177C22.7982 36.9008 23.3838 37.485 24.1092 37.485C24.8347 37.485 25.4203 36.9008 25.4203 36.177V34.6423H28.5931C29.2661 34.6423 29.8167 34.093 29.8167 33.4216C29.8167 32.7502 29.2661 32.2008 28.5931 32.2008Z" fill="#1F2024"/>
</svg>
