<svg width="48" height="48" viewBox="0 0 48 48" fill="none" xmlns="http://www.w3.org/2000/svg">
<path d="M12.53 42.6849C11.39 42.6849 10.29 42.3149 9.38999 41.6349C8.48999 40.9549 7.82999 39.9849 7.51999 38.9049L3.47999 20.9349C3.39999 20.6449 3.35999 20.3549 3.35999 20.0649C3.35999 19.2149 3.70999 18.4149 4.30999 17.8149C4.90999 17.2149 5.71999 16.8849 6.56999 16.8849H13.94L23.04 4.76494C23.25 4.48494 23.61 4.31494 24 4.31494C24.39 4.31494 24.75 4.48494 24.96 4.76494L34.06 16.8949H41.43C42.28 16.8949 43.08 17.2249 43.69 17.8249C44.3 18.4249 44.63 19.2249 44.64 20.0749C44.64 20.1249 44.64 20.1749 44.64 20.2249L44.58 20.7649C44.58 20.7649 44.57 20.8549 44.56 20.8949L40.52 38.8449C40.19 39.9849 39.53 40.9549 38.62 41.6349C37.72 42.3049 36.61 42.6849 35.48 42.6849H12.53ZM6.56999 19.2849C6.35999 19.2849 6.14999 19.3649 5.99999 19.5149C5.84999 19.6649 5.75999 19.8649 5.75999 20.0849L5.79999 20.2949L9.84999 38.3149C9.99999 38.8549 10.37 39.3649 10.84 39.7249C11.33 40.0949 11.9 40.2849 12.53 40.2849H35.47C36.08 40.2849 36.68 40.0849 37.17 39.7149C37.66 39.3449 38.02 38.8249 38.19 38.2449L42.24 20.0449V19.9949C42.21 19.8149 42.13 19.6549 42 19.5249C41.84 19.3749 41.64 19.2949 41.43 19.2949H6.56999V19.2849ZM16.94 16.8849H31.05L24 7.48494L16.94 16.8949V16.8849Z" fill="#1F2024"/>
<path d="M27.62 35.3349C27.05 35.3349 26.53 34.9749 26.32 34.4349L23.93 28.1249L21.77 34.3849C21.58 34.9449 21.05 35.3249 20.44 35.3249C19.83 35.3249 19.31 34.9249 19.13 34.3549L17.58 29.5549H15.96C15.37 29.5549 14.89 29.0749 14.89 28.4849C14.89 27.8949 15.37 27.4149 15.96 27.4149H16.89L16.21 25.2949C16.03 24.7349 16.34 24.1249 16.9 23.9449C17.01 23.9149 17.12 23.8949 17.23 23.8949C17.7 23.8949 18.11 24.1949 18.25 24.6449L20.47 31.5549L22.57 25.4549C22.77 24.8949 23.3 24.5249 23.89 24.5249C24.48 24.5249 25.01 24.9049 25.2 25.4549L27.5 31.5349L29.42 24.6849C29.55 24.2249 29.98 23.9049 30.46 23.9049C30.56 23.9049 30.66 23.9149 30.75 23.9449C31.03 24.0249 31.26 24.2049 31.4 24.4549C31.54 24.7049 31.57 24.9949 31.5 25.2749L30.89 27.4349H32C32.59 27.4349 33.07 27.9149 33.07 28.5049C33.07 29.0949 32.59 29.5749 32 29.5749H30.28L28.94 34.3449C28.76 34.9349 28.24 35.3449 27.64 35.3649H27.59L27.62 35.3349Z" fill="#1F2024"/>
</svg>
