<svg width="48" height="48" viewBox="0 0 48 48" fill="none" xmlns="http://www.w3.org/2000/svg">
<path d="M12.52 43.77C11.29 43.77 10.06 43.36 9.05003 42.6C8.04003 41.85 7.30003 40.77 6.97003 39.56L2.92003 21.56C2.83003 21.25 2.78003 20.92 2.78003 20.56C2.78003 19.56 3.18003 18.61 3.90003 17.89C4.62003 17.18 5.56003 16.8 6.57003 16.8H13.65L22.58 4.90998C22.9 4.47998 23.43 4.22998 24.01 4.22998C24.59 4.22998 25.12 4.48998 25.44 4.90998L34.35 16.81H41.43C42.22 16.81 42.98 17.05 43.62 17.5V17.43L44.1 17.89C44.82 18.6 45.22 19.55 45.22 20.55V20.73L45.16 21.3L45.13 21.49L41.09 39.46C40.72 40.75 39.99 41.83 38.97 42.59C37.98 43.34 36.74 43.76 35.48 43.76H12.52V43.77ZM6.35003 20.59L6.38003 20.74L10.42 38.7C10.53 39.08 10.83 39.49 11.19 39.76C11.59 40.05 12.04 40.2 12.53 40.2H35.47C35.96 40.2 36.44 40.04 36.82 39.75C37.21 39.46 37.5 39.04 37.63 38.58L41.65 20.53C41.65 20.53 41.62 20.46 41.59 20.43C41.55 20.39 41.49 20.36 41.43 20.36H6.57003C6.51003 20.36 6.45003 20.39 6.41003 20.43C6.37003 20.47 6.34003 20.53 6.34003 20.59H6.35003ZM29.9 16.81L24.01 8.95998L18.12 16.81H29.9Z" fill="#1F2024"/>
<path fill-rule="evenodd" clip-rule="evenodd" d="M16.47 36.1C15.64 36.1 14.93 35.54 14.74 34.73L12.74 26.33C12.51 25.37 13.11 24.41 14.06 24.18C14.2 24.15 14.34 24.13 14.48 24.13C15.31 24.13 16.02 24.69 16.21 25.5L18.21 33.9C18.44 34.86 17.84 35.82 16.89 36.05C16.75 36.08 16.61 36.1 16.47 36.1Z" fill="#1F2024"/>
<path fill-rule="evenodd" clip-rule="evenodd" d="M24 36.1C23.02 36.1 22.22 35.3 22.22 34.32V25.92C22.22 24.94 23.02 24.14 24 24.14C24.98 24.14 25.78 24.94 25.78 25.92V34.32C25.78 35.3 24.98 36.1 24 36.1Z" fill="#1F2024"/>
<path fill-rule="evenodd" clip-rule="evenodd" d="M31.53 36.1C31.39 36.1 31.25 36.08 31.11 36.05C30.65 35.94 30.25 35.66 30 35.25C29.75 34.84 29.67 34.37 29.78 33.9L31.78 25.5C31.97 24.69 32.68 24.13 33.51 24.13C33.65 24.13 33.79 24.15 33.93 24.18C34.39 24.29 34.79 24.57 35.04 24.98C35.29 25.39 35.37 25.86 35.26 26.33L33.26 34.73C33.07 35.54 32.36 36.1 31.53 36.1Z" fill="#1F2024"/>
</svg>
