<svg width="48" height="48" viewBox="0 0 48 48" fill="none" xmlns="http://www.w3.org/2000/svg">
<path d="M12.5301 42.685C11.3901 42.685 10.2901 42.315 9.39011 41.635C8.49011 40.955 7.83011 39.985 7.52011 38.905L3.48011 20.935C3.40011 20.645 3.36011 20.355 3.36011 20.065C3.36011 19.215 3.71011 18.415 4.31011 17.815C4.91011 17.215 5.72011 16.885 6.57011 16.885H13.9401L23.0401 4.765C23.2501 4.485 23.6101 4.315 24.0001 4.315C24.3901 4.315 24.7501 4.485 24.9601 4.765L34.0601 16.895H41.4301C42.2801 16.895 43.0801 17.225 43.6901 17.825C44.3001 18.425 44.6301 19.225 44.6401 20.075C44.6401 20.125 44.6401 20.175 44.6401 20.225L44.5801 20.765C44.5801 20.765 44.5701 20.855 44.5601 20.895L40.5201 38.845C40.1901 39.985 39.5301 40.955 38.6201 41.635C37.7201 42.305 36.6101 42.685 35.4801 42.685H12.5301ZM6.57011 19.285C6.36011 19.285 6.15011 19.365 6.00011 19.515C5.85011 19.665 5.76011 19.865 5.76011 20.085L5.80011 20.295L9.85011 38.315C10.0001 38.855 10.3701 39.365 10.8401 39.725C11.3301 40.095 11.9001 40.285 12.5301 40.285H35.4701C36.0801 40.285 36.6801 40.085 37.1701 39.715C37.6601 39.345 38.0201 38.825 38.1901 38.245L42.2401 20.045V19.995C42.2101 19.815 42.1301 19.655 42.0001 19.525C41.8401 19.375 41.6401 19.295 41.4301 19.295H6.57011V19.285ZM16.9401 16.885H31.0501L24.0001 7.485L16.9401 16.895V16.885Z" fill="#1F2024"/>
<path d="M27.6201 35.335C27.0501 35.335 26.5301 34.975 26.3201 34.435L23.9301 28.125L21.7701 34.385C21.5801 34.945 21.0501 35.325 20.4401 35.325C19.8301 35.325 19.3101 34.925 19.1301 34.355L17.5801 29.555H15.9601C15.3701 29.555 14.8901 29.075 14.8901 28.485C14.8901 27.895 15.3701 27.415 15.9601 27.415H16.8901L16.2101 25.295C16.0301 24.735 16.3401 24.125 16.9001 23.945C17.0101 23.915 17.1201 23.895 17.2301 23.895C17.7001 23.895 18.1101 24.195 18.2501 24.645L20.4701 31.555L22.5701 25.455C22.7701 24.895 23.3001 24.525 23.8901 24.525C24.4801 24.525 25.0101 24.905 25.2001 25.455L27.5001 31.535L29.4201 24.685C29.5501 24.225 29.9801 23.905 30.4601 23.905C30.5601 23.905 30.6601 23.915 30.7501 23.945C31.0301 24.025 31.2601 24.205 31.4001 24.455C31.5401 24.705 31.5701 24.995 31.5001 25.275L30.8901 27.435H32.0001C32.5901 27.435 33.0701 27.915 33.0701 28.505C33.0701 29.095 32.5901 29.575 32.0001 29.575H30.2801L28.9401 34.345C28.7601 34.935 28.2401 35.345 27.6401 35.365H27.5901L27.6201 35.335Z" fill="#1F2024"/>
</svg>
