<svg width="48" height="48" viewBox="0 0 48 48" fill="none" xmlns="http://www.w3.org/2000/svg">
<path d="M12.5198 43.77C11.2898 43.77 10.0598 43.36 9.04979 42.6C8.03979 41.85 7.29979 40.77 6.96979 39.56L2.91979 21.56C2.82979 21.25 2.77979 20.92 2.77979 20.56C2.77979 19.56 3.17979 18.61 3.89979 17.89C4.61979 17.18 5.55979 16.8 6.56979 16.8H13.6498L22.5798 4.90998C22.8998 4.47998 23.4298 4.22998 24.0098 4.22998C24.5898 4.22998 25.1198 4.48998 25.4398 4.90998L34.3498 16.81H41.4298C42.2198 16.81 42.9798 17.05 43.6198 17.5V17.43L44.0998 17.89C44.8198 18.6 45.2198 19.55 45.2198 20.55V20.73L45.1598 21.3L45.1298 21.49L41.0898 39.46C40.7198 40.75 39.9898 41.83 38.9698 42.59C37.9798 43.34 36.7398 43.76 35.4798 43.76H12.5198V43.77ZM6.34979 20.59L6.37979 20.74L10.4198 38.7C10.5298 39.08 10.8298 39.49 11.1898 39.76C11.5898 40.05 12.0398 40.2 12.5298 40.2H35.4698C35.9598 40.2 36.4398 40.04 36.8198 39.75C37.2098 39.46 37.4998 39.04 37.6298 38.58L41.6498 20.53C41.6498 20.53 41.6198 20.46 41.5898 20.43C41.5498 20.39 41.4898 20.36 41.4298 20.36H6.56979C6.50979 20.36 6.44979 20.39 6.40979 20.43C6.36979 20.47 6.33979 20.53 6.33979 20.59H6.34979ZM29.8998 16.81L24.0098 8.95998L18.1198 16.81H29.8998Z" fill="#1F2024"/>
<path fill-rule="evenodd" clip-rule="evenodd" d="M16.4698 36.1C15.6398 36.1 14.9298 35.54 14.7398 34.73L12.7398 26.33C12.5098 25.37 13.1098 24.41 14.0598 24.18C14.1998 24.15 14.3398 24.13 14.4798 24.13C15.3098 24.13 16.0198 24.69 16.2098 25.5L18.2098 33.9C18.4398 34.86 17.8398 35.82 16.8898 36.05C16.7498 36.08 16.6098 36.1 16.4698 36.1Z" fill="#1F2024"/>
<path fill-rule="evenodd" clip-rule="evenodd" d="M23.9998 36.1C23.0198 36.1 22.2198 35.3 22.2198 34.32V25.92C22.2198 24.94 23.0198 24.14 23.9998 24.14C24.9798 24.14 25.7798 24.94 25.7798 25.92V34.32C25.7798 35.3 24.9798 36.1 23.9998 36.1Z" fill="#1F2024"/>
<path fill-rule="evenodd" clip-rule="evenodd" d="M31.5298 36.1C31.3898 36.1 31.2498 36.08 31.1098 36.05C30.6498 35.94 30.2498 35.66 29.9998 35.25C29.7498 34.84 29.6698 34.37 29.7798 33.9L31.7798 25.5C31.9698 24.69 32.6798 24.13 33.5098 24.13C33.6498 24.13 33.7898 24.15 33.9298 24.18C34.3898 24.29 34.7898 24.57 35.0398 24.98C35.2898 25.39 35.3698 25.86 35.2598 26.33L33.2598 34.73C33.0698 35.54 32.3598 36.1 31.5298 36.1Z" fill="#1F2024"/>
</svg>
