<svg width="48" height="48" viewBox="0 0 48 48" fill="none" xmlns="http://www.w3.org/2000/svg">
<path d="M43.895 17.6049C43.235 16.9549 42.355 16.5949 41.425 16.5949H34.205L25.205 4.58489C24.635 3.82489 23.375 3.82489 22.805 4.58489L13.795 16.5849H6.575C5.645 16.5849 4.765 16.9449 4.105 17.5949C3.445 18.2549 3.065 19.1349 3.065 20.0649C3.065 20.3849 3.105 20.6949 3.195 21.0049L7.245 38.9849C7.565 40.1349 8.275 41.1649 9.225 41.8749C10.175 42.5849 11.345 42.9849 12.525 42.9849H35.475C36.665 42.9849 37.845 42.5949 38.795 41.8749C39.745 41.1649 40.455 40.1349 40.805 38.9049L44.845 20.9449C44.855 20.8949 44.865 20.8349 44.875 20.7749L44.935 20.2349C44.935 20.1749 44.935 20.1149 44.935 20.0549C44.935 19.1249 44.555 18.2449 43.895 17.5949V17.6049ZM24.005 7.98489L30.465 16.5949H17.545L24.005 7.98489ZM37.905 38.1649C37.755 38.6849 37.435 39.1549 36.995 39.4849C36.565 39.8149 36.025 39.9949 35.475 39.9949H12.535C11.965 39.9949 11.455 39.8149 11.025 39.4949C10.595 39.1749 10.275 38.7049 10.145 38.2649L6.105 20.2949C6.105 20.2949 6.075 20.1349 6.065 20.0949C6.065 19.9649 6.115 19.8349 6.215 19.7349C6.305 19.6449 6.435 19.5849 6.575 19.5849H41.435C41.565 19.5849 41.695 19.6349 41.795 19.7349C41.875 19.8149 41.925 19.9149 41.945 20.0349L37.905 38.1649Z" fill="#1F2024"/>
<path d="M32.025 27.2549H31.105L31.655 25.2849C31.835 24.6349 31.455 23.9549 30.805 23.7749C30.155 23.5949 29.475 23.9749 29.295 24.6249L27.495 31.0349L25.355 25.3849C25.145 24.7649 24.565 24.3549 23.915 24.3449C23.265 24.3449 22.685 24.7549 22.455 25.3849L20.495 31.0649L18.405 24.5849C18.195 23.9449 17.505 23.5849 16.865 23.7949C16.225 24.0049 15.865 24.6949 16.075 25.3349L16.695 27.2549H15.975C15.295 27.2549 14.745 27.8049 14.745 28.4749C14.745 29.1449 15.295 29.6949 15.975 29.6949H17.485L18.995 34.3949C19.195 35.0349 19.775 35.4649 20.445 35.4749C21.105 35.4749 21.715 35.0549 21.915 34.4349L23.935 28.5649L26.175 34.4849C26.405 35.0849 26.975 35.4849 27.615 35.4849C27.635 35.4849 27.655 35.4849 27.665 35.4849C28.325 35.4649 28.905 35.0149 29.105 34.3549L30.415 29.6949H32.015C32.695 29.6949 33.235 29.1449 33.235 28.4749C33.235 27.8049 32.685 27.2549 32.015 27.2549H32.025Z" fill="#1F2024"/>
</svg>
