<svg width="48" height="48" viewBox="0 0 48 48" fill="none" xmlns="http://www.w3.org/2000/svg">
<path d="M43.9098 18.0846C43.2498 17.4446 42.3698 17.0846 41.4298 17.0846H34.2098L25.2098 5.08465C24.6498 4.32465 23.3698 4.32465 22.8098 5.08465L13.8098 17.0846H6.58982C5.64982 17.0846 4.76982 17.4446 4.10982 18.0846C3.44982 18.7446 3.06982 19.6246 3.06982 20.5646C3.06982 20.8846 3.10982 21.1846 3.20982 21.5046L7.24982 39.4846C7.56982 40.6246 8.26982 41.6647 9.22982 42.3647C10.1898 43.0647 11.3498 43.4846 12.5298 43.4846H35.4898C36.6698 43.4846 37.8498 43.0847 38.8098 42.3647C39.7498 41.6647 40.4698 40.6247 40.8098 39.3847L44.8498 21.4246C44.8498 21.4246 44.8698 21.3246 44.8698 21.2646L44.9298 20.7246V20.5446C44.9298 19.6046 44.5498 18.7446 43.8898 18.0846H43.9098ZM24.0098 8.46465L30.4698 17.0846H17.5498L24.0098 8.46465ZM37.9098 38.6446C37.7498 39.1646 37.4298 39.6246 36.9898 39.9646C36.5498 40.2846 36.0098 40.4646 35.4698 40.4646H12.5498C11.9898 40.4646 11.4698 40.2846 11.0298 39.9646C10.5898 39.6446 10.2698 39.1647 10.1498 38.7447L6.10982 20.7846C6.10982 20.7846 6.08982 20.6246 6.06982 20.5846C6.06982 20.4446 6.10982 20.3246 6.22982 20.2246C6.32982 20.1246 6.44982 20.0846 6.58982 20.0846H41.4498C41.5698 20.0846 41.7098 20.1246 41.8098 20.2246C41.8898 20.3046 41.9298 20.4046 41.9498 20.5246L37.9098 38.6646V38.6446Z" fill="#1F2024"/>
<path fill-rule="evenodd" clip-rule="evenodd" d="M14.1298 24.4446C14.9298 24.2446 15.7498 24.7446 15.9298 25.5646L17.9298 33.9646C18.1298 34.7646 17.6298 35.5846 16.8098 35.7646C16.0098 35.9646 15.1898 35.4646 15.0098 34.6446L13.0098 26.2446C12.8098 25.4446 13.3098 24.6246 14.1298 24.4446Z" fill="#1F2024"/>
<path fill-rule="evenodd" clip-rule="evenodd" d="M24.0098 24.4046C24.8298 24.4046 25.5098 25.0846 25.5098 25.9046V34.3046C25.5098 35.1246 24.8298 35.8046 24.0098 35.8046C23.1898 35.8046 22.5098 35.1246 22.5098 34.3046V25.9046C22.5098 25.0846 23.1898 24.4046 24.0098 24.4046Z" fill="#1F2024"/>
<path fill-rule="evenodd" clip-rule="evenodd" d="M33.8698 24.4446C33.0698 24.2446 32.2498 24.7446 32.0698 25.5646L30.0698 33.9646C29.8698 34.7646 30.3698 35.5846 31.1898 35.7646C31.9898 35.9646 32.8098 35.4646 32.9898 34.6446L34.9898 26.2446C35.1898 25.4446 34.6898 24.6246 33.8698 24.4446Z" fill="#1F2024"/>
</svg>
