<svg width="48" height="49" viewBox="0 0 48 49" fill="none" xmlns="http://www.w3.org/2000/svg">
<path d="M43.83 18.58C43.17 17.94 42.29 17.58 41.36 17.58H34.14L25.14 5.57C24.57 4.81 23.31 4.81 22.74 5.57L13.73 17.57H6.51C5.58 17.57 4.7 17.93 4.04 18.58C3.38 19.24 3 20.12 3 21.05C3 21.37 3.04 21.68 3.13 21.99L7.18 39.97C7.5 41.12 8.21 42.15 9.16 42.86C10.11 43.57 11.28 43.97 12.46 43.97H35.41C36.6 43.97 37.78 43.58 38.73 42.86C39.68 42.15 40.39 41.12 40.74 39.89L44.78 21.93C44.78 21.93 44.8 21.82 44.81 21.76L44.87 21.22V21.04C44.87 20.11 44.49 19.23 43.83 18.58V18.58ZM28.53 32.69C29.2 32.69 29.75 33.24 29.75 33.91C29.75 34.58 29.2 35.13 28.53 35.13H25.36V36.66C25.36 37.38 24.77 37.97 24.05 37.97C23.33 37.97 22.74 37.39 22.74 36.66V35.13H19.35C18.68 35.13 18.13 34.58 18.13 33.91C18.13 33.24 18.68 32.69 19.35 32.69H22.74V31.74H19.35C18.68 31.74 18.13 31.19 18.13 30.52C18.13 29.85 18.68 29.3 19.35 29.3H22.13L18.7 26.5C18.14 26.05 18.05 25.22 18.52 24.66C18.97 24.1 19.8 24.02 20.36 24.48L23.98 27.44L27.26 24.34C27.78 23.85 28.61 23.87 29.11 24.39C29.61 24.91 29.58 25.74 29.06 26.24L25.82 29.31H28.54C29.21 29.31 29.76 29.86 29.76 30.53C29.76 31.2 29.21 31.75 28.54 31.75H25.37V32.7H28.54L28.53 32.69ZM17.48 17.58L23.94 8.97L30.4 17.58H17.48Z" fill="#1F2024"/>
</svg>
