<svg width="48" height="48" viewBox="0 0 48 48" fill="none" xmlns="http://www.w3.org/2000/svg">
<path d="M12.5301 43.1801C11.2901 43.1801 10.0701 42.7701 9.09011 42.0301C8.10011 41.2901 7.38011 40.2201 7.04011 39.0301L2.99011 21.0401C2.90011 20.7301 2.86011 20.3901 2.86011 20.0601C2.86011 19.0801 3.26011 18.1501 3.96011 17.4601C4.66011 16.7701 5.58011 16.3901 6.57011 16.3901H13.6901L22.6401 4.46006C22.9401 4.05006 23.4501 3.81006 24.0001 3.81006C24.5501 3.81006 25.0601 4.05006 25.3601 4.46006L34.3101 16.3901H41.4301C42.4201 16.3901 43.3401 16.7701 44.0401 17.4601C44.7401 18.1501 45.1301 19.0801 45.1401 20.0601C45.1401 20.1301 45.1401 20.1901 45.1401 20.2601L45.0801 20.8001C45.0801 20.8601 45.0601 20.9201 45.0501 20.9901L41.0101 38.9501C40.6401 40.2201 39.9201 41.2801 38.9201 42.0401C37.9401 42.7801 36.7101 43.1901 35.4801 43.1901H12.5301V43.1801ZM6.26011 20.0801C6.26011 20.0801 6.28011 20.1401 6.29011 20.1901L10.3401 38.2001C10.4601 38.6101 10.7601 39.0301 11.1401 39.3201C11.5401 39.6301 12.0101 39.7801 12.5301 39.7801H35.4601C35.9601 39.7801 36.4601 39.6101 36.8601 39.3101C37.2601 39.0101 37.5601 38.5801 37.7001 38.1001L41.7301 19.9901C41.7301 19.9901 41.6901 19.9301 41.6401 19.8801C41.5801 19.8201 41.5101 19.7901 41.4201 19.7901H6.57011C6.49011 19.7901 6.41011 19.8201 6.36011 19.8801C6.30011 19.9401 6.27011 20.0101 6.27011 20.1001L6.26011 20.0801ZM30.0501 16.3801L24.0001 8.31006L17.9501 16.3801H30.0601H30.0501Z" fill="#1F2024"/>
<path d="M27.6201 35.5801C26.9401 35.5801 26.3301 35.1501 26.0901 34.5201L24.0001 28.9901L22.0201 34.4601C21.8001 35.1201 21.1701 35.5701 20.4501 35.5701C19.7301 35.5701 19.1101 35.1001 18.9001 34.4201L17.4201 29.8301L15.9701 29.8001C15.2401 29.8001 14.6401 29.2101 14.6401 28.4701C14.6401 27.7301 15.2301 27.1401 15.9701 27.1401H16.4901L15.9801 25.3501C15.8701 25.0101 15.9001 24.6601 16.0601 24.3401C16.2201 24.0201 16.5001 23.7901 16.8301 23.6801C16.9601 23.6401 17.1001 23.6201 17.2301 23.6201C17.8101 23.6201 18.3101 23.9901 18.4901 24.5401L20.4401 30.5901L22.3401 25.3401C22.5801 24.6801 23.2001 24.2301 23.8901 24.2301C24.5901 24.2301 25.2101 24.6801 25.4301 25.3401L27.4101 30.5601L29.1801 24.5801C29.3401 24.0101 29.8701 23.6101 30.4601 23.6101C30.5801 23.6101 30.7001 23.6301 30.8201 23.6601C31.1601 23.7601 31.4401 23.9801 31.6201 24.2901C31.7901 24.6001 31.8401 24.9601 31.7401 25.3001L31.2401 27.0801L32.0001 27.1401C32.7301 27.1401 33.3301 27.7301 33.3301 28.4701C33.3301 29.2101 32.7401 29.8001 32.0001 29.8001H30.5101L29.1801 34.3801C28.9701 35.0701 28.3601 35.5501 27.6501 35.5801H27.5901H27.6201Z" fill="#1F2024"/>
</svg>
