<svg width="48" height="48" viewBox="0 0 48 48" fill="none" xmlns="http://www.w3.org/2000/svg">
<path d="M12.53 43.1801C11.29 43.1801 10.07 42.7701 9.08999 42.0301C8.09999 41.2901 7.37999 40.2201 7.03999 39.0301L2.98999 21.0401C2.89999 20.7301 2.85999 20.3901 2.85999 20.0601C2.85999 19.0801 3.25999 18.1501 3.95999 17.4601C4.65999 16.7701 5.57999 16.3901 6.56999 16.3901H13.69L22.64 4.46006C22.94 4.05006 23.45 3.81006 24 3.81006C24.55 3.81006 25.06 4.05006 25.36 4.46006L34.31 16.3901H41.43C42.42 16.3901 43.34 16.7701 44.04 17.4601C44.74 18.1501 45.13 19.0801 45.14 20.0601C45.14 20.1301 45.14 20.1901 45.14 20.2601L45.08 20.8001C45.08 20.8601 45.06 20.9201 45.05 20.9901L41.01 38.9501C40.64 40.2201 39.92 41.2801 38.92 42.0401C37.94 42.7801 36.71 43.1901 35.48 43.1901H12.53V43.1801ZM6.25999 20.0801C6.25999 20.0801 6.27999 20.1401 6.28999 20.1901L10.34 38.2001C10.46 38.6101 10.76 39.0301 11.14 39.3201C11.54 39.6301 12.01 39.7801 12.53 39.7801H35.46C35.96 39.7801 36.46 39.6101 36.86 39.3101C37.26 39.0101 37.56 38.5801 37.7 38.1001L41.73 19.9901C41.73 19.9901 41.69 19.9301 41.64 19.8801C41.58 19.8201 41.51 19.7901 41.42 19.7901H6.56999C6.48999 19.7901 6.40999 19.8201 6.35999 19.8801C6.29999 19.9401 6.26999 20.0101 6.26999 20.1001L6.25999 20.0801ZM30.05 16.3801L24 8.31006L17.95 16.3801H30.06H30.05Z" fill="#1F2024"/>
<path d="M27.62 35.5801C26.94 35.5801 26.33 35.1501 26.09 34.5201L24 28.9901L22.02 34.4601C21.8 35.1201 21.17 35.5701 20.45 35.5701C19.73 35.5701 19.11 35.1001 18.9 34.4201L17.42 29.8301L15.97 29.8001C15.24 29.8001 14.64 29.2101 14.64 28.4701C14.64 27.7301 15.23 27.1401 15.97 27.1401H16.49L15.98 25.3501C15.87 25.0101 15.9 24.6601 16.06 24.3401C16.22 24.0201 16.5 23.7901 16.83 23.6801C16.96 23.6401 17.1 23.6201 17.23 23.6201C17.81 23.6201 18.31 23.9901 18.49 24.5401L20.44 30.5901L22.34 25.3401C22.58 24.6801 23.2 24.2301 23.89 24.2301C24.59 24.2301 25.21 24.6801 25.43 25.3401L27.41 30.5601L29.18 24.5801C29.34 24.0101 29.87 23.6101 30.46 23.6101C30.58 23.6101 30.7 23.6301 30.82 23.6601C31.16 23.7601 31.44 23.9801 31.62 24.2901C31.79 24.6001 31.84 24.9601 31.74 25.3001L31.24 27.0801L32 27.1401C32.73 27.1401 33.33 27.7301 33.33 28.4701C33.33 29.2101 32.74 29.8001 32 29.8001H30.51L29.18 34.3801C28.97 35.0701 28.36 35.5501 27.65 35.5801H27.59H27.62Z" fill="#1F2024"/>
</svg>
