<svg width="48" height="48" viewBox="0 0 48 48" fill="none" xmlns="http://www.w3.org/2000/svg">
<path d="M12.53 42.685C11.39 42.685 10.29 42.315 9.38999 41.635C8.48999 40.955 7.82999 39.985 7.51999 38.905L3.47999 20.935C3.39999 20.645 3.35999 20.355 3.35999 20.065C3.35999 19.215 3.70999 18.415 4.30999 17.815C4.90999 17.215 5.71999 16.885 6.56999 16.885H13.94L23.04 4.765C23.25 4.485 23.61 4.315 24 4.315C24.39 4.315 24.75 4.485 24.96 4.765L34.06 16.895H41.43C42.28 16.895 43.08 17.225 43.69 17.825C44.3 18.425 44.63 19.225 44.64 20.075C44.64 20.125 44.64 20.175 44.64 20.225L44.58 20.765C44.58 20.765 44.57 20.855 44.56 20.895L40.52 38.845C40.19 39.985 39.53 40.955 38.62 41.635C37.72 42.305 36.61 42.685 35.48 42.685H12.53ZM6.56999 19.285C6.35999 19.285 6.14999 19.365 5.99999 19.515C5.84999 19.665 5.75999 19.865 5.75999 20.085L5.79999 20.295L9.84999 38.315C9.99999 38.855 10.37 39.365 10.84 39.725C11.33 40.095 11.9 40.285 12.53 40.285H35.47C36.08 40.285 36.68 40.085 37.17 39.715C37.66 39.345 38.02 38.825 38.19 38.245L42.24 20.045V19.995C42.21 19.815 42.13 19.655 42 19.525C41.84 19.375 41.64 19.295 41.43 19.295H6.56999V19.285ZM16.94 16.885H31.05L24 7.485L16.94 16.895V16.885Z" fill="#1F2024"/>
<path d="M27.62 35.335C27.05 35.335 26.53 34.975 26.32 34.435L23.93 28.125L21.77 34.385C21.58 34.945 21.05 35.325 20.44 35.325C19.83 35.325 19.31 34.925 19.13 34.355L17.58 29.555H15.96C15.37 29.555 14.89 29.075 14.89 28.485C14.89 27.895 15.37 27.415 15.96 27.415H16.89L16.21 25.295C16.03 24.735 16.34 24.125 16.9 23.945C17.01 23.915 17.12 23.895 17.23 23.895C17.7 23.895 18.11 24.195 18.25 24.645L20.47 31.555L22.57 25.455C22.77 24.895 23.3 24.525 23.89 24.525C24.48 24.525 25.01 24.905 25.2 25.455L27.5 31.535L29.42 24.685C29.55 24.225 29.98 23.905 30.46 23.905C30.56 23.905 30.66 23.915 30.75 23.945C31.03 24.025 31.26 24.205 31.4 24.455C31.54 24.705 31.57 24.995 31.5 25.275L30.89 27.435H32C32.59 27.435 33.07 27.915 33.07 28.505C33.07 29.095 32.59 29.575 32 29.575H30.28L28.94 34.345C28.76 34.935 28.24 35.345 27.64 35.365H27.59L27.62 35.335Z" fill="#1F2024"/>
</svg>
