<svg width="48" height="48" viewBox="0 0 48 48" fill="none" xmlns="http://www.w3.org/2000/svg">
<path d="M12.54 43.2C11.43 43.2 10.32 42.82 9.40999 42.15C8.49999 41.47 7.83999 40.5 7.52999 39.41L3.47999 21.44C3.39999 21.15 3.35999 20.87 3.35999 20.56C3.35999 19.71 3.69999 18.91 4.31999 18.29C4.92999 17.69 5.72999 17.36 6.58999 17.36H13.95L23.04 5.25999C23.25 4.96999 23.62 4.79999 24.01 4.79999C24.4 4.79999 24.77 4.96999 24.98 5.25999L34.06 17.38H41.42C42.28 17.38 43.08 17.71 43.69 18.31L43.84 18.46C44.36 19.04 44.64 19.78 44.64 20.55V20.73L44.58 21.24L44.55 21.38L40.51 39.34C40.18 40.48 39.52 41.46 38.61 42.14C37.71 42.82 36.59 43.19 35.46 43.19H12.54V43.2ZM6.58999 19.8C6.37999 19.8 6.17999 19.88 6.02999 20.03C5.87999 20.18 5.79999 20.38 5.79999 20.59L5.84999 20.84L9.88999 38.82C10.05 39.36 10.41 39.87 10.88 40.21C11.38 40.58 11.94 40.77 12.56 40.77H35.5C36.11 40.77 36.71 40.57 37.19 40.2C37.67 39.84 38.03 39.32 38.2 38.73L42.26 20.53V20.48C42.22 20.3 42.14 20.15 42.02 20.03C41.87 19.88 41.67 19.8 41.46 19.8H6.58999ZM16.99 17.38H31.04L24.02 8.00999L16.99 17.38Z" fill="#1F2024"/>
<path d="M24.01 37.7C23.39 37.7 22.89 37.19 22.89 36.56V35.77L22.66 35.73C21.43 35.51 20.4 35.02 19.82 34.37C19.43 33.99 19.22 33.53 19.22 33.09C19.22 32.53 19.6 32.17 20.2 32.17C20.6 32.17 20.92 32.32 21.45 32.75C22.36 33.53 23.24 33.88 24.3 33.88C25.43 33.88 26.1 33.42 26.1 32.65C26.1 31.56 24.98 31.34 24.62 31.27L22.87 30.91C21.39 30.6 19.63 29.81 19.63 27.84C19.63 26.22 20.73 25.06 22.66 24.67L22.89 24.62V23.91C22.89 23.28 23.39 22.77 24.01 22.77C24.63 22.77 25.13 23.28 25.13 23.91V24.61L25.37 24.65C26.33 24.8 27.12 25.09 27.66 25.48C28.28 25.93 28.59 26.44 28.59 27C28.59 27.52 28.19 27.9 27.64 27.9C27.22 27.9 26.83 27.67 26.26 27.25C25.57 26.7 24.82 26.42 23.98 26.42C22.98 26.42 22.33 26.88 22.33 27.59C22.33 28.05 22.59 28.66 23.82 28.9L25.7 29.29C27.83 29.75 28.82 30.72 28.82 32.34C28.82 34.17 27.56 35.42 25.37 35.75L25.13 35.79V36.56C25.13 37.19 24.63 37.7 24.01 37.7Z" fill="#1F2024"/>
</svg>
