<svg width="48" height="48" viewBox="0 0 48 48" fill="none" xmlns="http://www.w3.org/2000/svg">
<path d="M43.8801 18.085C43.2201 17.445 42.3401 17.085 41.4201 17.085H34.2001L25.2001 5.08501C24.6201 4.32501 23.3601 4.32501 22.8001 5.08501L13.7801 17.085H6.58006C5.64006 17.085 4.76006 17.445 4.10006 18.085C3.44006 18.745 3.06006 19.625 3.06006 20.565C3.06006 20.885 3.10006 21.205 3.20006 21.505L7.24006 39.485C7.56006 40.645 8.28006 41.665 9.22006 42.385C10.1801 43.105 11.3401 43.485 12.5201 43.485H35.4601C36.6601 43.485 37.8201 43.085 38.7801 42.385C39.7201 41.685 40.4401 40.645 40.8001 39.425L44.8401 21.465C44.8401 21.465 44.8601 21.365 44.8801 21.285L44.9401 20.745V20.565C44.9401 19.625 44.5601 18.745 43.9001 18.105L43.8801 18.085ZM24.0001 8.46501L30.4601 17.065H17.5401L24.0001 8.46501ZM16.8201 35.765C16.0201 35.965 15.2001 35.465 15.0201 34.645L13.0201 26.245C12.8201 25.445 13.3201 24.625 14.1401 24.445C14.9401 24.245 15.7601 24.745 15.9401 25.565L17.9401 33.965C18.1401 34.765 17.6401 35.585 16.8201 35.765ZM25.5001 34.305C25.5001 35.125 24.8201 35.805 24.0001 35.805C23.1801 35.805 22.5001 35.125 22.5001 34.305V25.905C22.5001 25.085 23.1801 24.405 24.0001 24.405C24.8201 24.405 25.5001 25.085 25.5001 25.905V34.305ZM34.9801 26.245L32.9801 34.645C32.7801 35.445 31.9801 35.945 31.1801 35.765C30.3801 35.565 29.8801 34.765 30.0601 33.965L32.0601 25.565C32.2601 24.765 33.0601 24.265 33.8601 24.445C34.6601 24.645 35.1601 25.445 34.9801 26.245Z" fill="#1F2024"/>
</svg>
