<svg width="48" height="48" viewBox="0 0 48 48" fill="none" xmlns="http://www.w3.org/2000/svg">
<path d="M43.8949 18.105C43.2349 17.455 42.3549 17.095 41.4249 17.095H34.2049L25.2049 5.08501C24.6349 4.32501 23.3749 4.32501 22.8049 5.08501L13.7949 17.085H6.57494C5.64494 17.085 4.76494 17.445 4.10494 18.095C3.44494 18.755 3.06494 19.635 3.06494 20.565C3.06494 20.885 3.10494 21.195 3.19494 21.505L7.24494 39.485C7.56494 40.635 8.27494 41.665 9.22494 42.375C10.1749 43.085 11.3449 43.485 12.5249 43.485H35.4749C36.6649 43.485 37.8449 43.095 38.7949 42.375C39.7449 41.665 40.4549 40.635 40.8049 39.405L44.8449 21.445C44.8549 21.395 44.8649 21.335 44.8749 21.275L44.9349 20.735C44.9349 20.675 44.9349 20.615 44.9349 20.555C44.9349 19.625 44.5549 18.745 43.8949 18.095V18.105ZM24.0049 8.48501L30.4649 17.095H17.5449L24.0049 8.48501ZM37.9049 38.665C37.7549 39.185 37.4349 39.655 36.9949 39.985C36.5649 40.315 36.0249 40.495 35.4749 40.495H12.5349C11.9649 40.495 11.4549 40.315 11.0249 39.995C10.5949 39.675 10.2749 39.205 10.1449 38.765L6.10494 20.795C6.10494 20.795 6.07494 20.635 6.06494 20.595C6.06494 20.465 6.11494 20.335 6.21494 20.235C6.30494 20.145 6.43494 20.085 6.57494 20.085H41.4349C41.5649 20.085 41.6949 20.135 41.7949 20.235C41.8749 20.315 41.9249 20.415 41.9449 20.535L37.9049 38.665Z" fill="#1F2024"/>
<path d="M29.0859 32.3426C29.0859 30.5823 27.991 29.4976 25.7358 29.0123L23.8549 28.6222C23.0221 28.4604 22.5916 28.1179 22.5916 27.5946C22.5916 27.0427 23.125 26.7097 23.9578 26.7097C24.6784 26.7097 25.3802 26.9285 26.0727 27.4804C26.6529 27.9086 27.102 28.1845 27.6167 28.1845C28.3279 28.1845 28.8519 27.6802 28.8519 27.0046C28.8519 26.3291 28.4683 25.7391 27.8039 25.2539C27.205 24.8162 26.3534 24.5212 25.3896 24.369V23.9122C25.3896 23.1225 24.7626 22.485 23.9859 22.485C23.2092 22.485 22.5822 23.1225 22.5822 23.9122V24.388C20.5703 24.7971 19.3257 26.0246 19.3257 27.8324C19.3257 29.5356 20.5329 30.706 22.7975 31.1817L24.5474 31.5433C25.4176 31.7146 25.8013 32.0666 25.8013 32.647C25.8013 33.2655 25.2398 33.5986 24.2854 33.5986C23.3309 33.5986 22.498 33.2941 21.609 32.5329C21.0382 32.0666 20.6639 31.8858 20.1773 31.8858C19.4193 31.8858 18.914 32.3806 18.914 33.0943C18.914 33.6176 19.176 34.1504 19.5878 34.5596C20.2241 35.2637 21.3189 35.7775 22.5916 36.0059V36.5577C22.5916 37.3475 23.2186 37.985 23.9953 37.985C24.772 37.985 25.3989 37.3475 25.3989 36.5577V36.0344C27.7009 35.6823 29.0859 34.3502 29.0859 32.3426Z" fill="#1F2024"/>
</svg>
