<svg width="48" height="48" viewBox="0 0 48 48" fill="none" xmlns="http://www.w3.org/2000/svg">
<path d="M43.8949 17.6051C43.2349 16.9551 42.3549 16.5951 41.4249 16.5951H34.2049L25.2049 4.58514C24.6349 3.82514 23.3749 3.82514 22.8049 4.58514L13.7949 16.5851H6.57494C5.64494 16.5851 4.76494 16.9451 4.10494 17.5951C3.44494 18.2551 3.06494 19.1351 3.06494 20.0651C3.06494 20.3851 3.10494 20.6951 3.19494 21.0051L7.24494 38.9851C7.56494 40.1351 8.27494 41.1651 9.22494 41.8751C10.1749 42.5851 11.3449 42.9851 12.5249 42.9851H35.4749C36.6649 42.9851 37.8449 42.5951 38.7949 41.8751C39.7449 41.1651 40.4549 40.1351 40.8049 38.9051L44.8449 20.9451C44.8549 20.8951 44.8649 20.8351 44.8749 20.7751L44.9349 20.2351C44.9349 20.1751 44.9349 20.1151 44.9349 20.0551C44.9349 19.1251 44.5549 18.2451 43.8949 17.5951V17.6051ZM24.0049 7.98514L30.4649 16.5951H17.5449L24.0049 7.98514ZM32.0349 29.6351H30.3749L29.0549 34.3451C28.8649 34.9751 28.3149 35.3951 27.6849 35.4151C27.6649 35.4151 27.6549 35.4151 27.6349 35.4151C27.0249 35.4151 26.4849 35.0351 26.2649 34.4651L23.9549 28.3551L21.8649 34.4151C21.6649 35.0151 21.1349 35.4051 20.4649 35.4051C19.8249 35.4051 19.2749 34.9851 19.0849 34.3751L17.5549 29.6251H15.9849C15.3449 29.6251 14.8349 29.1051 14.8349 28.4751C14.8349 27.8451 15.3449 27.3251 15.9849 27.3251H16.8149L16.1649 25.3051C15.9749 24.7051 16.3049 24.0551 16.9049 23.8551C17.5049 23.6551 18.1549 23.9951 18.3549 24.5951L20.5049 31.2951L22.5349 25.4051C22.7449 24.8151 23.3049 24.4151 23.9249 24.4151C24.5449 24.4151 25.0949 24.8151 25.2949 25.4051L27.5149 31.2751L29.3749 24.6451C29.5449 24.0351 30.1849 23.6751 30.7949 23.8451C31.4049 24.0151 31.7649 24.6551 31.5949 25.2651L31.0149 27.3251H32.0249C32.6549 27.3251 33.1749 27.8451 33.1749 28.4751C33.1749 29.1051 32.6549 29.6251 32.0249 29.6251L32.0349 29.6351Z" fill="#1F2024"/>
</svg>
