<svg width="48" height="48" viewBox="0 0 48 48" fill="none" xmlns="http://www.w3.org/2000/svg">
<path d="M12.515 43.77C11.285 43.77 10.055 43.36 9.04502 42.6C8.03502 41.85 7.29502 40.77 6.96502 39.56L2.91502 21.57C2.82502 21.26 2.77502 20.93 2.77502 20.57C2.77502 19.57 3.17502 18.62 3.89502 17.9C4.61502 17.19 5.55502 16.81 6.56502 16.81H13.645L22.575 4.90998C22.895 4.47998 23.425 4.22998 24.005 4.22998C24.585 4.22998 25.115 4.48998 25.435 4.90998L34.355 16.81H41.435C42.225 16.81 42.985 17.05 43.625 17.5V17.43L44.105 17.89C44.825 18.6 45.225 19.55 45.225 20.55V20.73L45.165 21.3L45.135 21.49L41.095 39.46C40.725 40.75 39.995 41.83 38.975 42.59C37.985 43.34 36.745 43.76 35.485 43.76H12.515V43.77ZM6.34502 20.59L6.37502 20.74L10.415 38.7C10.525 39.08 10.825 39.49 11.185 39.76C11.585 40.05 12.035 40.2 12.525 40.2H35.465C35.955 40.2 36.435 40.04 36.815 39.75C37.205 39.46 37.495 39.04 37.625 38.58L41.645 20.53C41.645 20.53 41.615 20.46 41.585 20.43C41.545 20.39 41.485 20.36 41.425 20.36H6.56502C6.50502 20.36 6.44502 20.39 6.40502 20.43C6.36502 20.47 6.33502 20.53 6.33502 20.59H6.34502ZM29.895 16.81L24.005 8.95998L18.115 16.81H29.905H29.895Z" fill="#1F2024"/>
<path d="M24.105 37.63C23.305 37.63 22.655 36.98 22.655 36.18V34.79H19.405C18.655 34.79 18.035 34.18 18.035 33.43C18.035 32.68 18.645 32.07 19.405 32.07H22.655V31.4H19.405C18.655 31.4 18.035 30.79 18.035 30.04C18.035 29.29 18.645 28.68 19.405 28.68H21.785L18.665 26.13C18.365 25.88 18.175 25.54 18.135 25.15C18.095 24.76 18.215 24.39 18.465 24.09C18.735 23.75 19.145 23.56 19.585 23.56C19.915 23.56 20.245 23.68 20.505 23.89L24.025 26.77L27.215 23.75C27.485 23.5 27.845 23.36 28.215 23.36C28.625 23.36 28.995 23.52 29.265 23.81C29.535 24.09 29.675 24.45 29.665 24.84C29.665 25.23 29.495 25.59 29.205 25.86L26.225 28.69H28.585C29.335 28.69 29.955 29.3 29.955 30.05C29.955 30.8 29.345 31.41 28.585 31.41H25.555V32.08H28.585C29.335 32.08 29.955 32.69 29.955 33.44C29.955 34.19 29.345 34.8 28.585 34.8H25.555V36.19C25.555 36.99 24.905 37.64 24.105 37.64V37.63Z" fill="#1F2024"/>
</svg>
