<svg width="48" height="48" viewBox="0 0 48 48" fill="none" xmlns="http://www.w3.org/2000/svg">
<g clip-path="url(#clip0_362_142269)">
<path d="M43.895 17.605C43.235 16.955 42.355 16.595 41.425 16.595H34.205L25.205 4.58501C24.635 3.82501 23.375 3.82501 22.805 4.58501L13.795 16.585H6.575C5.645 16.585 4.765 16.945 4.105 17.595C3.445 18.255 3.065 19.135 3.065 20.065C3.065 20.385 3.105 20.695 3.195 21.005L7.245 38.985C7.565 40.135 8.275 41.165 9.225 41.875C10.175 42.585 11.345 42.985 12.525 42.985H35.475C36.665 42.985 37.845 42.595 38.795 41.875C39.745 41.165 40.455 40.135 40.805 38.905L44.845 20.945C44.855 20.895 44.865 20.835 44.875 20.775L44.935 20.235C44.935 20.175 44.935 20.115 44.935 20.055C44.935 19.125 44.555 18.245 43.895 17.595V17.605ZM24.005 7.98501L30.465 16.595H17.545L24.005 7.98501ZM32.035 29.635H30.375L29.055 34.345C28.865 34.975 28.315 35.395 27.685 35.415C27.665 35.415 27.655 35.415 27.635 35.415C27.025 35.415 26.485 35.035 26.265 34.465L23.955 28.355L21.865 34.415C21.665 35.015 21.135 35.405 20.465 35.405C19.825 35.405 19.275 34.985 19.085 34.375L17.555 29.625H15.985C15.345 29.625 14.835 29.105 14.835 28.475C14.835 27.845 15.345 27.325 15.985 27.325H16.815L16.165 25.305C15.975 24.705 16.305 24.055 16.905 23.855C17.505 23.655 18.155 23.995 18.355 24.595L20.505 31.295L22.535 25.405C22.745 24.815 23.305 24.415 23.925 24.415C24.545 24.415 25.095 24.815 25.295 25.405L27.515 31.275L29.375 24.645C29.545 24.035 30.185 23.675 30.795 23.845C31.405 24.015 31.765 24.655 31.595 25.265L31.015 27.325H32.025C32.655 27.325 33.175 27.845 33.175 28.475C33.175 29.105 32.655 29.625 32.025 29.625L32.035 29.635Z" fill="#1F2024"/>
</g>
<defs>
<clipPath id="clip0_362_142269">
<rect width="41.87" height="38.97" fill="white" transform="translate(3.065 4.01501)"/>
</clipPath>
</defs>
</svg>
