<svg width="48" height="48" viewBox="0 0 48 48" fill="none" xmlns="http://www.w3.org/2000/svg">
<path d="M12.5401 43.2C11.4301 43.2 10.3201 42.82 9.41011 42.15C8.50011 41.47 7.84011 40.5 7.53011 39.41L3.48011 21.44C3.40011 21.15 3.36011 20.87 3.36011 20.56C3.36011 19.71 3.70011 18.91 4.32011 18.29C4.93011 17.69 5.73011 17.36 6.59011 17.36H13.9501L23.0401 5.25999C23.2501 4.96999 23.6201 4.79999 24.0101 4.79999C24.4001 4.79999 24.7701 4.96999 24.9801 5.25999L34.0601 17.38H41.4201C42.2801 17.38 43.0801 17.71 43.6901 18.31L43.8401 18.46C44.3601 19.04 44.6401 19.78 44.6401 20.55V20.73L44.5801 21.24L44.5501 21.38L40.5101 39.34C40.1801 40.48 39.5201 41.46 38.6101 42.14C37.7101 42.82 36.5901 43.19 35.4601 43.19H12.5401V43.2ZM6.59011 19.8C6.38011 19.8 6.18011 19.88 6.03011 20.03C5.88011 20.18 5.80011 20.38 5.80011 20.59L5.85011 20.84L9.89011 38.82C10.0501 39.36 10.4101 39.87 10.8801 40.21C11.3801 40.58 11.9401 40.77 12.5601 40.77H35.5001C36.1101 40.77 36.7101 40.57 37.1901 40.2C37.6701 39.84 38.0301 39.32 38.2001 38.73L42.2601 20.53V20.48C42.2201 20.3 42.1401 20.15 42.0201 20.03C41.8701 19.88 41.6701 19.8 41.4601 19.8H6.59011ZM16.9901 17.38H31.0401L24.0201 8.00999L16.9901 17.38Z" fill="#1F2024"/>
<path d="M24.0101 37.7C23.3901 37.7 22.8901 37.19 22.8901 36.56V35.77L22.6601 35.73C21.4301 35.51 20.4001 35.02 19.8201 34.37C19.4301 33.99 19.2201 33.53 19.2201 33.09C19.2201 32.53 19.6001 32.17 20.2001 32.17C20.6001 32.17 20.9201 32.32 21.4501 32.75C22.3601 33.53 23.2401 33.88 24.3001 33.88C25.4301 33.88 26.1001 33.42 26.1001 32.65C26.1001 31.56 24.9801 31.34 24.6201 31.27L22.8701 30.91C21.3901 30.6 19.6301 29.81 19.6301 27.84C19.6301 26.22 20.7301 25.06 22.6601 24.67L22.8901 24.62V23.91C22.8901 23.28 23.3901 22.77 24.0101 22.77C24.6301 22.77 25.1301 23.28 25.1301 23.91V24.61L25.3701 24.65C26.3301 24.8 27.1201 25.09 27.6601 25.48C28.2801 25.93 28.5901 26.44 28.5901 27C28.5901 27.52 28.1901 27.9 27.6401 27.9C27.2201 27.9 26.8301 27.67 26.2601 27.25C25.5701 26.7 24.8201 26.42 23.9801 26.42C22.9801 26.42 22.3301 26.88 22.3301 27.59C22.3301 28.05 22.5901 28.66 23.8201 28.9L25.7001 29.29C27.8301 29.75 28.8201 30.72 28.8201 32.34C28.8201 34.17 27.5601 35.42 25.3701 35.75L25.1301 35.79V36.56C25.1301 37.19 24.6301 37.7 24.0101 37.7Z" fill="#1F2024"/>
</svg>
