<svg width="48" height="49" viewBox="0 0 48 49" fill="none" xmlns="http://www.w3.org/2000/svg">
<path d="M43.83 18.58C43.17 17.94 42.29 17.58 41.36 17.58H34.14L25.14 5.57C24.57 4.81 23.31 4.81 22.74 5.57L13.73 17.57H6.51C5.58 17.57 4.7 17.93 4.04 18.58C3.38 19.24 3 20.12 3 21.05C3 21.37 3.04 21.68 3.13 21.99L7.18 39.97C7.5 41.12 8.21 42.15 9.16 42.86C10.11 43.57 11.28 43.97 12.46 43.97H35.41C36.6 43.97 37.78 43.58 38.73 42.86C39.68 42.15 40.39 41.12 40.74 39.89L44.78 21.93C44.79 21.88 44.8 21.82 44.81 21.76L44.87 21.22V21.04C44.87 20.11 44.49 19.23 43.83 18.58ZM25.33 36.52V37.04C25.33 37.83 24.7 38.47 23.93 38.47C23.16 38.47 22.53 37.83 22.53 37.04V36.49C21.26 36.26 20.16 35.75 19.53 35.04C19.12 34.63 18.86 34.1 18.86 33.57C18.86 32.86 19.37 32.36 20.12 32.36C20.61 32.36 20.98 32.54 21.55 33.01C22.44 33.77 23.27 34.08 24.23 34.08C25.19 34.08 25.75 33.75 25.75 33.13C25.75 32.55 25.37 32.2 24.5 32.03L22.75 31.67C20.49 31.19 19.28 30.02 19.28 28.32C19.28 26.51 20.52 25.28 22.54 24.88V24.4C22.54 23.61 23.17 22.97 23.94 22.97C24.71 22.97 25.34 23.61 25.34 24.4V24.86C26.3 25.01 27.16 25.31 27.75 25.74C28.41 26.23 28.8 26.82 28.8 27.49C28.8 28.16 28.28 28.67 27.56 28.67C27.05 28.67 26.6 28.39 26.02 27.97C25.33 27.42 24.63 27.2 23.91 27.2C23.08 27.2 22.54 27.53 22.54 28.08C22.54 28.6 22.97 28.95 23.8 29.11L25.68 29.5C27.94 29.99 29.03 31.07 29.03 32.83C29.03 34.84 27.65 36.17 25.34 36.52H25.33ZM17.48 17.58L23.94 8.97L30.4 17.58H17.48Z" fill="#1F2024"/>
</svg>
