<svg width="48" height="48" viewBox="0 0 48 48" fill="none" xmlns="http://www.w3.org/2000/svg">
<path d="M43.8949 17.605C43.2349 16.955 42.3549 16.595 41.4249 16.595H34.2049L25.2049 4.58501C24.6349 3.82501 23.3749 3.82501 22.8049 4.58501L13.7949 16.585H6.57494C5.64494 16.585 4.76494 16.945 4.10494 17.595C3.44494 18.255 3.06494 19.135 3.06494 20.065C3.06494 20.385 3.10494 20.695 3.19494 21.005L7.24494 38.985C7.56494 40.135 8.27494 41.165 9.22494 41.875C10.1749 42.585 11.3449 42.985 12.5249 42.985H35.4749C36.6649 42.985 37.8449 42.595 38.7949 41.875C39.7449 41.165 40.4549 40.135 40.8049 38.905L44.8449 20.945C44.8549 20.895 44.8649 20.835 44.8749 20.775L44.9349 20.235C44.9349 20.175 44.9349 20.115 44.9349 20.055C44.9349 19.125 44.5549 18.245 43.8949 17.595V17.605ZM24.0049 7.98501L30.4649 16.595H17.5449L24.0049 7.98501ZM37.9049 38.165C37.7549 38.685 37.4349 39.155 36.9949 39.485C36.5649 39.815 36.0249 39.995 35.4749 39.995H12.5349C11.9649 39.995 11.4549 39.815 11.0249 39.495C10.5949 39.175 10.2749 38.705 10.1449 38.265L6.10494 20.295C6.10494 20.295 6.07494 20.135 6.06494 20.095C6.06494 19.965 6.11494 19.835 6.21494 19.735C6.30494 19.645 6.43494 19.585 6.57494 19.585H41.4349C41.5649 19.585 41.6949 19.635 41.7949 19.735C41.8749 19.815 41.9249 19.915 41.9449 20.035L37.9049 38.165Z" fill="#1F2024"/>
<path d="M32.0249 27.255H31.1049L31.6549 25.285C31.8349 24.635 31.4549 23.955 30.8049 23.775C30.1549 23.595 29.4749 23.975 29.2949 24.625L27.4949 31.035L25.3549 25.385C25.1449 24.765 24.5649 24.355 23.9149 24.345C23.2649 24.345 22.6849 24.755 22.4549 25.385L20.4949 31.065L18.4049 24.585C18.1949 23.945 17.5049 23.585 16.8649 23.795C16.2249 24.005 15.8649 24.695 16.0749 25.335L16.6949 27.255H15.9749C15.2949 27.255 14.7449 27.805 14.7449 28.475C14.7449 29.145 15.2949 29.695 15.9749 29.695H17.4849L18.9949 34.395C19.1949 35.035 19.7749 35.465 20.4449 35.475C21.1049 35.475 21.7149 35.055 21.9149 34.435L23.9349 28.565L26.1749 34.485C26.4049 35.085 26.9749 35.485 27.6149 35.485C27.6349 35.485 27.6549 35.485 27.6649 35.485C28.3249 35.465 28.9049 35.015 29.1049 34.355L30.4149 29.695H32.0149C32.6949 29.695 33.2349 29.145 33.2349 28.475C33.2349 27.805 32.6849 27.255 32.0149 27.255H32.0249Z" fill="#1F2024"/>
</svg>
