<svg width="48" height="48" viewBox="0 0 48 48" fill="none" xmlns="http://www.w3.org/2000/svg">
<path d="M12.535 43.195C11.425 43.195 10.315 42.815 9.40498 42.145C8.49498 41.465 7.83498 40.495 7.52498 39.405L3.47498 21.435C3.39498 21.145 3.35498 20.865 3.35498 20.555C3.35498 19.705 3.69498 18.905 4.31498 18.285C4.92498 17.685 5.72498 17.355 6.58498 17.355H13.945L23.035 5.25498C23.245 4.96498 23.615 4.79498 24.005 4.79498C24.395 4.79498 24.765 4.96498 24.975 5.25498L34.055 17.375H41.415C42.275 17.375 43.075 17.705 43.685 18.305L43.835 18.455C44.355 19.035 44.645 19.775 44.645 20.555V20.735L44.585 21.245L44.565 21.385L40.525 39.345C40.195 40.485 39.535 41.465 38.625 42.155C37.725 42.835 36.615 43.205 35.475 43.205H12.535V43.195ZM6.58498 19.795C6.37498 19.795 6.17498 19.875 6.02498 20.025C5.87498 20.175 5.79498 20.375 5.79498 20.585C5.81498 20.695 5.83498 20.835 5.83498 20.835L9.87498 38.815C10.035 39.355 10.395 39.865 10.865 40.205C11.365 40.575 11.925 40.765 12.545 40.765H35.485C36.095 40.765 36.695 40.565 37.175 40.195C37.655 39.835 38.015 39.315 38.185 38.725L42.245 20.525V20.475C42.205 20.295 42.135 20.145 42.005 20.025C41.855 19.875 41.655 19.795 41.445 19.795H6.58498ZM16.985 17.375H31.035L24.015 8.00498L16.985 17.375Z" fill="#1F2024"/>
<path d="M24.115 37.195C23.545 37.195 23.085 36.735 23.085 36.165V34.345H19.415C18.895 34.345 18.475 33.925 18.475 33.405C18.475 32.885 18.895 32.465 19.415 32.465H23.085V30.945H19.415C18.895 30.945 18.475 30.525 18.475 30.005C18.475 29.485 18.895 29.065 19.415 29.065H22.985L18.945 25.765C18.735 25.595 18.595 25.345 18.575 25.075C18.545 24.805 18.625 24.535 18.805 24.325C19.005 24.085 19.285 23.955 19.595 23.955C19.835 23.955 20.065 24.035 20.245 24.185L24.055 27.295L27.515 24.015C27.705 23.835 27.955 23.735 28.225 23.735C28.515 23.735 28.775 23.845 28.975 24.055C29.165 24.255 29.265 24.505 29.255 24.785C29.255 25.055 29.135 25.315 28.935 25.505L25.175 29.065H28.605C29.125 29.065 29.545 29.485 29.545 30.005C29.545 30.525 29.125 30.945 28.605 30.945H25.145V32.465H28.605C29.125 32.465 29.545 32.885 29.545 33.405C29.545 33.925 29.125 34.345 28.605 34.345H25.145V36.165C25.145 36.735 24.685 37.195 24.115 37.195Z" fill="#1F2024"/>
</svg>
