<svg width="48" height="48" viewBox="0 0 48 48" fill="none" xmlns="http://www.w3.org/2000/svg">
<path d="M42.0009 8.38995C41.8809 7.96995 41.6709 7.57995 41.3509 7.16995C41.1809 6.97995 40.9909 6.79995 40.8109 6.65995C40.4509 6.37995 40.0509 6.16995 39.6709 6.05995C37.7809 5.41995 35.8109 5.08995 33.8009 5.06995C25.9609 5.06995 20.6609 10.3699 18.1209 12.9099C17.4309 13.5799 17.0409 14.5199 17.0409 15.4899C17.0409 16.4499 17.4409 17.3799 18.1109 18.0499L20.0009 19.9299C20.0409 19.8499 20.0809 19.7699 20.1209 19.6999C20.3209 19.3199 20.5209 18.9399 20.7709 18.5799C20.9309 18.3499 21.1109 18.1199 21.3209 17.8999C21.4709 17.7499 21.6309 17.6199 21.8009 17.4899C22.4109 17.0199 23.1309 16.6999 23.9109 16.5499C24.0809 16.5199 24.2709 16.4999 24.4609 16.4999C25.2509 16.4999 25.9909 16.8099 26.5609 17.3699L30.6309 21.3799C31.3109 22.0499 31.6409 23.0199 31.4909 23.9699C31.3609 24.7899 31.0409 25.5499 30.5509 26.1999C30.4109 26.3899 30.2609 26.5699 30.1009 26.7299C29.9009 26.9299 29.6909 27.0899 29.4709 27.2399C29.0709 27.5199 28.6509 27.7399 28.2509 27.9399C28.2109 27.9599 28.1609 27.9899 28.1209 28.0099L29.9709 29.8499L30.0609 29.9399C30.7409 30.5999 31.6309 30.9699 32.5809 30.9699C32.5909 30.9699 32.6109 30.9699 32.6209 30.9699C33.5809 30.9599 34.4909 30.5699 35.1509 29.8999C38.0309 27.0199 45.6709 19.3899 41.9909 8.38995H42.0009Z" fill="#1F2024"/>
<path d="M29.1209 24.7599C29.3209 24.4199 29.4709 24.0599 29.5309 23.6599C29.5809 23.3399 29.4709 23.0199 29.2409 22.7999L25.1709 18.7899C24.9809 18.6099 24.7309 18.4999 24.4709 18.4999C24.4109 18.4999 24.3509 18.4999 24.2809 18.5199C23.9109 18.5899 23.5609 18.7299 23.2509 18.9299C23.0609 19.0499 22.8909 19.1799 22.7309 19.3299C22.5409 19.5199 22.3809 19.7599 22.2309 20.0199C22.1309 20.1999 22.0209 20.3899 21.9109 20.6099C21.7809 20.8599 21.6509 21.1199 21.4909 21.3999C21.1109 22.0699 20.6009 22.8299 19.7809 23.6399C16.0209 27.3599 9.05089 33.5799 5.92089 36.2199C5.65089 36.4499 5.44089 36.7199 5.29089 37.0299C5.14089 37.3399 5.05089 37.6699 5.03089 38.0199C5.01089 38.3699 5.07089 38.7099 5.19089 39.0399C5.32089 39.3699 5.50089 39.6499 5.74089 39.8999L7.99089 42.1899C8.23089 42.4299 8.53089 42.6299 8.84089 42.7499C9.14089 42.8699 9.45089 42.9299 9.76089 42.9299H9.86089C10.2109 42.9099 10.5409 42.8299 10.8509 42.6799C11.1709 42.5299 11.4409 42.3099 11.6709 42.0499C14.5509 38.6599 20.7709 31.7599 24.3609 28.2199C25.1709 27.4199 25.9409 26.9299 26.6309 26.5599C26.8809 26.4199 27.1209 26.2999 27.3509 26.1899C27.6009 26.0599 27.8209 25.9499 28.0209 25.8299C28.2609 25.6899 28.4809 25.5399 28.6709 25.3599C28.8409 25.1899 28.9809 24.9899 29.1009 24.7899L29.1209 24.7599Z" fill="#1F2024"/>
</svg>
