<svg width="48" height="48" viewBox="0 0 48 48" fill="none" xmlns="http://www.w3.org/2000/svg">
<path d="M24.7012 19.2541H26.2012C26.2012 18.8099 26.0044 18.3886 25.6637 18.1036C25.323 17.8186 24.8735 17.6992 24.4362 17.7777L24.7012 19.2541ZM23.6712 19.7941L24.723 20.8637L24.7319 20.8548L23.6712 19.7941ZM20.7212 24.1041L19.6687 23.0353L19.6648 23.0392L20.7212 24.1041ZM6.80124 36.7341L7.74713 37.8983C7.75387 37.8928 7.76057 37.8872 7.76722 37.8817L6.80124 36.7341ZM6.37124 38.4341L7.77875 37.9155C7.774 37.9026 7.76906 37.8898 7.76396 37.877L6.37124 38.4341ZM6.70124 38.9541L5.60466 39.9776C5.6134 39.9869 5.62226 39.9962 5.63124 40.0053L6.70124 38.9541ZM8.94124 41.2341L7.87119 42.2854L7.88058 42.2948L8.94124 41.2341ZM9.46124 41.5741L10.0433 40.1916C10.035 40.1881 10.0267 40.1847 10.0183 40.1814L9.46124 41.5741ZM11.1612 41.1441L12.2901 42.1319C12.2946 42.1267 12.2992 42.1214 12.3036 42.1162L11.1612 41.1441ZM23.9112 27.2441L22.859 26.1751L22.8563 26.1777L23.9112 27.2441ZM28.2112 24.3941L29.2631 25.4635C29.2719 25.4548 29.2806 25.4461 29.2891 25.4372L28.2112 24.3941ZM28.7712 23.2741L30.2562 23.4862C30.3235 23.015 30.1631 22.5397 29.824 22.2056L28.7712 23.2741ZM24.7012 19.2641H23.2012C23.2012 19.6658 23.3623 20.0507 23.6485 20.3326L24.7012 19.2641ZM19.4212 16.7341L20.4791 15.6706L20.4738 15.6653L20.4684 15.6601L19.4212 16.7341ZM34.0512 6.3241L34.0594 4.8241H34.0512V6.3241ZM39.4312 7.2341L38.9471 8.65381L38.9605 8.6584L38.9741 8.66273L39.4312 7.2341ZM40.1312 7.5941L39.2221 8.78728L39.2312 8.7941L40.1312 7.5941ZM40.4712 7.9141L41.6486 6.98463L41.6363 6.96906L41.6236 6.95382L40.4712 7.9141ZM40.8112 8.5641L39.3762 9.00084L39.3821 9.02014L39.3885 9.03928L40.8112 8.5641ZM34.3512 28.5941L33.2906 27.5334L33.2842 27.5399L34.3512 28.5941ZM31.3612 28.6241L30.3006 29.6848L30.307 29.6911L30.3134 29.6975L31.3612 28.6241ZM31.3312 28.5941L32.3919 27.5334L32.3891 27.5306L31.3312 28.5941ZM24.4362 17.7777C23.7405 17.9026 23.104 18.24 22.6106 18.7334L24.7319 20.8548C24.7984 20.7882 24.882 20.7456 24.9662 20.7305L24.4362 17.7777ZM22.6195 18.7246C22.2914 19.0472 22.064 19.4529 21.9134 19.7327C21.8298 19.888 21.7423 20.0592 21.6603 20.2183C21.5753 20.3833 21.4888 20.5497 21.3939 20.7232C21.0223 21.4028 20.517 22.2 19.6687 23.0353L21.7737 25.1729C22.8955 24.0682 23.5652 23.0054 24.0261 22.1625C24.1393 21.9554 24.2396 21.7623 24.3269 21.5928C24.4173 21.4175 24.4878 21.2794 24.5551 21.1545C24.706 20.874 24.7511 20.836 24.7229 20.8636L22.6195 18.7246ZM19.6648 23.0392C15.9425 26.7318 8.97497 32.9436 5.83526 35.5865L7.76722 37.8817C10.9475 35.2046 17.98 28.9363 21.7776 25.169L19.6648 23.0392ZM5.85535 35.5699C5.50971 35.8508 5.24479 36.2038 5.06563 36.582L7.77685 37.8662C7.77655 37.8668 7.77537 37.8693 7.77192 37.8738C7.76847 37.8782 7.7609 37.8871 7.74713 37.8983L5.85535 35.5699ZM5.06563 36.582C4.91419 36.9017 4.77124 37.325 4.77124 37.8241H7.77124C7.77124 37.8632 7.7655 37.8892 7.76334 37.8974C7.76153 37.9043 7.76329 37.8949 7.77685 37.8662L5.06563 36.582ZM4.77124 37.8241C4.77124 38.1272 4.79866 38.5415 4.97853 38.9912L7.76396 37.877C7.76812 37.8874 7.77107 37.8968 7.773 37.9042C7.77489 37.9114 7.77531 37.9148 7.77505 37.913C7.77427 37.9078 7.77124 37.8835 7.77124 37.8241H4.77124ZM4.96373 38.9527C5.11575 39.3653 5.35672 39.7119 5.60466 39.9776L7.79782 37.9306C7.79188 37.9243 7.78648 37.9179 7.78181 37.9119C7.77713 37.906 7.77382 37.9012 7.77176 37.898C7.76968 37.8947 7.76948 37.8941 7.77063 37.8963C7.77176 37.8986 7.77483 37.9049 7.77875 37.9155L4.96373 38.9527ZM5.63124 40.0053L7.87124 42.2853L10.0112 40.1829L7.77124 37.9029L5.63124 40.0053ZM7.88058 42.2948C8.18142 42.5956 8.52523 42.8152 8.90415 42.9668L10.0183 40.1814C10.0104 40.1782 10.0058 40.176 10.0036 40.1749C10.0016 40.1738 10.0012 40.1735 10.0019 40.1739C10.0026 40.1744 10.0035 40.175 10.004 40.1755C10.0046 40.1759 10.0039 40.1755 10.0019 40.1734L7.88058 42.2948ZM8.87915 42.9565C9.30868 43.1374 9.74774 43.1912 10.1426 43.1724L9.99989 40.1758C9.98915 40.1763 9.98715 40.1753 9.99361 40.1763C10.0003 40.1774 10.0179 40.181 10.0433 40.1916L8.87915 42.9565ZM10.1426 43.1724C10.5504 43.153 10.9444 43.0545 11.3134 42.8797L10.0291 40.1685C10.0181 40.1737 10.0121 40.1752 9.99989 40.1758L10.1426 43.1724ZM11.3134 42.8797C11.7211 42.6866 12.0402 42.4174 12.2901 42.1319L10.0324 40.1563C10.0163 40.1747 10.0083 40.1809 10.0091 40.1802C10.0094 40.1799 10.0115 40.1783 10.0153 40.176C10.0191 40.1736 10.0238 40.171 10.0291 40.1685L11.3134 42.8797ZM12.3036 42.1162C15.0288 38.9136 21.2882 31.9489 24.9662 28.3105L22.8563 26.1777C19.0943 29.8993 12.7737 36.9346 10.0189 40.172L12.3036 42.1162ZM24.9635 28.3131C25.7805 27.509 26.5684 27.0261 27.2508 26.6647C27.4249 26.5725 27.5919 26.4882 27.7583 26.4048C27.9191 26.3243 28.091 26.2387 28.2483 26.156C28.5339 26.006 28.9377 25.7836 29.2631 25.4635L27.1594 23.3247C27.1798 23.3046 27.1323 23.3535 26.8529 23.5003C26.7278 23.5661 26.5887 23.6353 26.4142 23.7228C26.2452 23.8075 26.0526 23.9045 25.8467 24.0135C25.0091 24.4571 23.952 25.0992 22.859 26.1751L24.9635 28.3131ZM29.2891 25.4372C29.7929 24.9167 30.1483 24.2414 30.2562 23.4862L27.2863 23.062C27.2742 23.1468 27.2296 23.2515 27.1333 23.351L29.2891 25.4372ZM29.824 22.2056L25.754 18.1956L23.6485 20.3326L27.7185 24.3426L29.824 22.2056ZM26.2012 19.2641V19.2541H23.2012V19.2641H26.2012ZM24.2691 19.4406L20.4791 15.6706L18.3634 17.7976L22.1534 21.5676L24.2691 19.4406ZM20.4684 15.6601C20.3581 15.5525 20.2912 15.3998 20.2912 15.2341H17.2912C17.2912 16.2084 17.6844 17.1357 18.3741 17.8081L20.4684 15.6601ZM20.2912 15.2341C20.2912 15.0854 20.3535 14.9231 20.4819 14.7948L18.3606 12.6734C17.6889 13.3451 17.2912 14.2628 17.2912 15.2341H20.2912ZM20.4819 14.7948C22.9251 12.3516 27.5213 7.8241 34.0512 7.8241V4.8241C26.1412 4.8241 20.7374 10.2966 18.3606 12.6734L20.4819 14.7948ZM34.043 7.82407C35.7095 7.83318 37.3688 8.11557 38.9471 8.65381L39.9154 5.81439C38.0336 5.17262 36.053 4.83501 34.0594 4.82412L34.043 7.82407ZM38.9741 8.66273C39.0775 8.69582 39.1613 8.74087 39.2222 8.78724L41.0403 6.40095C40.6812 6.12733 40.285 5.93237 39.8884 5.80546L38.9741 8.66273ZM39.2312 8.7941C39.2492 8.80759 39.2676 8.82292 39.2844 8.83864C39.3014 8.85452 39.3128 8.86707 39.3189 8.87437L41.6236 6.95382C41.439 6.73233 41.2309 6.54385 41.0312 6.3941L39.2312 8.7941ZM39.2939 8.84356C39.3278 8.8865 39.3605 8.94931 39.3762 9.00084L42.2463 8.12735C42.1219 7.71888 41.9147 7.3217 41.6486 6.98463L39.2939 8.84356ZM39.3885 9.03928C42.4705 18.2671 36.2676 24.5564 33.2906 27.5334L35.4119 29.6548C38.2949 26.7718 45.952 19.2211 42.234 8.08892L39.3885 9.03928ZM33.2842 27.5399C33.0389 27.7881 32.6537 27.7895 32.409 27.5507L30.3134 29.6975C31.7488 31.0987 34.0235 31.0601 35.4183 29.6483L33.2842 27.5399ZM32.4219 27.5634C32.4169 27.5584 32.4118 27.5534 32.4068 27.5484C32.4018 27.5434 32.3969 27.5384 32.3919 27.5334L30.2706 29.6548C30.2756 29.6598 30.2806 29.6648 30.2856 29.6698C30.2906 29.6748 30.2956 29.6798 30.3006 29.6848L32.4219 27.5634ZM32.3891 27.5306L28.5991 23.7606L26.4834 25.8876L30.2734 29.6576L32.3891 27.5306Z" fill="#1F2024"/>
</svg>
