<svg width="48" height="48" viewBox="0 0 48 48" fill="none" xmlns="http://www.w3.org/2000/svg">
<path d="M28.8346 43.2051C35.9746 43.2051 42.2447 37.0451 42.2447 30.0151V24.1351C42.2447 20.6551 38.5646 17.9651 35.4046 17.9651H35.2746H32.2846L32.6446 16.3351C33.0946 14.3551 33.6446 11.8851 33.6446 10.5051C33.6446 6.76505 31.2846 4.80505 28.9446 4.80505C26.9246 4.80505 24.4746 6.19505 23.5446 9.32505L23.3446 9.86505C23.1646 10.3351 23.0046 10.7951 22.8446 11.2451C21.8546 14.0051 21.0046 16.3851 18.6246 18.1151C15.8546 20.1251 12.4846 20.2651 8.85465 20.4251L8.21465 20.4551C6.74465 20.5151 5.76465 21.8651 5.76465 23.0851V40.5751C5.76465 42.0251 6.89465 43.2051 8.29465 43.2051H28.8346V43.2051ZM15.6446 22.0651L15.8646 22.0051C17.4446 21.5751 18.8146 20.9351 20.0246 20.0551C22.9646 17.9251 24.0246 15.0151 25.1346 11.9351C25.2846 11.5251 25.4346 11.1151 25.5846 10.7051L25.8346 10.0151C26.4246 7.92505 27.8746 7.18505 28.9346 7.18505C29.7346 7.18505 31.2346 7.87505 31.2346 10.4851C31.2346 11.5351 30.7646 13.6751 30.3546 15.5651L30.0046 17.1151C29.6346 18.4051 30.0146 19.1851 30.4046 19.6151C30.8246 20.0951 31.4746 20.3651 32.1846 20.3651C32.2946 20.3651 32.4146 20.3651 32.5646 20.3451H35.3846C37.1746 20.3451 39.8246 21.9251 39.8246 24.1151V30.0151C39.8246 35.6651 34.5746 40.8051 28.8146 40.8051H15.6446V22.0651ZM8.16465 22.8551L8.93465 22.8251C10.1246 22.7851 11.5246 22.7151 12.9046 22.5551L13.2346 22.5151V40.7951H8.14465L8.16465 22.8551Z" fill="#1F2024"/>
</svg>
