<svg width="48" height="48" viewBox="0 0 48 48" fill="none" xmlns="http://www.w3.org/2000/svg">
<path d="M26.5592 42.345C23.1692 42.345 19.7492 41.865 15.7792 40.835C14.5092 40.805 13.2292 40.775 12.1692 40.735L11.6292 40.715H8.71921C6.77921 40.715 5.18921 39.135 5.18921 37.195V23.565C5.18921 22.525 5.18921 20.345 7.85921 19.845C8.52921 19.695 9.11921 19.685 9.93921 19.675C10.4192 19.675 10.9792 19.655 11.7092 19.615C14.0992 19.465 14.9192 19.145 15.7792 18.805C16.0392 18.705 16.2892 18.605 16.5792 18.515C23.2492 16.025 24.9192 13.345 25.3892 10.075C25.4492 9.65503 25.4892 9.24503 25.5192 8.85503C25.6692 7.11503 25.8392 5.20503 27.8292 4.05503C28.2392 3.78503 28.7292 3.65503 29.3592 3.65503C29.8092 3.65503 30.2692 3.72503 30.5792 3.77503C32.0992 4.09503 33.2592 4.94503 34.0092 6.31503C35.6692 9.31503 34.9092 14.135 34.0392 16.475L33.9092 16.835L34.2592 16.965C38.6192 17.415 41.0592 18.575 42.4292 23.665C43.3192 26.795 42.5292 31.675 41.3292 34.675C39.6692 38.765 37.0392 40.875 32.2392 41.955L32.0992 41.975C30.0192 42.215 28.2592 42.335 26.5692 42.335L26.5592 42.345ZM29.1492 6.07503L29.0992 6.10503C28.1692 6.62503 28.0592 7.41503 27.9192 9.02503C27.8792 9.48503 27.8392 9.95503 27.7692 10.435C27.0792 15.235 23.9792 18.325 17.3892 20.785C17.1192 20.875 16.9092 20.955 16.6992 21.045C16.2392 21.225 15.7992 21.395 15.2292 21.545L15.0092 21.605V38.315L15.2792 38.335C15.7092 38.375 16.0192 38.415 16.2292 38.475C20.1292 39.495 23.3192 39.955 26.5492 39.955C28.1192 39.955 29.7692 39.845 31.7592 39.615C35.8292 38.685 37.7392 37.165 39.1092 33.795C40.1492 31.185 40.8392 26.825 40.1192 24.325C39.0892 20.485 37.7692 19.755 34.0692 19.375L33.9492 19.355C33.3892 19.275 32.3492 19.135 31.7992 18.195C31.4092 17.525 31.4092 16.665 31.7992 15.635C32.5792 13.535 33.0492 9.54503 31.9092 7.48503C31.4992 6.74503 30.9192 6.31503 30.1392 6.14503C29.7392 6.07503 29.4992 6.06503 29.3592 6.06503C29.2992 6.06503 29.1592 6.07503 29.1592 6.07503H29.1492ZM10.5192 38.305C10.9792 38.305 11.5392 38.325 12.2192 38.345H12.5292L12.5792 38.045V21.965L11.8492 22.025C11.5592 22.045 11.3092 22.045 11.0292 22.055C10.5592 22.065 10.0092 22.085 9.00921 22.145C7.70921 22.225 7.58921 22.875 7.58921 24.565V37.195C7.58921 37.805 8.09921 38.315 8.70921 38.315H9.76921C9.99921 38.305 10.2392 38.295 10.5192 38.295V38.305Z" fill="#1F2024"/>
</svg>
