<svg width="48" height="48" viewBox="0 0 48 48" fill="none" xmlns="http://www.w3.org/2000/svg">
<path d="M7.34375 20.5224C5.23375 20.9424 4.59375 21.8924 4.59375 23.0624V38.4924C4.59375 39.8624 5.86375 41.0324 7.34375 41.0324H9.88375C10.4137 41.0324 10.8337 40.7124 10.8337 40.1824V21.2624C10.8337 20.7324 10.4137 20.3124 9.77375 20.3124C9.24375 20.2024 8.50375 20.3124 7.34375 20.5224Z" fill="#1F2024"/>
<path d="M41.7938 34.9924C40.1038 39.1124 37.3537 40.9124 32.8137 41.9624C26.8937 43.3324 19.2837 42.0724 15.3737 40.6924C14.4237 40.3724 13.8938 39.4224 13.8938 38.4724V22.6224C13.8938 20.9324 14.9538 19.4524 16.4338 18.9224C26.4738 15.1224 26.6837 11.2124 27.0037 7.40244C27.1137 5.08244 28.1638 4.12244 29.0138 3.70244C29.6438 3.38244 30.3837 3.38244 31.1237 3.59244C36.3037 4.96244 35.1437 12.3624 33.8737 15.4324C33.0237 17.5424 34.5037 17.6524 35.3537 17.7524C39.8937 18.1724 41.9038 19.3424 43.0638 23.9924C43.9138 27.1624 43.0638 32.1324 41.7938 34.9824V34.9924Z" fill="#1F2024"/>
</svg>
