<svg width="48" height="48" viewBox="0 0 48 48" fill="none" xmlns="http://www.w3.org/2000/svg">
<path d="M35.4846 17.465L32.9146 17.455L33.1446 16.435C33.6246 14.325 34.1546 11.935 34.1546 10.495C34.1546 6.42504 31.5346 4.29504 28.9546 4.29504C26.7546 4.29504 24.0846 5.79504 23.0846 9.14504L22.8846 9.68504C22.7046 10.155 22.5446 10.625 22.3746 11.075C21.4146 13.755 20.5846 16.065 18.3346 17.715C15.6946 19.635 12.3946 19.775 8.83465 19.925L8.19465 19.955C6.44465 20.025 5.26465 21.635 5.26465 23.085V40.575C5.26465 42.305 6.62465 43.705 8.29465 43.705H28.8346C36.2446 43.705 42.7447 37.305 42.7447 30.015V24.135C42.7447 20.405 38.8646 17.515 35.4846 17.465V17.465ZM12.7346 40.295H8.64465L8.66465 23.335H8.95465C10.0846 23.285 11.4146 23.215 12.7346 23.075V40.295ZM39.3347 30.015C39.3347 35.905 33.7846 40.305 28.8246 40.305H16.1446V22.445C17.7246 21.995 19.0946 21.345 20.3246 20.455C23.3946 18.235 24.4746 15.255 25.6146 12.105C25.7646 11.695 26.3346 10.145 26.3346 10.145C26.8546 8.32504 28.0646 7.68504 28.9546 7.68504C29.5746 7.68504 30.7546 8.26504 30.7546 10.485C30.7546 11.475 30.2746 13.685 29.8846 15.455L29.5446 16.975C29.1146 18.485 29.5846 19.425 30.0446 19.945C30.5546 20.525 31.3446 20.865 32.2046 20.865C32.3346 20.865 32.4746 20.865 32.5846 20.845H35.4046C37.1446 20.845 39.3447 22.385 39.3447 24.115V30.015H39.3347Z" fill="#1F2024"/>
</svg>
