<svg width="48" height="48" viewBox="0 0 48 48" fill="none" xmlns="http://www.w3.org/2000/svg">
<path d="M42.7189 23.5929C41.3189 18.3529 38.6889 17.1229 34.3189 16.6729C34.3189 16.6729 34.2989 16.6729 34.2889 16.6729C34.2989 16.6429 34.3089 16.6129 34.3189 16.5829C35.1989 14.1929 35.9689 9.2529 34.2689 6.1729C33.4789 4.7529 32.2389 3.8229 30.6289 3.4829C29.6389 3.3129 28.5289 3.2329 27.6789 3.7929C25.5589 5.0129 25.3689 7.1029 25.2289 8.7829C25.1889 9.1829 25.1589 9.6029 25.0889 10.0329C24.6389 13.1929 22.9889 15.7929 16.4789 18.2229C16.1889 18.3229 15.9289 18.4229 15.6689 18.5229C14.8289 18.8529 14.0389 19.1629 11.6989 19.3129C10.9689 19.3529 10.4089 19.3629 9.94892 19.3729C9.10892 19.3829 8.49892 19.3929 7.80892 19.5529C4.88892 20.1029 4.88892 22.5229 4.88892 23.5629V37.1929C4.88892 39.3029 6.60892 41.0129 8.71892 41.0129H11.6289C11.8089 41.0129 11.9889 41.0229 12.1689 41.0329C13.2289 41.0629 14.4989 41.1029 15.7089 41.1229C19.9889 42.2329 23.3789 42.6429 26.5689 42.6429C28.4489 42.6429 30.2589 42.5029 32.1489 42.2829L32.2989 42.2529C37.2089 41.1529 39.9089 38.9929 41.6089 34.7929C42.8289 31.7429 43.6289 26.7729 42.7189 23.5929V23.5929ZM9.77892 38.0129H8.71892C8.27892 38.0129 7.88892 37.6229 7.88892 37.1829V24.5529C7.88892 22.8229 8.02892 22.4929 9.02892 22.4329C10.6289 22.3329 11.0789 22.3529 11.8789 22.3029C12.0289 22.3029 12.1489 22.2829 12.2889 22.2729V38.0329C12.2889 38.0329 12.2689 38.0329 12.2489 38.0329C11.1189 38.0029 10.3289 37.9729 9.76892 38.0129H9.77892ZM38.8189 33.6629C37.4989 36.9229 35.6389 38.4029 31.7089 39.3029C26.8289 39.8729 22.7289 39.8629 16.2789 38.1729C16.0289 38.1029 15.6689 38.0629 15.2789 38.0229V21.8129C15.8789 21.6529 16.3389 21.4829 16.7589 21.3129C16.9689 21.2329 17.1889 21.1429 17.4689 21.0529C24.1789 18.5529 27.3389 15.3829 28.0489 10.4629C28.1189 9.9829 28.1689 9.5029 28.2089 9.0429C28.3489 7.3929 28.4689 6.7829 29.1989 6.3829L29.2389 6.3629C29.3389 6.3529 29.5789 6.3629 30.0689 6.4329C30.7789 6.5829 31.2789 6.9629 31.6389 7.6229C32.7289 9.6029 32.2589 13.4929 31.5089 15.5229C31.0689 16.6429 31.0789 17.5929 31.5189 18.3429C32.1389 19.4029 33.3189 19.5729 33.8889 19.6529L34.0189 19.6729C37.6189 20.0429 38.8189 20.7029 39.8089 24.4029C40.5089 26.8429 39.8289 31.1129 38.8089 33.6729L38.8189 33.6629Z" fill="#1F2024"/>
</svg>
