<svg width="48" height="48" viewBox="0 0 48 48" fill="none" xmlns="http://www.w3.org/2000/svg">
<path d="M26.5768 42.835C23.1468 42.835 19.6768 42.355 15.6668 41.305C14.5068 41.305 13.2368 41.255 12.1668 41.225L11.6268 41.205H8.72678C6.50678 41.205 4.69678 39.395 4.69678 37.185V23.555C4.69678 22.565 4.69678 19.925 7.77678 19.345C8.47678 19.185 9.09678 19.175 9.94678 19.165C10.4168 19.165 10.9768 19.145 11.6968 19.105C14.0068 18.955 14.7868 18.655 15.6068 18.335C15.8768 18.235 16.1368 18.125 16.4268 18.035C22.8468 15.635 24.4568 13.095 24.8968 10.005C24.9568 9.59503 24.9968 9.19503 25.0268 8.81503C25.1768 7.04503 25.3668 4.90503 27.5768 3.62503C28.0368 3.31503 28.6268 3.15503 29.3568 3.15503C29.8468 3.15503 30.3368 3.22503 30.6568 3.28503C32.3168 3.63503 33.6268 4.59503 34.4468 6.07503C36.1468 9.15503 35.4368 14.035 34.5668 16.505C38.8968 16.985 41.5068 18.305 42.9068 23.545C43.8268 26.775 43.0168 31.785 41.7868 34.865C40.0568 39.125 37.3268 41.325 32.3368 42.445L32.1668 42.475C30.0368 42.725 28.2568 42.845 26.5468 42.845L26.5768 42.835ZM15.5068 37.835C15.8768 37.875 16.1468 37.915 16.3568 37.965C20.2168 38.975 23.3568 39.425 26.5568 39.425C28.1068 39.425 29.7468 39.315 31.7168 39.085C35.5468 38.205 37.3668 36.765 38.6568 33.575C39.6668 31.045 40.3368 26.825 39.6568 24.435C38.6868 20.825 37.5868 20.215 34.0368 19.845L33.8968 19.825C33.2968 19.745 32.0568 19.565 31.3768 18.425C30.9068 17.615 30.8968 16.605 31.3568 15.425C32.0968 13.425 32.5568 9.62503 31.4968 7.69503C31.1568 7.08503 30.7068 6.73503 30.0568 6.60503C29.7168 6.54503 29.5068 6.53503 29.3768 6.53503H29.2868C28.7068 6.88503 28.5868 7.35503 28.4368 9.04503C28.3968 9.51503 28.3568 9.99503 28.2768 10.485C27.5668 15.485 24.3568 18.695 17.5768 21.235C17.2968 21.325 17.0968 21.405 16.8868 21.485C16.4568 21.655 16.0368 21.815 15.5068 21.955V37.825V37.835ZM10.5468 37.785C10.9768 37.785 11.4868 37.795 12.1068 37.815V22.475L11.9068 22.495C11.6068 22.515 11.3568 22.515 11.0768 22.525C10.6068 22.535 10.0568 22.555 9.06678 22.615C8.25678 22.665 8.11678 22.815 8.11678 24.535V37.165C8.11678 37.495 8.41678 37.785 8.73678 37.785H9.79678C10.0068 37.775 10.2568 37.765 10.5468 37.765V37.785Z" fill="#1F2024"/>
</svg>
