<svg width="48" height="48" viewBox="0 0 48 48" fill="none" xmlns="http://www.w3.org/2000/svg">
<path d="M32.3102 16.2701L36.0502 16.2501L36.0402 16.2401C39.4302 16.2401 42.1802 19.1401 42.1802 22.7101V28.5901C42.1802 36.0201 36.4702 42.0701 29.4702 42.0701H16.1802C15.6279 42.0701 15.1802 41.6224 15.1802 41.0701V19.4096C15.1802 18.933 15.5177 18.5263 15.98 18.4102C17.2816 18.0834 18.5023 17.5949 19.5502 16.8298C22.2392 14.8805 23.9297 12.0411 25.1789 8.71336L25.1802 8.70984L25.3802 8.16984C26.3502 4.90984 27.4602 3.08008 29.6002 3.08008C34.2302 3.30008 33.8502 8.29008 33.7902 9.07008C33.6102 11.2301 32.3102 16.2701 32.3102 16.2701Z" fill="#1F2024"/>
<path d="M8.55982 19.2997L9.20982 19.2697V19.2597C9.83384 19.2343 10.466 19.2047 11.0985 19.166C11.6814 19.1303 12.1798 19.5897 12.1798 20.1738V41.0799C12.1798 41.6322 11.7321 42.0799 11.1798 42.0799H8.64982C7.08982 42.0799 5.81982 40.7599 5.81982 39.1499V22.2197C5.81982 20.8697 6.92982 19.3697 8.55982 19.2997Z" fill="#1F2024"/>
</svg>
