<svg width="48" height="48" viewBox="0 0 48 48" fill="none" xmlns="http://www.w3.org/2000/svg">
<path d="M35.95 16.16H33.21L33.49 14.9C33.99 12.68 34.5 10.38 34.5 9C34.5 5.06 31.98 3 29.5 3C27.36 3 24.79 4.46 23.82 7.72L23.62 8.26C22.37 11.59 21.68 14.42 19 16.38C16.29 18.35 12.94 18.48 9.39001 18.63L8.75001 18.66C7.11001 18.73 6.01001 20.23 6.01001 21.59V39.08C6.01001 40.69 7.28001 42.01 8.84001 42.01H29.39C36.4 42.01 43.1 35.96 43.1 28.52V22.64C43.1 19.07 39.34 16.17 35.96 16.17L35.95 16.16ZM9.02001 21.65L9.50001 21.63C10.83 21.58 12.17 21.51 13.49 21.36V39H9.00001L9.02001 21.65ZM40.09 28.52C40.09 34.3 34.74 39.01 29.38 39.01H16.5V20.8C17.97 20.4 19.41 19.78 20.76 18.8C24.18 16.32 25.12 12.8 26.43 9.31L26.69 8.6C27.24 6.67 28.55 5.99 29.5 5.99C30.19 5.99 31.5 6.62 31.5 8.99C31.5 10.05 30.98 12.37 30.57 14.24C30.47 14.69 30.37 15.13 30.28 15.54C29.88 16.96 30.31 17.84 30.74 18.32C31.3 18.96 32.19 19.26 33.13 19.15H35.95C37.68 19.15 40.09 20.71 40.09 22.62V28.5V28.52Z" fill="#1F2024"/>
</svg>
