<svg width="48" height="48" viewBox="0 0 48 48" fill="none" xmlns="http://www.w3.org/2000/svg">
<path d="M35.9498 16.16H33.2098L33.4898 14.9C33.9898 12.68 34.4998 10.38 34.4998 9C34.4998 5.06 31.9798 3 29.4998 3C27.3598 3 24.7898 4.46 23.8198 7.72L23.6198 8.26C22.3698 11.59 21.6798 14.42 18.9998 16.38C16.2898 18.35 12.9398 18.48 9.38977 18.63L8.74977 18.66C7.10977 18.73 6.00977 20.23 6.00977 21.59V39.08C6.00977 40.69 7.27977 42.01 8.83977 42.01H29.3898C36.3998 42.01 43.0998 35.96 43.0998 28.52V22.64C43.0998 19.07 39.3398 16.17 35.9598 16.17L35.9498 16.16ZM9.01977 21.65L9.49977 21.63C10.8298 21.58 12.1698 21.51 13.4898 21.36V39H8.99977L9.01977 21.65ZM40.0898 28.52C40.0898 34.3 34.7398 39.01 29.3798 39.01H16.4998V20.8C17.9698 20.4 19.4098 19.78 20.7598 18.8C24.1798 16.32 25.1198 12.8 26.4298 9.31L26.6898 8.6C27.2398 6.67 28.5498 5.99 29.4998 5.99C30.1898 5.99 31.4998 6.62 31.4998 8.99C31.4998 10.05 30.9798 12.37 30.5698 14.24C30.4698 14.69 30.3698 15.13 30.2798 15.54C29.8798 16.96 30.3098 17.84 30.7398 18.32C31.2998 18.96 32.1898 19.26 33.1298 19.15H35.9498C37.6798 19.15 40.0898 20.71 40.0898 22.62V28.5V28.52Z" fill="#1F2024"/>
</svg>
