<svg width="48" height="48" viewBox="0 0 48 48" fill="none" xmlns="http://www.w3.org/2000/svg">
<path d="M33.0284 23.078L26.7628 23.0579V15.8527C26.7628 14.7674 26.3775 13.7927 25.6779 13.0993C24.9784 12.4059 23.9949 12.024 22.9 12.024C21.8151 12.024 20.8317 12.416 20.1321 13.1093C19.4326 13.8027 19.0473 14.7775 19.0473 15.8527V28.8662C18.3579 28.1628 17.5468 27.379 16.9689 26.9368C16.097 26.2736 14.9108 25.9118 13.6333 25.9118C12.66 25.9118 11.6766 26.1228 10.8655 26.5147C9.67928 27.0875 9 28.0321 9 29.1074C9 29.5897 9.18249 30.062 9.59818 30.6449C9.96316 31.1574 10.5106 31.7704 11.3116 32.6346L11.8489 33.2576H11.8591L13.4407 34.9459C14.2822 35.8503 15.2251 36.8853 15.6408 37.3476L15.6813 37.3978C17.3136 39.2267 18.9459 40.9652 20.9432 42.1711C23.0115 43.4172 25.3129 44 28.2024 44H28.5167C30.7269 43.9699 33.5353 43.7287 35.6847 42.0706C37.9152 40.3522 39 37.4782 39 33.2978V28.8662C39 25.6405 36.4451 23.1785 33.0284 23.078Z" fill="#1F2024"/>
<path d="M32.9575 17.0686C31.8423 17.0686 30.9298 16.1642 30.9298 15.0588C30.9298 10.6272 27.2901 7.01961 22.819 7.01961C18.3479 7.01961 14.7183 10.6172 14.7183 15.0488C14.7183 16.1542 13.8058 17.0586 12.6906 17.0586C11.5753 17.0586 10.6628 16.1542 10.6628 15.0488C10.6628 8.40637 16.1174 3 22.819 3C29.5206 3 34.9852 8.40637 34.9852 15.0588C34.9852 16.1642 34.0728 17.0686 32.9575 17.0686Z" fill="#1F2024"/>
</svg>
