<svg width="48" height="48" viewBox="0 0 48 48" fill="none" xmlns="http://www.w3.org/2000/svg">
<path d="M11.79 33.4C11.79 33.4 14.69 36.5 15.59 37.5C19.09 41.4 22.09 44.2001 28.29 44.2001C32.09 44.2001 34.79 43.3 36.69 41.4C39.09 39 39.29 35.5 39.19 33.1V28.7C39.19 25.2 36.39 22.5 32.69 22.5H27.39V15.7C27.39 13.2 25.39 11.2 22.99 11.2C20.59 11.2 18.69 13.2 18.69 15.7V27.7C18.19 27.2 17.69 26.8 17.29 26.5C15.39 25.1 12.59 25.2 10.79 26.1C9.49004 26.8 8.79004 27.8 8.79004 29C8.79004 30.2 9.59004 31.1 11.29 32.8L11.79 33.4ZM11.89 28.2C12.39 27.9 13.09 27.8 13.79 27.8C14.49 27.8 15.29 28 15.79 28.4C16.29 28.8 17.39 29.8 18.29 30.8C18.79 31.3 19.49 31.4 20.09 31.2C20.69 31 21.09 30.4 21.09 29.7V15.8C21.09 14.6 21.89 13.7 22.99 13.7C24.09 13.7 24.99 14.6 24.99 15.8V23C24.99 24.1 25.89 25 26.99 25H32.69C35.09 25 36.79 26.6 36.79 28.8V33.2C36.89 36.4 36.29 38.5 34.99 39.8C33.69 41.2 31.39 41.9 28.29 41.9C23.09 41.9 20.69 39.7 17.39 36C16.49 35 13.59 31.9 13.59 31.9L12.99 31.3C12.39 30.6 11.19 29.4 11.19 29.1C11.19 28.9 11.19 28.6 11.89 28.2Z" fill="#1F2024"/>
<path d="M12.89 16.2C13.59 16.2 14.09 15.6 14.09 15C14.09 10.2 17.99 6.20005 22.89 6.20005C27.79 6.20005 31.69 10.1 31.69 15C31.69 15.7 32.29 16.2 32.89 16.2C33.49 16.2 34.09 15.6 34.09 15C34.09 8.80005 29.09 3.80005 22.89 3.80005C16.69 3.80005 11.69 8.80005 11.69 15C11.59 15.7 12.19 16.2 12.89 16.2Z" fill="#1F2024"/>
</svg>
