<svg width="48" height="48" viewBox="0 0 48 48" fill="none" xmlns="http://www.w3.org/2000/svg">
<path d="M28.2773 45.1803C21.7143 45.1803 18.6391 42.2703 14.9965 38.1529C14.0471 37.0797 11.1267 33.922 11.1267 33.922L10.5385 33.2615C8.95969 31.5279 8 30.4753 8 29.1545C8 27.8336 8.83586 26.5644 10.2909 25.8523C12.1999 24.903 15.2028 24.7791 17.2667 26.3683C17.5247 26.5644 17.8446 26.843 18.2161 27.1938V15.5537C18.2161 12.8501 20.3418 10.6314 22.9526 10.6108C25.6253 10.6108 27.8026 12.8294 27.8026 15.5537V22.2406H32.9829C36.9868 22.2406 40 25.1093 40 28.9068V33.4576C40 38.2251 38.9062 44.4786 29.8252 45.108V45.1596H28.2773V45.1803ZM27.6375 42.0845H28.2773C35.4595 42.0845 36.9042 38.7927 36.9042 33.4783V28.9275C36.9042 26.8533 35.2531 25.357 32.9829 25.357H27.1009C25.7801 25.357 24.7172 24.2838 24.7172 22.9733V15.5743C24.7172 14.5734 23.9226 13.7272 22.9732 13.7272C22.0548 13.7272 21.3222 14.5424 21.3222 15.5743V29.9594C21.3222 30.7643 20.8372 31.4763 20.0942 31.7756C19.3409 32.0748 18.4947 31.8994 17.9374 31.3112C16.4515 29.7427 15.7394 29.1029 15.3989 28.8449C14.3979 28.0813 12.6953 28.1432 11.684 28.6488C11.3744 28.8036 11.168 28.9791 11.1267 29.1235C11.3125 29.5157 12.2722 30.5682 12.8604 31.208L13.4382 31.8581C13.4382 31.8581 16.3792 35.0365 17.3389 36.12C20.4966 39.6904 22.8081 41.9091 27.6582 42.0845H27.6375Z" fill="#1F2024"/>
<path d="M33.0965 16.3379C32.209 16.3379 31.497 15.6259 31.497 14.7384C31.497 9.92967 27.586 6.01867 22.7772 6.01867C17.9684 6.01867 14.0678 9.91935 14.0678 14.7281C14.0678 15.6156 13.3557 16.3276 12.4683 16.3276C11.5808 16.3276 10.8688 15.6156 10.8688 14.7281C10.8688 8.16507 16.2142 2.8197 22.7772 2.8197C29.3402 2.8197 34.6959 8.16508 34.6959 14.7384C34.6959 15.6259 33.9839 16.3379 33.0965 16.3379Z" fill="#1F2024"/>
</svg>
