<svg width="48" height="48" viewBox="0 0 48 48" fill="none" xmlns="http://www.w3.org/2000/svg">
<path d="M11.517 33.6102C11.517 33.6102 14.4819 36.7795 15.402 37.8019C18.9803 41.7891 22.0474 44.6517 28.386 44.6517C32.271 44.6517 35.0314 43.7316 36.9738 41.7891C39.4275 39.3354 39.632 35.7571 39.5298 33.3035V28.8051C39.5298 25.2268 36.6671 22.4664 32.8844 22.4664H27.4659V15.5144C27.4659 12.9585 25.4212 10.9137 22.9675 10.9137C20.5138 10.9137 18.5713 12.9585 18.5713 15.5144V27.7827C18.0602 27.2715 17.549 26.8626 17.14 26.5559C15.1975 25.1246 12.3349 25.2268 10.4947 26.1469C9.1656 26.8626 8.44995 27.885 8.44995 29.1118C8.44995 30.3386 9.26784 31.2587 11.0059 32.9968L11.517 33.6102ZM11.6193 28.2939C12.1305 27.9872 12.8461 27.885 13.5618 27.885C14.2774 27.885 15.0953 28.0894 15.6065 28.4984C16.1177 28.9073 17.2423 29.9297 18.1624 30.952C18.6736 31.4632 19.3892 31.5655 20.0026 31.361C20.6161 31.1565 21.025 30.5431 21.025 29.8274V15.6166C21.025 14.3898 21.8429 13.4696 22.9675 13.4696C24.0921 13.4696 25.0122 14.3898 25.0122 15.6166V22.9776C25.0122 24.1022 25.9323 25.0223 27.0569 25.0223H32.8844C35.3381 25.0223 37.0761 26.6581 37.0761 28.9073V33.4057C37.1783 36.6773 36.5649 38.8242 35.2358 40.1533C33.9068 41.5846 31.5553 42.3003 28.386 42.3003C23.0697 42.3003 20.6161 40.0511 17.2423 36.2683C16.3221 35.246 13.3573 32.0766 13.3573 32.0766L12.7439 31.4632C12.1305 30.7476 10.9036 29.5207 10.9036 29.214C10.9036 29.0095 10.9036 28.7028 11.6193 28.2939Z" fill="#1F2024"/>
<path d="M12.6416 16.0256C13.3573 16.0256 13.8685 15.4121 13.8685 14.7987C13.8685 9.89138 17.8557 5.80194 22.8653 5.80194C27.8748 5.80194 31.862 9.78915 31.862 14.7987C31.862 15.5144 32.4755 16.0256 33.0889 16.0256C33.7023 16.0256 34.3157 15.4121 34.3157 14.7987C34.3157 8.46008 29.2039 3.34827 22.8653 3.34827C16.5266 3.34827 11.4148 8.46008 11.4148 14.7987C11.3126 15.5144 11.926 16.0256 12.6416 16.0256Z" fill="#1F2024"/>
</svg>
