<svg width="48" height="48" viewBox="0 0 48 48" fill="none" xmlns="http://www.w3.org/2000/svg">
<path d="M28.1451 44.525C21.7851 44.525 18.8051 41.705 15.2751 37.715C14.3551 36.675 11.5251 33.615 11.5251 33.615L10.9551 32.975C9.42512 31.295 8.49512 30.275 8.49512 28.995C8.49512 27.715 9.30512 26.485 10.7151 25.795C12.5651 24.875 15.4751 24.755 17.4751 26.295C17.7251 26.485 18.0351 26.755 18.3951 27.095V15.815C18.3951 13.195 20.4551 11.045 22.9851 11.025C25.5751 11.025 27.6851 13.175 27.6851 15.815V22.295H32.7051C36.5851 22.295 39.5051 25.075 39.5051 28.755V33.165C39.5051 37.785 38.4451 43.845 29.6451 44.455V44.505H28.1451V44.525ZM27.5251 41.525H28.1451C35.1051 41.525 36.5051 38.335 36.5051 33.185V28.775C36.5051 26.765 34.9051 25.315 32.7051 25.315H27.0051C25.7251 25.315 24.6951 24.275 24.6951 23.005V15.835C24.6951 14.865 23.9251 14.045 23.0051 14.045C22.1151 14.045 21.4051 14.835 21.4051 15.835V29.775C21.4051 30.555 20.9351 31.245 20.2151 31.535C19.4851 31.825 18.6651 31.655 18.1251 31.085C16.6851 29.565 15.9951 28.945 15.6651 28.695C14.6951 27.955 13.0451 28.015 12.0651 28.505C11.7651 28.655 11.5651 28.825 11.5251 28.965C11.7051 29.345 12.6351 30.365 13.2051 30.985L13.7651 31.615C13.7651 31.615 16.6151 34.695 17.5451 35.745C20.6051 39.205 22.8451 41.355 27.5451 41.525H27.5251Z" fill="#1F2024"/>
<path d="M32.8151 16.575C31.9551 16.575 31.2651 15.885 31.2651 15.025C31.2651 10.365 27.4751 6.57498 22.8151 6.57498C18.1551 6.57498 14.3751 10.355 14.3751 15.015C14.3751 15.875 13.6851 16.565 12.8251 16.565C11.9651 16.565 11.2751 15.875 11.2751 15.015C11.2751 8.65498 16.4551 3.47498 22.8151 3.47498C29.1751 3.47498 34.3651 8.65498 34.3651 15.025C34.3651 15.885 33.6751 16.575 32.8151 16.575Z" fill="#1F2024"/>
</svg>
