<svg width="48" height="48" viewBox="0 0 48 48" fill="none" xmlns="http://www.w3.org/2000/svg">
<path d="M40.1468 28.8492C40.1468 24.9286 37.0516 21.9365 32.9246 21.9365H27.9722V15.4365C27.9722 12.5476 25.7024 10.2778 22.9167 10.2778C20.131 10.2778 17.9643 12.5476 17.9643 15.4365V26.5794C17.7579 26.373 17.5516 26.2698 17.4484 26.1667L17.3452 26.0635C15.1786 24.5159 12.0833 24.619 10.123 25.6508C8.1627 26.6825 7.75 28.127 7.75 29.1587C7.75 30.6032 8.78175 31.7381 10.4325 33.4921L11.0516 34.1111C11.0516 34.1111 14.0437 37.3095 14.9722 38.3413C18.5833 42.3651 21.8849 45.4603 28.4881 45.4603C32.5119 45.4603 35.504 44.4286 37.4643 42.4682C40.0436 39.8889 40.25 36.0714 40.25 33.4921V28.8492H40.1468ZM34.8849 39.8889C33.6468 41.2301 31.377 41.8492 28.3849 41.8492C23.2262 41.8492 20.8532 39.5794 17.5516 35.9682C16.623 34.9365 13.631 31.7381 13.5278 31.6349L12.9087 31.0159C12.3929 30.3968 11.4643 29.4682 11.2579 29.0555C11.2579 28.9524 11.4643 28.8492 11.6706 28.746C12.5992 28.2301 14.25 28.2301 15.1786 28.8492C15.6944 29.2619 16.7262 30.1905 17.6548 31.3254C18.2738 31.9444 19.2024 32.1508 20.0278 31.8413C20.8532 31.5317 21.369 30.7063 21.369 29.7778V15.4365C21.369 14.6111 21.8849 13.7857 22.8135 13.7857C23.6389 13.7857 24.3611 14.5079 24.3611 15.4365V22.8651C24.3611 24.3095 25.496 25.4444 26.9405 25.4444H32.8214C34.9881 25.4444 36.5357 26.8889 36.5357 28.8492V33.3889C36.7421 36.5873 36.123 38.5476 34.8849 39.8889Z" fill="#1F2024"/>
<path d="M10.6389 14.7143C10.6389 15.746 11.4643 16.5714 12.496 16.5714C13.5278 16.5714 14.3532 15.746 14.3532 14.7143C14.3532 10.0714 18.1706 6.25396 22.8135 6.25396C27.4563 6.25396 31.2738 10.0714 31.2738 14.7143C31.2738 15.746 32.0992 16.5714 33.131 16.5714C34.1627 16.5714 34.9881 15.746 34.9881 14.7143C34.9881 8.00793 29.5198 2.53967 22.8135 2.53967C16.1071 2.53967 10.6389 8.00793 10.6389 14.7143Z" fill="#1F2024"/>
</svg>
