<svg width="48" height="48" viewBox="0 0 48 48" fill="none" xmlns="http://www.w3.org/2000/svg">
<path d="M33.5099 23.5555L26.9101 23.5343V15.9449C26.9101 14.8017 26.5042 13.775 25.7674 13.0446C25.0305 12.3142 23.9946 11.912 22.8412 11.912C21.6986 11.912 20.6627 12.3248 19.9258 13.0552C19.1889 13.7855 18.7831 14.8123 18.7831 15.9449V29.6524C18.0569 28.9115 17.2026 28.0858 16.5939 27.6201C15.6755 26.9215 14.426 26.5404 13.0804 26.5404C12.0552 26.5404 11.0193 26.7627 10.1649 27.1755C8.91546 27.7789 8.19995 28.7739 8.19995 29.9065C8.19995 30.4145 8.39218 30.912 8.83003 31.526C9.21448 32.0658 9.79116 32.7115 10.6348 33.6218L11.2008 34.278H11.2115L12.8775 36.0563C13.7639 37.009 14.757 38.0992 15.1949 38.5861L15.2376 38.639C16.957 40.5655 18.6763 42.3967 20.7801 43.6669C22.9587 44.9794 25.3829 45.5934 28.4265 45.5934H28.7576C31.0857 45.5616 34.0438 45.3076 36.3078 43.5611C38.6573 41.751 39.8 38.7237 39.8 34.3204V29.6524C39.8 26.2546 37.1088 23.6613 33.5099 23.5555Z" fill="#1F2024"/>
<path d="M33.4352 17.2256C32.2605 17.2256 31.2994 16.273 31.2994 15.1086C31.2994 10.4407 27.4655 6.64066 22.7559 6.64066C18.0464 6.64066 14.2232 10.4301 14.2232 15.0981C14.2232 16.2624 13.2621 17.215 12.0873 17.215C10.9126 17.215 9.95148 16.2624 9.95148 15.0981C9.95148 8.10139 15.6969 2.40668 22.7559 2.40668C29.8149 2.40668 35.5711 8.10139 35.5711 15.1086C35.5711 16.273 34.6099 17.2256 33.4352 17.2256Z" fill="#1F2024"/>
</svg>
