<svg width="48" height="48" viewBox="0 0 48 48" fill="none" xmlns="http://www.w3.org/2000/svg">
<path d="M26.65 44.05C20.29 44.05 17.31 41.23 13.78 37.2401C12.86 36.2001 10.03 33.14 10.03 33.14L9.46 32.5C7.93 30.82 7 29.8001 7 28.5201C7 27.24 7.81 26.01 9.22 25.32C11.07 24.4 13.98 24.28 15.98 25.82C16.23 26.01 16.54 26.28 16.9 26.62V15.34C16.9 12.72 18.96 10.57 21.49 10.55C24.08 10.55 26.19 12.7 26.19 15.34V21.82H31.21C35.09 21.82 38.01 24.6 38.01 28.28V32.69C38.01 37.31 36.95 43.37 28.15 43.98V44.03H26.65V44.05ZM26.03 41.05H26.65C33.61 41.05 35.01 37.86 35.01 32.71V28.3C35.01 26.29 33.41 24.84 31.21 24.84H25.51C24.23 24.84 23.2 23.8 23.2 22.53V15.36C23.2 14.39 22.43 13.57 21.51 13.57C20.62 13.57 19.91 14.36 19.91 15.36V29.3C19.91 30.08 19.44 30.77 18.72 31.06C17.99 31.35 17.17 31.18 16.63 30.6101C15.19 29.09 14.5 28.47 14.17 28.22C13.2 27.48 11.55 27.54 10.57 28.03C10.27 28.18 10.07 28.35 10.03 28.49C10.21 28.87 11.14 29.89 11.71 30.51L12.27 31.14C12.27 31.14 15.12 34.2201 16.05 35.2701C19.11 38.73 21.35 40.8801 26.05 41.05H26.03Z" fill="#1F2024"/>
<path d="M31.32 16.1C30.46 16.1 29.77 15.41 29.77 14.55C29.77 9.89 25.98 6.1 21.32 6.1C16.66 6.1 12.88 9.88 12.88 14.54C12.88 15.4 12.19 16.09 11.33 16.09C10.47 16.09 9.78003 15.4 9.78003 14.54C9.78003 8.18 14.96 3 21.32 3C27.68 3 32.87 8.18 32.87 14.55C32.87 15.41 32.18 16.1 31.32 16.1Z" fill="#1F2024"/>
</svg>
