<svg width="48" height="48" viewBox="0 0 48 48" fill="none" xmlns="http://www.w3.org/2000/svg">
<path d="M39.65 28.7C39.65 24.9 36.65 22 32.65 22H27.85V15.7C27.85 12.9 25.65 10.7 22.95 10.7C20.25 10.7 18.15 12.9 18.15 15.7V26.5C17.95 26.3 17.75 26.2 17.65 26.1L17.55 26C15.45 24.5 12.45 24.6 10.55 25.6C8.65 26.6 8.25 28 8.25 29C8.25 30.4 9.25 31.5 10.85 33.2L11.45 33.8C11.45 33.8 14.35 36.9 15.25 37.9C18.75 41.8 21.95 44.7999 28.35 44.7999C32.25 44.7999 35.15 43.8 37.05 41.9C39.55 39.4 39.75 35.7 39.75 33.2V28.7H39.65ZM34.55 39.4C33.35 40.7 31.15 41.2999 28.25 41.2999C23.25 41.2999 20.95 39.1 17.75 35.6C16.85 34.6 13.95 31.5 13.85 31.4L13.25 30.8C12.75 30.2 11.85 29.3 11.65 28.9C11.65 28.8 11.85 28.7 12.05 28.6C12.95 28.1 14.55 28.1 15.45 28.7C15.95 29.1 16.95 30 17.85 31.1C18.45 31.7 19.35 31.9 20.15 31.6C20.95 31.3 21.45 30.5 21.45 29.6V15.7C21.45 14.9 21.95 14.1 22.85 14.1C23.65 14.1 24.35 14.8 24.35 15.7V22.9C24.35 24.3 25.45 25.4 26.85 25.4H32.55C34.65 25.4 36.15 26.8 36.15 28.7V33.1C36.35 36.2 35.75 38.1 34.55 39.4Z" fill="#1F2024"/>
<path d="M11.05 15C11.05 16 11.85 16.8 12.85 16.8C13.85 16.8 14.65 16 14.65 15C14.65 10.5 18.35 6.79995 22.85 6.79995C27.35 6.79995 31.05 10.5 31.05 15C31.05 16 31.85 16.8 32.85 16.8C33.85 16.8 34.65 16 34.65 15C34.65 8.49995 29.35 3.19995 22.85 3.19995C16.35 3.19995 11.05 8.49995 11.05 15Z" fill="#1F2024"/>
</svg>
