<svg width="48" height="48" viewBox="0 0 48 48" fill="none" xmlns="http://www.w3.org/2000/svg">
<path d="M9.41878 30.8351C9.41878 29.1264 10.8997 27.6455 12.6084 27.6455C14.4311 27.6455 15.7981 29.0125 15.7981 30.8351C15.7981 32.6578 14.4311 34.0248 12.6084 34.0248C10.7858 34.0248 9.41878 32.5439 9.41878 30.8351Z" fill="#1F2024"/>
<path fill-rule="evenodd" clip-rule="evenodd" d="M8.05188 6.55664C7.22613 6.55664 6.55674 7.22604 6.55674 8.05179V22.1328C3.80655 24.0539 2 27.2422 2 30.8349C2 36.6729 6.77037 41.4433 12.6084 41.4433C16.201 41.4433 19.3893 39.6368 21.3104 36.8867H33.0819C33.9439 39.5403 36.4269 41.4433 39.3786 41.4433C43.0523 41.4433 46 38.4956 46 34.8219C46 32.789 45.0973 30.9784 43.6685 29.7666L42.5809 21.6095C42.5519 20.671 42.1605 19.7689 41.4612 19.0696C40.7341 18.3425 39.7877 17.9482 38.8091 17.9482H32.7399L36.4093 11.6186C36.5182 11.4801 36.6177 11.3761 36.7048 11.3053C36.7804 11.2439 36.821 11.2282 36.8276 11.2258C37.0209 11.1874 37.1475 11.1823 37.2365 11.1912C37.3138 11.1989 37.3848 11.219 37.4704 11.2704L39.4182 12.4161C40.1299 12.8348 41.0463 12.5972 41.4649 11.8855C41.8836 11.1738 41.646 10.2574 40.9343 9.83871L39.0027 8.70246C37.997 8.10165 37.006 8.14067 36.2377 8.29433C35.0963 8.5226 34.3529 9.37509 33.9678 9.88859C33.9325 9.93571 33.9 9.98487 33.8704 10.0358L29.3138 17.896C29.3038 17.9133 29.2941 17.9307 29.2849 17.9482H27.2907L23.11 7.4965C22.8829 6.92886 22.3331 6.55664 21.7218 6.55664H8.05188ZM40.4544 28.2864L39.6054 21.9193C39.5967 21.8538 39.5923 21.7878 39.5923 21.7217C39.5923 21.5611 39.5309 21.3683 39.3467 21.1841C39.1625 20.9999 38.9697 20.9385 38.8091 20.9385H26.2784C25.667 20.9385 25.1173 20.5663 24.8902 19.9986L20.7095 9.54693H9.54702V20.6789C10.5171 20.3847 11.5451 20.2265 12.6084 20.2265C18.4464 20.2265 23.2168 24.9968 23.2168 30.8349C23.2168 31.8983 23.0585 32.9263 22.7644 33.8964H32.8206C33.267 30.6655 36.0193 28.2006 39.3786 28.2006C39.7452 28.2006 40.1045 28.2299 40.4544 28.2864ZM4.99029 30.8349C4.99029 26.6483 8.42186 23.2168 12.6084 23.2168C16.795 23.2168 20.2265 26.6483 20.2265 30.8349C20.2265 35.0214 16.795 38.453 12.6084 38.453C8.42186 38.453 4.99029 35.0214 4.99029 30.8349ZM35.7476 34.8219C35.7476 32.7998 37.3565 31.1909 39.3786 31.1909C41.4008 31.1909 43.0097 32.7998 43.0097 34.8219C43.0097 36.8441 41.4008 38.453 39.3786 38.453C37.3565 38.453 35.7476 36.8441 35.7476 34.8219Z" fill="#1F2024"/>
</svg>
