<svg width="48" height="48" viewBox="0 0 48 48" fill="none" xmlns="http://www.w3.org/2000/svg">
<path d="M12.7432 27.1438C10.7981 27.1438 9.10184 28.8288 9.10184 30.7852C9.10184 32.7416 10.6624 34.4266 12.7432 34.4266C14.824 34.4266 16.3846 32.866 16.3846 30.7852C16.3846 28.7044 14.824 27.1438 12.7432 27.1438Z" fill="#1F2024"/>
<path d="M43.8418 29.6543L42.8241 21.6252C42.8241 20.6074 42.3717 19.7027 41.6932 18.9111C40.9016 18.1195 39.9969 17.7803 38.8661 17.7803H33.2117L36.7174 11.7867C36.8305 11.6736 36.9436 11.5606 37.0567 11.5606C37.1698 11.5606 37.3959 11.5606 37.509 11.6736L39.4315 12.8045C40.2231 13.2568 41.2409 13.0307 41.6932 12.2391C42.1455 11.4475 41.9194 10.4297 41.1278 9.97735L39.2053 8.84649C38.3006 8.28106 37.1698 8.16797 36.152 8.39414C35.1342 8.62031 34.2295 9.29883 33.7772 10.2035L29.2537 17.8934H27.5574L23.3733 7.48945C23.1471 6.81094 22.4686 6.47168 21.7901 6.47168H8.21973C7.31504 6.47168 6.52344 7.26328 6.52344 8.16797V22.0776C3.80938 24 2 27.1664 2 30.7852C2 36.6657 6.8627 41.5284 12.7432 41.5284C16.3619 41.5284 19.5283 39.719 21.4508 37.0049H32.8725C33.7772 39.6059 36.2651 41.5284 39.2053 41.5284C42.9372 41.5284 45.9905 38.475 45.9905 34.7432C46.1036 32.7076 45.1989 30.8983 43.8418 29.6543ZM12.7432 37.559C8.98872 37.559 5.96932 34.5396 5.96932 30.7852C5.96932 27.0307 8.98872 24.0113 12.7432 24.0113C16.4976 24.0113 19.517 27.0307 19.517 30.7852C19.517 34.5396 16.4976 37.559 12.7432 37.559ZM39.3184 38.1358C37.3959 38.1358 35.9258 36.6657 35.9258 34.7432C35.9258 32.8207 37.3959 31.3506 39.3184 31.3506C41.2409 31.3506 42.711 32.8207 42.711 34.7432C42.711 36.6657 41.2409 38.1358 39.3184 38.1358Z" fill="#1F2024"/>
</svg>
