<svg width="48" height="48" viewBox="0 0 48 48" fill="none" xmlns="http://www.w3.org/2000/svg">
<path d="M39.5 9H31.5V6.75C31.5 5.75544 31.1049 4.80161 30.4016 4.09835C29.6984 3.39509 28.7446 3 27.75 3H20.25C19.2554 3 18.3016 3.39509 17.5983 4.09835C16.8951 4.80161 16.5 5.75544 16.5 6.75V9H8.5C8.10218 9 7.72064 9.15804 7.43934 9.43934C7.15804 9.72064 7 10.1022 7 10.5C7 10.8978 7.15804 11.2794 7.43934 11.5607C7.72064 11.842 8.10218 12 8.5 12H9.09375L10.875 38.5863C11.0081 41.1034 12.9375 43 15.375 43H32.625C35.0747 43 36.9656 41.1456 37.125 38.5938L38.9062 12H39.5C39.8978 12 40.2794 11.842 40.5607 11.5607C40.842 11.2794 41 10.8978 41 10.5C41 10.1022 40.842 9.72064 40.5607 9.43934C40.2794 9.15804 39.8978 9 39.5 9ZM19.0534 36H19C18.6113 36.0002 18.2376 35.8496 17.9578 35.5797C17.678 35.3099 17.5138 34.9419 17.5 34.5534L16.75 16.5534C16.7358 16.1556 16.8803 15.7685 17.1516 15.4771C17.4228 15.1858 17.7987 15.0142 18.1966 15C18.5944 14.9858 18.9815 15.1303 19.2729 15.4016C19.5642 15.6728 19.7358 16.0487 19.75 16.4466L20.5 34.4466C20.5071 34.6436 20.4754 34.8401 20.4065 35.0248C20.3377 35.2095 20.2331 35.3789 20.0987 35.5231C19.9644 35.6674 19.8029 35.7838 19.6236 35.8656C19.4442 35.9474 19.2505 35.9931 19.0534 36ZM28.5 9H19.5V6.75C19.4989 6.65119 19.5175 6.55316 19.5548 6.46165C19.5921 6.37015 19.6473 6.28702 19.7171 6.21715C19.787 6.14728 19.8701 6.09208 19.9617 6.05479C20.0532 6.0175 20.1512 5.99887 20.25 6H27.75C27.8488 5.99887 27.9468 6.0175 28.0383 6.05479C28.1299 6.09208 28.213 6.14728 28.2829 6.21715C28.3527 6.28702 28.4079 6.37015 28.4452 6.46165C28.4825 6.55316 28.5011 6.65119 28.5 6.75V9ZM30.5 34.5534C30.4862 34.9419 30.322 35.3099 30.0422 35.5797C29.7624 35.8496 29.3887 36.0002 29 36H28.9456C28.7487 35.993 28.5551 35.9472 28.3758 35.8654C28.1965 35.7835 28.0352 35.6671 27.9009 35.5228C27.7667 35.3786 27.6622 35.2093 27.5934 35.0246C27.5246 34.8399 27.4929 34.6435 27.5 34.4466L28.25 16.4466C28.257 16.2496 28.3028 16.0559 28.3846 15.8766C28.4665 15.6973 28.5829 15.5359 28.7271 15.4016C28.8714 15.2672 29.0407 15.1626 29.2253 15.0937C29.41 15.0248 29.6065 14.993 29.8034 15C30.0004 15.007 30.1941 15.0528 30.3734 15.1346C30.5527 15.2165 30.7141 15.3329 30.8484 15.4771C30.9828 15.6214 31.0874 15.7907 31.1563 15.9753C31.2252 16.16 31.257 16.3565 31.25 16.5534L30.5 34.5534Z" fill="#1F2024"/>
</svg>
