<svg width="48" height="48" viewBox="0 0 48 48" fill="none" xmlns="http://www.w3.org/2000/svg">
<path d="M39.5 8.86H31.8V6.76C31.8 6.18 31.63 5.69 31.51 5.32C31.28 4.65 30.86 4.22 30.59 3.95C30.34 3.7 29.91 3.27 29.23 3.04C28.87 2.92 28.37 2.75 27.79 2.75H20.29C19.75 2.75 19.09 2.9 18.63 3.13C18.32 3.29 17.86 3.58 17.49 3.95C17.23 4.21 16.81 4.63 16.58 5.31C16.46 5.67 16.29 6.17 16.29 6.75V8.85H8.50005C7.56005 8.85 6.80005 9.61 6.80005 10.55C6.80005 11.49 7.56005 12.25 8.50005 12.25H8.91005L10.7 38.65C10.86 41.32 12.83 43.25 15.4 43.25H32.6C35.17 43.25 37.14 41.32 37.3 38.67L39.09 12.25H39.5C40.44 12.25 41.2001 11.49 41.2001 10.55C41.2001 9.61 40.44 8.85 39.5 8.85V8.86ZM19.7 6.78C19.7 6.73 19.75 6.59 19.79 6.48C19.83 6.44 19.87 6.4 19.9 6.36C19.95 6.31 20.09 6.21 20.11 6.2C20.16 6.18 20.26 6.16 20.3 6.16H27.78C27.83 6.16 27.97 6.21 28.08 6.24C28.12 6.28 28.16 6.32 28.2 6.36C28.24 6.4 28.28 6.44 28.32 6.48C28.36 6.6 28.4 6.72 28.4 6.76V8.86H19.7V6.78ZM33.9 38.46C33.86 39.11 33.5 39.86 32.6 39.86H15.4C14.5 39.86 14.13 39.11 14.1 38.44L12.32 12.26H35.68L33.9 38.46Z" fill="#1F2024"/>
<path d="M18.9 15.36C17.96 15.42 17.25 16.22 17.3 17.16L18.3 34.16C18.35 35.06 19.1 35.76 20 35.76C20.03 35.76 20.07 35.76 20.1 35.76C21.04 35.7 21.75 34.9 21.7 33.96L20.7 16.96C20.64 16.02 19.83 15.32 18.9 15.36Z" fill="#1F2024"/>
<path d="M27.3 16.96L26.3 33.96C26.24 34.9 26.96 35.7 27.9 35.76C27.93 35.76 27.97 35.76 28 35.76C28.89 35.76 29.64 35.06 29.7 34.16L30.7 17.16C30.75 16.22 30.04 15.42 29.1 15.36C28.18 15.29 27.36 16.02 27.3 16.96Z" fill="#1F2024"/>
</svg>
