<svg width="48" height="48" viewBox="0 0 48 48" fill="none" xmlns="http://www.w3.org/2000/svg">
<path d="M9.38005 11.75L11.2 38.62C11.34 41.01 13.11 42.75 15.4 42.75H32.6C34.89 42.75 36.66 41.01 36.8 38.63L38.62 11.75H39.5C40.16 11.75 40.7001 11.21 40.7001 10.55C40.7001 9.89 40.16 9.35 39.5 9.35H31.3V6.75C31.3 6.25 31.16 5.82 31.04 5.47C30.85 4.91 30.49 4.55 30.25 4.3C30.01 4.06 29.65 3.71 29.08 3.51C28.73 3.39 28.3 3.25 27.8 3.25H20.3C19.84 3.25 19.25 3.38 18.86 3.58C18.6 3.71 18.17 3.98 17.85 4.3C17.61 4.54 17.25 4.9 17.06 5.47C16.94 5.82 16.8 6.25 16.8 6.75V9.35H8.50005C7.84005 9.35 7.30005 9.89 7.30005 10.55C7.30005 11.21 7.84005 11.75 8.50005 11.75H9.38005ZM34.4 38.48C34.35 39.41 33.77 40.35 32.6 40.35H15.4C14.23 40.35 13.65 39.41 13.6 38.47L11.79 11.75H36.22L34.41 38.48H34.4ZM19.2 6.75C19.2 6.64 19.28 6.41 19.34 6.23C19.36 6.19 19.47 6.07 19.55 6C19.64 5.91 19.83 5.78 19.93 5.73C20.01 5.7 20.21 5.65 20.3 5.65H27.8C27.91 5.65 28.14 5.73 28.32 5.79C28.36 5.81 28.48 5.92 28.56 6C28.64 6.08 28.75 6.19 28.77 6.23C28.83 6.42 28.91 6.65 28.91 6.75V9.35H19.2V6.75Z" fill="#1F2024"/>
<path d="M18.93 15.85C18.27 15.89 17.76 16.46 17.8 17.12L18.8 34.12C18.84 34.76 19.37 35.25 20 35.25C20.02 35.25 20.05 35.25 20.07 35.25C20.73 35.21 21.24 34.64 21.2 33.98L20.2 16.98C20.16 16.32 19.61 15.83 18.93 15.85Z" fill="#1F2024"/>
<path d="M29.07 15.85C28.43 15.83 27.84 16.32 27.8 16.98L26.8 33.98C26.76 34.64 27.27 35.21 27.93 35.25C27.95 35.25 27.98 35.25 28 35.25C28.63 35.25 29.16 34.76 29.2 34.12L30.2 17.12C30.24 16.46 29.73 15.89 29.07 15.85Z" fill="#1F2024"/>
</svg>
