<svg width="48" height="48" viewBox="0 0 48 48" fill="none" xmlns="http://www.w3.org/2000/svg">
<path d="M39.5 9H31.5V6.75C31.5 6.25 31.41 5.77 31.22 5.31C31.03 4.85 30.76 4.44 30.41 4.09C30.06 3.74 29.65 3.47 29.19 3.28C28.73 3.09 28.25 3 27.77 3H20.25C19.76 3 19.28 3.1 18.82 3.28C18.36 3.47 17.95 3.74 17.6 4.09C17.25 4.44 16.98 4.85 16.79 5.31C16.6 5.77 16.5 6.25 16.51 6.75V9H8.5C7.67 9 7 9.67 7 10.5C7 11.33 7.67 12 8.5 12H9.1L10.88 38.58C11.01 41.1 12.94 43 15.38 43H32.62C35.07 43 36.96 41.15 37.12 38.6L38.9 12H39.5C40.33 12 41 11.33 41 10.5C41 9.67 40.33 9 39.5 9ZM19.5 6.75C19.5 6.65 19.52 6.56 19.56 6.46C19.6 6.37 19.65 6.29 19.72 6.22C19.79 6.15 19.87 6.1 19.96 6.06C20.05 6.02 20.17 6.02 20.25 6H27.75C27.86 6 27.94 6.02 28.04 6.06C28.13 6.1 28.21 6.15 28.28 6.22C28.35 6.29 28.4 6.37 28.44 6.47C28.48 6.56 28.5 6.65 28.5 6.76V9.01H19.5V6.75ZM34.13 38.41C34.07 39.36 33.47 40 32.63 40H15.38C14.53 40 13.93 39.37 13.88 38.4L12.11 12H35.9L34.13 38.41Z" fill="#1F2024"/>
<path d="M18.9101 15.5C18.0801 15.55 17.4501 16.26 17.5001 17.09L18.5001 34.09C18.5501 34.89 19.2101 35.5 20.0001 35.5C20.0301 35.5 20.0601 35.5 20.0901 35.5C20.9201 35.45 21.5501 34.74 21.5001 33.91L20.5001 16.91C20.4501 16.08 19.7601 15.46 18.9201 15.5H18.9101Z" fill="#1F2024"/>
<path d="M27.5001 16.91L26.5001 33.91C26.4501 34.74 27.0801 35.45 27.9101 35.5C27.9401 35.5 27.9701 35.5 28.0001 35.5C28.7901 35.5 29.4501 34.89 29.5001 34.09L30.5001 17.09C30.5501 16.26 29.9201 15.55 29.0901 15.5C28.2401 15.46 27.5501 16.08 27.5101 16.91H27.5001Z" fill="#1F2024"/>
</svg>
