<svg width="48" height="48" viewBox="0 0 48 48" fill="none" xmlns="http://www.w3.org/2000/svg">
<path d="M39.4998 8.86H31.7998V6.76C31.7998 6.18 31.6298 5.69 31.5098 5.32C31.2798 4.65 30.8598 4.22 30.5898 3.95C30.3398 3.7 29.9098 3.27 29.2298 3.04C28.8698 2.92 28.3698 2.75 27.7898 2.75H20.2898C19.7498 2.75 19.0898 2.9 18.6298 3.13C18.3198 3.29 17.8598 3.58 17.4898 3.95C17.2298 4.21 16.8098 4.63 16.5798 5.31C16.4598 5.67 16.2898 6.17 16.2898 6.75V8.85H8.4998C7.5598 8.85 6.7998 9.61 6.7998 10.55C6.7998 11.49 7.5598 12.25 8.4998 12.25H8.9098L10.6998 38.65C10.8598 41.32 12.8298 43.25 15.3998 43.25H32.5998C35.1698 43.25 37.1398 41.32 37.2998 38.67L39.0898 12.25H39.4998C40.4398 12.25 41.1998 11.49 41.1998 10.55C41.1998 9.61 40.4398 8.85 39.4998 8.85V8.86ZM19.6998 6.78C19.6998 6.73 19.7498 6.59 19.7898 6.48C19.8298 6.44 19.8698 6.4 19.8998 6.36C19.9498 6.31 20.0898 6.21 20.1098 6.2C20.1598 6.18 20.2598 6.16 20.2998 6.16H27.7798C27.8298 6.16 27.9698 6.21 28.0798 6.24C28.1198 6.28 28.1598 6.32 28.1998 6.36C28.2398 6.4 28.2798 6.44 28.3198 6.48C28.3598 6.6 28.3998 6.72 28.3998 6.76V8.86H19.6998V6.78ZM33.8998 38.46C33.8598 39.11 33.4998 39.86 32.5998 39.86H15.3998C14.4998 39.86 14.1298 39.11 14.0998 38.44L12.3198 12.26H35.6798L33.8998 38.46Z" fill="#1F2024"/>
<path d="M18.8998 15.36C17.9598 15.42 17.2498 16.22 17.2998 17.16L18.2998 34.16C18.3498 35.06 19.0998 35.76 19.9998 35.76C20.0298 35.76 20.0698 35.76 20.0998 35.76C21.0398 35.7 21.7498 34.9 21.6998 33.96L20.6998 16.96C20.6398 16.02 19.8298 15.32 18.8998 15.36Z" fill="#1F2024"/>
<path d="M27.2998 16.96L26.2998 33.96C26.2398 34.9 26.9598 35.7 27.8998 35.76C27.9298 35.76 27.9698 35.76 27.9998 35.76C28.8898 35.76 29.6398 35.06 29.6998 34.16L30.6998 17.16C30.7498 16.22 30.0398 15.42 29.0998 15.36C28.1798 15.29 27.3598 16.02 27.2998 16.96Z" fill="#1F2024"/>
</svg>
