<svg width="48" height="48" viewBox="0 0 48 48" fill="none" xmlns="http://www.w3.org/2000/svg">
<path d="M9.3798 11.75L11.1998 38.62C11.3398 41.01 13.1098 42.75 15.3998 42.75H32.5998C34.8898 42.75 36.6598 41.01 36.7998 38.63L38.6198 11.75H39.4998C40.1598 11.75 40.6998 11.21 40.6998 10.55C40.6998 9.89 40.1598 9.35 39.4998 9.35H31.2998V6.75C31.2998 6.25 31.1598 5.82 31.0398 5.47C30.8498 4.91 30.4898 4.55 30.2498 4.3C30.0098 4.06 29.6498 3.71 29.0798 3.51C28.7298 3.39 28.2998 3.25 27.7998 3.25H20.2998C19.8398 3.25 19.2498 3.38 18.8598 3.58C18.5998 3.71 18.1698 3.98 17.8498 4.3C17.6098 4.54 17.2498 4.9 17.0598 5.47C16.9398 5.82 16.7998 6.25 16.7998 6.75V9.35H8.4998C7.8398 9.35 7.2998 9.89 7.2998 10.55C7.2998 11.21 7.8398 11.75 8.4998 11.75H9.3798ZM34.3998 38.48C34.3498 39.41 33.7698 40.35 32.5998 40.35H15.3998C14.2298 40.35 13.6498 39.41 13.5998 38.47L11.7898 11.75H36.2198L34.4098 38.48H34.3998ZM19.1998 6.75C19.1998 6.64 19.2798 6.41 19.3398 6.23C19.3598 6.19 19.4698 6.07 19.5498 6C19.6398 5.91 19.8298 5.78 19.9298 5.73C20.0098 5.7 20.2098 5.65 20.2998 5.65H27.7998C27.9098 5.65 28.1398 5.73 28.3198 5.79C28.3598 5.81 28.4798 5.92 28.5598 6C28.6398 6.08 28.7498 6.19 28.7698 6.23C28.8298 6.42 28.9098 6.65 28.9098 6.75V9.35H19.1998V6.75Z" fill="#1F2024"/>
<path d="M18.9298 15.85C18.2698 15.89 17.7598 16.46 17.7998 17.12L18.7998 34.12C18.8398 34.76 19.3698 35.25 19.9998 35.25C20.0198 35.25 20.0498 35.25 20.0698 35.25C20.7298 35.21 21.2398 34.64 21.1998 33.98L20.1998 16.98C20.1598 16.32 19.6098 15.83 18.9298 15.85Z" fill="#1F2024"/>
<path d="M29.0698 15.85C28.4298 15.83 27.8398 16.32 27.7998 16.98L26.7998 33.98C26.7598 34.64 27.2698 35.21 27.9298 35.25C27.9498 35.25 27.9798 35.25 27.9998 35.25C28.6298 35.25 29.1598 34.76 29.1998 34.12L30.1998 17.12C30.2398 16.46 29.7298 15.89 29.0698 15.85Z" fill="#1F2024"/>
</svg>
