<svg width="48" height="48" viewBox="0 0 48 48" fill="none" xmlns="http://www.w3.org/2000/svg">
<path d="M24.0004 40.4401C23.5204 40.4401 12.0804 40.4301 8.56035 39.5001C7.52035 39.2701 6.50035 38.6901 5.59035 37.7901C4.71035 37.0201 4.06035 35.9001 3.79035 34.7001C2.87035 31.3201 2.86035 24.3001 2.86035 24.0001C2.86035 23.7001 2.87035 16.7901 3.80035 13.2601C4.03035 12.2201 4.61035 11.2001 5.51035 10.2901C6.28035 9.41006 7.40035 8.76006 8.60035 8.49006C12.0804 7.57006 23.5104 7.56006 24.0004 7.56006C24.4904 7.56006 35.9204 7.57006 39.4404 8.50006C40.4804 8.73006 41.5004 9.31006 42.4104 10.2101C43.2804 10.9701 43.9304 12.0801 44.2004 13.2701C45.1304 16.8101 45.1404 23.6901 45.1404 23.9901C45.1404 24.2901 45.1304 31.2001 44.2004 34.7301C43.9704 35.7701 43.3904 36.7901 42.4904 37.7001C41.7204 38.5801 40.6004 39.2301 39.4004 39.5001C35.9204 40.4201 24.4904 40.4301 24.0104 40.4301L24.0004 40.4401ZM24.0004 10.2401C20.7904 10.2401 11.8904 10.3901 9.24035 11.1001C8.53035 11.2601 7.91035 11.6201 7.51035 12.0801L7.44035 12.1601C6.88035 12.7201 6.53035 13.3001 6.40035 13.9001C5.54035 17.1401 5.53035 23.9401 5.53035 24.0101C5.53035 24.0801 5.54035 30.9701 6.38035 34.0601C6.54035 34.7801 6.90035 35.4001 7.36035 35.8001L7.44035 35.8701C8.00035 36.4301 8.58035 36.7801 9.18035 36.9101C11.8804 37.6201 20.7804 37.7801 23.9904 37.7801C27.2004 37.7801 36.1004 37.6301 38.7504 36.9201C39.4604 36.7601 40.0804 36.4001 40.4804 35.9401L40.5504 35.8601C41.1104 35.3001 41.4604 34.7201 41.5904 34.1201C42.4504 30.8801 42.4604 24.0801 42.4604 24.0101C42.4604 23.9401 42.4504 17.1401 41.6004 13.9501V13.9001C41.4404 13.2501 41.0803 12.6201 40.6203 12.2301L40.5404 12.1601C39.9804 11.6001 39.4004 11.2501 38.8004 11.1201C36.1004 10.4101 27.2004 10.2501 23.9904 10.2501L24.0004 10.2401Z" fill="#1F2024"/>
<path d="M20.1204 17.5002C20.2204 17.4402 20.3204 17.4102 20.4304 17.4102H20.4404C20.5204 17.4102 20.6004 17.4202 20.6704 17.4602L31.6704 23.6602C31.8304 23.7402 31.9304 23.9102 31.9304 24.0902C31.9304 24.2702 31.8304 24.4402 31.6704 24.5202L20.6704 30.7202C20.4804 30.8202 20.2604 30.8202 20.1004 30.7202C19.9604 30.6402 19.8804 30.4902 19.8804 30.3002V17.9002C19.8804 17.7402 19.9704 17.5902 20.1204 17.5002Z" fill="#1F2024"/>
</svg>
