<svg width="48" height="48" viewBox="0 0 48 48" fill="none" xmlns="http://www.w3.org/2000/svg">
<path d="M24.0049 40.845C22.7849 40.845 11.9949 40.815 8.51492 39.875C7.32492 39.555 6.22492 38.915 5.35492 38.045C4.47492 37.165 3.84492 36.075 3.52492 34.885C2.55492 31.315 2.54492 24.305 2.54492 24.005C2.54492 23.705 2.55492 16.705 3.45492 13.175C3.78492 11.955 4.41492 10.865 5.29492 9.98503C6.16492 9.11503 7.26492 8.47503 8.45492 8.15503C11.9349 7.18503 22.7549 7.15503 23.9749 7.15503C25.1949 7.15503 35.9749 7.18503 39.4449 8.09503C40.6449 8.42503 41.7449 9.05503 42.6149 9.92503C43.4949 10.805 44.1249 11.895 44.4449 13.095C45.4149 16.665 45.4549 23.695 45.4549 23.995C45.4549 24.305 45.4449 31.335 44.4749 34.885C44.1549 36.075 43.5149 37.165 42.6449 38.045C41.7649 38.925 40.6749 39.555 39.4849 39.875C36.0049 40.815 25.2149 40.845 24.0049 40.845ZM23.9749 10.425C20.7749 10.425 11.9149 10.585 9.33492 11.305C8.67492 11.485 8.09492 11.825 7.62492 12.295C7.15492 12.765 6.81492 13.355 6.63492 14.005C5.84492 17.125 5.82492 23.935 5.82492 24.005C5.82492 24.075 5.83492 30.875 6.68492 34.025C6.85492 34.665 7.20492 35.255 7.67492 35.735C8.14492 36.205 8.73492 36.545 9.37492 36.725C11.9649 37.425 20.8149 37.585 24.0049 37.585C27.1949 37.585 36.0449 37.435 38.6349 36.725C39.2749 36.555 39.8649 36.205 40.3349 35.735C40.8049 35.265 41.1449 34.675 41.3249 34.035C42.1749 30.905 42.1949 24.085 42.1949 24.015C42.1949 23.955 42.1549 17.115 41.2949 13.965C41.1149 13.325 40.7749 12.735 40.3049 12.265C39.8349 11.795 39.2449 11.455 38.6049 11.275C36.0149 10.595 27.1649 10.445 23.9749 10.445V10.425Z" fill="#1F2024"/>
<path d="M20.685 17.2251C20.245 16.9751 19.705 17.2951 19.705 17.7951V30.2151C19.705 30.7151 20.245 31.0351 20.685 30.7851L31.725 24.5951C32.175 24.3451 32.175 23.7051 31.725 23.4551L20.675 17.2251H20.685Z" fill="#1F2024"/>
</svg>
