<svg width="48" height="48" viewBox="0 0 48 48" fill="none" xmlns="http://www.w3.org/2000/svg">
<path d="M23.9999 40.99C22.7799 40.99 11.9599 40.96 8.42986 40.03C7.31986 39.78 6.22986 39.16 5.24986 38.2C4.29986 37.37 3.58986 36.15 3.30986 34.85C2.36986 31.23 2.35986 24.25 2.35986 23.95C2.35986 23.65 2.36986 16.67 3.31986 13.08C3.56986 11.97 4.18986 10.88 5.14986 9.90001C5.98986 8.95001 7.19986 8.25001 8.49986 7.96001C11.9599 7.04001 22.7799 7.01001 23.9999 7.01001C25.2199 7.01001 36.0399 7.04001 39.5699 7.97001C40.6799 8.21001 41.7699 8.84001 42.7499 9.80001C43.6899 10.63 44.3899 11.83 44.6799 13.11C45.6199 16.71 45.6299 23.65 45.6299 23.95C45.6299 24.25 45.6199 31.33 44.6699 34.92C44.4199 36.03 43.7999 37.12 42.8399 38.1C41.9999 39.05 40.7899 39.76 39.4899 40.04C36.0299 40.96 25.2099 40.98 23.9899 40.98L23.9999 40.99ZM23.9999 10.69C20.8099 10.69 11.9699 10.84 9.36986 11.53C8.74986 11.67 8.21986 11.98 7.89986 12.35L7.79986 12.45C7.30986 12.94 7.00986 13.44 6.89986 13.95C6.04986 17.15 6.03986 23.88 6.03986 23.95C6.03986 24.02 6.04986 30.76 6.87986 33.99C7.00986 34.59 7.31986 35.13 7.68986 35.45L7.78986 35.55C8.27986 36.04 8.77986 36.34 9.28986 36.46C11.9599 37.16 20.7999 37.32 23.9899 37.32C27.1799 37.32 36.0199 37.17 38.6199 36.48C39.2399 36.34 39.7699 36.03 40.0899 35.66L40.1899 35.56C40.6799 35.07 40.9799 34.57 41.0899 34.06C41.7999 31.39 41.9499 25.87 41.9499 23.96C41.9499 23.89 41.9399 17.16 41.1099 14.03L41.0899 13.96C40.9699 13.42 40.6599 12.88 40.2899 12.56L40.1899 12.46C39.6999 11.97 39.1999 11.67 38.6899 11.56C36.0199 10.85 27.1799 10.7 23.9899 10.7L23.9999 10.69Z" fill="#1F2024"/>
<path d="M19.9499 30.83C20.0799 30.92 20.2199 30.96 20.3799 30.96L20.3899 30.95C20.4999 30.95 20.6199 30.92 20.7299 30.88L31.7299 24.68C31.9299 24.58 32.0599 24.35 32.0599 24.09C32.0599 23.83 31.9299 23.6 31.7299 23.5L20.7299 17.2C20.5099 17.1 20.2299 17.12 19.9999 17.26C19.7799 17.4 19.6499 17.61 19.6499 17.85V30.25C19.6499 30.49 19.7599 30.7 19.9499 30.83Z" fill="#1F2024"/>
</svg>
