<svg width="48" height="48" viewBox="0 0 48 48" fill="none" xmlns="http://www.w3.org/2000/svg">
<path d="M45.07 12.96C44.74 11.76 44.11 10.66 43.23 9.79001C42.35 8.92001 41.26 8.28001 40.04 7.95001C36.55 7.03001 25.73 7.01001 24.5 7.01001C23.27 7.01001 12.42 7.03001 8.93 8.00001C7.73 8.32001 6.63 8.96001 5.76 9.84001C4.89 10.72 4.25 11.82 3.92 13.04C3.01 16.59 3 23.62 3 23.91C3 24.2 3.01 31.25 3.98 34.83C4.3 36.03 4.94 37.13 5.82 38C6.7 38.88 7.8 39.51 8.99 39.84C12.48 40.79 23.32 40.82 24.54 40.82C25.76 40.82 36.6 40.79 40.09 39.85C41.29 39.53 42.38 38.89 43.26 38.01C44.14 37.13 44.77 36.03 45.1 34.84C46.07 31.28 46.08 24.22 46.08 23.91C46.08 23.61 46.03 16.55 45.06 12.96H45.07ZM31.68 24.45L20.95 30.65C20.51 30.9 19.97 30.59 19.97 30.08V17.69C19.97 17.19 20.52 16.87 20.95 17.12L31.68 23.32C32.12 23.57 32.12 24.2 31.68 24.45Z" fill="#1F2024"/>
</svg>
