<svg width="48" height="48" viewBox="0 0 48 48" fill="none" xmlns="http://www.w3.org/2000/svg">
<path d="M24.0001 40.4401C23.5201 40.4401 12.0801 40.4301 8.56011 39.5001C7.52011 39.2701 6.50011 38.6901 5.59011 37.7901C4.71011 37.0201 4.06011 35.9001 3.79011 34.7001C2.87011 31.3201 2.86011 24.3001 2.86011 24.0001C2.86011 23.7001 2.87011 16.7901 3.80011 13.2601C4.03011 12.2201 4.61011 11.2001 5.51011 10.2901C6.28011 9.41006 7.40011 8.76006 8.60011 8.49006C12.0801 7.57006 23.5101 7.56006 24.0001 7.56006C24.4901 7.56006 35.9201 7.57006 39.4401 8.50006C40.4801 8.73006 41.5001 9.31006 42.4101 10.2101C43.2801 10.9701 43.9301 12.0801 44.2001 13.2701C45.1301 16.8101 45.1401 23.6901 45.1401 23.9901C45.1401 24.2901 45.1301 31.2001 44.2001 34.7301C43.9701 35.7701 43.3901 36.7901 42.4901 37.7001C41.7201 38.5801 40.6001 39.2301 39.4001 39.5001C35.9201 40.4201 24.4901 40.4301 24.0101 40.4301L24.0001 40.4401ZM24.0001 10.2401C20.7901 10.2401 11.8901 10.3901 9.24011 11.1001C8.53011 11.2601 7.91011 11.6201 7.51011 12.0801L7.44011 12.1601C6.88011 12.7201 6.53011 13.3001 6.40011 13.9001C5.54011 17.1401 5.53011 23.9401 5.53011 24.0101C5.53011 24.0801 5.54011 30.9701 6.38011 34.0601C6.54011 34.7801 6.90011 35.4001 7.36011 35.8001L7.44011 35.8701C8.00011 36.4301 8.58011 36.7801 9.18011 36.9101C11.8801 37.6201 20.7801 37.7801 23.9901 37.7801C27.2001 37.7801 36.1001 37.6301 38.7501 36.9201C39.4601 36.7601 40.0801 36.4001 40.4801 35.9401L40.5501 35.8601C41.1101 35.3001 41.4601 34.7201 41.5901 34.1201C42.4501 30.8801 42.4601 24.0801 42.4601 24.0101C42.4601 23.9401 42.4501 17.1401 41.6001 13.9501V13.9001C41.4401 13.2501 41.0801 12.6201 40.6201 12.2301L40.5401 12.1601C39.9801 11.6001 39.4001 11.2501 38.8001 11.1201C36.1001 10.4101 27.2001 10.2501 23.9901 10.2501L24.0001 10.2401Z" fill="#1F2024"/>
<path d="M20.1201 17.5002C20.2201 17.4402 20.3201 17.4102 20.4301 17.4102H20.4401C20.5201 17.4102 20.6001 17.4202 20.6701 17.4602L31.6701 23.6602C31.8301 23.7402 31.9301 23.9102 31.9301 24.0902C31.9301 24.2702 31.8301 24.4402 31.6701 24.5202L20.6701 30.7202C20.4801 30.8202 20.2601 30.8202 20.1001 30.7202C19.9601 30.6402 19.8801 30.4902 19.8801 30.3002V17.9002C19.8801 17.7402 19.9701 17.5902 20.1201 17.5002Z" fill="#1F2024"/>
</svg>
