<svg width="48" height="48" viewBox="0 0 48 48" fill="none" xmlns="http://www.w3.org/2000/svg">
<path d="M23.9998 3.2998C12.5898 3.2998 3.2998 12.5898 3.2998 23.9998C3.2998 35.4098 12.5898 44.6998 23.9998 44.6998C35.4098 44.6998 44.6998 35.4098 44.6998 23.9998C44.6998 12.5898 35.4098 3.2998 23.9998 3.2998ZM41.2098 22.2998H35.6498C35.5098 19.2298 35.0198 16.3698 34.2298 13.8498C35.0698 13.3698 35.8898 12.8498 36.6598 12.2598C39.1598 14.9598 40.8298 18.4398 41.2098 22.3098V22.2998ZM23.9998 41.2998C21.5098 41.2998 19.4098 38.9298 17.9398 35.5298C19.8398 34.8598 21.8798 34.4998 23.9998 34.4998C26.1198 34.4998 28.1598 34.8598 30.0598 35.5298C28.5898 38.9298 26.4898 41.2998 23.9998 41.2998ZM33.1698 36.9898C33.5898 37.2398 33.9998 37.5198 34.3898 37.7998C33.6098 38.3898 32.7698 38.9198 31.8898 39.3798C32.3498 38.6398 32.7798 37.8498 33.1698 36.9898ZM16.1098 39.3798C15.2298 38.9298 14.3998 38.3998 13.6098 37.7998C14.0098 37.5098 14.4098 37.2398 14.8298 36.9898C15.2198 37.8498 15.6498 38.6398 16.1098 39.3798ZM23.9998 31.4998C21.5398 31.4998 19.1598 31.9298 16.9398 32.7098C16.2998 30.5198 15.8898 28.0998 15.7498 25.6998H32.2498C32.1198 28.0998 31.6998 30.5198 31.0598 32.7098C28.8398 31.9298 26.4598 31.4998 23.9998 31.4998V31.4998ZM15.7498 22.2998C15.8798 19.8998 16.2998 17.4798 16.9398 15.2898C19.1598 16.0698 21.5398 16.4998 23.9998 16.4998C26.4598 16.4998 28.8398 16.0698 31.0598 15.2898C31.6998 17.4798 32.1098 19.8998 32.2498 22.2998H15.7498ZM23.9998 6.6998C26.4898 6.6998 28.5898 9.0698 30.0598 12.4698C28.1598 13.1398 26.1198 13.4998 23.9998 13.4998C21.8798 13.4998 19.8398 13.1398 17.9398 12.4698C19.4098 9.0698 21.5098 6.6998 23.9998 6.6998V6.6998ZM14.8298 11.0098C14.4098 10.7598 13.9998 10.4798 13.6098 10.1998C14.3898 9.6098 15.2298 9.0798 16.1098 8.6198C15.6498 9.3598 15.2198 10.1498 14.8298 11.0098V11.0098ZM31.8898 8.6198C32.7698 9.0698 33.5998 9.5998 34.3898 10.1998C33.9898 10.4898 33.5898 10.7598 33.1698 11.0098C32.7798 10.1498 32.3498 9.3598 31.8898 8.6198ZM11.3398 12.2498C12.1098 12.8498 12.9198 13.3698 13.7698 13.8398C12.9798 16.3598 12.4898 19.2198 12.3498 22.2898H6.7898C7.1698 18.4298 8.8398 14.9398 11.3398 12.2398V12.2498ZM6.7898 25.6998H12.3498C12.4898 28.7698 12.9798 31.6298 13.7698 34.1498C12.9298 34.6298 12.1098 35.1498 11.3398 35.7398C8.8398 33.0398 7.1698 29.5598 6.7898 25.6898V25.6998ZM36.6698 35.7498C35.8998 35.1498 35.0898 34.6298 34.2398 34.1598C35.0298 31.6398 35.5198 28.7798 35.6598 25.7098H41.2198C40.8398 29.5698 39.1698 33.0598 36.6698 35.7598V35.7498Z" fill="#1F2024"/>
</svg>
