<svg width="48" height="48" viewBox="0 0 48 48" fill="none" xmlns="http://www.w3.org/2000/svg">
<path d="M44.5 24C44.5 12.7 35.3 3.5 24 3.5C12.7 3.5 3.5 12.7 3.5 24C3.5 29.85 5.97 35.12 9.92 38.86C9.95 38.89 9.95 38.93 9.98 38.96C10.04 39.03 10.13 39.06 10.2 39.12C13.85 42.45 18.68 44.5 24 44.5C29.32 44.5 34.16 42.44 37.81 39.11C37.88 39.06 37.96 39.03 38.02 38.96C38.05 38.93 38.06 38.89 38.08 38.86C42.02 35.12 44.5 29.85 44.5 24V24ZM36.75 35.95C35.9 35.27 34.98 34.68 34.03 34.15C34.85 31.52 35.36 28.52 35.46 25.3H41.43C41.13 29.41 39.4 33.12 36.74 35.95H36.75ZM17.66 35.52C19.64 34.79 21.78 34.4 24 34.4C26.22 34.4 28.36 34.79 30.34 35.52C28.68 39.29 26.3 41.5 24 41.5C21.7 41.5 19.32 39.3 17.66 35.52V35.52ZM16.63 39.85C15.46 39.3 14.37 38.64 13.36 37.86C13.87 37.47 14.41 37.13 14.97 36.8C15.46 37.92 16.02 38.94 16.63 39.85V39.85ZM24 6.5C26.32 6.5 28.72 8.74 30.38 12.57C28.39 13.31 26.23 13.7 24 13.7C21.77 13.7 19.61 13.31 17.62 12.57C19.28 8.74 21.69 6.5 24 6.5ZM14.93 11.29C14.36 10.96 13.8 10.6 13.27 10.2C14.3 9.39 15.43 8.71 16.63 8.15C16 9.08 15.43 10.14 14.93 11.29ZM31.37 8.15C32.57 8.71 33.7 9.4 34.73 10.2C34.2 10.6 33.65 10.95 33.07 11.29C32.57 10.14 32 9.08 31.37 8.15V8.15ZM24 16.3C26.54 16.3 28.99 15.85 31.26 15.01C31.93 17.23 32.36 19.82 32.46 22.7H15.53C15.63 19.82 16.07 17.23 16.73 15.01C19 15.85 21.46 16.3 23.99 16.3H24ZM32.47 25.3C32.37 28.13 31.95 30.69 31.3 32.89C29.02 32.05 26.55 31.6 24.01 31.6C21.47 31.6 19 32.05 16.72 32.89C16.07 30.69 15.65 28.13 15.55 25.3H32.48H32.47ZM33.04 36.8C33.6 37.12 34.14 37.47 34.65 37.86C33.64 38.64 32.54 39.31 31.38 39.85C32 38.94 32.55 37.92 33.04 36.8V36.8ZM41.44 22.7H35.47C35.36 19.44 34.85 16.4 34 13.75C34.94 13.23 35.84 12.64 36.68 11.97C39.38 14.81 41.13 18.55 41.43 22.69L41.44 22.7ZM11.32 11.98C12.16 12.65 13.06 13.24 14 13.76C13.16 16.41 12.64 19.44 12.53 22.71H6.57C6.88 18.57 8.63 14.83 11.32 11.99V11.98ZM6.57 25.3H12.54C12.65 28.52 13.15 31.52 13.97 34.15C13.02 34.68 12.1 35.27 11.25 35.95C8.59 33.12 6.87 29.41 6.56 25.3H6.57Z" fill="#1F2024"/>
</svg>
