<svg width="48" height="48" viewBox="0 0 48 48" fill="none" xmlns="http://www.w3.org/2000/svg">
<path d="M9.9502 38.9501C10.0502 39.0501 10.1502 39.0501 10.1502 39.1501C10.1502 38.9501 10.0502 38.8501 9.9502 38.9501C9.9502 38.8835 9.9502 38.8835 9.9502 38.9501Z" fill="#1F2024"/>
<path d="M38.0501 38.9501C38.0501 38.8835 38.0501 38.8835 38.0501 38.9501C38.0501 38.9501 37.9501 39.0501 37.8501 39.0501C37.8501 38.9501 37.9501 38.9501 38.0501 38.9501Z" fill="#1F2024"/>
<path d="M35.4498 22.6502H43.2498C42.9498 18.0502 41.0498 13.8502 38.0498 10.7502L37.9498 10.8502C37.5498 11.2502 37.1498 11.5502 36.7498 11.8502C35.9498 12.5502 35.0498 13.1502 34.0498 13.6502C34.8498 16.3502 35.3498 19.3502 35.4498 22.6502Z" fill="#1F2024"/>
<path d="M24.0499 13.0502C26.2499 13.0502 28.4499 12.6502 30.4499 11.8502C28.8499 7.9502 26.5499 5.4502 24.0499 5.4502C21.5499 5.4502 19.2499 7.9502 17.6499 11.8502C19.6499 12.6502 21.7499 13.0502 24.0499 13.0502Z" fill="#1F2024"/>
<path d="M16.7498 33.3502C19.0498 32.4502 21.4498 31.9502 24.0498 31.9502C26.6498 31.9502 29.0498 32.4502 31.3498 33.3502C32.0498 30.9502 32.4498 28.2502 32.5498 25.2502H15.5498C15.6498 28.2502 16.0498 30.9502 16.7498 33.3502Z" fill="#1F2024"/>
<path d="M12.55 25.2502H4.75C5.05 29.8502 6.95 33.9502 9.85 37.0502L9.95 36.9502C10.35 36.5502 10.75 36.2502 11.15 35.9502C12.05 35.2502 12.95 34.6502 13.85 34.1502C13.15 31.4502 12.65 28.4502 12.55 25.2502Z" fill="#1F2024"/>
<path d="M33.0502 36.7502C32.5502 37.8502 32.0502 38.8502 31.3502 39.7502C30.6502 40.8502 29.7502 41.7502 28.9502 42.4502C31.5502 41.7502 33.9502 40.5502 36.0502 38.8502C35.6502 38.4502 35.1502 38.0502 34.6502 37.7502C34.1502 37.4502 33.5502 37.0502 33.0502 36.7502Z" fill="#1F2024"/>
<path d="M31.2499 14.4502C28.9499 15.3502 26.5499 15.8502 24.0499 15.8502C21.5499 15.8502 19.0499 15.3502 16.8499 14.4502C16.1499 16.8502 15.7499 19.6502 15.6499 22.6502H32.5499C32.3499 19.6502 31.9499 16.8502 31.2499 14.4502Z" fill="#1F2024"/>
<path d="M24.05 34.9502C21.85 34.9502 19.75 35.3502 17.75 36.1502C19.35 40.0502 21.55 42.4502 24.05 42.4502C26.55 42.4502 28.85 39.9502 30.35 36.1502C28.35 35.3502 26.25 34.9502 24.05 34.9502Z" fill="#1F2024"/>
<path d="M35.4498 25.2502C35.3498 28.4502 34.8498 31.4502 34.0498 34.1502C35.0498 34.6502 35.9498 35.2502 36.7498 35.9502C37.1498 36.2502 37.5498 36.6502 37.9498 36.9502L38.0498 37.0502C40.9498 33.9502 42.8498 29.7502 43.1498 25.2502H35.4498Z" fill="#1F2024"/>
<path d="M16.6502 39.7502C16.0502 38.8502 15.4502 37.8502 14.9502 36.7502C14.3502 37.0502 13.8502 37.4502 13.3502 37.8502C12.8502 38.2502 12.4502 38.5502 11.9502 38.9502C14.0502 40.5502 16.4502 41.8502 19.0502 42.5502C18.1502 41.7502 17.3502 40.8502 16.6502 39.7502Z" fill="#1F2024"/>
<path d="M31.3502 8.1502C31.9502 9.0502 32.5502 10.1502 33.0502 11.2502C33.6502 10.9502 34.1502 10.5502 34.7502 10.1502C35.2502 9.7502 35.6502 9.4502 36.1502 9.0502C34.0502 7.3502 31.6502 6.1502 28.9502 5.4502C29.8502 6.1502 30.6502 7.0502 31.3502 8.1502Z" fill="#1F2024"/>
<path d="M12.5501 22.6502C12.6501 19.3502 13.1501 16.3502 14.0501 13.6502C13.1501 13.1502 12.2501 12.5502 11.3501 11.8502C10.9501 11.5502 10.5501 11.1502 10.1501 10.8502L10.0501 10.7502C7.0501 13.9502 5.1501 18.0502 4.8501 22.6502H12.5501Z" fill="#1F2024"/>
<path d="M14.9501 11.2502C15.4501 10.1502 16.0501 9.0502 16.6501 8.1502C17.3501 7.0502 18.2501 6.1502 19.0501 5.4502C16.3501 6.1502 13.9501 7.3502 11.8501 9.0502C12.2501 9.4502 12.7501 9.85019 13.2501 10.1502C13.8501 10.5502 14.3501 10.9502 14.9501 11.2502Z" fill="#1F2024"/>
</svg>
