<svg width="48" height="48" viewBox="0 0 48 48" fill="none" xmlns="http://www.w3.org/2000/svg">
<path d="M24 3.79999C12.86 3.79999 3.80005 12.86 3.80005 24C3.80005 35.14 12.86 44.2 24 44.2C35.14 44.2 44.2001 35.14 44.2001 24C44.2001 12.86 35.14 3.79999 24 3.79999ZM41.74 22.8H35.17C35.06 19.43 34.52 16.31 33.64 13.61C34.73 13.03 35.75 12.34 36.71 11.56C39.59 14.5 41.45 18.44 41.74 22.8ZM24 41.8C21.32 41.8 18.87 39.22 17.24 35.25C19.34 34.43 21.63 34 24 34C26.37 34 28.66 34.43 30.76 35.25C29.13 39.22 26.68 41.8 24 41.8V41.8ZM32.93 36.29C33.73 36.74 34.5 37.24 35.22 37.8C33.8 38.95 32.2 39.88 30.47 40.56C31.41 39.37 32.24 37.93 32.93 36.28V36.29ZM17.52 40.57C15.79 39.89 14.19 38.96 12.77 37.81C13.49 37.24 14.26 36.74 15.06 36.3C15.75 37.95 16.58 39.39 17.52 40.58V40.57ZM24 32.01C21.4 32.01 18.89 32.48 16.57 33.37C15.81 30.95 15.33 28.17 15.23 25.21H32.77C32.67 28.17 32.19 30.95 31.43 33.37C29.11 32.48 26.6 32.01 24 32.01ZM15.23 22.81C15.33 19.85 15.81 17.07 16.57 14.65C18.89 15.54 21.4 16.01 24 16.01C26.6 16.01 29.11 15.54 31.43 14.65C32.19 17.07 32.67 19.85 32.77 22.81H15.23ZM24 6.19999C26.68 6.19999 29.13 8.77999 30.76 12.75C28.66 13.57 26.37 14 24 14C21.63 14 19.34 13.57 17.24 12.75C18.87 8.77999 21.32 6.19999 24 6.19999V6.19999ZM15.07 11.71C14.27 11.26 13.5 10.76 12.78 10.2C14.2 9.04999 15.8 8.11999 17.53 7.43999C16.59 8.62999 15.76 10.07 15.07 11.72V11.71ZM30.48 7.43999C32.21 8.11999 33.81 9.04999 35.23 10.2C34.51 10.77 33.74 11.27 32.94 11.71C32.25 10.06 31.42 8.61999 30.48 7.42999V7.43999ZM11.29 11.56C12.25 12.34 13.27 13.03 14.36 13.61C13.48 16.31 12.94 19.43 12.83 22.8H6.26005C6.55005 18.44 8.41005 14.5 11.29 11.56ZM6.26005 25.2H12.83C12.94 28.57 13.48 31.69 14.36 34.39C13.27 34.97 12.25 35.66 11.29 36.44C8.41005 33.5 6.55005 29.56 6.26005 25.2V25.2ZM36.71 36.44C35.75 35.66 34.73 34.97 33.64 34.39C34.52 31.69 35.06 28.57 35.17 25.2H41.74C41.45 29.56 39.59 33.5 36.71 36.44Z" fill="#1F2024"/>
</svg>
