<svg width="48" height="48" viewBox="0 0 48 48" fill="none" xmlns="http://www.w3.org/2000/svg">
<path d="M23.9998 3.7998C12.8598 3.7998 3.7998 12.8598 3.7998 23.9998C3.7998 35.1398 12.8598 44.1998 23.9998 44.1998C35.1398 44.1998 44.1998 35.1398 44.1998 23.9998C44.1998 12.8598 35.1398 3.7998 23.9998 3.7998ZM41.7398 22.7998H35.1698C35.0598 19.4298 34.5198 16.3098 33.6398 13.6098C34.7298 13.0298 35.7498 12.3398 36.7098 11.5598C39.5898 14.4998 41.4498 18.4398 41.7398 22.7998ZM23.9998 41.7998C21.3198 41.7998 18.8698 39.2198 17.2398 35.2498C19.3398 34.4298 21.6298 33.9998 23.9998 33.9998C26.3698 33.9998 28.6598 34.4298 30.7598 35.2498C29.1298 39.2198 26.6798 41.7998 23.9998 41.7998V41.7998ZM32.9298 36.2898C33.7298 36.7398 34.4998 37.2398 35.2198 37.7998C33.7998 38.9498 32.1998 39.8798 30.4698 40.5598C31.4098 39.3698 32.2398 37.9298 32.9298 36.2798V36.2898ZM17.5198 40.5698C15.7898 39.8898 14.1898 38.9598 12.7698 37.8098C13.4898 37.2398 14.2598 36.7398 15.0598 36.2998C15.7498 37.9498 16.5798 39.3898 17.5198 40.5798V40.5698ZM23.9998 32.0098C21.3998 32.0098 18.8898 32.4798 16.5698 33.3698C15.8098 30.9498 15.3298 28.1698 15.2298 25.2098H32.7698C32.6698 28.1698 32.1898 30.9498 31.4298 33.3698C29.1098 32.4798 26.5998 32.0098 23.9998 32.0098ZM15.2298 22.8098C15.3298 19.8498 15.8098 17.0698 16.5698 14.6498C18.8898 15.5398 21.3998 16.0098 23.9998 16.0098C26.5998 16.0098 29.1098 15.5398 31.4298 14.6498C32.1898 17.0698 32.6698 19.8498 32.7698 22.8098H15.2298ZM23.9998 6.1998C26.6798 6.1998 29.1298 8.7798 30.7598 12.7498C28.6598 13.5698 26.3698 13.9998 23.9998 13.9998C21.6298 13.9998 19.3398 13.5698 17.2398 12.7498C18.8698 8.7798 21.3198 6.1998 23.9998 6.1998V6.1998ZM15.0698 11.7098C14.2698 11.2598 13.4998 10.7598 12.7798 10.1998C14.1998 9.0498 15.7998 8.1198 17.5298 7.4398C16.5898 8.6298 15.7598 10.0698 15.0698 11.7198V11.7098ZM30.4798 7.4398C32.2098 8.1198 33.8098 9.0498 35.2298 10.1998C34.5098 10.7698 33.7398 11.2698 32.9398 11.7098C32.2498 10.0598 31.4198 8.6198 30.4798 7.4298V7.4398ZM11.2898 11.5598C12.2498 12.3398 13.2698 13.0298 14.3598 13.6098C13.4798 16.3098 12.9398 19.4298 12.8298 22.7998H6.2598C6.5498 18.4398 8.4098 14.4998 11.2898 11.5598ZM6.2598 25.1998H12.8298C12.9398 28.5698 13.4798 31.6898 14.3598 34.3898C13.2698 34.9698 12.2498 35.6598 11.2898 36.4398C8.4098 33.4998 6.5498 29.5598 6.2598 25.1998V25.1998ZM36.7098 36.4398C35.7498 35.6598 34.7298 34.9698 33.6398 34.3898C34.5198 31.6898 35.0598 28.5698 35.1698 25.1998H41.7398C41.4498 29.5598 39.5898 33.4998 36.7098 36.4398Z" fill="#1F2024"/>
</svg>
