<svg width="48" height="48" viewBox="0 0 48 48" fill="none" xmlns="http://www.w3.org/2000/svg">
<path d="M24 3.30005C12.59 3.30005 3.30005 12.59 3.30005 24C3.30005 35.41 12.59 44.7001 24 44.7001C35.41 44.7001 44.7001 35.41 44.7001 24C44.7001 12.59 35.41 3.30005 24 3.30005ZM41.21 22.3H35.65C35.51 19.23 35.02 16.37 34.23 13.85C35.07 13.37 35.89 12.85 36.66 12.26C39.16 14.96 40.83 18.44 41.21 22.31V22.3ZM24 41.3C21.51 41.3 19.41 38.93 17.94 35.53C19.84 34.86 21.88 34.5 24 34.5C26.12 34.5 28.16 34.86 30.06 35.53C28.59 38.93 26.49 41.3 24 41.3ZM33.17 36.99C33.59 37.24 34 37.52 34.39 37.8C33.61 38.39 32.77 38.9201 31.89 39.3801C32.35 38.6401 32.78 37.85 33.17 36.99ZM16.11 39.3801C15.23 38.9301 14.4 38.4 13.61 37.8C14.01 37.51 14.41 37.24 14.83 36.99C15.22 37.85 15.65 38.6401 16.11 39.3801ZM24 31.5C21.54 31.5 19.16 31.93 16.94 32.71C16.3 30.52 15.89 28.1 15.75 25.7H32.25C32.12 28.1 31.7 30.52 31.06 32.71C28.84 31.93 26.46 31.5 24 31.5V31.5ZM15.75 22.3C15.88 19.9 16.3 17.48 16.94 15.29C19.16 16.07 21.54 16.5 24 16.5C26.46 16.5 28.84 16.07 31.06 15.29C31.7 17.48 32.11 19.9 32.25 22.3H15.75ZM24 6.70005C26.49 6.70005 28.59 9.07005 30.06 12.47C28.16 13.14 26.12 13.5 24 13.5C21.88 13.5 19.84 13.14 17.94 12.47C19.41 9.07005 21.51 6.70005 24 6.70005V6.70005ZM14.83 11.01C14.41 10.76 14 10.48 13.61 10.2C14.39 9.61005 15.23 9.08005 16.11 8.62005C15.65 9.36005 15.22 10.15 14.83 11.01V11.01ZM31.89 8.62005C32.77 9.07005 33.6 9.60005 34.39 10.2C33.99 10.49 33.59 10.76 33.17 11.01C32.78 10.15 32.35 9.36005 31.89 8.62005ZM11.34 12.25C12.11 12.85 12.92 13.37 13.77 13.84C12.98 16.36 12.49 19.22 12.35 22.29H6.79005C7.17005 18.43 8.84005 14.94 11.34 12.24V12.25ZM6.79005 25.7H12.35C12.49 28.77 12.98 31.63 13.77 34.15C12.93 34.63 12.11 35.15 11.34 35.74C8.84005 33.04 7.17005 29.56 6.79005 25.69V25.7ZM36.67 35.75C35.9 35.15 35.09 34.63 34.24 34.16C35.03 31.64 35.52 28.78 35.66 25.71H41.22C40.84 29.57 39.17 33.06 36.67 35.76V35.75Z" fill="#1F2024"/>
</svg>
